<svg xmlns="http://www.w3.org/2000/svg" viewBox="0 0 862 420" width="862" height="420">
<defs><clipPath id="clip-0-0" clipPathUnits="userSpaceOnUse"><rect x="0" y="0" width="420" height="420" /></clipPath><clipPath id="clip-0-1" clipPathUnits="userSpaceOnUse"><rect x="442" y="0" width="420" height="420" /></clipPath></defs>
<g clip-path="url(#clip-0-0)"><g transform="translate(0,0)">  <rect width="420" height="420" fill="#faf9f5" />
  <polyline points="242.41,201.7 242.83,201.89 243.24,202.07" fill="none" stroke="#1a1a1a" stroke-width="0.7" stroke-opacity="0.55" stroke-linecap="round" stroke-linejoin="round" />
  <polyline points="232.88,203.27 233.56,203.54 234.24,203.82" fill="none" stroke="#1a1a1a" stroke-width="0.7" stroke-opacity="0.55" stroke-linecap="round" stroke-linejoin="round" />
  <polyline points="226.42,204.41 228.01,205.12 229.6,205.83" fill="none" stroke="#1a1a1a" stroke-width="0.7" stroke-opacity="0.55" stroke-linecap="round" stroke-linejoin="round" />
  <polyline points="217.52,204.58 220.91,206.23 223.75,207.45 226.56,208.65" fill="none" stroke="#1a1a1a" stroke-width="0.7" stroke-opacity="0.55" stroke-linecap="round" stroke-linejoin="round" />
  <polyline points="199.41,201.18 202.94,202.39 206.37,203.9 209.78,205.38 213.1,206.8 216.38,208.22 219.71,209.68 223.19,211.21" fill="none" stroke="#1a1a1a" stroke-width="0.7" stroke-opacity="0.55" stroke-linecap="round" stroke-linejoin="round" />
  <polyline points="174.29,194.15 176.53,195.2 178.78,196.26" fill="none" stroke="#1a1a1a" stroke-width="0.7" stroke-opacity="0.55" stroke-linecap="round" stroke-linejoin="round" />
  <polyline points="180.29,196.97 184.14,198.16 187.73,199.75 191.38,201.35 195,202.93 198.59,204.51 202.14,206.1 205.66,207.7 209.15,209.31 212.62,210.92 216.14,212.59 219.77,214.32" fill="none" stroke="#1a1a1a" stroke-width="0.7" stroke-opacity="0.55" stroke-linecap="round" stroke-linejoin="round" />
  <polyline points="181.19,201.98 184.61,203.48 187.99,204.92 191.41,206.44 194.83,207.97 198.24,209.51 201.64,211.05 205.02,212.58 208.41,214.1 211.82,215.54 215.21,216.78 218.63,217.78" fill="none" stroke="#1a1a1a" stroke-width="0.7" stroke-opacity="0.55" stroke-linecap="round" stroke-linejoin="round" />
  <polyline points="182.68,206.23 186.08,207.64 189.48,209.08 193.02,210.62 196.57,212.17 200.11,213.72 203.65,215.3 207.22,216.9 210.81,218.49 214.35,220.1 217.81,221.78" fill="none" stroke="#1a1a1a" stroke-width="0.7" stroke-opacity="0.55" stroke-linecap="round" stroke-linejoin="round" />
  <polyline points="184.59,212.28 188.09,213.94 191.67,215.53 195.24,217.08 198.81,218.6 202.38,220.12 205.94,221.63 209.51,223.11 213.11,224.62 216.74,226.15" fill="none" stroke="#1a1a1a" stroke-width="0.7" stroke-opacity="0.55" stroke-linecap="round" stroke-linejoin="round" />
  <polyline points="184.53,216.46 187.9,218.04 191.31,219.58 194.77,221.09 198.23,222.6 201.69,224.11 205.19,225.64 208.74,227.17 212.29,228.68 215.89,230.09" fill="none" stroke="#1a1a1a" stroke-width="0.7" stroke-opacity="0.55" stroke-linecap="round" stroke-linejoin="round" />
  <polyline points="185.32,220.92 188.72,222.45 192.05,223.91 195.34,225.31 198.62,226.7 201.9,228.09 205.18,229.49 208.48,230.86 211.75,232.28 214.84,233.76" fill="none" stroke="#1a1a1a" stroke-width="0.7" stroke-opacity="0.55" stroke-linecap="round" stroke-linejoin="round" />
  <polyline points="185.14,225.26 188.73,226.81 192.25,228.36 195.86,229.94 199.44,231.52 203,233.11 206.69,234.72 210.35,236.28 214.17,237.68" fill="none" stroke="#1a1a1a" stroke-width="0.7" stroke-opacity="0.55" stroke-linecap="round" stroke-linejoin="round" />
  <polyline points="185.18,229.06 188.63,230.75 192.14,232.5 195.73,234.21 199.3,235.93 202.85,237.62 206.47,239.29 210.01,240.94 213.4,242.62" fill="none" stroke="#1a1a1a" stroke-width="0.7" stroke-opacity="0.55" stroke-linecap="round" stroke-linejoin="round" />
  <polyline points="185.19,234.13 188.72,235.66 192.29,237.18 195.86,238.7 199.42,240.23 202.98,241.77 206.52,243.33 210.06,244.9 213.58,246.38" fill="none" stroke="#1a1a1a" stroke-width="0.7" stroke-opacity="0.55" stroke-linecap="round" stroke-linejoin="round" />
  <polyline points="185.28,238.67 188.87,240.28 192.42,241.87 195.99,243.43 199.53,244.98 203.05,246.52 206.57,248.05 210.08,249.6 213.53,251.11" fill="none" stroke="#1a1a1a" stroke-width="0.7" stroke-opacity="0.55" stroke-linecap="round" stroke-linejoin="round" />
  <polyline points="184.85,242.48 188.35,244.13 191.99,245.71 195.67,247.27 199.37,248.83 203.06,250.38 206.72,251.93 210.32,253.51 214.08,255.23" fill="none" stroke="#1a1a1a" stroke-width="0.7" stroke-opacity="0.55" stroke-linecap="round" stroke-linejoin="round" />
  <polyline points="185.15,246.68 188.76,248.22 192.42,249.83 196.08,251.51 199.74,253.21 203.39,254.98 207.02,256.79 210.62,258.54 214.16,260.15" fill="none" stroke="#1a1a1a" stroke-width="0.7" stroke-opacity="0.55" stroke-linecap="round" stroke-linejoin="round" />
  <polyline points="185.04,251.09 188.33,252.55 191.65,254.01 195.02,255.43 198.37,256.86 201.73,258.29 205.1,259.67 208.46,261.14 211.83,262.7 215.21,264.46" fill="none" stroke="#1a1a1a" stroke-width="0.7" stroke-opacity="0.55" stroke-linecap="round" stroke-linejoin="round" />
  <polyline points="184.89,255.52 188.39,257.08 191.87,258.65 195.37,260.22 198.85,261.82 202.35,263.43 205.89,265.05 209.43,266.69 212.99,268.35 216.61,269.81" fill="none" stroke="#1a1a1a" stroke-width="0.7" stroke-opacity="0.55" stroke-linecap="round" stroke-linejoin="round" />
  <polyline points="184.47,259.88 187.67,261.36 190.96,262.85 194.29,264.36 197.62,265.86 200.94,267.36 204.24,268.88 207.56,270.4 210.92,271.93 214.38,273.47 217.89,274.95" fill="none" stroke="#1a1a1a" stroke-width="0.7" stroke-opacity="0.55" stroke-linecap="round" stroke-linejoin="round" />
  <polyline points="184.62,265.11 188.03,266.63 191.46,268.13 194.84,269.61 198.23,271.1 201.65,272.59 205.14,274.05 208.68,275.5 212.23,276.98 215.77,278.49 219.17,280.09" fill="none" stroke="#1a1a1a" stroke-width="0.7" stroke-opacity="0.55" stroke-linecap="round" stroke-linejoin="round" />
  <polyline points="184.28,269.05 187.9,270.6 191.53,272.18 195.18,273.78 198.82,275.35 202.48,276.89 206.22,278.42 209.98,279.97 213.71,281.6 217.42,283.52 221,285.44" fill="none" stroke="#1a1a1a" stroke-width="0.7" stroke-opacity="0.55" stroke-linecap="round" stroke-linejoin="round" />
  <polyline points="183.66,272.9 187,274.52 190.45,276.09 194.01,277.65 197.6,279.21 201.21,280.76 204.85,282.34 208.49,283.89 212.11,285.39 215.69,286.87 219.12,288.36 222.48,290.01" fill="none" stroke="#1a1a1a" stroke-width="0.7" stroke-opacity="0.55" stroke-linecap="round" stroke-linejoin="round" />
  <polyline points="183.52,277.42 187.22,279.07 190.85,280.64 194.46,282.23 198.08,283.82 201.7,285.42 205.34,287.06 208.98,288.68 212.65,290.3 216.31,291.94 220.01,293.67 223.68,295.45" fill="none" stroke="#1a1a1a" stroke-width="0.7" stroke-opacity="0.55" stroke-linecap="round" stroke-linejoin="round" />
  <polyline points="183.9,281.16 187.55,282.86 191.16,284.57 194.78,286.24 198.41,287.92 202.03,289.6 205.61,291.25 209.12,292.87 212.6,294.46 216.07,296.03 219.52,297.59 223.19,299.13" fill="none" stroke="#1a1a1a" stroke-width="0.7" stroke-opacity="0.55" stroke-linecap="round" stroke-linejoin="round" />
  <polyline points="183.01,285.74 186.56,287.17 190.07,288.59 193.57,290.18 197.04,291.76 200.49,293.33 203.95,294.91 207.45,296.54 210.97,298.17 214.51,299.8 218.07,301.4 221.77,303.16" fill="none" stroke="#1a1a1a" stroke-width="0.7" stroke-opacity="0.55" stroke-linecap="round" stroke-linejoin="round" />
  <polyline points="181.77,289.36 185.13,290.91 188.57,292.49 192.03,294.09 195.51,295.72 199.02,297.35 202.57,298.97 206.18,300.6 209.81,302.2 213.44,303.72 217.02,305.16 220.41,306.41" fill="none" stroke="#1a1a1a" stroke-width="0.7" stroke-opacity="0.55" stroke-linecap="round" stroke-linejoin="round" />
  <polyline points="180.87,293.16 184.35,294.76 187.8,296.37 191.24,297.9 194.7,299.4 198.16,300.91 201.64,302.44 205.12,303.96 208.61,305.46 212.1,306.97 215.59,308.46 219.02,309.9" fill="none" stroke="#1a1a1a" stroke-width="0.7" stroke-opacity="0.55" stroke-linecap="round" stroke-linejoin="round" />
  <polyline points="179.75,297.1 183.19,298.71 186.67,300.27 190.16,301.82 193.69,303.35 197.22,304.9 200.76,306.47 204.3,308.06 207.83,309.63 211.35,311.23 214.92,312.91" fill="none" stroke="#1a1a1a" stroke-width="0.7" stroke-opacity="0.55" stroke-linecap="round" stroke-linejoin="round" />
  <polyline points="182.68,302.75 186.07,304.18 189.42,305.65 192.74,307.13 196.08,308.61 199.41,310.1 202.73,311.59 206.07,313.11 209.28,314.67" fill="none" stroke="#1a1a1a" stroke-width="0.7" stroke-opacity="0.55" stroke-linecap="round" stroke-linejoin="round" />
  <polyline points="187.51,309 190.76,310.45 193.87,311.88 196.99,313.31 200.15,314.77" fill="none" stroke="#1a1a1a" stroke-width="0.7" stroke-opacity="0.55" stroke-linecap="round" stroke-linejoin="round" />
  <polyline points="240.98,202.36 241.01,202.62 241.04,202.87" fill="none" stroke="#1a1a1a" stroke-width="0.7" stroke-opacity="0.55" stroke-linecap="round" stroke-linejoin="round" />
  <polyline points="237.61,201.79 237.67,202.4 237.72,203" fill="none" stroke="#1a1a1a" stroke-width="0.7" stroke-opacity="0.55" stroke-linecap="round" stroke-linejoin="round" />
  <polyline points="233.24,203.14 233.28,203.54 233.32,203.93" fill="none" stroke="#1a1a1a" stroke-width="0.7" stroke-opacity="0.55" stroke-linecap="round" stroke-linejoin="round" />
  <polyline points="230.04,204.26 230.12,205.11 230.21,205.95" fill="none" stroke="#1a1a1a" stroke-width="0.7" stroke-opacity="0.55" stroke-linecap="round" stroke-linejoin="round" />
  <polyline points="225.29,203.82 225.53,206.89 225.87,209.12" fill="none" stroke="#1a1a1a" stroke-width="0.7" stroke-opacity="0.55" stroke-linecap="round" stroke-linejoin="round" />
  <polyline points="221.24,204.44 221.9,208.47 222.39,212.16" fill="none" stroke="#1a1a1a" stroke-width="0.7" stroke-opacity="0.55" stroke-linecap="round" stroke-linejoin="round" />
  <polyline points="217.76,204.5 217.63,208.45 217.84,212.43 218.2,216.61" fill="none" stroke="#1a1a1a" stroke-width="0.7" stroke-opacity="0.55" stroke-linecap="round" stroke-linejoin="round" />
  <polyline points="213.22,203.56 213.53,207.56 213.94,210.92 214.37,214.4 214.81,217.99 215.19,221.57 215.59,225.17 216,228.81" fill="none" stroke="#1a1a1a" stroke-width="0.7" stroke-opacity="0.55" stroke-linecap="round" stroke-linejoin="round" />
  <polyline points="222.1,291 222.43,294.31 222.77,297.62" fill="none" stroke="#1a1a1a" stroke-width="0.7" stroke-opacity="0.55" stroke-linecap="round" stroke-linejoin="round" />
  <polyline points="209.66,203.61 209.34,206.76 209.72,210.38 210.13,214.04 210.58,217.91 210.99,221.82 211.4,225.75 211.8,229.67 212.21,233.54 212.65,237.33 213.07,241.03 213.42,244.79" fill="none" stroke="#1a1a1a" stroke-width="0.7" stroke-opacity="0.55" stroke-linecap="round" stroke-linejoin="round" />
  <polyline points="215.79,268.72 216.23,272.42 216.68,276.15 217.13,279.88 217.58,283.62 218.05,287.37 218.52,291.12 218.99,294.86 219.45,298.61 219.91,302.35 220.28,306.17" fill="none" stroke="#1a1a1a" stroke-width="0.7" stroke-opacity="0.55" stroke-linecap="round" stroke-linejoin="round" />
  <polyline points="205.42,202.43 205.49,205.39 205.92,209.27 206.37,213.17 206.81,217.13 207.18,221.15 207.5,225.2 207.82,229.27 208.15,233.32 208.51,237.34 208.93,241.34 209.36,245.31 209.81,249.28 210.25,253.23 210.69,257.18 211.12,261.13 211.54,265.1 212,269.09 212.45,273.07" fill="none" stroke="#1a1a1a" stroke-width="0.7" stroke-opacity="0.55" stroke-linecap="round" stroke-linejoin="round" />
  <polyline points="215.85,304.28 216.25,308.16 216.61,311.89" fill="none" stroke="#1a1a1a" stroke-width="0.7" stroke-opacity="0.55" stroke-linecap="round" stroke-linejoin="round" />
  <polyline points="200.81,201.36 201.25,205.23 201.69,209.17 202.12,213.12 202.54,217.04 202.96,220.85 203.37,224.61" fill="none" stroke="#1a1a1a" stroke-width="0.7" stroke-opacity="0.55" stroke-linecap="round" stroke-linejoin="round" />
  <polyline points="212.85,310.34 213.36,314.18" fill="none" stroke="#1a1a1a" stroke-width="0.7" stroke-opacity="0.55" stroke-linecap="round" stroke-linejoin="round" />
  <polyline points="196.82,200.58 197.1,204.13 197.63,208.07 198.12,212.02 198.57,215.96 198.98,219.91 199.38,223.86 199.78,227.8" fill="none" stroke="#1a1a1a" stroke-width="0.7" stroke-opacity="0.55" stroke-linecap="round" stroke-linejoin="round" />
  <polyline points="208.28,310.01 208.66,314.03" fill="none" stroke="#1a1a1a" stroke-width="0.7" stroke-opacity="0.55" stroke-linecap="round" stroke-linejoin="round" />
  <polyline points="193.37,199.21 193.07,203.69 193.27,207.81 193.48,211.89 193.76,215.94 194.16,219.9 194.62,223.83 195.1,227.76 195.59,231.68 196.1,235.59" fill="none" stroke="#1a1a1a" stroke-width="0.7" stroke-opacity="0.55" stroke-linecap="round" stroke-linejoin="round" />
  <polyline points="188.7,198.28 188.81,202.85 189.3,206.76 189.8,210.63 190.32,214.44 190.72,218.33 191.06,222.22 191.41,226.09 191.79,229.92 192.19,233.72 192.61,237.5 193.08,241.26" fill="none" stroke="#1a1a1a" stroke-width="0.7" stroke-opacity="0.55" stroke-linecap="round" stroke-linejoin="round" />
  <polyline points="200.42,310.86 200.78,314.65" fill="none" stroke="#1a1a1a" stroke-width="0.7" stroke-opacity="0.55" stroke-linecap="round" stroke-linejoin="round" />
  <polyline points="184.58,197.21 184.96,201.56 185.36,205.47 185.8,209.32 186.25,213.19 186.66,217.15 187.09,221.13 187.5,225.12 187.91,229.11 188.3,233.1 188.67,237.09 189.03,241.09 189.37,245.09 189.71,249.1 190.06,253.09 190.4,257.08 190.76,261.05 191.15,264.98 191.57,268.89 192.02,272.79 192.5,276.68" fill="none" stroke="#1a1a1a" stroke-width="0.7" stroke-opacity="0.55" stroke-linecap="round" stroke-linejoin="round" />
  <polyline points="195.61,303.82 196.03,307.71 196.45,311.62 196.98,315.51" fill="none" stroke="#1a1a1a" stroke-width="0.7" stroke-opacity="0.55" stroke-linecap="round" stroke-linejoin="round" />
  <polyline points="180.26,196.49 180.42,199.55 180.74,201.95" fill="none" stroke="#1a1a1a" stroke-width="0.7" stroke-opacity="0.55" stroke-linecap="round" stroke-linejoin="round" />
  <polyline points="184.99,242.31 185.39,246.06 185.8,249.82 186.22,253.58 186.65,257.35 187.08,261.13 187.52,264.91 187.95,268.7 188.37,272.5 188.77,276.31 189.17,280.13 189.56,283.96 189.95,287.77 190.38,291.59 190.86,295.42 191.35,299.25 191.85,303.06 192.32,306.87 192.72,310.65 193,314.37" fill="none" stroke="#1a1a1a" stroke-width="0.7" stroke-opacity="0.55" stroke-linecap="round" stroke-linejoin="round" />
  <polyline points="176.28,193.98 176.4,194.94 176.51,195.91" fill="none" stroke="#1a1a1a" stroke-width="0.7" stroke-opacity="0.55" stroke-linecap="round" stroke-linejoin="round" />
  <polyline points="183.52,270.66 183.89,274.32 184.26,277.98 184.65,281.66 185.05,285.34 185.48,289 185.93,292.65 186.41,296.31 186.9,299.96 187.39,303.62 187.86,307.28 188.21,310.97" fill="none" stroke="#1a1a1a" stroke-width="0.7" stroke-opacity="0.55" stroke-linecap="round" stroke-linejoin="round" />
  <polyline points="171.88,194.35 171.92,194.67 171.96,194.99" fill="none" stroke="#1a1a1a" stroke-width="0.7" stroke-opacity="0.55" stroke-linecap="round" stroke-linejoin="round" />
  <polyline points="182.07,288.75 182.41,292.13 182.75,295.5 183.1,298.86 183.46,302.2 183.75,305.52" fill="none" stroke="#1a1a1a" stroke-width="0.7" stroke-opacity="0.55" stroke-linecap="round" stroke-linejoin="round" />
  <polyline points="212.14,312.28 209.32,314.28" fill="none" stroke="#1a1a1a" stroke-width="0.7" stroke-opacity="0.55" stroke-linecap="round" stroke-linejoin="round" />
  <polyline points="197.4,313.16 194.17,315.53" fill="none" stroke="#1a1a1a" stroke-width="0.7" stroke-opacity="0.55" stroke-linecap="round" stroke-linejoin="round" />
  <polyline points="184.07,297.68 180.95,299.97" fill="none" stroke="#1a1a1a" stroke-width="0.7" stroke-opacity="0.55" stroke-linecap="round" stroke-linejoin="round" />
  <polyline points="183.25,293.26 180.33,295.47" fill="none" stroke="#1a1a1a" stroke-width="0.7" stroke-opacity="0.55" stroke-linecap="round" stroke-linejoin="round" />
  <polyline points="185.12,287.55 182.08,289.9" fill="none" stroke="#1a1a1a" stroke-width="0.7" stroke-opacity="0.55" stroke-linecap="round" stroke-linejoin="round" />
  <polyline points="185.42,281.89 182.46,283.93" fill="none" stroke="#1a1a1a" stroke-width="0.7" stroke-opacity="0.55" stroke-linecap="round" stroke-linejoin="round" />
  <polyline points="187.27,276.23 184.14,278.41" fill="none" stroke="#1a1a1a" stroke-width="0.7" stroke-opacity="0.55" stroke-linecap="round" stroke-linejoin="round" />
  <polyline points="187.01,271.11 184.03,273.42" fill="none" stroke="#1a1a1a" stroke-width="0.7" stroke-opacity="0.55" stroke-linecap="round" stroke-linejoin="round" />
  <polyline points="187.25,266.4 184.37,268.51" fill="none" stroke="#1a1a1a" stroke-width="0.7" stroke-opacity="0.55" stroke-linecap="round" stroke-linejoin="round" />
  <polyline points="227.2,207.37 224.03,209.69 220.86,211.99 217.67,214.28" fill="none" stroke="#1a1a1a" stroke-width="0.7" stroke-opacity="0.55" stroke-linecap="round" stroke-linejoin="round" />
  <polyline points="221.21,206.79 218.2,209.04 215.23,211.27" fill="none" stroke="#1a1a1a" stroke-width="0.7" stroke-opacity="0.55" stroke-linecap="round" stroke-linejoin="round" />
  <polyline points="188.36,230.89 185.28,233.09" fill="none" stroke="#1a1a1a" stroke-width="0.7" stroke-opacity="0.55" stroke-linecap="round" stroke-linejoin="round" />
  <polyline points="214.32,207.05 211.07,209.33 207.84,211.61" fill="none" stroke="#1a1a1a" stroke-width="0.7" stroke-opacity="0.55" stroke-linecap="round" stroke-linejoin="round" />
  <polyline points="188.41,225.41 185.01,227.79" fill="none" stroke="#1a1a1a" stroke-width="0.7" stroke-opacity="0.55" stroke-linecap="round" stroke-linejoin="round" />
  <polyline points="208.93,206.06 205.95,208.27 202.98,210.48 200.01,212.7" fill="none" stroke="#1a1a1a" stroke-width="0.7" stroke-opacity="0.55" stroke-linecap="round" stroke-linejoin="round" />
  <polyline points="188.09,221.66 185.03,223.94" fill="none" stroke="#1a1a1a" stroke-width="0.7" stroke-opacity="0.55" stroke-linecap="round" stroke-linejoin="round" />
  <polyline points="203.74,204.79 200.59,207.03 197.44,209.32 194.27,211.68" fill="none" stroke="#1a1a1a" stroke-width="0.7" stroke-opacity="0.55" stroke-linecap="round" stroke-linejoin="round" />
  <polyline points="188.05,216.5 185.04,218.8" fill="none" stroke="#1a1a1a" stroke-width="0.7" stroke-opacity="0.55" stroke-linecap="round" stroke-linejoin="round" />
  <polyline points="198.43,203.46 195.61,205.57 192.79,207.69 189.96,209.8 187.18,211.83 184.39,213.81" fill="none" stroke="#1a1a1a" stroke-width="0.7" stroke-opacity="0.55" stroke-linecap="round" stroke-linejoin="round" />
  <polyline points="193.17,202.26 189.96,204.57 186.73,206.98 183.43,209.44" fill="none" stroke="#1a1a1a" stroke-width="0.7" stroke-opacity="0.55" stroke-linecap="round" stroke-linejoin="round" />
  <polyline points="188.71,201.67 185.79,203.96 182.81,206.3" fill="none" stroke="#1a1a1a" stroke-width="0.7" stroke-opacity="0.55" stroke-linecap="round" stroke-linejoin="round" />
  <polyline points="183.39,200.09 181.24,201.94" fill="none" stroke="#1a1a1a" stroke-width="0.7" stroke-opacity="0.55" stroke-linecap="round" stroke-linejoin="round" />
  <polyline points="179.9,197.49 179.45,197.83" fill="none" stroke="#1a1a1a" stroke-width="0.7" stroke-opacity="0.55" stroke-linecap="round" stroke-linejoin="round" />
  <polyline points="229.5,96.68 232.95,98.23 236.41,99.76 239.86,101.25 243.31,102.7 246.75,104.16 250.23,105.59 253.67,107.06 257.07,108.64 260.51,110.15 263.98,111.57" fill="none" stroke="#1a1a1a" stroke-width="0.7" stroke-opacity="0.55" stroke-linecap="round" stroke-linejoin="round" />
  <polyline points="216.17,95.46 219.77,96.94 223.4,98.46 227.04,100.01 230.7,101.59 234.35,103.21 238.01,104.86 241.68,106.51 245.36,108.17 249.01,109.81 252.66,111.41 256.29,112.94 259.85,114.34 263.4,115.72 266.96,117.12 270.53,118.57" fill="none" stroke="#1a1a1a" stroke-width="0.7" stroke-opacity="0.55" stroke-linecap="round" stroke-linejoin="round" />
  <polyline points="206.68,94.45 210.48,96.02 214.04,97.4 217.45,98.92 220.83,100.47 224.2,102.07 227.57,103.71 230.96,105.39 234.39,107.08 237.85,108.76 241.31,110.37 244.78,111.95 248.25,113.5 251.7,115.05 255.14,116.6 258.55,118.15 261.94,119.7 265.31,121.26 268.72,122.77 272.16,124.21 275.78,125.66" fill="none" stroke="#1a1a1a" stroke-width="0.7" stroke-opacity="0.55" stroke-linecap="round" stroke-linejoin="round" />
  <polyline points="198.13,95.42 201.57,97.12 205.01,98.75 208.46,100.29 211.89,101.78 215.29,103.27 218.69,104.76 222.11,106.26 225.56,107.76 229.05,109.27 232.57,110.82 236.08,112.38 239.6,113.96 243.13,115.53 246.66,117.1 250.2,118.66 253.75,120.2 257.3,121.72 260.85,123.24 264.38,124.77 267.92,126.3 271.45,127.84 275.08,129.47 278.76,131.2" fill="none" stroke="#1a1a1a" stroke-width="0.7" stroke-opacity="0.55" stroke-linecap="round" stroke-linejoin="round" />
  <polyline points="189.42,95.27 192.73,96.87 196.02,98.6 199.43,100.4 203.03,102.11 206.7,103.77 210.39,105.42 214.09,107.06 217.77,108.69 221.43,110.31 225.05,111.93 228.64,113.55 232.16,115.19 235.71,116.85 239.28,118.52 242.9,120.18 246.54,121.83 250.21,123.47 253.88,125.08 257.54,126.66 261.18,128.23 264.79,129.78 268.37,131.34 271.98,132.95 275.6,134.57 279.17,136.16 282.67,137.83" fill="none" stroke="#1a1a1a" stroke-width="0.7" stroke-opacity="0.55" stroke-linecap="round" stroke-linejoin="round" />
  <polyline points="184.47,98.02 187.97,99.68 191.51,101.4 195.04,103.18 198.63,104.93 202.35,106.53 206.13,108.12 209.92,109.69 213.71,111.24 217.46,112.75 221.17,114.23 224.83,115.71 228.46,117.21 232.07,118.76 235.67,120.35 239.27,121.96 242.89,123.59 246.5,125.23 250.1,126.85 253.68,128.47 257.25,130.07 260.82,131.65 264.37,133.22 267.93,134.77 271.49,136.33 275.08,137.85 278.73,139.48 282.35,141.28 285.85,143.04" fill="none" stroke="#1a1a1a" stroke-width="0.7" stroke-opacity="0.55" stroke-linecap="round" stroke-linejoin="round" />
  <polyline points="179.56,100.15 183.21,101.68 186.86,103.2 190.5,104.74 194.12,106.34 197.77,107.99 201.45,109.65 205.13,111.29 208.82,112.91 212.49,114.51 216.16,116.09 219.81,117.66 223.47,119.21 227.12,120.76 230.78,122.33 234.42,123.92 238.07,125.51 241.73,127.12 245.37,128.75 249.01,130.39 252.64,132.06 256.25,133.74 259.86,135.43 263.48,137.12 267.11,138.81 270.75,140.5 274.41,142.2 278.08,143.83 281.9,145.55 285.79,147.29 289.46,149.06" fill="none" stroke="#1a1a1a" stroke-width="0.7" stroke-opacity="0.55" stroke-linecap="round" stroke-linejoin="round" />
  <polyline points="175.54,102.79 179.22,104.45 182.95,106.09 186.66,107.75 190.33,109.47 193.95,111.15 197.6,112.77 201.25,114.37 204.9,115.94 208.55,117.49 212.2,119.06 215.84,120.64 219.48,122.23 223.09,123.84" fill="none" stroke="#1a1a1a" stroke-width="0.7" stroke-opacity="0.55" stroke-linecap="round" stroke-linejoin="round" />
  <polyline points="237.45,130.27 241.01,131.85 244.58,133.41 248.14,134.97 251.72,136.52 255.3,138.06 258.88,139.61 262.47,141.19 266.07,142.79 269.67,144.41 273.28,146.06 276.9,147.73 280.43,149.5 284.04,151.18 287.74,152.92 291.46,154.63" fill="none" stroke="#1a1a1a" stroke-width="0.7" stroke-opacity="0.55" stroke-linecap="round" stroke-linejoin="round" />
  <polyline points="170.97,104.89 174.55,106.53 178.1,108.11 181.65,109.68 185.22,111.28 188.82,112.91 192.45,114.56 196.07,116.22 199.68,117.87 203.3,119.52 206.92,121.16 210.55,122.8 214.18,124.44" fill="none" stroke="#1a1a1a" stroke-width="0.7" stroke-opacity="0.55" stroke-linecap="round" stroke-linejoin="round" />
  <polyline points="239.53,135.64 243.19,137.23 246.86,138.85 250.54,140.47 254.23,142.11 257.93,143.76 261.64,145.41 265.37,147.07 269.1,148.72 272.83,150.36 276.54,152 280.23,153.63 283.78,155.28 287.29,156.91 290.94,158.44 294.68,159.85" fill="none" stroke="#1a1a1a" stroke-width="0.7" stroke-opacity="0.55" stroke-linecap="round" stroke-linejoin="round" />
  <polyline points="166.21,107.08 169.9,108.63 173.65,110.21 177.41,111.85 181.13,113.54 184.8,115.27 188.45,116.97 192.07,118.65 195.69,120.34 199.3,122.03 202.9,123.7 206.5,125.38 210.09,127.07" fill="none" stroke="#1a1a1a" stroke-width="0.7" stroke-opacity="0.55" stroke-linecap="round" stroke-linejoin="round" />
  <polyline points="242.7,142.07 246.37,143.6 250.02,145.12 253.66,146.62 257.3,148.12 260.95,149.63 264.62,151.16 268.3,152.7 272,154.26 275.7,155.84 279.39,157.41 283.07,159 286.65,160.68 290.11,162.41 293.51,164.13 296.85,165.66" fill="none" stroke="#1a1a1a" stroke-width="0.7" stroke-opacity="0.55" stroke-linecap="round" stroke-linejoin="round" />
  <polyline points="162.98,110.48 166.63,112.15 170.27,113.82 173.87,115.48 177.42,117.14 180.95,118.74 184.52,120.3 188.13,121.84 191.74,123.35 195.36,124.86 198.98,126.38 202.61,127.9 206.24,129.44 209.86,130.99" fill="none" stroke="#1a1a1a" stroke-width="0.7" stroke-opacity="0.55" stroke-linecap="round" stroke-linejoin="round" />
  <polyline points="242.06,145.75 245.65,147.35 249.27,148.94 252.91,150.5 256.56,152.05 260.18,153.59 263.78,155.12 267.36,156.66 270.92,158.21 274.48,159.76 278.05,161.31 281.63,162.87 285.23,164.44 288.84,166.02 292.54,167.76 296.28,169.52 299.9,171.19" fill="none" stroke="#1a1a1a" stroke-width="0.7" stroke-opacity="0.55" stroke-linecap="round" stroke-linejoin="round" />
  <polyline points="160.04,113.56 163.63,114.94 167.31,116.32 171,117.78 174.68,119.32 178.31,120.9 181.91,122.49 185.49,124.11 189.07,125.73 192.65,127.36 196.22,129 199.78,130.63 203.34,132.25 206.89,133.86" fill="none" stroke="#1a1a1a" stroke-width="0.7" stroke-opacity="0.55" stroke-linecap="round" stroke-linejoin="round" />
  <polyline points="246.76,151.51 250.37,153.13 253.95,154.75 257.52,156.38 261.07,158.03 264.6,159.7 268.11,161.38 271.6,163.07 275.1,164.75 278.6,166.43 282.13,168.08 285.7,169.69 289.34,171.23 293.29,172.61 297.29,174.03 301.09,175.53" fill="none" stroke="#1a1a1a" stroke-width="0.7" stroke-opacity="0.55" stroke-linecap="round" stroke-linejoin="round" />
  <polyline points="157.01,116.74 160.62,118.41 164.16,120.09 167.66,121.76 171.15,123.41 174.68,125 178.26,126.45 181.8,127.91 185.32,129.37 188.83,130.84 192.33,132.33 195.85,133.85 199.36,135.39 202.88,136.95" fill="none" stroke="#1a1a1a" stroke-width="0.7" stroke-opacity="0.55" stroke-linecap="round" stroke-linejoin="round" />
  <polyline points="249.42,157.55 253.03,159.13 256.62,160.7 260.2,162.28 263.78,163.87 267.36,165.45 270.96,167.02 274.56,168.59 278.17,170.14 281.78,171.7 285.37,173.25 288.93,174.79 292.44,176.22 295.76,177.69 298.94,179.41" fill="none" stroke="#1a1a1a" stroke-width="0.7" stroke-opacity="0.55" stroke-linecap="round" stroke-linejoin="round" />
  <polyline points="153.24,119.14 157.04,120.92 160.78,122.7 164.43,124.41 168.03,126.06 171.63,127.68 175.28,129.24 178.95,130.78 182.63,132.29 186.32,133.8 190.03,135.31 193.74,136.83 197.42,138.4 201.06,140" fill="none" stroke="#1a1a1a" stroke-width="0.7" stroke-opacity="0.55" stroke-linecap="round" stroke-linejoin="round" />
  <polyline points="251.4,163.09 255.12,164.73 258.85,166.36 262.58,167.98 266.31,169.59 270.04,171.19 273.78,172.79 277.52,174.37 281.24,175.95 284.93,177.53 288.58,179.11 292.2,180.71 295.79,182.44 299.34,183.84" fill="none" stroke="#1a1a1a" stroke-width="0.7" stroke-opacity="0.55" stroke-linecap="round" stroke-linejoin="round" />
  <polyline points="150.43,122.43 154.04,123.98 157.67,125.58 161.23,127.21 164.74,128.85 168.25,130.46 171.82,132.02 175.45,133.56 179.04,135.12 182.63,136.69 186.22,138.28 189.8,139.9 193.39,141.54 196.96,143.2 200.53,144.86" fill="none" stroke="#1a1a1a" stroke-width="0.7" stroke-opacity="0.55" stroke-linecap="round" stroke-linejoin="round" />
  <polyline points="254.78,168.91 258.37,170.49 261.96,172.08 265.57,173.66 269.18,175.24 272.82,176.81 276.47,178.4 280.14,179.99 283.81,181.57 287.46,183.15 291.09,184.72 294.67,186.28 298.08,188.07" fill="none" stroke="#1a1a1a" stroke-width="0.7" stroke-opacity="0.55" stroke-linecap="round" stroke-linejoin="round" />
  <polyline points="146.65,124.72 150.27,126.41 153.87,128.09 157.44,129.72 160.99,131.33 164.52,132.92 168.07,134.47 171.66,136 175.28,137.59 178.94,139.19 182.61,140.79 186.3,142.41 189.99,144.03 193.66,145.65 197.3,147.26" fill="none" stroke="#1a1a1a" stroke-width="0.7" stroke-opacity="0.55" stroke-linecap="round" stroke-linejoin="round" />
  <polyline points="254.2,172.82 257.74,174.42 261.29,176.02 264.83,177.62 268.37,179.25 271.89,180.88 275.41,182.5 278.92,184.11 282.42,185.68 285.93,187.22 289.45,188.75 293,190.3 296.78,191.99" fill="none" stroke="#1a1a1a" stroke-width="0.7" stroke-opacity="0.55" stroke-linecap="round" stroke-linejoin="round" />
  <polyline points="143.43,127.71 147.13,129.29 150.8,130.82 154.4,132.33 157.99,133.85 161.58,135.41 165.16,137.02 168.75,138.62 172.34,140.2 175.93,141.79 179.52,143.39 183.11,145 186.69,146.62 190.28,148.28 193.87,149.96 197.47,151.66" fill="none" stroke="#1a1a1a" stroke-width="0.7" stroke-opacity="0.55" stroke-linecap="round" stroke-linejoin="round" />
  <polyline points="255.14,178.17 258.71,179.83 262.3,181.47 265.9,183.07 269.53,184.63 273.19,186.16 276.87,187.63 280.57,189.08 284.29,190.54 288,192 291.7,193.49 295.25,195.01" fill="none" stroke="#1a1a1a" stroke-width="0.7" stroke-opacity="0.55" stroke-linecap="round" stroke-linejoin="round" />
  <polyline points="140.21,130.69 143.7,132.27 147.25,133.93 150.92,135.63 154.72,137.33 158.56,139.03 162.32,140.71 165.98,142.41 169.6,144.1 173.25,145.75 176.91,147.38 180.57,149 184.23,150.6 187.9,152.17 191.58,153.73" fill="none" stroke="#1a1a1a" stroke-width="0.7" stroke-opacity="0.55" stroke-linecap="round" stroke-linejoin="round" />
  <polyline points="257.04,182.64 260.67,184.2 264.28,185.78 267.85,187.37 271.39,188.97 274.93,190.57 278.44,192.17 281.95,193.8 285.5,195.46 289.1,197.17" fill="none" stroke="#1a1a1a" stroke-width="0.7" stroke-opacity="0.55" stroke-linecap="round" stroke-linejoin="round" />
  <polyline points="136.7,133.67 140.49,135.31 144.26,136.83 147.91,138.24 151.38,139.65 154.76,141.12 158.13,142.7 161.58,144.33 165.15,145.98 168.8,147.57 172.46,149.17 176.14,150.78 179.81,152.4 183.47,154.03 187.12,155.69 190.75,157.39" fill="none" stroke="#1a1a1a" stroke-width="0.7" stroke-opacity="0.55" stroke-linecap="round" stroke-linejoin="round" />
  <polyline points="255.54,186.42 259.07,188.01 262.57,189.58 266.08,191.1 269.6,192.6 273.15,194.1 276.72,195.63 280.33,197.22 283.97,198.87" fill="none" stroke="#1a1a1a" stroke-width="0.7" stroke-opacity="0.55" stroke-linecap="round" stroke-linejoin="round" />
  <polyline points="133.5,136.13 137.16,137.77 140.84,139.48 144.54,141.28 148.21,143.1 151.87,144.87 155.5,146.53 159.11,148.09 162.73,149.64 166.37,151.22 170.01,152.8 173.64,154.38 177.27,155.96 180.88,157.56 184.48,159.18 188.07,160.82" fill="none" stroke="#1a1a1a" stroke-width="0.7" stroke-opacity="0.55" stroke-linecap="round" stroke-linejoin="round" />
  <polyline points="249.06,188.54 252.66,190.06 256.23,191.59 259.81,193.14 263.39,194.71 267,196.28 270.63,197.84 274.28,199.4 277.95,200.98" fill="none" stroke="#1a1a1a" stroke-width="0.7" stroke-opacity="0.55" stroke-linecap="round" stroke-linejoin="round" />
  <polyline points="129.96,139.47 133.7,140.89 137.39,142.36 140.99,143.86 144.53,145.34 148.07,146.82 151.61,148.35 155.16,149.95 158.71,151.66 162.36,153.39 166.07,155.09 169.79,156.78 173.51,158.45 177.21,160.09 180.88,161.71 184.51,163.31 188.12,164.9" fill="none" stroke="#1a1a1a" stroke-width="0.7" stroke-opacity="0.55" stroke-linecap="round" stroke-linejoin="round" />
  <polyline points="245.78,190.26 249.41,191.94 253.03,193.61 256.65,195.26 260.29,196.89 263.96,198.5 267.66,200.12 271.37,201.76" fill="none" stroke="#1a1a1a" stroke-width="0.7" stroke-opacity="0.55" stroke-linecap="round" stroke-linejoin="round" />
  <polyline points="126.41,142.68 130,144.23 133.57,145.73 137.14,147.2 140.74,148.67 144.38,150.21 148.06,151.82 151.76,153.46 155.43,155.08 159.06,156.64 162.65,158.16 166.25,159.7 169.85,161.24 173.45,162.8 177.03,164.38 180.59,165.97 184.12,167.56" fill="none" stroke="#1a1a1a" stroke-width="0.7" stroke-opacity="0.55" stroke-linecap="round" stroke-linejoin="round" />
  <polyline points="237.03,191.55 240.61,193.1 244.2,194.6 247.8,196.09 251.42,197.6 255.03,199.15 258.65,200.74 262.24,202.36" fill="none" stroke="#1a1a1a" stroke-width="0.7" stroke-opacity="0.55" stroke-linecap="round" stroke-linejoin="round" />
  <polyline points="122.81,145.23 126.46,146.85 130.15,148.53 133.84,150.23 137.53,151.9 141.17,153.53 144.77,155.15 148.35,156.77 151.94,158.4 155.57,160.01 159.17,161.62 162.77,163.24 166.37,164.86 169.98,166.48 173.6,168.1 177.24,169.73 180.9,171.38 184.59,173.03" fill="none" stroke="#1a1a1a" stroke-width="0.7" stroke-opacity="0.55" stroke-linecap="round" stroke-linejoin="round" />
  <polyline points="228.62,192.18 232.2,193.76 235.79,195.33 239.4,196.91 243.02,198.49 246.67,200.05 250.32,201.62 253.97,203.22" fill="none" stroke="#1a1a1a" stroke-width="0.7" stroke-opacity="0.55" stroke-linecap="round" stroke-linejoin="round" />
  <polyline points="119.9,148.51 123.57,149.95 127.22,151.37 130.81,152.8 134.34,154.33 137.86,155.95 141.39,157.6 144.92,159.21 148.47,160.75 152.02,162.3 155.57,163.89 159.13,165.51 162.69,167.13 166.24,168.76 169.8,170.38 173.37,172 176.96,173.61 180.56,175.21 184.17,176.81" fill="none" stroke="#1a1a1a" stroke-width="0.7" stroke-opacity="0.55" stroke-linecap="round" stroke-linejoin="round" />
  <polyline points="209.41,187.76 213.03,189.29 216.67,190.83 220.33,192.37 223.99,193.91 227.64,195.46 231.28,196.95 234.9,198.44 238.48,199.97 242.04,201.53 245.58,203.13" fill="none" stroke="#1a1a1a" stroke-width="0.7" stroke-opacity="0.55" stroke-linecap="round" stroke-linejoin="round" />
  <polyline points="117.25,151.9 120.88,153.4 124.65,154.84 128.47,156.28 132.24,157.77 135.91,159.28 139.58,160.79 143.26,162.33 146.91,163.95 150.53,165.69 154.12,167.45 157.71,169.16 161.28,170.87 164.85,172.55 168.41,174.2 171.96,175.84 175.5,177.49 179.05,179.14 182.58,180.81 186.08,182.47 189.56,184.14 193.04,185.81 196.51,187.46 200,189.09 203.51,190.71 207.05,192.31 210.63,193.89 214.24,195.46 217.86,197.01 221.5,198.55 225.15,200.09 228.8,201.6 232.44,203.09 236.08,204.57" fill="none" stroke="#1a1a1a" stroke-width="0.7" stroke-opacity="0.55" stroke-linecap="round" stroke-linejoin="round" />
  <polyline points="114.95,154.23 118.51,155.91 122.1,157.6 125.71,159.28 129.31,160.91 132.89,162.54 136.45,164.16 140.02,165.78 143.61,167.38 147.24,168.97 150.88,170.59 154.53,172.24 158.18,173.91 161.85,175.59 165.52,177.28 169.2,178.96 172.88,180.61 176.56,182.23 180.24,183.83 183.92,185.43 187.58,187.03 191.24,188.63 194.9,190.25 198.56,191.89 202.2,193.54 205.85,195.18 209.49,196.82 213.12,198.46 216.76,200.1 220.4,201.73 224.04,203.36 227.7,204.98" fill="none" stroke="#1a1a1a" stroke-width="0.7" stroke-opacity="0.55" stroke-linecap="round" stroke-linejoin="round" />
  <polyline points="112.18,157.7 115.88,159.38 119.48,161.13 123.01,162.89 126.56,164.55 130.2,166.11 133.92,167.61 137.63,169.14 141.3,170.77 144.95,172.5 148.59,174.2 152.2,175.83 155.82,177.47 159.44,179.1 163.06,180.72 166.69,182.31 170.31,183.88 173.94,185.44 177.57,186.98 181.2,188.52 184.82,190.07 188.45,191.63 192.07,193.2 195.69,194.79 199.31,196.4 202.93,198.04 206.55,199.68 210.19,201.32 213.84,202.96 217.5,204.58" fill="none" stroke="#1a1a1a" stroke-width="0.7" stroke-opacity="0.55" stroke-linecap="round" stroke-linejoin="round" />
  <polyline points="113.04,162.49 116.62,164.19 120.13,165.9 123.59,167.55 127.06,169.12 130.63,170.61 134.29,172.08 137.98,173.57 141.69,175.1 145.38,176.6 148.98,178.13 152.54,179.7 156.09,181.29 159.65,182.9 163.22,184.53 166.79,186.2 170.38,187.88 173.98,189.57 177.59,191.26 181.22,192.94 184.85,194.61 188.49,196.27 192.12,197.91 195.74,199.54 199.35,201.16" fill="none" stroke="#1a1a1a" stroke-width="0.7" stroke-opacity="0.55" stroke-linecap="round" stroke-linejoin="round" />
  <polyline points="114.32,167.06 117.86,168.59 121.44,170.1 125.01,171.61 128.53,173.18 131.99,174.81 135.43,176.43 138.86,177.99 142.31,179.49 145.76,181 149.22,182.57 152.68,184.14 156.11,185.71 159.53,187.27 162.95,188.85 166.38,190.43 169.81,192.04 173.26,193.66 176.73,195.3 180.22,196.93" fill="none" stroke="#1a1a1a" stroke-width="0.7" stroke-opacity="0.55" stroke-linecap="round" stroke-linejoin="round" />
  <polyline points="298.7,167.62 299,170.88 299.28,174.13 299.58,177.37 300.06,180.53" fill="none" stroke="#1a1a1a" stroke-width="0.7" stroke-opacity="0.55" stroke-linecap="round" stroke-linejoin="round" />
  <polyline points="292.93,157.16 293.31,160.77 293.74,164.35 294.2,167.91 294.67,171.45 295.11,174.97" fill="none" stroke="#1a1a1a" stroke-width="0.7" stroke-opacity="0.55" stroke-linecap="round" stroke-linejoin="round" />
  <polyline points="296.2,185.71 296.6,189.45 297.04,193.22" fill="none" stroke="#1a1a1a" stroke-width="0.7" stroke-opacity="0.55" stroke-linecap="round" stroke-linejoin="round" />
  <polyline points="286.97,146.11 287.43,149.94 287.83,153.81 288.24,157.7 288.67,161.54" fill="none" stroke="#1a1a1a" stroke-width="0.7" stroke-opacity="0.55" stroke-linecap="round" stroke-linejoin="round" />
  <polyline points="292.26,191.96 292.74,195.74" fill="none" stroke="#1a1a1a" stroke-width="0.7" stroke-opacity="0.55" stroke-linecap="round" stroke-linejoin="round" />
  <polyline points="283.4,137.7 283.68,141.63 284.01,145.59 284.37,149.6" fill="none" stroke="#1a1a1a" stroke-width="0.7" stroke-opacity="0.55" stroke-linecap="round" stroke-linejoin="round" />
  <polyline points="289.1,193.59 289.52,197.55" fill="none" stroke="#1a1a1a" stroke-width="0.7" stroke-opacity="0.55" stroke-linecap="round" stroke-linejoin="round" />
  <polyline points="278.1,129.72 278.43,133.43 278.75,137.14 279.13,140.87" fill="none" stroke="#1a1a1a" stroke-width="0.7" stroke-opacity="0.55" stroke-linecap="round" stroke-linejoin="round" />
  <polyline points="284.97,194.84 285.39,198.66" fill="none" stroke="#1a1a1a" stroke-width="0.7" stroke-opacity="0.55" stroke-linecap="round" stroke-linejoin="round" />
  <polyline points="273.28,121.91 273.7,125.87 274.18,129.85" fill="none" stroke="#1a1a1a" stroke-width="0.7" stroke-opacity="0.55" stroke-linecap="round" stroke-linejoin="round" />
  <polyline points="280.78,196.33 281.18,200.34" fill="none" stroke="#1a1a1a" stroke-width="0.7" stroke-opacity="0.55" stroke-linecap="round" stroke-linejoin="round" />
  <polyline points="269,116.61 269.38,120.48" fill="none" stroke="#1a1a1a" stroke-width="0.7" stroke-opacity="0.55" stroke-linecap="round" stroke-linejoin="round" />
  <polyline points="276.84,197.25 277.2,201.09" fill="none" stroke="#1a1a1a" stroke-width="0.7" stroke-opacity="0.55" stroke-linecap="round" stroke-linejoin="round" />
  <polyline points="264.09,110.9 264.42,114.95" fill="none" stroke="#1a1a1a" stroke-width="0.7" stroke-opacity="0.55" stroke-linecap="round" stroke-linejoin="round" />
  <polyline points="273.35,197.98 273.82,201.91" fill="none" stroke="#1a1a1a" stroke-width="0.7" stroke-opacity="0.55" stroke-linecap="round" stroke-linejoin="round" />
  <polyline points="259.41,106.83 259.91,110.6" fill="none" stroke="#1a1a1a" stroke-width="0.7" stroke-opacity="0.55" stroke-linecap="round" stroke-linejoin="round" />
  <polyline points="269.24,198.52 269.7,202.5" fill="none" stroke="#1a1a1a" stroke-width="0.7" stroke-opacity="0.55" stroke-linecap="round" stroke-linejoin="round" />
  <polyline points="264.86,199.11 265.22,202.96" fill="none" stroke="#1a1a1a" stroke-width="0.7" stroke-opacity="0.55" stroke-linecap="round" stroke-linejoin="round" />
  <polyline points="261.48,198.44 261.82,202.31" fill="none" stroke="#1a1a1a" stroke-width="0.7" stroke-opacity="0.55" stroke-linecap="round" stroke-linejoin="round" />
  <polyline points="257.34,198.91 257.76,202.79" fill="none" stroke="#1a1a1a" stroke-width="0.7" stroke-opacity="0.55" stroke-linecap="round" stroke-linejoin="round" />
  <polyline points="252.64,199.36 253.08,203.21" fill="none" stroke="#1a1a1a" stroke-width="0.7" stroke-opacity="0.55" stroke-linecap="round" stroke-linejoin="round" />
  <polyline points="217.3,200.54 217.76,204.49" fill="none" stroke="#1a1a1a" stroke-width="0.7" stroke-opacity="0.55" stroke-linecap="round" stroke-linejoin="round" />
  <polyline points="212.86,199.73 213.22,203.55" fill="none" stroke="#1a1a1a" stroke-width="0.7" stroke-opacity="0.55" stroke-linecap="round" stroke-linejoin="round" />
  <polyline points="209.26,199.75 209.66,203.59" fill="none" stroke="#1a1a1a" stroke-width="0.7" stroke-opacity="0.55" stroke-linecap="round" stroke-linejoin="round" />
  <polyline points="204.97,198.44 205.42,202.41" fill="none" stroke="#1a1a1a" stroke-width="0.7" stroke-opacity="0.55" stroke-linecap="round" stroke-linejoin="round" />
  <polyline points="189.93,95.91 190.43,99.88" fill="none" stroke="#1a1a1a" stroke-width="0.7" stroke-opacity="0.55" stroke-linecap="round" stroke-linejoin="round" />
  <polyline points="200.45,197.41 200.81,201.34" fill="none" stroke="#1a1a1a" stroke-width="0.7" stroke-opacity="0.55" stroke-linecap="round" stroke-linejoin="round" />
  <polyline points="185.78,97.64 186.24,101.42" fill="none" stroke="#1a1a1a" stroke-width="0.7" stroke-opacity="0.55" stroke-linecap="round" stroke-linejoin="round" />
  <polyline points="196.39,196.63 196.82,200.57" fill="none" stroke="#1a1a1a" stroke-width="0.7" stroke-opacity="0.55" stroke-linecap="round" stroke-linejoin="round" />
  <polyline points="182.2,98.7 182.74,102.59" fill="none" stroke="#1a1a1a" stroke-width="0.7" stroke-opacity="0.55" stroke-linecap="round" stroke-linejoin="round" />
  <polyline points="192.96,195.31 193.37,199.19" fill="none" stroke="#1a1a1a" stroke-width="0.7" stroke-opacity="0.55" stroke-linecap="round" stroke-linejoin="round" />
  <polyline points="178.28,100.57 178.73,104.44" fill="none" stroke="#1a1a1a" stroke-width="0.7" stroke-opacity="0.55" stroke-linecap="round" stroke-linejoin="round" />
  <polyline points="188.3,194.34 188.7,198.27" fill="none" stroke="#1a1a1a" stroke-width="0.7" stroke-opacity="0.55" stroke-linecap="round" stroke-linejoin="round" />
  <polyline points="175.13,103.17 175.46,107.04" fill="none" stroke="#1a1a1a" stroke-width="0.7" stroke-opacity="0.55" stroke-linecap="round" stroke-linejoin="round" />
  <polyline points="184.23,193.25 184.58,197.19" fill="none" stroke="#1a1a1a" stroke-width="0.7" stroke-opacity="0.55" stroke-linecap="round" stroke-linejoin="round" />
  <polyline points="170.85,105.52 171.28,109.27 171.62,113.04" fill="none" stroke="#1a1a1a" stroke-width="0.7" stroke-opacity="0.55" stroke-linecap="round" stroke-linejoin="round" />
  <polyline points="179.81,192.7 180.25,196.47" fill="none" stroke="#1a1a1a" stroke-width="0.7" stroke-opacity="0.55" stroke-linecap="round" stroke-linejoin="round" />
  <polyline points="166.6,107.45 167.19,111.23 167.81,114.94" fill="none" stroke="#1a1a1a" stroke-width="0.7" stroke-opacity="0.55" stroke-linecap="round" stroke-linejoin="round" />
  <polyline points="176.06,192.01 176.51,195.89" fill="none" stroke="#1a1a1a" stroke-width="0.7" stroke-opacity="0.55" stroke-linecap="round" stroke-linejoin="round" />
  <polyline points="163.23,110.16 163.76,113.99 164.21,117.78" fill="none" stroke="#1a1a1a" stroke-width="0.7" stroke-opacity="0.55" stroke-linecap="round" stroke-linejoin="round" />
  <polyline points="171.48,191.13 171.95,194.97" fill="none" stroke="#1a1a1a" stroke-width="0.7" stroke-opacity="0.55" stroke-linecap="round" stroke-linejoin="round" />
  <polyline points="159.39,113.81 159.98,117.7 160.57,121.62" fill="none" stroke="#1a1a1a" stroke-width="0.7" stroke-opacity="0.55" stroke-linecap="round" stroke-linejoin="round" />
  <polyline points="167.87,190.81 168.26,194.61" fill="none" stroke="#1a1a1a" stroke-width="0.7" stroke-opacity="0.55" stroke-linecap="round" stroke-linejoin="round" />
  <polyline points="155.85,117.41 156.25,121.28 156.6,125.09" fill="none" stroke="#1a1a1a" stroke-width="0.7" stroke-opacity="0.55" stroke-linecap="round" stroke-linejoin="round" />
  <polyline points="163.28,185.75 163.65,189.6 164.01,193.46" fill="none" stroke="#1a1a1a" stroke-width="0.7" stroke-opacity="0.55" stroke-linecap="round" stroke-linejoin="round" />
  <polyline points="152.7,120.3 153.17,124.32 153.62,128.34" fill="none" stroke="#1a1a1a" stroke-width="0.7" stroke-opacity="0.55" stroke-linecap="round" stroke-linejoin="round" />
  <polyline points="159.41,187.97 159.83,191.89" fill="none" stroke="#1a1a1a" stroke-width="0.7" stroke-opacity="0.55" stroke-linecap="round" stroke-linejoin="round" />
  <polyline points="148.74,123.59 149.16,127.26 149.58,131 149.94,134.85" fill="none" stroke="#1a1a1a" stroke-width="0.7" stroke-opacity="0.55" stroke-linecap="round" stroke-linejoin="round" />
  <polyline points="154.85,184.81 155.25,188.69" fill="none" stroke="#1a1a1a" stroke-width="0.7" stroke-opacity="0.55" stroke-linecap="round" stroke-linejoin="round" />
  <polyline points="144.59,126.34 145,130.18 145.43,133.98 145.86,137.73 146.26,141.47" fill="none" stroke="#1a1a1a" stroke-width="0.7" stroke-opacity="0.55" stroke-linecap="round" stroke-linejoin="round" />
  <polyline points="150.38,183.82 150.73,187.6" fill="none" stroke="#1a1a1a" stroke-width="0.7" stroke-opacity="0.55" stroke-linecap="round" stroke-linejoin="round" />
  <polyline points="141.08,129.46 141.51,133.33 141.98,137.24 142.52,141.2 143.08,145.2" fill="none" stroke="#1a1a1a" stroke-width="0.7" stroke-opacity="0.55" stroke-linecap="round" stroke-linejoin="round" />
  <polyline points="147.13,180.89 147.57,184.78" fill="none" stroke="#1a1a1a" stroke-width="0.7" stroke-opacity="0.55" stroke-linecap="round" stroke-linejoin="round" />
  <polyline points="137.53,132.89 137.97,136.7 138.41,140.48 138.85,144.24 139.27,147.97 139.66,151.7" fill="none" stroke="#1a1a1a" stroke-width="0.7" stroke-opacity="0.55" stroke-linecap="round" stroke-linejoin="round" />
  <polyline points="141.91,174.41 142.3,178.2 142.68,181.97" fill="none" stroke="#1a1a1a" stroke-width="0.7" stroke-opacity="0.55" stroke-linecap="round" stroke-linejoin="round" />
  <polyline points="134.08,136.23 134.44,139.95 134.78,143.61 135.14,147.25 135.5,150.9 135.84,154.57 136.15,158.26" fill="none" stroke="#1a1a1a" stroke-width="0.7" stroke-opacity="0.55" stroke-linecap="round" stroke-linejoin="round" />
  <polyline points="137,169.31 137.31,172.98 137.64,176.64 137.98,180.29" fill="none" stroke="#1a1a1a" stroke-width="0.7" stroke-opacity="0.55" stroke-linecap="round" stroke-linejoin="round" />
  <polyline points="129.84,138.94 130.34,142.88 130.85,146.84 131.35,150.81 131.81,154.75 132.24,158.64 132.64,162.49 133.02,166.35 133.4,170.21 133.77,174.07 134.14,177.94" fill="none" stroke="#1a1a1a" stroke-width="0.7" stroke-opacity="0.55" stroke-linecap="round" stroke-linejoin="round" />
  <polyline points="126.27,141.91 126.66,145.74 127.07,149.53 127.46,153.28 127.83,157.01 128.16,160.73 128.5,164.47 128.87,168.22 129.29,171.99 129.75,175.78" fill="none" stroke="#1a1a1a" stroke-width="0.7" stroke-opacity="0.55" stroke-linecap="round" stroke-linejoin="round" />
  <polyline points="122.41,145.19 122.79,148.7 123.19,152.29 123.57,155.96 123.92,159.63 124.28,163.3 124.63,166.98 124.99,170.65 125.36,174.32" fill="none" stroke="#1a1a1a" stroke-width="0.7" stroke-opacity="0.55" stroke-linecap="round" stroke-linejoin="round" />
  <polyline points="118.85,149.01 119.24,152.41 119.6,155.8 119.94,159.2 120.29,162.6 120.65,166.01 121.02,169.41 121.4,172.82" fill="none" stroke="#1a1a1a" stroke-width="0.7" stroke-opacity="0.55" stroke-linecap="round" stroke-linejoin="round" />
  <polyline points="116.07,154.28 116.49,157.73 116.9,161.16 117.3,164.6 117.67,168.03 118.02,171.47" fill="none" stroke="#1a1a1a" stroke-width="0.7" stroke-opacity="0.55" stroke-linecap="round" stroke-linejoin="round" />
  <polyline points="111.79,159.01 111.82,159.26 111.86,159.52" fill="none" stroke="#1a1a1a" stroke-width="0.7" stroke-opacity="0.55" stroke-linecap="round" stroke-linejoin="round" />
  <polyline points="127.28,171.66 124.11,174.04" fill="none" stroke="#1a1a1a" stroke-width="0.7" stroke-opacity="0.55" stroke-linecap="round" stroke-linejoin="round" />
  <polyline points="126.29,167.1 123.26,169.46 120.19,171.86" fill="none" stroke="#1a1a1a" stroke-width="0.7" stroke-opacity="0.55" stroke-linecap="round" stroke-linejoin="round" />
  <polyline points="121.9,165.69 118.74,168.06 115.6,170.43" fill="none" stroke="#1a1a1a" stroke-width="0.7" stroke-opacity="0.55" stroke-linecap="round" stroke-linejoin="round" />
  <polyline points="120.26,161.55 117.1,163.8 113.97,166.04" fill="none" stroke="#1a1a1a" stroke-width="0.7" stroke-opacity="0.55" stroke-linecap="round" stroke-linejoin="round" />
  <polyline points="119.51,157.42 116.34,159.74 113.03,162.06" fill="none" stroke="#1a1a1a" stroke-width="0.7" stroke-opacity="0.55" stroke-linecap="round" stroke-linejoin="round" />
  <polyline points="117.38,154.06 114.11,156.46" fill="none" stroke="#1a1a1a" stroke-width="0.7" stroke-opacity="0.55" stroke-linecap="round" stroke-linejoin="round" />
  <polyline points="213.06,238.92 214.44,234.15 215.88,229.42 217.32,224.74 218.47,220.35 219.54,215.93 222.74,213.08 225.9,210.15 229.07,207.15" fill="none" stroke="#1a1a1a" stroke-width="1.512" stroke-linecap="round" stroke-linejoin="round" />
  <polyline points="179.31,197.52 180.74,202.24 182.21,206.87 183.73,211.41 184.34,212.28 184.34,212.67 184.42,217.67 184.49,222.62 184.55,227.53 184.65,232.44 184.85,237.36 184.89,242.34 185,247.34 185.08,252.36 185.03,257.38 184.97,261.2 184.43,266.18 183.94,271.19 183.59,276.44 183.66,280.43 183.21,283.68 182.35,288.47 181.44,293.25 180.5,297.98 180.52,298.16 180.49,298.35 183.16,302.39 185.85,306.43 189.17,310.12 192.55,313.79 193.91,314.17 196.09,314.95 202.04,314.54 208,314.17 213.94,313.86 216.63,312.05 219.31,310.25 221.11,305.42 222.91,300.63 224.69,295.84 223.24,291.27 221.74,286.69 220.21,282.13 218.81,279.43 217.68,275.19 216.13,270.59 214.69,266 213.4,261.36 213.39,258.93 213.3,253.9 213.22,248.89 213.13,243.9 213.06,238.92" fill="none" stroke="#1a1a1a" stroke-width="1.476" stroke-linecap="round" stroke-linejoin="round" />
  <polyline points="296.97,194.8 298,189.67 298.97,184.52 300.01,179.02 301,173.44 298.52,168.29 296.02,163.14 293.5,158.03 290.97,153 288.55,148.02 285.7,143.17 282.95,138.26 280.25,133.28 277.51,128.23 275.35,123.74 271.94,119.88 268.45,116.04 264.94,112.2 261.42,108.37 260.2,107.19 254.77,105.52 249.33,103.84 243.88,102.17 238.58,100.19 233.33,98.21 228.17,96.22 224.17,95.68 220.23,95.13 214.74,94.69 209.23,94.26 204.99,94.67 200.71,95.07 196.38,95.46 192.84,95.47 189.28,95.49 185.58,97.19 181.87,98.91 178.17,100.64 173.66,103.13 169.25,105.61 164.93,108.09 161.96,111.15 159.03,114.23 155.31,117.77 151.53,121.37 147.64,124.98 143.66,128.55 140.81,131.04 137.95,133.5 133.99,136.69 130.05,139.83 126.17,142.96 122.33,146.1 118.51,149.28 117.04,151.73 114.03,155.54 111.1,159.42 112.13,163.68 113.27,167.88 114.72,170.9 119.44,172.83 124.27,174.8 129.18,176.81 134.1,178.83" fill="none" stroke="#1a1a1a" stroke-width="1.547" stroke-linecap="round" stroke-linejoin="round" />
  <polyline points="162.55,193.11 166.09,193.87 169.62,194.66 175.24,195.97 180.85,197.31 186.47,198.64 192.11,199.94 197.74,201.16 203.36,202.34 208.96,203.5 214.55,204.71 220.16,205.9" fill="none" stroke="#1a1a1a" stroke-width="1.617" stroke-linecap="round" stroke-linejoin="round" />
  <polyline points="257.91,203.74 262.56,203.3 267.23,202.85 271.91,202.41 276.6,201.97 281.75,200.09 286.82,198.3 291.9,196.56 296.97,194.8" fill="none" stroke="#1a1a1a" stroke-width="1.584" stroke-linecap="round" stroke-linejoin="round" />
  <polyline points="183.86,305.82 187.2,302.13" fill="none" stroke="#1a1a1a" stroke-width="1.442" stroke-linecap="round" stroke-linejoin="round" />
  <polyline points="221.09,300.03 224,301.87 221.37,306.93 218.77,312.02" fill="none" stroke="#1a1a1a" stroke-width="1.443" stroke-linecap="round" stroke-linejoin="round" />
  <polyline points="206.63,316.58 202.09,315.85 197.54,315.16 192.96,314.49" fill="none" stroke="#1a1a1a" stroke-width="1.464" stroke-linecap="round" stroke-linejoin="round" />
  <polyline points="302.13,183.62 299.9,188.3 297.93,193.01 295.52,197.39 293.28,201.81 287.4,202.51 281.43,203.22 275.42,203.85 269.38,204.34 263.33,204.74 257.26,205.11 251.19,205.49 245.17,205.91 239.19,206.37 233.21,206.85 227.21,207.37 221.45,206.22 215.69,205.04 209.91,203.85 204.05,202.61 198.11,201.36 192.14,200.08 186.2,198.79 180.32,197.48 174.54,196.18 168.79,194.87 163.01,193.56 157.15,192.25 151.23,190.98 145.28,189.7 140.42,186.57 135.53,183.34 130.44,179.94 125.06,176.63 119.46,173.6 114.13,170.56 109.36,167.35 112.9,165.82 116.55,164.38" fill="none" stroke="#1a1a1a" stroke-width="1.582" stroke-linecap="round" stroke-linejoin="round" />
</g></g>
<g clip-path="url(#clip-0-1)"><g transform="translate(442,0)">  <rect width="420" height="420" fill="#faf9f5" />
  <polyline points="188.59,231.44 193.76,233.06 198.97,234.67 204.2,234.34 209.44,234.03" fill="none" stroke="#1a1a1a" stroke-width="0.7" stroke-opacity="0.55" stroke-linecap="round" stroke-linejoin="round" />
  <polyline points="210.66,311.46 204.99,312.21 200.41,311.81 195.84,311.39 191.29,310.92" fill="none" stroke="#1a1a1a" stroke-width="0.7" stroke-opacity="0.55" stroke-linecap="round" stroke-linejoin="round" />
  <polyline points="182.67,139.32 177.33,137.15 171.99,135 166.57,132.93 161.1,130.95 156.36,130.08 151.74,129.21 147.19,128.33 142.65,127.51" fill="none" stroke="#1a1a1a" stroke-width="0.7" stroke-opacity="0.55" stroke-linecap="round" stroke-linejoin="round" />
  <polyline points="286.89,159.05 289.08,164.07 291.23,169.13 293.31,174.22 295.37,179.3 297.43,184.37" fill="none" stroke="#1a1a1a" stroke-width="0.7" stroke-opacity="0.55" stroke-linecap="round" stroke-linejoin="round" />
  <polyline points="214.4,272.1 210.8,276.14 206.01,276.68 201.26,277.19 196.53,277.72 192.75,276.66 189,275.61" fill="none" stroke="#1a1a1a" stroke-width="0.7" stroke-opacity="0.55" stroke-linecap="round" stroke-linejoin="round" />
  <polyline points="185.49,204.22 187.15,200.05 183.85,197.82" fill="none" stroke="#1a1a1a" stroke-width="0.7" stroke-opacity="0.55" stroke-linecap="round" stroke-linejoin="round" />
  <polyline points="151.87,189.52 151.61,185.22 151.35,180.92 151.09,176.62 152.8,171.39 154.51,166.16 157.3,163.05 160.11,159.94 162.92,156.84" fill="none" stroke="#1a1a1a" stroke-width="0.7" stroke-opacity="0.55" stroke-linecap="round" stroke-linejoin="round" />
  <polyline points="213.12,247.17 209,251.11 204.52,252.01 200.07,252.91 195.01,251.83 189.99,250.76 187.17,248.38 184.34,246.02" fill="none" stroke="#1a1a1a" stroke-width="0.7" stroke-opacity="0.55" stroke-linecap="round" stroke-linejoin="round" />
  <polyline points="171.02,107.46 173.81,108.61 176.61,109.77 180.23,110.45 183.89,111.17 187.99,111.59 192.14,111.97 197.37,113.8 202.63,115.62 208.45,116.97 214.24,118.35 218.11,119.31 221.95,120.27 225.76,121.25 230.88,123.46 236,125.69 241.29,127.98 246.64,130.29 251.78,131.5 256.96,132.69 261.9,133.12 266.79,133.48 272.51,134.89 276.09,136.46 278.83,136.42" fill="none" stroke="#1a1a1a" stroke-width="0.7" stroke-opacity="0.55" stroke-linecap="round" stroke-linejoin="round" />
  <polyline points="297.73,168.25 295.26,163.05 292.81,157.84" fill="none" stroke="#1a1a1a" stroke-width="0.7" stroke-opacity="0.55" stroke-linecap="round" stroke-linejoin="round" />
  <polyline points="277.61,161.35 274.62,164.64 271.62,167.92 272.06,173.51 272.51,179.13 273.99,184.4 275.51,189.66 275.09,193.75 274.66,197.84 274.23,201.92" fill="none" stroke="#1a1a1a" stroke-width="0.7" stroke-opacity="0.55" stroke-linecap="round" stroke-linejoin="round" />
  <polyline points="151.55,148.44 148.34,150.91 145.11,153.37 141.88,155.81 137.25,159.45 132.62,163.07" fill="none" stroke="#1a1a1a" stroke-width="0.7" stroke-opacity="0.55" stroke-linecap="round" stroke-linejoin="round" />
  <polyline points="212.82,257.04 211.27,259.59 206.59,261.16 201.86,262.76 198.25,262.54 193.02,261.93 189.18,260.79 186.4,258.5" fill="none" stroke="#1a1a1a" stroke-width="0.7" stroke-opacity="0.55" stroke-linecap="round" stroke-linejoin="round" />
  <polyline points="193.77,210.32 199.26,211.59 204.75,213.48 209.34,213.99 214.35,213.25 218.86,213" fill="none" stroke="#1a1a1a" stroke-width="0.7" stroke-opacity="0.55" stroke-linecap="round" stroke-linejoin="round" />
  <polyline points="219.58,287.72 218.41,291.09 217.04,294.39 212.81,296.93 208.49,299.25 204.19,301.19 199.05,301.03 193.91,300.54 188.83,299.72 186.82,297.81" fill="none" stroke="#1a1a1a" stroke-width="0.7" stroke-opacity="0.55" stroke-linecap="round" stroke-linejoin="round" />
  <polyline points="285.35,144.57 284.53,145.35 283.49,145.86 282.26,146.11 280.88,146.07 279.34,145.74 277.6,144.99 275.66,143.84 271.85,143.58 267.05,143.59 262.16,143.37 257.2,142.89 252.21,142.16 247.13,141.13 241.96,139.76" fill="none" stroke="#1a1a1a" stroke-width="0.7" stroke-opacity="0.55" stroke-linecap="round" stroke-linejoin="round" />
  <polyline points="206.4,134.26 203.33,133.8 200.25,133.34 197.24,132.68 194.23,132.02 188.41,130.28 182.84,128.13 178.29,125.97 174.51,125.4 171,124.68 167.71,123.84 164.65,122.82 161.83,121.56 159.24,120.03 156.64,118.5 154.29,116.71" fill="none" stroke="#1a1a1a" stroke-width="0.7" stroke-opacity="0.55" stroke-linecap="round" stroke-linejoin="round" />
  <polyline points="196.2,201.15 200.42,204.75" fill="none" stroke="#1a1a1a" stroke-width="0.7" stroke-opacity="0.55" stroke-linecap="round" stroke-linejoin="round" />
  <polyline points="174.23,195.24 174.51,191.99 174.78,188.74 174.65,185.47 174.51,182.22 174.87,179.12 175.23,176.03 176.41,173.25 177.6,170.49 179.52,168.06 181.44,165.64 183.99,163.74 186.54,161.84" fill="none" stroke="#1a1a1a" stroke-width="0.7" stroke-opacity="0.55" stroke-linecap="round" stroke-linejoin="round" />
  <polyline points="137.18,169.06 136.63,172.08 136.08,175.13 135.37,178.09 134.65,181.08" fill="none" stroke="#1a1a1a" stroke-width="0.7" stroke-opacity="0.55" stroke-linecap="round" stroke-linejoin="round" />
  <polyline points="262.77,203.5 262.89,200.36 263,197.22 262.84,194.11 262.67,191 262.46,187.96 262.26,184.92 261.49,181.94 260.74,178.97 260.75,173.37 262.49,168.73" fill="none" stroke="#1a1a1a" stroke-width="0.7" stroke-opacity="0.55" stroke-linecap="round" stroke-linejoin="round" />
  <polyline points="239.07,115.84 241.73,117.14 244.38,118.44 249.77,120.33 255.13,122.26 260.38,123.55 265.42,124.31" fill="none" stroke="#1a1a1a" stroke-width="0.7" stroke-opacity="0.55" stroke-linecap="round" stroke-linejoin="round" />
  <polyline points="150.55,140.65 146.6,140.7 142.43,141.15 138.02,142.22 133.69,143.34 129.22,145.06 124.61,147.49 119.99,150.65 116.27,154.53 114.72,159.94 113.53,165.52" fill="none" stroke="#1a1a1a" stroke-width="0.7" stroke-opacity="0.55" stroke-linecap="round" stroke-linejoin="round" />
  <polyline points="185.64,220.52 187.05,221.43 188.47,222.42 189.89,223.48 191.32,224.59 193.29,225.07 195.98,225.64 198.67,226.28 201.36,226.97 204.03,227.7 205.68,227.53 208.08,227.24 210.45,226.97 212.79,226.74 215.1,226.53 215.83,225.85 216.61,224.93 217.37,224.07" fill="none" stroke="#1a1a1a" stroke-width="0.7" stroke-opacity="0.55" stroke-linecap="round" stroke-linejoin="round" />
  <polyline points="214.93,278.83 214.21,280.45 213.29,281.87 211.05,282.97 208.82,284.01 206.58,284.98 204.36,285.88 202.12,286.72 200.49,286.35 197.92,285.96 195.36,285.52 192.81,285.03 190.27,284.49 188.65,283.64 187.27,282.27 185.93,280.88 184.63,279.46 183.35,278.03" fill="none" stroke="#1a1a1a" stroke-width="0.7" stroke-opacity="0.55" stroke-linecap="round" stroke-linejoin="round" />
  <polyline points="185.06,299.44 183.79,297.93" fill="none" stroke="#1a1a1a" stroke-width="0.7" stroke-opacity="0.55" stroke-linecap="round" stroke-linejoin="round" />
  <polyline points="204.86,207.17 207.61,208.24 209.86,208.68 212.43,208.28 214.95,207.96 217.42,207.73 219.83,207.59 222.18,207.52 224.45,207.54 226.56,207.66" fill="none" stroke="#1a1a1a" stroke-width="0.7" stroke-opacity="0.55" stroke-linecap="round" stroke-linejoin="round" />
  <polyline points="191.41,202.6 193.74,204.21 196.25,205.6 198.76,206.99 201.4,208.14" fill="none" stroke="#1a1a1a" stroke-width="0.7" stroke-opacity="0.55" stroke-linecap="round" stroke-linejoin="round" />
  <polyline points="183.73,208.37 184.64,208.42 185.51,208.44 186.41,208.5 187.34,208.6 188.27,208.71 189.23,208.87" fill="none" stroke="#1a1a1a" stroke-width="0.7" stroke-opacity="0.55" stroke-linecap="round" stroke-linejoin="round" />
  <polyline points="221.7,291.48 221.19,293.41 220.67,295.35 220.13,297.29 219.57,299.21 218.99,301.1 217.55,302.36 215.49,303.82 213.41,305.22 211.32,306.54 209.22,307.79" fill="none" stroke="#1a1a1a" stroke-width="0.7" stroke-opacity="0.55" stroke-linecap="round" stroke-linejoin="round" />
  <polyline points="219.77,306.15 219.27,307.25 218.34,309.35 216.28,310.93 214.22,312 212.16,313.06" fill="none" stroke="#1a1a1a" stroke-width="0.7" stroke-opacity="0.55" stroke-linecap="round" stroke-linejoin="round" />
  <polyline points="186.29,293.37 184.98,291.86 183.7,290.32" fill="none" stroke="#1a1a1a" stroke-width="0.7" stroke-opacity="0.55" stroke-linecap="round" stroke-linejoin="round" />
  <polyline points="188.75,311.66 187.26,310.24" fill="none" stroke="#1a1a1a" stroke-width="0.7" stroke-opacity="0.55" stroke-linecap="round" stroke-linejoin="round" />
  <polyline points="204.81,314.79 202.92,315.18 200.52,314.7 198.13,314.21 195.97,313.01" fill="none" stroke="#1a1a1a" stroke-width="0.7" stroke-opacity="0.55" stroke-linecap="round" stroke-linejoin="round" />
  <polyline points="202.84,142.67 199.75,142.19 196.66,141.67 193.59,141.1 190.53,140.48" fill="none" stroke="#1a1a1a" stroke-width="0.7" stroke-opacity="0.55" stroke-linecap="round" stroke-linejoin="round" />
  <polyline points="128.11,177.89 128.73,174.98 129.26,172 129.72,168.98 130.08,165.93" fill="none" stroke="#1a1a1a" stroke-width="0.7" stroke-opacity="0.55" stroke-linecap="round" stroke-linejoin="round" />
  <polyline points="298.81,183.83 298.94,181.14 299.07,178.36 298.57,175.85 297.15,173.23 295.82,170.57 294.6,167.91 293.55,165.33 292.68,162.89 291.99,160.63 291.47,158.56 291.08,156.67 290.72,154.84 290.42,153.1 290.19,151.48" fill="none" stroke="#1a1a1a" stroke-width="0.7" stroke-opacity="0.55" stroke-linecap="round" stroke-linejoin="round" />
  <polyline points="277.94,140.35 277.18,140.18 276.35,139.9 275.47,139.53 274.53,139.05 273.53,138.49 271.88,138.3 269.58,138.4 267.24,138.45 264.86,138.43 262.45,138.36 260,138.25 257.51,138.09 254.99,137.87 252.44,137.56 249.86,137.16 247.25,136.67 244.63,136.08 241.99,135.4 239.33,134.61" fill="none" stroke="#1a1a1a" stroke-width="0.7" stroke-opacity="0.55" stroke-linecap="round" stroke-linejoin="round" />
  <polyline points="209.73,129.57 206.68,129.03 203.66,128.41 200.7,127.7 197.79,126.91 194.93,126.02 192.13,125.05 189.38,123.99 186.7,122.84 184.09,121.61 181.95,120.64 180.06,120.37 178.22,120.06 176.42,119.7 174.69,119.3 173.01,118.84 171.4,118.33 169.87,117.76 168.41,117.13 167.03,116.44 165.74,115.68 164.53,114.85 163.42,113.95 162.38,112.99 161.43,111.97 160.57,110.89" fill="none" stroke="#1a1a1a" stroke-width="0.7" stroke-opacity="0.55" stroke-linecap="round" stroke-linejoin="round" />
  <polyline points="277.91,129.55 277.52,130.19 277.09,130.76 276.61,131.25 276.08,131.64 275.49,131.93 274.83,132.11" fill="none" stroke="#1a1a1a" stroke-width="0.7" stroke-opacity="0.55" stroke-linecap="round" stroke-linejoin="round" />
  <polyline points="251.78,196.27 251.88,193.16 251.96,190.01" fill="none" stroke="#1a1a1a" stroke-width="0.7" stroke-opacity="0.55" stroke-linecap="round" stroke-linejoin="round" />
  <polyline points="142.86,144.83 140.6,145.66 138.3,146.69 135.98,147.94 133.65,149.4 131.35,151.08 129.11,152.98 126.95,155.05 125.11,156.82 124.47,159.7 123.93,162.64 123.39,165.58 122.95,168.55" fill="none" stroke="#1a1a1a" stroke-width="0.7" stroke-opacity="0.55" stroke-linecap="round" stroke-linejoin="round" />
  <polyline points="200.3,187.95 200.18,191.2 199.86,194.44 199.56,197.67 199.04,200.87" fill="none" stroke="#1a1a1a" stroke-width="0.7" stroke-opacity="0.55" stroke-linecap="round" stroke-linejoin="round" />
  <polyline points="156.52,174.98 157.64,172.34 159.45,169.78 161.56,167.4 163.94,165.26 166.57,163.4 169.39,161.82 172.34,160.52 175.38,159.45 178.46,158.59 181.58,157.89 184.69,157.18 187.82,156.62" fill="none" stroke="#1a1a1a" stroke-width="0.7" stroke-opacity="0.55" stroke-linecap="round" stroke-linejoin="round" />
  <polyline points="293.38,199.66 289.07,200.83 284.75,202.04" fill="none" stroke="#1a1a1a" stroke-width="0.7" stroke-opacity="0.55" stroke-linecap="round" stroke-linejoin="round" />
  <polyline points="184.82,195.74 179.2,194.77 173.59,193.8 167.97,192.84 162.36,191.89 156.74,190.97 151.11,190.06 146.4,188.6 141.64,187.05" fill="none" stroke="#1a1a1a" stroke-width="0.7" stroke-opacity="0.55" stroke-linecap="round" stroke-linejoin="round" />
  <polyline points="217.35,219.61 216.38,224.78 215.42,229.93 214.49,235.1 213.61,240.26 212.77,245.43 213.32,250.19 213.83,254.96 214.3,259.72 214.78,264.44 215.27,269.15 216.15,273.01 217.03,276.92 217.87,280.86 219.59,286.47 221.22,292.06" fill="none" stroke="#1a1a1a" stroke-width="0.7" stroke-opacity="0.55" stroke-linecap="round" stroke-linejoin="round" />
  <polyline points="176.81,105.12 172.48,108.75 168.15,112.37 163.77,116.02 159.35,119.67 155.24,124.02 151.12,128.4 147.03,132.78 142.92,137.14" fill="none" stroke="#1a1a1a" stroke-width="0.7" stroke-opacity="0.55" stroke-linecap="round" stroke-linejoin="round" />
  <polyline points="271,120.84 274.15,125.69 277.29,130.59 280.06,135.78 282.83,140.97 285.56,146.14 288.3,151.28 290.84,154.62 293.35,157.99" fill="none" stroke="#1a1a1a" stroke-width="0.7" stroke-opacity="0.55" stroke-linecap="round" stroke-linejoin="round" />
  <polyline points="183.03,203.12 186.23,207.78 188.63,212.23 189.89,216.13 189.58,221.14 189.32,226.13 189.11,231.1 188.91,236.02 188.69,240.91 188.52,245.71 188.32,250.48 188.15,255.23 188.01,259.94 187.9,264.56 187.78,269.08 187.66,273.53 187.54,277.95 187.4,282.35 187.24,286.77 186.85,291.21 186.41,295.71 185.96,300.16 185.49,304.5 186.37,307.5" fill="none" stroke="#1a1a1a" stroke-width="0.7" stroke-opacity="0.55" stroke-linecap="round" stroke-linejoin="round" />
  <polyline points="209.17,239.56 210.14,234.74 211.1,229.84" fill="none" stroke="#1a1a1a" stroke-width="0.7" stroke-opacity="0.55" stroke-linecap="round" stroke-linejoin="round" />
  <polyline points="214.14,236.04 215.46,231.04" fill="none" stroke="#1a1a1a" stroke-width="0.7" stroke-opacity="0.55" stroke-linecap="round" stroke-linejoin="round" />
  <polyline points="203.13,212.78 203.72,209.29 204.51,205.78 206.35,202.65" fill="none" stroke="#1a1a1a" stroke-width="0.7" stroke-opacity="0.55" stroke-linecap="round" stroke-linejoin="round" />
  <polyline points="211.4,309.7 212.39,312.12 215.32,312.06" fill="none" stroke="#1a1a1a" stroke-width="0.7" stroke-opacity="0.55" stroke-linecap="round" stroke-linejoin="round" />
  <polyline points="222.29,210.8 225.59,207.51" fill="none" stroke="#1a1a1a" stroke-width="0.7" stroke-opacity="0.55" stroke-linecap="round" stroke-linejoin="round" />
  <polyline points="277.49,197.26 272.61,197.69 267.65,198.15" fill="none" stroke="#1a1a1a" stroke-width="0.7" stroke-opacity="0.55" stroke-linecap="round" stroke-linejoin="round" />
  <polyline points="295.3,188.49 296.13,187.25 296.86,186.01 297.53,184.73 298.16,183.45" fill="none" stroke="#1a1a1a" stroke-width="0.7" stroke-opacity="0.55" stroke-linecap="round" stroke-linejoin="round" />
  <polyline points="297.87,168.97 296.42,168.43 294.43,166.78 291.9,163.79 289.8,162.05 288.52,162.25" fill="none" stroke="#1a1a1a" stroke-width="0.7" stroke-opacity="0.55" stroke-linecap="round" stroke-linejoin="round" />
  <polyline points="131.4,174.38 134.31,175.9 137.25,177.45" fill="none" stroke="#1a1a1a" stroke-width="0.7" stroke-opacity="0.55" stroke-linecap="round" stroke-linejoin="round" />
  <polyline points="113.98,156.24 116.33,157.94 118.76,159.58 121.28,161.17 123.87,162.73 126.5,164.35" fill="none" stroke="#1a1a1a" stroke-width="0.7" stroke-opacity="0.55" stroke-linecap="round" stroke-linejoin="round" />
  <polyline points="214.67,274.46 215.08,276.66 215.49,278.85 215.9,281 216.33,283.14" fill="none" stroke="#1a1a1a" stroke-width="0.7" stroke-opacity="0.55" stroke-linecap="round" stroke-linejoin="round" />
  <polyline points="212.04,252.31 212.03,254.64 212.03,256.95 212.05,259.25 212.1,261.54 212.16,263.81 212.44,266.07 212.9,268.33 213.38,270.57" fill="none" stroke="#1a1a1a" stroke-width="0.7" stroke-opacity="0.55" stroke-linecap="round" stroke-linejoin="round" />
  <polyline points="215.54,306.23 215.88,307.78 216.29,308.95" fill="none" stroke="#1a1a1a" stroke-width="0.7" stroke-opacity="0.55" stroke-linecap="round" stroke-linejoin="round" />
  <polyline points="194.56,302.07 194.69,304.4 194.84,306.72 195.01,309.03 195.53,310.24 196.59,311.63" fill="none" stroke="#1a1a1a" stroke-width="0.7" stroke-opacity="0.55" stroke-linecap="round" stroke-linejoin="round" />
  <polyline points="207.85,227.52 208.33,225.07 208.81,222.6 209.3,220.11 210.08,218.23 211.24,216.62 212.39,214.99 213.52,213.31" fill="none" stroke="#1a1a1a" stroke-width="0.7" stroke-opacity="0.55" stroke-linecap="round" stroke-linejoin="round" />
  <polyline points="199.89,230.85 200.35,228.4" fill="none" stroke="#1a1a1a" stroke-width="0.7" stroke-opacity="0.55" stroke-linecap="round" stroke-linejoin="round" />
  <polyline points="192.04,212.62 192.57,210.94 193.41,209.36 194.51,207.89 195.84,206.53 197.18,205.15 198.72,203.89 200.41,202.73" fill="none" stroke="#1a1a1a" stroke-width="0.7" stroke-opacity="0.55" stroke-linecap="round" stroke-linejoin="round" />
  <polyline points="216.64,287.03 217.32,289.08 218.02,291.06 218.73,293.02 219.46,294.9 220.2,296.68 220.94,298.42 221.69,300.13 221.58,301.48 221.17,302.68" fill="none" stroke="#1a1a1a" stroke-width="0.7" stroke-opacity="0.55" stroke-linecap="round" stroke-linejoin="round" />
  <polyline points="185.76,265 185.69,267.2 185.63,269.39 185.55,271.55 185.46,273.69 185.35,275.82 185.23,277.94 185.09,280.05 184.93,282.14 184.75,284.21 184.49,286.28 184.18,288.37 183.89,290.47 183.59,292.56 183.31,294.66 183.04,296.78 182.77,298.88 182.49,300.99 182.98,302.58" fill="none" stroke="#1a1a1a" stroke-width="0.7" stroke-opacity="0.55" stroke-linecap="round" stroke-linejoin="round" />
  <polyline points="138.03,142.15 136.91,144.45 136.1,146.68 135.59,148.83 135.34,150.86 135.36,152.79 135.62,154.58 136.09,156.25 136.76,157.81" fill="none" stroke="#1a1a1a" stroke-width="0.7" stroke-opacity="0.55" stroke-linecap="round" stroke-linejoin="round" />
  <polyline points="213.06,238.92 214.44,234.15 215.88,229.42 217.32,224.74 218.47,220.35 219.54,215.93 222.74,213.08 225.9,210.15 229.07,207.15" fill="none" stroke="#1a1a1a" stroke-width="1.512" stroke-linecap="round" stroke-linejoin="round" />
  <polyline points="179.31,197.52 180.74,202.24 182.21,206.87 183.73,211.41 184.34,212.28 184.34,212.67 184.42,217.67 184.49,222.62 184.55,227.53 184.65,232.44 184.85,237.36 184.89,242.34 185,247.34 185.08,252.36 185.03,257.38 184.97,261.2 184.43,266.18 183.94,271.19 183.59,276.44 183.66,280.43 183.21,283.68 182.35,288.47 181.44,293.25 180.5,297.98 180.52,298.16 180.49,298.35 183.16,302.39 185.85,306.43 189.17,310.12 192.55,313.79 193.91,314.17 196.09,314.95 202.04,314.54 208,314.17 213.94,313.86 216.63,312.05 219.31,310.25 221.11,305.42 222.91,300.63 224.69,295.84 223.24,291.27 221.74,286.69 220.21,282.13 218.81,279.43 217.68,275.19 216.13,270.59 214.69,266 213.4,261.36 213.39,258.93 213.3,253.9 213.22,248.89 213.13,243.9 213.06,238.92" fill="none" stroke="#1a1a1a" stroke-width="1.476" stroke-linecap="round" stroke-linejoin="round" />
  <polyline points="296.97,194.8 298,189.67 298.97,184.52 300.01,179.02 301,173.44 298.52,168.29 296.02,163.14 293.5,158.03 290.97,153 288.55,148.02 285.7,143.17 282.95,138.26 280.25,133.28 277.51,128.23 275.35,123.74 271.94,119.88 268.45,116.04 264.94,112.2 261.42,108.37 260.2,107.19 254.77,105.52 249.33,103.84 243.88,102.17 238.58,100.19 233.33,98.21 228.17,96.22 224.17,95.68 220.23,95.13 214.74,94.69 209.23,94.26 204.99,94.67 200.71,95.07 196.38,95.46 192.84,95.47 189.28,95.49 185.58,97.19 181.87,98.91 178.17,100.64 173.66,103.13 169.25,105.61 164.93,108.09 161.96,111.15 159.03,114.23 155.31,117.77 151.53,121.37 147.64,124.98 143.66,128.55 140.81,131.04 137.95,133.5 133.99,136.69 130.05,139.83 126.17,142.96 122.33,146.1 118.51,149.28 117.04,151.73 114.03,155.54 111.1,159.42 112.13,163.68 113.27,167.88 114.72,170.9 119.44,172.83 124.27,174.8 129.18,176.81 134.1,178.83" fill="none" stroke="#1a1a1a" stroke-width="1.547" stroke-linecap="round" stroke-linejoin="round" />
  <polyline points="162.55,193.11 166.09,193.87 169.62,194.66 175.24,195.97 180.85,197.31 186.47,198.64 192.11,199.94 197.74,201.16 203.36,202.34 208.96,203.5 214.55,204.71 220.16,205.9" fill="none" stroke="#1a1a1a" stroke-width="1.617" stroke-linecap="round" stroke-linejoin="round" />
  <polyline points="257.91,203.74 262.56,203.3 267.23,202.85 271.91,202.41 276.6,201.97 281.75,200.09 286.82,198.3 291.9,196.56 296.97,194.8" fill="none" stroke="#1a1a1a" stroke-width="1.584" stroke-linecap="round" stroke-linejoin="round" />
  <polyline points="183.86,305.82 187.2,302.13" fill="none" stroke="#1a1a1a" stroke-width="1.442" stroke-linecap="round" stroke-linejoin="round" />
  <polyline points="221.09,300.03 224,301.87 221.37,306.93 218.77,312.02" fill="none" stroke="#1a1a1a" stroke-width="1.443" stroke-linecap="round" stroke-linejoin="round" />
  <polyline points="206.63,316.58 202.09,315.85 197.54,315.16 192.96,314.49" fill="none" stroke="#1a1a1a" stroke-width="1.464" stroke-linecap="round" stroke-linejoin="round" />
  <polyline points="302.13,183.62 299.9,188.3 297.93,193.01 295.52,197.39 293.28,201.81 287.4,202.51 281.43,203.22 275.42,203.85 269.38,204.34 263.33,204.74 257.26,205.11 251.19,205.49 245.17,205.91 239.19,206.37 233.21,206.85 227.21,207.37 221.45,206.22 215.69,205.04 209.91,203.85 204.05,202.61 198.11,201.36 192.14,200.08 186.2,198.79 180.32,197.48 174.54,196.18 168.79,194.87 163.01,193.56 157.15,192.25 151.23,190.98 145.28,189.7 140.42,186.57 135.53,183.34 130.44,179.94 125.06,176.63 119.46,173.6 114.13,170.56 109.36,167.35 112.9,165.82 116.55,164.38" fill="none" stroke="#1a1a1a" stroke-width="1.582" stroke-linecap="round" stroke-linejoin="round" />
</g></g>
<text x="14" y="26" font-family="sans-serif" font-size="14" fill="#999"></text>
<line x1="431" y1="8" x2="431" y2="412" stroke="#ddd" stroke-width="1" />
<text x="210" y="20" text-anchor="middle" font-family="sans-serif" font-size="14" fill="#999">flat hatch · 208 faces</text>
<text x="652" y="20" text-anchor="middle" font-family="sans-serif" font-size="14" fill="#999">curved hatch · 208 faces</text>
<text x="14" y="408" font-family="sans-serif" font-size="14" fill="#999">mushroom.obj</text>
</svg>