<?xml version="1.0" encoding="UTF-8" standalone="no"?>
<svg
   width="1200"
   height="630"
   viewBox="7 -7 170 52"
   version="1.1"
   id="svg5"
   sodipodi:docname="logo-simple.svg"
   inkscape:version="1.4.2 (ebf0e940, 2025-05-08)"
   xmlns:inkscape="http://www.inkscape.org/namespaces/inkscape"
   xmlns:sodipodi="http://sodipodi.sourceforge.net/DTD/sodipodi-0.dtd"
   xmlns="http://www.w3.org/2000/svg"
   xmlns:svg="http://www.w3.org/2000/svg">
  <sodipodi:namedview
     id="namedview5"
     pagecolor="#ffffff"
     bordercolor="#000000"
     borderopacity="0.25"
     inkscape:showpageshadow="2"
     inkscape:pageopacity="0.0"
     inkscape:pagecheckerboard="0"
     inkscape:deskcolor="#d1d1d1"
     inkscape:zoom="1.1142991"
     inkscape:cx="529.0321"
     inkscape:cy="261.15071"
     inkscape:window-width="1640"
     inkscape:window-height="953"
     inkscape:window-x="0"
     inkscape:window-y="38"
     inkscape:window-maximized="0"
     inkscape:current-layer="svg5" />
  <defs
     id="defs2">
    <linearGradient
       id="swatch6"
       inkscape:swatch="solid">
      <stop
         style="stop-color:#34d399;stop-opacity:1;"
         offset="0"
         id="stop6" />
    </linearGradient>
    <linearGradient
       id="blitz"
       x1="0%"
       y1="0%"
       x2="100%"
       y2="100%">
      <stop
         offset="0%"
         stop-color="#34D399"
         id="stop1" />
      <stop
         offset="100%"
         stop-color="#10B981"
         id="stop2" />
    </linearGradient>
  </defs>
  <g
     id="g3">
    <path
       fill="url(#blitz)"
       d="M22 5 8 28h10l-4 16 18-26H22Z"
       transform="translate(69.7 -11.5)"
       id="path2"
       style="fill:#34d399;fill-opacity:1" />
    <path
       fill="#10b981"
       d="m85.7 36.5 4 4-4 4-4-4z"
       id="path3" />
  </g>
  <path
     id="path4"
     d="M 17.900033 15.49987 L 8.2000163 41.300081 L 15.700049 41.300081 L 17.185889 37.099886 L 25.214128 37.099886 L 26.699967 41.300081 L 34.699984 41.300081 L 24.999967 15.49987 L 17.900033 15.49987 z M 35.199967 15.49987 L 35.199967 41.300081 L 42.10013 41.300081 L 42.10013 30.79987 C 42.057874 29.98846 42.346465 29.194627 42.900049 28.599886 C 43.500049 28.066553 44.166651 27.799967 44.899984 27.799967 C 45.833317 27.799967 46.499919 28.066553 46.899919 28.599886 C 47.297606 29.186559 47.474722 29.895299 47.399902 30.600098 L 47.399902 41.399967 L 54.399951 41.399967 L 54.399951 28.700049 C 54.454194 26.895724 53.80942 25.140244 52.600065 23.800098 C 51.466732 22.600098 49.899886 21.999935 47.899886 21.999935 C 46.499886 21.933268 45.300114 22.20013 44.300114 22.80013 C 43.312638 23.298248 42.482024 24.059597 41.900081 25.000114 L 41.900081 15.49987 L 35.199967 15.49987 z M 66.000016 21.799886 C 63.933349 21.733219 62.133414 22.066797 60.600081 22.80013 C 59.066748 23.533463 57.600114 24.6333 56.200114 26.099967 L 60.900016 29.299919 C 61.566683 28.566586 62.233284 27.999919 62.899951 27.599919 C 63.5409 27.243946 64.267454 27.070995 65.000049 27.099935 C 65.733382 27.033268 66.333268 27.233414 66.799935 27.700081 C 67.266602 28.166748 67.499967 28.80013 67.499967 29.60013 L 67.499967 30.400049 C 66.216082 29.941172 64.863516 29.704416 63.500098 29.700016 C 61.166765 29.700016 59.266618 30.266683 57.799951 31.400016 C 56.333284 32.533349 55.599967 33.999984 55.599967 35.799984 C 55.599967 37.599984 56.266569 39.033398 57.599902 40.100065 C 58.799902 41.166732 60.399967 41.699902 62.399967 41.699902 L 62.50013 41.699902 C 63.633463 41.766569 64.633366 41.5667 65.500033 41.100033 C 66.3667 40.633366 67.133235 39.966765 67.799902 39.100098 L 67.799902 41.300081 L 74.599902 41.300081 L 74.599902 29.299919 C 74.599902 26.966586 73.79987 25.133431 72.19987 23.800098 C 70.733203 22.466765 68.666683 21.799886 66.000016 21.799886 z M 21.19987 25.800033 L 21.500081 26.599951 L 23.587174 32.49987 L 18.812842 32.49987 L 20.899935 26.599951 L 21.19987 25.800033 z M 64.899886 33.300065 L 66.200065 33.399951 C 66.733398 33.533284 67.133414 33.733431 67.400081 34.000098 L 67.400081 34.19987 C 67.400081 35.856724 66.056756 37.200049 64.399902 37.200049 C 63.733235 37.200049 63.166569 37.033398 62.699902 36.700065 C 62.299902 36.300065 62.100033 35.800114 62.100033 35.200114 C 62.100033 34.600114 62.366618 34.133382 62.899951 33.800049 C 63.299951 33.466716 63.966553 33.300065 64.899886 33.300065 z "
     transform="translate(0,-9.5)"
     style="fill:#34d399;fill-opacity:1" />
  <path
     id="path5"
     d="M 139.00013 13.2 A 4 4 0 0 0 136.2 14.199967 C 135.46667 14.933301 135.09987 15.833268 135.09987 16.899935 A 4 4 0 0 0 136.2 19.700065 C 137 20.433398 137.93346 20.799919 139.00013 20.799919 C 140.0668 20.866585 140.99998 20.500065 141.79998 19.700065 C 142.59998 18.900065 143 17.966602 143 16.899935 C 143 15.833268 142.59998 14.933301 141.79998 14.199967 C 141.06665 13.533301 140.13346 13.2 139.00013 13.2 z M 103.40002 15.49987 L 103.40002 41.300081 L 117.20007 41.300081 A 8 8 0 0 0 122.89993 39.199984 A 7 7 0 0 0 125.00003 34.099984 C 125.00003 32.499984 124.60002 31.166781 123.80002 30.100114 A 6 6 0 0 0 120.30013 28.000016 C 121.50013 27.53335 122.43332 26.800033 123.09998 25.800033 C 123.76665 24.800033 124.09995 23.533268 124.09995 21.999935 C 124.09995 20.199935 123.43335 18.666585 122.10002 17.399919 C 120.76668 16.133252 118.93325 15.49987 116.59992 15.49987 L 103.40002 15.49987 z M 126.4001 15.49987 L 126.4001 41.300081 L 133.39987 41.300081 L 133.39987 15.49987 L 126.4001 15.49987 z M 146.10007 17.800016 L 146.10007 22.29987 L 143.79992 22.29987 L 143.79992 28.000016 L 146.10007 28.000016 L 146.10007 35.399886 C 146.10007 37.533219 146.66673 39.100065 147.80007 40.100065 C 148.9334 41.166732 150.49997 41.699902 152.49997 41.699902 A 11 11 0 0 0 156.89993 40.800098 L 156.89993 35.799984 L 155.69992 36.200081 L 154.69995 36.200081 C 154.16662 36.266748 153.7666 36.166536 153.49993 35.89987 C 153.23327 35.633203 153.10011 35.166748 153.10011 34.500081 L 153.10011 28.000016 L 156.80005 28.000016 L 156.80005 22.29987 L 153.10011 22.29987 L 153.10011 17.800016 L 146.10007 17.800016 z M 114.25522 21.198356 A 3 3 0 0 1 115.89989 21.799886 C 116.36655 22.333219 116.59992 22.933382 116.59992 23.600049 C 116.59992 24.333382 116.40005 24.900049 116.00005 25.300049 C 115.46672 25.833382 114.80011 26.099967 114.00011 26.099967 L 111.33363 26.099967 L 111.29987 21.200016 L 113.89995 21.200016 A 3 3 0 0 1 114.25522 21.198356 z M 135.49997 22.29987 L 135.49997 41.300081 L 142.50002 41.300081 L 142.50002 22.29987 L 135.49997 22.29987 z M 158.00007 22.29987 L 158.00007 27.700081 L 166.00008 27.700081 L 157.70013 36.900114 L 157.70013 41.300081 L 175.20011 41.300081 L 175.20011 35.89987 L 167.00005 35.89987 L 175.00007 26.500065 L 175.00007 22.29987 L 158.00007 22.29987 z M 111.36489 30.600098 L 114.39993 30.600098 C 115.19993 30.666764 115.90003 30.90013 116.50003 31.30013 C 117.03337 31.833464 117.29995 32.43335 117.29995 33.100016 C 117.29995 33.900016 116.99987 34.533398 116.39987 35.000065 C 115.99987 35.466732 115.33327 35.700098 114.39993 35.700098 L 111.40003 35.700098 L 111.36489 30.600098 z "
     transform="translate(0 -9.5)"
     style="fill:#000000;fill-opacity:1" />
</svg>
