<svg xmlns="http://www.w3.org/2000/svg" viewBox="0 0 720 540" width="720" height="540">
  <rect width="720" height="540" fill="#faf9f5" />
  <polyline points="434.63,363.13 452.46,189.94" fill="none" stroke="#1a1a1a" stroke-width="1.5" stroke-linecap="round" stroke-linejoin="round" />
  <polyline points="285.37,363.13 280.89,319.57" fill="none" stroke="#1a1a1a" stroke-width="1" stroke-opacity="0.32" stroke-dasharray="4,3" stroke-linecap="round" stroke-linejoin="round" />
  <polyline points="280.89,319.57 267.54,189.94" fill="none" stroke="#1a1a1a" stroke-width="1.5" stroke-linecap="round" stroke-linejoin="round" />
  <polyline points="424.06,387.19 428.2,381.48 431.35,375.5 433.49,369.35 434.63,363.13" fill="none" stroke="#1a1a1a" stroke-width="1.5" stroke-linecap="round" stroke-linejoin="round" />
  <polyline points="434.63,363.13 434.72,356.04 433.56,349.08 431.22,342.36 427.77,335.98 423.29,330.03 417.89,324.58 411.66,319.7 404.72,315.44 397.18,311.84 389.14,308.95 380.73,306.78 372.05,305.36 363.21,304.7 354.33,304.81 345.53,305.68 336.91,307.31 328.59,309.68 320.68,312.77 313.29,316.55 306.54,320.99 300.53,326.03 295.37,331.63 291.17,337.71 288.02,344.19 285.99,350.98 285.18,357.99 285.62,365.1 287.37,372.19 290.43,379.12 294.79,385.76 300.4,391.98 307.19,397.63" fill="none" stroke="#1a1a1a" stroke-width="1" stroke-opacity="0.32" stroke-dasharray="4,3" stroke-linecap="round" stroke-linejoin="round" />
  <polyline points="307.19,397.63 313.45,401.68 320.34,405.22 327.78,408.18 335.65,410.52 343.87,412.21 352.32,413.2 360.87,413.48 369.41,413.05 377.82,411.92 385.98,410.1 393.77,407.63 401.1,404.54 407.87,400.9 414,396.75 419.41,392.16 424.06,387.19" fill="none" stroke="#1a1a1a" stroke-width="1.5" stroke-linecap="round" stroke-linejoin="round" />
  <polyline points="440.12,211.53 446.38,204.73 450.47,197.62 452.41,190.39 452.25,183.2 450.09,176.22 446.07,169.58 440.36,163.41 433.15,157.79" fill="none" stroke="#1a1a1a" stroke-width="1.5" stroke-linecap="round" stroke-linejoin="round" />
  <polyline points="433.15,157.79 425.52,153.29 416.97,149.34 407.64,146.01 397.67,143.31 387.22,141.27 376.42,139.9 365.42,139.22 354.34,139.23 343.34,139.92 332.54,141.31 322.1,143.36 312.15,146.08 302.84,149.42 294.3,153.38 286.7,157.9 280.16,162.94" fill="none" stroke="#1a1a1a" stroke-width="1" stroke-opacity="0.32" stroke-dasharray="4,3" stroke-linecap="round" stroke-linejoin="round" />
  <polyline points="280.16,162.94 273.15,170.65 270.62,174.78 268.8,179.04 267.72,183.43 267.41,187.89 267.91,192.39 269.24,196.89 271.39,201.36 274.39,205.73 278.22,209.98 282.87,214.04 288.32,217.89 294.52,221.45 308.96,227.6 325.68,232.15 343.96,234.86 362.98,235.56 381.87,234.22 399.74,230.92 415.82,225.84 429.44,219.26 435.17,215.52 440.12,211.53" fill="none" stroke="#1a1a1a" stroke-width="1.5" stroke-linecap="round" stroke-linejoin="round" />
  <polyline points="434.14,146.53 433.65,136.1 431.81,125.79 428.65,115.79 424.21,106.28 418.55,97.42 411.77,89.39 403.98,82.33 395.33,76.38 385.96,71.65 376.04,68.24 365.75,66.2 355.29,65.59 344.84,66.41 334.6,68.65 324.75,72.26 315.48,77.18 306.95,83.31 299.31,90.53 292.71,98.7 287.24,107.67 283,117.28 280.05,127.36 278.45,137.71 278.19,148.15 279.28,158.52 281.68,168.62 285.34,178.29 290.2,187.37 296.15,195.71 303.1,203.19 310.92,209.67 319.49,215.07" fill="none" stroke="#1a1a1a" stroke-width="1.5" stroke-linecap="round" stroke-linejoin="round" />
  <polyline points="319.49,215.07 328.26,219.14 337.44,222.08 346.91,223.85 356.51,224.42 366.1,223.78 375.55,221.94 384.7,218.94 393.43,214.8" fill="none" stroke="#1a1a1a" stroke-width="1" stroke-opacity="0.32" stroke-dasharray="4,3" stroke-linecap="round" stroke-linejoin="round" />
  <polyline points="393.43,214.8 402.05,209.26 409.89,202.62 416.83,194.97 422.74,186.44 427.5,177.17 431.03,167.32 433.26,157.04 434.14,146.53" fill="none" stroke="#1a1a1a" stroke-width="1.5" stroke-linecap="round" stroke-linejoin="round" />
  <polyline points="253.34,488.12 309.19,394.27" fill="none" stroke="#1a1a1a" stroke-width="1.5" stroke-linecap="round" stroke-linejoin="round" />
  <polyline points="253.34,488.12 166.15,425.25" fill="none" stroke="#1a1a1a" stroke-width="1.5" stroke-linecap="round" stroke-linejoin="round" />
  <polyline points="297.77,408.83 303.04,403 307.51,396.95 311.14,390.74 313.93,384.44 315.87,378.13 316.96,371.87 317.22,365.71 316.68,359.72 315.35,353.93 313.27,348.4 310.49,343.18 307.04,338.28 302.97,333.75 298.32,329.61 293.14,325.89 287.49,322.61 274.95,317.43 261.1,314.16 246.37,312.86 231.16,313.57 215.9,316.25 201.02,320.88 186.97,327.36 174.21,335.55 163.19,345.27 158.49,350.62 154.39,356.26 150.95,362.14 148.23,368.2 146.27,374.41 145.11,380.7 144.79,387.01 145.35,393.28 146.78,399.44 149.12,405.41 152.36,411.13 156.47,416.51 161.45,421.5 167.24,426.02 173.79,430.01 181.03,433.4 188.89,436.14 197.26,438.2 206.05,439.54 215.15,440.14 224.44,439.99 233.8,439.09 243.11,437.45 252.25,435.11 261.11,432.09 269.58,428.45 277.57,424.24 284.97,419.52 291.73,414.36 297.77,408.83" fill="none" stroke="#1a1a1a" stroke-width="1.5" stroke-linecap="round" stroke-linejoin="round" />
  <polyline points="374.09,132.65 344.72,319.12" fill="none" stroke="#1a1a1a" stroke-width="1" stroke-opacity="0.32" stroke-dasharray="4,3" stroke-linecap="round" stroke-linejoin="round" />
  <polyline points="344.72,319.12 311.47,530.14" fill="none" stroke="#1a1a1a" stroke-width="1.5" stroke-linecap="round" stroke-linejoin="round" />
</svg>