<svg xmlns="http://www.w3.org/2000/svg" viewBox="0 0 720 540" width="720" height="540">
  <rect width="720" height="540" fill="#faf9f5" />
  <polyline points="383.89,59.98 387.35,61.98 390.8,63.97 394.26,65.97 397.72,67.96 401.17,69.96 404.63,71.95 408.09,73.95 411.54,75.95 415,77.94 418.45,79.94 421.91,81.93 425.37,83.93 428.82,85.92" fill="none" stroke="#1a1a1a" stroke-width="0.7" stroke-opacity="0.55" stroke-linecap="round" stroke-linejoin="round" />
  <polyline points="352.79,58.19 356.25,60.19 359.71,62.19 363.17,64.19 366.64,66.18 370.1,68.18 373.56,70.18 377.02,72.18 380.48,74.18 383.94,76.18 387.41,78.18 390.87,80.18 394.33,82.17 397.79,84.17 401.25,86.17 404.71,88.17 408.18,90.17 411.64,92.17 415.1,94.17 418.56,96.16 422.02,98.16 425.49,100.16 428.95,102.16 432.41,104.16 435.87,106.16 439.33,108.16 442.79,110.15 446.26,112.15" fill="none" stroke="#1a1a1a" stroke-width="0.7" stroke-opacity="0.55" stroke-linecap="round" stroke-linejoin="round" />
  <polyline points="332.9,62.87 336.32,64.85 339.73,66.82 343.15,68.79 346.56,70.76 349.98,72.74 353.4,74.71 356.81,76.68 360.23,78.65 363.65,80.63 367.06,82.6 370.48,84.57 373.9,86.54 377.31,88.51 380.73,90.49 384.15,92.46 387.56,94.43 390.98,96.4 394.39,98.38 397.81,100.35 401.23,102.32 404.64,104.29 408.06,106.27 411.48,108.24 414.89,110.21 418.31,112.18 421.73,114.16 425.14,116.13 428.56,118.1 431.98,120.07 435.39,122.05 438.81,124.02 442.22,125.99 445.64,127.96 449.06,129.94 452.47,131.91" fill="none" stroke="#1a1a1a" stroke-width="0.7" stroke-opacity="0.55" stroke-linecap="round" stroke-linejoin="round" />
  <polyline points="317.47,70.13 320.89,72.1 324.31,74.08 327.72,76.05 331.14,78.03 334.56,80 337.98,81.97 341.4,83.95 344.82,85.92 348.24,87.9 351.66,89.87 355.08,91.84 358.5,93.82" fill="none" stroke="#1a1a1a" stroke-width="0.7" stroke-opacity="0.55" stroke-linecap="round" stroke-linejoin="round" />
  <polyline points="402.95,119.48 406.37,121.45 409.79,123.43 413.2,125.4 416.62,127.38 420.04,129.35 423.46,131.33 426.88,133.3 430.3,135.27 433.72,137.25 437.14,139.22 440.56,141.2 443.98,143.17 447.4,145.14 450.82,147.12 454.23,149.09" fill="none" stroke="#1a1a1a" stroke-width="0.7" stroke-opacity="0.55" stroke-linecap="round" stroke-linejoin="round" />
  <polyline points="304.93,79.05 308.37,81.04 311.82,83.03 315.26,85.02 318.71,87.01 322.16,89 325.6,90.99 329.05,92.98 332.49,94.97 335.94,96.96 339.39,98.95 342.83,100.94 346.28,102.93" fill="none" stroke="#1a1a1a" stroke-width="0.7" stroke-opacity="0.55" stroke-linecap="round" stroke-linejoin="round" />
  <polyline points="404.86,136.75 408.31,138.74 411.75,140.73 415.2,142.72 418.64,144.71 422.09,146.7 425.54,148.69 428.98,150.68 432.43,152.67 435.88,154.66 439.32,156.65 442.77,158.64 446.21,160.63 449.66,162.62 453.11,164.61" fill="none" stroke="#1a1a1a" stroke-width="0.7" stroke-opacity="0.55" stroke-linecap="round" stroke-linejoin="round" />
  <polyline points="294.63,89.28 298.08,91.27 301.53,93.26 304.97,95.25 308.42,97.24 311.87,99.23 315.31,101.22 318.76,103.21 322.2,105.2 325.65,107.19 329.1,109.18 332.54,111.17 335.99,113.16 339.44,115.15" fill="none" stroke="#1a1a1a" stroke-width="0.7" stroke-opacity="0.55" stroke-linecap="round" stroke-linejoin="round" />
  <polyline points="398.03,148.97 401.48,150.96 404.92,152.95 408.37,154.94 411.82,156.93 415.26,158.92 418.71,160.91 422.15,162.9 425.6,164.89 429.05,166.88 432.49,168.87 435.94,170.86 439.39,172.85 442.83,174.84 446.28,176.83 449.73,178.82" fill="none" stroke="#1a1a1a" stroke-width="0.7" stroke-opacity="0.55" stroke-linecap="round" stroke-linejoin="round" />
  <polyline points="286.29,100.63 289.73,102.61 293.17,104.6 296.6,106.58 300.04,108.57 303.48,110.55 306.92,112.53 310.35,114.52 313.79,116.5 317.23,118.49 320.66,120.47 324.1,122.46 327.54,124.44 330.97,126.42 334.41,128.41 337.85,130.39" fill="none" stroke="#1a1a1a" stroke-width="0.7" stroke-opacity="0.55" stroke-linecap="round" stroke-linejoin="round" />
  <polyline points="382.53,156.19 385.97,158.17 389.4,160.16 392.84,162.14 396.28,164.13 399.71,166.11 403.15,168.1 406.59,170.08 410.03,172.07 413.46,174.05 416.9,176.03 420.34,178.02 423.77,180 427.21,181.99 430.65,183.97 434.08,185.96 437.52,187.94 440.96,189.92 444.4,191.91" fill="none" stroke="#1a1a1a" stroke-width="0.7" stroke-opacity="0.55" stroke-linecap="round" stroke-linejoin="round" />
  <polyline points="279.8,113.04 283.22,115.02 286.64,116.99 290.06,118.97 293.48,120.95 296.91,122.92 300.33,124.9 303.75,126.87 307.17,128.85 310.6,130.83 314.02,132.8 317.44,134.78 320.86,136.75 324.29,138.73 327.71,140.7 331.13,142.68 334.55,144.66 337.97,146.63 341.4,148.61 344.82,150.58 348.24,152.56 351.66,154.54 355.09,156.51 358.51,158.49 361.93,160.46 365.35,162.44 368.78,164.42 372.2,166.39 375.62,168.37 379.04,170.34 382.47,172.32 385.89,174.29 389.31,176.27 392.73,178.25 396.15,180.22 399.58,182.2 403,184.17 406.42,186.15 409.84,188.13 413.27,190.1 416.69,192.08 420.11,194.05 423.53,196.03 426.96,198.01 430.38,199.98 433.8,201.96 437.22,203.93" fill="none" stroke="#1a1a1a" stroke-width="0.7" stroke-opacity="0.55" stroke-linecap="round" stroke-linejoin="round" />
  <polyline points="275.16,126.53 278.56,128.5 281.96,130.46 285.36,132.42 288.76,134.39 292.17,136.35 295.57,138.31 298.97,140.28 302.37,142.24 305.77,144.2 309.17,146.17 312.57,148.13 315.97,150.09 319.37,152.06 322.77,154.02 326.17,155.98 329.57,157.95 332.97,159.91 336.37,161.87 339.77,163.84 343.17,165.8 346.57,167.76 349.97,169.73 353.37,171.69 356.77,173.65 360.17,175.62 363.57,177.58 366.98,179.54 370.38,181.5 373.78,183.47 377.18,185.43 380.58,187.39 383.98,189.36 387.38,191.32 390.78,193.28 394.18,195.25 397.58,197.21 400.98,199.17 404.38,201.14 407.78,203.1 411.18,205.06 414.58,207.03 417.98,208.99 421.38,210.95 424.78,212.92" fill="none" stroke="#1a1a1a" stroke-width="0.7" stroke-opacity="0.55" stroke-linecap="round" stroke-linejoin="round" />
  <polyline points="272.57,141.2 276.01,143.19 279.45,145.17 282.89,147.16 286.33,149.15 289.77,151.14 293.22,153.12 296.66,155.11 300.1,157.1 303.54,159.08 306.98,161.07 310.42,163.06 313.86,165.04 317.31,167.03 320.75,169.02 324.19,171 327.63,172.99 331.07,174.98 334.51,176.97 337.95,178.95 341.4,180.94 344.84,182.93 348.28,184.91 351.72,186.9 355.16,188.89 358.6,190.87 362.05,192.86 365.49,194.85 368.93,196.83 372.37,198.82 375.81,200.81 379.25,202.8 382.69,204.78 386.14,206.77 389.58,208.76 393.02,210.74 396.46,212.73 399.9,214.72 403.34,216.7 406.78,218.69 410.23,220.68 413.67,222.66" fill="none" stroke="#1a1a1a" stroke-width="0.7" stroke-opacity="0.55" stroke-linecap="round" stroke-linejoin="round" />
  <polyline points="272.4,157.27 275.85,159.26 279.31,161.26 282.76,163.25 286.21,165.24 289.66,167.24 293.12,169.23 296.57,171.22 300.02,173.22 303.48,175.21 306.93,177.2 310.38,179.2 313.83,181.19 317.29,183.19 320.74,185.18 324.19,187.17 327.64,189.17 331.1,191.16 334.55,193.15 338,195.15 341.45,197.14 344.91,199.13 348.36,201.13 351.81,203.12 355.27,205.11 358.72,207.11 362.17,209.1 365.62,211.09 369.08,213.09 372.53,215.08 375.98,217.07 379.43,219.07 382.89,221.06 386.34,223.05 389.79,225.05 393.25,227.04 396.7,229.03" fill="none" stroke="#1a1a1a" stroke-width="0.7" stroke-opacity="0.55" stroke-linecap="round" stroke-linejoin="round" />
  <polyline points="275.53,175.24 278.9,177.19 282.28,179.14 285.65,181.08 289.02,183.03 292.39,184.98 295.76,186.92 299.13,188.87 302.51,190.82 305.88,192.76 309.25,194.71 312.62,196.66 315.99,198.6 319.37,200.55 322.74,202.5 326.11,204.44 329.48,206.39 332.85,208.34 336.22,210.29 339.6,212.23 342.97,214.18 346.34,216.13 349.71,218.07 353.08,220.02 356.46,221.97 359.83,223.91 363.2,225.86 366.57,227.81 369.94,229.75 373.31,231.7" fill="none" stroke="#1a1a1a" stroke-width="0.7" stroke-opacity="0.55" stroke-linecap="round" stroke-linejoin="round" />
  <polyline points="284.35,196.5 287.69,198.43 291.02,200.35 294.35,202.27 297.68,204.2 301.01,206.12 304.34,208.04 307.67,209.97 311.01,211.89 314.34,213.81 317.67,215.74 321,217.66 324.33,219.58 327.66,221.51 330.99,223.43 334.33,225.35 337.66,227.28 340.99,229.2 344.32,231.12" fill="none" stroke="#1a1a1a" stroke-width="0.7" stroke-opacity="0.55" stroke-linecap="round" stroke-linejoin="round" />
  <polyline points="452.44,168.35 450.56,171.6 448.69,174.85 446.81,178.1 444.93,181.36 443.05,184.61 441.18,187.86 439.3,191.11 437.42,194.36 435.55,197.61 433.67,200.87 431.79,204.12 429.91,207.37 428.04,210.62 426.16,213.87 424.28,217.12" fill="none" stroke="#1a1a1a" stroke-width="0.7" stroke-opacity="0.55" stroke-linecap="round" stroke-linejoin="round" />
  <polyline points="453.52,138.47 451.58,141.83" fill="none" stroke="#1a1a1a" stroke-width="0.7" stroke-opacity="0.55" stroke-linecap="round" stroke-linejoin="round" />
  <polyline points="410.84,212.4 408.9,215.76 406.96,219.12 405.02,222.48 403.08,225.84" fill="none" stroke="#1a1a1a" stroke-width="0.7" stroke-opacity="0.55" stroke-linecap="round" stroke-linejoin="round" />
  <polyline points="387.76,224.38 385.79,227.79 383.82,231.21" fill="none" stroke="#1a1a1a" stroke-width="0.7" stroke-opacity="0.55" stroke-linecap="round" stroke-linejoin="round" />
  <polyline points="370.87,225.63 368.91,229.03 366.94,232.44" fill="none" stroke="#1a1a1a" stroke-width="0.7" stroke-opacity="0.55" stroke-linecap="round" stroke-linejoin="round" />
  <polyline points="355.72,223.88 353.74,227.3 351.77,230.72" fill="none" stroke="#1a1a1a" stroke-width="0.7" stroke-opacity="0.55" stroke-linecap="round" stroke-linejoin="round" />
  <polyline points="341.79,220 339.82,223.42 337.85,226.83 335.88,230.25" fill="none" stroke="#1a1a1a" stroke-width="0.7" stroke-opacity="0.55" stroke-linecap="round" stroke-linejoin="round" />
  <polyline points="327.02,217.59 325.05,220.99 323.09,224.39" fill="none" stroke="#1a1a1a" stroke-width="0.7" stroke-opacity="0.55" stroke-linecap="round" stroke-linejoin="round" />
  <polyline points="315.45,209.62 313.46,213.06 311.48,216.51 309.49,219.95" fill="none" stroke="#1a1a1a" stroke-width="0.7" stroke-opacity="0.55" stroke-linecap="round" stroke-linejoin="round" />
  <polyline points="304.81,200.05 302.84,203.46 300.88,206.86 298.91,210.27" fill="none" stroke="#1a1a1a" stroke-width="0.7" stroke-opacity="0.55" stroke-linecap="round" stroke-linejoin="round" />
  <polyline points="295.54,188.12 293.56,191.54 291.58,194.97 289.6,198.4 287.62,201.82" fill="none" stroke="#1a1a1a" stroke-width="0.7" stroke-opacity="0.55" stroke-linecap="round" stroke-linejoin="round" />
  <polyline points="287.66,173.75 285.7,177.16 283.73,180.56 281.77,183.96 279.8,187.37" fill="none" stroke="#1a1a1a" stroke-width="0.7" stroke-opacity="0.55" stroke-linecap="round" stroke-linejoin="round" />
  <polyline points="281.85,155.83 279.91,159.19 277.97,162.55 276.03,165.91 274.09,169.27" fill="none" stroke="#1a1a1a" stroke-width="0.7" stroke-opacity="0.55" stroke-linecap="round" stroke-linejoin="round" />
  <polyline points="313.86,72.38 311.88,75.8" fill="none" stroke="#1a1a1a" stroke-width="0.7" stroke-opacity="0.55" stroke-linecap="round" stroke-linejoin="round" />
  <polyline points="282.21,127.2 280.23,130.62 278.25,134.05 276.28,137.48 274.3,140.9 272.32,144.33" fill="none" stroke="#1a1a1a" stroke-width="0.7" stroke-opacity="0.55" stroke-linecap="round" stroke-linejoin="round" />
  <polyline points="454.32,153.02 454.15,147.55 454,141.94 453.21,136.23 452.41,130.46 450.95,124.87 449.48,119.39 447.38,114.24 445.28,109.17 442.59,104.42 439.91,99.67 436.72,95.31 433.56,90.9 429.9,86.83 426.21,82.68 422,79.02 417.71,75.41 412.98,72.38 408.22,69.39 403.16,66.98 398.13,64.47 392.94,62.51 387.84,60.44 382.63,59.02 377.43,57.63 372.09,57.01 366.63,56.46 360.96,56.73 355.13,57.04 349.31,58.09 343.5,59.13 337.91,60.9 332.35,62.72 327.03,65.25 321.71,67.8 316.78,70.93 311.97,73.96 307.63,77.42 303.32,80.8 299.42,84.64 295.44,88.51 291.85,92.86 288.2,97.27 285.08,102.06 282.07,106.87 279.77,111.92 277.56,116.92 275.93,122.11 274.31,127.32 273.3,132.75 272.3,138.27 272,143.9 271.86,149.43 272.51,154.83 273.21,160.19 274.47,165.47 275.57,170.85 277.07,176.14 278.45,181.5 280.42,186.68 282.44,191.87 285.09,196.71 287.74,201.52 290.86,205.96 293.91,210.39" fill="none" stroke="#1a1a1a" stroke-width="1.7" stroke-linecap="round" stroke-linejoin="round" />
  <polyline points="293.91,210.39 297.15,214.07 300.4,217.67 304.04,220.81 307.69,223.99 311.68,226.85 315.71,229.85 320,232.42 324.23,234.94 328.65,236.88 333.12,238.69 337.84,239.86 342.67,240.97 347.69,241.57 352.7,242.24 357.76,242.45 362.81,242.7 367.83,242.42 372.82,242.13 377.69,241.32 382.54,240.56 387.29,239.33 392.06,238.14 396.7,236.44 401.34,234.72 405.74,232.44 410.12,230.1 414.18,227.25 418.22,224.41 421.94,221.13 425.66,217.89 429.02,214.26 432.37,210.67" fill="none" stroke="#1a1a1a" stroke-width="1.53" stroke-opacity="0.32" stroke-dasharray="4,3" stroke-linecap="round" stroke-linejoin="round" />
  <polyline points="432.37,210.67 434.69,207.67 437.01,204.67 439.1,201.46 441.22,198.22 443.1,194.76 445,191.26 446.62,187.58 448.23,183.89 449.53,180.05 450.8,176.21 451.73,172.3 452.65,168.43 453.23,164.54 453.81,160.71 454.07,156.86 454.32,153.02" fill="none" stroke="#1a1a1a" stroke-width="1.7" stroke-linecap="round" stroke-linejoin="round" />
  <polyline points="442.12,378 442.55,372.01 443.02,366.02 443.6,360 444.26,354 444.93,348.01 445.63,341.99 446.33,335.95 447,329.91 447.68,323.85 448.34,317.84 448.97,311.9 449.5,306.04 450.06,300.18 450.78,294.21 451.51,288.07 452.2,281.93 452.84,275.95 453.51,270.04 454.17,264.14 454.82,258.25 455.49,252.42 456.15,246.6 456.81,240.69 457.54,234.77 458.27,228.86 458.97,222.95 459.68,217 460.38,211.02 460.93,205.07 461.38,199.16 461.8,193.26" fill="none" stroke="#1a1a1a" stroke-width="1" stroke-linecap="round" stroke-linejoin="round" />
  <polyline points="278.1,377.9 277.34,371.87 276.55,365.94 275.79,360.13 275.1,354.31 274.51,348.32 273.96,342.19 273.4,336.03 272.75,329.94 271.99,323.89 271.26,317.91 270.7,311.98 270.2,306.08 269.7,300.18 269.18,294.25 268.69,288.23 268.13,282.21 267.48,276.26 266.65,270.41 265.84,264.59 265.23,258.74 264.76,252.75 264.28,246.71 263.69,240.73 263.1,234.83 262.53,228.96 261.92,223.05 261.26,217.1 260.58,211.13 259.88,205.18 259.15,199.29 258.4,193.42" fill="none" stroke="#1a1a1a" stroke-width="1" stroke-linecap="round" stroke-linejoin="round" />
  <polyline points="432.34,401.87 434.28,399 436.19,396.12 437.63,393.14 439.05,390.16 440.01,387.11 440.99,384.07 441.54,381.03 442.12,378" fill="none" stroke="#1a1a1a" stroke-width="1" stroke-linecap="round" stroke-linejoin="round" />
  <polyline points="442.12,378 442.27,374.78 442.39,371.53 442.01,368.31 441.62,365.04 440.72,361.83 439.78,358.62 438.39,355.51 437.01,352.42 435.24,349.53 433.5,346.71 431.39,344.09 429.27,341.43 426.79,338.9 424.35,336.31 421.64,333.94 418.98,331.57 416.03,329.47 413.07,327.39 409.86,325.59 406.63,323.85 403.14,322.4 399.62,320.95 395.91,319.73 392.2,318.48 386.97,317.32 381.73,316.17 376.42,315.07 370.89,314.78 365.39,314.5 359.99,314.18 354.69,314.55 349.39,314.89 344,315.21 338.71,316.32 333.5,317.46 328.43,318.58 324.83,319.81 321.22,321.02 317.73,322.51 314.2,324.02 310.85,325.82 307.47,327.61 304.34,329.63 301.22,331.66 298.42,333.92 295.58,336.22 293.03,338.77 290.48,341.35 288.31,344.13 286.19,346.86 284.45,349.72 282.74,352.53 281.46,355.46 280.2,358.38 279.41,361.47 278.62,364.64 278.29,367.95 277.92,371.26 278.02,374.6 278.1,377.9" fill="none" stroke="#1a1a1a" stroke-width="0.9" stroke-opacity="0.2" stroke-dasharray="4,3" stroke-linecap="round" stroke-linejoin="round" />
  <polyline points="278.1,377.9 278.97,382.35 279.88,386.82 281.82,391.23 283.7,395.58 286.46,399.65 289.2,403.66 292.9,407.36 296.71,411.08 301.42,414.4 306.1,417.71 309.68,419.56 313.24,421.39 316.79,423.22 320.74,424.66 324.68,426.12 328.61,427.57 332.81,428.53 336.98,429.5 341.15,430.47 345.53,430.94 349.97,431.42 354.49,431.9 359.11,431.85 363.76,431.79 368.4,431.74 372.94,431.17 377.45,430.58 381.91,430 386.12,428.97 390.29,427.95 394.45,426.95 398.28,425.5 402.13,424.03 406.01,422.51 411.19,419.56 416.33,416.56 420.7,413.07 425.14,409.62 428.75,405.75 432.34,401.87" fill="none" stroke="#1a1a1a" stroke-width="1" stroke-linecap="round" stroke-linejoin="round" />
  <polyline points="449.84,213.6 452.32,210.78 454.85,207.96 456.8,205.06 458.8,202.23 460.05,199.42 461.18,196.66 461.91,191.18 461.32,185.69 459.43,180.18 457.86,177.53 456.31,174.9 454.21,172.4 452.12,169.85" fill="none" stroke="#1a1a1a" stroke-width="1" stroke-linecap="round" stroke-linejoin="round" />
  <polyline points="452.12,169.85 448.65,166.72 445.16,163.57 440.9,160.73 436.68,157.91 431.81,155.43 426.87,152.91 421.3,150.78 415.75,148.69 411.76,147.58 407.81,146.49 403.84,145.4 399.61,144.6 395.38,143.84 391.19,143.1 386.89,142.64 382.62,142.15 378.35,141.63 373.99,141.36 369.61,141.08 365.22,140.79 360.81,140.75 356.35,140.72 351.87,140.71 347.46,141.02 343.08,141.35 338.73,141.68 334.51,142.3 330.26,142.9 325.95,143.49 321.78,144.35 317.58,145.25 313.38,146.16 309.43,147.34 305.49,148.5 301.57,149.6 296.21,151.58 290.88,153.58 286.11,156.05 281.37,158.62 277.37,161.54 273.31,164.44" fill="none" stroke="#1a1a1a" stroke-width="0.9" stroke-opacity="0.2" stroke-dasharray="4,3" stroke-linecap="round" stroke-linejoin="round" />
  <polyline points="273.31,164.44 268.87,168.44 265.05,172.64 262.01,176.99 259.83,181.43 258.56,185.96 258.21,190.61 258.71,195.39 260.11,200.31 262.46,205.2 265.71,209.76 267.76,211.9 269.78,214.04 272.27,216.13 274.77,218.24 277.76,220.24 280.78,222.26 284.25,224.14 287.73,226.02 291.62,227.74 295.5,229.46 299.74,230.99 303.97,232.53 308.66,233.73 313.34,234.96 318.04,236.25 322.78,237.58 328.02,238.39 333.31,239.18 338.6,239.9 343.87,240.58 349.27,240.67 354.62,240.74 359.96,240.78 365.31,240.8 370.6,240.25 375.9,239.74 381.21,239.31 386.52,238.95 391.53,238.08 396.52,237.22 401.51,236.35 406.47,235.47 411.04,234.21 415.59,232.92 419.82,231.39 424.05,229.82 427.92,228.03 431.8,226.21 435.27,224.23 438.74,222.25 441.75,220.14 444.76,218.03 447.3,215.81 449.84,213.6" fill="none" stroke="#1a1a1a" stroke-width="1" stroke-linecap="round" stroke-linejoin="round" />
  <polyline points="367.47,147.9 367.11,153.6 366.58,159.28 365.84,165.43 365.03,171.53 364.33,177.26 363.71,182.92 363.1,188.49 362.59,194.36 362.25,200.33 362.04,205.91 361.51,211.6 360.37,217.51 359.32,223.49 358.86,229.38 358.68,235.18 358.23,240.96 357.77,246.59 357.16,252.3 356.37,258.16 355.58,263.99 354.92,269.84 354.19,275.87 353.01,281.87 351.97,287.42 351.22,293.09 350.52,298.96 350.1,304.31 349.9,310.12 349.5,316.16 348.8,321.88 348.14,327.66 347.73,333.37 347.31,338.8" fill="none" stroke="#1a1a1a" stroke-width="1.35" stroke-opacity="0.32" stroke-dasharray="4,3" stroke-linecap="round" stroke-linejoin="round" />
  <polyline points="347.31,338.8 346.64,344.69 345.85,350.7 345.02,356.8 344.26,362.97 343.61,369.14 342.98,375.2 342.22,381.09 341.35,386.9 340.51,392.7 339.85,398.58 339.31,404.56 338.76,410.59 338.16,416.61 337.48,422.63 336.82,428.62 336.17,434.62 335.5,440.69 334.83,446.78 334.16,452.8 333.49,458.68 332.82,464.38 332.07,469.96 331.23,475.52 330.41,481.22 329.71,487.14 329.11,493.23 328.54,499.42 327.94,505.63 327.31,511.78 326.75,517.75 326.25,523.53 325.78,529.2 325.24,534.87 324.62,540.64 323.98,546.53 323.31,552.54 322.57,558.64" fill="none" stroke="#1a1a1a" stroke-width="1.5" stroke-linecap="round" stroke-linejoin="round" />
</svg>