<svg xmlns="http://www.w3.org/2000/svg" viewBox="0 0 720 540" width="720" height="540">
  <rect width="720" height="540" fill="#faf9f5" />
  <polyline points="383.89,59.98 387.35,61.98 390.8,63.97 394.26,65.97 397.72,67.96 401.17,69.96 404.63,71.95 408.09,73.95 411.54,75.95 415,77.94 418.45,79.94 421.91,81.93 425.37,83.93 428.82,85.92" fill="none" stroke="#1a1a1a" stroke-width="0.7" stroke-opacity="0.55" stroke-linecap="round" stroke-linejoin="round" />
  <polyline points="352.79,58.19 356.25,60.19 359.71,62.19 363.17,64.19 366.64,66.18 370.1,68.18 373.56,70.18 377.02,72.18 380.48,74.18 383.94,76.18 387.41,78.18 390.87,80.18 394.33,82.17 397.79,84.17 401.25,86.17 404.71,88.17 408.18,90.17 411.64,92.17 415.1,94.17 418.56,96.16 422.02,98.16 425.49,100.16 428.95,102.16 432.41,104.16 435.87,106.16 439.33,108.16 442.79,110.15 446.26,112.15" fill="none" stroke="#1a1a1a" stroke-width="0.7" stroke-opacity="0.55" stroke-linecap="round" stroke-linejoin="round" />
  <polyline points="332.9,62.87 336.32,64.85 339.73,66.82 343.15,68.79 346.56,70.76 349.98,72.74 353.4,74.71 356.81,76.68 360.23,78.65 363.65,80.63 367.06,82.6 370.48,84.57 373.9,86.54 377.31,88.51 380.73,90.49 384.15,92.46 387.56,94.43 390.98,96.4 394.39,98.38 397.81,100.35 401.23,102.32 404.64,104.29 408.06,106.27 411.48,108.24 414.89,110.21 418.31,112.18 421.73,114.16 425.14,116.13 428.56,118.1 431.98,120.07 435.39,122.05 438.81,124.02 442.22,125.99 445.64,127.96 449.06,129.94 452.47,131.91" fill="none" stroke="#1a1a1a" stroke-width="0.7" stroke-opacity="0.55" stroke-linecap="round" stroke-linejoin="round" />
  <polyline points="317.47,70.13 320.89,72.1 324.31,74.08 327.72,76.05 331.14,78.03 334.56,80 337.98,81.97 341.4,83.95 344.82,85.92 348.24,87.9 351.66,89.87 355.08,91.84 358.5,93.82 361.92,95.79 365.34,97.77 368.75,99.74 372.17,101.71 375.59,103.69 379.01,105.66 382.43,107.64 385.85,109.61 389.27,111.58 392.69,113.56 396.11,115.53 399.53,117.51 402.95,119.48 406.37,121.45 409.79,123.43 413.2,125.4 416.62,127.38 420.04,129.35 423.46,131.33 426.88,133.3 430.3,135.27 433.72,137.25 437.14,139.22 440.56,141.2 443.98,143.17 447.4,145.14 450.82,147.12 454.23,149.09" fill="none" stroke="#1a1a1a" stroke-width="0.7" stroke-opacity="0.55" stroke-linecap="round" stroke-linejoin="round" />
  <polyline points="304.93,79.05 308.37,81.04 311.82,83.03 315.26,85.02 318.71,87.01 322.16,89 325.6,90.99 329.05,92.98 332.49,94.97 335.94,96.96 339.39,98.95 342.83,100.94 346.28,102.93 349.72,104.92 353.17,106.91 356.62,108.9 360.06,110.89 363.51,112.88 366.95,114.87 370.4,116.86 373.85,118.85 377.29,120.83 380.74,122.82 384.18,124.81 387.63,126.8 391.08,128.79 394.52,130.78 397.97,132.77 401.41,134.76 404.86,136.75 408.31,138.74 411.75,140.73 415.2,142.72 418.64,144.71 422.09,146.7 425.54,148.69 428.98,150.68 432.43,152.67 435.88,154.66 439.32,156.65 442.77,158.64 446.21,160.63 449.66,162.62 453.11,164.61" fill="none" stroke="#1a1a1a" stroke-width="0.7" stroke-opacity="0.55" stroke-linecap="round" stroke-linejoin="round" />
  <polyline points="294.63,89.28 298.08,91.27 301.53,93.26 304.97,95.25 308.42,97.24 311.87,99.23 315.31,101.22 318.76,103.21 322.2,105.2 325.65,107.19 329.1,109.18 332.54,111.17 335.99,113.16 339.44,115.15 342.88,117.14 346.33,119.13 349.78,121.11 353.22,123.1 356.67,125.09 360.12,127.08 363.56,129.07 367.01,131.06 370.46,133.05 373.9,135.04 377.35,137.03 380.8,139.02 384.24,141.01 387.69,143 391.14,144.99 394.58,146.98 398.03,148.97 401.48,150.96 404.92,152.95 408.37,154.94 411.82,156.93 415.26,158.92 418.71,160.91 422.15,162.9 425.6,164.89 429.05,166.88 432.49,168.87 435.94,170.86 439.39,172.85 442.83,174.84 446.28,176.83 449.73,178.82" fill="none" stroke="#1a1a1a" stroke-width="0.7" stroke-opacity="0.55" stroke-linecap="round" stroke-linejoin="round" />
  <polyline points="286.29,100.63 289.73,102.61 293.17,104.6 296.6,106.58 300.04,108.57 303.48,110.55 306.92,112.53 310.35,114.52 313.79,116.5 317.23,118.49 320.66,120.47 324.1,122.46 327.54,124.44 330.97,126.42 334.41,128.41 337.85,130.39 341.29,132.38 344.72,134.36 348.16,136.35 351.6,138.33 355.03,140.32 358.47,142.3 361.91,144.28 365.34,146.27 368.78,148.25 372.22,150.24 375.66,152.22 379.09,154.21 382.53,156.19 385.97,158.17 389.4,160.16 392.84,162.14 396.28,164.13 399.71,166.11 403.15,168.1 406.59,170.08 410.03,172.07 413.46,174.05 416.9,176.03 420.34,178.02 423.77,180 427.21,181.99 430.65,183.97 434.08,185.96 437.52,187.94 440.96,189.92 444.4,191.91" fill="none" stroke="#1a1a1a" stroke-width="0.7" stroke-opacity="0.55" stroke-linecap="round" stroke-linejoin="round" />
  <polyline points="279.8,113.04 283.22,115.02 286.64,116.99 290.06,118.97 293.48,120.95 296.91,122.92 300.33,124.9 303.75,126.87 307.17,128.85 310.6,130.83 314.02,132.8 317.44,134.78 320.86,136.75 324.29,138.73 327.71,140.7 331.13,142.68 334.55,144.66 337.97,146.63 341.4,148.61 344.82,150.58 348.24,152.56 351.66,154.54 355.09,156.51 358.51,158.49 361.93,160.46 365.35,162.44 368.78,164.42 372.2,166.39 375.62,168.37 379.04,170.34 382.47,172.32 385.89,174.29 389.31,176.27 392.73,178.25 396.15,180.22 399.58,182.2 403,184.17 406.42,186.15 409.84,188.13 413.27,190.1 416.69,192.08 420.11,194.05 423.53,196.03 426.96,198.01 430.38,199.98 433.8,201.96 437.22,203.93" fill="none" stroke="#1a1a1a" stroke-width="0.7" stroke-opacity="0.55" stroke-linecap="round" stroke-linejoin="round" />
  <polyline points="275.16,126.53 278.56,128.5 281.96,130.46 285.36,132.42 288.76,134.39 292.17,136.35 295.57,138.31 298.97,140.28 302.37,142.24 305.77,144.2 309.17,146.17 312.57,148.13 315.97,150.09 319.37,152.06 322.77,154.02 326.17,155.98 329.57,157.95 332.97,159.91 336.37,161.87 339.77,163.84 343.17,165.8 346.57,167.76 349.97,169.73 353.37,171.69 356.77,173.65 360.17,175.62 363.57,177.58 366.98,179.54 370.38,181.5 373.78,183.47 377.18,185.43 380.58,187.39 383.98,189.36 387.38,191.32 390.78,193.28 394.18,195.25 397.58,197.21 400.98,199.17 404.38,201.14 407.78,203.1 411.18,205.06 414.58,207.03 417.98,208.99 421.38,210.95 424.78,212.92" fill="none" stroke="#1a1a1a" stroke-width="0.7" stroke-opacity="0.55" stroke-linecap="round" stroke-linejoin="round" />
  <polyline points="272.57,141.2 276.01,143.19 279.45,145.17 282.89,147.16 286.33,149.15 289.77,151.14 293.22,153.12 296.66,155.11 300.1,157.1 303.54,159.08 306.98,161.07 310.42,163.06 313.86,165.04 317.31,167.03 320.75,169.02 324.19,171 327.63,172.99 331.07,174.98 334.51,176.97 337.95,178.95 341.4,180.94 344.84,182.93 348.28,184.91 351.72,186.9 355.16,188.89 358.6,190.87 362.05,192.86 365.49,194.85 368.93,196.83 372.37,198.82 375.81,200.81 379.25,202.8 382.69,204.78 386.14,206.77 389.58,208.76 393.02,210.74 396.46,212.73 399.9,214.72 403.34,216.7 406.78,218.69 410.23,220.68 413.67,222.66" fill="none" stroke="#1a1a1a" stroke-width="0.7" stroke-opacity="0.55" stroke-linecap="round" stroke-linejoin="round" />
  <polyline points="272.4,157.27 275.85,159.26 279.31,161.26 282.76,163.25 286.21,165.24 289.66,167.24 293.12,169.23 296.57,171.22 300.02,173.22 303.48,175.21 306.93,177.2 310.38,179.2 313.83,181.19 317.29,183.19 320.74,185.18 324.19,187.17 327.64,189.17 331.1,191.16 334.55,193.15 338,195.15 341.45,197.14 344.91,199.13 348.36,201.13 351.81,203.12 355.27,205.11 358.72,207.11 362.17,209.1 365.62,211.09 369.08,213.09 372.53,215.08 375.98,217.07 379.43,219.07 382.89,221.06 386.34,223.05 389.79,225.05 393.25,227.04 396.7,229.03" fill="none" stroke="#1a1a1a" stroke-width="0.7" stroke-opacity="0.55" stroke-linecap="round" stroke-linejoin="round" />
  <polyline points="275.53,175.24 278.9,177.19 282.28,179.14 285.65,181.08 289.02,183.03 292.39,184.98 295.76,186.92 299.13,188.87 302.51,190.82 305.88,192.76 309.25,194.71 312.62,196.66 315.99,198.6 319.37,200.55 322.74,202.5 326.11,204.44 329.48,206.39 332.85,208.34 336.22,210.29 339.6,212.23 342.97,214.18 346.34,216.13 349.71,218.07 353.08,220.02 356.46,221.97 359.83,223.91 363.2,225.86 366.57,227.81 369.94,229.75 373.31,231.7" fill="none" stroke="#1a1a1a" stroke-width="0.7" stroke-opacity="0.55" stroke-linecap="round" stroke-linejoin="round" />
  <polyline points="284.35,196.5 287.69,198.43 291.02,200.35 294.35,202.27 297.68,204.2 301.01,206.12 304.34,208.04 307.67,209.97 311.01,211.89 314.34,213.81 317.67,215.74 321,217.66 324.33,219.58 327.66,221.51 330.99,223.43 334.33,225.35 337.66,227.28 340.99,229.2 344.32,231.12" fill="none" stroke="#1a1a1a" stroke-width="0.7" stroke-opacity="0.55" stroke-linecap="round" stroke-linejoin="round" />
  <polyline points="452.44,168.35 450.56,171.6 448.69,174.85 446.81,178.1 444.93,181.36 443.05,184.61 441.18,187.86 439.3,191.11 437.42,194.36 435.55,197.61 433.67,200.87 431.79,204.12 429.91,207.37 428.04,210.62 426.16,213.87 424.28,217.12" fill="none" stroke="#1a1a1a" stroke-width="0.7" stroke-opacity="0.55" stroke-linecap="round" stroke-linejoin="round" />
  <polyline points="453.52,138.47 451.58,141.83 449.64,145.19 447.7,148.55 445.76,151.91 443.82,155.27 441.88,158.63 439.94,161.99 438,165.35 436.06,168.71 434.12,172.07 432.18,175.43 430.24,178.79 428.3,182.15 426.36,185.51 424.42,188.87 422.48,192.23 420.54,195.59 418.6,198.96 416.66,202.32 414.72,205.68 412.78,209.04 410.84,212.4 408.9,215.76 406.96,219.12 405.02,222.48 403.08,225.84" fill="none" stroke="#1a1a1a" stroke-width="0.7" stroke-opacity="0.55" stroke-linecap="round" stroke-linejoin="round" />
  <polyline points="448.83,118.61 446.86,122.02 444.89,125.44 442.92,128.85 440.95,132.26 438.98,135.67 437.01,139.08 435.04,142.5 433.07,145.91 431.1,149.32 429.13,152.73 427.16,156.14 425.19,159.56 423.22,162.97 421.25,166.38 419.28,169.79 417.31,173.2 415.34,176.62 413.37,180.03 411.4,183.44 409.43,186.85 407.46,190.26 405.49,193.68 403.52,197.09 401.55,200.5 399.58,203.91 397.61,207.32 395.64,210.73 393.67,214.15 391.7,217.56 389.73,220.97 387.76,224.38 385.79,227.79 383.82,231.21" fill="none" stroke="#1a1a1a" stroke-width="0.7" stroke-opacity="0.55" stroke-linecap="round" stroke-linejoin="round" />
  <polyline points="441.63,103.07 439.67,106.47 437.7,109.88 435.74,113.28 433.77,116.69 431.81,120.09 429.84,123.5 427.87,126.9 425.91,130.3 423.94,133.71 421.98,137.11 420.01,140.52 418.05,143.92 416.08,147.33 414.12,150.73 412.15,154.14 410.18,157.54 408.22,160.94 406.25,164.35 404.29,167.75 402.32,171.16 400.36,174.56 398.39,177.97 396.43,181.37 394.46,184.78 392.49,188.18 390.53,191.58 388.56,194.99 386.6,198.39 384.63,201.8 382.67,205.2 380.7,208.61 378.74,212.01 376.77,215.41 374.8,218.82 372.84,222.22 370.87,225.63 368.91,229.03 366.94,232.44" fill="none" stroke="#1a1a1a" stroke-width="0.7" stroke-opacity="0.55" stroke-linecap="round" stroke-linejoin="round" />
  <polyline points="432.79,90.39 430.81,93.81 428.83,97.24 426.86,100.66 424.88,104.08 422.91,107.51 420.93,110.93 418.95,114.35 416.98,117.77 415,121.2 413.03,124.62 411.05,128.04 409.07,131.46 407.1,134.89 405.12,138.31 403.14,141.73 401.17,145.16 399.19,148.58 397.22,152 395.24,155.42 393.26,158.85 391.29,162.27 389.31,165.69 387.34,169.11 385.36,172.54 383.38,175.96 381.41,179.38 379.43,182.81 377.45,186.23 375.48,189.65 373.5,193.07 371.53,196.5 369.55,199.92 367.57,203.34 365.6,206.77 363.62,210.19 361.65,213.61 359.67,217.03 357.69,220.46 355.72,223.88 353.74,227.3 351.77,230.72" fill="none" stroke="#1a1a1a" stroke-width="0.7" stroke-opacity="0.55" stroke-linecap="round" stroke-linejoin="round" />
  <polyline points="422.64,79.97 420.66,83.39 418.69,86.8 416.72,90.22 414.75,93.63 412.78,97.05 410.81,100.46 408.83,103.88 406.86,107.29 404.89,110.71 402.92,114.13 400.95,117.54 398.97,120.96 397,124.37 395.03,127.79 393.06,131.2 391.09,134.62 389.12,138.03 387.14,141.45 385.17,144.86 383.2,148.28 381.23,151.69 379.26,155.11 377.28,158.52 375.31,161.94 373.34,165.36 371.37,168.77 369.4,172.19 367.42,175.6 365.45,179.02 363.48,182.43 361.51,185.85 359.54,189.26 357.57,192.68 355.59,196.09 353.62,199.51 351.65,202.92 349.68,206.34 347.71,209.75 345.73,213.17 343.76,216.59 341.79,220 339.82,223.42 337.85,226.83 335.88,230.25" fill="none" stroke="#1a1a1a" stroke-width="0.7" stroke-opacity="0.55" stroke-linecap="round" stroke-linejoin="round" />
  <polyline points="411.34,71.54 409.38,74.93 407.42,78.33 405.46,81.73 403.5,85.12 401.54,88.52 399.58,91.92 397.61,95.31 395.65,98.71 393.69,102.11 391.73,105.5 389.77,108.9 387.81,112.3 385.85,115.69 383.89,119.09 381.93,122.49 379.96,125.88 378,129.28 376.04,132.68 374.08,136.07 372.12,139.47 370.16,142.87 368.2,146.26 366.24,149.66 364.28,153.06 362.31,156.45 360.35,159.85 358.39,163.25 356.43,166.64 354.47,170.04 352.51,173.44 350.55,176.83 348.59,180.23 346.63,183.63 344.67,187.02 342.7,190.42 340.74,193.82 338.78,197.21 336.82,200.61 334.86,204.01 332.9,207.4 330.94,210.8 328.98,214.2 327.02,217.59 325.05,220.99 323.09,224.39" fill="none" stroke="#1a1a1a" stroke-width="0.7" stroke-opacity="0.55" stroke-linecap="round" stroke-linejoin="round" />
  <polyline points="398.96,64.98 396.97,68.43 394.98,71.87 392.99,75.32 391,78.76 389.02,82.2 387.03,85.65 385.04,89.09 383.05,92.53 381.06,95.98 379.08,99.42 377.09,102.87 375.1,106.31 373.11,109.75 371.12,113.2 369.13,116.64 367.15,120.08 365.16,123.53 363.17,126.97 361.18,130.42 359.19,133.86 357.21,137.3 355.22,140.75 353.23,144.19 351.24,147.63 349.25,151.08 347.26,154.52 345.28,157.96 343.29,161.41 341.3,164.85 339.31,168.3 337.32,171.74 335.33,175.18 333.35,178.63 331.36,182.07 329.37,185.51 327.38,188.96 325.39,192.4 323.41,195.85 321.42,199.29 319.43,202.73 317.44,206.18 315.45,209.62 313.46,213.06 311.48,216.51 309.49,219.95" fill="none" stroke="#1a1a1a" stroke-width="0.7" stroke-opacity="0.55" stroke-linecap="round" stroke-linejoin="round" />
  <polyline points="385.46,60.37 383.49,63.77 381.52,67.18 379.56,70.59 377.59,73.99 375.62,77.4 373.66,80.81 371.69,84.22 369.72,87.62 367.76,91.03 365.79,94.44 363.82,97.84 361.85,101.25 359.89,104.66 357.92,108.06 355.95,111.47 353.99,114.88 352.02,118.28 350.05,121.69 348.09,125.1 346.12,128.51 344.15,131.91 342.18,135.32 340.22,138.73 338.25,142.13 336.28,145.54 334.32,148.95 332.35,152.35 330.38,155.76 328.42,159.17 326.45,162.57 324.48,165.98 322.51,169.39 320.55,172.8 318.58,176.2 316.61,179.61 314.65,183.02 312.68,186.42 310.71,189.83 308.75,193.24 306.78,196.64 304.81,200.05 302.84,203.46 300.88,206.86 298.91,210.27" fill="none" stroke="#1a1a1a" stroke-width="0.7" stroke-opacity="0.55" stroke-linecap="round" stroke-linejoin="round" />
  <polyline points="370.72,57.89 368.75,61.31 366.77,64.74 364.79,68.17 362.81,71.59 360.83,75.02 358.85,78.45 356.87,81.88 354.9,85.3 352.92,88.73 350.94,92.16 348.96,95.58 346.98,99.01 345,102.44 343.02,105.87 341.05,109.29 339.07,112.72 337.09,116.15 335.11,119.57 333.13,123 331.15,126.43 329.17,129.86 327.19,133.28 325.22,136.71 323.24,140.14 321.26,143.56 319.28,146.99 317.3,150.42 315.32,153.84 313.34,157.27 311.37,160.7 309.39,164.13 307.41,167.55 305.43,170.98 303.45,174.41 301.47,177.83 299.49,181.26 297.52,184.69 295.54,188.12 293.56,191.54 291.58,194.97 289.6,198.4 287.62,201.82" fill="none" stroke="#1a1a1a" stroke-width="0.7" stroke-opacity="0.55" stroke-linecap="round" stroke-linejoin="round" />
  <polyline points="354.49,58.01 352.52,61.41 350.56,64.81 348.59,68.22 346.63,71.62 344.66,75.03 342.7,78.43 340.73,81.84 338.77,85.24 336.8,88.64 334.83,92.05 332.87,95.45 330.9,98.86 328.94,102.26 326.97,105.67 325.01,109.07 323.04,112.47 321.08,115.88 319.11,119.28 317.15,122.69 315.18,126.09 313.21,129.5 311.25,132.9 309.28,136.3 307.32,139.71 305.35,143.11 303.39,146.52 301.42,149.92 299.46,153.33 297.49,156.73 295.53,160.13 293.56,163.54 291.59,166.94 289.63,170.35 287.66,173.75 285.7,177.16 283.73,180.56 281.77,183.96 279.8,187.37" fill="none" stroke="#1a1a1a" stroke-width="0.7" stroke-opacity="0.55" stroke-linecap="round" stroke-linejoin="round" />
  <polyline points="336.15,61.77 334.21,65.13 332.27,68.49 330.33,71.85 328.39,75.21 326.45,78.57 324.51,81.93 322.57,85.29 320.63,88.65 318.69,92.01 316.75,95.37 314.81,98.72 312.88,102.08 310.94,105.44 309,108.8 307.06,112.16 305.12,115.52 303.18,118.88 301.24,122.24 299.3,125.6 297.36,128.96 295.42,132.32 293.48,135.68 291.54,139.03 289.6,142.39 287.66,145.75 285.72,149.11 283.78,152.47 281.85,155.83 279.91,159.19 277.97,162.55 276.03,165.91 274.09,169.27" fill="none" stroke="#1a1a1a" stroke-width="0.7" stroke-opacity="0.55" stroke-linecap="round" stroke-linejoin="round" />
  <polyline points="313.86,72.38 311.88,75.8 309.91,79.23 307.93,82.65 305.95,86.08 303.97,89.51 301.99,92.93 300.01,96.36 298.04,99.79 296.06,103.21 294.08,106.64 292.1,110.07 290.12,113.49 288.14,116.92 286.17,120.35 284.19,123.77 282.21,127.2 280.23,130.62 278.25,134.05 276.28,137.48 274.3,140.9 272.32,144.33" fill="none" stroke="#1a1a1a" stroke-width="0.7" stroke-opacity="0.55" stroke-linecap="round" stroke-linejoin="round" />
  <polyline points="453.22,152.66 453.05,147.13 453.07,141.64 452.58,136.15 452.05,130.62 450.7,125.24 449.3,119.85 447.22,114.69 445.05,109.55 442.28,104.72 439.49,99.9 436.11,95.48 432.64,91.15 428.62,87.32 424.72,83.42 420.6,79.75 416.59,75.92 412.18,72.55 407.71,69.17 402.81,66.47 397.82,63.9 392.51,62.09 387.24,60.15 381.81,58.67 376.34,57.23 370.7,56.72 365.06,56.38 359.43,56.76 353.8,57.08 348.28,58.26 342.84,59.59 337.57,61.51 332.24,63.14 327.04,65.17 321.8,67.18 316.94,69.99 312.14,72.9 307.73,76.37 303.26,79.76 299.28,83.71 295.39,87.76 292.03,92.24 288.66,96.7 285.97,101.6 283.35,106.51 281.32,111.67 279.02,116.7 277.15,121.9 275.33,127.14 274.43,132.59 273.68,138.05 273.53,143.55 273.12,149.01 273.12,154.48 273.1,159.97 273.92,165.38 275.05,170.73 276.9,175.86 278.63,180.99 280.78,185.92 282.93,190.85 285.6,195.49 288.19,200.17 291.16,204.6 294.13,209.14" fill="none" stroke="#1a1a1a" stroke-width="1.7" stroke-linecap="round" stroke-linejoin="round" />
  <polyline points="294.14,208.99 297.54,212.67 300.79,216.42 304.32,219.9 307.87,223.4 311.86,226.36 315.9,229.27 320.23,231.68 324.6,234.03 329.21,235.83 333.81,237.63 338.58,238.89 343.35,240.1 348.24,240.66 353.11,241.17 357.99,241.25 362.85,241.65 367.73,241.69 372.65,241.82 377.57,241.4 382.51,240.9 387.33,239.74 392.13,238.43 396.75,236.57 401.46,234.9 406.03,232.82 410.58,230.65 414.75,227.8 418.85,224.85 422.6,221.45 426.38,218.09 429.7,214.25 432.86,210.34" fill="none" stroke="#1a1a1a" stroke-width="1.53" stroke-opacity="0.32" stroke-dasharray="4,3" stroke-linecap="round" stroke-linejoin="round" />
  <polyline points="431.76,209.44 434.1,206.36 436.48,203.37 438.71,200.24 441,197.12 443.02,193.81 444.98,190.46 446.58,186.9 448.17,183.34 449.44,179.63 450.67,175.92 451.54,172.09 452.41,168.26 452.95,164.37 453.47,160.48 453.65,156.55 453.79,152.61" fill="none" stroke="#1a1a1a" stroke-width="1.7" stroke-linecap="round" stroke-linejoin="round" />
  <polyline points="441.6,377.47 442.3,371.54 443.31,365.64 444.11,359.72 444.61,353.77 445.23,347.83 446.12,341.91 446.99,336 447.72,330.07 448.3,324.13 448.87,318.18 449.37,312.23 449.62,306.25 450.06,300.29 450.93,294.38 451.78,288.46 452.35,282.52 452.92,276.57 453.55,270.63 454.23,264.7 455.17,258.79 456.04,252.88 456.61,246.93 457.14,240.98 457.87,235.05 458.66,229.13 459.14,223.17 459.4,217.2 459.49,211.2 459.58,205.2 460.23,199.27 461.05,193.35" fill="none" stroke="#1a1a1a" stroke-width="1" stroke-linecap="round" stroke-linejoin="round" />
  <polyline points="277.39,377.58 276.84,371.63 276.59,365.65 276.13,359.69 275.36,353.77 274.72,347.83 274.35,341.86 273.97,335.9 273.43,329.95 272.75,324.02 272.07,318.08 271.3,312.16 270.3,306.26 269.48,300.34 269.08,294.37 268.67,288.41 267.98,282.48 267.29,276.55 266.66,270.61 266.08,264.66 265.76,258.69 265.37,252.73 264.68,246.79 263.95,240.86 263.42,234.92 262.95,228.96 262.17,223.04 261.17,217.14 260,211.25 258.82,205.37 258.22,199.43 257.78,193.47" fill="none" stroke="#1a1a1a" stroke-width="1" stroke-linecap="round" stroke-linejoin="round" />
  <polyline points="432.34,401.54 434.21,398.63 436.01,395.67 437.29,392.61 438.56,389.57 439.38,386.5 440.23,383.47 440.73,380.45 441.36,377.39" fill="none" stroke="#1a1a1a" stroke-width="1" stroke-linecap="round" stroke-linejoin="round" />
  <polyline points="442.26,377.53 442.29,374.28 442.22,371.03 441.61,367.86 441.01,364.72 439.97,361.69 439,358.66 437.71,355.71 436.55,352.69 435.03,349.76 433.5,346.81 431.54,344.03 429.54,341.25 427.11,338.72 424.67,336.19 421.95,333.83 419.2,331.48 416.1,329.46 412.95,327.52 409.58,325.81 406.24,324.06 402.69,322.56 399.13,321.1 395.4,319.91 391.72,318.61 386.55,317.37 381.36,316.18 376.17,314.94 370.8,314.32 365.43,313.73 360,313.34 354.59,313.97 349.22,314.55 343.82,314.88 338.58,315.93 333.39,317.08 328.19,318.28 324.47,319.54 320.71,320.68 317.1,322.07 313.52,323.57 310.26,325.51 307.05,327.53 304.11,329.77 301.15,331.96 298.46,334.32 295.7,336.6 293.25,339.07 290.78,341.53 288.61,344.14 286.33,346.69 284.41,349.43 282.57,352.24 281.22,355.25 279.84,358.25 278.9,361.37 277.93,364.51 277.4,367.74 276.91,370.99 277.05,374.3 277.31,377.54" fill="none" stroke="#1a1a1a" stroke-width="0.9" stroke-opacity="0.2" stroke-dasharray="4,3" stroke-linecap="round" stroke-linejoin="round" />
  <polyline points="277.74,377.56 278.8,381.96 280,386.31 282.16,390.5 284.24,394.67 287.11,398.7 289.77,402.89 293.27,406.87 296.84,410.85 301.33,414.38 305.91,417.79 309.45,419.75 312.97,421.72 316.54,423.66 320.55,425.06 324.57,426.41 328.58,427.78 332.87,428.72 337.15,429.66 341.44,430.58 345.9,430.95 350.36,431.41 354.8,431.94 359.3,431.95 363.81,431.93 368.32,431.9 372.76,431.4 377.2,430.97 381.68,430.55 385.95,429.56 390.17,428.47 394.38,427.25 398.23,425.5 402.06,423.81 405.96,422.24 411.2,419.37 416.43,416.44 420.83,412.9 425.25,409.39 428.95,405.61 432.65,401.85" fill="none" stroke="#1a1a1a" stroke-width="1" stroke-linecap="round" stroke-linejoin="round" />
  <polyline points="450.38,214.08 452.82,211.28 455.18,208.41 456.77,205.45 458.35,202.54 459.23,199.63 460.18,196.82 461.16,191.21 461.04,185.55 459.49,179.92 457.99,177.22 456.54,174.48 454.54,171.86 452.48,169.31" fill="none" stroke="#1a1a1a" stroke-width="1" stroke-linecap="round" stroke-linejoin="round" />
  <polyline points="452.3,169.41 448.74,166.42 445.1,163.54 440.7,161.02 436.35,158.48 431.44,156.13 426.64,153.56 421.3,151.24 415.93,148.95 412.02,147.71 408.1,146.54 404.15,145.42 399.99,144.51 395.84,143.59 391.66,142.72 387.31,142.24 382.96,141.81 378.62,141.36 374.19,141.14 369.76,140.93 365.33,140.73 360.89,140.85 356.44,140.89 351.99,140.86 347.57,141.1 343.16,141.38 338.75,141.66 334.43,142.18 330.1,142.61 325.75,143.05 321.58,143.83 317.45,144.7 313.33,145.72 309.47,147.06 305.62,148.34 301.72,149.5 296.31,151.53 290.92,153.62 286.14,156.17 281.34,158.69 277.11,161.38 272.9,164.06" fill="none" stroke="#1a1a1a" stroke-width="0.9" stroke-opacity="0.2" stroke-dasharray="4,3" stroke-linecap="round" stroke-linejoin="round" />
  <polyline points="273.13,164.44 268.88,168.46 265.48,172.79 262.85,177.21 260.82,181.62 259.25,186.02 258.42,190.61 258.56,195.37 259.86,200.18 262.02,205.02 265.32,209.7 267.53,211.91 269.72,214.1 272.34,216.24 274.95,218.38 278.02,220.38 281.1,222.36 284.61,224.21 288.07,226.14 291.93,227.93 295.79,229.71 300.04,231.28 304.29,232.85 309,234.14 313.7,235.5 318.39,236.85 323.13,238.15 328.34,238.86 333.53,239.45 338.73,239.96 343.94,240.5 349.32,240.61 354.7,240.8 360.07,241.01 365.46,241.19 370.78,240.75 376.09,240.29 381.4,239.85 386.72,239.45 391.74,238.62 396.75,237.81 401.74,236.94 406.73,235.91 411.3,234.41 415.83,232.88 420.02,231.16 424.22,229.47 428.05,227.65 431.91,225.88 435.37,223.99 438.84,222.1 441.88,220.09 444.96,218.13 447.65,216.11 450.36,214.1" fill="none" stroke="#1a1a1a" stroke-width="1" stroke-linecap="round" stroke-linejoin="round" />
  <polyline points="367.08,147.6 366.92,153.46 367.08,159.35 366.81,165.2 364.96,170.87 363.92,176.63 363.48,182.46 362.83,188.26 362.43,194.09 361.83,199.9 361.02,205.69 360.12,211.47 359.79,217.31 359.55,223.16 358.81,228.95 357.82,234.72 357.42,240.55 356.48,246.32 355.59,252.1 354.89,257.9 354.42,263.72 353.63,269.51 353.22,275.34 353.25,281.22 353.18,287.09 351.95,292.83 350.64,298.56 349.88,304.35 349.72,310.21 348.96,316 348.03,321.78 347.33,327.57 346.84,333.4 346.56,339.24" fill="none" stroke="#1a1a1a" stroke-width="1.35" stroke-opacity="0.32" stroke-dasharray="4,3" stroke-linecap="round" stroke-linejoin="round" />
  <polyline points="345.85,339.16 345.3,345.11 344.98,351.09 344.76,357.07 344.44,363.05 344.11,369.02 343.59,374.98 342.65,380.88 341.31,386.75 340.07,392.62 339.28,398.54 338.76,404.5 338.23,410.45 337.55,416.38 336.86,422.32 336.27,428.26 335.75,434.22 335.18,440.16 334.52,446.1 333.89,452.04 333.22,457.98 332.4,463.9 331.53,469.81 330.84,475.75 330.3,481.7 329.81,487.65 329.34,493.61 328.88,499.57 328.33,505.52 327.59,511.45 326.67,517.36 325.84,523.28 325.24,529.22 324.72,535.18 324.11,541.12 323.29,547.04 322.43,552.96 321.66,558.88" fill="none" stroke="#1a1a1a" stroke-width="1.5" stroke-linecap="round" stroke-linejoin="round" />
</svg>