<svg xmlns="http://www.w3.org/2000/svg" viewBox="0 0 720 540" width="720" height="540">
  <rect width="720" height="540" fill="#faf9f5" />
  <polyline points="385.55,71.65 389.11,73.32 392.68,74.98 396.24,76.64 399.81,78.3 403.37,79.97 406.94,81.63 410.51,83.29 414.07,84.95 417.64,86.62 421.2,88.28 424.77,89.94 428.33,91.6 431.9,93.27 435.46,94.93 439.03,96.59 442.59,98.25 446.16,99.92 449.72,101.58" fill="none" stroke="#1a1a1a" stroke-width="0.7" stroke-opacity="0.55" stroke-linecap="round" stroke-linejoin="round" />
  <polyline points="348.43,69.79 352.05,71.48 355.67,73.17 359.29,74.85 362.9,76.54 366.52,78.23 370.14,79.92 373.76,81.6 377.38,83.29 381,84.98 384.62,86.67 388.24,88.35 391.85,90.04 395.47,91.73 399.09,93.42 402.71,95.1 406.33,96.79 409.95,98.48 413.57,100.17 417.18,101.85 420.8,103.54 424.42,105.23 428.04,106.91 431.66,108.6 435.28,110.29 438.9,111.98 442.52,113.66 446.13,115.35 449.75,117.04 453.37,118.73 456.99,120.41 460.61,122.1 464.23,123.79 467.85,125.48 471.47,127.16 475.08,128.85" fill="none" stroke="#1a1a1a" stroke-width="0.7" stroke-opacity="0.55" stroke-linecap="round" stroke-linejoin="round" />
  <polyline points="324.2,73.94 327.75,75.6 331.31,77.25 334.86,78.91 338.41,80.57 341.96,82.22 345.51,83.88 349.06,85.53 352.61,87.19 356.16,88.85 359.71,90.5 363.26,92.16 366.82,93.81 370.37,95.47 373.92,97.12 377.47,98.78 381.02,100.44 384.57,102.09 388.12,103.75 391.67,105.4 395.22,107.06" fill="none" stroke="#1a1a1a" stroke-width="0.7" stroke-opacity="0.55" stroke-linecap="round" stroke-linejoin="round" />
  <polyline points="420.08,118.65 423.63,120.31 427.18,121.96 430.73,123.62 434.29,125.27 437.84,126.93 441.39,128.59 444.94,130.24 448.49,131.9 452.04,133.55 455.59,135.21 459.14,136.87 462.69,138.52 466.25,140.18 469.8,141.83 473.35,143.49 476.9,145.14 480.45,146.8 484,148.46 487.55,150.11" fill="none" stroke="#1a1a1a" stroke-width="0.7" stroke-opacity="0.55" stroke-linecap="round" stroke-linejoin="round" />
  <polyline points="305.07,80.47 308.66,82.14 312.24,83.81 315.82,85.48 319.4,87.15 322.98,88.82 326.57,90.49 330.15,92.16 333.73,93.83 337.31,95.5 340.89,97.17 344.48,98.84 348.06,100.51 351.64,102.18 355.22,103.85 358.8,105.52 362.39,107.19 365.97,108.87" fill="none" stroke="#1a1a1a" stroke-width="0.7" stroke-opacity="0.55" stroke-linecap="round" stroke-linejoin="round" />
  <polyline points="441.19,143.94 444.77,145.61 448.36,147.28 451.94,148.95 455.52,150.62 459.1,152.29 462.68,153.96 466.27,155.63 469.85,157.3 473.43,158.98 477.01,160.65 480.59,162.32 484.18,163.99 487.76,165.66 491.34,167.33 494.92,169" fill="none" stroke="#1a1a1a" stroke-width="0.7" stroke-opacity="0.55" stroke-linecap="round" stroke-linejoin="round" />
  <polyline points="289.09,88.47 292.72,90.15 296.34,91.84 299.96,93.53 303.58,95.22 307.2,96.91 310.82,98.6 314.45,100.29 318.07,101.98 321.69,103.66 325.31,105.35 328.93,107.04 332.55,108.73 336.17,110.42 339.8,112.11 343.42,113.8 347.04,115.49 350.66,117.17" fill="none" stroke="#1a1a1a" stroke-width="0.7" stroke-opacity="0.55" stroke-linecap="round" stroke-linejoin="round" />
  <polyline points="441.2,159.39 444.82,161.08 448.44,162.77 452.06,164.46 455.69,166.15 459.31,167.84 462.93,169.53 466.55,171.21 470.17,172.9 473.79,174.59 477.41,176.28 481.04,177.97 484.66,179.66 488.28,181.35 491.9,183.04 495.52,184.72 499.14,186.41" fill="none" stroke="#1a1a1a" stroke-width="0.7" stroke-opacity="0.55" stroke-linecap="round" stroke-linejoin="round" />
  <polyline points="275.42,97.53 279,99.2 282.58,100.87 286.16,102.54 289.74,104.21 293.32,105.88 296.91,107.56 300.49,109.23 304.07,110.9 307.65,112.57 311.23,114.24 314.82,115.91 318.4,117.58 321.98,119.25 325.56,120.92 329.14,122.59 332.72,124.26 336.31,125.93 339.89,127.6" fill="none" stroke="#1a1a1a" stroke-width="0.7" stroke-opacity="0.55" stroke-linecap="round" stroke-linejoin="round" />
  <polyline points="440.18,174.36 443.76,176.03 447.34,177.7 450.92,179.37 454.5,181.04 458.08,182.71 461.67,184.38 465.25,186.05 468.83,187.72 472.41,189.39 475.99,191.06 479.57,192.73 483.16,194.4 486.74,196.07 490.32,197.75 493.9,199.42 497.48,201.09 501.06,202.76" fill="none" stroke="#1a1a1a" stroke-width="0.7" stroke-opacity="0.55" stroke-linecap="round" stroke-linejoin="round" />
  <polyline points="263.58,107.46 267.18,109.14 270.78,110.82 274.38,112.5 277.98,114.18 281.58,115.86 285.18,117.53 288.78,119.21 292.38,120.89 295.98,122.57 299.58,124.25 303.18,125.93 306.78,127.6 310.37,129.28 313.97,130.96 317.57,132.64 321.17,134.32 324.77,136 328.37,137.67 331.97,139.35 335.57,141.03" fill="none" stroke="#1a1a1a" stroke-width="0.7" stroke-opacity="0.55" stroke-linecap="round" stroke-linejoin="round" />
  <polyline points="432.75,186.35 436.35,188.03 439.95,189.7 443.55,191.38 447.15,193.06 450.75,194.74 454.35,196.42 457.95,198.1 461.55,199.78 465.15,201.45 468.74,203.13 472.34,204.81 475.94,206.49 479.54,208.17 483.14,209.85 486.74,211.52 490.34,213.2 493.94,214.88 497.54,216.56 501.14,218.24" fill="none" stroke="#1a1a1a" stroke-width="0.7" stroke-opacity="0.55" stroke-linecap="round" stroke-linejoin="round" />
  <polyline points="253.33,118.13 256.95,119.82 260.57,121.51 264.2,123.2 267.82,124.89 271.44,126.57 275.06,128.26 278.68,129.95 282.31,131.64 285.93,133.33 289.55,135.02 293.17,136.71 296.8,138.4 300.42,140.09 304.04,141.78 307.66,143.47 311.28,145.15 314.91,146.84 318.53,148.53 322.15,150.22 325.77,151.91 329.39,153.6 333.02,155.29 336.64,156.98" fill="none" stroke="#1a1a1a" stroke-width="0.7" stroke-opacity="0.55" stroke-linecap="round" stroke-linejoin="round" />
  <polyline points="419.95,195.82 423.57,197.51 427.19,199.2 430.81,200.89 434.44,202.58 438.06,204.27 441.68,205.96 445.3,207.65 448.92,209.34 452.55,211.03 456.17,212.71 459.79,214.4 463.41,216.09 467.04,217.78 470.66,219.47 474.28,221.16 477.9,222.85 481.52,224.54 485.15,226.23 488.77,227.92 492.39,229.61 496.01,231.29 499.63,232.98" fill="none" stroke="#1a1a1a" stroke-width="0.7" stroke-opacity="0.55" stroke-linecap="round" stroke-linejoin="round" />
  <polyline points="244.49,129.45 248.09,131.14 251.7,132.82 255.3,134.5 258.9,136.18 262.51,137.86 266.11,139.54 269.71,141.22 273.32,142.9 276.92,144.58 280.52,146.26 284.13,147.94 287.73,149.62 291.33,151.3 294.94,152.98 298.54,154.66 302.14,156.34 305.74,158.02 309.35,159.7 312.95,161.38 316.55,163.06 320.16,164.74 323.76,166.42 327.36,168.1 330.97,169.78 334.57,171.46 338.17,173.14 341.78,174.82 345.38,176.5" fill="none" stroke="#1a1a1a" stroke-width="0.7" stroke-opacity="0.55" stroke-linecap="round" stroke-linejoin="round" />
  <polyline points="403.03,203.38 406.64,205.06 410.24,206.74 413.84,208.42 417.44,210.11 421.05,211.79 424.65,213.47 428.25,215.15 431.86,216.83 435.46,218.51 439.06,220.19 442.67,221.87 446.27,223.55 449.87,225.23 453.48,226.91 457.08,228.59 460.68,230.27 464.29,231.95 467.89,233.63 471.49,235.31 475.1,236.99 478.7,238.67 482.3,240.35 485.91,242.03 489.51,243.71 493.11,245.39 496.72,247.07" fill="none" stroke="#1a1a1a" stroke-width="0.7" stroke-opacity="0.55" stroke-linecap="round" stroke-linejoin="round" />
  <polyline points="236.97,141.39 240.56,143.07 244.16,144.75 247.76,146.43 251.36,148.11 254.96,149.78 258.56,151.46 262.16,153.14 265.76,154.82 269.36,156.5 272.95,158.18 276.55,159.85 280.15,161.53 283.75,163.21 287.35,164.89 290.95,166.57 294.55,168.24 298.15,169.92 301.74,171.6 305.34,173.28 308.94,174.96 312.54,176.63 316.14,178.31 319.74,179.99 323.34,181.67 326.94,183.35 330.54,185.03 334.13,186.7 337.73,188.38 341.33,190.06 344.93,191.74 348.53,193.42 352.13,195.09 355.73,196.77 359.33,198.45 362.92,200.13 366.52,201.81 370.12,203.49 373.72,205.16 377.32,206.84 380.92,208.52 384.52,210.2 388.12,211.88 391.72,213.55 395.31,215.23 398.91,216.91 402.51,218.59 406.11,220.27 409.71,221.95 413.31,223.62 416.91,225.3 420.51,226.98 424.1,228.66 427.7,230.34 431.3,232.01 434.9,233.69 438.5,235.37 442.1,237.05 445.7,238.73 449.3,240.4 452.89,242.08 456.49,243.76 460.09,245.44 463.69,247.12 467.29,248.8 470.89,250.47 474.49,252.15 478.09,253.83 481.69,255.51 485.28,257.19 488.88,258.86 492.48,260.54" fill="none" stroke="#1a1a1a" stroke-width="0.7" stroke-opacity="0.55" stroke-linecap="round" stroke-linejoin="round" />
  <polyline points="230.71,153.92 234.32,155.61 237.93,157.29 241.54,158.97 245.14,160.65 248.75,162.34 252.36,164.02 255.97,165.7 259.58,167.39 263.19,169.07 266.8,170.75 270.41,172.44 274.02,174.12 277.63,175.8 281.24,177.49 284.85,179.17 288.46,180.85 292.07,182.54 295.68,184.22 299.29,185.9 302.9,187.59 306.51,189.27 310.12,190.95 313.73,192.63 317.34,194.32 320.94,196 324.55,197.68 328.16,199.37 331.77,201.05 335.38,202.73 338.99,204.42 342.6,206.1 346.21,207.78 349.82,209.47 353.43,211.15 357.04,212.83 360.65,214.52 364.26,216.2 367.87,217.88 371.48,219.56 375.09,221.25 378.7,222.93 382.31,224.61 385.92,226.3 389.53,227.98 393.14,229.66 396.74,231.35 400.35,233.03 403.96,234.71 407.57,236.4 411.18,238.08 414.79,239.76 418.4,241.45 422.01,243.13 425.62,244.81 429.23,246.5 432.84,248.18 436.45,249.86 440.06,251.54 443.67,253.23 447.28,254.91 450.89,256.59 454.5,258.28 458.11,259.96 461.72,261.64 465.33,263.33 468.94,265.01 472.54,266.69 476.15,268.38 479.76,270.06 483.37,271.74 486.98,273.43" fill="none" stroke="#1a1a1a" stroke-width="0.7" stroke-opacity="0.55" stroke-linecap="round" stroke-linejoin="round" />
  <polyline points="225.7,167.04 229.29,168.71 232.87,170.38 236.46,172.05 240.04,173.72 243.63,175.39 247.21,177.07 250.8,178.74 254.38,180.41 257.97,182.08 261.55,183.75 265.14,185.42 268.72,187.1 272.31,188.77 275.89,190.44 279.48,192.11 283.06,193.78 286.64,195.45 290.23,197.13 293.81,198.8 297.4,200.47 300.98,202.14 304.57,203.81 308.15,205.48 311.74,207.16 315.32,208.83 318.91,210.5 322.49,212.17 326.08,213.84 329.66,215.51 333.25,217.19 336.83,218.86 340.42,220.53 344,222.2 347.59,223.87 351.17,225.54 354.76,227.22 358.34,228.89 361.93,230.56 365.51,232.23 369.1,233.9 372.68,235.57 376.27,237.25 379.85,238.92 383.44,240.59 387.02,242.26 390.61,243.93 394.19,245.6 397.78,247.28 401.36,248.95 404.95,250.62 408.53,252.29 412.12,253.96 415.7,255.63 419.29,257.31 422.87,258.98 426.46,260.65 430.04,262.32 433.63,263.99 437.21,265.66 440.8,267.34 444.38,269.01 447.97,270.68 451.55,272.35 455.14,274.02 458.72,275.69 462.31,277.37 465.89,279.04 469.48,280.71 473.06,282.38 476.65,284.05 480.23,285.72" fill="none" stroke="#1a1a1a" stroke-width="0.7" stroke-opacity="0.55" stroke-linecap="round" stroke-linejoin="round" />
  <polyline points="221.98,180.75 225.55,182.41 229.13,184.08 232.7,185.75 236.27,187.41 239.85,189.08 243.42,190.75 247,192.41 250.57,194.08 254.15,195.75 257.72,197.41 261.3,199.08 264.87,200.75 268.45,202.41 272.02,204.08 275.59,205.75 279.17,207.42 282.74,209.08 286.32,210.75 289.89,212.42 293.47,214.08 297.04,215.75 300.62,217.42 304.19,219.08 307.77,220.75 311.34,222.42 314.92,224.08 318.49,225.75 322.06,227.42 325.64,229.08 329.21,230.75 332.79,232.42 336.36,234.09 339.94,235.75 343.51,237.42 347.09,239.09 350.66,240.75 354.24,242.42 357.81,244.09 361.38,245.75 364.96,247.42 368.53,249.09 372.11,250.75 375.68,252.42 379.26,254.09 382.83,255.75 386.41,257.42 389.98,259.09 393.56,260.75 397.13,262.42 400.71,264.09 404.28,265.76 407.85,267.42 411.43,269.09 415,270.76 418.58,272.42 422.15,274.09 425.73,275.76 429.3,277.42 432.88,279.09 436.45,280.76 440.03,282.42 443.6,284.09 447.18,285.76 450.75,287.42 454.32,289.09 457.9,290.76 461.47,292.43 465.05,294.09 468.62,295.76 472.2,297.43" fill="none" stroke="#1a1a1a" stroke-width="0.7" stroke-opacity="0.55" stroke-linecap="round" stroke-linejoin="round" />
  <polyline points="219.6,195.08 223.18,196.75 226.75,198.42 230.33,200.09 233.91,201.76 237.48,203.42 241.06,205.09 244.64,206.76 248.21,208.43 251.79,210.09 255.37,211.76 258.94,213.43 262.52,215.1 266.1,216.77 269.67,218.43 273.25,220.1 276.83,221.77 280.4,223.44 283.98,225.11 287.56,226.77 291.13,228.44 294.71,230.11 298.29,231.78 301.86,233.44 305.44,235.11 309.02,236.78 312.59,238.45 316.17,240.12 319.75,241.78 323.32,243.45 326.9,245.12 330.48,246.79 334.05,248.46 337.63,250.12 341.21,251.79 344.78,253.46 348.36,255.13 351.94,256.79 355.51,258.46 359.09,260.13 362.67,261.8 366.24,263.47 369.82,265.13 373.4,266.8 376.97,268.47 380.55,270.14 384.13,271.81 387.71,273.47 391.28,275.14 394.86,276.81 398.44,278.48 402.01,280.15 405.59,281.81 409.17,283.48 412.74,285.15 416.32,286.82 419.9,288.48 423.47,290.15 427.05,291.82 430.63,293.49 434.2,295.16 437.78,296.82 441.36,298.49 444.93,300.16 448.51,301.83 452.09,303.5 455.66,305.16 459.24,306.83 462.82,308.5" fill="none" stroke="#1a1a1a" stroke-width="0.7" stroke-opacity="0.55" stroke-linecap="round" stroke-linejoin="round" />
  <polyline points="218.69,210.11 222.28,211.78 225.87,213.46 229.46,215.13 233.05,216.8 236.63,218.48 240.22,220.15 243.81,221.82 247.4,223.5 250.99,225.17 254.58,226.84 258.17,228.52 261.76,230.19 265.35,231.86 268.93,233.54 272.52,235.21 276.11,236.88 279.7,238.56 283.29,240.23 286.88,241.9 290.47,243.58 294.06,245.25 297.65,246.93 301.23,248.6 304.82,250.27 308.41,251.95 312,253.62 315.59,255.29 319.18,256.97 322.77,258.64 326.36,260.31 329.95,261.99 333.53,263.66 337.12,265.33 340.71,267.01 344.3,268.68 347.89,270.35 351.48,272.03 355.07,273.7 358.66,275.38 362.24,277.05 365.83,278.72 369.42,280.4 373.01,282.07 376.6,283.74 380.19,285.42 383.78,287.09 387.37,288.76 390.96,290.44 394.54,292.11 398.13,293.78 401.72,295.46 405.31,297.13 408.9,298.8 412.49,300.48 416.08,302.15 419.67,303.82 423.26,305.5 426.84,307.17 430.43,308.85 434.02,310.52 437.61,312.19 441.2,313.87 444.79,315.54 448.38,317.21" fill="none" stroke="#1a1a1a" stroke-width="0.7" stroke-opacity="0.55" stroke-linecap="round" stroke-linejoin="round" />
  <polyline points="219.45,225.91 223.06,227.59 226.66,229.27 230.27,230.95 233.88,232.64 237.48,234.32 241.09,236 244.7,237.68 248.3,239.36 251.91,241.05 255.52,242.73 259.12,244.41 262.73,246.09 266.34,247.77 269.94,249.45 273.55,251.14 277.15,252.82 280.76,254.5 284.37,256.18 287.97,257.86 291.58,259.54 295.19,261.23 298.79,262.91 302.4,264.59 306.01,266.27 309.61,267.95 313.22,269.64 316.83,271.32 320.43,273 324.04,274.68 327.65,276.36 331.25,278.04 334.86,279.73 338.47,281.41 342.07,283.09 345.68,284.77 349.29,286.45 352.89,288.13 356.5,289.82 360.1,291.5 363.71,293.18 367.32,294.86 370.92,296.54 374.53,298.22 378.14,299.91 381.74,301.59 385.35,303.27 388.96,304.95 392.56,306.63 396.17,308.32 399.78,310 403.38,311.68 406.99,313.36 410.6,315.04 414.2,316.72 417.81,318.41 421.42,320.09 425.02,321.77 428.63,323.45 432.24,325.13" fill="none" stroke="#1a1a1a" stroke-width="0.7" stroke-opacity="0.55" stroke-linecap="round" stroke-linejoin="round" />
  <polyline points="222.21,242.64 225.83,244.33 229.45,246.02 233.07,247.71 236.69,249.39 240.31,251.08 243.93,252.77 247.55,254.46 251.17,256.15 254.79,257.83 258.41,259.52 262.03,261.21 265.65,262.9 269.27,264.59 272.89,266.28 276.51,267.96 280.13,269.65 283.75,271.34 287.37,273.03 290.99,274.72 294.61,276.4 298.23,278.09 301.85,279.78 305.47,281.47 309.09,283.16 312.71,284.84 316.33,286.53 319.95,288.22 323.57,289.91 327.19,291.6 330.81,293.29 334.43,294.97 338.05,296.66 341.67,298.35 345.29,300.04 348.91,301.73 352.53,303.41 356.15,305.1 359.77,306.79 363.39,308.48 367.01,310.17 370.63,311.85 374.25,313.54 377.87,315.23 381.49,316.92 385.11,318.61 388.73,320.29 392.35,321.98 395.97,323.67 399.59,325.36 403.21,327.05 406.83,328.74 410.45,330.42 414.07,332.11" fill="none" stroke="#1a1a1a" stroke-width="0.7" stroke-opacity="0.55" stroke-linecap="round" stroke-linejoin="round" />
  <polyline points="227.53,260.57 231.14,262.25 234.74,263.93 238.35,265.62 241.95,267.3 245.56,268.98 249.17,270.66 252.77,272.34 256.38,274.03 259.99,275.71 263.59,277.39 267.2,279.07 270.81,280.75 274.41,282.43 278.02,284.12 281.63,285.8 285.23,287.48 288.84,289.16 292.45,290.84 296.05,292.52 299.66,294.21 303.27,295.89 306.87,297.57 310.48,299.25 314.08,300.93 317.69,302.61 321.3,304.3 324.9,305.98 328.51,307.66 332.12,309.34 335.72,311.02 339.33,312.71 342.94,314.39 346.54,316.07 350.15,317.75 353.76,319.43 357.36,321.11 360.97,322.8 364.58,324.48 368.18,326.16 371.79,327.84 375.4,329.52 379,331.2 382.61,332.89 386.21,334.57 389.82,336.25" fill="none" stroke="#1a1a1a" stroke-width="0.7" stroke-opacity="0.55" stroke-linecap="round" stroke-linejoin="round" />
  <polyline points="236.56,280.23 240.14,281.9 243.72,283.57 247.31,285.24 250.89,286.91 254.47,288.58 258.06,290.25 261.64,291.93 265.23,293.6 268.81,295.27 272.39,296.94 275.98,298.61 279.56,300.28 283.14,301.95 286.73,303.62 290.31,305.29 293.89,306.97 297.48,308.64 301.06,310.31 304.64,311.98 308.23,313.65 311.81,315.32 315.4,316.99 318.98,318.66 322.56,320.33 326.15,322 329.73,323.68 333.31,325.35 336.9,327.02 340.48,328.69 344.06,330.36 347.65,332.03 351.23,333.7 354.82,335.37 358.4,337.04 361.98,338.72" fill="none" stroke="#1a1a1a" stroke-width="0.7" stroke-opacity="0.55" stroke-linecap="round" stroke-linejoin="round" />
  <polyline points="252.29,303.01 255.87,304.68 259.45,306.35 263.02,308.02 266.6,309.68 270.17,311.35 273.75,313.02 277.33,314.69 280.9,316.35 284.48,318.02 288.05,319.69 291.63,321.36 295.21,323.02 298.78,324.69 302.36,326.36 305.93,328.03 309.51,329.69 313.08,331.36 316.66,333.03 320.24,334.7 323.81,336.36" fill="none" stroke="#1a1a1a" stroke-width="0.7" stroke-opacity="0.55" stroke-linecap="round" stroke-linejoin="round" />
  <polyline points="501.19,217.14 499.54,220.68" fill="none" stroke="#1a1a1a" stroke-width="0.7" stroke-opacity="0.55" stroke-linecap="round" stroke-linejoin="round" />
  <polyline points="471.49,280.82 469.84,284.36 468.19,287.9 466.54,291.44 464.89,294.98 463.25,298.51 461.6,302.05 459.95,305.59 458.3,309.13 456.65,312.66" fill="none" stroke="#1a1a1a" stroke-width="0.7" stroke-opacity="0.55" stroke-linecap="round" stroke-linejoin="round" />
  <polyline points="446.36,301.59 444.71,305.14 443.05,308.69 441.39,312.25 439.74,315.8 438.08,319.36 436.42,322.91" fill="none" stroke="#1a1a1a" stroke-width="0.7" stroke-opacity="0.55" stroke-linecap="round" stroke-linejoin="round" />
  <polyline points="426.63,310.77 424.95,314.39 423.26,318 421.58,321.61 419.89,325.23 418.21,328.84 416.52,332.46" fill="none" stroke="#1a1a1a" stroke-width="0.7" stroke-opacity="0.55" stroke-linecap="round" stroke-linejoin="round" />
  <polyline points="408.37,316.82 406.7,320.4 405.03,323.98 403.36,327.56 401.69,331.14 400.02,334.72" fill="none" stroke="#1a1a1a" stroke-width="0.7" stroke-opacity="0.55" stroke-linecap="round" stroke-linejoin="round" />
  <polyline points="391.51,319.84 389.84,323.42 388.17,327.01 386.5,330.59 384.83,334.17 383.16,337.75" fill="none" stroke="#1a1a1a" stroke-width="0.7" stroke-opacity="0.55" stroke-linecap="round" stroke-linejoin="round" />
  <polyline points="375.58,320.88 373.91,324.45 372.25,328.02 370.58,331.6 368.92,335.17 367.25,338.74" fill="none" stroke="#1a1a1a" stroke-width="0.7" stroke-opacity="0.55" stroke-linecap="round" stroke-linejoin="round" />
  <polyline points="360.69,319.69 359,323.31 357.31,326.93 355.62,330.56 353.93,334.18 352.24,337.8" fill="none" stroke="#1a1a1a" stroke-width="0.7" stroke-opacity="0.55" stroke-linecap="round" stroke-linejoin="round" />
  <polyline points="346.3,317.42 344.61,321.04 342.92,324.67 341.23,328.29 339.54,331.92 337.85,335.54" fill="none" stroke="#1a1a1a" stroke-width="0.7" stroke-opacity="0.55" stroke-linecap="round" stroke-linejoin="round" />
  <polyline points="334.06,310.54 332.39,314.12 330.71,317.71 329.04,321.3 327.37,324.89 325.69,328.48 324.02,332.06 322.35,335.65" fill="none" stroke="#1a1a1a" stroke-width="0.7" stroke-opacity="0.55" stroke-linecap="round" stroke-linejoin="round" />
  <polyline points="321.04,305.33 319.36,308.94 317.67,312.56 315.98,316.18 314.3,319.8 312.61,323.41 310.92,327.03 309.23,330.65" fill="none" stroke="#1a1a1a" stroke-width="0.7" stroke-opacity="0.55" stroke-linecap="round" stroke-linejoin="round" />
  <polyline points="308.45,299.21 306.76,302.82 305.08,306.43 303.4,310.04 301.71,313.65 300.03,317.26 298.34,320.88 296.66,324.49 294.98,328.1" fill="none" stroke="#1a1a1a" stroke-width="0.7" stroke-opacity="0.55" stroke-linecap="round" stroke-linejoin="round" />
  <polyline points="296.52,291.67 294.83,295.29 293.14,298.91 291.45,302.53 289.76,306.15 288.08,309.77 286.39,313.39 284.7,317.01 283.01,320.63 281.33,324.25" fill="none" stroke="#1a1a1a" stroke-width="0.7" stroke-opacity="0.55" stroke-linecap="round" stroke-linejoin="round" />
  <polyline points="285.02,283.19 283.35,286.78 281.67,290.37 280,293.96 278.33,297.55 276.65,301.14 274.98,304.73 273.3,308.33 271.63,311.92 269.95,315.51" fill="none" stroke="#1a1a1a" stroke-width="0.7" stroke-opacity="0.55" stroke-linecap="round" stroke-linejoin="round" />
  <polyline points="274.23,273.2 272.57,276.77 270.9,280.34 269.24,283.92 267.57,287.49 265.91,291.06 264.24,294.63 262.58,298.2 260.91,301.77 259.24,305.35 257.58,308.92" fill="none" stroke="#1a1a1a" stroke-width="0.7" stroke-opacity="0.55" stroke-linecap="round" stroke-linejoin="round" />
  <polyline points="264.46,261.03 262.78,264.64 261.09,268.25 259.41,271.87 257.72,275.48 256.04,279.1 254.35,282.71 252.67,286.33 250.98,289.94 249.29,293.56 247.61,297.17" fill="none" stroke="#1a1a1a" stroke-width="0.7" stroke-opacity="0.55" stroke-linecap="round" stroke-linejoin="round" />
  <polyline points="255.28,247.59 253.6,251.19 251.92,254.79 250.25,258.39 248.57,261.99 246.89,265.59 245.21,269.2 243.53,272.8 241.85,276.4 240.17,280 238.49,283.6" fill="none" stroke="#1a1a1a" stroke-width="0.7" stroke-opacity="0.55" stroke-linecap="round" stroke-linejoin="round" />
  <polyline points="247.07,232.08 245.4,235.65 243.74,239.22 242.07,242.79 240.41,246.36 238.74,249.93 237.08,253.5 235.41,257.07 233.75,260.64 232.09,264.21 230.42,267.78" fill="none" stroke="#1a1a1a" stroke-width="0.7" stroke-opacity="0.55" stroke-linecap="round" stroke-linejoin="round" />
  <polyline points="240.33,213.39 238.68,216.94 237.02,220.49 235.37,224.04 233.71,227.6 232.05,231.15 230.4,234.7 228.74,238.25 227.09,241.8 225.43,245.35 223.77,248.9" fill="none" stroke="#1a1a1a" stroke-width="0.7" stroke-opacity="0.55" stroke-linecap="round" stroke-linejoin="round" />
  <polyline points="235.94,189.68 234.29,193.24 232.63,196.79 230.97,200.34 229.32,203.89 227.66,207.44 226,211 224.35,214.55 222.69,218.1 221.04,221.65 219.38,225.2" fill="none" stroke="#1a1a1a" stroke-width="0.7" stroke-opacity="0.55" stroke-linecap="round" stroke-linejoin="round" />
  <polyline points="254.47,116.83 252.84,120.33 251.2,123.83 249.57,127.32 247.94,130.82 246.31,134.31 244.68,137.81 243.05,141.3 241.42,144.8 239.79,148.3 238.16,151.79 236.53,155.29 234.9,158.78 233.27,162.28 231.64,165.77 230.01,169.27 228.38,172.77 226.75,176.26 225.12,179.76 223.49,183.25 221.86,186.75 220.23,190.24" fill="none" stroke="#1a1a1a" stroke-width="0.7" stroke-opacity="0.55" stroke-linecap="round" stroke-linejoin="round" />
  <polyline points="204.74,228 208.74,228 212.73,228 216.72,228" fill="none" stroke="#1a1a1a" stroke-width="0.7" stroke-opacity="0.55" stroke-linecap="round" stroke-linejoin="round" />
  <polyline points="500.33,228 504.32,228 508.32,228 512.31,228 516.31,228 520.3,228 524.3,228" fill="none" stroke="#1a1a1a" stroke-width="0.7" stroke-opacity="0.55" stroke-linecap="round" stroke-linejoin="round" />
  <polyline points="174.27,240 178.26,240 182.25,240 186.23,240 190.22,240 194.2,240 198.19,240 202.18,240 206.16,240 210.15,240 214.14,240 218.12,240" fill="none" stroke="#1a1a1a" stroke-width="0.7" stroke-opacity="0.55" stroke-linecap="round" stroke-linejoin="round" />
  <polyline points="501.15,240 505.13,240 509.12,240 513.1,240 517.09,240 521.08,240 525.06,240 529.05,240 533.04,240 537.02,240 541.01,240 544.99,240 548.98,240 552.97,240 556.95,240 560.94,240 564.93,240 568.91,240 572.9,240 576.89,240" fill="none" stroke="#1a1a1a" stroke-width="0.7" stroke-opacity="0.55" stroke-linecap="round" stroke-linejoin="round" />
  <polyline points="143.8,252 147.79,252 151.77,252 155.75,252 159.73,252 163.71,252 167.69,252 171.67,252 175.65,252 179.63,252 183.61,252 187.59,252 191.58,252 195.56,252 199.54,252 203.52,252 207.5,252 211.48,252 215.46,252 219.44,252 223.42,252" fill="none" stroke="#1a1a1a" stroke-width="0.7" stroke-opacity="0.55" stroke-linecap="round" stroke-linejoin="round" />
  <polyline points="498.1,252 502.08,252 506.06,252 510.05,252 514.03,252 518.01,252 521.99,252 525.97,252 529.95,252 533.93,252 537.91,252 541.89,252 545.87,252 549.85,252 553.84,252 557.82,252 561.8,252 565.78,252 569.76,252 573.74,252 577.72,252 581.7,252 585.68,252 589.66,252 593.64,252 597.63,252 601.61,252 605.59,252 609.57,252 613.55,252 617.53,252 621.51,252 625.49,252 629.47,252" fill="none" stroke="#1a1a1a" stroke-width="0.7" stroke-opacity="0.55" stroke-linecap="round" stroke-linejoin="round" />
  <polyline points="113.34,264 117.33,264 121.33,264 125.33,264 129.32,264 133.32,264 137.32,264 141.31,264 145.31,264 149.31,264 153.3,264 157.3,264 161.3,264 165.29,264 169.29,264 173.29,264 177.28,264 181.28,264 185.28,264 189.27,264 193.27,264 197.27,264 201.26,264 205.26,264 209.26,264 213.25,264 217.25,264 221.25,264 225.24,264" fill="none" stroke="#1a1a1a" stroke-width="0.7" stroke-opacity="0.55" stroke-linecap="round" stroke-linejoin="round" />
  <polyline points="493.02,264 497.01,264 501.01,264 505.01,264 509,264 513,264 517,264 520.99,264 524.99,264 528.99,264 532.98,264 536.98,264 540.98,264 544.97,264 548.97,264 552.97,264 556.96,264 560.96,264 564.96,264 568.95,264 572.95,264 576.95,264 580.94,264 584.94,264 588.94,264 592.93,264 596.93,264 600.93,264 604.92,264 608.92,264 612.92,264 616.91,264 620.91,264 624.91,264 628.9,264 632.9,264 636.9,264 640.89,264 644.89,264 648.89,264 652.88,264 656.88,264 660.88,264 664.87,264" fill="none" stroke="#1a1a1a" stroke-width="0.7" stroke-opacity="0.55" stroke-linecap="round" stroke-linejoin="round" />
  <polyline points="82.87,276 86.85,276 90.83,276 94.81,276 98.8,276 102.78,276 106.76,276 110.74,276 114.73,276 118.71,276 122.69,276 126.67,276 130.65,276 134.64,276 138.62,276 142.6,276 146.58,276 150.57,276 154.55,276 158.53,276 162.51,276 166.49,276 170.48,276 174.46,276 178.44,276 182.42,276 186.4,276 190.39,276 194.37,276 198.35,276 202.33,276 206.32,276 210.3,276 214.28,276 218.26,276 222.24,276 226.23,276 230.21,276 234.19,276" fill="none" stroke="#1a1a1a" stroke-width="0.7" stroke-opacity="0.55" stroke-linecap="round" stroke-linejoin="round" />
  <polyline points="489.05,276 493.03,276 497.01,276 501,276 504.98,276 508.96,276 512.94,276 516.93,276 520.91,276 524.89,276 528.87,276 532.85,276 536.84,276 540.82,276 544.8,276 548.78,276 552.77,276 556.75,276 560.73,276 564.71,276 568.69,276 572.68,276 576.66,276 580.64,276 584.62,276 588.6,276 592.59,276 596.57,276 600.55,276 604.53,276 608.52,276 612.5,276 616.48,276 620.46,276 624.44,276 628.43,276 632.41,276 636.39,276 640.37,276 644.36,276 648.34,276 652.32,276 656.3,276" fill="none" stroke="#1a1a1a" stroke-width="0.7" stroke-opacity="0.55" stroke-linecap="round" stroke-linejoin="round" />
  <polyline points="52.4,288 56.4,288 60.39,288 64.39,288 68.38,288 72.38,288 76.37,288 80.37,288 84.36,288 88.36,288 92.36,288 96.35,288 100.35,288 104.34,288 108.34,288 112.33,288 116.33,288 120.32,288 124.32,288 128.31,288 132.31,288 136.31,288 140.3,288 144.3,288 148.29,288 152.29,288 156.28,288 160.28,288 164.27,288 168.27,288 172.27,288 176.26,288 180.26,288 184.25,288 188.25,288 192.24,288 196.24,288 200.23,288 204.23,288 208.22,288 212.22,288 216.22,288 220.21,288 224.21,288 228.2,288 232.2,288 236.19,288 240.19,288" fill="none" stroke="#1a1a1a" stroke-width="0.7" stroke-opacity="0.55" stroke-linecap="round" stroke-linejoin="round" />
  <polyline points="479.92,288 483.91,288 487.91,288 491.91,288 495.9,288 499.9,288 503.89,288 507.89,288 511.88,288 515.88,288 519.87,288 523.87,288 527.87,288 531.86,288 535.86,288 539.85,288 543.85,288 547.84,288 551.84,288 555.83,288 559.83,288 563.82,288 567.82,288 571.82,288 575.81,288 579.81,288 583.8,288 587.8,288 591.79,288 595.79,288 599.78,288 603.78,288 607.78,288 611.77,288 615.77,288 619.76,288 623.76,288 627.75,288 631.75,288 635.74,288 639.74,288 643.74,288 647.73,288" fill="none" stroke="#1a1a1a" stroke-width="0.7" stroke-opacity="0.55" stroke-linecap="round" stroke-linejoin="round" />
  <polyline points="21.93,300 25.91,300 29.9,300 33.88,300 37.86,300 41.84,300 45.82,300 49.81,300 53.79,300 57.77,300 61.75,300 65.74,300 69.72,300 73.7,300 77.68,300 81.66,300 85.65,300 89.63,300 93.61,300 97.59,300 101.57,300 105.56,300 109.54,300 113.52,300 117.5,300 121.48,300 125.47,300 129.45,300 133.43,300 137.41,300 141.4,300 145.38,300 149.36,300 153.34,300 157.32,300 161.31,300 165.29,300 169.27,300 173.25,300 177.23,300 181.22,300 185.2,300 189.18,300 193.16,300 197.14,300 201.13,300 205.11,300 209.09,300 213.07,300 217.06,300 221.04,300 225.02,300 229,300 232.98,300 236.97,300 240.95,300 244.93,300 248.91,300" fill="none" stroke="#1a1a1a" stroke-width="0.7" stroke-opacity="0.55" stroke-linecap="round" stroke-linejoin="round" />
  <polyline points="471.91,300 475.89,300 479.87,300 483.86,300 487.84,300 491.82,300 495.8,300 499.79,300 503.77,300 507.75,300 511.73,300 515.71,300 519.7,300 523.68,300 527.66,300 531.64,300 535.62,300 539.61,300 543.59,300 547.57,300 551.55,300 555.54,300 559.52,300 563.5,300 567.48,300 571.46,300 575.45,300 579.43,300 583.41,300 587.39,300 591.37,300 595.36,300 599.34,300 603.32,300 607.3,300 611.28,300 615.27,300 619.25,300 623.23,300 627.21,300 631.2,300 635.18,300 639.16,300" fill="none" stroke="#1a1a1a" stroke-width="0.7" stroke-opacity="0.55" stroke-linecap="round" stroke-linejoin="round" />
  <polyline points="11.42,312 15.41,312 19.41,312 23.4,312 27.4,312 31.39,312 35.39,312 39.38,312 43.38,312 47.37,312 51.37,312 55.36,312 59.36,312 63.35,312 67.34,312 71.34,312 75.33,312 79.33,312 83.32,312 87.32,312 91.31,312 95.31,312 99.3,312 103.3,312 107.29,312 111.29,312 115.28,312 119.28,312 123.27,312 127.26,312 131.26,312 135.25,312 139.25,312 143.24,312 147.24,312 151.23,312 155.23,312 159.22,312 163.22,312 167.21,312 171.21,312 175.2,312 179.19,312 183.19,312 187.18,312 191.18,312 195.17,312 199.17,312 203.16,312 207.16,312 211.15,312 215.15,312 219.14,312 223.14,312 227.13,312 231.12,312 235.12,312 239.11,312 243.11,312 247.1,312 251.1,312 255.09,312 259.09,312" fill="none" stroke="#1a1a1a" stroke-width="0.7" stroke-opacity="0.55" stroke-linecap="round" stroke-linejoin="round" />
  <polyline points="462.81,312 466.81,312 470.8,312 474.8,312 478.79,312 482.79,312 486.78,312 490.78,312 494.77,312 498.77,312 502.76,312 506.75,312 510.75,312 514.74,312 518.74,312 522.73,312 526.73,312 530.72,312 534.72,312 538.71,312 542.71,312 546.7,312 550.7,312 554.69,312 558.68,312 562.68,312 566.67,312 570.67,312 574.66,312 578.66,312 582.65,312 586.65,312 590.64,312 594.64,312 598.63,312 602.63,312 606.62,312 610.62,312 614.61,312 618.6,312 622.6,312 626.59,312 630.59,312" fill="none" stroke="#1a1a1a" stroke-width="0.7" stroke-opacity="0.55" stroke-linecap="round" stroke-linejoin="round" />
  <polyline points="37.66,324 41.63,324 45.61,324 49.58,324 53.56,324 57.53,324 61.51,324 65.48,324 69.46,324 73.43,324 77.41,324 81.39,324 85.36,324 89.34,324 93.31,324 97.29,324 101.26,324 105.24,324 109.21,324 113.19,324 117.16,324 121.14,324 125.11,324 129.09,324 133.06,324 137.04,324 141.01,324 144.99,324 148.96,324 152.94,324 156.91,324 160.89,324 164.87,324 168.84,324 172.82,324 176.79,324 180.77,324 184.74,324 188.72,324 192.69,324 196.67,324 200.64,324 204.62,324 208.59,324 212.57,324 216.54,324 220.52,324 224.49,324 228.47,324 232.44,324 236.42,324 240.39,324 244.37,324 248.35,324 252.32,324 256.3,324 260.27,324 264.25,324 268.22,324 272.2,324 276.17,324" fill="none" stroke="#1a1a1a" stroke-width="0.7" stroke-opacity="0.55" stroke-linecap="round" stroke-linejoin="round" />
  <polyline points="443.13,324 447.11,324 451.08,324 455.06,324 459.03,324 463.01,324 466.98,324 470.96,324 474.93,324 478.91,324 482.88,324 486.86,324 490.83,324 494.81,324 498.79,324 502.76,324 506.74,324 510.71,324 514.69,324 518.66,324 522.64,324 526.61,324 530.59,324 534.56,324 538.54,324 542.51,324 546.49,324 550.46,324 554.44,324 558.41,324 562.39,324 566.36,324 570.34,324 574.31,324 578.29,324 582.27,324 586.24,324 590.22,324 594.19,324 598.17,324 602.14,324 606.12,324 610.09,324 614.07,324 618.04,324 622.02,324" fill="none" stroke="#1a1a1a" stroke-width="0.7" stroke-opacity="0.55" stroke-linecap="round" stroke-linejoin="round" />
  <polyline points="55.95,336 59.93,336 63.91,336 67.89,336 71.87,336 75.86,336 79.84,336 83.82,336 87.8,336 91.78,336 95.77,336 99.75,336 103.73,336 107.71,336 111.7,336 115.68,336 119.66,336 123.64,336 127.62,336 131.61,336 135.59,336 139.57,336 143.55,336 147.53,336 151.52,336 155.5,336 159.48,336 163.46,336 167.45,336 171.43,336 175.41,336 179.39,336 183.37,336 187.36,336 191.34,336 195.32,336 199.3,336 203.28,336 207.27,336 211.25,336 215.23,336 219.21,336 223.2,336 227.18,336 231.16,336 235.14,336 239.12,336 243.11,336 247.09,336 251.07,336 255.05,336 259.03,336 263.02,336 267,336 270.98,336 274.96,336 278.95,336 282.93,336 286.91,336 290.89,336 294.87,336 298.86,336 302.84,336 306.82,336 310.8,336 314.79,336 318.77,336" fill="none" stroke="#1a1a1a" stroke-width="0.7" stroke-opacity="0.55" stroke-linecap="round" stroke-linejoin="round" />
  <polyline points="402.39,336 406.37,336 410.36,336 414.34,336 418.32,336 422.3,336 426.29,336 430.27,336 434.25,336 438.23,336 442.21,336 446.2,336 450.18,336 454.16,336 458.14,336 462.12,336 466.11,336 470.09,336 474.07,336 478.05,336 482.04,336 486.02,336 490,336 493.98,336 497.96,336 501.95,336 505.93,336 509.91,336 513.89,336 517.87,336 521.86,336 525.84,336 529.82,336 533.8,336 537.79,336 541.77,336 545.75,336 549.73,336 553.71,336 557.7,336 561.68,336 565.66,336 569.64,336 573.62,336 577.61,336 581.59,336 585.57,336 589.55,336 593.54,336 597.52,336 601.5,336 605.48,336 609.46,336 613.45,336" fill="none" stroke="#1a1a1a" stroke-width="0.7" stroke-opacity="0.55" stroke-linecap="round" stroke-linejoin="round" />
  <polyline points="78.21,348 82.2,348 86.19,348 90.18,348 94.17,348 98.16,348 102.15,348 106.14,348 110.13,348 114.12,348 118.11,348 122.1,348 126.09,348 130.08,348 134.07,348 138.06,348 142.05,348 146.04,348 150.03,348 154.02,348 158.01,348 162,348 165.99,348 169.98,348 173.97,348 177.96,348 181.95,348 185.94,348 189.93,348 193.92,348 197.91,348 201.89,348 205.88,348 209.87,348 213.86,348 217.85,348 221.84,348 225.83,348 229.82,348 233.81,348 237.8,348 241.79,348 245.78,348 249.77,348 253.76,348 257.75,348 261.74,348 265.73,348 269.72,348 273.71,348 277.7,348 281.69,348 285.68,348 289.67,348 293.66,348 297.65,348 301.64,348 305.63,348 309.62,348 313.61,348 317.6,348 321.59,348 325.58,348 329.57,348 333.56,348 337.55,348 341.54,348 345.53,348 349.52,348 353.51,348 357.5,348 361.49,348 365.48,348 369.47,348 373.46,348 377.45,348 381.44,348 385.43,348 389.42,348 393.41,348 397.4,348 401.39,348 405.38,348 409.37,348 413.36,348 417.35,348 421.34,348 425.33,348 429.32,348 433.31,348 437.3,348 441.29,348 445.28,348 449.27,348 453.26,348 457.25,348 461.24,348 465.23,348 469.22,348 473.21,348 477.2,348 481.19,348 485.18,348 489.17,348 493.16,348 497.15,348 501.14,348 505.13,348 509.12,348 513.11,348 517.1,348 521.09,348 525.08,348 529.07,348 533.06,348 537.05,348 541.04,348 545.03,348 549.02,348 553.01,348 557,348 560.99,348 564.98,348 568.97,348 572.96,348 576.95,348 580.94,348 584.93,348 588.92,348 592.91,348 596.9,348 600.89,348 604.88,348" fill="none" stroke="#1a1a1a" stroke-width="0.7" stroke-opacity="0.55" stroke-linecap="round" stroke-linejoin="round" />
  <polyline points="100.47,360 104.47,360 108.47,360 112.47,360 116.47,360 120.46,360 124.46,360 128.46,360 132.46,360 136.46,360 140.46,360 144.46,360 148.45,360 152.45,360 156.45,360 160.45,360 164.45,360 168.45,360 172.45,360 176.45,360 180.44,360 184.44,360 188.44,360 192.44,360 196.44,360 200.44,360 204.44,360 208.43,360 212.43,360 216.43,360 220.43,360 224.43,360 228.43,360 232.43,360 236.42,360 240.42,360 244.42,360 248.42,360 252.42,360 256.42,360 260.42,360 264.42,360 268.41,360 272.41,360 276.41,360 280.41,360 284.41,360 288.41,360 292.41,360 296.4,360 300.4,360 304.4,360 308.4,360 312.4,360 316.4,360 320.4,360 324.4,360 328.39,360 332.39,360 336.39,360 340.39,360 344.39,360 348.39,360 352.39,360 356.38,360 360.38,360 364.38,360 368.38,360 372.38,360 376.38,360 380.38,360 384.38,360 388.37,360 392.37,360 396.37,360 400.37,360 404.37,360 408.37,360 412.37,360 416.36,360 420.36,360 424.36,360 428.36,360 432.36,360 436.36,360 440.36,360 444.36,360 448.35,360 452.35,360 456.35,360 460.35,360 464.35,360 468.35,360 472.35,360 476.34,360 480.34,360 484.34,360 488.34,360 492.34,360 496.34,360 500.34,360 504.34,360 508.33,360 512.33,360 516.33,360 520.33,360 524.33,360 528.33,360 532.33,360 536.32,360 540.32,360 544.32,360 548.32,360 552.32,360 556.32,360 560.32,360 564.31,360 568.31,360 572.31,360 576.31,360 580.31,360 584.31,360 588.31,360 592.31,360 596.3,360" fill="none" stroke="#1a1a1a" stroke-width="0.7" stroke-opacity="0.55" stroke-linecap="round" stroke-linejoin="round" />
  <polyline points="122.73,372 126.71,372 130.68,372 134.66,372 138.63,372 142.61,372 146.58,372 150.55,372 154.53,372 158.5,372 162.48,372 166.45,372 170.43,372 174.4,372 178.37,372 182.35,372 186.32,372 190.3,372 194.27,372 198.25,372 202.22,372 206.19,372 210.17,372 214.14,372 218.12,372 222.09,372 226.07,372 230.04,372 234.02,372 237.99,372 241.96,372 245.94,372 249.91,372 253.89,372 257.86,372 261.84,372 265.81,372 269.78,372 273.76,372 277.73,372 281.71,372 285.68,372 289.66,372 293.63,372 297.61,372 301.58,372 305.55,372 309.53,372 313.5,372 317.48,372 321.45,372 325.43,372 329.4,372 333.37,372 337.35,372 341.32,372 345.3,372 349.27,372 353.25,372 357.22,372 361.19,372 365.17,372 369.14,372 373.12,372 377.09,372 381.07,372 385.04,372 389.02,372 392.99,372 396.96,372 400.94,372 404.91,372 408.89,372 412.86,372 416.84,372 420.81,372 424.78,372 428.76,372 432.73,372 436.71,372 440.68,372 444.66,372 448.63,372 452.6,372 456.58,372 460.55,372 464.53,372 468.5,372 472.48,372 476.45,372 480.43,372 484.4,372 488.37,372 492.35,372 496.32,372 500.3,372 504.27,372 508.25,372 512.22,372 516.19,372 520.17,372 524.14,372 528.12,372 532.09,372 536.07,372 540.04,372 544.02,372 547.99,372 551.96,372 555.94,372 559.91,372 563.89,372 567.86,372 571.84,372 575.81,372 579.78,372 583.76,372 587.73,372" fill="none" stroke="#1a1a1a" stroke-width="0.7" stroke-opacity="0.55" stroke-linecap="round" stroke-linejoin="round" />
  <polyline points="145,384 148.98,384 152.96,384 156.95,384 160.93,384 164.91,384 168.9,384 172.88,384 176.86,384 180.84,384 184.83,384 188.81,384 192.79,384 196.78,384 200.76,384 204.74,384 208.73,384 212.71,384 216.69,384 220.68,384 224.66,384 228.64,384 232.63,384 236.61,384 240.59,384 244.58,384 248.56,384 252.54,384 256.52,384 260.51,384 264.49,384 268.47,384 272.46,384 276.44,384 280.42,384 284.41,384 288.39,384 292.37,384 296.36,384 300.34,384 304.32,384 308.31,384 312.29,384 316.27,384 320.26,384 324.24,384 328.22,384 332.21,384 336.19,384 340.17,384 344.15,384 348.14,384 352.12,384 356.1,384 360.09,384 364.07,384 368.05,384 372.04,384 376.02,384 380,384 383.99,384 387.97,384 391.95,384 395.94,384 399.92,384 403.9,384 407.89,384 411.87,384 415.85,384 419.84,384 423.82,384 427.8,384 431.78,384 435.77,384 439.75,384 443.73,384 447.72,384 451.7,384 455.68,384 459.67,384 463.65,384 467.63,384 471.62,384 475.6,384 479.58,384 483.57,384 487.55,384 491.53,384 495.52,384 499.5,384 503.48,384 507.46,384 511.45,384 515.43,384 519.41,384 523.4,384 527.38,384 531.36,384 535.35,384 539.33,384 543.31,384 547.3,384 551.28,384 555.26,384 559.25,384 563.23,384 567.21,384 571.2,384 575.18,384 579.16,384" fill="none" stroke="#1a1a1a" stroke-width="0.7" stroke-opacity="0.55" stroke-linecap="round" stroke-linejoin="round" />
  <polyline points="167.26,396 171.25,396 175.25,396 179.24,396 183.23,396 187.23,396 191.22,396 195.21,396 199.21,396 203.2,396 207.19,396 211.19,396 215.18,396 219.17,396 223.17,396 227.16,396 231.15,396 235.15,396 239.14,396 243.13,396 247.13,396 251.12,396 255.11,396 259.11,396 263.1,396 267.09,396 271.09,396 275.08,396 279.07,396 283.07,396 287.06,396 291.05,396 295.05,396 299.04,396 303.03,396 307.03,396 311.02,396 315.01,396 319.01,396 323,396 326.99,396 330.99,396 334.98,396 338.97,396 342.97,396 346.96,396 350.95,396 354.95,396 358.94,396 362.93,396 366.93,396 370.92,396 374.91,396 378.91,396 382.9,396 386.9,396 390.89,396 394.88,396 398.88,396 402.87,396 406.86,396 410.86,396 414.85,396 418.84,396 422.84,396 426.83,396 430.82,396 434.82,396 438.81,396 442.8,396 446.8,396 450.79,396 454.78,396 458.78,396 462.77,396 466.76,396 470.76,396 474.75,396 478.74,396 482.74,396 486.73,396 490.72,396 494.72,396 498.71,396 502.7,396 506.7,396 510.69,396 514.68,396 518.68,396 522.67,396 526.66,396 530.66,396 534.65,396 538.64,396 542.64,396 546.63,396 550.62,396 554.62,396 558.61,396 562.6,396 566.6,396 570.59,396" fill="none" stroke="#1a1a1a" stroke-width="0.7" stroke-opacity="0.55" stroke-linecap="round" stroke-linejoin="round" />
  <polyline points="189.52,408 193.48,408 197.45,408 201.41,408 205.37,408 209.34,408 213.3,408 217.26,408 221.22,408 225.19,408 229.15,408 233.11,408 237.07,408 241.04,408 245,408 248.96,408 252.93,408 256.89,408 260.85,408 264.81,408 268.78,408 272.74,408 276.7,408 280.66,408 284.63,408 288.59,408 292.55,408 296.52,408 300.48,408 304.44,408 308.4,408 312.37,408 316.33,408 320.29,408 324.25,408 328.22,408 332.18,408 336.14,408 340.11,408 344.07,408 348.03,408 351.99,408 355.96,408 359.92,408 363.88,408 367.85,408 371.81,408 375.77,408 379.73,408 383.7,408 387.66,408 391.62,408 395.58,408 399.55,408 403.51,408 407.47,408 411.44,408 415.4,408 419.36,408 423.32,408 427.29,408 431.25,408 435.21,408 439.17,408 443.14,408 447.1,408 451.06,408 455.03,408 458.99,408 462.95,408 466.91,408 470.88,408 474.84,408 478.8,408 482.76,408 486.73,408 490.69,408 494.65,408 498.62,408 502.58,408 506.54,408 510.5,408 514.47,408 518.43,408 522.39,408 526.36,408 530.32,408 534.28,408 538.24,408 542.21,408 546.17,408 550.13,408 554.09,408 558.06,408 562.02,408" fill="none" stroke="#1a1a1a" stroke-width="0.7" stroke-opacity="0.55" stroke-linecap="round" stroke-linejoin="round" />
  <polyline points="211.78,420 215.76,420 219.73,420 223.7,420 227.68,420 231.65,420 235.62,420 239.59,420 243.57,420 247.54,420 251.51,420 255.49,420 259.46,420 263.43,420 267.4,420 271.38,420 275.35,420 279.32,420 283.3,420 287.27,420 291.24,420 295.21,420 299.19,420 303.16,420 307.13,420 311.11,420 315.08,420 319.05,420 323.02,420 327,420 330.97,420 334.94,420 338.92,420 342.89,420 346.86,420 350.83,420 354.81,420 358.78,420 362.75,420 366.73,420 370.7,420 374.67,420 378.64,420 382.62,420 386.59,420 390.56,420 394.54,420 398.51,420 402.48,420 406.45,420 410.43,420 414.4,420 418.37,420 422.34,420 426.32,420 430.29,420 434.26,420 438.24,420 442.21,420 446.18,420 450.15,420 454.13,420 458.1,420 462.07,420 466.05,420 470.02,420 473.99,420 477.96,420 481.94,420 485.91,420 489.88,420 493.86,420 497.83,420 501.8,420 505.77,420 509.75,420 513.72,420 517.69,420 521.67,420 525.64,420 529.61,420 533.58,420 537.56,420 541.53,420 545.5,420 549.48,420 553.45,420" fill="none" stroke="#1a1a1a" stroke-width="0.7" stroke-opacity="0.55" stroke-linecap="round" stroke-linejoin="round" />
  <polyline points="234.05,432 238.03,432 242.02,432 246,432 249.99,432 253.97,432 257.96,432 261.94,432 265.93,432 269.91,432 273.9,432 277.88,432 281.87,432 285.85,432 289.84,432 293.82,432 297.81,432 301.79,432 305.78,432 309.76,432 313.75,432 317.73,432 321.72,432 325.7,432 329.69,432 333.67,432 337.66,432 341.64,432 345.63,432 349.61,432 353.6,432 357.58,432 361.57,432 365.55,432 369.54,432 373.52,432 377.51,432 381.49,432 385.48,432 389.46,432 393.45,432 397.43,432 401.42,432 405.4,432 409.39,432 413.37,432 417.36,432 421.34,432 425.33,432 429.31,432 433.3,432 437.28,432 441.27,432 445.25,432 449.24,432 453.22,432 457.21,432 461.19,432 465.18,432 469.16,432 473.15,432 477.13,432 481.12,432 485.1,432 489.09,432 493.07,432 497.06,432 501.04,432 505.03,432 509.01,432 513,432 516.98,432 520.97,432 524.95,432 528.94,432 532.92,432 536.91,432 540.89,432 544.88,432" fill="none" stroke="#1a1a1a" stroke-width="0.7" stroke-opacity="0.55" stroke-linecap="round" stroke-linejoin="round" />
  <polyline points="256.31,444 260.31,444 264.31,444 268.31,444 272.31,444 276.31,444 280.31,444 284.31,444 288.31,444 292.31,444 296.31,444 300.31,444 304.31,444 308.31,444 312.31,444 316.31,444 320.31,444 324.31,444 328.31,444 332.31,444 336.31,444 340.31,444 344.31,444 348.31,444 352.31,444 356.31,444 360.31,444 364.31,444 368.31,444 372.31,444 376.31,444 380.31,444 384.31,444 388.31,444 392.31,444 396.31,444 400.31,444 404.31,444 408.31,444 412.31,444 416.31,444 420.31,444 424.31,444 428.31,444 432.31,444 436.31,444 440.31,444 444.31,444 448.31,444 452.31,444 456.31,444 460.31,444 464.31,444 468.31,444 472.31,444 476.31,444 480.31,444 484.31,444 488.31,444 492.31,444 496.31,444 500.31,444 504.31,444 508.31,444 512.31,444 516.31,444 520.31,444 524.31,444 528.31,444 532.31,444 536.31,444" fill="none" stroke="#1a1a1a" stroke-width="0.7" stroke-opacity="0.55" stroke-linecap="round" stroke-linejoin="round" />
  <polyline points="278.57,456 282.53,456 286.48,456 290.44,456 294.39,456 298.35,456 302.3,456 306.26,456 310.21,456 314.17,456 318.12,456 322.08,456 326.03,456 329.99,456 333.94,456 337.9,456 341.85,456 345.81,456 349.76,456 353.72,456 357.67,456 361.63,456 365.58,456 369.54,456 373.49,456 377.45,456 381.4,456 385.36,456 389.31,456 393.27,456 397.22,456 401.18,456 405.13,456 409.09,456 413.04,456 417,456 420.95,456 424.91,456 428.86,456 432.82,456 436.77,456 440.73,456 444.68,456 448.64,456 452.59,456 456.55,456 460.5,456 464.46,456 468.41,456 472.37,456 476.32,456 480.28,456 484.23,456 488.19,456 492.14,456 496.1,456 500.05,456 504.01,456 507.96,456 511.92,456 515.87,456 519.83,456 523.78,456 527.74,456" fill="none" stroke="#1a1a1a" stroke-width="0.7" stroke-opacity="0.55" stroke-linecap="round" stroke-linejoin="round" />
  <polyline points="300.83,468 304.8,468 308.77,468 312.74,468 316.71,468 320.68,468 324.65,468 328.62,468 332.59,468 336.56,468 340.53,468 344.5,468 348.47,468 352.44,468 356.41,468 360.38,468 364.35,468 368.32,468 372.29,468 376.26,468 380.23,468 384.2,468 388.17,468 392.14,468 396.11,468 400.08,468 404.05,468 408.01,468 411.98,468 415.95,468 419.92,468 423.89,468 427.86,468 431.83,468 435.8,468 439.77,468 443.74,468 447.71,468 451.68,468 455.65,468 459.62,468 463.59,468 467.56,468 471.53,468 475.5,468 479.47,468 483.44,468 487.41,468 491.38,468 495.35,468 499.32,468 503.29,468 507.26,468 511.23,468 515.19,468 519.16,468" fill="none" stroke="#1a1a1a" stroke-width="0.7" stroke-opacity="0.55" stroke-linecap="round" stroke-linejoin="round" />
  <polyline points="323.1,480 327.09,480 331.08,480 335.07,480 339.05,480 343.04,480 347.03,480 351.02,480 355.01,480 359,480 362.99,480 366.98,480 370.97,480 374.96,480 378.95,480 382.94,480 386.93,480 390.92,480 394.9,480 398.89,480 402.88,480 406.87,480 410.86,480 414.85,480 418.84,480 422.83,480 426.82,480 430.81,480 434.8,480 438.79,480 442.78,480 446.77,480 450.75,480 454.74,480 458.73,480 462.72,480 466.71,480 470.7,480 474.69,480 478.68,480 482.67,480 486.66,480 490.65,480 494.64,480 498.63,480 502.62,480 506.6,480 510.59,480" fill="none" stroke="#1a1a1a" stroke-width="0.7" stroke-opacity="0.55" stroke-linecap="round" stroke-linejoin="round" />
  <polyline points="345.36,492 349.28,492 353.19,492 357.11,492 361.03,492 364.94,492 368.86,492 372.78,492 376.69,492 380.61,492 384.53,492 388.44,492 392.36,492 396.28,492 400.19,492 404.11,492 408.03,492 411.94,492 415.86,492 419.77,492 423.69,492 427.61,492 431.52,492 435.44,492 439.36,492 443.27,492 447.19,492 451.11,492 455.02,492 458.94,492 462.86,492 466.77,492 470.69,492 474.61,492 478.52,492 482.44,492 486.36,492 490.27,492 494.19,492 498.11,492 502.02,492" fill="none" stroke="#1a1a1a" stroke-width="0.7" stroke-opacity="0.55" stroke-linecap="round" stroke-linejoin="round" />
  <polyline points="367.62,504 371.56,504 375.49,504 379.42,504 383.35,504 387.28,504 391.22,504 395.15,504 399.08,504 403.01,504 406.94,504 410.88,504 414.81,504 418.74,504 422.67,504 426.61,504 430.54,504 434.47,504 438.4,504 442.33,504 446.27,504 450.2,504 454.13,504 458.06,504 461.99,504 465.93,504 469.86,504 473.79,504 477.72,504 481.66,504 485.59,504 489.52,504 493.45,504" fill="none" stroke="#1a1a1a" stroke-width="0.7" stroke-opacity="0.55" stroke-linecap="round" stroke-linejoin="round" />
  <polyline points="389.89,516 393.84,516 397.8,516 401.76,516 405.72,516 409.68,516 413.63,516 417.59,516 421.55,516 425.51,516 429.47,516 433.42,516 437.38,516 441.34,516 445.3,516 449.26,516 453.22,516 457.17,516 461.13,516 465.09,516 469.05,516 473.01,516 476.96,516 480.92,516 484.88,516" fill="none" stroke="#1a1a1a" stroke-width="0.7" stroke-opacity="0.55" stroke-linecap="round" stroke-linejoin="round" />
  <polyline points="412.15,528 415.92,528 419.7,528 423.47,528 427.24,528 431.02,528 434.79,528 438.57,528 442.34,528 446.12,528 449.89,528 453.66,528 457.44,528 461.21,528 464.99,528 468.76,528 472.54,528 476.31,528" fill="none" stroke="#1a1a1a" stroke-width="0.7" stroke-opacity="0.55" stroke-linecap="round" stroke-linejoin="round" />
  <polyline points="434.41,540 438.11,540 441.82,540 445.52,540 449.22,540 452.93,540 456.63,540 460.33,540 464.04,540 467.74,540" fill="none" stroke="#1a1a1a" stroke-width="0.7" stroke-opacity="0.55" stroke-linecap="round" stroke-linejoin="round" />
  <polyline points="456.67,552 457.92,552 459.17,552" fill="none" stroke="#1a1a1a" stroke-width="0.7" stroke-opacity="0.55" stroke-linecap="round" stroke-linejoin="round" />
  <polyline points="501.12,214.17 500.88,208.39 500.65,202.6 500.42,196.8 499.49,191.06 498.54,185.32 497.56,179.59 495.89,174.01 494.24,168.42 492.62,162.82 490.36,157.43 488.11,152.04 485.85,146.66 482.95,141.58 480.04,136.51 477.12,131.46 473.62,126.81 470.12,122.17 466.62,117.54 462.58,113.39 458.54,109.24 454.5,105.1 449.98,101.51 445.48,97.93 440.98,94.37 436.05,91.4 431.08,88.43 426.07,85.44 420.68,83.08 415.29,80.71 409.94,78.33 404.32,76.62 398.69,74.91 393.07,73.2 387.3,72.19 381.55,71.18 375.84,70.16 370.05,69.85 364.24,69.55 358.41,69.25 352.55,69.68 346.69,70.11 340.85,70.54 335.17,71.69 329.53,72.82 323.92,73.94 318.51,75.76 313.1,77.58 307.65,79.38 302.44,81.86 297.2,84.34 291.94,86.84 287.02,89.99 282.11,93.14 277.21,96.29 272.74,99.99 268.29,103.67 263.84,107.32 259.88,111.48 255.9,115.67 251.9,119.9 248.45,124.61 245.01,129.34 241.56,134.08 238.72,139.18 235.89,144.29 233.06,149.39 230.89,154.8 228.73,160.23 226.57,165.66 225.09,171.29 223.6,176.9 222.09,182.48 221.26,188.14 220.4,193.78 219.53,199.4 219.34,205.06 219.15,210.72 218.96,216.39 219.46,222.05 219.98,227.71 220.5,233.37 221.7,238.91 222.92,244.47 224.16,250.04 226.09,255.43 228.02,260.85 229.94,266.27 232.47,271.4 234.97,276.53 237.46,281.66 240.54,286.43 243.6,291.19 246.65,295.96 250.26,300.3 253.87,304.65 257.51,309.01" fill="none" stroke="#1a1a1a" stroke-width="1.7" stroke-linecap="round" stroke-linejoin="round" />
  <polyline points="257.51,309.01 261,312.34 264.51,315.68 268.04,319.02 271.86,322.01 275.65,325 279.41,327.97 283.4,330.54 287.37,333.06 291.34,335.54 295.54,337.56 299.79,339.57 304.09,341.58 308.61,343.16 313.15,344.75 317.7,346.36 322.37,347.54 327.02,348.72 331.66,349.92 336.37,350.62 341.08,351.31 345.77,351.98 350.53,352.16 355.29,352.34 360.07,352.52 364.86,352.25 369.64,352.02 374.41,351.83 379.13,351.18 383.83,350.54 388.52,349.89 393.1,348.74 397.67,347.56 402.25,346.35 406.68,344.66 411.11,342.97 415.55,341.31 419.81,339.23 424.1,337.17 428.4,335.15 432.49,332.71 436.58,330.28 440.67,327.84 444.47,324.98 448.27,322.12 452.06,319.24 455.51,315.98 458.97,312.71 462.42,309.42" fill="none" stroke="#1a1a1a" stroke-width="1.53" stroke-opacity="0.32" stroke-dasharray="4,3" stroke-linecap="round" stroke-linejoin="round" />
  <polyline points="462.42,309.42 465.25,306.12 468.08,302.82 470.91,299.52 473.43,295.96 475.96,292.41 478.48,288.86 480.65,285.08 482.81,281.3 484.95,277.52 486.73,273.54 488.5,269.56 490.28,265.59 491.71,261.46 493.18,257.33 494.68,253.2 495.82,248.96 496.97,244.71 498.12,240.47 498.85,236.13 499.56,231.79 500.26,227.44 500.55,223.02 500.83,218.6 501.12,214.17" fill="none" stroke="#1a1a1a" stroke-width="1.7" stroke-linecap="round" stroke-linejoin="round" />
  <polyline points="323.65,181.45 318.1,183.66 312.46,185.89 306.81,188.1 301.23,190.29 295.76,192.45 290.37,194.6 284.99,196.75 279.59,198.91 274.16,201.06 268.72,203.17 263.27,205.2 257.81,207.17 252.32,209.2 246.79,211.39 241.27,213.68 235.77,215.93 230.25,218.03 224.64,220.1 219,222.25" fill="none" stroke="#1a1a1a" stroke-width="0.9" stroke-opacity="0.2" stroke-dasharray="4,3" stroke-linecap="round" stroke-linejoin="round" />
  <polyline points="219,222.25 213.37,224.45 207.75,226.63 202.15,228.82 196.59,231.01 191.1,233.25 185.63,235.53 180.15,237.79 174.65,240 169.13,242.15 163.6,244.25 158.08,246.37 152.57,248.52 147.05,250.71 141.52,252.89 136,255.07 130.46,257.25 124.91,259.43 119.35,261.61 113.81,263.79 108.29,265.94 102.78,268.13 97.28,270.37 91.78,272.59 86.56,274.67 81.36,276.7 76.17,278.7 70.98,280.7 65.79,282.7 60.57,284.71 55.3,286.74 50,288.81 44.69,290.91 39.39,293.01 34.11,295.11 28.88,297.19 23.68,299.24 18.5,301.25 13.32,303.24 8.14,305.23 3.68,307.39 6.83,309.16 10.02,310.96 13.17,312.76 17.45,315.22 21.69,317.66 25.94,320.05 30.5,322.54 35.12,324.99 39.74,327.41 44.35,329.8 48.96,332.2 53.55,334.62 58.78,337.42 64.01,340.22 69.25,343.02 74.49,345.83 79.73,348.65 84.99,351.48 90.25,354.31 95.52,357.14 100.8,359.97 106.07,362.79 111.33,365.6 116.57,368.4 121.78,371.2 126.99,374.01 132.2,376.84 137.42,379.65 142.67,382.48 147.94,385.31 153.22,388.16 158.51,391.02 163.79,393.9 169.04,396.81 174.28,399.74 179.52,402.66 184.76,405.57 190.01,408.45 195.26,411.28 200.5,414.08 205.75,416.85 211,419.62 216.25,422.4 221.5,425.2 226.74,428.02 231.96,430.85 237.18,433.69 242.4,436.54 247.61,439.37 252.83,442.2 258.05,445.01 263.29,447.82 268.54,450.64 273.81,453.47 279.07,456.32 284.34,459.19 289.6,462.07 294.85,464.97 300.1,467.87 305.34,470.76 310.59,473.63 315.83,476.48 321.08,479.3 326.32,482.11 331.53,484.91 336.72,487.71 341.92,490.52 347.14,493.34 352.38,496.16 357.67,498.99 363,501.81 368.34,504.64 373.68,507.46 379,510.29 384.28,513.14 389.51,515.99 394.71,518.83 399.9,521.67 404.66,524.25 409.43,526.82 414.21,529.39 419,531.96 423.81,534.53 428.62,537.09 433.45,539.66 437.88,542.02 442.31,544.38 446.74,546.74 451.17,549.1 455.69,551.51 457.96,552.73 458.92,552.86 459.52,552.01 461.88,548.66 464.24,545.3 467.64,540.41 471.05,535.53 474.45,530.64 477.87,525.78 481.29,520.93 484.73,516.1 488.21,511.28 491.7,506.46 495.2,501.64 498.71,496.81 502.15,492.04 505.54,487.25 508.91,482.45 512.26,477.66 515.6,472.9 518.95,468.18 522.31,463.49 525.67,458.81 529.02,454.14 532.36,449.46 535.7,444.78 539.06,440.09 542.45,435.4 545.88,430.69 549.33,425.97 552.8,421.22 556.36,416.33 559.86,411.39 563.3,406.47 566.7,401.55 570.1,396.62 573.51,391.72 576.94,386.86 580.36,382.01 583.76,377.16 587.16,372.27 590.58,367.37 594.04,362.5 597.51,357.68 600.96,352.89 604.42,348.09 607.88,343.27 611.33,338.38 614.72,333.47 618.1,328.57 621.51,323.72 625,318.95 628.3,314.65 631.58,310.34 634.75,305.97 637.86,301.58 641.02,297.26 644.3,292.98 647.63,288.58 650.94,283.99 653.73,279.97 656.47,275.97 659.15,271.99 661.75,268.07 664.13,264.49 666.55,260.97 667.15,260.12 667.44,259.69 666.55,259.35 661.22,258.15 655.96,256.98 650.69,255.82 644.99,254.58 639.29,253.33 633.59,252.06 627.88,250.77 622.14,249.45 616.38,248.12 610.63,246.8 604.87,245.49 599.11,244.19 593.35,242.89 587.58,241.58 581.81,240.25 576.04,238.92 570.27,237.58 564.51,236.25 558.7,234.93 552.87,233.62 547.04,232.32 541.26,231.03 535.53,229.72 529.8,228.41 524.06,227.06 518.32,225.69 512.55,224.33 506.79,222.98 501.03,221.66" fill="none" stroke="#1a1a1a" stroke-width="1" stroke-linecap="round" stroke-linejoin="round" />
  <polyline points="501.03,221.66 495.29,220.35 489.49,219.05 483.64,217.71 477.8,216.37 472.03,215.05 466.33,213.76 460.66,212.48 455,211.19 449.33,209.91 443.67,208.68 437.99,207.49 432.29,206.28 426.52,205.01 420.73,203.65 414.91,202.25 409.09,200.85 403.26,199.48 397.45,198.13 391.71,196.8 386.08,195.48 380.52,194.18 374.97,192.91 369.4,191.62 363.82,190.28 358.2,188.93 352.49,187.6 346.72,186.3 340.92,185.07 335.14,183.87 329.39,182.68 323.65,181.45" fill="none" stroke="#1a1a1a" stroke-width="0.9" stroke-opacity="0.2" stroke-dasharray="4,3" stroke-linecap="round" stroke-linejoin="round" />
  <polyline points="279.04,255.37 274.3,258.03 269.52,260.68 265.48,263.62 261.46,266.53 258.39,269.65 255.39,272.74 253.38,276.03 251.29,279.36 250.28,282.97 249.28,286.69 249.21,290.55 249.74,294.4 250.84,298.17 252.55,301.88 255.27,305.55 258,309.28" fill="none" stroke="#1a1a1a" stroke-width="2.34" stroke-opacity="0.32" stroke-dasharray="4,3" stroke-linecap="round" stroke-linejoin="round" />
  <polyline points="258,309.28 261.53,312.42 265.07,315.49 269.63,318.29 274.17,321.09 277.84,322.83 281.51,324.59 285.17,326.37 289.41,327.93 293.62,329.48 297.82,331 302.5,332.21 307.16,333.39 311.83,334.55 316.89,335.38 321.94,336.21 327,337.05 332.33,337.55 337.68,338.06 343.04,338.6 348.55,338.81 354.08,339.06 359.62,339.34 365.16,339.25 370.7,339.14 376.24,339.01 381.62,338.47 387,337.92 392.39,337.35 397.49,336.42 402.6,335.5 407.73,334.58 412.49,333.36 417.26,332.15 422.03,330.98 426.33,329.54 430.64,328.11 434.96,326.68 438.71,324.98 442.45,323.25 446.17,321.48 450.78,318.51 455.35,315.53 458.88,312.39 462.39,309.29" fill="none" stroke="#1a1a1a" stroke-width="2.6" stroke-linecap="round" stroke-linejoin="round" />
  <polyline points="462.39,309.29 464.31,306.87 466.21,304.45 468.9,299.48 470.57,294.53 471.17,289.68 470.64,284.91 469.2,280.23 467.04,275.81 464.04,271.65 460.05,267.67 457.61,265.77 455.15,263.86 451.23,261.54 447.33,259.2 443.45,256.84 438.83,254.86 434.22,252.88 429.6,250.89 424.38,249.26 419.17,247.6 413.97,245.95 408.36,244.78 402.77,243.64 397.18,242.49 391.27,241.78 385.28,241.04 379.17,240.25 374.44,239.96 369.72,239.64 365.04,239.34 360.42,239.05 355.84,239.15 351.29,239.3 346.77,239.51 342.28,239.76 336.4,240.54 330.55,241.29 324.74,242.02 319.19,243.13 313.67,244.19 308.15,245.21 303.05,246.66 297.99,248.11 292.91,249.56 288.35,251.47 283.73,253.41 279.04,255.37" fill="none" stroke="#1a1a1a" stroke-width="2.34" stroke-opacity="0.32" stroke-dasharray="4,3" stroke-linecap="round" stroke-linejoin="round" />
</svg>