<svg xmlns="http://www.w3.org/2000/svg" viewBox="0 0 720 520" width="720" height="520">
  <rect width="720" height="520" fill="#faf9f5" />
  <polyline points="444.72,351.47 459.6,146.89" fill="none" stroke="#1a1a1a" stroke-width="1.5" stroke-linecap="round" stroke-linejoin="round" />
  <polyline points="275.28,351.47 260.4,146.89" fill="none" stroke="#1a1a1a" stroke-width="1.5" stroke-linecap="round" stroke-linejoin="round" />
  <polyline points="434.18,372.89 438.51,367.73 441.71,362.39 443.77,356.94 444.72,351.47" fill="none" stroke="#1a1a1a" stroke-width="1.5" stroke-linecap="round" stroke-linejoin="round" />
  <polyline points="444.72,351.47 444.6,346.21 443.5,341.05 441.46,336.06 438.56,331.27 434.84,326.74 430.38,322.5 425.24,318.58 419.5,315.02 406.47,309.02 391.85,304.65 376.19,302 360,301.11 343.81,302 328.15,304.65 313.53,309.02 300.5,315.02 294.76,318.58 289.62,322.5 285.16,326.74 281.44,331.27 278.54,336.06 276.5,341.05 275.4,346.21 275.28,351.47" fill="none" stroke="#1a1a1a" stroke-width="1.35" stroke-opacity="0.32" stroke-dasharray="4,3" stroke-linecap="round" stroke-linejoin="round" />
  <polyline points="275.28,351.47 276.78,358.74 280.27,365.91 285.74,372.81 293.17,379.23 302.43,384.97 313.33,389.84 325.59,393.67 338.89,396.3 352.84,397.65 367,397.66 380.95,396.33 394.26,393.7 406.54,389.89 417.45,385.03 426.73,379.3 434.18,372.89" fill="none" stroke="#1a1a1a" stroke-width="1.5" stroke-linecap="round" stroke-linejoin="round" />
  <polyline points="448.03,159.47 452.43,156.79 455.78,154.04 458.08,151.24 459.34,148.43 459.59,145.63 458.87,142.88 457.23,140.2 454.73,137.61 447.33,132.79 437.16,128.54 424.73,124.95 410.5,122.09 394.94,119.99 378.51,118.7 361.62,118.21 344.69,118.54 328.14,119.68 312.39,121.63 297.87,124.34 285.05,127.8 274.41,131.93 266.45,136.65 263.63,139.2 261.65,141.85 260.57,144.57 260.45,147.35 261.32,150.16 263.22,152.97 266.16,155.75 270.16,158.46 281.29,163.54 296.33,167.93 314.72,171.35 335.6,173.56 357.85,174.41 380.22,173.83 401.45,171.87 420.39,168.67 436.13,164.44 448.03,159.47" fill="none" stroke="#1a1a1a" stroke-width="1.5" stroke-linecap="round" stroke-linejoin="round" />
  <polyline points="513.21,189.42 513.26,179.22 511.92,169.11 509.22,159.28 505.21,149.92 499.94,141.2 493.53,133.29 486.09,126.35 477.76,120.49 468.7,115.83 459.08,112.45 449.09,110.42 438.92,109.76 428.74,110.48 418.76,112.56 409.16,115.95 400.1,120.58" fill="none" stroke="#1a1a1a" stroke-width="1.5" stroke-linecap="round" stroke-linejoin="round" />
  <polyline points="400.1,120.58 389.22,128.45 379.91,138.06 372.42,149.09 366.99,161.18 363.74,173.97 362.75,187.06 364.05,200.06 367.58,212.58 373.21,224.25 380.79,234.75 390.08,243.75 400.81,251 412.67,256.27 425.31,259.42 438.37,260.32 451.45,258.93" fill="none" stroke="#1a1a1a" stroke-width="1.35" stroke-opacity="0.32" stroke-dasharray="4,3" stroke-linecap="round" stroke-linejoin="round" />
  <polyline points="451.45,258.93 463.31,255.61 474.54,250.39 484.82,243.4 493.88,234.81 501.44,224.84 507.29,213.75 511.26,201.83 513.21,189.42" fill="none" stroke="#1a1a1a" stroke-width="1.5" stroke-linecap="round" stroke-linejoin="round" />
  <polyline points="364.15,137.15 343.5,292.7" fill="none" stroke="#1a1a1a" stroke-width="1.35" stroke-opacity="0.32" stroke-dasharray="4,3" stroke-linecap="round" stroke-linejoin="round" />
  <polyline points="343.5,292.7 315.95,500.17" fill="none" stroke="#1a1a1a" stroke-width="1.5" stroke-linecap="round" stroke-linejoin="round" />
</svg>