<svg xmlns="http://www.w3.org/2000/svg" viewBox="0 0 1000 320" width="1000" height="320">
  <rect width="1000" height="320" fill="#faf9f5" />
  <polyline points="149.57,54.44 153.15,55.74 156.73,57.04 160.31,58.35 163.89,59.65 167.47,60.95 171.05,62.26 174.63,63.56 178.21,64.86 181.79,66.17 185.37,67.47 188.95,68.77 192.53,70.08 196.11,71.38" fill="none" stroke="#1a1a1a" stroke-width="0.7" stroke-opacity="0.55" stroke-linecap="round" stroke-linejoin="round" />
  <polyline points="117.87,55.58 121.5,56.9 125.14,58.23 128.77,59.55 132.41,60.87 136.05,62.2 139.68,63.52 143.32,64.84 146.95,66.16 150.59,67.49 154.22,68.81 157.86,70.13 161.49,71.46 165.13,72.78 168.76,74.1 172.4,75.43 176.03,76.75 179.67,78.07 183.31,79.4 186.94,80.72" fill="none" stroke="#1a1a1a" stroke-width="0.7" stroke-opacity="0.55" stroke-linecap="round" stroke-linejoin="round" />
  <polyline points="201.48,86.01 205.12,87.34 208.75,88.66 212.39,89.98 216.02,91.3 219.66,92.63" fill="none" stroke="#1a1a1a" stroke-width="0.7" stroke-opacity="0.55" stroke-linecap="round" stroke-linejoin="round" />
  <polyline points="98.45,61.19 102.13,62.53 105.81,63.87 109.49,65.21 113.17,66.55 116.85,67.89 120.53,69.23 124.21,70.56 127.89,71.9 131.57,73.24 135.25,74.58 138.93,75.92 142.61,77.26 146.29,78.6 149.97,79.94 153.65,81.28 157.33,82.62 161.01,83.96 164.69,85.3 168.37,86.64 172.05,87.98" fill="none" stroke="#1a1a1a" stroke-width="0.7" stroke-opacity="0.55" stroke-linecap="round" stroke-linejoin="round" />
  <polyline points="219.89,105.39 223.57,106.73 227.25,108.07 230.93,109.41" fill="none" stroke="#1a1a1a" stroke-width="0.7" stroke-opacity="0.55" stroke-linecap="round" stroke-linejoin="round" />
  <polyline points="83.57,68.45 87.33,69.82 91.09,71.19 94.85,72.56 98.6,73.92 102.36,75.29 106.12,76.66 109.88,78.03 113.64,79.4 117.4,80.76 121.15,82.13 124.91,83.5 128.67,84.87 132.43,86.24 136.19,87.6 139.94,88.97 143.7,90.34 147.46,91.71 151.22,93.07 154.98,94.44 158.74,95.81 162.49,97.18 166.25,98.55 170.01,99.91" fill="none" stroke="#1a1a1a" stroke-width="0.7" stroke-opacity="0.55" stroke-linecap="round" stroke-linejoin="round" />
  <polyline points="226.38,120.43 230.14,121.8 233.9,123.17 237.66,124.54" fill="none" stroke="#1a1a1a" stroke-width="0.7" stroke-opacity="0.55" stroke-linecap="round" stroke-linejoin="round" />
  <polyline points="71.5,76.74 75.19,78.08 78.89,79.43 82.59,80.77 86.29,82.12 89.98,83.47 93.68,84.81 97.38,86.16 101.08,87.5 104.77,88.85 108.47,90.19 112.17,91.54 115.87,92.89 119.56,94.23 123.26,95.58 126.96,96.92 130.66,98.27 134.35,99.62 138.05,100.96 141.75,102.31 145.45,103.65 149.14,105 152.84,106.34 156.54,107.69 160.24,109.04 163.93,110.38 167.63,111.73 171.33,113.07" fill="none" stroke="#1a1a1a" stroke-width="0.7" stroke-opacity="0.55" stroke-linecap="round" stroke-linejoin="round" />
  <polyline points="223.09,131.91 226.79,133.26 230.49,134.61 234.19,135.95 237.88,137.3 241.58,138.64" fill="none" stroke="#1a1a1a" stroke-width="0.7" stroke-opacity="0.55" stroke-linecap="round" stroke-linejoin="round" />
  <polyline points="61.48,85.77 65.19,87.12 68.91,88.47 72.62,89.82 76.34,91.18 80.05,92.53 83.76,93.88 87.48,95.23 91.19,96.58 94.9,97.93 98.62,99.29 102.33,100.64 106.04,101.99 109.76,103.34 113.47,104.69 117.19,106.04 120.9,107.4 124.61,108.75 128.33,110.1 132.04,111.45 135.75,112.8 139.47,114.15 143.18,115.51 146.89,116.86 150.61,118.21 154.32,119.56 158.03,120.91 161.75,122.26 165.46,123.62 169.18,124.97 172.89,126.32 176.6,127.67 180.32,129.02 184.03,130.37 187.74,131.73" fill="none" stroke="#1a1a1a" stroke-width="0.7" stroke-opacity="0.55" stroke-linecap="round" stroke-linejoin="round" />
  <polyline points="210.03,139.84 213.74,141.19 217.45,142.54 221.17,143.89 224.88,145.24 228.59,146.59 232.31,147.95 236.02,149.3 239.73,150.65 243.45,152" fill="none" stroke="#1a1a1a" stroke-width="0.7" stroke-opacity="0.55" stroke-linecap="round" stroke-linejoin="round" />
  <polyline points="53.14,95.41 56.87,96.77 60.61,98.13 64.34,99.49 68.08,100.85 71.81,102.21 75.55,103.57 79.28,104.93 83.02,106.29 86.75,107.65 90.49,109.01 94.23,110.37 97.96,111.73 101.7,113.09 105.43,114.45 109.17,115.8 112.9,117.16 116.64,118.52 120.37,119.88 124.11,121.24 127.84,122.6 131.58,123.96 135.32,125.32 139.05,126.68 142.79,128.04 146.52,129.4 150.26,130.76 153.99,132.12 157.73,133.48 161.46,134.84 165.2,136.2 168.93,137.56 172.67,138.92 176.41,140.28 180.14,141.64 183.88,143 187.61,144.36 191.35,145.72 195.08,147.08 198.82,148.44 202.55,149.79 206.29,151.15 210.02,152.51 213.76,153.87 217.5,155.23 221.23,156.59 224.97,157.95 228.7,159.31 232.44,160.67 236.17,162.03 239.91,163.39 243.64,164.75" fill="none" stroke="#1a1a1a" stroke-width="0.7" stroke-opacity="0.55" stroke-linecap="round" stroke-linejoin="round" />
  <polyline points="46.24,105.58 49.94,106.93 53.65,108.28 57.35,109.62 61.05,110.97 64.75,112.32 68.45,113.66 72.15,115.01 75.85,116.36 79.55,117.7 83.25,119.05 86.95,120.4 90.65,121.74 94.35,123.09 98.06,124.44 101.76,125.79 105.46,127.13 109.16,128.48 112.86,129.83 116.56,131.17 120.26,132.52 123.96,133.87 127.66,135.21 131.36,136.56 135.06,137.91 138.76,139.26 142.46,140.6 146.17,141.95 149.87,143.3 153.57,144.64 157.27,145.99 160.97,147.34 164.67,148.68 168.37,150.03 172.07,151.38 175.77,152.73 179.47,154.07 183.17,155.42 186.87,156.77 190.57,158.11 194.28,159.46 197.98,160.81 201.68,162.15 205.38,163.5 209.08,164.85 212.78,166.2 216.48,167.54 220.18,168.89 223.88,170.24 227.58,171.58 231.28,172.93 234.98,174.28 238.69,175.62 242.39,176.97" fill="none" stroke="#1a1a1a" stroke-width="0.7" stroke-opacity="0.55" stroke-linecap="round" stroke-linejoin="round" />
  <polyline points="40.68,116.24 44.44,117.6 48.2,118.97 51.95,120.34 55.71,121.71 59.47,123.07 63.22,124.44 66.98,125.81 70.74,127.17 74.49,128.54 78.25,129.91 82.01,131.28 85.76,132.64 89.52,134.01 93.28,135.38 97.04,136.75 100.79,138.11 104.55,139.48 108.31,140.85 112.06,142.22 115.82,143.58 119.58,144.95 123.33,146.32 127.09,147.69 130.85,149.05 134.6,150.42 138.36,151.79 142.12,153.16 145.88,154.52 149.63,155.89 153.39,157.26 157.15,158.62 160.9,159.99 164.66,161.36 168.42,162.73 172.17,164.09 175.93,165.46 179.69,166.83 183.44,168.2 187.2,169.56 190.96,170.93 194.72,172.3 198.47,173.67 202.23,175.03 205.99,176.4 209.74,177.77 213.5,179.14 217.26,180.5 221.01,181.87 224.77,183.24 228.53,184.61 232.28,185.97 236.04,187.34 239.8,188.71" fill="none" stroke="#1a1a1a" stroke-width="0.7" stroke-opacity="0.55" stroke-linecap="round" stroke-linejoin="round" />
  <polyline points="36.39,127.35 40.09,128.7 43.78,130.04 47.48,131.39 51.17,132.73 54.87,134.08 58.56,135.42 62.26,136.77 65.95,138.11 69.65,139.46 73.34,140.8 77.04,142.15 80.73,143.49 84.43,144.84 88.13,146.18 91.82,147.53 95.52,148.87 99.21,150.22 102.91,151.56 106.6,152.91 110.3,154.25 113.99,155.6 117.69,156.94 121.38,158.29 125.08,159.63 128.77,160.98 132.47,162.32 136.17,163.67 139.86,165.01 143.56,166.36 147.25,167.7 150.95,169.05 154.64,170.39 158.34,171.74 162.03,173.08 165.73,174.43 169.42,175.77 173.12,177.12 176.81,178.46 180.51,179.81 184.21,181.15 187.9,182.5 191.6,183.84 195.29,185.19 198.99,186.53 202.68,187.88 206.38,189.22 210.07,190.57 213.77,191.91 217.46,193.26 221.16,194.6 224.85,195.95 228.55,197.29 232.24,198.64 235.94,199.98" fill="none" stroke="#1a1a1a" stroke-width="0.7" stroke-opacity="0.55" stroke-linecap="round" stroke-linejoin="round" />
  <polyline points="33.36,138.93 37.09,140.28 40.81,141.64 44.54,143 48.26,144.35 51.99,145.71 55.71,147.06 59.44,148.42 63.17,149.78 66.89,151.13 70.62,152.49 74.34,153.84 78.07,155.2 81.79,156.56 85.52,157.91 89.25,159.27 92.97,160.62 96.7,161.98 100.42,163.34 104.15,164.69 107.87,166.05 111.6,167.4 115.33,168.76 119.05,170.12 122.78,171.47 126.5,172.83 130.23,174.18 133.95,175.54 137.68,176.9 141.4,178.25 145.13,179.61 148.86,180.96 152.58,182.32 156.31,183.68 160.03,185.03 163.76,186.39 167.48,187.74 171.21,189.1 174.94,190.46 178.66,191.81 182.39,193.17 186.11,194.52 189.84,195.88 193.56,197.24 197.29,198.59 201.02,199.95 204.74,201.31 208.47,202.66 212.19,204.02 215.92,205.37 219.64,206.73 223.37,208.09 227.09,209.44 230.82,210.8" fill="none" stroke="#1a1a1a" stroke-width="0.7" stroke-opacity="0.55" stroke-linecap="round" stroke-linejoin="round" />
  <polyline points="31.63,150.98 35.34,152.33 39.05,153.68 42.75,155.03 46.46,156.37 50.17,157.72 53.88,159.07 57.58,160.42 61.29,161.77 65,163.12 68.7,164.47 72.41,165.82 76.12,167.17 79.82,168.52 83.53,169.87 87.24,171.22 90.95,172.57 94.65,173.91 98.36,175.26 102.07,176.61 105.77,177.96 109.48,179.31 113.19,180.66 116.89,182.01 120.6,183.36 124.31,184.71 128.02,186.06 131.72,187.41 135.43,188.76 139.14,190.11 142.84,191.45 146.55,192.8 150.26,194.15 153.96,195.5 157.67,196.85 161.38,198.2 165.09,199.55 168.79,200.9 172.5,202.25 176.21,203.6 179.91,204.95 183.62,206.3 187.33,207.65 191.03,208.99 194.74,210.34 198.45,211.69 202.16,213.04 205.86,214.39 209.57,215.74 213.28,217.09 216.98,218.44 220.69,219.79 224.4,221.14" fill="none" stroke="#1a1a1a" stroke-width="0.7" stroke-opacity="0.55" stroke-linecap="round" stroke-linejoin="round" />
  <polyline points="31.31,163.54 35.01,164.89 38.72,166.24 42.42,167.58 46.13,168.93 49.84,170.28 53.54,171.63 57.25,172.98 60.95,174.33 64.66,175.68 68.36,177.02 72.07,178.37 75.77,179.72 79.48,181.07 83.18,182.42 86.89,183.77 90.59,185.12 94.3,186.46 98,187.81 101.71,189.16 105.41,190.51 109.12,191.86 112.83,193.21 116.53,194.56 120.24,195.9 123.94,197.25 127.65,198.6 131.35,199.95 135.06,201.3 138.76,202.65 142.47,204 146.17,205.35 149.88,206.69 153.58,208.04 157.29,209.39 160.99,210.74 164.7,212.09 168.4,213.44 172.11,214.79 175.81,216.13 179.52,217.48 183.23,218.83 186.93,220.18 190.64,221.53 194.34,222.88 198.05,224.23 201.75,225.57 205.46,226.92 209.16,228.27 212.87,229.62 216.57,230.97" fill="none" stroke="#1a1a1a" stroke-width="0.7" stroke-opacity="0.55" stroke-linecap="round" stroke-linejoin="round" />
  <polyline points="32.57,176.67 36.28,178.03 40,179.38 43.71,180.73 47.43,182.08 51.14,183.43 54.86,184.79 58.57,186.14 62.29,187.49 66,188.84 69.72,190.2 73.43,191.55 77.15,192.9 80.86,194.25 84.57,195.6 88.29,196.96 92,198.31 95.72,199.66 99.43,201.01 103.15,202.36 106.86,203.72 110.58,205.07 114.29,206.42 118.01,207.77 121.72,209.12 125.44,210.48 129.15,211.83 132.87,213.18 136.58,214.53 140.3,215.89 144.01,217.24 147.73,218.59 151.44,219.94 155.16,221.29 158.87,222.65 162.59,224 166.3,225.35 170.02,226.7 173.73,228.05 177.45,229.41 181.16,230.76 184.88,232.11 188.59,233.46 192.31,234.81 196.02,236.17 199.74,237.52 203.45,238.87 207.17,240.22" fill="none" stroke="#1a1a1a" stroke-width="0.7" stroke-opacity="0.55" stroke-linecap="round" stroke-linejoin="round" />
  <polyline points="35.72,190.5 39.45,191.86 43.17,193.21 46.89,194.57 50.62,195.92 54.34,197.28 58.07,198.63 61.79,199.99 65.52,201.35 69.24,202.7 72.96,204.06 76.69,205.41 80.41,206.77 84.14,208.12 87.86,209.48 91.58,210.83 95.31,212.19 99.03,213.54 102.76,214.9 106.48,216.26 110.21,217.61 113.93,218.97 117.65,220.32 121.38,221.68 125.1,223.03 128.83,224.39 132.55,225.74 136.27,227.1 140,228.45 143.72,229.81 147.45,231.17 151.17,232.52 154.89,233.88 158.62,235.23 162.34,236.59 166.07,237.94 169.79,239.3 173.52,240.65 177.24,242.01 180.96,243.37 184.69,244.72 188.41,246.08 192.14,247.43 195.86,248.79" fill="none" stroke="#1a1a1a" stroke-width="0.7" stroke-opacity="0.55" stroke-linecap="round" stroke-linejoin="round" />
  <polyline points="41.36,205.23 45.06,206.58 48.76,207.93 52.47,209.27 56.17,210.62 59.87,211.97 63.58,213.32 67.28,214.67 70.98,216.01 74.69,217.36 78.39,218.71 82.09,220.06 85.8,221.41 89.5,222.75 93.2,224.1 96.9,225.45 100.61,226.8 104.31,228.14 108.01,229.49 111.72,230.84 115.42,232.19 119.12,233.54 122.83,234.88 126.53,236.23 130.23,237.58 133.93,238.93 137.64,240.27 141.34,241.62 145.04,242.97 148.75,244.32 152.45,245.67 156.15,247.01 159.86,248.36 163.56,249.71 167.26,251.06 170.97,252.4 174.67,253.75 178.37,255.1 182.07,256.45" fill="none" stroke="#1a1a1a" stroke-width="0.7" stroke-opacity="0.55" stroke-linecap="round" stroke-linejoin="round" />
  <polyline points="50.73,221.32 54.4,222.66 58.07,223.99 61.75,225.33 65.42,226.67 69.09,228 72.76,229.34 76.43,230.68 80.1,232.01 83.78,233.35 87.45,234.69 91.12,236.02 94.79,237.36 98.46,238.69 102.13,240.03 105.81,241.37 109.48,242.7 113.15,244.04 116.82,245.38 120.49,246.71 124.16,248.05 127.84,249.39 131.51,250.72 135.18,252.06 138.85,253.39 142.52,254.73 146.19,256.07 149.87,257.4 153.54,258.74 157.21,260.08 160.88,261.41 164.55,262.75" fill="none" stroke="#1a1a1a" stroke-width="0.7" stroke-opacity="0.55" stroke-linecap="round" stroke-linejoin="round" />
  <polyline points="67.84,240.23 71.41,241.53 74.98,242.83 78.56,244.13 82.13,245.43 85.7,246.73 89.28,248.03 92.85,249.33 96.42,250.63 99.99,251.93 103.57,253.23 107.14,254.53 110.71,255.83 114.29,257.13 117.86,258.43 121.43,259.73 125,261.03 128.58,262.33 132.15,263.63 135.72,264.93 139.3,266.23" fill="none" stroke="#1a1a1a" stroke-width="0.7" stroke-opacity="0.55" stroke-linecap="round" stroke-linejoin="round" />
  <polyline points="415.76,57.58 418.94,58.74 422.13,59.9 425.32,61.06 428.5,62.22 431.69,63.38" fill="none" stroke="#1a1a1a" stroke-width="0.7" stroke-opacity="0.55" stroke-linecap="round" stroke-linejoin="round" />
  <polyline points="375.06,54.48 378.8,55.84 382.54,57.2 386.28,58.57 390.02,59.93 393.77,61.29 397.51,62.65 401.25,64.01 404.99,65.38 408.73,66.74 412.47,68.1 416.22,69.46 419.96,70.82 423.7,72.19 427.44,73.55 431.18,74.91 434.92,76.27 438.67,77.63 442.41,78.99 446.15,80.36 449.89,81.72 453.63,83.08 457.37,84.44 461.12,85.8 464.86,87.17" fill="none" stroke="#1a1a1a" stroke-width="0.7" stroke-opacity="0.55" stroke-linecap="round" stroke-linejoin="round" />
  <polyline points="354.92,58.87 358.63,60.22 362.34,61.57 366.06,62.92 369.77,64.28 373.49,65.63 377.2,66.98 380.91,68.33 384.63,69.68 388.34,71.03 392.05,72.39 395.77,73.74 399.48,75.09 403.19,76.44 406.91,77.79 410.62,79.14 414.33,80.5 418.05,81.85 421.76,83.2 425.48,84.55" fill="none" stroke="#1a1a1a" stroke-width="0.7" stroke-opacity="0.55" stroke-linecap="round" stroke-linejoin="round" />
  <polyline points="466.32,99.42 470.04,100.77 473.75,102.12 477.47,103.47" fill="none" stroke="#1a1a1a" stroke-width="0.7" stroke-opacity="0.55" stroke-linecap="round" stroke-linejoin="round" />
  <polyline points="339.77,65.07 343.5,66.43 347.22,67.79 350.95,69.14 354.67,70.5 358.4,71.85 362.13,73.21 365.85,74.57 369.58,75.92 373.3,77.28 377.03,78.64 380.75,79.99 384.48,81.35 388.21,82.7 391.93,84.06 395.66,85.42 399.38,86.77 403.11,88.13 406.84,89.48 410.56,90.84 414.29,92.2 418.01,93.55" fill="none" stroke="#1a1a1a" stroke-width="0.7" stroke-opacity="0.55" stroke-linecap="round" stroke-linejoin="round" />
  <polyline points="473.9,113.89 477.63,115.25 481.35,116.61 485.08,117.96" fill="none" stroke="#1a1a1a" stroke-width="0.7" stroke-opacity="0.55" stroke-linecap="round" stroke-linejoin="round" />
  <polyline points="327.49,72.32 331.18,73.66 334.87,75.01 338.56,76.35 342.25,77.69 345.93,79.04 349.62,80.38 353.31,81.72 357,83.07 360.69,84.41 364.38,85.75 368.07,87.09 371.76,88.44 375.45,89.78 379.14,91.12 382.83,92.47 386.52,93.81 390.21,95.15 393.9,96.49 397.59,97.84 401.28,99.18 404.97,100.52 408.66,101.87 412.35,103.21 416.04,104.55 419.73,105.9" fill="none" stroke="#1a1a1a" stroke-width="0.7" stroke-opacity="0.55" stroke-linecap="round" stroke-linejoin="round" />
  <polyline points="475.07,126.04 478.76,127.38 482.45,128.72 486.14,130.07 489.83,131.41" fill="none" stroke="#1a1a1a" stroke-width="0.7" stroke-opacity="0.55" stroke-linecap="round" stroke-linejoin="round" />
  <polyline points="317.23,80.31 320.96,81.66 324.69,83.02 328.42,84.38 332.15,85.74 335.88,87.1 339.61,88.45 343.34,89.81 347.07,91.17 350.8,92.53 354.53,93.88 358.26,95.24 361.99,96.6 365.72,97.96 369.45,99.32 373.18,100.67 376.91,102.03 380.65,103.39 384.38,104.75 388.11,106.1 391.84,107.46 395.57,108.82 399.3,110.18 403.03,111.53 406.76,112.89 410.49,114.25 414.22,115.61 417.95,116.97 421.68,118.32 425.41,119.68" fill="none" stroke="#1a1a1a" stroke-width="0.7" stroke-opacity="0.55" stroke-linecap="round" stroke-linejoin="round" />
  <polyline points="470.17,135.97 473.9,137.33 477.64,138.69 481.37,140.05 485.1,141.41 488.83,142.76 492.56,144.12" fill="none" stroke="#1a1a1a" stroke-width="0.7" stroke-opacity="0.55" stroke-linecap="round" stroke-linejoin="round" />
  <polyline points="308.57,88.87 312.27,90.22 315.97,91.57 319.68,92.92 323.38,94.26 327.08,95.61 330.78,96.96 334.49,98.31 338.19,99.65 341.89,101 345.59,102.35 349.29,103.7 353,105.04 356.7,106.39 360.4,107.74 364.1,109.09 367.81,110.43 371.51,111.78 375.21,113.13 378.91,114.48 382.62,115.82 386.32,117.17 390.02,118.52 393.72,119.87 397.42,121.21 401.13,122.56 404.83,123.91 408.53,125.26 412.23,126.6 415.94,127.95 419.64,129.3 423.34,130.65 427.04,131.99 430.74,133.34 434.45,134.69 438.15,136.04 441.85,137.38 445.55,138.73 449.26,140.08 452.96,141.43 456.66,142.77 460.36,144.12 464.07,145.47 467.77,146.82 471.47,148.16 475.17,149.51 478.87,150.86 482.58,152.21 486.28,153.55 489.98,154.9 493.68,156.25" fill="none" stroke="#1a1a1a" stroke-width="0.7" stroke-opacity="0.55" stroke-linecap="round" stroke-linejoin="round" />
  <polyline points="301.26,97.93 304.96,99.28 308.66,100.62 312.35,101.97 316.05,103.31 319.74,104.66 323.44,106 327.14,107.35 330.83,108.69 334.53,110.04 338.22,111.39 341.92,112.73 345.62,114.08 349.31,115.42 353.01,116.77 356.7,118.11 360.4,119.46 364.1,120.8 367.79,122.15 371.49,123.49 375.18,124.84 378.88,126.18 382.58,127.53 386.27,128.87 389.97,130.22 393.66,131.56 397.36,132.91 401.06,134.25 404.75,135.6 408.45,136.94 412.14,138.29 415.84,139.64 419.54,140.98 423.23,142.33 426.93,143.67 430.62,145.02 434.32,146.36 438.02,147.71 441.71,149.05 445.41,150.4 449.1,151.74 452.8,153.09 456.5,154.43 460.19,155.78 463.89,157.12 467.58,158.47 471.28,159.81 474.98,161.16 478.67,162.5 482.37,163.85 486.06,165.19 489.76,166.54 493.46,167.89" fill="none" stroke="#1a1a1a" stroke-width="0.7" stroke-opacity="0.55" stroke-linecap="round" stroke-linejoin="round" />
  <polyline points="295.17,107.43 298.88,108.78 302.59,110.14 306.31,111.49 310.02,112.84 313.74,114.19 317.45,115.54 321.17,116.89 324.88,118.25 328.59,119.6 332.31,120.95 336.02,122.3 339.74,123.65 343.45,125.01 347.17,126.36 350.88,127.71 354.59,129.06 358.31,130.41 362.02,131.77 365.74,133.12 369.45,134.47 373.17,135.82 376.88,137.17 380.59,138.52 384.31,139.88 388.02,141.23 391.74,142.58 395.45,143.93 399.17,145.28 402.88,146.64 406.59,147.99 410.31,149.34 414.02,150.69 417.74,152.04 421.45,153.4 425.17,154.75 428.88,156.1 432.59,157.45 436.31,158.8 440.02,160.16 443.74,161.51 447.45,162.86 451.17,164.21 454.88,165.56 458.59,166.91 462.31,168.27 466.02,169.62 469.74,170.97 473.45,172.32 477.17,173.67 480.88,175.03 484.59,176.38 488.31,177.73 492.02,179.08" fill="none" stroke="#1a1a1a" stroke-width="0.7" stroke-opacity="0.55" stroke-linecap="round" stroke-linejoin="round" />
  <polyline points="290.19,117.34 293.88,118.68 297.57,120.03 301.26,121.37 304.95,122.71 308.64,124.05 312.33,125.4 316.02,126.74 319.71,128.08 323.4,129.43 327.09,130.77 330.78,132.11 334.47,133.46 338.16,134.8 341.85,136.14 345.54,137.49 349.23,138.83 352.93,140.17 356.62,141.52 360.31,142.86 364,144.2 367.69,145.55 371.38,146.89 375.07,148.23 378.76,149.57 382.45,150.92 386.14,152.26 389.83,153.6 393.52,154.95 397.21,156.29 400.9,157.63 404.59,158.98 408.28,160.32 411.97,161.66 415.66,163.01 419.35,164.35 423.04,165.69 426.73,167.04 430.42,168.38 434.11,169.72 437.8,171.07 441.49,172.41 445.18,173.75 448.87,175.09 452.56,176.44 456.25,177.78 459.94,179.12 463.63,180.47 467.32,181.81 471.01,183.15 474.7,184.5 478.39,185.84 482.08,187.18 485.77,188.53 489.47,189.87" fill="none" stroke="#1a1a1a" stroke-width="0.7" stroke-opacity="0.55" stroke-linecap="round" stroke-linejoin="round" />
  <polyline points="286.3,127.64 289.99,128.99 293.69,130.33 297.38,131.68 301.08,133.02 304.77,134.36 308.47,135.71 312.16,137.05 315.86,138.4 319.55,139.74 323.25,141.09 326.94,142.43 330.64,143.78 334.33,145.12 338.03,146.47 341.72,147.81 345.42,149.16 349.11,150.5 352.81,151.85 356.5,153.19 360.2,154.54 363.89,155.88 367.59,157.23 371.28,158.57 374.98,159.92 378.67,161.26 382.37,162.61 386.06,163.95 389.76,165.3 393.45,166.64 397.15,167.99 400.84,169.33 404.54,170.68 408.23,172.02 411.93,173.37 415.62,174.71 419.32,176.06 423.01,177.4 426.71,178.75 430.4,180.09 434.1,181.43 437.79,182.78 441.49,184.12 445.18,185.47 448.88,186.81 452.57,188.16 456.27,189.5 459.96,190.85 463.66,192.19 467.35,193.54 471.05,194.88 474.74,196.23 478.44,197.57 482.13,198.92 485.83,200.26" fill="none" stroke="#1a1a1a" stroke-width="0.7" stroke-opacity="0.55" stroke-linecap="round" stroke-linejoin="round" />
  <polyline points="283.48,138.33 287.21,139.69 290.94,141.05 294.67,142.41 298.4,143.76 302.13,145.12 305.86,146.48 309.58,147.83 313.31,149.19 317.04,150.55 320.77,151.91 324.5,153.26 328.23,154.62 331.96,155.98 335.69,157.33 339.41,158.69 343.14,160.05 346.87,161.41 350.6,162.76 354.33,164.12 358.06,165.48 361.79,166.83 365.52,168.19 369.24,169.55 372.97,170.91 376.7,172.26 380.43,173.62 384.16,174.98 387.89,176.34 391.62,177.69 395.35,179.05 399.08,180.41 402.8,181.76 406.53,183.12 410.26,184.48 413.99,185.84 417.72,187.19 421.45,188.55 425.18,189.91 428.91,191.26 432.63,192.62 436.36,193.98 440.09,195.34 443.82,196.69 447.55,198.05 451.28,199.41 455.01,200.76 458.74,202.12 462.46,203.48 466.19,204.84 469.92,206.19 473.65,207.55 477.38,208.91 481.11,210.26" fill="none" stroke="#1a1a1a" stroke-width="0.7" stroke-opacity="0.55" stroke-linecap="round" stroke-linejoin="round" />
  <polyline points="281.78,149.43 285.5,150.79 289.22,152.14 292.94,153.5 296.66,154.85 300.38,156.2 304.1,157.56 307.83,158.91 311.55,160.27 315.27,161.62 318.99,162.98 322.71,164.33 326.43,165.68 330.15,167.04 333.87,168.39 337.6,169.75 341.32,171.1 345.04,172.46 348.76,173.81 352.48,175.17 356.2,176.52 359.92,177.87 363.64,179.23 367.37,180.58 371.09,181.94 374.81,183.29 378.53,184.65 382.25,186 385.97,187.36 389.69,188.71 393.41,190.06 397.14,191.42 400.86,192.77 404.58,194.13 408.3,195.48 412.02,196.84 415.74,198.19 419.46,199.55 423.18,200.9 426.91,202.25 430.63,203.61 434.35,204.96 438.07,206.32 441.79,207.67 445.51,209.03 449.23,210.38 452.95,211.74 456.68,213.09 460.4,214.44 464.12,215.8 467.84,217.15 471.56,218.51 475.28,219.86" fill="none" stroke="#1a1a1a" stroke-width="0.7" stroke-opacity="0.55" stroke-linecap="round" stroke-linejoin="round" />
  <polyline points="281.25,160.96 284.99,162.32 288.74,163.68 292.48,165.04 296.22,166.41 299.96,167.77 303.7,169.13 307.44,170.49 311.18,171.85 314.92,173.21 318.66,174.57 322.4,175.94 326.14,177.3 329.88,178.66 333.62,180.02 337.36,181.38 341.1,182.74 344.84,184.1 348.58,185.46 352.32,186.83 356.06,188.19 359.8,189.55 363.54,190.91 367.28,192.27 371.02,193.63 374.76,194.99 378.5,196.36 382.24,197.72 385.98,199.08 389.72,200.44 393.46,201.8 397.21,203.16 400.95,204.52 404.69,205.89 408.43,207.25 412.17,208.61 415.91,209.97 419.65,211.33 423.39,212.69 427.13,214.05 430.87,215.42 434.61,216.78 438.35,218.14 442.09,219.5 445.83,220.86 449.57,222.22 453.31,223.58 457.05,224.94 460.79,226.31 464.53,227.67 468.27,229.03" fill="none" stroke="#1a1a1a" stroke-width="0.7" stroke-opacity="0.55" stroke-linecap="round" stroke-linejoin="round" />
  <polyline points="282.04,172.97 285.75,174.31 289.46,175.66 293.16,177.01 296.87,178.36 300.58,179.71 304.28,181.06 307.99,182.41 311.7,183.76 315.4,185.11 319.11,186.46 322.81,187.8 326.52,189.15 330.23,190.5 333.93,191.85 337.64,193.2 341.35,194.55 345.05,195.9 348.76,197.25 352.47,198.6 356.17,199.95 359.88,201.29 363.58,202.64 367.29,203.99 371,205.34 374.7,206.69 378.41,208.04 382.12,209.39 385.82,210.74 389.53,212.09 393.24,213.44 396.94,214.79 400.65,216.13 404.35,217.48 408.06,218.83 411.77,220.18 415.47,221.53 419.18,222.88 422.89,224.23 426.59,225.58 430.3,226.93 434.01,228.28 437.71,229.62 441.42,230.97 445.12,232.32 448.83,233.67 452.54,235.02 456.24,236.37 459.95,237.72" fill="none" stroke="#1a1a1a" stroke-width="0.7" stroke-opacity="0.55" stroke-linecap="round" stroke-linejoin="round" />
  <polyline points="284.36,185.53 288.05,186.87 291.73,188.21 295.41,189.55 299.09,190.89 302.78,192.23 306.46,193.57 310.14,194.91 313.83,196.25 317.51,197.59 321.19,198.93 324.88,200.27 328.56,201.61 332.24,202.95 335.92,204.3 339.61,205.64 343.29,206.98 346.97,208.32 350.66,209.66 354.34,211 358.02,212.34 361.71,213.68 365.39,215.02 369.07,216.36 372.76,217.7 376.44,219.04 380.12,220.38 383.8,221.72 387.49,223.06 391.17,224.4 394.85,225.74 398.54,227.08 402.22,228.42 405.9,229.76 409.59,231.11 413.27,232.45 416.95,233.79 420.63,235.13 424.32,236.47 428,237.81 431.68,239.15 435.37,240.49 439.05,241.83 442.73,243.17 446.42,244.51 450.1,245.85" fill="none" stroke="#1a1a1a" stroke-width="0.7" stroke-opacity="0.55" stroke-linecap="round" stroke-linejoin="round" />
  <polyline points="288.58,198.78 292.32,200.14 296.07,201.51 299.81,202.87 303.56,204.23 307.3,205.6 311.05,206.96 314.79,208.32 318.53,209.68 322.28,211.05 326.02,212.41 329.77,213.77 333.51,215.13 337.26,216.5 341,217.86 344.74,219.22 348.49,220.59 352.23,221.95 355.98,223.31 359.72,224.67 363.46,226.04 367.21,227.4 370.95,228.76 374.7,230.13 378.44,231.49 382.19,232.85 385.93,234.21 389.67,235.58 393.42,236.94 397.16,238.3 400.91,239.66 404.65,241.03 408.39,242.39 412.14,243.75 415.88,245.12 419.63,246.48 423.37,247.84 427.12,249.2 430.86,250.57 434.6,251.93 438.35,253.29" fill="none" stroke="#1a1a1a" stroke-width="0.7" stroke-opacity="0.55" stroke-linecap="round" stroke-linejoin="round" />
  <polyline points="295.4,212.98 299.08,214.32 302.75,215.66 306.43,216.99 310.1,218.33 313.77,219.67 317.45,221.01 321.12,222.34 324.8,223.68 328.47,225.02 332.14,226.36 335.82,227.69 339.49,229.03 343.17,230.37 346.84,231.7 350.51,233.04 354.19,234.38 357.86,235.72 361.54,237.05 365.21,238.39 368.88,239.73 372.56,241.07 376.23,242.4 379.91,243.74 383.58,245.08 387.25,246.41 390.93,247.75 394.6,249.09 398.28,250.43 401.95,251.76 405.62,253.1 409.3,254.44 412.97,255.77 416.65,257.11 420.32,258.45 423.99,259.79" fill="none" stroke="#1a1a1a" stroke-width="0.7" stroke-opacity="0.55" stroke-linecap="round" stroke-linejoin="round" />
  <polyline points="306.47,228.73 310.14,230.06 313.8,231.4 317.47,232.73 321.13,234.07 324.79,235.4 328.46,236.73 332.12,238.07 335.78,239.4 339.45,240.73 343.11,242.07 346.77,243.4 350.44,244.73 354.1,246.07 357.76,247.4 361.43,248.73 365.09,250.07 368.75,251.4 372.42,252.73 376.08,254.07 379.74,255.4 383.41,256.73 387.07,258.07 390.74,259.4 394.4,260.73 398.06,262.07 401.73,263.4 405.39,264.73" fill="none" stroke="#1a1a1a" stroke-width="0.7" stroke-opacity="0.55" stroke-linecap="round" stroke-linejoin="round" />
  <polyline points="328.84,248.59 332.43,249.9 336.02,251.2 339.61,252.51 343.2,253.81 346.78,255.12 350.37,256.43 353.96,257.73 357.55,259.04 361.14,260.34 364.72,261.65 368.31,262.96 371.9,264.26 375.49,265.57" fill="none" stroke="#1a1a1a" stroke-width="0.7" stroke-opacity="0.55" stroke-linecap="round" stroke-linejoin="round" />
  <polyline points="473.51,212.24 472.17,215.94 470.82,219.64 469.47,223.34 468.13,227.04 466.78,230.73" fill="none" stroke="#1a1a1a" stroke-width="0.7" stroke-opacity="0.55" stroke-linecap="round" stroke-linejoin="round" />
  <polyline points="459.96,217.27 458.64,220.91 457.32,224.55 455.99,228.19 454.67,231.83 453.34,235.46 452.02,239.1 450.69,242.74 449.37,246.38" fill="none" stroke="#1a1a1a" stroke-width="0.7" stroke-opacity="0.55" stroke-linecap="round" stroke-linejoin="round" />
  <polyline points="447.99,217.98 446.63,221.72 445.27,225.45 443.91,229.19 442.55,232.93 441.19,236.66 439.83,240.4 438.47,244.14 437.11,247.87 435.75,251.61 434.39,255.34" fill="none" stroke="#1a1a1a" stroke-width="0.7" stroke-opacity="0.55" stroke-linecap="round" stroke-linejoin="round" />
  <polyline points="436.95,216.1 435.59,219.84 434.23,223.57 432.87,227.31 431.51,231.05 430.15,234.79 428.79,238.53 427.43,242.26 426.07,246 424.71,249.74 423.35,253.48 421.99,257.22 420.63,260.95" fill="none" stroke="#1a1a1a" stroke-width="0.7" stroke-opacity="0.55" stroke-linecap="round" stroke-linejoin="round" />
  <polyline points="425.3,215.92 423.95,219.64 422.59,223.36 421.24,227.09 419.88,230.81 418.53,234.53 417.17,238.26 415.82,241.98 414.46,245.7 413.11,249.42 411.75,253.15 410.4,256.87 409.04,260.59 407.69,264.31" fill="none" stroke="#1a1a1a" stroke-width="0.7" stroke-opacity="0.55" stroke-linecap="round" stroke-linejoin="round" />
  <polyline points="415.66,210.22 414.3,213.94 412.95,217.65 411.6,221.37 410.25,225.09 408.89,228.8 407.54,232.52 406.19,236.23 404.84,239.95 403.48,243.66 402.13,247.38 400.78,251.1 399.43,254.81 398.08,258.53 396.72,262.24 395.37,265.96" fill="none" stroke="#1a1a1a" stroke-width="0.7" stroke-opacity="0.55" stroke-linecap="round" stroke-linejoin="round" />
  <polyline points="405.27,206.56 403.92,210.28 402.56,214.01 401.2,217.74 399.85,221.46 398.49,225.19 397.13,228.91 395.78,232.64 394.42,236.37 393.07,240.09 391.71,243.82 390.35,247.55 389,251.27 387.64,255 386.28,258.72 384.93,262.45 383.57,266.18" fill="none" stroke="#1a1a1a" stroke-width="0.7" stroke-opacity="0.55" stroke-linecap="round" stroke-linejoin="round" />
  <polyline points="396.4,198.75 395.05,202.44 393.71,206.12 392.37,209.81 391.03,213.5 389.68,217.19 388.34,220.88 387,224.57 385.66,228.26 384.31,231.95 382.97,235.64 381.63,239.32 380.28,243.01 378.94,246.7 377.6,250.39 376.26,254.08 374.91,257.77 373.57,261.46 372.23,265.15" fill="none" stroke="#1a1a1a" stroke-width="0.7" stroke-opacity="0.55" stroke-linecap="round" stroke-linejoin="round" />
  <polyline points="387.23,191.74 385.86,195.49 384.5,199.24 383.13,202.99 381.77,206.74 380.41,210.49 379.04,214.23 377.68,217.98 376.31,221.73 374.95,225.48 373.58,229.23 372.22,232.98 370.85,236.73 369.49,240.48 368.13,244.23 366.76,247.97 365.4,251.72 364.03,255.47 362.67,259.22 361.3,262.97" fill="none" stroke="#1a1a1a" stroke-width="0.7" stroke-opacity="0.55" stroke-linecap="round" stroke-linejoin="round" />
  <polyline points="379.04,182.05 377.69,185.74 376.35,189.44 375,193.14 373.65,196.84 372.31,200.54 370.96,204.23 369.62,207.93 368.27,211.63 366.93,215.33 365.58,219.02 364.23,222.72 362.89,226.42 361.54,230.12 360.2,233.82 358.85,237.51 357.5,241.21 356.16,244.91 354.81,248.61 353.47,252.31 352.12,256 350.77,259.7" fill="none" stroke="#1a1a1a" stroke-width="0.7" stroke-opacity="0.55" stroke-linecap="round" stroke-linejoin="round" />
  <polyline points="370.63,172.95 369.27,176.7 367.9,180.44 366.54,184.19 365.18,187.93 363.81,191.68 362.45,195.42 361.09,199.17 359.72,202.92 358.36,206.66 357,210.41 355.63,214.15 354.27,217.9 352.91,221.64 351.54,225.39 350.18,229.14 348.82,232.88 347.45,236.63 346.09,240.37 344.73,244.12 343.36,247.87 342,251.61 340.64,255.36" fill="none" stroke="#1a1a1a" stroke-width="0.7" stroke-opacity="0.55" stroke-linecap="round" stroke-linejoin="round" />
  <polyline points="362.32,163.59 360.95,167.34 359.59,171.09 358.22,174.85 356.86,178.6 355.49,182.36 354.12,186.11 352.76,189.86 351.39,193.62 350.02,197.37 348.66,201.12 347.29,204.88 345.93,208.63 344.56,212.38 343.19,216.14 341.83,219.89 340.46,223.64 339.1,227.4 337.73,231.15 336.36,234.9 335,238.66 333.63,242.41 332.26,246.16 330.9,249.92" fill="none" stroke="#1a1a1a" stroke-width="0.7" stroke-opacity="0.55" stroke-linecap="round" stroke-linejoin="round" />
  <polyline points="355.39,150.42 354.04,154.14 352.69,157.85 351.34,161.57 349.98,165.28 348.63,169 347.28,172.72 345.93,176.43 344.57,180.15 343.22,183.87 341.87,187.58 340.52,191.3 339.16,195.02 337.81,198.73 336.46,202.45 335.11,206.16 333.75,209.88 332.4,213.6 331.05,217.31 329.69,221.03 328.34,224.75 326.99,228.46 325.64,232.18 324.28,235.89 322.93,239.61 321.58,243.33" fill="none" stroke="#1a1a1a" stroke-width="0.7" stroke-opacity="0.55" stroke-linecap="round" stroke-linejoin="round" />
  <polyline points="347.74,139.24 346.4,142.94 345.05,146.65 343.7,150.35 342.36,154.05 341.01,157.75 339.66,161.45 338.31,165.15 336.97,168.85 335.62,172.55 334.27,176.26 332.93,179.96 331.58,183.66 330.23,187.36 328.88,191.06 327.54,194.76 326.19,198.46 324.84,202.16 323.5,205.87 322.15,209.57 320.8,213.27 319.45,216.97 318.11,220.67 316.76,224.37 315.41,228.07 314.07,231.78 312.72,235.48" fill="none" stroke="#1a1a1a" stroke-width="0.7" stroke-opacity="0.55" stroke-linecap="round" stroke-linejoin="round" />
  <polyline points="343.46,118.81 342.11,122.52 340.77,126.22 339.42,129.92 338.07,133.62 336.72,137.33 335.38,141.03 334.03,144.73 332.68,148.43 331.33,152.14 329.99,155.84 328.64,159.54 327.29,163.24 325.94,166.95 324.6,170.65 323.25,174.35 321.9,178.05 320.55,181.76 319.2,185.46 317.86,189.16 316.51,192.86 315.16,196.56 313.81,200.27 312.47,203.97 311.12,207.67 309.77,211.37 308.42,215.08 307.08,218.78 305.73,222.48 304.38,226.18" fill="none" stroke="#1a1a1a" stroke-width="0.7" stroke-opacity="0.55" stroke-linecap="round" stroke-linejoin="round" />
  <polyline points="353.38,59.38 352.03,63.09 350.68,66.8 349.33,70.51 347.98,74.21" fill="none" stroke="#1a1a1a" stroke-width="0.7" stroke-opacity="0.55" stroke-linecap="round" stroke-linejoin="round" />
  <polyline points="342.58,89.05 341.23,92.76 339.88,96.47 338.53,100.17 337.18,103.88 335.83,107.59 334.48,111.3 333.13,115.01 331.78,118.72 330.43,122.43 329.08,126.14 327.73,129.84 326.38,133.55 325.03,137.26 323.68,140.97 322.33,144.68 320.98,148.39 319.63,152.1 318.28,155.81 316.93,159.51 315.58,163.22 314.23,166.93 312.88,170.64 311.53,174.35 310.18,178.06 308.83,181.77 307.48,185.48 306.13,189.18 304.78,192.89 303.43,196.6 302.08,200.31 300.73,204.02 299.38,207.73 298.03,211.44 296.68,215.15" fill="none" stroke="#1a1a1a" stroke-width="0.7" stroke-opacity="0.55" stroke-linecap="round" stroke-linejoin="round" />
  <polyline points="339.54,65.19 338.2,68.88 336.85,72.57 335.51,76.27 334.17,79.96 332.82,83.65 331.48,87.34 330.14,91.03 328.79,94.73 327.45,98.42 326.1,102.11 324.76,105.8 323.42,109.5 322.07,113.19 320.73,116.88 319.38,120.57 318.04,124.27 316.7,127.96 315.35,131.65 314.01,135.34 312.66,139.03 311.32,142.73 309.98,146.42 308.63,150.11 307.29,153.8 305.95,157.5 304.6,161.19 303.26,164.88 301.91,168.57 300.57,172.26 299.23,175.96 297.88,179.65 296.54,183.34 295.19,187.03 293.85,190.73 292.51,194.42 291.16,198.11 289.82,201.8" fill="none" stroke="#1a1a1a" stroke-width="0.7" stroke-opacity="0.55" stroke-linecap="round" stroke-linejoin="round" />
  <polyline points="324.44,74.49 323.1,78.17 321.76,81.85 320.42,85.54 319.08,89.22 317.74,92.9 316.4,96.58 315.06,100.27 313.72,103.95 312.38,107.63 311.04,111.32 309.69,115 308.35,118.68 307.01,122.36 305.67,126.05 304.33,129.73 302.99,133.41 301.65,137.1 300.31,140.78 298.97,144.46 297.63,148.14 296.29,151.83 294.95,155.51 293.61,159.19 292.27,162.88 290.93,166.56 289.59,170.24 288.25,173.92 286.91,177.61 285.57,181.29 284.23,184.97" fill="none" stroke="#1a1a1a" stroke-width="0.7" stroke-opacity="0.55" stroke-linecap="round" stroke-linejoin="round" />
  <polyline points="306.72,90.98 305.38,94.67 304.04,98.35 302.7,102.03 301.36,105.71 300.02,109.39 298.68,113.08 297.34,116.76 296,120.44 294.66,124.12 293.32,127.8 291.98,131.49 290.64,135.17 289.3,138.85 287.95,142.53 286.61,146.21 285.27,149.9 283.93,153.58 282.59,157.26 281.25,160.94" fill="none" stroke="#1a1a1a" stroke-width="0.7" stroke-opacity="0.55" stroke-linecap="round" stroke-linejoin="round" />
  <polyline points="635.1,53.78 638.73,55.1 642.36,56.42 645.98,57.74 649.61,59.06 653.23,60.37 656.86,61.69 660.48,63.01 664.11,64.33 667.73,65.65 671.36,66.97 674.98,68.29 678.61,69.61 682.24,70.93 685.86,72.25 689.49,73.57 693.11,74.89 696.74,76.21 700.36,77.53 703.99,78.85 707.61,80.17" fill="none" stroke="#1a1a1a" stroke-width="0.7" stroke-opacity="0.55" stroke-linecap="round" stroke-linejoin="round" />
  <polyline points="613.75,56.44 617.49,57.8 621.23,59.16 624.97,60.52 628.72,61.89 632.46,63.25 636.2,64.61 639.94,65.97 643.68,67.33 647.43,68.7 651.17,70.06 654.91,71.42 658.65,72.78 662.39,74.14 666.13,75.51 669.88,76.87 673.62,78.23 677.36,79.59 681.1,80.95" fill="none" stroke="#1a1a1a" stroke-width="0.7" stroke-opacity="0.55" stroke-linecap="round" stroke-linejoin="round" />
  <polyline points="707.29,90.49 711.04,91.85 714.78,93.21 718.52,94.57 722.26,95.93" fill="none" stroke="#1a1a1a" stroke-width="0.7" stroke-opacity="0.55" stroke-linecap="round" stroke-linejoin="round" />
  <polyline points="598.29,61.25 601.98,62.59 605.67,63.93 609.35,65.27 613.04,66.61 616.73,67.96 620.41,69.3 624.1,70.64 627.79,71.98 631.47,73.32 635.16,74.67 638.85,76.01 642.53,77.35 646.22,78.69 649.91,80.03 653.59,81.37 657.28,82.72 660.97,84.06 664.65,85.4 668.34,86.74 672.03,88.08" fill="none" stroke="#1a1a1a" stroke-width="0.7" stroke-opacity="0.55" stroke-linecap="round" stroke-linejoin="round" />
  <polyline points="719.95,105.53 723.64,106.87 727.32,108.21 731.01,109.55" fill="none" stroke="#1a1a1a" stroke-width="0.7" stroke-opacity="0.55" stroke-linecap="round" stroke-linejoin="round" />
  <polyline points="585.85,67.15 589.53,68.49 593.21,69.83 596.89,71.17 600.57,72.51 604.25,73.85 607.93,75.19 611.61,76.53 615.29,77.87 618.97,79.21 622.65,80.55 626.33,81.89 630.01,83.23 633.69,84.57 637.37,85.91 641.06,87.25 644.74,88.59 648.42,89.92 652.1,91.26 655.78,92.6 659.46,93.94 663.14,95.28 666.82,96.62" fill="none" stroke="#1a1a1a" stroke-width="0.7" stroke-opacity="0.55" stroke-linecap="round" stroke-linejoin="round" />
  <polyline points="725.71,118.06 729.39,119.4 733.07,120.74 736.75,122.08" fill="none" stroke="#1a1a1a" stroke-width="0.7" stroke-opacity="0.55" stroke-linecap="round" stroke-linejoin="round" />
  <polyline points="575.4,73.78 579.16,75.15 582.91,76.52 586.66,77.88 590.41,79.25 594.16,80.61 597.91,81.98 601.67,83.34 605.42,84.71 609.17,86.07 612.92,87.44 616.67,88.81 620.43,90.17 624.18,91.54 627.93,92.9 631.68,94.27 635.43,95.63 639.19,97 642.94,98.36 646.69,99.73 650.44,101.1 654.19,102.46 657.95,103.83 661.7,105.19 665.45,106.56 669.2,107.92" fill="none" stroke="#1a1a1a" stroke-width="0.7" stroke-opacity="0.55" stroke-linecap="round" stroke-linejoin="round" />
  <polyline points="725.48,128.41 729.23,129.77 732.98,131.14 736.73,132.5 740.49,133.87" fill="none" stroke="#1a1a1a" stroke-width="0.7" stroke-opacity="0.55" stroke-linecap="round" stroke-linejoin="round" />
  <polyline points="566.48,80.97 570.23,82.34 573.98,83.7 577.73,85.07 581.48,86.43 585.23,87.79 588.98,89.16 592.73,90.52 596.48,91.89 600.23,93.25 603.98,94.62 607.72,95.98 611.47,97.35 615.22,98.71 618.97,100.08 622.72,101.44 626.47,102.81 630.22,104.17 633.97,105.54 637.72,106.9 641.47,108.26 645.22,109.63 648.97,110.99 652.72,112.36 656.47,113.72 660.22,115.09 663.97,116.45 667.71,117.82 671.46,119.18 675.21,120.55 678.96,121.91" fill="none" stroke="#1a1a1a" stroke-width="0.7" stroke-opacity="0.55" stroke-linecap="round" stroke-linejoin="round" />
  <polyline points="720.21,136.92 723.95,138.29 727.7,139.65 731.45,141.02 735.2,142.38 738.95,143.75 742.7,145.11" fill="none" stroke="#1a1a1a" stroke-width="0.7" stroke-opacity="0.55" stroke-linecap="round" stroke-linejoin="round" />
  <polyline points="558.81,88.61 562.5,89.96 566.2,91.3 569.9,92.65 573.59,93.99 577.29,95.34 580.99,96.69 584.69,98.03 588.38,99.38 592.08,100.72 595.78,102.07 599.48,103.41 603.17,104.76 606.87,106.11 610.57,107.45 614.27,108.8 617.96,110.14 621.66,111.49 625.36,112.83 629.05,114.18 632.75,115.53 636.45,116.87 640.15,118.22 643.84,119.56 647.54,120.91 651.24,122.25 654.94,123.6 658.63,124.95 662.33,126.29 666.03,127.64 669.72,128.98 673.42,130.33 677.12,131.67 680.82,133.02 684.51,134.37 688.21,135.71 691.91,137.06 695.61,138.4 699.3,139.75 703,141.09 706.7,142.44 710.4,143.79 714.09,145.13 717.79,146.48 721.49,147.82 725.18,149.17 728.88,150.51 732.58,151.86 736.28,153.21 739.97,154.55 743.67,155.9" fill="none" stroke="#1a1a1a" stroke-width="0.7" stroke-opacity="0.55" stroke-linecap="round" stroke-linejoin="round" />
  <polyline points="552.21,96.64 555.96,98.01 559.71,99.38 563.46,100.74 567.21,102.11 570.97,103.47 574.72,104.84 578.47,106.2 582.22,107.57 585.97,108.93 589.73,110.3 593.48,111.67 597.23,113.03 600.98,114.4 604.74,115.76 608.49,117.13 612.24,118.49 615.99,119.86 619.74,121.23 623.5,122.59 627.25,123.96 631,125.32 634.75,126.69 638.5,128.05 642.26,129.42 646.01,130.79 649.76,132.15 653.51,133.52 657.26,134.88 661.02,136.25 664.77,137.61 668.52,138.98 672.27,140.35 676.03,141.71 679.78,143.08 683.53,144.44 687.28,145.81 691.03,147.17 694.79,148.54 698.54,149.9 702.29,151.27 706.04,152.64 709.79,154 713.55,155.37 717.3,156.73 721.05,158.1 724.8,159.46 728.56,160.83 732.31,162.2 736.06,163.56 739.81,164.93 743.56,166.29" fill="none" stroke="#1a1a1a" stroke-width="0.7" stroke-opacity="0.55" stroke-linecap="round" stroke-linejoin="round" />
  <polyline points="546.58,105.03 550.27,106.37 553.97,107.72 557.66,109.07 561.36,110.41 565.06,111.76 568.75,113.1 572.45,114.45 576.15,115.79 579.84,117.14 583.54,118.48 587.24,119.83 590.93,121.17 594.63,122.52 598.33,123.86 602.02,125.21 605.72,126.56 609.42,127.9 613.11,129.25 616.81,130.59 620.5,131.94 624.2,133.28 627.9,134.63 631.59,135.97 635.29,137.32 638.99,138.66 642.68,140.01 646.38,141.35 650.08,142.7 653.77,144.05 657.47,145.39 661.17,146.74 664.86,148.08 668.56,149.43 672.25,150.77 675.95,152.12 679.65,153.46 683.34,154.81 687.04,156.15 690.74,157.5 694.43,158.84 698.13,160.19 701.83,161.54 705.52,162.88 709.22,164.23 712.92,165.57 716.61,166.92 720.31,168.26 724,169.61 727.7,170.95 731.4,172.3 735.09,173.64 738.79,174.99 742.49,176.33" fill="none" stroke="#1a1a1a" stroke-width="0.7" stroke-opacity="0.55" stroke-linecap="round" stroke-linejoin="round" />
  <polyline points="541.85,113.74 545.6,115.11 549.34,116.47 553.09,117.84 556.84,119.2 560.59,120.56 564.34,121.93 568.09,123.29 571.83,124.66 575.58,126.02 579.33,127.39 583.08,128.75 586.83,130.11 590.58,131.48 594.32,132.84 598.07,134.21 601.82,135.57 605.57,136.94 609.32,138.3 613.07,139.66 616.81,141.03 620.56,142.39 624.31,143.76 628.06,145.12 631.81,146.48 635.56,147.85 639.3,149.21 643.05,150.58 646.8,151.94 650.55,153.31 654.3,154.67 658.05,156.03 661.79,157.4 665.54,158.76 669.29,160.13 673.04,161.49 676.79,162.86 680.53,164.22 684.28,165.58 688.03,166.95 691.78,168.31 695.53,169.68 699.28,171.04 703.02,172.41 706.77,173.77 710.52,175.13 714.27,176.5 718.02,177.86 721.77,179.23 725.51,180.59 729.26,181.96 733.01,183.32 736.76,184.68 740.51,186.05" fill="none" stroke="#1a1a1a" stroke-width="0.7" stroke-opacity="0.55" stroke-linecap="round" stroke-linejoin="round" />
  <polyline points="537.99,122.77 541.68,124.12 545.38,125.46 549.08,126.81 552.78,128.15 556.47,129.5 560.17,130.85 563.87,132.19 567.57,133.54 571.27,134.88 574.96,136.23 578.66,137.58 582.36,138.92 586.06,140.27 589.75,141.61 593.45,142.96 597.15,144.3 600.85,145.65 604.54,147 608.24,148.34 611.94,149.69 615.64,151.03 619.34,152.38 623.03,153.73 626.73,155.07 630.43,156.42 634.13,157.76 637.82,159.11 641.52,160.46 645.22,161.8 648.92,163.15 652.62,164.49 656.31,165.84 660.01,167.18 663.71,168.53 667.41,169.88 671.1,171.22 674.8,172.57 678.5,173.91 682.2,175.26 685.89,176.61 689.59,177.95 693.29,179.3 696.99,180.64 700.69,181.99 704.38,183.33 708.08,184.68 711.78,186.03 715.48,187.37 719.17,188.72 722.87,190.06 726.57,191.41 730.27,192.76 733.96,194.1 737.66,195.45" fill="none" stroke="#1a1a1a" stroke-width="0.7" stroke-opacity="0.55" stroke-linecap="round" stroke-linejoin="round" />
  <polyline points="534.98,132.11 538.73,133.48 542.48,134.84 546.24,136.21 549.99,137.58 553.75,138.94 557.5,140.31 561.26,141.68 565.01,143.04 568.77,144.41 572.52,145.78 576.28,147.14 580.03,148.51 583.78,149.87 587.54,151.24 591.29,152.61 595.05,153.97 598.8,155.34 602.56,156.71 606.31,158.07 610.07,159.44 613.82,160.81 617.58,162.17 621.33,163.54 625.08,164.91 628.84,166.27 632.59,167.64 636.35,169.01 640.1,170.37 643.86,171.74 647.61,173.11 651.37,174.47 655.12,175.84 658.88,177.21 662.63,178.57 666.38,179.94 670.14,181.31 673.89,182.67 677.65,184.04 681.4,185.4 685.16,186.77 688.91,188.14 692.67,189.5 696.42,190.87 700.17,192.24 703.93,193.6 707.68,194.97 711.44,196.34 715.19,197.7 718.95,199.07 722.7,200.44 726.46,201.8 730.21,203.17 733.97,204.54" fill="none" stroke="#1a1a1a" stroke-width="0.7" stroke-opacity="0.55" stroke-linecap="round" stroke-linejoin="round" />
  <polyline points="532.83,141.76 536.54,143.11 540.25,144.46 543.95,145.81 547.66,147.16 551.37,148.51 555.08,149.86 558.79,151.21 562.5,152.56 566.21,153.91 569.92,155.26 573.63,156.61 577.34,157.96 581.04,159.31 584.75,160.66 588.46,162.01 592.17,163.36 595.88,164.71 599.59,166.06 603.3,167.41 607.01,168.76 610.72,170.11 614.43,171.46 618.14,172.81 621.84,174.16 625.55,175.51 629.26,176.86 632.97,178.21 636.68,179.56 640.39,180.91 644.1,182.26 647.81,183.61 651.52,184.96 655.23,186.31 658.94,187.66 662.64,189.01 666.35,190.36 670.06,191.71 673.77,193.06 677.48,194.41 681.19,195.76 684.9,197.11 688.61,198.46 692.32,199.81 696.03,201.16 699.73,202.51 703.44,203.86 707.15,205.21 710.86,206.56 714.57,207.91 718.28,209.26 721.99,210.61 725.7,211.96 729.41,213.31" fill="none" stroke="#1a1a1a" stroke-width="0.7" stroke-opacity="0.55" stroke-linecap="round" stroke-linejoin="round" />
  <polyline points="531.57,151.74 535.27,153.09 538.97,154.43 542.67,155.78 546.37,157.13 550.07,158.47 553.77,159.82 557.47,161.17 561.17,162.51 564.87,163.86 568.57,165.21 572.27,166.55 575.97,167.9 579.67,169.24 583.37,170.59 587.07,171.94 590.77,173.28 594.47,174.63 598.17,175.98 601.87,177.32 605.57,178.67 609.27,180.02 612.96,181.36 616.66,182.71 620.36,184.06 624.06,185.4 627.76,186.75 631.46,188.1 635.16,189.44 638.86,190.79 642.56,192.14 646.26,193.48 649.96,194.83 653.66,196.18 657.36,197.52 661.06,198.87 664.76,200.22 668.46,201.56 672.16,202.91 675.86,204.26 679.56,205.6 683.26,206.95 686.96,208.3 690.66,209.64 694.36,210.99 698.06,212.34 701.76,213.68 705.46,215.03 709.16,216.38 712.86,217.72 716.56,219.07 720.26,220.41 723.96,221.76" fill="none" stroke="#1a1a1a" stroke-width="0.7" stroke-opacity="0.55" stroke-linecap="round" stroke-linejoin="round" />
  <polyline points="531.27,162.06 535,163.42 538.72,164.78 542.45,166.13 546.17,167.49 549.9,168.84 553.62,170.2 557.35,171.56 561.07,172.91 564.8,174.27 568.53,175.62 572.25,176.98 575.98,178.34 579.7,179.69 583.43,181.05 587.15,182.4 590.88,183.76 594.61,185.12 598.33,186.47 602.06,187.83 605.78,189.18 609.51,190.54 613.23,191.9 616.96,193.25 620.68,194.61 624.41,195.96 628.14,197.32 631.86,198.68 635.59,200.03 639.31,201.39 643.04,202.74 646.76,204.1 650.49,205.46 654.22,206.81 657.94,208.17 661.67,209.52 665.39,210.88 669.12,212.24 672.84,213.59 676.57,214.95 680.29,216.3 684.02,217.66 687.75,219.02 691.47,220.37 695.2,221.73 698.92,223.08 702.65,224.44 706.37,225.8 710.1,227.15 713.82,228.51 717.55,229.86" fill="none" stroke="#1a1a1a" stroke-width="0.7" stroke-opacity="0.55" stroke-linecap="round" stroke-linejoin="round" />
  <polyline points="532.02,172.77 535.73,174.12 539.44,175.47 543.15,176.82 546.86,178.17 550.57,179.52 554.28,180.87 557.99,182.22 561.7,183.57 565.41,184.92 569.12,186.27 572.83,187.62 576.54,188.97 580.25,190.32 583.96,191.67 587.67,193.03 591.38,194.38 595.09,195.73 598.8,197.08 602.51,198.43 606.22,199.78 609.93,201.13 613.64,202.48 617.35,203.83 621.06,205.18 624.77,206.53 628.48,207.88 632.19,209.23 635.9,210.58 639.61,211.93 643.32,213.28 647.03,214.63 650.74,215.98 654.45,217.33 658.16,218.68 661.87,220.03 665.57,221.38 669.28,222.73 672.99,224.08 676.7,225.43 680.41,226.78 684.12,228.13 687.83,229.48 691.54,230.83 695.25,232.18 698.96,233.53 702.67,234.88 706.38,236.23 710.09,237.58" fill="none" stroke="#1a1a1a" stroke-width="0.7" stroke-opacity="0.55" stroke-linecap="round" stroke-linejoin="round" />
  <polyline points="533.98,183.92 537.7,185.27 541.42,186.63 545.14,187.98 548.86,189.34 552.58,190.69 556.3,192.04 560.03,193.4 563.75,194.75 567.47,196.11 571.19,197.46 574.91,198.82 578.63,200.17 582.35,201.52 586.07,202.88 589.79,204.23 593.52,205.59 597.24,206.94 600.96,208.3 604.68,209.65 608.4,211.01 612.12,212.36 615.84,213.71 619.56,215.07 623.28,216.42 627.01,217.78 630.73,219.13 634.45,220.49 638.17,221.84 641.89,223.19 645.61,224.55 649.33,225.9 653.05,227.26 656.78,228.61 660.5,229.97 664.22,231.32 667.94,232.68 671.66,234.03 675.38,235.38 679.1,236.74 682.82,238.09 686.54,239.45 690.27,240.8 693.99,242.16 697.71,243.51 701.43,244.87" fill="none" stroke="#1a1a1a" stroke-width="0.7" stroke-opacity="0.55" stroke-linecap="round" stroke-linejoin="round" />
  <polyline points="537.39,195.59 541.14,196.96 544.9,198.33 548.65,199.69 552.41,201.06 556.16,202.43 559.91,203.79 563.67,205.16 567.42,206.52 571.18,207.89 574.93,209.26 578.69,210.62 582.44,211.99 586.19,213.36 589.95,214.72 593.7,216.09 597.46,217.46 601.21,218.82 604.96,220.19 608.72,221.56 612.47,222.92 616.23,224.29 619.98,225.65 623.74,227.02 627.49,228.39 631.24,229.75 635,231.12 638.75,232.49 642.51,233.85 646.26,235.22 650.01,236.59 653.77,237.95 657.52,239.32 661.28,240.69 665.03,242.05 668.79,243.42 672.54,244.78 676.29,246.15 680.05,247.52 683.8,248.88 687.56,250.25 691.31,251.62" fill="none" stroke="#1a1a1a" stroke-width="0.7" stroke-opacity="0.55" stroke-linecap="round" stroke-linejoin="round" />
  <polyline points="542.69,207.96 546.38,209.3 550.07,210.64 553.77,211.99 557.46,213.33 561.15,214.68 564.84,216.02 568.53,217.36 572.23,218.71 575.92,220.05 579.61,221.4 583.3,222.74 587,224.08 590.69,225.43 594.38,226.77 598.07,228.12 601.77,229.46 605.46,230.8 609.15,232.15 612.84,233.49 616.53,234.83 620.23,236.18 623.92,237.52 627.61,238.87 631.3,240.21 635,241.55 638.69,242.9 642.38,244.24 646.07,245.59 649.77,246.93 653.46,248.27 657.15,249.62 660.84,250.96 664.53,252.31 668.23,253.65 671.92,254.99 675.61,256.34 679.3,257.68" fill="none" stroke="#1a1a1a" stroke-width="0.7" stroke-opacity="0.55" stroke-linecap="round" stroke-linejoin="round" />
  <polyline points="550.73,221.32 554.4,222.65 558.07,223.99 561.74,225.33 565.42,226.66 569.09,228 572.76,229.34 576.43,230.67 580.1,232.01 583.78,233.35 587.45,234.68 591.12,236.02 594.79,237.35 598.46,238.69 602.13,240.03 605.81,241.36 609.48,242.7 613.15,244.04 616.82,245.37 620.49,246.71 624.17,248.05 627.84,249.38 631.51,250.72 635.18,252.06 638.85,253.39 642.53,254.73 646.2,256.07 649.87,257.4 653.54,258.74 657.21,260.07 660.88,261.41 664.56,262.75" fill="none" stroke="#1a1a1a" stroke-width="0.7" stroke-opacity="0.55" stroke-linecap="round" stroke-linejoin="round" />
  <polyline points="563.76,236.49 567.44,237.84 571.13,239.18 574.81,240.52 578.5,241.86 582.18,243.2 585.87,244.54 589.55,245.88 593.24,247.22 596.92,248.56 600.6,249.9 604.29,251.25 607.97,252.59 611.66,253.93 615.34,255.27 619.03,256.61 622.71,257.95 626.4,259.29 630.08,260.63 633.77,261.97 637.45,263.32 641.13,264.66 644.82,266" fill="none" stroke="#1a1a1a" stroke-width="0.7" stroke-opacity="0.55" stroke-linecap="round" stroke-linejoin="round" />
  <polyline points="738.66,180.14 739.34,184.02 740.02,187.89" fill="none" stroke="#1a1a1a" stroke-width="0.7" stroke-opacity="0.55" stroke-linecap="round" stroke-linejoin="round" />
  <polyline points="730.49,190.28 731.18,194.22 731.88,198.15 732.57,202.09 733.26,206.02" fill="none" stroke="#1a1a1a" stroke-width="0.7" stroke-opacity="0.55" stroke-linecap="round" stroke-linejoin="round" />
  <polyline points="721.5,195.77 722.19,199.69 722.88,203.62 723.58,207.54 724.27,211.47 724.96,215.39 725.65,219.32" fill="none" stroke="#1a1a1a" stroke-width="0.7" stroke-opacity="0.55" stroke-linecap="round" stroke-linejoin="round" />
  <polyline points="712.08,198.83 712.77,202.71 713.45,206.59 714.14,210.47 714.82,214.35 715.5,218.22 716.19,222.1 716.87,225.98 717.55,229.86" fill="none" stroke="#1a1a1a" stroke-width="0.7" stroke-opacity="0.55" stroke-linecap="round" stroke-linejoin="round" />
  <polyline points="702.19,199.21 702.89,203.14 703.58,207.07 704.27,210.99 704.96,214.92 705.66,218.85 706.35,222.77 707.04,226.7 707.73,230.63 708.43,234.56 709.12,238.48" fill="none" stroke="#1a1a1a" stroke-width="0.7" stroke-opacity="0.55" stroke-linecap="round" stroke-linejoin="round" />
  <polyline points="692.15,198.72 692.84,202.63 693.53,206.53 694.22,210.44 694.91,214.35 695.6,218.26 696.29,222.17 696.98,226.08 697.66,229.98 698.35,233.89 699.04,237.8 699.73,241.71 700.42,245.62" fill="none" stroke="#1a1a1a" stroke-width="0.7" stroke-opacity="0.55" stroke-linecap="round" stroke-linejoin="round" />
  <polyline points="681.83,196.63 682.52,200.55 683.21,204.47 683.9,208.39 684.59,212.31 685.28,216.23 685.97,220.15 686.67,224.07 687.36,227.99 688.05,231.91 688.74,235.83 689.43,239.75 690.12,243.66 690.81,247.58 691.5,251.5" fill="none" stroke="#1a1a1a" stroke-width="0.7" stroke-opacity="0.55" stroke-linecap="round" stroke-linejoin="round" />
  <polyline points="670.74,190.21 671.42,194.1 672.11,197.99 672.8,201.88 673.48,205.76 674.17,209.65 674.85,213.54 675.54,217.43 676.22,221.31 676.91,225.2 677.59,229.09 678.28,232.98 678.96,236.86 679.65,240.75 680.34,244.64 681.02,248.53 681.71,252.41 682.39,256.3" fill="none" stroke="#1a1a1a" stroke-width="0.7" stroke-opacity="0.55" stroke-linecap="round" stroke-linejoin="round" />
  <polyline points="659.38,182.24 660.06,186.13 660.75,190.02 661.44,193.92 662.12,197.81 662.81,201.7 663.5,205.6 664.18,209.49 664.87,213.38 665.56,217.28 666.24,221.17 666.93,225.06 667.61,228.96 668.3,232.85 668.99,236.75 669.67,240.64 670.36,244.53 671.05,248.43 671.73,252.32 672.42,256.21 673.11,260.11" fill="none" stroke="#1a1a1a" stroke-width="0.7" stroke-opacity="0.55" stroke-linecap="round" stroke-linejoin="round" />
  <polyline points="626.86,54.28 627.55,58.22" fill="none" stroke="#1a1a1a" stroke-width="0.7" stroke-opacity="0.55" stroke-linecap="round" stroke-linejoin="round" />
  <polyline points="647.69,172.41 648.38,176.35 649.08,180.29 649.77,184.23 650.47,188.16 651.16,192.1 651.85,196.04 652.55,199.98 653.24,203.92 653.94,207.85 654.63,211.79 655.33,215.73 656.02,219.67 656.71,223.6 657.41,227.54 658.1,231.48 658.8,235.42 659.49,239.35 660.19,243.29 660.88,247.23 661.57,251.17 662.27,255.1 662.96,259.04 663.66,262.98" fill="none" stroke="#1a1a1a" stroke-width="0.7" stroke-opacity="0.55" stroke-linecap="round" stroke-linejoin="round" />
  <polyline points="617.16,55.72 617.84,59.59 618.52,63.47 619.2,67.34" fill="none" stroke="#1a1a1a" stroke-width="0.7" stroke-opacity="0.55" stroke-linecap="round" stroke-linejoin="round" />
  <polyline points="635.6,160.33 636.29,164.21 636.97,168.08 637.65,171.96 638.34,175.83 639.02,179.71 639.7,183.58 640.38,187.46 641.07,191.33 641.75,195.21 642.43,199.08 643.12,202.96 643.8,206.83 644.48,210.71 645.17,214.58 645.85,218.46 646.53,222.33 647.22,226.21 647.9,230.08 648.58,233.96 649.27,237.83 649.95,241.7 650.63,245.58 651.32,249.45 652,253.33 652.68,257.2 653.37,261.08 654.05,264.95" fill="none" stroke="#1a1a1a" stroke-width="0.7" stroke-opacity="0.55" stroke-linecap="round" stroke-linejoin="round" />
  <polyline points="607.61,58.04 608.3,61.97 608.99,65.89 609.68,69.81 610.38,73.74 611.07,77.66 611.76,81.59" fill="none" stroke="#1a1a1a" stroke-width="0.7" stroke-opacity="0.55" stroke-linecap="round" stroke-linejoin="round" />
  <polyline points="622.14,140.45 622.83,144.38 623.52,148.3 624.22,152.23 624.91,156.15 625.6,160.08 626.29,164 626.98,167.92 627.68,171.85 628.37,175.77 629.06,179.7 629.75,183.62 630.44,187.55 631.14,191.47 631.83,195.39 632.52,199.32 633.21,203.24 633.9,207.17 634.6,211.09 635.29,215.02 635.98,218.94 636.67,222.87 637.36,226.79 638.06,230.71 638.75,234.64 639.44,238.56 640.13,242.49 640.82,246.41 641.52,250.34 642.21,254.26 642.9,258.18 643.59,262.11 644.28,266.03" fill="none" stroke="#1a1a1a" stroke-width="0.7" stroke-opacity="0.55" stroke-linecap="round" stroke-linejoin="round" />
  <polyline points="598.22,61.28 598.9,65.14 599.59,69.01 600.27,72.88 600.95,76.74 601.63,80.61 602.31,84.48 603,88.34 603.68,92.21 604.36,96.08 605.04,99.94 605.72,103.81 606.4,107.67 607.09,111.54 607.77,115.41 608.45,119.27 609.13,123.14 609.81,127.01 610.49,130.87 611.18,134.74 611.86,138.61 612.54,142.47 613.22,146.34 613.9,150.21 614.59,154.07 615.27,157.94 615.95,161.81 616.63,165.67 617.31,169.54 617.99,173.41 618.68,177.27 619.36,181.14 620.04,185.01 620.72,188.87 621.4,192.74 622.09,196.61 622.77,200.47 623.45,204.34 624.13,208.21 624.81,212.07 625.49,215.94 626.18,219.8 626.86,223.67 627.54,227.54 628.22,231.4 628.9,235.27 629.58,239.14 630.27,243 630.95,246.87 631.63,250.74 632.31,254.6 632.99,258.47 633.68,262.34 634.36,266.2" fill="none" stroke="#1a1a1a" stroke-width="0.7" stroke-opacity="0.55" stroke-linecap="round" stroke-linejoin="round" />
  <polyline points="589,65.46 589.7,69.38 590.39,73.3 591.08,77.23 591.77,81.15 592.46,85.07 593.15,88.99 593.84,92.91 594.54,96.83 595.23,100.75 595.92,104.67 596.61,108.59 597.3,112.51 597.99,116.43 598.68,120.35 599.38,124.27 600.07,128.2 600.76,132.12 601.45,136.04 602.14,139.96 602.83,143.88 603.52,147.8 604.21,151.72 604.91,155.64 605.6,159.56 606.29,163.48 606.98,167.4 607.67,171.32 608.36,175.24 609.05,179.17 609.75,183.09 610.44,187.01 611.13,190.93 611.82,194.85 612.51,198.77 613.2,202.69 613.89,206.61 614.58,210.53 615.28,214.45 615.97,218.37 616.66,222.29 617.35,226.21 618.04,230.14 618.73,234.06 619.42,237.98 620.12,241.9 620.81,245.82 621.5,249.74 622.19,253.66 622.88,257.58 623.57,261.5 624.26,265.42" fill="none" stroke="#1a1a1a" stroke-width="0.7" stroke-opacity="0.55" stroke-linecap="round" stroke-linejoin="round" />
  <polyline points="579.97,70.67 580.66,74.61 581.36,78.55 582.05,82.49 582.74,86.42 583.44,90.36 584.13,94.3 584.83,98.24 585.52,102.17 586.22,106.11 586.91,110.05 587.6,113.99 588.3,117.93 588.99,121.86 589.69,125.8 590.38,129.74 591.08,133.68 591.77,137.61 592.47,141.55 593.16,145.49 593.85,149.43 594.55,153.36 595.24,157.3 595.94,161.24 596.63,165.18 597.33,169.11 598.02,173.05 598.71,176.99 599.41,180.93 600.1,184.86 600.8,188.8 601.49,192.74 602.19,196.68 602.88,200.61 603.57,204.55 604.27,208.49 604.96,212.43 605.66,216.36 606.35,220.3 607.05,224.24 607.74,228.18 608.43,232.12 609.13,236.05 609.82,239.99 610.52,243.93 611.21,247.87 611.91,251.8 612.6,255.74 613.29,259.68 613.99,263.62" fill="none" stroke="#1a1a1a" stroke-width="0.7" stroke-opacity="0.55" stroke-linecap="round" stroke-linejoin="round" />
  <polyline points="571.13,77.03 571.82,80.94 572.51,84.84 573.2,88.75 573.89,92.66 574.58,96.56 575.27,100.47 575.95,104.38 576.64,108.29 577.33,112.19 578.02,116.1 578.71,120.01 579.4,123.91 580.09,127.82 580.78,131.73 581.47,135.64 582.15,139.54 582.84,143.45 583.53,147.36 584.22,151.27 584.91,155.17 585.6,159.08 586.29,162.99 586.98,166.89 587.67,170.8 588.36,174.71 589.04,178.62 589.73,182.52 590.42,186.43 591.11,190.34 591.8,194.24 592.49,198.15 593.18,202.06 593.87,205.97 594.56,209.87 595.24,213.78 595.93,217.69 596.62,221.6 597.31,225.5 598,229.41 598.69,233.32 599.38,237.22 600.07,241.13 600.76,245.04 601.45,248.95 602.13,252.85 602.82,256.76 603.51,260.67" fill="none" stroke="#1a1a1a" stroke-width="0.7" stroke-opacity="0.55" stroke-linecap="round" stroke-linejoin="round" />
  <polyline points="562.53,84.71 563.22,88.61 563.91,92.51 564.59,96.42 565.28,100.32 565.97,104.22 566.66,108.12 567.35,112.02 568.03,115.92 568.72,119.83 569.41,123.73 570.1,127.63 570.79,131.53 571.47,135.43 572.16,139.34 572.85,143.24 573.54,147.14 574.23,151.04 574.91,154.94 575.6,158.84 576.29,162.75 576.98,166.65 577.67,170.55 578.35,174.45 579.04,178.35 579.73,182.26 580.42,186.16 581.11,190.06 581.79,193.96 582.48,197.86 583.17,201.76 583.86,205.67 584.55,209.57 585.23,213.47 585.92,217.37 586.61,221.27 587.3,225.18 587.99,229.08 588.67,232.98 589.36,236.88 590.05,240.78 590.74,244.69 591.43,248.59 592.11,252.49 592.8,256.39" fill="none" stroke="#1a1a1a" stroke-width="0.7" stroke-opacity="0.55" stroke-linecap="round" stroke-linejoin="round" />
  <polyline points="554.22,94.02 554.91,97.94 555.6,101.85 556.29,105.76 556.97,109.67 557.66,113.58 558.35,117.49 559.04,121.4 559.73,125.32 560.42,129.23 561.11,133.14 561.8,137.05 562.49,140.96 563.18,144.87 563.87,148.78 564.56,152.7 565.25,156.61 565.94,160.52 566.63,164.43 567.32,168.34 568.01,172.25 568.7,176.16 569.39,180.08 570.08,183.99 570.77,187.9 571.46,191.81 572.15,195.72 572.84,199.63 573.53,203.54 574.22,207.46 574.91,211.37 575.6,215.28 576.29,219.19 576.98,223.1 577.67,227.01 578.36,230.92 579.05,234.84 579.73,238.75 580.42,242.66 581.11,246.57 581.8,250.48" fill="none" stroke="#1a1a1a" stroke-width="0.7" stroke-opacity="0.55" stroke-linecap="round" stroke-linejoin="round" />
  <polyline points="546.29,105.51 546.98,109.42 547.66,113.33 548.35,117.24 549.04,121.16 549.73,125.07 550.42,128.98 551.11,132.89 551.8,136.8 552.49,140.71 553.18,144.62 553.87,148.53 554.56,152.44 555.25,156.36 555.94,160.27 556.63,164.18 557.32,168.09 558.01,172 558.7,175.91 559.39,179.82 560.08,183.73 560.77,187.64 561.46,191.56 562.15,195.47 562.84,199.38 563.53,203.29 564.22,207.2 564.91,211.11 565.6,215.02 566.28,218.93 566.97,222.84 567.66,226.76 568.35,230.67 569.04,234.58 569.73,238.49 570.42,242.4" fill="none" stroke="#1a1a1a" stroke-width="0.7" stroke-opacity="0.55" stroke-linecap="round" stroke-linejoin="round" />
  <polyline points="538.94,120.32 539.61,124.13 540.29,127.95 540.96,131.77 541.63,135.58 542.3,139.4 542.98,143.22 543.65,147.03 544.32,150.85 545,154.67 545.67,158.48 546.34,162.3 547.02,166.12 547.69,169.93 548.36,173.75 549.03,177.57 549.71,181.38 550.38,185.2 551.05,189.02 551.73,192.83 552.4,196.65 553.07,200.47 553.75,204.28 554.42,208.1 555.09,211.92 555.76,215.73 556.44,219.55 557.11,223.37 557.78,227.18 558.46,231" fill="none" stroke="#1a1a1a" stroke-width="0.7" stroke-opacity="0.55" stroke-linecap="round" stroke-linejoin="round" />
  <polyline points="532.8,141.94 533.49,145.88 534.18,149.81 534.88,153.75 535.57,157.68 536.27,161.62 536.96,165.55 537.65,169.49 538.35,173.43 539.04,177.36 539.74,181.3 540.43,185.23 541.12,189.17 541.82,193.1 542.51,197.04 543.21,200.97 543.9,204.91 544.59,208.85 545.29,212.78" fill="none" stroke="#1a1a1a" stroke-width="0.7" stroke-opacity="0.55" stroke-linecap="round" stroke-linejoin="round" />
  <polyline points="717.53,229.89 714.74,232.23 711.95,234.57 709.16,236.91 706.37,239.25 703.59,241.59 700.8,243.93 698.01,246.27 695.22,248.61 692.43,250.95" fill="none" stroke="#1a1a1a" stroke-width="0.7" stroke-opacity="0.55" stroke-linecap="round" stroke-linejoin="round" />
  <polyline points="701.69,230.38 698.68,232.91 695.66,235.44 692.65,237.97 689.63,240.5 686.62,243.03 683.6,245.56 680.59,248.09 677.57,250.62 674.56,253.15 671.54,255.68 668.53,258.21 665.51,260.74 662.5,263.27" fill="none" stroke="#1a1a1a" stroke-width="0.7" stroke-opacity="0.55" stroke-linecap="round" stroke-linejoin="round" />
  <polyline points="683.29,233.02 680.26,235.56 677.23,238.1 674.2,240.64 671.18,243.19 668.15,245.73 665.12,248.27 662.09,250.81 659.06,253.35 656.03,255.89 653,258.43 649.98,260.97 646.95,263.51 643.92,266.06" fill="none" stroke="#1a1a1a" stroke-width="0.7" stroke-opacity="0.55" stroke-linecap="round" stroke-linejoin="round" />
  <polyline points="671.01,230.52 668,233.05 664.99,235.57 661.98,238.1 658.97,240.63 655.96,243.16 652.95,245.68 649.93,248.21 646.92,250.74 643.91,253.26 640.9,255.79 637.89,258.32 634.88,260.84 631.87,263.37 628.85,265.9" fill="none" stroke="#1a1a1a" stroke-width="0.7" stroke-opacity="0.55" stroke-linecap="round" stroke-linejoin="round" />
  <polyline points="661.5,225.7 658.46,228.26 655.42,230.81 652.37,233.37 649.33,235.92 646.28,238.47 643.24,241.03 640.19,243.58 637.15,246.14 634.11,248.69 631.06,251.25 628.02,253.8 624.97,256.36 621.93,258.91 618.88,261.46 615.84,264.02" fill="none" stroke="#1a1a1a" stroke-width="0.7" stroke-opacity="0.55" stroke-linecap="round" stroke-linejoin="round" />
  <polyline points="649.4,223.06 646.39,225.58 643.38,228.11 640.38,230.63 637.37,233.16 634.36,235.68 631.35,238.2 628.34,240.73 625.33,243.25 622.33,245.78 619.32,248.3 616.31,250.82 613.3,253.35 610.29,255.87 607.28,258.4 604.28,260.92" fill="none" stroke="#1a1a1a" stroke-width="0.7" stroke-opacity="0.55" stroke-linecap="round" stroke-linejoin="round" />
  <polyline points="642.73,215.86 639.67,218.42 636.62,220.99 633.56,223.55 630.51,226.11 627.45,228.67 624.4,231.24 621.34,233.8 618.29,236.36 615.23,238.93 612.18,241.49 609.12,244.05 606.07,246.62 603.02,249.18 599.96,251.74 596.91,254.31 593.85,256.87" fill="none" stroke="#1a1a1a" stroke-width="0.7" stroke-opacity="0.55" stroke-linecap="round" stroke-linejoin="round" />
  <polyline points="633.33,210.95 630.27,213.51 627.21,216.08 624.15,218.65 621.09,221.21 618.03,223.78 614.97,226.35 611.91,228.91 608.85,231.48 605.79,234.05 602.74,236.62 599.68,239.18 596.62,241.75 593.56,244.32 590.5,246.88 587.44,249.45 584.38,252.02" fill="none" stroke="#1a1a1a" stroke-width="0.7" stroke-opacity="0.55" stroke-linecap="round" stroke-linejoin="round" />
  <polyline points="624.25,205.77 621.22,208.31 618.18,210.85 615.15,213.4 612.12,215.94 609.09,218.48 606.06,221.03 603.03,223.57 600,226.11 596.97,228.66 593.93,231.2 590.9,233.74 587.87,236.29 584.84,238.83 581.81,241.38 578.78,243.92 575.75,246.46" fill="none" stroke="#1a1a1a" stroke-width="0.7" stroke-opacity="0.55" stroke-linecap="round" stroke-linejoin="round" />
  <polyline points="616.41,199.54 613.38,202.09 610.34,204.63 607.31,207.18 604.28,209.72 601.24,212.27 598.21,214.81 595.18,217.36 592.15,219.9 589.11,222.45 586.08,224.99 583.05,227.54 580.01,230.08 576.98,232.63 573.95,235.17 570.91,237.72 567.88,240.26" fill="none" stroke="#1a1a1a" stroke-width="0.7" stroke-opacity="0.55" stroke-linecap="round" stroke-linejoin="round" />
  <polyline points="611.87,190.55 608.87,193.07 605.86,195.6 602.85,198.12 599.84,200.65 596.83,203.17 593.82,205.69 590.82,208.22 587.81,210.74 584.8,213.27 581.79,215.79 578.78,218.31 575.78,220.84 572.77,223.36 569.76,225.89 566.75,228.41 563.74,230.94 560.74,233.46" fill="none" stroke="#1a1a1a" stroke-width="0.7" stroke-opacity="0.55" stroke-linecap="round" stroke-linejoin="round" />
  <polyline points="605.52,183.08 602.5,185.61 599.49,188.14 596.48,190.67 593.46,193.2 590.45,195.73 587.44,198.25 584.42,200.78 581.41,203.31 578.4,205.84 575.38,208.37 572.37,210.9 569.36,213.43 566.34,215.95 563.33,218.48 560.32,221.01 557.3,223.54 554.29,226.07" fill="none" stroke="#1a1a1a" stroke-width="0.7" stroke-opacity="0.55" stroke-linecap="round" stroke-linejoin="round" />
  <polyline points="597.33,177.15 594.28,179.71 591.23,182.27 588.18,184.83 585.13,187.39 582.08,189.95 579.03,192.51 575.98,195.07 572.93,197.62 569.89,200.18 566.84,202.74 563.79,205.3 560.74,207.86 557.69,210.42 554.64,212.98 551.59,215.54 548.54,218.09" fill="none" stroke="#1a1a1a" stroke-width="0.7" stroke-opacity="0.55" stroke-linecap="round" stroke-linejoin="round" />
  <polyline points="592.45,168.45 589.39,171.02 586.33,173.58 583.27,176.15 580.21,178.72 577.15,181.28 574.09,183.85 571.03,186.42 567.97,188.99 564.92,191.55 561.86,194.12 558.8,196.69 555.74,199.26 552.68,201.82 549.62,204.39 546.56,206.96 543.5,209.52" fill="none" stroke="#1a1a1a" stroke-width="0.7" stroke-opacity="0.55" stroke-linecap="round" stroke-linejoin="round" />
  <polyline points="587.86,159.5 584.82,162.06 581.77,164.61 578.73,167.16 575.69,169.71 572.65,172.26 569.61,174.81 566.57,177.37 563.53,179.92 560.49,182.47 557.45,185.02 554.41,187.57 551.37,190.12 548.32,192.68 545.28,195.23 542.24,197.78 539.2,200.33" fill="none" stroke="#1a1a1a" stroke-width="0.7" stroke-opacity="0.55" stroke-linecap="round" stroke-linejoin="round" />
  <polyline points="584.51,149.51 581.46,152.07 578.41,154.63 575.36,157.19 572.31,159.75 569.26,162.31 566.21,164.87 563.16,167.43 560.11,169.98 557.06,172.54 554.01,175.1 550.96,177.66 547.91,180.22 544.86,182.78 541.81,185.34 538.76,187.9 535.71,190.46" fill="none" stroke="#1a1a1a" stroke-width="0.7" stroke-opacity="0.55" stroke-linecap="round" stroke-linejoin="round" />
  <polyline points="581.47,139.26 578.45,141.8 575.43,144.33 572.41,146.87 569.38,149.41 566.36,151.94 563.34,154.48 560.32,157.01 557.3,159.55 554.27,162.08 551.25,164.62 548.23,167.16 545.21,169.69 542.18,172.23 539.16,174.76 536.14,177.3 533.12,179.84" fill="none" stroke="#1a1a1a" stroke-width="0.7" stroke-opacity="0.55" stroke-linecap="round" stroke-linejoin="round" />
  <polyline points="576.75,130.42 573.74,132.95 570.73,135.48 567.72,138 564.71,140.53 561.7,143.06 558.68,145.59 555.67,148.11 552.66,150.64 549.65,153.17 546.64,155.69 543.62,158.22 540.61,160.75 537.6,163.28 534.59,165.8 531.58,168.33" fill="none" stroke="#1a1a1a" stroke-width="0.7" stroke-opacity="0.55" stroke-linecap="round" stroke-linejoin="round" />
  <polyline points="576.48,117.85 573.47,120.37 570.46,122.9 567.45,125.43 564.44,127.95 561.44,130.48 558.43,133 555.42,135.53 552.41,138.05 549.4,140.58 546.39,143.1 543.38,145.63 540.37,148.16 537.36,150.68 534.35,153.21 531.34,155.73" fill="none" stroke="#1a1a1a" stroke-width="0.7" stroke-opacity="0.55" stroke-linecap="round" stroke-linejoin="round" />
  <polyline points="574.75,106.5 571.76,109.01 568.77,111.52 565.77,114.04 562.78,116.55 559.79,119.06 556.79,121.57 553.8,124.08 550.81,126.6 547.81,129.11 544.82,131.62 541.82,134.13 538.83,136.64 535.84,139.16 532.84,141.67" fill="none" stroke="#1a1a1a" stroke-width="0.7" stroke-opacity="0.55" stroke-linecap="round" stroke-linejoin="round" />
  <polyline points="575.94,92.71 572.95,95.22 569.96,97.73 566.97,100.23 563.98,102.74 560.99,105.25 558,107.76 555.01,110.27 552.02,112.78 549.03,115.29 546.04,117.8 543.05,120.31 540.06,122.82 537.07,125.32" fill="none" stroke="#1a1a1a" stroke-width="0.7" stroke-opacity="0.55" stroke-linecap="round" stroke-linejoin="round" />
  <polyline points="598.07,61.34 595.08,63.85 592.08,66.36 589.09,68.87 586.1,71.38 583.1,73.9 580.11,76.41 577.12,78.92 574.12,81.43 571.13,83.94 568.14,86.45 565.14,88.97 562.15,91.48 559.16,93.99 556.16,96.5 553.17,99.01 550.18,101.53 547.18,104.04" fill="none" stroke="#1a1a1a" stroke-width="0.7" stroke-opacity="0.55" stroke-linecap="round" stroke-linejoin="round" />
  <polyline points="985.25,49.75 987.5,52" fill="none" stroke="#1a1a1a" stroke-width="0.7" stroke-opacity="0.55" stroke-linecap="round" stroke-linejoin="round" />
  <polyline points="970.92,50.26 973.68,53.03 976.44,55.79 979.21,58.56 981.97,61.32 984.74,64.08 987.5,66.85" fill="none" stroke="#1a1a1a" stroke-width="0.7" stroke-opacity="0.55" stroke-linecap="round" stroke-linejoin="round" />
  <polyline points="955.93,50.13 958.56,52.76 961.2,55.39 963.83,58.02 966.46,60.65 969.09,63.28 971.72,65.91 974.35,68.54 976.98,71.17 979.61,73.8 982.24,76.44 984.87,79.07 987.5,81.7" fill="none" stroke="#1a1a1a" stroke-width="0.7" stroke-opacity="0.55" stroke-linecap="round" stroke-linejoin="round" />
  <polyline points="941.18,50.22 943.9,52.95 946.63,55.67 949.35,58.4 952.08,61.12 954.8,63.85 957.53,66.57 960.25,69.3 962.98,72.02 965.7,74.75 968.43,77.47 971.15,80.2 973.88,82.92 976.6,85.65 979.33,88.37 982.05,91.1 984.78,93.82 987.5,96.55" fill="none" stroke="#1a1a1a" stroke-width="0.7" stroke-opacity="0.55" stroke-linecap="round" stroke-linejoin="round" />
  <polyline points="926.38,50.28 929.16,53.06 931.94,55.83 934.72,58.61 937.5,61.39 940.27,64.17 943.05,66.95 945.83,69.72 948.61,72.5 951.39,75.28 954.16,78.06 956.94,80.84 959.72,83.61 962.5,86.39 965.28,89.17 968.05,91.95 970.83,94.73 973.61,97.5 976.39,100.28 979.17,103.06 981.94,105.84 984.72,108.62 987.5,111.39" fill="none" stroke="#1a1a1a" stroke-width="0.7" stroke-opacity="0.55" stroke-linecap="round" stroke-linejoin="round" />
  <polyline points="911.57,50.31 914.38,53.12 917.19,55.94 920.01,58.75 922.82,61.56 925.63,64.37 928.44,67.19 931.25,70 934.07,72.81 936.88,75.62 939.69,78.44 942.5,81.25 945.32,84.06 948.13,86.87 950.94,89.68 953.75,92.5 956.56,95.31 959.38,98.12 962.19,100.93 965,103.75 967.81,106.56 970.63,109.37 973.44,112.18 976.25,114.99 979.06,117.81 981.88,120.62 984.69,123.43 987.5,126.24" fill="none" stroke="#1a1a1a" stroke-width="0.7" stroke-opacity="0.55" stroke-linecap="round" stroke-linejoin="round" />
  <polyline points="896.66,50.25 899.41,53.01 902.17,55.76 904.92,58.51 907.67,61.26 910.42,64.02 913.18,66.77 915.93,69.52 918.68,72.27 921.43,75.03 924.19,77.78 926.94,80.53 929.69,83.29 932.45,86.04 935.2,88.79 937.95,91.54 940.7,94.3 943.46,97.05 946.21,99.8 948.96,102.55 951.71,105.31 954.47,108.06 957.22,110.81 959.97,113.57 962.73,116.32 965.48,119.07 968.23,121.82 970.98,124.58 973.74,127.33 976.49,130.08 979.24,132.83 981.99,135.59 984.75,138.34 987.5,141.09" fill="none" stroke="#1a1a1a" stroke-width="0.7" stroke-opacity="0.55" stroke-linecap="round" stroke-linejoin="round" />
  <polyline points="881.84,50.28 884.62,53.06 887.4,55.84 890.18,58.62 892.96,61.4 895.74,64.18 898.52,66.96 901.3,69.74 904.08,72.53 906.86,75.31 909.64,78.09 912.42,80.87 915.21,83.65 917.99,86.43 920.77,89.21 923.55,91.99 926.33,94.77 929.11,97.55 931.89,100.33 934.67,103.11 937.45,105.89 940.23,108.67 943.01,111.45 945.79,114.23 948.57,117.01 951.35,119.79 954.13,122.58 956.91,125.36 959.69,128.14 962.47,130.92 965.26,133.7 968.04,136.48 970.82,139.26 973.6,142.04 976.38,144.82 979.16,147.6 981.94,150.38 984.72,153.16 987.5,155.94" fill="none" stroke="#1a1a1a" stroke-width="0.7" stroke-opacity="0.55" stroke-linecap="round" stroke-linejoin="round" />
  <polyline points="867.01,50.3 869.81,53.1 872.61,55.91 875.42,58.71 878.22,61.51 881.02,64.31 883.82,67.11 886.62,69.92 889.43,72.72 892.23,75.52 895.03,78.32 897.83,81.13 900.64,83.93 903.44,86.73 906.24,89.53 909.04,92.33 911.84,95.14 914.65,97.94 917.45,100.74 920.25,103.54 923.05,106.34 925.85,109.15 928.66,111.95 931.46,114.75 934.26,117.55 937.06,120.35 939.86,123.16 942.67,125.96 945.47,128.76 948.27,131.56 951.07,134.36 953.87,137.17 956.68,139.97 959.48,142.77 962.28,145.57 965.08,148.38 967.89,151.18 970.69,153.98 973.49,156.78 976.29,159.58 979.09,162.39 981.9,165.19 984.7,167.99" fill="none" stroke="#1a1a1a" stroke-width="0.7" stroke-opacity="0.55" stroke-linecap="round" stroke-linejoin="round" />
  <polyline points="852.18,50.32 855,53.14 857.82,55.96 860.64,58.78 863.46,61.6 866.27,64.42 869.09,67.23 871.91,70.05 874.73,72.87 877.55,75.69 880.37,78.51 883.19,81.33 886.01,84.15 888.83,86.97 891.65,89.79 894.47,92.61 897.29,95.43 900.1,98.25 902.92,101.06 905.74,103.88 908.56,106.7 911.38,109.52 914.2,112.34 917.02,115.16 919.84,117.98 922.66,120.8 925.48,123.62 928.3,126.44 931.12,129.26 933.94,132.08 936.75,134.9 939.57,137.71 942.39,140.53 945.21,143.35 948.03,146.17 950.85,148.99 953.67,151.81 956.49,154.63 959.31,157.45 962.13,160.27 964.95,163.09 967.77,165.91 970.58,168.73 973.4,171.54 976.22,174.36 979.04,177.18 981.86,180 984.68,182.82 987.5,185.64" fill="none" stroke="#1a1a1a" stroke-width="0.7" stroke-opacity="0.55" stroke-linecap="round" stroke-linejoin="round" />
  <polyline points="840.28,53.27 843.06,56.05 845.83,58.82 848.61,61.6 851.39,64.38 854.17,67.16 856.94,69.93 859.72,72.71 862.5,75.49 865.28,78.27 868.06,81.05 870.83,83.82 873.61,86.6 876.39,89.38 879.17,92.16 881.94,94.93 884.72,97.71 887.5,100.49 890.28,103.27 893.06,106.05 895.83,108.82 898.61,111.6 901.39,114.38 904.17,117.16 906.94,119.93 909.72,122.71 912.5,125.49 915.28,128.27 918.06,131.05 920.83,133.82 923.61,136.6 926.39,139.38 929.17,142.16 931.94,144.93 934.72,147.71 937.5,150.49 940.28,153.27 943.06,156.05 945.83,158.82 948.61,161.6 951.39,164.38 954.17,167.16 956.94,169.93 959.72,172.71 962.5,175.49 965.28,178.27 968.06,181.05 970.83,183.82 973.61,186.6 976.39,189.38 979.17,192.16 981.94,194.93 984.72,197.71" fill="none" stroke="#1a1a1a" stroke-width="0.7" stroke-opacity="0.55" stroke-linecap="round" stroke-linejoin="round" />
  <polyline points="840.28,68.12 843.06,70.89 845.83,73.67 848.61,76.45 851.39,79.23 854.17,82.01 856.94,84.78 859.72,87.56 862.5,90.34 865.28,93.12 868.06,95.89 870.83,98.67 873.61,101.45 876.39,104.23 879.17,107.01 881.94,109.78 884.72,112.56 887.5,115.34 890.28,118.12 893.06,120.89 895.83,123.67 898.61,126.45 901.39,129.23 904.17,132.01 906.94,134.78 909.72,137.56 912.5,140.34 915.28,143.12 918.06,145.89 920.83,148.67 923.61,151.45 926.39,154.23 929.17,157.01 931.94,159.78 934.72,162.56 937.5,165.34 940.28,168.12 943.06,170.89 945.83,173.67 948.61,176.45 951.39,179.23 954.17,182.01 956.94,184.78 959.72,187.56 962.5,190.34 965.28,193.12 968.06,195.89 970.83,198.67 973.61,201.45 976.39,204.23 979.17,207.01 981.94,209.78 984.72,212.56" fill="none" stroke="#1a1a1a" stroke-width="0.7" stroke-opacity="0.55" stroke-linecap="round" stroke-linejoin="round" />
  <polyline points="840.28,82.97 843.06,85.74 845.83,88.52 848.61,91.3 851.39,94.08 854.17,96.86 856.94,99.63 859.72,102.41 862.5,105.19 865.28,107.97 868.06,110.74 870.83,113.52 873.61,116.3 876.39,119.08 879.17,121.86 881.94,124.63 884.72,127.41 887.5,130.19 890.28,132.97 893.06,135.74 895.83,138.52 898.61,141.3 901.39,144.08 904.17,146.86 906.94,149.63 909.72,152.41 912.5,155.19 915.28,157.97 918.06,160.74 920.83,163.52 923.61,166.3 926.39,169.08 929.17,171.86 931.94,174.63 934.72,177.41 937.5,180.19 940.28,182.97 943.06,185.74 945.83,188.52 948.61,191.3 951.39,194.08 954.17,196.86 956.94,199.63 959.72,202.41 962.5,205.19 965.28,207.97 968.06,210.74 970.83,213.52 973.61,216.3 976.39,219.08 979.17,221.86 981.94,224.63 984.72,227.41 987.5,230.19" fill="none" stroke="#1a1a1a" stroke-width="0.7" stroke-opacity="0.55" stroke-linecap="round" stroke-linejoin="round" />
  <polyline points="840.28,97.82 843.06,100.59 845.83,103.37 848.61,106.15 851.39,108.93 854.17,111.7 856.94,114.48 859.72,117.26 862.5,120.04 865.28,122.82 868.06,125.59 870.83,128.37 873.61,131.15 876.39,133.93 879.17,136.7 881.94,139.48 884.72,142.26 887.5,145.04 890.28,147.82 893.06,150.59 895.83,153.37 898.61,156.15 901.39,158.93 904.17,161.7 906.94,164.48 909.72,167.26 912.5,170.04 915.28,172.82 918.06,175.59 920.83,178.37 923.61,181.15 926.39,183.93 929.17,186.7 931.94,189.48 934.72,192.26 937.5,195.04 940.28,197.82 943.06,200.59 945.83,203.37 948.61,206.15 951.39,208.93 954.17,211.7 956.94,214.48 959.72,217.26 962.5,220.04 965.28,222.82 968.06,225.59 970.83,228.37 973.61,231.15 976.39,233.93 979.17,236.7 981.94,239.48 984.72,242.26" fill="none" stroke="#1a1a1a" stroke-width="0.7" stroke-opacity="0.55" stroke-linecap="round" stroke-linejoin="round" />
  <polyline points="840.28,112.66 843.06,115.44 845.83,118.22 848.61,121 851.39,123.78 854.17,126.55 856.94,129.33 859.72,132.11 862.5,134.89 865.28,137.66 868.06,140.44 870.83,143.22 873.61,146 876.39,148.78 879.17,151.55 881.94,154.33 884.72,157.11 887.5,159.89 890.28,162.66 893.06,165.44 895.83,168.22 898.61,171 901.39,173.78 904.17,176.55 906.94,179.33 909.72,182.11 912.5,184.89 915.28,187.66 918.06,190.44 920.83,193.22 923.61,196 926.39,198.78 929.17,201.55 931.94,204.33 934.72,207.11 937.5,209.89 940.28,212.66 943.06,215.44 945.83,218.22 948.61,221 951.39,223.78 954.17,226.55 956.94,229.33 959.72,232.11 962.5,234.89 965.28,237.66 968.06,240.44 970.83,243.22 973.61,246 976.39,248.78 979.17,251.55 981.94,254.33 984.72,257.11 987.5,259.89" fill="none" stroke="#1a1a1a" stroke-width="0.7" stroke-opacity="0.55" stroke-linecap="round" stroke-linejoin="round" />
  <polyline points="840.29,127.52 843.08,130.31 845.86,133.1 848.65,135.89 851.44,138.68 854.23,141.46 857.02,144.25 859.8,147.04 862.59,149.83 865.38,152.62 868.17,155.4 870.96,158.19 873.74,160.98 876.53,163.77 879.32,166.56 882.11,169.34 884.9,172.13 887.68,174.92 890.47,177.71 893.26,180.5 896.05,183.28 898.84,186.07 901.62,188.86 904.41,191.65 907.2,194.44 909.99,197.22 912.78,200.01 915.56,202.8 918.35,205.59 921.14,208.38 923.93,211.16 926.72,213.95 929.5,216.74 932.29,219.53 935.08,222.32 937.87,225.1 940.66,227.89 943.44,230.68 946.23,233.47 949.02,236.26 951.81,239.04 954.6,241.83 957.38,244.62 960.17,247.41 962.96,250.2 965.75,252.98 968.54,255.77 971.32,258.56 974.11,261.35 976.9,264.14 979.69,266.92 982.48,269.71 985.26,272.5" fill="none" stroke="#1a1a1a" stroke-width="0.7" stroke-opacity="0.55" stroke-linecap="round" stroke-linejoin="round" />
  <polyline points="840.33,142.41 843.16,145.24 845.98,148.07 848.81,150.9 851.64,153.73 854.47,156.55 857.3,159.38 860.12,162.21 862.95,165.04 865.78,167.87 868.61,170.69 871.44,173.52 874.26,176.35 877.09,179.18 879.92,182.01 882.75,184.83 885.58,187.66 888.4,190.49 891.23,193.32 894.06,196.14 896.89,198.97 899.72,201.8 902.54,204.63 905.37,207.46 908.2,210.28 911.03,213.11 913.86,215.94 916.68,218.77 919.51,221.6 922.34,224.42 925.17,227.25 927.99,230.08 930.82,232.91 933.65,235.74 936.48,238.56 939.31,241.39 942.13,244.22 944.96,247.05 947.79,249.88 950.62,252.7 953.45,255.53 956.27,258.36 959.1,261.19 961.93,264.02 964.76,266.84 967.59,269.67 970.41,272.5" fill="none" stroke="#1a1a1a" stroke-width="0.7" stroke-opacity="0.55" stroke-linecap="round" stroke-linejoin="round" />
  <polyline points="840.31,157.25 843.12,160.06 845.93,162.87 848.74,165.68 851.56,168.49 854.37,171.3 857.18,174.11 859.99,176.92 862.8,179.73 865.61,182.55 868.42,185.36 871.23,188.17 874.04,190.98 876.86,193.79 879.67,196.6 882.48,199.41 885.29,202.22 888.1,205.03 890.91,207.85 893.72,210.66 896.53,213.47 899.34,216.28 902.15,219.09 904.97,221.9 907.78,224.71 910.59,227.52 913.4,230.33 916.21,233.14 919.02,235.96 921.83,238.77 924.64,241.58 927.45,244.39 930.27,247.2 933.08,250.01 935.89,252.82 938.7,255.63 941.51,258.44 944.32,261.26 947.13,264.07 949.94,266.88 952.75,269.69 955.57,272.5" fill="none" stroke="#1a1a1a" stroke-width="0.7" stroke-opacity="0.55" stroke-linecap="round" stroke-linejoin="round" />
  <polyline points="840.29,172.07 843.08,174.86 845.87,177.65 848.66,180.44 851.45,183.23 854.24,186.02 857.03,188.81 859.82,191.6 862.61,194.39 865.4,197.18 868.19,199.97 870.98,202.76 873.77,205.55 876.55,208.34 879.34,211.13 882.13,213.92 884.92,216.71 887.71,219.5 890.5,222.29 893.29,225.08 896.08,227.87 898.87,230.66 901.66,233.45 904.45,236.23 907.24,239.02 910.03,241.81 912.82,244.6 915.61,247.39 918.4,250.18 921.19,252.97 923.98,255.76 926.77,258.55 929.56,261.34 932.35,264.13 935.14,266.92 937.93,269.71 940.72,272.5" fill="none" stroke="#1a1a1a" stroke-width="0.7" stroke-opacity="0.55" stroke-linecap="round" stroke-linejoin="round" />
  <polyline points="840.26,186.89 843.02,189.66 845.78,192.42 848.55,195.18 851.31,197.94 854.07,200.7 856.83,203.46 859.59,206.23 862.35,208.99 865.11,211.75 867.88,214.51 870.64,217.27 873.4,220.03 876.16,222.79 878.92,225.56 881.68,228.32 884.44,231.08 887.21,233.84 889.97,236.6 892.73,239.36 895.49,242.12 898.25,244.89 901.01,247.65 903.77,250.41 906.54,253.17 909.3,255.93 912.06,258.69 914.82,261.45 917.58,264.22 920.34,266.98 923.11,269.74 925.87,272.5" fill="none" stroke="#1a1a1a" stroke-width="0.7" stroke-opacity="0.55" stroke-linecap="round" stroke-linejoin="round" />
  <polyline points="840.33,201.81 843.16,204.64 845.98,207.47 848.81,210.29 851.64,213.12 854.47,215.95 857.29,218.78 860.12,221.6 862.95,224.43 865.78,227.26 868.6,230.09 871.43,232.91 874.26,235.74 877.09,238.57 879.91,241.4 882.74,244.22 885.57,247.05 888.4,249.88 891.22,252.71 894.05,255.53 896.88,258.36 899.71,261.19 902.53,264.02 905.36,266.84 908.19,269.67 911.02,272.5" fill="none" stroke="#1a1a1a" stroke-width="0.7" stroke-opacity="0.55" stroke-linecap="round" stroke-linejoin="round" />
  <polyline points="840.29,216.63 843.09,219.42 845.88,222.21 848.67,225.01 851.47,227.8 854.26,230.59 857.06,233.39 859.85,236.18 862.64,238.98 865.44,241.77 868.23,244.56 871.02,247.36 873.82,250.15 876.61,252.94 879.41,255.74 882.2,258.53 884.99,261.33 887.79,264.12 890.58,266.91 893.37,269.71 896.17,272.5" fill="none" stroke="#1a1a1a" stroke-width="0.7" stroke-opacity="0.55" stroke-linecap="round" stroke-linejoin="round" />
  <polyline points="840.24,231.42 842.98,234.16 845.72,236.9 848.45,239.64 851.19,242.37 853.93,245.11 856.67,247.85 859.41,250.59 862.15,253.33 864.89,256.07 867.63,258.81 870.36,261.55 873.1,264.28 875.84,267.02 878.58,269.76 881.32,272.5" fill="none" stroke="#1a1a1a" stroke-width="0.7" stroke-opacity="0.55" stroke-linecap="round" stroke-linejoin="round" />
  <polyline points="840.13,246.16 842.77,248.8 845.4,251.43 848.03,254.06 850.67,256.7 853.3,259.33 855.94,261.97 858.57,264.6 861.2,267.23 863.84,269.87 866.47,272.5" fill="none" stroke="#1a1a1a" stroke-width="0.7" stroke-opacity="0.55" stroke-linecap="round" stroke-linejoin="round" />
  <polyline points="840.32,261.2 843.15,264.03 845.97,266.85 848.8,269.68 851.62,272.5" fill="none" stroke="#1a1a1a" stroke-width="0.7" stroke-opacity="0.55" stroke-linecap="round" stroke-linejoin="round" />
  <polyline points="137.5,53.88 142.72,54.07 147.93,54.27 153.08,54.99 158.23,55.72 163.27,56.95 168.3,58.18 173.2,59.89 178.12,61.59 182.85,63.77 187.58,65.98 192.09,68.68 196.6,71.42 200.84,74.61 205.09,77.79 208.99,81.36 212.86,84.91 216.33,88.8 219.76,92.67 222.78,96.86 225.8,101.03 228.43,105.48 231.11,109.95 233.37,114.66 235.66,119.39 237.51,124.33 239.35,129.27 240.7,134.35 242.04,139.43 242.86,144.59 243.67,149.72 243.95,154.87 244.21,160.01 243.94,165.17 243.66,170.34 242.85,175.48 242.04,180.65 240.71,185.72 239.37,190.8 237.53,195.72 235.67,200.63 233.35,205.33 231.03,210.05 228.29,214.53 225.58,219.02 222.48,223.19 219.42,227.34 215.98,231.14 212.55,234.94 208.75,238.4 204.94,241.9 200.79,245.03 196.64,248.2 192.2,250.94 187.73,253.68 183,255.97 178.26,258.25 173.34,260.04 168.44,261.82 163.41,263.08 158.4,264.34 153.28,265.09 148.16,265.85 142.98,266.11 137.76,266.38 132.52,266.14 127.26,265.92 122.02,265.17 116.78,264.41 111.63,263.12 106.49,261.8 101.52,259.98 96.57,258.15 91.83,255.85 87.1,253.57 82.63,250.86 78.17,248.17 74,245.06 69.86,241.97 66.04,238.49 62.21,235.01 58.72,231.16 55.24,227.31 52.15,223.13 49.08,218.95 46.45,214.49 43.83,210.04 41.67,205.34 39.49,200.65 37.76,195.79 36.02,190.93 34.77,185.94 33.52,180.94 32.78,175.82 32.04,170.68 31.8,165.45 31.55,160.19 31.78,154.94 31.97,149.69 32.66,144.53 33.34,139.4 34.52,134.4 35.72,129.41 37.42,124.55 39.14,119.66 41.34,114.94 43.56,110.2 46.22,105.71 48.9,101.21 52.01,96.99 55.14,92.77 58.67,88.86 62.21,84.93 66.12,81.36 70.02,77.8 74.24,74.66 78.44,71.55 82.9,68.89 87.33,66.25 91.99,64.07 96.65,61.89 101.53,60.18 106.45,58.47 111.54,57.25 116.64,56.03 121.85,55.28 127.04,54.5 132.28,54.2 137.5,53.88" fill="none" stroke="#1a1a1a" stroke-width="1.5" stroke-linecap="round" stroke-linejoin="round" />
  <polyline points="387.16,53.61 392.33,53.97 397.52,54.34 402.7,55.2 407.9,56.03 413.01,57.35 418.12,58.64 423.06,60.4 427.99,62.16 432.72,64.41 437.44,66.66 441.92,69.36 446.4,72.06 450.62,75.17 454.85,78.26 458.75,81.72 462.66,85.17 466.21,88.97 469.75,92.77 472.89,96.88 476.02,101.01 478.71,105.44 481.38,109.9 483.57,114.63 485.74,119.37 487.42,124.3 489.1,129.23 490.29,134.31 491.5,139.39 492.21,144.58 492.93,149.77 493.16,155.02 493.41,160.25 493.15,165.48 492.92,170.7 492.21,175.85 491.49,180.99 490.27,186.03 489.02,191.06 487.25,195.94 485.45,200.84 483.17,205.54 480.9,210.24 478.21,214.67 475.55,219.08 472.49,223.19 469.46,227.31 466.03,231.13 462.59,235.01 458.78,238.55 454.94,242.08 450.77,245.2 446.59,248.28 442.11,250.92 437.63,253.54 432.91,255.72 428.19,257.91 423.26,259.62 418.32,261.35 413.23,262.61 408.14,263.87 402.96,264.67 397.79,265.51 392.58,265.87 387.37,266.23 382.17,266.04 376.97,265.81 371.83,265.04 366.66,264.23 361.58,262.92 356.5,261.61 351.57,259.83 346.65,258.07 341.95,255.84 337.25,253.61 332.78,250.92 328.31,248.22 324.14,245.08 319.97,241.93 316.13,238.39 312.28,234.87 308.79,231.01 305.3,227.16 302.19,223 299.08,218.85 296.38,214.42 293.67,209.99 291.4,205.32 289.13,200.64 287.35,195.77 285.6,190.88 284.34,185.85 283.1,180.8 282.35,175.66 281.61,170.5 281.36,165.29 281.12,160.06 281.4,154.83 281.71,149.6 282.51,144.43 283.32,139.25 284.6,134.17 285.88,129.07 287.64,124.1 289.41,119.13 291.67,114.37 293.94,109.62 296.66,105.15 299.37,100.69 302.48,96.54 305.57,92.39 309.04,88.57 312.5,84.75 316.34,81.28 320.19,77.8 324.38,74.69 328.57,71.55 333.03,68.82 337.47,66.08 342.13,63.8 346.78,61.53 351.64,59.74 356.51,57.96 361.54,56.68 366.57,55.42 371.7,54.68 376.83,53.96 381.99,53.77 387.16,53.61" fill="none" stroke="#1a1a1a" stroke-width="1.5" stroke-linecap="round" stroke-linejoin="round" />
  <polyline points="637.56,53.92 642.72,54.28 647.89,54.61 653,55.42 658.12,56.22 663.14,57.48 668.16,58.74 673.04,60.48 677.93,62.23 682.64,64.45 687.36,66.68 691.85,69.36 696.34,72.04 700.54,75.13 704.74,78.23 708.61,81.71 712.47,85.18 715.95,89.01 719.42,92.83 722.5,96.97 725.6,101.11 728.29,105.53 731,109.97 733.27,114.65 735.54,119.34 737.33,124.24 739.11,129.14 740.39,134.2 741.66,139.25 742.45,144.4 743.24,149.55 743.51,154.76 743.78,159.96 743.52,165.17 743.22,170.38 742.38,175.53 741.53,180.67 740.17,185.71 738.82,190.74 737.02,195.63 735.24,200.52 733.03,205.22 730.84,209.92 728.21,214.39 725.58,218.86 722.52,223.05 719.43,227.24 715.94,231.1 712.43,234.97 708.55,238.46 704.66,241.95 700.44,245.04 696.24,248.13 691.75,250.8 687.27,253.47 682.54,255.69 677.82,257.91 672.91,259.66 668.01,261.4 662.97,262.68 657.94,263.97 652.8,264.76 647.65,265.53 642.46,265.78 637.28,266.01 632.11,265.72 626.94,265.43 621.82,264.63 616.68,263.84 611.64,262.57 606.58,261.29 601.65,259.53 596.69,257.78 591.92,255.57 587.15,253.37 582.65,250.73 578.17,248.08 574.02,244.99 569.88,241.89 566.06,238.39 562.24,234.87 558.76,231 555.28,227.16 552.19,223.03 549.1,218.9 546.43,214.49 543.77,210.06 541.57,205.35 539.37,200.62 537.65,195.69 535.92,190.76 534.68,185.68 533.45,180.61 532.72,175.45 531.99,170.29 531.75,165.09 531.5,159.89 531.75,154.71 532.01,149.53 532.78,144.41 533.55,139.29 534.82,134.27 536.09,129.25 537.84,124.36 539.56,119.47 541.75,114.76 543.95,110.05 546.61,105.57 549.29,101.1 552.42,96.91 555.56,92.71 559.09,88.81 562.63,84.91 566.52,81.35 570.41,77.8 574.6,74.64 578.78,71.49 583.21,68.78 587.65,66.06 592.33,63.8 597.04,61.54 601.95,59.75 606.87,58 611.93,56.76 616.98,55.55 622.12,54.88 627.24,54.22 632.4,54.07 637.56,53.92" fill="none" stroke="#1a1a1a" stroke-width="1.5" stroke-linecap="round" stroke-linejoin="round" />
  <polyline points="837.5,272.54 843.46,272.56 849.43,272.57 855.42,272.56 861.41,272.53 867.41,272.5 873.41,272.47 879.42,272.46 885.44,272.47 891.47,272.49 897.5,272.52 903.51,272.54 909.51,272.55 915.52,272.53 921.52,272.5 927.54,272.47 933.56,272.45 939.56,272.43 945.54,272.44 951.51,272.44 957.49,272.45 963.49,272.45 969.52,272.45 975.55,272.43 981.58,272.42 987.6,272.4 987.56,266.5 987.52,260.62 987.48,254.74 987.46,248.85 987.45,242.96 987.43,237.06 987.43,231.16 987.42,225.26 987.42,219.36 987.43,213.47 987.45,207.57 987.46,201.65 987.47,195.7 987.47,189.73 987.47,183.75 987.48,177.79 987.49,171.85 987.49,165.92 987.49,159.96 987.49,154 987.47,148.02 987.45,142.06 987.42,136.11 987.38,130.19 987.33,124.26 987.27,118.34 987.21,112.41 987.17,106.47 987.17,100.54 987.19,94.61 987.22,88.67 987.26,82.73 987.3,76.79 987.31,70.86 987.33,64.92 987.35,58.98 987.36,53.05 987.37,47.12 981.39,47.11 975.42,47.1 969.45,47.09 963.48,47.09 957.5,47.1 951.51,47.13 945.52,47.2 939.54,47.28 933.55,47.38 927.57,47.49 921.58,47.61 915.57,47.71 909.56,47.79 903.54,47.83 897.53,47.82 891.53,47.77 885.54,47.71 879.54,47.65 873.53,47.58 867.48,47.51 861.39,47.44 855.31,47.37 849.24,47.33 843.22,47.31 837.22,47.32 837.26,53.23 837.33,59.18 837.42,65.14 837.5,71.11 837.57,77.08 837.63,83.04 837.66,89.01 837.67,94.97 837.66,100.93 837.65,106.87 837.64,112.81 837.62,118.74 837.59,124.69 837.55,130.65 837.5,136.6 837.44,142.55 837.4,148.5 837.37,154.44 837.36,160.37 837.36,166.3 837.33,172.22 837.29,178.13 837.25,184.03 837.22,189.92 837.21,195.82 837.22,201.72 837.24,207.64 837.27,213.56 837.29,219.5 837.29,225.43 837.3,231.35 837.31,237.25 837.33,243.15 837.35,249.04 837.37,254.93 837.41,260.81 837.46,266.68 837.5,272.54" fill="none" stroke="#1a1a1a" stroke-width="1.5" stroke-linecap="round" stroke-linejoin="round" />
</svg>