<svg xmlns="http://www.w3.org/2000/svg" viewBox="0 0 720 540" width="720" height="540">
  <rect width="720" height="540" fill="#faf9f5" />
  <polyline points="389.8,72.32 393.35,73.97 396.89,75.66 400.41,77.36 403.92,79.06 407.42,80.76 410.92,82.45 414.42,84.13 417.93,85.8 421.46,87.46 424.99,89.11 428.53,90.76 432.08,92.4 435.64,94.04 439.19,95.69 442.74,97.35 446.28,99.13" fill="none" stroke="#1a1a1a" stroke-width="0.7" stroke-opacity="0.55" stroke-linecap="round" stroke-linejoin="round" />
  <polyline points="356.96,69.21 360.55,70.94 364.08,72.65 367.59,74.31 371.07,75.96 374.55,77.61 378.04,79.27 381.52,80.92 385.02,82.58 388.53,84.24 392.04,85.9 395.56,87.56 399.08,89.22 402.59,90.88 406.11,92.53 409.63,94.19 413.15,95.84 416.66,97.49 420.19,99.13 423.72,100.77 427.25,102.41 430.79,104.04 434.33,105.67 437.88,107.3 441.43,108.93 444.97,110.55 448.52,112.19 452.07,113.82 455.62,115.45 459.18,117.09 462.75,118.73 466.34,120.36 470.04,121.94" fill="none" stroke="#1a1a1a" stroke-width="0.7" stroke-opacity="0.55" stroke-linecap="round" stroke-linejoin="round" />
  <polyline points="335.69,71.38 339.19,73.13 342.74,74.86 346.31,76.56 349.89,78.23 353.49,79.9 357.08,81.59 360.67,83.28 364.25,84.97 367.82,86.65 371.37,88.34 374.91,90.02 378.45,91.7 381.98,93.38 385.52,95.06 389.07,96.74 392.62,98.41 396.19,100.07 399.77,101.72 403.36,103.37 406.96,105.02 410.57,106.66 414.17,108.31 417.76,109.95 421.35,111.6 424.93,113.25 428.51,114.9 432.08,116.56 435.66,118.21 439.24,119.85 442.82,121.5 446.41,123.14 449.99,124.77 453.58,126.41 457.15,128.04 460.73,129.68 464.3,131.33 467.87,133 471.46,134.67 475.05,136.35 478.67,138.07 482.25,139.86" fill="none" stroke="#1a1a1a" stroke-width="0.7" stroke-opacity="0.55" stroke-linecap="round" stroke-linejoin="round" />
  <polyline points="318.1,75.89 321.86,77.17 325.46,78.72 329.02,80.34 332.57,81.99 336.14,83.65 339.73,85.33 343.33,87.02 346.94,88.72 350.54,90.42 354.14,92.13 357.74,93.84 361.32,95.54 364.9,97.25 368.47,98.94 372.04,100.64 375.6,102.32 379.17,104 382.73,105.67" fill="none" stroke="#1a1a1a" stroke-width="0.7" stroke-opacity="0.55" stroke-linecap="round" stroke-linejoin="round" />
  <polyline points="429.2,127.22 432.75,128.91 436.31,130.6 439.87,132.29 443.44,133.97 447.02,135.64 450.6,137.31 454.18,138.98 457.76,140.64 461.35,142.31 464.94,143.98 468.52,145.65 472.1,147.3 475.68,148.94 479.27,150.56 482.87,152.2 486.5,153.94 490.19,155.99" fill="none" stroke="#1a1a1a" stroke-width="0.7" stroke-opacity="0.55" stroke-linecap="round" stroke-linejoin="round" />
  <polyline points="304.09,81.01 307.54,82.9 311.19,84.69 314.88,86.45 318.57,88.16 322.22,89.83 325.84,91.47 329.45,93.11 333.05,94.76 336.63,96.41 340.22,98.08 343.79,99.74 347.36,101.4 350.93,103.06 354.49,104.72 358.06,106.39 361.63,108.06" fill="none" stroke="#1a1a1a" stroke-width="0.7" stroke-opacity="0.55" stroke-linecap="round" stroke-linejoin="round" />
  <polyline points="441.21,145.01 444.86,146.69 448.5,148.39 452.13,150.1 455.76,151.82 459.38,153.56 462.99,155.3 466.59,157.05 470.17,158.8 473.76,160.53 477.35,162.23 480.97,163.9 484.6,165.55 488.24,167.18 491.84,168.81 495.36,170.45" fill="none" stroke="#1a1a1a" stroke-width="0.7" stroke-opacity="0.55" stroke-linecap="round" stroke-linejoin="round" />
  <polyline points="291.28,87.25 294.77,89.05 298.26,90.77 301.77,92.46 305.29,94.14 308.84,95.82 312.4,97.48 315.98,99.12 319.58,100.76 323.18,102.39 326.78,104.03 330.37,105.67 333.96,107.32 337.54,108.98 341.12,110.64 344.69,112.3 348.26,113.97 351.82,115.64" fill="none" stroke="#1a1a1a" stroke-width="0.7" stroke-opacity="0.55" stroke-linecap="round" stroke-linejoin="round" />
  <polyline points="441.26,157.43 444.85,159.11 448.44,160.8 452.04,162.48 455.64,164.14 459.24,165.79 462.81,167.43 466.37,169.05 469.89,170.67 473.39,172.29 476.9,173.92 480.45,175.56 484.08,177.2 487.75,178.85 491.44,180.5 495.14,182.15 498.84,183.8" fill="none" stroke="#1a1a1a" stroke-width="0.7" stroke-opacity="0.55" stroke-linecap="round" stroke-linejoin="round" />
  <polyline points="280.12,94.04 283.84,95.9 287.49,97.65 291.14,99.35 294.77,101.04 298.38,102.72 301.98,104.39 305.58,106.04 309.19,107.7 312.81,109.36 316.43,111.03 320.05,112.71 323.67,114.39 327.28,116.09 330.88,117.79 334.48,119.5 338.07,121.2 341.66,122.91" fill="none" stroke="#1a1a1a" stroke-width="0.7" stroke-opacity="0.55" stroke-linecap="round" stroke-linejoin="round" />
  <polyline points="442.91,170.08 446.53,171.78 450.16,173.47 453.79,175.16 457.42,176.83 461.05,178.48 464.67,180.11 468.28,181.75 471.9,183.38 475.51,185.03 479.12,186.69 482.73,188.37 486.34,190.08 489.95,191.8 493.52,193.55 497.04,195.34 500.66,196.96" fill="none" stroke="#1a1a1a" stroke-width="0.7" stroke-opacity="0.55" stroke-linecap="round" stroke-linejoin="round" />
  <polyline points="270.08,101.34 273.56,103.18 277.21,104.87 280.86,106.54 284.48,108.22 288.1,109.91 291.71,111.6 295.32,113.29 298.92,114.98 302.53,116.66 306.15,118.34 309.77,120.03 313.39,121.72 317.02,123.41 320.65,125.12 324.28,126.84 327.92,128.56 331.55,130.28 335.2,132.01 338.85,133.73" fill="none" stroke="#1a1a1a" stroke-width="0.7" stroke-opacity="0.55" stroke-linecap="round" stroke-linejoin="round" />
  <polyline points="436.25,179.08 439.87,180.78 443.49,182.49 447.11,184.2 450.74,185.91 454.36,187.61 457.99,189.3 461.61,190.98 465.22,192.66 468.83,194.34 472.43,196.04 476.05,197.75 479.66,199.46 483.28,201.18 486.9,202.87 490.52,204.55 494.21,206.22 497.96,207.88 501.62,209.54" fill="none" stroke="#1a1a1a" stroke-width="0.7" stroke-opacity="0.55" stroke-linecap="round" stroke-linejoin="round" />
  <polyline points="261.38,109.79 264.96,111.36 268.49,113.01 272.06,114.68 275.61,116.37 279.13,118.04 282.64,119.71 286.15,121.35 289.69,122.99 293.24,124.64 296.82,126.29 300.41,127.95 304.02,129.61 307.63,131.28 311.24,132.96 314.85,134.64 318.46,136.31 322.06,137.97 325.66,139.63 329.26,141.29 332.87,142.95 336.49,144.62" fill="none" stroke="#1a1a1a" stroke-width="0.7" stroke-opacity="0.55" stroke-linecap="round" stroke-linejoin="round" />
  <polyline points="433.17,189.62 436.72,191.27 440.28,192.93 443.85,194.58 447.41,196.23 450.98,197.89 454.55,199.56 458.12,201.23 461.68,202.91 465.22,204.59 468.76,206.27 472.29,207.95 475.83,209.63 479.38,211.3 482.94,212.98 486.52,214.65 490.1,216.33 493.68,218.04 497.28,219.72 500.94,221.34" fill="none" stroke="#1a1a1a" stroke-width="0.7" stroke-opacity="0.55" stroke-linecap="round" stroke-linejoin="round" />
  <polyline points="253.44,118.09 257.13,119.67 260.69,121.34 264.27,123.04 267.88,124.78 271.53,126.53 275.21,128.27 278.88,129.99 282.55,131.68 286.2,133.34 289.83,135 293.44,136.66 297.04,138.33 300.64,140.01 304.24,141.7 307.84,143.4 311.45,145.11 315.07,146.82 318.7,148.52 322.33,150.23 325.95,151.93 329.56,153.64 333.17,155.34 336.78,157.04" fill="none" stroke="#1a1a1a" stroke-width="0.7" stroke-opacity="0.55" stroke-linecap="round" stroke-linejoin="round" />
  <polyline points="420.23,196.04 423.85,197.76 427.47,199.47 431.1,201.16 434.72,202.85 438.34,204.54 441.95,206.23 445.55,207.92 449.14,209.62 452.73,211.31 456.31,213 459.88,214.68 463.45,216.34 467.02,217.98 470.6,219.62 474.19,221.27 477.81,222.92 481.45,224.57 485.1,226.22 488.76,227.87 492.39,229.52 495.96,231.22 499.49,232.92" fill="none" stroke="#1a1a1a" stroke-width="0.7" stroke-opacity="0.55" stroke-linecap="round" stroke-linejoin="round" />
  <polyline points="246.33,127.09 249.82,128.69 253.37,130.31 256.93,131.95 260.52,133.59 264.13,135.23 267.74,136.87 271.33,138.53 274.91,140.2 278.49,141.86 282.06,143.51 285.64,145.16 289.22,146.82 292.8,148.48 296.38,150.16 299.96,151.85 303.55,153.56 307.14,155.27 310.74,156.98 314.34,158.69 317.96,160.4 321.57,162.1 325.19,163.8 328.81,165.49 332.42,167.17 336.03,168.85 339.63,170.53 343.22,172.2" fill="none" stroke="#1a1a1a" stroke-width="0.7" stroke-opacity="0.55" stroke-linecap="round" stroke-linejoin="round" />
  <polyline points="407.89,202.21 411.49,203.91 415.09,205.61 418.69,207.3 422.29,208.99 425.89,210.68 429.49,212.36 433.08,214.03 436.67,215.7 440.24,217.37 443.81,219.04 447.38,220.72 450.94,222.4 454.52,224.08 458.09,225.76 461.66,227.44 465.22,229.1 468.79,230.75 472.37,232.4 475.95,234.04 479.56,235.68 483.21,237.32 486.9,238.97 490.56,240.65 494.06,242.4 497.21,244.13" fill="none" stroke="#1a1a1a" stroke-width="0.7" stroke-opacity="0.55" stroke-linecap="round" stroke-linejoin="round" />
  <polyline points="239.8,136.2 243.62,137.95 247.23,139.61 250.83,141.28 254.42,142.99 258.02,144.71 261.62,146.42 265.21,148.11 268.81,149.79 272.4,151.46 275.98,153.12 279.55,154.79 283.12,156.47 286.67,158.15 290.21,159.83 293.76,161.52 297.31,163.2 300.86,164.88 304.43,166.57 308.01,168.27 311.59,169.96 315.19,171.66 318.79,173.36 322.4,175.05 326,176.74 329.61,178.42 333.21,180.09 336.81,181.76 340.4,183.42 343.99,185.08 347.57,186.73 351.15,188.39 354.73,190.04 358.31,191.69 361.89,193.34 365.46,194.99 369.04,196.65 372.61,198.31 376.19,199.98 379.77,201.64 383.36,203.31 386.95,204.98 390.54,206.64 394.13,208.31 397.74,209.96 401.34,211.62 404.95,213.27 408.56,214.93 412.16,216.58 415.75,218.24 419.33,219.91 422.89,221.58 426.44,223.24 429.98,224.91 433.51,226.56 437.05,228.21 440.59,229.85 444.14,231.49 447.71,233.13 451.29,234.78 454.88,236.43 458.47,238.08 462.06,239.73 465.66,241.37 469.26,243.02 472.87,244.66 476.5,246.32 480.15,247.98 483.82,249.65 487.46,251.29 490.98,252.9 494.43,254.7" fill="none" stroke="#1a1a1a" stroke-width="0.7" stroke-opacity="0.55" stroke-linecap="round" stroke-linejoin="round" />
  <polyline points="234.47,146.03 238.09,147.48 241.73,149.11 245.4,150.75 249.06,152.38 252.68,154.02 256.27,155.66 259.82,157.31 263.36,158.96 266.9,160.62 270.45,162.29 274.03,163.99 277.64,165.69 281.25,167.4 284.88,169.11 288.51,170.83 292.13,172.55 295.76,174.27 299.38,175.98 303.01,177.69 306.63,179.39 310.26,181.09 313.88,182.78 317.5,184.47 321.12,186.16 324.75,187.85 328.37,189.54 331.99,191.22 335.62,192.91 339.24,194.58 342.85,196.26 346.47,197.93 350.09,199.59 353.71,201.26 357.33,202.93 360.94,204.6 364.56,206.26 368.17,207.93 371.79,209.61 375.41,211.29 379.02,212.97 382.64,214.67 386.26,216.37 389.88,218.07 393.49,219.77 397.1,221.47 400.7,223.18 404.3,224.89 407.89,226.6 411.49,228.31 415.1,230.03 418.71,231.74 422.32,233.44 425.94,235.14 429.56,236.83 433.18,238.5 436.79,240.17 440.4,241.82 443.99,243.46 447.57,245.09 451.15,246.73 454.73,248.37 458.31,250.02 461.9,251.7 465.49,253.4 469.08,255.11 472.66,256.82 476.24,258.51 479.82,260.2 483.38,261.91 486.94,263.62 490.67,265.08" fill="none" stroke="#1a1a1a" stroke-width="0.7" stroke-opacity="0.55" stroke-linecap="round" stroke-linejoin="round" />
  <polyline points="229.74,155.81 233.61,157.61 237.2,159.19 240.77,160.79 244.34,162.43 247.9,164.06 251.46,165.69 255.03,167.31 258.6,168.94 262.19,170.59 265.78,172.26 269.37,173.94 272.96,175.64 276.55,177.35 280.13,179.07 283.7,180.78 287.26,182.5 290.83,184.2 294.41,185.91 298,187.63 301.6,189.35 305.21,191.07 308.85,192.79 312.5,194.51 316.15,196.22 319.8,197.93 323.45,199.63 327.08,201.32 330.71,203.01 334.32,204.68 337.92,206.35 341.52,208.02 345.11,209.69 348.7,211.37 352.29,213.04 355.89,214.73 359.5,216.41 363.11,218.1 366.74,219.79 370.37,221.49 374.01,223.18 377.65,224.87 381.3,226.55 384.94,228.24 388.58,229.93 392.21,231.61 395.84,233.29 399.46,234.96 403.08,236.63 406.68,238.31 410.29,239.98 413.9,241.65 417.51,243.34 421.13,245.03 424.74,246.73 428.36,248.44 431.98,250.15 435.59,251.85 439.2,253.56 442.81,255.25 446.41,256.93 450,258.61 453.58,260.28 457.14,261.95 460.7,263.62 464.26,265.3 467.83,266.99 471.43,268.66 475.05,270.31 478.69,271.92 482.37,273.49 486.05,274.99" fill="none" stroke="#1a1a1a" stroke-width="0.7" stroke-opacity="0.55" stroke-linecap="round" stroke-linejoin="round" />
  <polyline points="226.04,165.97 229.58,167.81 233.13,169.48 236.71,171.16 240.31,172.87 243.91,174.57 247.53,176.25 251.14,177.92 254.75,179.59 258.36,181.26 261.97,182.95 265.57,184.66 269.17,186.38 272.77,188.1 276.38,189.81 279.99,191.52 283.6,193.21 287.2,194.88 290.81,196.53 294.41,198.16 298,199.79 301.59,201.41 305.18,203.02 308.77,204.64 312.37,206.26 315.96,207.9 319.56,209.54 323.15,211.2 326.73,212.87 330.32,214.54 333.91,216.23 337.49,217.92 341.08,219.61 344.66,221.3 348.25,222.99 351.84,224.67 355.43,226.36 359.01,228.05 362.59,229.73 366.16,231.41 369.74,233.09 373.3,234.75 376.87,236.42 380.43,238.07 383.98,239.71 387.54,241.36 391.1,243 394.66,244.63 398.23,246.27 401.8,247.92 405.37,249.56 408.94,251.21 412.51,252.86 416.07,254.52 419.62,256.17 423.17,257.83 426.72,259.5 430.27,261.17 433.82,262.84 437.38,264.52 440.95,266.21 444.54,267.9 448.13,269.61 451.72,271.32 455.32,273.04 458.92,274.76 462.52,276.47 466.13,278.16 469.73,279.85 473.35,281.5 476.98,283.12 480.52,284.7" fill="none" stroke="#1a1a1a" stroke-width="0.7" stroke-opacity="0.55" stroke-linecap="round" stroke-linejoin="round" />
  <polyline points="222.87,176.77 226.71,178.14 230.38,179.85 233.99,181.63 237.57,183.41 241.15,185.16 244.75,186.89 248.35,188.6 251.96,190.31 255.57,192 259.16,193.69 262.76,195.38 266.35,197.06 269.94,198.73 273.52,200.4 277.09,202.06 280.65,203.72 284.2,205.38 287.76,207.04 291.31,208.69 294.86,210.34 298.41,211.98 301.96,213.62 305.5,215.26 309.06,216.91 312.62,218.56 316.18,220.21 319.76,221.87 323.34,223.55 326.94,225.24 330.54,226.94 334.14,228.65 337.75,230.37 341.36,232.09 344.96,233.82 348.57,235.54 352.18,237.25 355.78,238.95 359.39,240.65 362.99,242.33 366.59,244 370.19,245.66 373.79,247.31 377.38,248.96 380.98,250.61 384.58,252.25 388.19,253.9 391.8,255.55 395.41,257.21 399.02,258.87 402.64,260.53 406.27,262.19 409.9,263.84 413.54,265.49 417.17,267.14 420.79,268.79 424.41,270.45 428.02,272.11 431.63,273.78 435.22,275.46 438.81,277.14 442.4,278.84 446,280.54 449.59,282.25 453.18,283.98 456.76,285.72 460.34,287.44 463.93,289.13 467.52,290.79 471.13,292.48 474.66,294.25" fill="none" stroke="#1a1a1a" stroke-width="0.7" stroke-opacity="0.55" stroke-linecap="round" stroke-linejoin="round" />
  <polyline points="220.49,187.72 224.19,189.17 227.75,190.89 231.3,192.65 234.88,194.37 238.48,196.07 242.11,197.75 245.75,199.43 249.41,201.1 253.06,202.78 256.7,204.46 260.32,206.14 263.92,207.83 267.49,209.53 271.04,211.23 274.57,212.94 278.09,214.65 281.6,216.35 285.12,218.05 288.63,219.73 292.15,221.4 295.69,223.06 299.23,224.71 302.77,226.35 306.31,227.99 309.86,229.63 313.4,231.28 316.95,232.94 320.49,234.6 324.05,236.26 327.61,237.92 331.17,239.58 334.75,241.24 338.35,242.9 341.96,244.57 345.57,246.23 349.2,247.9 352.82,249.56 356.44,251.22 360.06,252.88 363.66,254.53 367.26,256.18 370.86,257.83 374.44,259.47 378.02,261.11 381.6,262.75 385.17,264.4 388.74,266.05 392.3,267.7 395.86,269.37 399.42,271.04 402.97,272.72 406.52,274.42 410.08,276.12 413.64,277.83 417.21,279.53 420.78,281.23 424.36,282.93 427.93,284.61 431.49,286.28 435.05,287.93 438.62,289.58 442.22,291.23 445.85,292.87 449.53,294.51 453.24,296.16 456.95,297.83 460.61,299.54 464.2,301.31 467.68,303.13" fill="none" stroke="#1a1a1a" stroke-width="0.7" stroke-opacity="0.55" stroke-linecap="round" stroke-linejoin="round" />
  <polyline points="219.1,199.24 222.76,200.96 226.39,202.63 230.04,204.29 233.67,205.95 237.29,207.61 240.89,209.26 244.49,210.91 248.08,212.56 251.67,214.23 255.26,215.89 258.84,217.57 262.43,219.26 266.02,220.94 269.61,222.63 273.2,224.31 276.79,225.99 280.38,227.66 283.96,229.33 287.54,230.99 291.11,232.64 294.68,234.29 298.24,235.94 301.8,237.59 305.36,239.24 308.92,240.89 312.49,242.55 316.06,244.21 319.63,245.88 323.21,247.56 326.79,249.25 330.37,250.93 333.96,252.63 337.54,254.33 341.13,256.02 344.72,257.72 348.32,259.42 351.91,261.11 355.51,262.81 359.1,264.5 362.7,266.19 366.3,267.88 369.9,269.57 373.5,271.26 377.11,272.95 380.71,274.65 384.32,276.34 387.93,278.04 391.56,279.74 395.18,281.43 398.82,283.13 402.45,284.83 406.08,286.52 409.71,288.2 413.34,289.87 416.97,291.53 420.61,293.18 424.24,294.82 427.87,296.46 431.5,298.11 435.12,299.77 438.69,301.44 442.24,303.13 445.77,304.82 449.31,306.49 452.88,308.15 456.48,309.78" fill="none" stroke="#1a1a1a" stroke-width="0.7" stroke-opacity="0.55" stroke-linecap="round" stroke-linejoin="round" />
  <polyline points="218.88,211.4 222.44,213.2 226.02,214.87 229.59,216.49 233.16,218.1 236.73,219.69 240.29,221.3 243.85,222.91 247.4,224.52 250.96,226.16 254.52,227.8 258.09,229.46 261.67,231.13 265.25,232.81 268.85,234.49 272.44,236.17 276.04,237.86 279.63,239.54 283.23,241.22 286.82,242.9 290.4,244.58 293.98,246.26 297.56,247.93 301.13,249.6 304.7,251.27 308.26,252.94 311.82,254.6 315.38,256.26 318.94,257.92 322.5,259.59 326.06,261.25 329.62,262.91 333.2,264.57 336.77,266.23 340.35,267.89 343.93,269.54 347.51,271.2 351.08,272.85 354.66,274.51 358.22,276.16 361.79,277.81 365.35,279.46 368.9,281.12 372.46,282.77 376.02,284.43 379.59,286.09 383.16,287.75 386.74,289.41 390.33,291.09 393.91,292.77 397.5,294.46 401.08,296.17 404.66,297.89 408.23,299.63 411.79,301.38 415.34,303.13 418.88,304.88 422.42,306.61 425.97,308.32 429.53,310.01 433.11,311.67 436.69,313.28 440.27,314.86 443.85,316.44 447.4,318.11" fill="none" stroke="#1a1a1a" stroke-width="0.7" stroke-opacity="0.55" stroke-linecap="round" stroke-linejoin="round" />
  <polyline points="219.3,223.53 223.12,225.11 226.65,226.89 230.15,228.64 233.67,230.33 237.23,231.97 240.81,233.59 244.39,235.21 247.97,236.85 251.56,238.52 255.14,240.2 258.73,241.9 262.31,243.6 265.91,245.3 269.51,247 273.12,248.7 276.72,250.38 280.32,252.04 283.91,253.7 287.5,255.36 291.07,257.03 294.63,258.7 298.19,260.37 301.73,262.04 305.28,263.71 308.83,265.39 312.39,267.06 315.95,268.73 319.52,270.4 323.09,272.06 326.67,273.71 330.24,275.36 333.83,277 337.4,278.66 340.97,280.32 344.54,281.99 348.11,283.67 351.68,285.36 355.25,287.06 358.82,288.77 362.4,290.49 365.98,292.21 369.56,293.92 373.15,295.63 376.74,297.33 380.33,299.02 383.92,300.7 387.5,302.36 391.09,304.02 394.68,305.66 398.27,307.31 401.87,308.94 405.47,310.58 409.09,312.22 412.71,313.86 416.33,315.51 419.95,317.17 423.55,318.82 427.15,320.5 430.73,322.2 434.31,323.91 437.9,325.6" fill="none" stroke="#1a1a1a" stroke-width="0.7" stroke-opacity="0.55" stroke-linecap="round" stroke-linejoin="round" />
  <polyline points="220.71,236.77 224.32,238.56 227.87,240.12 231.43,241.69 235.03,243.29 238.66,244.9 242.3,246.53 245.93,248.17 249.57,249.83 253.2,251.49 256.82,253.17 260.44,254.85 264.05,256.53 267.66,258.23 271.27,259.92 274.88,261.62 278.5,263.32 282.11,265.02 285.72,266.72 289.33,268.43 292.94,270.14 296.56,271.85 300.19,273.56 303.82,275.28 307.46,276.99 311.1,278.7 314.74,280.41 318.38,282.12 322,283.81 325.62,285.5 329.23,287.18 332.84,288.86 336.44,290.53 340.04,292.19 343.64,293.85 347.23,295.51 350.83,297.17 354.43,298.83 358.04,300.49 361.66,302.14 365.29,303.81 368.93,305.47 372.58,307.14 376.24,308.82 379.9,310.5 383.55,312.18 387.21,313.87 390.85,315.56 394.48,317.26 398.11,318.96 401.73,320.66 405.36,322.36 408.98,324.05 412.6,325.74 416.21,327.43 419.8,329.1 423.35,330.76" fill="none" stroke="#1a1a1a" stroke-width="0.7" stroke-opacity="0.55" stroke-linecap="round" stroke-linejoin="round" />
  <polyline points="224.3,250.46 228.03,252.05 231.65,253.6 235.25,255.22 238.82,256.88 242.37,258.55 245.89,260.23 249.41,261.91 252.93,263.58 256.48,265.25 260.03,266.92 263.61,268.6 267.2,270.27 270.8,271.95 274.4,273.62 278,275.3 281.61,276.98 285.23,278.65 288.84,280.32 292.45,281.99 296.06,283.65 299.67,285.3 303.28,286.95 306.89,288.6 310.49,290.26 314.09,291.91 317.69,293.57 321.28,295.24 324.86,296.92 328.44,298.61 332.01,300.32 335.58,302.03 339.15,303.75 342.73,305.46 346.32,307.18 349.91,308.89 353.5,310.6 357.09,312.3 360.68,313.98 364.27,315.66 367.86,317.33 371.45,319 375.05,320.65 378.65,322.31 382.26,323.95 385.87,325.59 389.46,327.22 393.03,328.85 396.6,330.49 400.14,332.12 403.68,333.76" fill="none" stroke="#1a1a1a" stroke-width="0.7" stroke-opacity="0.55" stroke-linecap="round" stroke-linejoin="round" />
  <polyline points="228.99,264.74 232.53,266.56 236.21,268.17 239.87,269.74 243.51,271.32 247.11,272.92 250.71,274.55 254.29,276.19 257.87,277.84 261.44,279.51 265.01,281.17 268.58,282.85 272.15,284.52 275.71,286.21 279.28,287.89 282.84,289.58 286.39,291.28 289.94,292.96 293.49,294.65 297.03,296.33 300.56,298.01 304.09,299.69 307.62,301.36 311.16,303.04 314.69,304.71 318.23,306.38 321.78,308.05 325.33,309.71 328.88,311.38 332.43,313.04 335.98,314.69 339.54,316.35 343.1,318 346.67,319.65 350.24,321.29 353.82,322.93 357.38,324.57 360.95,326.21 364.52,327.84 368.07,329.48 371.63,331.13 375.18,332.79 378.73,334.45 382.29,336.12 385.84,337.77" fill="none" stroke="#1a1a1a" stroke-width="0.7" stroke-opacity="0.55" stroke-linecap="round" stroke-linejoin="round" />
  <polyline points="236.54,280.03 240.26,281.72 243.78,283.38 247.29,285.04 250.8,286.7 254.32,288.36 257.86,290.03 261.41,291.7 264.97,293.4 268.54,295.11 272.12,296.82 275.7,298.52 279.28,300.22 282.86,301.91 286.43,303.58 290.01,305.24 293.59,306.9 297.17,308.54 300.75,310.19 304.33,311.83 307.92,313.47 311.51,315.12 315.1,316.77 318.7,318.43 322.3,320.09 325.9,321.75 329.51,323.42 333.12,325.08 336.73,326.75 340.34,328.41 343.95,330.08 347.56,331.75 351.17,333.43 354.78,335.11 358.4,336.8 362.02,338.5" fill="none" stroke="#1a1a1a" stroke-width="0.7" stroke-opacity="0.55" stroke-linecap="round" stroke-linejoin="round" />
  <polyline points="248.15,297.58 251.67,299.32 255.2,300.93 258.77,302.54 262.35,304.17 265.92,305.83 269.5,307.51 273.08,309.2 276.67,310.89 280.26,312.59 283.86,314.28 287.46,315.97 291.05,317.66 294.64,319.35 298.23,321.03 301.81,322.7 305.4,324.37 308.97,326.05 312.55,327.72 316.13,329.4 319.72,331.09 323.3,332.79 326.89,334.48 330.48,336.18 334.08,337.86" fill="none" stroke="#1a1a1a" stroke-width="0.7" stroke-opacity="0.55" stroke-linecap="round" stroke-linejoin="round" />
  <polyline points="500.51,228.57 498.74,232.41 496.97,236.11 495.22,239.76" fill="none" stroke="#1a1a1a" stroke-width="0.7" stroke-opacity="0.55" stroke-linecap="round" stroke-linejoin="round" />
  <polyline points="483.13,264.74 481.43,268.35 479.72,271.96 478.03,275.58 476.34,279.2 474.66,282.83 472.99,286.46 471.32,290.08 469.66,293.7 468,297.3 466.34,300.89 464.68,304.46 463.01,308.04" fill="none" stroke="#1a1a1a" stroke-width="0.7" stroke-opacity="0.55" stroke-linecap="round" stroke-linejoin="round" />
  <polyline points="457.5,294 455.86,297.56 454.23,301.12 452.59,304.7 450.95,308.28 449.3,311.88 447.64,315.49 445.97,319.1" fill="none" stroke="#1a1a1a" stroke-width="0.7" stroke-opacity="0.55" stroke-linecap="round" stroke-linejoin="round" />
  <polyline points="440.61,304.28 438.97,307.91 437.33,311.54 435.69,315.17 434.04,318.8 432.39,322.43 430.71,326.05" fill="none" stroke="#1a1a1a" stroke-width="0.7" stroke-opacity="0.55" stroke-linecap="round" stroke-linejoin="round" />
  <polyline points="425.16,311.39 423.47,314.92 421.77,318.46 420.09,322.01 418.42,325.58 416.76,329.19 415.1,332.82" fill="none" stroke="#1a1a1a" stroke-width="0.7" stroke-opacity="0.55" stroke-linecap="round" stroke-linejoin="round" />
  <polyline points="411.04,315.96 409.4,319.55 407.75,323.13 406.11,326.72 404.47,330.31 402.79,333.89" fill="none" stroke="#1a1a1a" stroke-width="0.7" stroke-opacity="0.55" stroke-linecap="round" stroke-linejoin="round" />
  <polyline points="397.43,318.84 395.74,322.41 394.06,325.99 392.38,329.57 390.7,333.17 389.02,336.78" fill="none" stroke="#1a1a1a" stroke-width="0.7" stroke-opacity="0.55" stroke-linecap="round" stroke-linejoin="round" />
  <polyline points="384.45,320.79 382.84,324.36 381.22,327.92 379.58,331.48 377.89,335.04 376.18,338.6" fill="none" stroke="#1a1a1a" stroke-width="0.7" stroke-opacity="0.55" stroke-linecap="round" stroke-linejoin="round" />
  <polyline points="372.34,320.37 370.68,323.96 369.01,327.55 367.33,331.15 365.63,334.76 363.91,338.38" fill="none" stroke="#1a1a1a" stroke-width="0.7" stroke-opacity="0.55" stroke-linecap="round" stroke-linejoin="round" />
  <polyline points="360.95,319.96 359.3,323.56 357.65,327.16 356,330.75 354.33,334.34 352.64,337.92" fill="none" stroke="#1a1a1a" stroke-width="0.7" stroke-opacity="0.55" stroke-linecap="round" stroke-linejoin="round" />
  <polyline points="349.02,318.33 347.3,321.97 345.57,325.62 343.86,329.25 342.17,332.87 340.5,336.48" fill="none" stroke="#1a1a1a" stroke-width="0.7" stroke-opacity="0.55" stroke-linecap="round" stroke-linejoin="round" />
  <polyline points="339.59,312.07 337.94,315.71 336.31,319.34 334.68,322.97 333.06,326.6 331.44,330.23 329.83,333.87 328.23,337.51" fill="none" stroke="#1a1a1a" stroke-width="0.7" stroke-opacity="0.55" stroke-linecap="round" stroke-linejoin="round" />
  <polyline points="329.26,308.88 327.58,312.46 325.89,316.04 324.22,319.62 322.55,323.2 320.9,326.79 319.23,330.37 317.53,333.95" fill="none" stroke="#1a1a1a" stroke-width="0.7" stroke-opacity="0.55" stroke-linecap="round" stroke-linejoin="round" />
  <polyline points="318.97,304.62 317.32,308.25 315.7,311.87 314.08,315.51 312.46,319.14 310.84,322.77 309.21,326.4 307.56,330.01 305.88,333.6" fill="none" stroke="#1a1a1a" stroke-width="0.7" stroke-opacity="0.55" stroke-linecap="round" stroke-linejoin="round" />
  <polyline points="309.21,299.78 307.54,303.33 305.87,306.89 304.19,310.45 302.51,314.03 300.83,317.61 299.18,321.21 297.55,324.84 295.94,328.51" fill="none" stroke="#1a1a1a" stroke-width="0.7" stroke-opacity="0.55" stroke-linecap="round" stroke-linejoin="round" />
  <polyline points="299.82,294.45 298.18,298.06 296.54,301.66 294.87,305.24 293.16,308.79 291.45,312.31 289.78,315.83 288.17,319.4 286.59,323.06 284.86,326.72" fill="none" stroke="#1a1a1a" stroke-width="0.7" stroke-opacity="0.55" stroke-linecap="round" stroke-linejoin="round" />
  <polyline points="290.39,287.74 288.73,291.34 287.08,294.94 285.45,298.52 283.82,302.11 282.2,305.71 280.57,309.3 278.93,312.89 277.28,316.46 275.63,320.05" fill="none" stroke="#1a1a1a" stroke-width="0.7" stroke-opacity="0.55" stroke-linecap="round" stroke-linejoin="round" />
  <polyline points="281.81,280.54 280.16,284.17 278.52,287.81 276.9,291.43 275.28,295.03 273.67,298.62 272.03,302.21 270.35,305.82 268.62,309.47 266.86,313.07" fill="none" stroke="#1a1a1a" stroke-width="0.7" stroke-opacity="0.55" stroke-linecap="round" stroke-linejoin="round" />
  <polyline points="273.55,272.01 271.84,275.63 270.13,279.24 268.42,282.83 266.72,286.41 265.02,289.97 263.34,293.54 261.68,297.13 260.04,300.74 258.4,304.33 256.74,307.8" fill="none" stroke="#1a1a1a" stroke-width="0.7" stroke-opacity="0.55" stroke-linecap="round" stroke-linejoin="round" />
  <polyline points="265.62,263.09 263.95,266.67 262.28,270.23 260.62,273.77 258.96,277.31 257.3,280.85 255.64,284.39 253.98,287.97 252.33,291.62 250.7,295.27 249.28,298.81" fill="none" stroke="#1a1a1a" stroke-width="0.7" stroke-opacity="0.55" stroke-linecap="round" stroke-linejoin="round" />
  <polyline points="258.07,253.12 256.4,256.7 254.72,260.28 253.05,263.83 251.38,267.37 249.73,270.9 248.1,274.44 246.5,278 244.91,281.6 243.33,285.1 241.89,288.39" fill="none" stroke="#1a1a1a" stroke-width="0.7" stroke-opacity="0.55" stroke-linecap="round" stroke-linejoin="round" />
  <polyline points="251.64,241.22 249.98,244.78 248.31,248.36 246.62,251.95 244.93,255.54 243.24,259.13 241.55,262.74 239.85,266.37 238.13,270.04 236.39,273.7 234.67,277.33" fill="none" stroke="#1a1a1a" stroke-width="0.7" stroke-opacity="0.55" stroke-linecap="round" stroke-linejoin="round" />
  <polyline points="244.01,231.68 242.29,235.32 240.56,238.96 238.83,242.59 237.11,246.19 235.41,249.77 233.73,253.32 232.1,256.85 230.54,260.36 228.92,263.96" fill="none" stroke="#1a1a1a" stroke-width="0.7" stroke-opacity="0.55" stroke-linecap="round" stroke-linejoin="round" />
  <polyline points="240.33,213.61 238.7,217.15 237.08,220.69 235.46,224.24 233.85,227.81 232.24,231.39 230.63,234.98 229.02,238.56 227.42,242.14 225.77,245.69 223.96,249.28" fill="none" stroke="#1a1a1a" stroke-width="0.7" stroke-opacity="0.55" stroke-linecap="round" stroke-linejoin="round" />
  <polyline points="236.56,195.13 234.85,198.75 233.16,202.35 231.47,205.94 229.79,209.52 228.1,213.08 226.41,216.63 224.71,220.18 223,223.72 221.33,227.28 219.94,230.9" fill="none" stroke="#1a1a1a" stroke-width="0.7" stroke-opacity="0.55" stroke-linecap="round" stroke-linejoin="round" />
  <polyline points="266.85,104.52 265.23,108.09" fill="none" stroke="#1a1a1a" stroke-width="0.7" stroke-opacity="0.55" stroke-linecap="round" stroke-linejoin="round" />
  <polyline points="237.02,168.45 235.36,172.01 233.71,175.57 232.05,179.13 230.4,182.69 228.74,186.25 227.1,189.82 225.45,193.4 223.81,196.99 222.17,200.58 220.51,204.15 218.9,207.76" fill="none" stroke="#1a1a1a" stroke-width="0.7" stroke-opacity="0.55" stroke-linecap="round" stroke-linejoin="round" />
  <polyline points="239.66,136.85 237.94,140.52 236.23,144.18 234.53,147.82 232.83,151.46 231.15,155.08 229.48,158.7 227.82,162.3 226.16,165.84" fill="none" stroke="#1a1a1a" stroke-width="0.7" stroke-opacity="0.55" stroke-linecap="round" stroke-linejoin="round" />
  <polyline points="208.79,228.03 212.79,228.04 216.78,228.05" fill="none" stroke="#1a1a1a" stroke-width="0.7" stroke-opacity="0.55" stroke-linecap="round" stroke-linejoin="round" />
  <polyline points="500.23,227.98 504.22,227.98 508.22,227.99 512.21,227.99 516.19,228 520.17,228 524.15,228.02" fill="none" stroke="#1a1a1a" stroke-width="0.7" stroke-opacity="0.55" stroke-linecap="round" stroke-linejoin="round" />
  <polyline points="178.27,240.11 182.28,240.1 186.29,240.08 190.29,240.05 194.28,240.01 198.27,239.97 202.25,239.92 206.22,239.89 210.2,239.86 214.18,239.83 218.16,239.82" fill="none" stroke="#1a1a1a" stroke-width="0.7" stroke-opacity="0.55" stroke-linecap="round" stroke-linejoin="round" />
  <polyline points="501.05,240.01 505.04,240.01 509.03,240.01 513.03,240.02 517.03,240.04 521.02,240.07 525,240.09 528.98,240.11 532.96,240.13 536.92,240.13 540.88,240.13 544.84,240.12 548.8,240.11 552.77,240.1 556.74,240.11 560.73,240.11 564.72,240.11 568.72,240.11 572.73,240.09 576.75,240.07" fill="none" stroke="#1a1a1a" stroke-width="0.7" stroke-opacity="0.55" stroke-linecap="round" stroke-linejoin="round" />
  <polyline points="147.66,251.88 151.63,251.88 155.61,251.89 159.59,251.9 163.56,251.91 167.54,251.91 171.52,251.91 175.52,251.91 179.51,251.91 183.51,251.92 187.51,251.92 191.5,251.93 195.48,251.94 199.46,251.95 203.44,251.96 207.41,251.96 211.38,251.96 215.35,251.95 219.32,251.93 223.3,251.92" fill="none" stroke="#1a1a1a" stroke-width="0.7" stroke-opacity="0.55" stroke-linecap="round" stroke-linejoin="round" />
  <polyline points="497.99,251.95 501.96,251.97 505.92,251.99 509.89,252.01 513.86,252.03 517.84,252.05 521.82,252.06 525.81,252.07 529.81,252.07 533.8,252.06 537.79,252.05 541.78,252.04 545.76,252.02 549.75,252.01 553.74,252 557.73,252 561.72,252 565.71,251.99 569.7,251.99 573.68,251.99 577.66,251.99 581.64,251.99 585.61,251.99 589.58,252 593.54,252.01 597.5,252.01 601.47,252.02 605.43,252.02 609.4,252.03 613.38,252.04 617.36,252.05 621.34,252.05 625.33,252.05 629.33,252.05" fill="none" stroke="#1a1a1a" stroke-width="0.7" stroke-opacity="0.55" stroke-linecap="round" stroke-linejoin="round" />
  <polyline points="117.4,264.12 121.41,264.12 125.42,264.12 129.43,264.12 133.42,264.12 137.41,264.11 141.41,264.09 145.4,264.08 149.4,264.06 153.39,264.04 157.38,264.03 161.36,264.02 165.34,264.01 169.33,264.01 173.3,264.01 177.28,264.01 181.26,264.01 185.24,264.01 189.23,264.01 193.23,264.01 197.24,264.02 201.25,264.03 205.27,264.05 209.28,264.07 213.29,264.1 217.3,264.12 221.3,264.14 225.3,264.16" fill="none" stroke="#1a1a1a" stroke-width="0.7" stroke-opacity="0.55" stroke-linecap="round" stroke-linejoin="round" />
  <polyline points="492.88,263.94 496.86,263.92 500.85,263.91 504.83,263.89 508.81,263.88 512.8,263.88 516.79,263.88 520.78,263.88 524.78,263.88 528.78,263.89 532.79,263.89 536.81,263.91 540.83,263.92 544.85,263.94 548.86,263.95 552.86,263.97 556.86,263.99 560.85,264 564.84,264 568.83,264.01 572.82,264 576.79,264 580.77,263.99 584.74,263.97 588.71,263.96 592.69,263.95 596.67,263.94 600.65,263.93 604.65,263.92 608.65,263.93 612.67,263.93 616.7,263.95 620.74,263.96 624.77,263.98 628.8,264.01 632.81,264.03 636.82,264.06 640.81,264.08 644.8,264.11 648.79,264.13 652.77,264.14 656.76,264.16 660.74,264.16" fill="none" stroke="#1a1a1a" stroke-width="0.7" stroke-opacity="0.55" stroke-linecap="round" stroke-linejoin="round" />
  <polyline points="86.91,276.12 90.89,276.11 94.86,276.09 98.83,276.06 102.8,276.03 106.76,276 110.73,275.98 114.7,275.95 118.66,275.94 122.63,275.92 126.6,275.91 130.57,275.91 134.54,275.93 138.51,275.94 142.49,275.97 146.47,275.99 150.44,276.01 154.41,276.02 158.38,276.03 162.36,276.02 166.34,276.01 170.33,276 174.32,275.99 178.32,275.99 182.32,276 186.34,276.01 190.36,276.03 194.38,276.05 198.4,276.06 202.42,276.06 206.44,276.07 210.45,276.06 214.45,276.06 218.43,276.06 222.41,276.06 226.39,276.07 230.36,276.08 234.32,276.09" fill="none" stroke="#1a1a1a" stroke-width="0.7" stroke-opacity="0.55" stroke-linecap="round" stroke-linejoin="round" />
  <polyline points="489.15,275.95 493.14,275.95 497.12,275.95 501.1,275.95 505.07,275.94 509.05,275.93 513.03,275.92 517,275.91 520.98,275.91 524.96,275.91 528.93,275.92 532.91,275.94 536.89,275.95 540.87,275.97 544.85,275.98 548.82,275.98 552.8,275.98 556.78,275.97 560.76,275.95 564.75,275.94 568.75,275.94 572.74,275.94 576.73,275.95 580.72,275.96 584.7,275.97 588.68,275.98 592.65,275.99 596.62,276 600.58,276 604.55,276.01 608.52,276.02 612.49,276.03 616.47,276.04 620.44,276.04 624.42,276.05 628.39,276.05 632.37,276.05 636.36,276.04 640.35,276.04 644.34,276.03 648.33,276.03 652.32,276.03" fill="none" stroke="#1a1a1a" stroke-width="0.7" stroke-opacity="0.55" stroke-linecap="round" stroke-linejoin="round" />
  <polyline points="56.32,288.06 60.31,288.05 64.3,288.05 68.29,288.04 72.29,288.04 76.3,288.04 80.31,288.04 84.32,288.03 88.33,288.02 92.34,288 96.35,287.99 100.36,287.98 104.36,287.98 108.36,287.98 112.36,287.98 116.36,287.98 120.35,287.98 124.34,287.98 128.33,287.98 132.31,287.98 136.3,287.97 140.28,287.96 144.26,287.96 148.24,287.95 152.22,287.95 156.21,287.94 160.2,287.93 164.19,287.92 168.19,287.91 172.19,287.9 176.19,287.89 180.2,287.87 184.2,287.86 188.19,287.85 192.18,287.84 196.17,287.83 200.16,287.84 204.16,287.84 208.16,287.86 212.16,287.87 216.17,287.89 220.19,287.91 224.2,287.94 228.21,287.97 232.21,287.99 236.2,288.02 240.18,288.04" fill="none" stroke="#1a1a1a" stroke-width="0.7" stroke-opacity="0.55" stroke-linecap="round" stroke-linejoin="round" />
  <polyline points="479.88,287.89 483.87,287.89 487.87,287.89 491.87,287.89 495.87,287.88 499.87,287.87 503.87,287.86 507.86,287.85 511.85,287.85 515.84,287.85 519.83,287.86 523.83,287.87 527.83,287.89 531.83,287.91 535.84,287.94 539.85,287.97 543.85,288 547.85,288.03 551.83,288.05 555.81,288.07 559.79,288.08 563.76,288.08 567.73,288.08 571.7,288.07 575.67,288.06 579.65,288.05 583.64,288.05 587.62,288.04 591.61,288.04 595.61,288.04 599.61,288.03 603.61,288.03 607.62,288.02 611.64,288.01 615.65,288.01 619.68,288 623.7,288 627.73,288 631.76,288 635.78,288.01 639.79,288.01 643.8,288.02" fill="none" stroke="#1a1a1a" stroke-width="0.7" stroke-opacity="0.55" stroke-linecap="round" stroke-linejoin="round" />
  <polyline points="25.9,299.95 29.89,299.94 33.89,299.93 37.88,299.93 41.87,299.93 45.86,299.93 49.84,299.93 53.82,299.94 57.8,299.94 61.78,299.94 65.75,299.93 69.73,299.93 73.71,299.92 77.7,299.91 81.68,299.9 85.66,299.89 89.64,299.89 93.62,299.89 97.59,299.89 101.56,299.9 105.54,299.92 109.51,299.94 113.49,299.96 117.47,299.98 121.46,300.01 125.44,300.03 129.43,300.04 133.42,300.06 137.42,300.06 141.41,300.07 145.4,300.07 149.39,300.08 153.38,300.08 157.36,300.08 161.35,300.07 165.33,300.06 169.3,300.06 173.27,300.05 177.24,300.05 181.22,300.06 185.2,300.07 189.19,300.08 193.18,300.09 197.18,300.1 201.18,300.12 205.17,300.14 209.17,300.16 213.16,300.18 217.15,300.2 221.14,300.21 225.12,300.22 229.11,300.23 233.09,300.22 237.07,300.21 241.05,300.2 245.03,300.19 249.01,300.18" fill="none" stroke="#1a1a1a" stroke-width="0.7" stroke-opacity="0.55" stroke-linecap="round" stroke-linejoin="round" />
  <polyline points="472.02,300.05 476.02,300.04 480.01,300.04 484.01,300.04 488,300.03 491.99,300.03 495.98,300.02 499.96,300.01 503.94,300.01 507.91,300 511.88,299.99 515.85,299.98 519.82,299.98 523.8,299.97 527.77,299.97 531.76,299.97 535.74,299.97 539.73,299.97 543.71,299.97 547.7,299.97 551.69,299.97 555.68,299.97 559.67,299.97 563.65,299.96 567.63,299.96 571.61,299.95 575.59,299.94 579.57,299.93 583.55,299.92 587.53,299.91 591.51,299.91 595.5,299.9 599.48,299.9 603.47,299.9 607.45,299.9 611.42,299.9 615.4,299.9 619.38,299.9 623.36,299.9 627.35,299.9 631.33,299.9 635.32,299.9" fill="none" stroke="#1a1a1a" stroke-width="0.7" stroke-opacity="0.55" stroke-linecap="round" stroke-linejoin="round" />
  <polyline points="15.61,311.87 19.59,311.84 23.58,311.82 27.56,311.8 31.54,311.8 35.53,311.79 39.51,311.8 43.5,311.8 47.49,311.81 51.49,311.83 55.48,311.85 59.47,311.88 63.45,311.9 67.44,311.93 71.43,311.96 75.42,311.98 79.41,312 83.4,312.02 87.39,312.03 91.38,312.04 95.38,312.04 99.38,312.04 103.38,312.04 107.38,312.04 111.39,312.03 115.39,312.03 119.4,312.02 123.4,312.02 127.41,312.02 131.4,312.02 135.39,312.02 139.38,312.01 143.36,312 147.33,312 151.3,311.99 155.28,311.99 159.25,311.99 163.23,311.99 167.21,312 171.19,312.01 175.17,312.02 179.15,312.04 183.13,312.05 187.1,312.07 191.08,312.08 195.05,312.08 199.03,312.07 203.02,312.06 207.01,312.05 211.01,312.05 215.01,312.04 219.02,312.04 223.03,312.05 227.04,312.07 231.05,312.09 235.06,312.11 239.07,312.13 243.08,312.14 247.09,312.14 251.09,312.14 255.09,312.13 259.09,312.12" fill="none" stroke="#1a1a1a" stroke-width="0.7" stroke-opacity="0.55" stroke-linecap="round" stroke-linejoin="round" />
  <polyline points="462.93,312.18 466.93,312.18 470.93,312.17 474.92,312.16 478.92,312.14 482.91,312.13 486.9,312.11 490.89,312.1 494.87,312.09 498.85,312.08 502.82,312.07 506.8,312.06 510.78,312.05 514.76,312.04 518.74,312.02 522.74,312 526.73,311.99 530.73,311.98 534.74,311.96 538.74,311.95 542.75,311.94 546.76,311.93 550.77,311.92 554.77,311.92 558.78,311.91 562.78,311.91 566.78,311.91 570.77,311.9 574.77,311.89 578.75,311.89 582.74,311.88 586.72,311.88 590.7,311.87 594.69,311.86 598.67,311.85 602.65,311.85 606.63,311.85 610.6,311.86 614.57,311.87 618.54,311.88 622.51,311.9 626.48,311.91" fill="none" stroke="#1a1a1a" stroke-width="0.7" stroke-opacity="0.55" stroke-linecap="round" stroke-linejoin="round" />
  <polyline points="37.74,323.87 41.71,323.87 45.67,323.87 49.64,323.88 53.6,323.88 57.56,323.88 61.53,323.88 65.5,323.88 69.47,323.88 73.44,323.88 77.42,323.88 81.4,323.88 85.38,323.87 89.36,323.87 93.34,323.86 97.32,323.86 101.3,323.85 105.29,323.85 109.27,323.84 113.25,323.83 117.23,323.83 121.21,323.83 125.2,323.83 129.18,323.83 133.16,323.84 137.15,323.85 141.13,323.87 145.11,323.89 149.09,323.92 153.06,323.94 157.03,323.97 161,324 164.97,324.02 168.93,324.04 172.88,324.06 176.84,324.07 180.79,324.09 184.74,324.1 188.69,324.1 192.64,324.11 196.59,324.11 200.55,324.11 204.51,324.12 208.47,324.13 212.45,324.14 216.44,324.15 220.43,324.16 224.42,324.16 228.42,324.17 232.42,324.17 236.41,324.17 240.41,324.17 244.4,324.17 248.39,324.17 252.38,324.16 256.36,324.16 260.34,324.16 264.31,324.15 268.28,324.15 272.26,324.16 276.23,324.16 280.21,324.17" fill="none" stroke="#1a1a1a" stroke-width="0.7" stroke-opacity="0.55" stroke-linecap="round" stroke-linejoin="round" />
  <polyline points="443.19,323.89 447.15,323.89 451.11,323.89 455.07,323.89 459.04,323.89 463.01,323.9 466.98,323.9 470.96,323.9 474.94,323.91 478.92,323.9 482.91,323.9 486.9,323.9 490.89,323.9 494.88,323.9 498.86,323.92 502.85,323.93 506.83,323.95 510.8,323.96 514.77,323.97 518.74,323.98 522.71,323.98 526.68,323.98 530.65,323.97 534.63,323.96 538.61,323.96 542.59,323.96 546.58,323.96 550.56,323.98 554.54,323.99 558.52,324.01 562.5,324.03 566.48,324.06 570.46,324.07 574.44,324.09 578.42,324.1 582.4,324.11 586.38,324.12 590.36,324.12 594.34,324.12 598.32,324.12 602.29,324.11 606.26,324.1 610.22,324.09 614.18,324.08 618.13,324.07" fill="none" stroke="#1a1a1a" stroke-width="0.7" stroke-opacity="0.55" stroke-linecap="round" stroke-linejoin="round" />
  <polyline points="59.77,335.91 63.76,335.92 67.75,335.92 71.74,335.93 75.74,335.94 79.73,335.95 83.73,335.95 87.73,335.96 91.73,335.96 95.73,335.96 99.73,335.96 103.72,335.95 107.71,335.95 111.69,335.96 115.67,335.96 119.64,335.97 123.61,335.97 127.57,335.97 131.53,335.97 135.49,335.97 139.45,335.96 143.4,335.94 147.36,335.93 151.33,335.91 155.3,335.9 159.28,335.89 163.26,335.88 167.25,335.87 171.24,335.86 175.22,335.86 179.2,335.86 183.19,335.86 187.18,335.87 191.17,335.88 195.16,335.9 199.15,335.91 203.14,335.93 207.12,335.95 211.11,335.97 215.09,335.99 219.07,336.01 223.05,336.03 227.02,336.04 231,336.06 234.98,336.07 238.96,336.07 242.93,336.07 246.91,336.07 250.89,336.06 254.87,336.05 258.85,336.03 262.83,336.01 266.81,336 270.79,336 274.78,336 278.78,336 282.78,336.01 286.78,336.02 290.79,336.03 294.79,336.03 298.8,336.04 302.81,336.04 306.81,336.04 310.81,336.04 314.81,336.05 318.8,336.05 322.79,336.05" fill="none" stroke="#1a1a1a" stroke-width="0.7" stroke-opacity="0.55" stroke-linecap="round" stroke-linejoin="round" />
  <polyline points="398.44,336 402.41,336.02 406.38,336.04 410.34,336.06 414.31,336.08 418.28,336.1 422.26,336.12 426.23,336.13 430.21,336.15 434.19,336.16 438.18,336.17 442.17,336.17 446.16,336.18 450.15,336.17 454.15,336.17 458.15,336.16 462.16,336.15 466.17,336.13 470.18,336.12 474.19,336.11 478.2,336.09 482.2,336.08 486.2,336.07 490.18,336.06 494.16,336.05 498.14,336.05 502.11,336.06 506.08,336.07 510.05,336.09 514.01,336.1 517.97,336.12 521.93,336.13 525.89,336.14 529.85,336.14 533.81,336.13 537.78,336.11 541.76,336.1 545.74,336.08 549.74,336.06 553.73,336.05 557.72,336.05 561.72,336.04 565.71,336.05 569.7,336.06 573.69,336.07 577.67,336.08 581.65,336.09 585.63,336.11 589.61,336.12 593.59,336.13 597.56,336.14 601.54,336.15 605.52,336.15 609.5,336.15" fill="none" stroke="#1a1a1a" stroke-width="0.7" stroke-opacity="0.55" stroke-linecap="round" stroke-linejoin="round" />
  <polyline points="82.06,347.93 86.04,347.94 90.03,347.95 94.02,347.96 98.02,347.96 102.03,347.97 106.05,347.98 110.06,347.99 114.08,348 118.1,348.02 122.11,348.03 126.12,348.05 130.12,348.06 134.12,348.07 138.12,348.08 142.11,348.08 146.09,348.09 150.08,348.09 154.06,348.09 158.03,348.1 162,348.1 165.96,348.11 169.93,348.12 173.9,348.13 177.87,348.14 181.85,348.14 185.83,348.14 189.82,348.15 193.81,348.15 197.8,348.15 201.79,348.14 205.79,348.14 209.79,348.14 213.8,348.13 217.8,348.12 221.8,348.12 225.8,348.11 229.79,348.1 233.77,348.09 237.75,348.09 241.72,348.08 245.7,348.07 249.68,348.06 253.66,348.04 257.64,348.03 261.63,348.02 265.62,348 269.61,347.99 273.61,347.98 277.61,347.97 281.61,347.96 285.61,347.96 289.62,347.96 293.62,347.97 297.62,347.98 301.62,348 305.62,348.02 309.61,348.05 313.6,348.07 317.58,348.09 321.56,348.1 325.53,348.11 329.51,348.12 333.49,348.11 337.47,348.11 341.46,348.1 345.45,348.08 349.44,348.07 353.43,348.05 357.42,348.04 361.42,348.03 365.42,348.02 369.42,348.01 373.42,348.01 377.41,348.01 381.41,348.01 385.39,348.01 389.38,348.02 393.36,348.02 397.33,348.03 401.31,348.03 405.29,348.04 409.27,348.04 413.25,348.04 417.23,348.04 421.22,348.04 425.2,348.04 429.19,348.03 433.18,348.02 437.17,348.01 441.17,348 445.17,347.98 449.17,347.97 453.17,347.97 457.17,347.96 461.18,347.97 465.18,347.97 469.19,347.98 473.2,348 477.2,348.01 481.21,348.03 485.21,348.04 489.2,348.06 493.19,348.08 497.17,348.1 501.15,348.11 505.12,348.12 509.09,348.13 513.07,348.12 517.04,348.11 521.02,348.1 525,348.08 528.99,348.06 532.99,348.04 536.99,348.02 540.99,348.01 544.98,348 548.98,348 552.97,348 556.96,348 560.95,348 564.93,348 568.92,347.99 572.9,347.99 576.88,347.99 580.86,347.99 584.84,347.99 588.81,348 592.78,348.01 596.76,348.02 600.73,348.04" fill="none" stroke="#1a1a1a" stroke-width="0.7" stroke-opacity="0.55" stroke-linecap="round" stroke-linejoin="round" />
  <polyline points="104.44,359.8 108.43,359.8 112.42,359.8 116.41,359.8 120.39,359.81 124.38,359.81 128.36,359.82 132.35,359.83 136.34,359.84 140.33,359.86 144.32,359.87 148.32,359.89 152.32,359.91 156.32,359.93 160.32,359.95 164.33,359.97 168.33,359.99 172.33,360.01 176.34,360.03 180.34,360.04 184.34,360.06 188.35,360.07 192.35,360.08 196.35,360.09 200.36,360.1 204.36,360.1 208.36,360.1 212.37,360.1 216.37,360.1 220.37,360.09 224.37,360.07 228.36,360.05 232.36,360.03 236.35,360.02 240.34,360 244.32,359.99 248.31,359.98 252.3,359.97 256.29,359.97 260.28,359.97 264.27,359.97 268.27,359.98 272.27,359.99 276.28,359.99 280.29,360 284.31,360.01 288.32,360.02 292.34,360.02 296.35,360.02 300.37,360.02 304.38,360.02 308.4,360.01 312.41,359.99 316.42,359.98 320.43,359.98 324.43,359.97 328.43,359.98 332.44,359.98 336.44,359.99 340.46,360 344.47,360.01 348.49,360.02 352.51,360.02 356.53,360.02 360.54,360.01 364.55,360 368.56,359.99 372.55,359.98 376.55,359.96 380.54,359.94 384.54,359.93 388.54,359.92 392.54,359.91 396.54,359.91 400.54,359.91 404.54,359.92 408.55,359.93 412.55,359.94 416.55,359.96 420.55,359.98 424.54,360 428.54,360.01 432.53,360.03 436.53,360.04 440.52,360.04 444.51,360.05 448.5,360.04 452.49,360.04 456.49,360.04 460.48,360.03 464.47,360.03 468.47,360.02 472.47,360.01 476.46,360.01 480.46,360 484.46,359.99 488.46,359.99 492.46,359.99 496.46,359.98 500.46,359.98 504.46,359.98 508.46,359.98 512.45,359.97 516.44,359.98 520.44,359.98 524.43,359.98 528.42,359.99 532.42,360 536.42,360.01 540.42,360.01 544.43,360.02 548.44,360.02 552.44,360.02 556.45,360.02 560.45,360.02 564.46,360.02 568.46,360.01 572.46,360 576.47,359.99 580.48,359.97 584.48,359.96 588.49,359.94 592.49,359.92" fill="none" stroke="#1a1a1a" stroke-width="0.7" stroke-opacity="0.55" stroke-linecap="round" stroke-linejoin="round" />
  <polyline points="126.69,372 130.66,372.01 134.63,372.03 138.6,372.04 142.57,372.05 146.54,372.06 150.51,372.07 154.48,372.08 158.44,372.09 162.41,372.1 166.37,372.11 170.34,372.12 174.3,372.12 178.26,372.12 182.22,372.12 186.19,372.12 190.15,372.11 194.12,372.1 198.1,372.09 202.07,372.07 206.06,372.06 210.04,372.04 214.03,372.03 218.01,372.01 221.99,372 225.97,371.99 229.94,371.99 233.91,371.98 237.87,371.98 241.84,371.98 245.8,371.98 249.76,371.99 253.73,371.99 257.71,372 261.69,372.01 265.68,372.02 269.67,372.03 273.66,372.04 277.66,372.05 281.65,372.05 285.64,372.06 289.62,372.07 293.61,372.07 297.59,372.08 301.57,372.08 305.55,372.08 309.54,372.07 313.52,372.07 317.5,372.06 321.48,372.05 325.46,372.04 329.44,372.02 333.42,372 337.4,371.99 341.38,371.97 345.36,371.95 349.34,371.94 353.31,371.93 357.29,371.91 361.27,371.91 365.24,371.9 369.21,371.89 373.18,371.89 377.14,371.89 381.1,371.89 385.06,371.89 389.02,371.88 392.98,371.88 396.94,371.89 400.91,371.89 404.87,371.89 408.84,371.9 412.81,371.9 416.79,371.9 420.76,371.91 424.73,371.91 428.71,371.91 432.68,371.92 436.65,371.92 440.63,371.93 444.6,371.94 448.57,371.95 452.54,371.97 456.5,371.98 460.46,371.99 464.42,372 468.37,372.01 472.33,372.01 476.28,372.01 480.24,372 484.2,372 488.17,371.99 492.14,371.98 496.12,371.98 500.1,371.97 504.08,371.96 508.06,371.96 512.04,371.96 516.02,371.96 520.01,371.97 524,371.98 527.99,371.99 531.98,372 535.97,372.01 539.96,372.03 543.94,372.04 547.93,372.05 551.92,372.06 555.9,372.06 559.88,372.06 563.86,372.06 567.84,372.05 571.81,372.05 575.78,372.04 579.75,372.04 583.71,372.03" fill="none" stroke="#1a1a1a" stroke-width="0.7" stroke-opacity="0.55" stroke-linecap="round" stroke-linejoin="round" />
  <polyline points="148.88,384.07 152.86,384.06 156.84,384.05 160.82,384.04 164.8,384.03 168.78,384.03 172.77,384.02 176.75,384.02 180.74,384.01 184.72,384.01 188.71,384.01 192.69,384.01 196.68,384.01 200.66,384.01 204.64,384.01 208.62,384.01 212.61,384.01 216.59,384 220.56,383.99 224.54,383.99 228.52,383.98 232.5,383.98 236.48,383.97 240.46,383.97 244.44,383.97 248.41,383.98 252.39,383.98 256.36,383.98 260.33,383.98 264.3,383.97 268.27,383.97 272.24,383.95 276.22,383.93 280.2,383.92 284.18,383.9 288.16,383.88 292.15,383.87 296.15,383.85 300.15,383.84 304.15,383.83 308.15,383.82 312.15,383.82 316.14,383.81 320.13,383.81 324.12,383.81 328.1,383.81 332.09,383.83 336.07,383.85 340.06,383.87 344.05,383.89 348.05,383.91 352.05,383.93 356.05,383.94 360.05,383.94 364.05,383.94 368.05,383.93 372.05,383.91 376.05,383.89 380.04,383.87 384.03,383.85 388.02,383.83 392.01,383.81 396,383.79 399.98,383.78 403.96,383.77 407.93,383.76 411.91,383.75 415.88,383.75 419.85,383.75 423.81,383.75 427.78,383.76 431.74,383.77 435.71,383.78 439.67,383.79 443.63,383.8 447.59,383.81 451.56,383.81 455.52,383.81 459.49,383.82 463.46,383.81 467.43,383.81 471.41,383.81 475.38,383.82 479.36,383.82 483.34,383.83 487.32,383.84 491.31,383.85 495.29,383.86 499.28,383.87 503.26,383.88 507.25,383.88 511.25,383.89 515.24,383.88 519.24,383.88 523.24,383.88 527.25,383.87 531.25,383.87 535.26,383.87 539.26,383.87 543.27,383.88 547.27,383.89 551.27,383.89 555.27,383.9 559.26,383.9 563.25,383.9 567.24,383.89 571.23,383.88 575.21,383.87" fill="none" stroke="#1a1a1a" stroke-width="0.7" stroke-opacity="0.55" stroke-linecap="round" stroke-linejoin="round" />
  <polyline points="171.33,395.86 175.32,395.86 179.32,395.87 183.31,395.87 187.3,395.87 191.28,395.87 195.27,395.87 199.26,395.88 203.24,395.88 207.23,395.88 211.21,395.88 215.2,395.88 219.19,395.89 223.19,395.89 227.18,395.9 231.18,395.9 235.17,395.91 239.16,395.92 243.15,395.92 247.15,395.93 251.14,395.94 255.13,395.94 259.13,395.95 263.12,395.96 267.12,395.96 271.12,395.96 275.12,395.96 279.12,395.95 283.11,395.94 287.11,395.93 291.1,395.92 295.09,395.9 299.07,395.89 303.06,395.88 307.05,395.88 311.03,395.87 315.02,395.87 319.01,395.87 323,395.87 326.99,395.87 330.99,395.86 334.98,395.85 338.98,395.84 342.97,395.83 346.97,395.82 350.96,395.81 354.94,395.8 358.93,395.79 362.91,395.79 366.9,395.8 370.88,395.81 374.87,395.82 378.86,395.83 382.84,395.85 386.83,395.86 390.83,395.88 394.82,395.89 398.82,395.89 402.82,395.89 406.82,395.89 410.82,395.89 414.82,395.89 418.82,395.89 422.82,395.89 426.82,395.89 430.83,395.89 434.84,395.9 438.85,395.9 442.86,395.9 446.88,395.9 450.9,395.9 454.91,395.89 458.93,395.89 462.94,395.88 466.95,395.87 470.95,395.87 474.95,395.86 478.94,395.86 482.93,395.86 486.91,395.86 490.9,395.86 494.88,395.87 498.87,395.87 502.86,395.88 506.86,395.88 510.85,395.88 514.85,395.89 518.85,395.88 522.85,395.88 526.85,395.87 530.84,395.87 534.83,395.86 538.82,395.85 542.8,395.85 546.79,395.84 550.77,395.84 554.76,395.84 558.75,395.83 562.74,395.83 566.74,395.84" fill="none" stroke="#1a1a1a" stroke-width="0.7" stroke-opacity="0.55" stroke-linecap="round" stroke-linejoin="round" />
  <polyline points="193.48,407.91 197.46,407.91 201.45,407.9 205.43,407.9 209.4,407.89 213.38,407.89 217.35,407.89 221.33,407.88 225.3,407.88 229.26,407.87 233.23,407.87 237.19,407.87 241.16,407.87 245.12,407.88 249.09,407.89 253.05,407.9 257.02,407.92 260.99,407.93 264.96,407.94 268.93,407.94 272.91,407.94 276.88,407.94 280.85,407.94 284.81,407.93 288.77,407.92 292.73,407.92 296.68,407.91 300.63,407.91 304.58,407.91 308.53,407.92 312.48,407.93 316.43,407.95 320.39,407.96 324.34,407.97 328.3,407.98 332.26,407.99 336.23,407.99 340.19,407.99 344.14,407.98 348.1,407.97 352.05,407.97 355.99,407.96 359.94,407.95 363.88,407.95 367.83,407.94 371.77,407.94 375.72,407.94 379.68,407.93 383.63,407.93 387.6,407.93 391.56,407.93 395.53,407.93 399.51,407.93 403.48,407.93 407.46,407.93 411.43,407.92 415.4,407.92 419.37,407.92 423.35,407.93 427.32,407.93 431.29,407.94 435.26,407.95 439.23,407.97 443.2,407.98 447.17,408 451.14,408.01 455.11,408.02 459.08,408.03 463.04,408.04 467,408.06 470.97,408.07 474.93,408.08 478.88,408.09 482.83,408.1 486.78,408.11 490.72,408.12 494.67,408.12 498.61,408.12 502.56,408.11 506.51,408.11 510.46,408.1 514.41,408.1 518.37,408.09 522.33,408.09 526.3,408.08 530.26,408.08 534.23,408.07 538.21,408.07 542.18,408.06 546.16,408.06 550.14,408.06 554.12,408.05 558.1,408.05" fill="none" stroke="#1a1a1a" stroke-width="0.7" stroke-opacity="0.55" stroke-linecap="round" stroke-linejoin="round" />
  <polyline points="215.79,419.91 219.76,419.91 223.74,419.9 227.72,419.9 231.7,419.9 235.68,419.91 239.65,419.91 243.63,419.91 247.61,419.91 251.58,419.91 255.56,419.91 259.54,419.92 263.51,419.92 267.49,419.92 271.46,419.92 275.44,419.92 279.41,419.93 283.38,419.93 287.35,419.93 291.32,419.93 295.28,419.94 299.24,419.95 303.2,419.96 307.16,419.98 311.13,420 315.09,420.02 319.06,420.05 323.03,420.07 327,420.1 330.97,420.12 334.95,420.14 338.92,420.15 342.9,420.16 346.87,420.16 350.84,420.16 354.81,420.16 358.78,420.16 362.74,420.16 366.7,420.15 370.67,420.15 374.63,420.15 378.6,420.15 382.57,420.15 386.55,420.14 390.53,420.14 394.52,420.14 398.51,420.14 402.49,420.14 406.48,420.13 410.47,420.13 414.46,420.13 418.44,420.12 422.41,420.11 426.39,420.1 430.36,420.09 434.33,420.08 438.29,420.07 442.26,420.06 446.23,420.05 450.2,420.03 454.17,420.02 458.14,420 462.12,419.98 466.09,419.96 470.06,419.94 474.03,419.92 478,419.9 481.97,419.88 485.94,419.86 489.91,419.85 493.88,419.84 497.86,419.83 501.83,419.83 505.8,419.83 509.77,419.83 513.74,419.83 517.72,419.84 521.69,419.84 525.66,419.85 529.64,419.85 533.61,419.85 537.58,419.85 541.55,419.84 545.52,419.84 549.48,419.84" fill="none" stroke="#1a1a1a" stroke-width="0.7" stroke-opacity="0.55" stroke-linecap="round" stroke-linejoin="round" />
  <polyline points="237.83,432.14 241.83,432.12 245.83,432.1 249.83,432.08 253.83,432.06 257.83,432.04 261.82,432.02 265.82,431.99 269.81,431.97 273.81,431.96 277.8,431.94 281.79,431.93 285.79,431.92 289.79,431.91 293.79,431.91 297.79,431.91 301.79,431.9 305.8,431.9 309.8,431.9 313.81,431.9 317.81,431.9 321.81,431.9 325.81,431.9 329.81,431.9 333.8,431.9 337.8,431.9 341.79,431.91 345.77,431.92 349.76,431.93 353.74,431.94 357.73,431.95 361.71,431.96 365.69,431.96 369.67,431.97 373.65,431.97 377.63,431.97 381.61,431.98 385.59,431.98 389.57,431.98 393.54,431.99 397.52,432 401.49,432 405.46,432.01 409.44,432.02 413.41,432.03 417.38,432.03 421.36,432.04 425.34,432.05 429.31,432.05 433.29,432.05 437.27,432.05 441.25,432.05 445.24,432.04 449.22,432.04 453.21,432.03 457.2,432.03 461.2,432.02 465.2,432.02 469.2,432.02 473.21,432.02 477.22,432.02 481.22,432.02 485.23,432.03 489.23,432.04 493.23,432.05 497.22,432.07 501.22,432.08 505.21,432.1 509.2,432.11 513.19,432.13 517.18,432.15 521.17,432.16 525.17,432.18 529.16,432.19 533.16,432.2 537.15,432.21 541.14,432.21" fill="none" stroke="#1a1a1a" stroke-width="0.7" stroke-opacity="0.55" stroke-linecap="round" stroke-linejoin="round" />
  <polyline points="260.16,443.87 264.16,443.88 268.17,443.89 272.17,443.89 276.17,443.9 280.18,443.9 284.18,443.9 288.19,443.9 292.2,443.9 296.21,443.9 300.22,443.9 304.24,443.91 308.25,443.91 312.26,443.92 316.27,443.93 320.28,443.94 324.29,443.95 328.29,443.96 332.29,443.97 336.28,443.98 340.28,443.99 344.28,444 348.28,444 352.27,444.01 356.28,444.02 360.28,444.02 364.28,444.03 368.29,444.04 372.29,444.05 376.3,444.06 380.31,444.07 384.31,444.09 388.32,444.1 392.32,444.11 396.32,444.12 400.32,444.13 404.32,444.14 408.31,444.15 412.31,444.16 416.3,444.16 420.29,444.16 424.29,444.17 428.28,444.17 432.27,444.17 436.27,444.17 440.26,444.17 444.26,444.17 448.26,444.17 452.26,444.16 456.25,444.15 460.25,444.14 464.24,444.13 468.23,444.12 472.22,444.11 476.21,444.11 480.2,444.1 484.2,444.09 488.19,444.08 492.18,444.07 496.18,444.06 500.17,444.05 504.17,444.04 508.18,444.03 512.18,444.02 516.19,444.02 520.19,444.02 524.19,444.02 528.2,444.02 532.2,444.02" fill="none" stroke="#1a1a1a" stroke-width="0.7" stroke-opacity="0.55" stroke-linecap="round" stroke-linejoin="round" />
  <polyline points="282.56,456.02 286.53,456.02 290.49,456.02 294.46,456.02 298.42,456.02 302.39,456.02 306.35,456.01 310.31,456.01 314.28,456.01 318.24,456.01 322.19,456.01 326.15,456.01 330.1,456.01 334.05,456.01 338,456.01 341.94,456.01 345.89,456.02 349.83,456.02 353.77,456.03 357.72,456.03 361.66,456.04 365.61,456.05 369.55,456.05 373.49,456.06 377.43,456.06 381.37,456.07 385.31,456.07 389.25,456.07 393.19,456.07 397.13,456.07 401.06,456.06 405,456.06 408.94,456.05 412.88,456.04 416.82,456.03 420.77,456.02 424.72,456.01 428.67,456 432.62,455.99 436.59,455.98 440.56,455.97 444.53,455.97 448.51,455.96 452.48,455.95 456.46,455.95 460.44,455.95 464.42,455.95 468.39,455.95 472.36,455.95 476.33,455.96 480.3,455.97 484.26,455.97 488.22,455.99 492.18,456 496.15,456.01 500.11,456.03 504.07,456.04 508.03,456.05 511.99,456.07 515.95,456.08 519.91,456.08 523.87,456.09" fill="none" stroke="#1a1a1a" stroke-width="0.7" stroke-opacity="0.55" stroke-linecap="round" stroke-linejoin="round" />
  <polyline points="304.74,468.14 308.72,468.14 312.7,468.14 316.69,468.14 320.67,468.14 324.66,468.13 328.64,468.12 332.63,468.11 336.61,468.1 340.59,468.09 344.57,468.08 348.54,468.07 352.52,468.06 356.49,468.06 360.46,468.05 364.44,468.05 368.41,468.05 372.39,468.04 376.36,468.04 380.34,468.05 384.31,468.05 388.29,468.06 392.26,468.06 396.22,468.07 400.19,468.08 404.15,468.09 408.12,468.1 412.08,468.11 416.04,468.11 420,468.11 423.96,468.12 427.92,468.11 431.88,468.11 435.85,468.11 439.81,468.1 443.78,468.09 447.75,468.09 451.72,468.08 455.69,468.08 459.66,468.08 463.64,468.08 467.61,468.08 471.58,468.08 475.54,468.08 479.51,468.08 483.48,468.09 487.45,468.09 491.42,468.1 495.39,468.1 499.36,468.11 503.33,468.11 507.31,468.11 511.28,468.12 515.26,468.12" fill="none" stroke="#1a1a1a" stroke-width="0.7" stroke-opacity="0.55" stroke-linecap="round" stroke-linejoin="round" />
  <polyline points="327.18,480.18 331.18,480.18 335.17,480.18 339.15,480.18 343.14,480.18 347.13,480.18 351.12,480.18 355.11,480.17 359.11,480.17 363.1,480.16 367.11,480.15 371.11,480.14 375.12,480.13 379.13,480.12 383.13,480.12 387.14,480.11 391.15,480.1 395.16,480.1 399.16,480.09 403.16,480.09 407.15,480.09 411.14,480.08 415.13,480.08 419.12,480.07 423.1,480.06 427.09,480.05 431.07,480.04 435.05,480.03 439.02,480.03 443,480.02 446.98,480.02 450.95,480.02 454.92,480.02 458.9,480.02 462.88,480.02 466.86,480.03 470.84,480.03 474.82,480.04 478.8,480.05 482.79,480.06 486.77,480.07 490.76,480.08 494.75,480.08 498.74,480.09 502.73,480.1 506.72,480.11" fill="none" stroke="#1a1a1a" stroke-width="0.7" stroke-opacity="0.55" stroke-linecap="round" stroke-linejoin="round" />
  <polyline points="349.29,491.86 353.21,491.86 357.13,491.86 361.05,491.86 364.97,491.86 368.89,491.86 372.81,491.86 376.72,491.86 380.64,491.86 384.56,491.86 388.48,491.86 392.39,491.86 396.31,491.86 400.23,491.86 404.15,491.87 408.07,491.87 411.99,491.87 415.92,491.87 419.84,491.87 423.76,491.87 427.68,491.88 431.6,491.88 435.52,491.88 439.44,491.88 443.35,491.88 447.26,491.87 451.16,491.87 455.07,491.87 458.97,491.86 462.87,491.86 466.77,491.85 470.67,491.84 474.57,491.84 478.48,491.83 482.38,491.82 486.29,491.82 490.19,491.81 494.1,491.81 498.01,491.81" fill="none" stroke="#1a1a1a" stroke-width="0.7" stroke-opacity="0.55" stroke-linecap="round" stroke-linejoin="round" />
  <polyline points="371.43,503.93 375.36,503.93 379.29,503.92 383.23,503.91 387.17,503.91 391.11,503.9 395.04,503.9 398.99,503.89 402.93,503.89 406.87,503.89 410.81,503.88 414.75,503.88 418.69,503.88 422.63,503.88 426.57,503.89 430.51,503.89 434.45,503.9 438.39,503.9 442.33,503.91 446.27,503.92 450.2,503.93 454.14,503.94 458.07,503.95 462,503.96 465.94,503.97 469.87,503.98 473.8,503.99 477.73,504 481.67,504.01 485.6,504.01 489.53,504.02" fill="none" stroke="#1a1a1a" stroke-width="0.7" stroke-opacity="0.55" stroke-linecap="round" stroke-linejoin="round" />
  <polyline points="393.74,515.83 397.71,515.83 401.69,515.83 405.67,515.84 409.64,515.84 413.62,515.84 417.59,515.85 421.56,515.86 425.53,515.87 429.49,515.88 433.46,515.89 437.42,515.9 441.38,515.91 445.34,515.93 449.3,515.94 453.25,515.95 457.21,515.97 461.16,515.98 465.11,515.99 469.06,515.99 473.01,516 476.96,516 480.92,516" fill="none" stroke="#1a1a1a" stroke-width="0.7" stroke-opacity="0.55" stroke-linecap="round" stroke-linejoin="round" />
  <polyline points="416,527.9 419.78,527.91 423.56,527.92 427.34,527.93 431.11,527.94 434.89,527.95 438.67,527.96 442.44,527.96 446.22,527.97 449.99,527.98 453.77,527.98 457.54,527.99 461.31,527.99 465.08,528 468.84,528 472.61,528.01" fill="none" stroke="#1a1a1a" stroke-width="0.7" stroke-opacity="0.55" stroke-linecap="round" stroke-linejoin="round" />
  <polyline points="434.48,539.87 438.19,539.87 441.89,539.88 445.6,539.88 449.3,539.88 453.01,539.88 456.71,539.89 460.41,539.89 464.12,539.89" fill="none" stroke="#1a1a1a" stroke-width="0.7" stroke-opacity="0.55" stroke-linecap="round" stroke-linejoin="round" />
  <polyline points="501.25,213.78 501.06,208.04 500.86,202.31 500.67,196.58 499.77,190.91 498.85,185.23 497.89,179.54 496.22,174 494.54,168.46 492.85,162.92 490.49,157.62 488.13,152.33 485.79,147.02 482.81,142.02 479.84,137.02 476.89,132 473.36,127.37 469.84,122.74 466.32,118.12 462.25,113.99 458.16,109.87 454.05,105.75 449.44,102.14 444.84,98.53 440.26,94.9 435.29,91.84 430.35,88.77 425.42,85.7 420.17,83.25 414.9,80.78 409.62,78.3 404.07,76.5 398.52,74.73 392.95,72.95 387.2,71.86 381.45,70.76 375.69,69.68 369.84,69.33 363.98,69.02 358.1,68.75 352.22,69.23 346.32,69.77 340.41,70.35 334.6,71.66 328.8,72.97 323,74.25 317.41,76.16 311.84,78.03 306.29,79.89 301.02,82.43 295.76,84.99 290.51,87.56 285.62,90.76 280.74,93.93 275.88,97.1 271.46,100.84 267.05,104.6 262.66,108.38 258.74,112.67 254.82,116.96 250.85,121.22 247.4,125.89 243.93,130.53 240.46,135.14 237.62,140.13 234.81,145.13 232.05,150.17 229.93,155.53 227.79,160.9 225.63,166.27 224.12,171.86 222.61,177.44 221.13,183.03 220.38,188.76 219.66,194.5 218.94,200.24 218.92,206.01 218.9,211.79 218.87,217.57 219.53,223.29 220.17,229.02 220.8,234.76 222.11,240.37 223.39,245.98 224.65,251.59 226.57,256.98 228.5,262.37 230.43,267.76 233.01,272.85 235.58,277.95 238.15,283.05 241.31,287.8 244.46,292.56 247.61,297.3 251.3,301.62 255,305.93 258.71,310.25" fill="none" stroke="#1a1a1a" stroke-width="1.7" stroke-linecap="round" stroke-linejoin="round" />
  <polyline points="258.71,310.25 262.17,313.48 265.64,316.71 269.1,319.95 272.87,322.82 276.63,325.68 280.4,328.53 284.44,330.99 288.47,333.44 292.5,335.91 296.75,337.97 300.98,340.03 305.2,342.08 309.58,343.68 313.96,345.27 318.34,346.85 322.86,347.96 327.38,349.07 331.91,350.17 336.54,350.8 341.17,351.43 345.81,352.07 350.52,352.25 355.24,352.44 359.96,352.64 364.71,352.37 369.45,352.11 374.19,351.86 378.89,351.15 383.57,350.46 388.24,349.78 392.81,348.65 397.37,347.55 401.95,346.44 406.39,344.89 410.84,343.34 415.28,341.78 419.53,339.78 423.77,337.78 427.99,335.78 431.97,333.37 435.93,330.96 439.87,328.53 443.54,325.71 447.19,322.89 450.83,320.05 454.19,316.86 457.55,313.65 460.94,310.44" fill="none" stroke="#1a1a1a" stroke-width="1.53" stroke-opacity="0.32" stroke-dasharray="4,3" stroke-linecap="round" stroke-linejoin="round" />
  <polyline points="460.94,310.44 463.83,307.15 466.74,303.86 469.66,300.58 472.27,297.04 474.89,293.48 477.51,289.9 479.78,286.05 482.04,282.19 484.29,278.31 486.18,274.22 488.06,270.13 489.95,266.05 491.46,261.83 493,257.63 494.55,253.44 495.73,249.13 496.91,244.81 498.08,240.48 498.83,236.05 499.57,231.62 500.3,227.19 500.62,222.71 500.93,218.24 501.25,213.78" fill="none" stroke="#1a1a1a" stroke-width="1.7" stroke-linecap="round" stroke-linejoin="round" />
  <polyline points="323.39,181.29 317.95,183.5 312.49,185.71 307.02,187.82 301.54,189.91 296.11,192.06 290.64,194.23 285.09,196.39 279.52,198.55 273.97,200.77 268.43,202.96 262.86,205.09 257.3,207.19 251.8,209.32 246.3,211.5 240.81,213.72 235.32,215.9 229.86,218.03 224.45,220.14 219.05,222.28" fill="none" stroke="#1a1a1a" stroke-width="0.9" stroke-opacity="0.2" stroke-dasharray="4,3" stroke-linecap="round" stroke-linejoin="round" />
  <polyline points="219.05,222.28 213.58,224.48 208.11,226.69 202.62,228.9 197.11,231.09 191.57,233.26 186.01,235.43 180.44,237.6 174.85,239.78 169.25,241.96 163.64,244.12 158.07,246.3 152.52,248.51 147.01,250.74 141.49,253 135.95,255.25 130.41,257.49 124.88,259.7 119.36,261.9 113.82,264.08 108.28,266.24 102.74,268.36 97.24,270.46 91.76,272.55 86.57,274.57 81.38,276.61 76.18,278.65 70.98,280.7 65.78,282.75 60.57,284.81 55.37,286.88 50.16,288.96 44.94,291.05 39.7,293.14 34.43,295.23 29.13,297.32 23.83,299.39 18.52,301.46 13.22,303.54 7.92,305.61 3.39,307.82 6.54,309.48 9.73,311.16 12.91,312.84 17.24,315.14 21.53,317.44 25.82,319.77 30.4,322.26 35.03,324.76 39.69,327.26 44.37,329.75 49.06,332.28 53.73,334.83 59.01,337.7 64.29,340.56 69.56,343.4 74.82,346.22 80.07,349.01 85.33,351.81 90.59,354.6 95.85,357.41 101.11,360.24 106.34,363.09 111.55,365.94 116.73,368.8 121.91,371.65 127.08,374.49 132.27,377.33 137.48,380.17 142.71,383.02 147.97,385.85 153.23,388.67 158.48,391.48 163.74,394.25 168.99,397 174.23,399.74 179.47,402.47 184.71,405.23 189.95,408.01 195.19,410.82 200.44,413.66 205.68,416.5 210.9,419.34 216.12,422.18 221.34,425.01 226.56,427.84 231.81,430.66 237.07,433.48 242.35,436.3 247.65,439.13 252.93,441.95 258.21,444.77 263.46,447.59 268.73,450.41 273.99,453.23 279.26,456.05 284.53,458.88 289.77,461.75 295,464.63 300.21,467.52 305.4,470.4 310.59,473.26 315.79,476.09 321,478.91 326.25,481.73 331.51,484.55 336.77,487.39 342.03,490.24 347.28,493.09 352.52,495.94 357.75,498.78 362.95,501.61 368.15,504.45 373.35,507.29 378.56,510.14 383.79,512.99 389.04,515.84 394.3,518.67 399.59,521.49 404.41,524.06 409.23,526.62 414.05,529.17 418.87,531.71 423.68,534.25 428.5,536.78 433.3,539.32 437.71,541.65 442.12,543.98 446.52,546.32 450.92,548.67 455.42,551.07 457.68,552.29 458.64,552.42 459.24,551.58 461.62,548.24 464,544.92 467.45,540.1 470.91,535.29 474.36,530.48 477.82,525.68 481.27,520.9 484.73,516.12 488.21,511.36 491.69,506.6 495.18,501.83 498.67,497.05 502.09,492.34 505.49,487.62 508.87,482.89 512.25,478.16 515.63,473.4 519.01,468.63 522.39,463.84 525.77,459.04 529.12,454.24 532.45,449.44 535.78,444.65 539.13,439.86 542.52,435.07 545.96,430.29 549.43,425.52 552.91,420.77 556.49,415.97 560.02,411.19 563.49,406.38 566.93,401.56 570.36,396.78 573.77,392.02 577.17,387.23 580.55,382.43 583.94,377.58 587.32,372.68 590.72,367.77 594.14,362.89 597.63,358.04 601.16,353.2 604.72,348.34 608.29,343.44 611.82,338.54 615.33,333.65 618.81,328.75 622.25,323.85 625.68,318.99 628.83,314.57 631.97,310.17 635.09,305.76 638.2,301.34 641.34,296.94 644.49,292.51 647.62,288.04 650.75,283.52 653.46,279.59 656.2,275.68 658.93,271.84 661.61,268.07 664.09,264.57 666.62,261.07 667.25,260.22 667.57,259.8 666.67,259.46 661.32,258.25 656.04,257.06 650.76,255.88 645.06,254.62 639.34,253.35 633.62,252.07 627.87,250.79 622.11,249.51 616.33,248.21 610.52,246.9 604.7,245.56 598.88,244.21 593.06,242.85 587.24,241.5 581.42,240.17 575.62,238.82 569.85,237.46 564.08,236.12 558.32,234.78 552.55,233.48 546.78,232.18 541.01,230.89 535.26,229.59 529.51,228.28 523.77,226.95 518.03,225.62 512.27,224.29 506.53,222.96 500.79,221.65" fill="none" stroke="#1a1a1a" stroke-width="1" stroke-linecap="round" stroke-linejoin="round" />
  <polyline points="500.79,221.65 495.1,220.37 489.4,219.09 483.7,217.79 477.98,216.46 472.25,215.12 466.56,213.8 460.88,212.48 455.23,211.18 449.57,209.87 443.88,208.55 438.18,207.25 432.45,205.96 426.69,204.68 420.9,203.4 415.09,202.13 409.26,200.87 403.43,199.63 397.63,198.37 391.9,197.09 386.24,195.78 380.63,194.45 375.05,193.11 369.44,191.77 363.79,190.42 358.09,189.07 352.37,187.72 346.63,186.41 340.86,185.13 335.08,183.87 329.25,182.61 323.39,181.29" fill="none" stroke="#1a1a1a" stroke-width="0.9" stroke-opacity="0.2" stroke-dasharray="4,3" stroke-linecap="round" stroke-linejoin="round" />
  <polyline points="278.68,255.98 273.98,258.43 269.26,260.84 265.33,263.61 261.41,266.47 258.34,269.71 255.25,272.98 253.1,276.45 250.92,279.84 249.77,283.35 248.65,286.83 248.44,290.41 248.93,294.04 250.15,297.74 252.11,301.52 255.05,305.3 257.93,309.12" fill="none" stroke="#1a1a1a" stroke-width="2.34" stroke-opacity="0.32" stroke-dasharray="4,3" stroke-linecap="round" stroke-linejoin="round" />
  <polyline points="257.93,309.12 261.51,312.38 265.05,315.67 269.62,318.74 274.21,321.78 277.9,323.57 281.58,325.31 285.26,327.01 289.47,328.45 293.67,329.88 297.85,331.3 302.53,332.46 307.21,333.62 311.92,334.79 317.04,335.64 322.16,336.49 327.28,337.35 332.68,337.87 338.09,338.4 343.5,338.95 349.07,339.16 354.65,339.4 360.23,339.63 365.8,339.48 371.35,339.31 376.89,339.11 382.29,338.53 387.68,337.92 393.06,337.3 398.16,336.34 403.26,335.39 408.33,334.45 413.02,333.2 417.7,331.93 422.37,330.65 426.56,329.1 430.77,327.57 435,326.06 438.67,324.34 442.36,322.64 446.06,320.98 450.63,318.24 455.16,315.5 458.66,312.52 462.17,309.49" fill="none" stroke="#1a1a1a" stroke-width="2.6" stroke-linecap="round" stroke-linejoin="round" />
  <polyline points="462.17,309.49 464.13,307.15 466.1,304.79 468.93,299.89 470.63,294.85 471.18,289.84 470.59,284.98 469.01,280.3 466.63,275.8 463.44,271.51 459.44,267.37 457.06,265.39 454.67,263.39 450.77,260.99 446.86,258.6 442.96,256.23 438.34,254.25 433.76,252.25 429.21,250.21 424.06,248.58 418.9,246.97 413.71,245.38 408.07,244.22 402.43,243.08 396.78,241.95 390.83,241.26 384.89,240.58 378.99,239.89 374.47,239.69 369.96,239.49 365.45,239.28 360.93,239.07 356.38,239.2 351.79,239.34 347.16,239.48 342.51,239.65 336.45,240.31 330.43,240.99 324.45,241.71 318.82,242.96 313.23,244.26 307.67,245.56 302.57,247.23 297.54,248.81 292.52,250.34 288.01,252.23 283.39,254.11 278.68,255.98" fill="none" stroke="#1a1a1a" stroke-width="2.34" stroke-opacity="0.32" stroke-dasharray="4,3" stroke-linecap="round" stroke-linejoin="round" />
</svg>