<svg xmlns="http://www.w3.org/2000/svg" viewBox="0 0 900 300" width="900" height="300">
  <rect width="900" height="300" fill="#faf9f5" />
  <polyline points="226.61,84.87 197.24,206.95" fill="none" stroke="#1a1a1a" stroke-width="1.5" stroke-linecap="round" stroke-linejoin="round" />
  <polyline points="226.61,84.87 288.12,191.51" fill="none" stroke="#1a1a1a" stroke-width="1.5" stroke-linecap="round" stroke-linejoin="round" />
  <polyline points="225.09,219.39 212.66,218.48 207.56,217.36 203.39,215.85 200.23,214 198.14,211.85 197.15,209.48 197.24,206.95" fill="none" stroke="#1a1a1a" stroke-width="1.5" stroke-linecap="round" stroke-linejoin="round" />
  <polyline points="197.24,206.95 198.88,203.58 202.08,200.18 206.67,196.88 212.42,193.79 226.45,188.58 242.23,185.07 257.9,183.58 271.77,184.22 277.53,185.33 282.29,186.94 285.86,189.01 288.12,191.51" fill="none" stroke="#1a1a1a" stroke-width="1.35" stroke-opacity="0.32" stroke-dasharray="4,3" stroke-linecap="round" stroke-linejoin="round" />
  <polyline points="288.12,191.51 288.84,193.45 288.84,195.54 288.1,197.74 286.6,200.03 281.34,204.72 273.25,209.29 262.76,213.36 250.58,216.6 237.66,218.68 225.09,219.39" fill="none" stroke="#1a1a1a" stroke-width="1.5" stroke-linecap="round" stroke-linejoin="round" />
  <polyline points="375.51,84.94 373.81,90.54 372.04,96.26 370.23,101.9 368.63,107.29 367.08,112.66 365.41,118.21 363.66,123.78 361.83,129.28 359.99,134.84 358.25,140.42 356.65,145.95 355.02,151.46 353.25,156.94 351.39,162.36 349.58,167.96 347.81,173.66 345.79,179.17 343.68,184.6 341.7,190.08 340.08,195.61 338.59,201.3" fill="none" stroke="#1a1a1a" stroke-width="1.5" stroke-linecap="round" stroke-linejoin="round" />
  <polyline points="375.51,84.94 377.85,90.29 380.35,95.79 382.82,101.17 385.09,106.35 387.32,111.54 389.54,116.73 391.85,121.84 394.1,127.09 396.3,132.59 398.48,137.88 400.6,143 402.74,148.34 404.89,153.75 407.07,159.14 409.37,164.63 411.67,170.22 414.06,175.47 416.5,180.68 418.94,185.92 421.18,191.1 423.24,196.33" fill="none" stroke="#1a1a1a" stroke-width="1.5" stroke-linecap="round" stroke-linejoin="round" />
  <polyline points="375.36,219.44 371.2,219.1 367,218.85 363.09,218.41 359.22,218.03 355.81,217.25 352.32,216.37 349.3,215.16 346.32,213.93 342.14,211.04 339.55,207.83 338.37,204.61 338.59,201.3" fill="none" stroke="#1a1a1a" stroke-width="1.5" stroke-linecap="round" stroke-linejoin="round" />
  <polyline points="338.59,201.3 340.28,198.34 343.38,195.27 347.9,192.33 353.34,189.62 356.4,188.41 359.41,187.3 362.72,186.51 366.07,185.69 370.93,185.1 375.83,184.59 380.78,184.01 385.6,183.98 390.38,183.95 395.14,183.95 398.53,184.35 401.95,184.79 405.13,185.51 408.27,186.27 413.56,188.31 417.88,190.89 421.2,193.65 423.24,196.33" fill="none" stroke="#1a1a1a" stroke-width="1.35" stroke-opacity="0.32" stroke-dasharray="4,3" stroke-linecap="round" stroke-linejoin="round" />
  <polyline points="423.24,196.33 423.66,199.94 422.42,203.83 418.84,207.78 415.88,209.67 412.87,211.47 408.8,213.02 404.76,214.73 400.12,216.1 395.63,217.32 390.65,218.07 385.64,218.93 380.49,219.28 375.36,219.44" fill="none" stroke="#1a1a1a" stroke-width="1.5" stroke-linecap="round" stroke-linejoin="round" />
  <polyline points="525.03,83.99 522.67,89.2 520.82,94.93 518.62,100.93 516.07,106.86 513.51,112.48 510.94,117.68 508.22,122.39 505.79,126.98 503.36,131.6 501.05,136.69 498.94,142.44 496.92,148.08 494.75,153.37 492.44,158.57 490.2,164.13 488.15,170.1 485.84,175.55 483.3,180.75 480.77,185.92 478.2,190.99 476.16,196.36" fill="none" stroke="#1a1a1a" stroke-width="1.5" stroke-linecap="round" stroke-linejoin="round" />
  <polyline points="525.03,83.99 526.41,89.29 528.45,95.2 530.25,101.39 531.91,107.36 533.89,113.04 535.48,118.63 536.74,124.15 538.21,129.57 539.77,135.1 541.6,140.78 543.43,146.4 545.09,151.62 546.89,156.78 548.71,162.17 550.68,167.79 552.6,173.61 554.15,179.44 555.55,185.24 557.12,190.88 558.95,196.47 560.91,202.13" fill="none" stroke="#1a1a1a" stroke-width="1.5" stroke-linecap="round" stroke-linejoin="round" />
  <polyline points="524.53,219.63 519.36,219.46 514.24,219.3 509.41,218.66 504.57,218.11 500.03,217.14 495.5,215.85 491.65,214.02 487.75,212.19 484.84,210.25 481.71,208.55 477.2,204.66 475.48,200.68 476.16,196.36" fill="none" stroke="#1a1a1a" stroke-width="1.5" stroke-linecap="round" stroke-linejoin="round" />
  <polyline points="476.16,196.36 478.59,193.12 482.7,190.17 486.49,187.84 491.87,186.21 494.8,185.55 497.64,184.65 500.99,183.91 504.44,183.26 509.11,183.04 513.76,182.81 518.66,182.98 523.88,184.39 528.88,185.65 533.42,186.33 536.7,186.91 540.29,187.47 543.84,188.4 547.24,189.36 552.46,192.09 556.49,195.07 559.22,198.43 560.91,202.13" fill="none" stroke="#1a1a1a" stroke-width="1.35" stroke-opacity="0.32" stroke-dasharray="4,3" stroke-linecap="round" stroke-linejoin="round" />
  <polyline points="560.91,202.13 561.97,205.07 560.2,207.74 556.94,210.88 553.03,214.01 550.19,215.14 547.41,216.2 544.05,216.95 540.64,217.78 536.65,218.42 532.7,219.11 528.57,219.37 524.53,219.63" fill="none" stroke="#1a1a1a" stroke-width="1.5" stroke-linecap="round" stroke-linejoin="round" />
  <polyline points="673.28,85.44 670.26,90.76 667.06,95.9 663.86,100.93 660.7,105.77 657.52,110.73 654.54,115.57 651.53,120.3 648.67,125.69 645.56,131.12 642.49,136.04 640.33,140.76 638.42,145.58 635.17,151.03 631.37,156.44 628.38,161.57 625.83,166.83 623.53,172.19 621.64,177.39 619.38,182.49 616.12,187.19 612.42,192.21" fill="none" stroke="#1a1a1a" stroke-width="1.5" stroke-linecap="round" stroke-linejoin="round" />
  <polyline points="673.28,85.44 674.61,91.54 675.72,97.07 677.01,102.38 678.67,107.58 680.41,112.76 681.99,118.6 683.34,124.66 684.74,130.62 686,136.78 687.4,142.73 688.78,148.52 690.15,154.4 691.55,160.35 692.84,166.21 694.53,171.99 696.63,177.82 697.84,183.72 698.73,189.43 699.91,195.08 701.62,200.87 703.59,206.6" fill="none" stroke="#1a1a1a" stroke-width="1.5" stroke-linecap="round" stroke-linejoin="round" />
  <polyline points="675.17,218.55 671.2,219 667.27,219.29 663.23,219.16 658.81,218.45 654.13,217.67 649.56,216.92 645.61,215.94 641.78,215.08 637.92,214.24 632.81,211.87 627.46,209 623.07,206.18 618.58,203.51 615.61,200.7 612.85,198.64 611.28,197.44 610.72,195.9 611.25,194.11 612.42,192.21" fill="none" stroke="#1a1a1a" stroke-width="1.5" stroke-linecap="round" stroke-linejoin="round" />
  <polyline points="612.42,192.21 614.98,189.9 618.55,187.69 623.39,185.95 629.65,185.16 634.55,184.81 639.04,183.88 643.13,182.83 647.39,182.92 651.67,183.59 656.76,184.31 662.36,185.26 668.18,185.93 673.87,187.04 678.65,189.04 683.27,191.23 688.25,193.53 691.27,195.45 694.12,197.28 698.72,200.22 701.9,203.27 703.59,206.6" fill="none" stroke="#1a1a1a" stroke-width="1.35" stroke-opacity="0.32" stroke-dasharray="4,3" stroke-linecap="round" stroke-linejoin="round" />
  <polyline points="703.59,206.6 703.43,209.1 702.09,211.79 699.42,214.23 695.69,215.41 691.49,216.37 686.74,217.26 682.91,217.44 679.07,217.79 675.17,218.55" fill="none" stroke="#1a1a1a" stroke-width="1.5" stroke-linecap="round" stroke-linejoin="round" />
</svg>