<svg xmlns="http://www.w3.org/2000/svg" viewBox="0 0 900 300" width="900" height="300">
  <rect width="900" height="300" fill="#faf9f5" />
  <polyline points="226.61,84.87 197.24,206.95" fill="none" stroke="#1a1a1a" stroke-width="1.5" stroke-linecap="round" stroke-linejoin="round" />
  <polyline points="226.61,84.87 288.12,191.51" fill="none" stroke="#1a1a1a" stroke-width="1.5" stroke-linecap="round" stroke-linejoin="round" />
  <polyline points="225.09,219.39 212.66,218.48 207.56,217.36 203.39,215.85 200.23,214 198.14,211.85 197.15,209.48 197.24,206.95" fill="none" stroke="#1a1a1a" stroke-width="1.5" stroke-linecap="round" stroke-linejoin="round" />
  <polyline points="197.24,206.95 198.88,203.58 202.08,200.18 206.67,196.88 212.42,193.79 226.45,188.58 242.23,185.07 257.9,183.58 271.77,184.22 277.53,185.33 282.29,186.94 285.86,189.01 288.12,191.51" fill="none" stroke="#1a1a1a" stroke-width="1.35" stroke-opacity="0.32" stroke-dasharray="4,3" stroke-linecap="round" stroke-linejoin="round" />
  <polyline points="288.12,191.51 288.84,193.45 288.84,195.54 288.1,197.74 286.6,200.03 281.34,204.72 273.25,209.29 262.76,213.36 250.58,216.6 237.66,218.68 225.09,219.39" fill="none" stroke="#1a1a1a" stroke-width="1.5" stroke-linecap="round" stroke-linejoin="round" />
  <path d="M 374.96,84.78 L 373.24,90.37 L 371.42,96.06 L 369.56,101.69 L 367.93,107.09 L 366.38,112.46 L 364.72,118 L 362.97,123.55 L 361.13,129.04 L 359.28,134.61 L 357.53,140.21 L 355.92,145.74 L 354.3,151.24 L 352.54,156.7 L 350.7,162.13 L 348.9,167.74 L 347.11,173.43 L 345.09,178.91 L 342.99,184.35 L 341.06,189.87 L 339.49,195.45 L 338.03,201.15 L 339.15,201.45 L 340.67,195.78 L 342.35,190.29 L 344.37,184.86 L 346.49,179.44 L 348.5,173.9 L 350.27,168.18 L 352.08,162.59 L 353.96,157.17 L 355.74,151.68 L 357.37,146.17 L 358.98,140.64 L 360.71,135.07 L 362.53,129.51 L 364.36,124 L 366.1,118.43 L 367.77,112.87 L 369.32,107.49 L 370.9,102.11 L 372.67,96.46 L 374.39,90.72 L 376.05,85.11 Z" fill="#1a1a1a" stroke="#1a1a1a" stroke-width="0.4" stroke-linejoin="round" />
  <path d="M 374.98,85.17 L 377.3,90.53 L 379.75,96.07 L 382.17,101.46 L 384.43,106.64 L 386.65,111.83 L 388.87,117.02 L 391.18,122.13 L 393.42,127.37 L 395.61,132.87 L 397.78,138.17 L 399.9,143.29 L 402.03,148.62 L 404.19,154.03 L 406.4,159.41 L 408.7,164.9 L 411.01,170.51 L 413.38,175.79 L 415.83,180.99 L 418.32,186.19 L 420.62,191.33 L 422.7,196.54 L 423.77,196.12 L 421.75,190.87 L 419.55,185.64 L 417.17,180.37 L 414.74,175.16 L 412.34,169.93 L 410.03,164.35 L 407.75,158.86 L 405.59,153.47 L 403.44,148.05 L 401.3,142.72 L 399.18,137.59 L 397,132.31 L 394.78,126.81 L 392.52,121.55 L 390.2,116.44 L 387.98,111.26 L 385.75,106.07 L 383.46,100.88 L 380.94,95.52 L 378.39,90.04 L 376.03,84.72 Z" fill="#1a1a1a" stroke="#1a1a1a" stroke-width="0.4" stroke-linejoin="round" />
  <path d="M 375.41,218.87 L 371.25,218.45 L 367.06,218.13 L 363.16,217.69 L 359.33,217.32 L 355.97,216.55 L 352.54,215.68 L 349.57,214.49 L 346.69,213.31 L 342.62,210.5 L 340.16,207.47 L 338.99,204.52 L 339.17,201.34 L 338.02,201.26 L 337.75,204.7 L 338.93,208.19 L 341.65,211.58 L 345.96,214.56 L 349.02,215.82 L 352.1,217.05 L 355.64,217.94 L 359.11,218.74 L 363.01,219.13 L 366.94,219.57 L 371.16,219.75 L 375.32,220 Z" fill="#1a1a1a" stroke="#1a1a1a" stroke-width="0.4" stroke-linejoin="round" />
  <polyline points="338.59,201.3 340.28,198.34 343.38,195.27 347.9,192.33 353.34,189.62 356.4,188.41 359.41,187.3 362.72,186.51 366.07,185.69 370.93,185.1 375.83,184.59 380.78,184.01 385.6,183.98 390.38,183.95 395.14,183.95 398.53,184.35 401.95,184.79 405.13,185.51 408.27,186.27 413.56,188.31 417.88,190.89 421.2,193.65 423.24,196.33" fill="none" stroke="#1a1a1a" stroke-width="1.35" stroke-opacity="0.32" stroke-dasharray="4,3" stroke-linecap="round" stroke-linejoin="round" />
  <path d="M 422.67,196.4 L 423.05,199.88 L 421.83,203.47 L 418.36,207.24 L 415.51,209.05 L 412.57,210.82 L 408.54,212.35 L 404.52,214.05 L 399.92,215.4 L 395.48,216.61 L 390.53,217.35 L 385.55,218.19 L 380.46,218.62 L 375.35,218.85 L 375.38,220.02 L 380.53,219.94 L 385.73,219.66 L 390.77,218.8 L 395.78,218.03 L 400.32,216.8 L 405,215.41 L 409.07,213.68 L 413.18,212.11 L 416.26,210.28 L 419.32,208.32 L 423.02,204.2 L 424.27,200.01 L 423.8,196.27 Z" fill="#1a1a1a" stroke="#1a1a1a" stroke-width="0.4" stroke-linejoin="round" />
  <path d="M 524.69,83.83 L 522.27,89.04 L 520.28,94.75 L 517.95,100.67 L 515.34,106.54 L 512.78,112.13 L 510.24,117.31 L 507.53,122.01 L 505.09,126.61 L 502.66,131.25 L 500.33,136.39 L 498.23,142.19 L 496.23,147.82 L 494.09,153.09 L 491.79,158.3 L 489.57,163.89 L 487.5,169.86 L 485.19,175.25 L 482.67,180.44 L 480.24,185.66 L 477.76,190.79 L 475.76,196.21 L 476.57,196.51 L 478.64,191.18 L 481.3,186.19 L 483.92,181.06 L 486.5,175.85 L 488.79,170.35 L 490.84,164.36 L 493.09,158.84 L 495.42,153.66 L 497.61,148.34 L 499.64,142.7 L 501.76,136.98 L 504.07,131.95 L 506.49,127.35 L 508.91,122.77 L 511.64,118.05 L 514.24,112.82 L 516.8,107.18 L 519.29,101.2 L 521.35,95.12 L 523.08,89.35 L 525.38,84.14 Z" fill="#1a1a1a" stroke="#1a1a1a" stroke-width="0.4" stroke-linejoin="round" />
  <path d="M 524.66,84.08 L 526,89.42 L 527.91,95.38 L 529.55,101.59 L 531.15,107.6 L 533.12,113.28 L 534.72,118.82 L 535.97,124.34 L 537.44,129.78 L 539.02,135.33 L 540.87,141.02 L 542.72,146.63 L 544.39,151.85 L 546.21,157.02 L 548.05,162.4 L 550.04,168.01 L 551.94,173.8 L 553.45,179.62 L 554.87,185.41 L 556.54,191.06 L 558.49,196.62 L 560.5,202.27 L 561.32,201.99 L 559.42,196.31 L 557.69,190.71 L 556.24,185.06 L 554.85,179.27 L 553.26,173.41 L 551.32,167.58 L 549.37,161.94 L 547.58,156.55 L 545.79,151.39 L 544.14,146.17 L 542.33,140.55 L 540.53,134.87 L 538.97,129.36 L 537.5,123.96 L 536.25,118.43 L 534.66,112.8 L 532.67,107.12 L 530.94,101.19 L 528.99,95.03 L 526.82,89.17 L 525.4,83.89 Z" fill="#1a1a1a" stroke="#1a1a1a" stroke-width="0.4" stroke-linejoin="round" />
  <path d="M 524.55,219.25 L 519.37,218.94 L 514.3,218.6 L 509.49,217.94 L 504.7,217.35 L 500.22,216.36 L 495.78,215.1 L 491.99,213.3 L 488.13,211.5 L 485.25,209.58 L 482.18,207.91 L 477.79,204.19 L 476.03,200.61 L 476.57,196.42 L 475.75,196.29 L 474.93,200.74 L 476.61,205.13 L 481.25,209.19 L 484.44,210.93 L 487.37,212.88 L 491.31,214.74 L 495.22,216.61 L 499.84,217.91 L 504.45,218.86 L 509.32,219.39 L 514.19,220 L 519.34,219.99 L 524.52,220.01 Z" fill="#1a1a1a" stroke="#1a1a1a" stroke-width="0.4" stroke-linejoin="round" />
  <polyline points="476.16,196.36 478.59,193.12 482.7,190.17 486.49,187.84 491.87,186.21 494.8,185.55 497.64,184.65 500.99,183.91 504.44,183.26 509.11,183.04 513.76,182.81 518.66,182.98 523.88,184.39 528.88,185.65 533.42,186.33 536.7,186.91 540.29,187.47 543.84,188.4 547.24,189.36 552.46,192.09 556.49,195.07 559.22,198.43 560.91,202.13" fill="none" stroke="#1a1a1a" stroke-width="1.35" stroke-opacity="0.32" stroke-dasharray="4,3" stroke-linecap="round" stroke-linejoin="round" />
  <path d="M 560.55,202.26 L 561.5,205.01 L 559.71,207.32 L 556.47,210.35 L 552.63,213.38 L 549.92,214.44 L 547.18,215.45 L 543.87,216.17 L 540.48,216.99 L 536.52,217.62 L 532.61,218.32 L 528.53,218.77 L 524.51,219.21 L 524.56,220.05 L 528.61,219.98 L 532.8,219.89 L 536.78,219.21 L 540.79,218.57 L 544.23,217.73 L 547.63,216.95 L 550.47,215.85 L 553.42,214.63 L 557.4,211.41 L 560.69,208.17 L 562.45,205.13 L 561.27,202 Z" fill="#1a1a1a" stroke="#1a1a1a" stroke-width="0.4" stroke-linejoin="round" />
  <path d="M 673.04,85.3 L 669.94,90.57 L 666.6,95.61 L 663.29,100.57 L 660.14,105.41 L 656.99,110.39 L 654.01,115.24 L 650.99,119.99 L 648.12,125.38 L 645,130.78 L 641.91,135.73 L 639.75,140.5 L 637.86,145.29 L 634.59,150.66 L 630.69,156.01 L 627.61,161.16 L 625.04,166.46 L 622.75,171.88 L 620.92,177.09 L 618.83,182.18 L 615.76,186.94 L 612.15,192.02 L 612.68,192.41 L 616.47,187.45 L 619.92,182.79 L 622.37,177.68 L 624.32,172.5 L 626.62,167.19 L 629.15,161.98 L 632.04,156.88 L 635.74,151.41 L 638.98,145.86 L 640.92,141.01 L 643.07,136.35 L 646.12,131.45 L 649.23,126 L 652.07,120.61 L 655.06,115.89 L 658.06,111.06 L 661.27,106.14 L 664.43,101.3 L 667.52,96.19 L 670.59,90.95 L 673.53,85.58 Z" fill="#1a1a1a" stroke="#1a1a1a" stroke-width="0.4" stroke-linejoin="round" />
  <path d="M 673.01,85.5 L 674.25,91.61 L 675.19,97.19 L 676.37,102.56 L 678.02,107.79 L 679.8,112.94 L 681.4,118.75 L 682.73,124.8 L 684.12,130.76 L 685.37,136.92 L 686.76,142.88 L 688.16,148.66 L 689.54,154.54 L 690.86,160.51 L 692.05,166.42 L 693.7,172.26 L 695.79,178.05 L 697.02,183.87 L 697.96,189.58 L 699.3,195.23 L 701.21,201 L 703.28,206.7 L 703.9,206.49 L 702.03,200.74 L 700.53,194.92 L 699.51,189.29 L 698.67,183.57 L 697.46,177.58 L 695.36,171.72 L 693.62,166.01 L 692.24,160.2 L 690.77,154.25 L 689.4,148.37 L 688.04,142.58 L 686.64,136.64 L 685.35,130.49 L 683.95,124.52 L 682.59,118.45 L 681.02,112.57 L 679.32,107.37 L 677.64,102.2 L 676.24,96.95 L 674.98,91.46 L 673.56,85.38 Z" fill="#1a1a1a" stroke="#1a1a1a" stroke-width="0.4" stroke-linejoin="round" />
  <path d="M 675.14,218.27 L 671.17,218.62 L 667.26,218.69 L 663.3,218.42 L 658.93,217.73 L 654.25,216.98 L 649.69,216.27 L 645.75,215.32 L 641.91,214.48 L 638.13,213.66 L 633.09,211.31 L 627.78,208.45 L 623.42,205.63 L 618.97,202.99 L 616,200.23 L 613.13,198.27 L 611.58,197.21 L 611.03,195.9 L 611.49,194.22 L 612.62,192.34 L 612.21,192.09 L 611.02,194 L 610.41,195.91 L 610.98,197.67 L 612.57,199.01 L 615.21,201.16 L 618.19,204.04 L 622.73,206.74 L 627.14,209.55 L 632.53,212.43 L 637.71,214.82 L 641.65,215.69 L 645.46,216.55 L 649.43,217.56 L 654.02,218.35 L 658.69,219.17 L 663.16,219.9 L 667.29,219.88 L 671.24,219.39 L 675.21,218.83 Z" fill="#1a1a1a" stroke="#1a1a1a" stroke-width="0.4" stroke-linejoin="round" />
  <polyline points="612.42,192.21 614.98,189.9 618.55,187.69 623.39,185.95 629.65,185.16 634.55,184.81 639.04,183.88 643.13,182.83 647.39,182.92 651.67,183.59 656.76,184.31 662.36,185.26 668.18,185.93 673.87,187.04 678.65,189.04 683.27,191.23 688.25,193.53 691.27,195.45 694.12,197.28 698.72,200.22 701.9,203.27 703.59,206.6" fill="none" stroke="#1a1a1a" stroke-width="1.35" stroke-opacity="0.32" stroke-dasharray="4,3" stroke-linecap="round" stroke-linejoin="round" />
  <path d="M 703.31,206.58 L 702.97,208.97 L 701.48,211.31 L 699.04,213.56 L 695.5,214.68 L 691.35,215.66 L 686.66,216.58 L 682.86,216.78 L 679,217.28 L 675.13,218.34 L 675.21,218.76 L 679.15,218.3 L 682.95,218.09 L 686.83,217.94 L 691.64,217.08 L 695.89,216.14 L 699.81,214.91 L 702.71,212.27 L 703.89,209.24 L 703.87,206.62 Z" fill="#1a1a1a" stroke="#1a1a1a" stroke-width="0.4" stroke-linejoin="round" />
</svg>