<svg xmlns="http://www.w3.org/2000/svg" viewBox="0 0 960 340" width="960" height="340">
  <rect width="960" height="340" fill="#faf9f5" />
  <polyline points="298.09,98.51 301.81,99.5 305.52,100.5 309.24,101.5 312.96,102.49 316.68,103.49" fill="none" stroke="#1a1a1a" stroke-width="0.7" stroke-opacity="0.55" stroke-linecap="round" stroke-linejoin="round" />
  <polyline points="263.85,98.65 267.71,99.69 271.57,100.72 275.43,101.75 279.29,102.79 283.15,103.82 287.01,104.86 290.87,105.89 294.72,106.92 298.58,107.96 302.44,108.99 306.3,110.03 310.16,111.06 314.02,112.09" fill="none" stroke="#1a1a1a" stroke-width="0.7" stroke-opacity="0.55" stroke-linecap="round" stroke-linejoin="round" />
  <polyline points="238.1,101.07 241.95,102.1 245.8,103.13 249.65,104.16 253.5,105.19 257.34,106.23 261.19,107.26 265.04,108.29 268.89,109.32 272.74,110.35 276.59,111.38 280.44,112.41 284.29,113.44 288.14,114.48 291.99,115.51 295.84,116.54 299.69,117.57 303.53,118.6 307.38,119.63 311.23,120.66" fill="none" stroke="#1a1a1a" stroke-width="0.7" stroke-opacity="0.55" stroke-linecap="round" stroke-linejoin="round" />
  <polyline points="218.18,105.05 221.94,106.06 225.7,107.06 229.46,108.07 233.22,109.08 236.98,110.09 240.74,111.09 244.5,112.1 248.27,113.11 252.03,114.12 255.79,115.13 259.55,116.13 263.31,117.14 267.07,118.15 270.83,119.16 274.59,120.16 278.36,121.17 282.12,122.18 285.88,123.19 289.64,124.2 293.4,125.2 297.16,126.21 300.92,127.22 304.68,128.23 308.45,129.24" fill="none" stroke="#1a1a1a" stroke-width="0.7" stroke-opacity="0.55" stroke-linecap="round" stroke-linejoin="round" />
  <polyline points="213.59,113.14 217.43,114.16 221.26,115.19 225.1,116.22 228.94,117.25 232.77,118.28 236.61,119.3 240.44,120.33 244.28,121.36 248.12,122.39 251.95,123.42 255.79,124.44 259.63,125.47 263.46,126.5 267.3,127.53 271.13,128.55 274.97,129.58 278.81,130.61 282.64,131.64 286.48,132.67 290.31,133.69 294.15,134.72 297.99,135.75 301.82,136.78 305.66,137.81" fill="none" stroke="#1a1a1a" stroke-width="0.7" stroke-opacity="0.55" stroke-linecap="round" stroke-linejoin="round" />
  <polyline points="220.46,124.29 224.2,125.3 227.95,126.3 231.69,127.3 235.44,128.31 239.19,129.31 242.93,130.32 246.68,131.32 250.43,132.32 254.17,133.33 257.92,134.33 261.66,135.34 265.41,136.34 269.16,137.34 272.9,138.35 276.65,139.35 280.4,140.35 284.14,141.36 287.89,142.36 291.63,143.37 295.38,144.37 299.13,145.37 302.87,146.38" fill="none" stroke="#1a1a1a" stroke-width="0.7" stroke-opacity="0.55" stroke-linecap="round" stroke-linejoin="round" />
  <polyline points="227.32,135.45 231.15,136.48 234.98,137.5 238.81,138.53 242.64,139.55 246.47,140.58 250.3,141.61 254.13,142.63 257.96,143.66 261.79,144.69 265.62,145.71 269.45,146.74 273.28,147.76 277.11,148.79 280.94,149.82 284.77,150.84 288.6,151.87 292.43,152.9 296.26,153.92 300.09,154.95" fill="none" stroke="#1a1a1a" stroke-width="0.7" stroke-opacity="0.55" stroke-linecap="round" stroke-linejoin="round" />
  <polyline points="234.18,146.61 237.9,147.6 241.61,148.6 245.32,149.59 249.04,150.59 252.75,151.58 256.46,152.58 260.17,153.57 263.89,154.57 267.6,155.56 271.31,156.55 275.02,157.55 278.74,158.54 282.45,159.54 286.16,160.53 289.87,161.53 293.59,162.52 297.3,163.52" fill="none" stroke="#1a1a1a" stroke-width="0.7" stroke-opacity="0.55" stroke-linecap="round" stroke-linejoin="round" />
  <polyline points="241.05,157.76 244.87,158.79 248.69,159.81 252.51,160.83 256.32,161.86 260.14,162.88 263.96,163.9 267.78,164.93 271.6,165.95 275.42,166.97 279.24,168 283.06,169.02 286.87,170.04 290.69,171.07 294.51,172.09" fill="none" stroke="#1a1a1a" stroke-width="0.7" stroke-opacity="0.55" stroke-linecap="round" stroke-linejoin="round" />
  <polyline points="247.91,168.92 251.56,169.9 255.22,170.88 258.87,171.86 262.52,172.83 266.17,173.81 269.82,174.79 273.47,175.77 277.12,176.75 280.77,177.73 284.42,178.7 288.07,179.68 291.73,180.66" fill="none" stroke="#1a1a1a" stroke-width="0.7" stroke-opacity="0.55" stroke-linecap="round" stroke-linejoin="round" />
  <polyline points="254.78,180.08 258.57,181.09 262.37,182.11 266.17,183.13 269.96,184.15 273.76,185.16 277.55,186.18 281.35,187.2 285.14,188.21 288.94,189.23" fill="none" stroke="#1a1a1a" stroke-width="0.7" stroke-opacity="0.55" stroke-linecap="round" stroke-linejoin="round" />
  <polyline points="261.64,191.23 265.14,192.17 268.65,193.11 272.15,194.05 275.65,194.99 279.15,195.93 282.65,196.86 286.15,197.8" fill="none" stroke="#1a1a1a" stroke-width="0.7" stroke-opacity="0.55" stroke-linecap="round" stroke-linejoin="round" />
  <polyline points="268.51,202.39 272.22,203.39 275.94,204.38 279.65,205.38 283.37,206.37" fill="none" stroke="#1a1a1a" stroke-width="0.7" stroke-opacity="0.55" stroke-linecap="round" stroke-linejoin="round" />
  <polyline points="275.37,213.55 277.98,214.25 280.58,214.94" fill="none" stroke="#1a1a1a" stroke-width="0.7" stroke-opacity="0.55" stroke-linecap="round" stroke-linejoin="round" />
  <polyline points="471.71,98.44 475.35,99.42 478.99,100.39 482.63,101.37 486.27,102.34 489.9,103.32 493.54,104.29 497.18,105.27 500.82,106.24 504.45,107.22" fill="none" stroke="#1a1a1a" stroke-width="0.7" stroke-opacity="0.55" stroke-linecap="round" stroke-linejoin="round" />
  <polyline points="438.05,98.74 441.73,99.73 445.41,100.71 449.09,101.7 452.78,102.69 456.46,103.67 460.14,104.66 463.82,105.65 467.51,106.63 471.19,107.62 474.87,108.61 478.55,109.59 482.24,110.58 485.92,111.57 489.6,112.55 493.28,113.54 496.97,114.53 500.65,115.51 504.33,116.5" fill="none" stroke="#1a1a1a" stroke-width="0.7" stroke-opacity="0.55" stroke-linecap="round" stroke-linejoin="round" />
  <polyline points="414.99,101.88 418.71,102.88 422.43,103.87 426.14,104.87 429.86,105.86 433.58,106.86 437.3,107.86 441.01,108.85 444.73,109.85 448.45,110.84 452.17,111.84 455.88,112.84 459.6,113.83 463.32,114.83 467.03,115.82 470.75,116.82 474.47,117.82 478.19,118.81 481.9,119.81 485.62,120.8 489.34,121.8 493.06,122.8 496.77,123.79 500.49,124.79 504.21,125.78" fill="none" stroke="#1a1a1a" stroke-width="0.7" stroke-opacity="0.55" stroke-linecap="round" stroke-linejoin="round" />
  <polyline points="406.29,108.86 410.05,109.87 413.81,110.88 417.57,111.89 421.33,112.9 425.09,113.9 428.86,114.91 432.62,115.92 436.38,116.93 440.14,117.94 443.9,118.94 447.66,119.95 451.42,120.96 455.19,121.97 458.95,122.97 462.71,123.98 466.47,124.99 470.23,126 473.99,127.01 477.75,128.01 481.52,129.02 485.28,130.03 489.04,131.04 492.8,132.05 496.56,133.05 500.32,134.06 504.08,135.07" fill="none" stroke="#1a1a1a" stroke-width="0.7" stroke-opacity="0.55" stroke-linecap="round" stroke-linejoin="round" />
  <polyline points="406.66,118.28 410.41,119.29 414.15,120.29 417.89,121.29 421.63,122.29 425.38,123.3 429.12,124.3 432.86,125.3 436.6,126.3 440.34,127.31 444.09,128.31 447.83,129.31 451.57,130.32 455.31,131.32 459.06,132.32 462.8,133.32 466.54,134.33 470.28,135.33 474.02,136.33 477.77,137.33 481.51,138.34 485.25,139.34 488.99,140.34 492.73,141.35 496.48,142.35 500.22,143.35 503.96,144.35" fill="none" stroke="#1a1a1a" stroke-width="0.7" stroke-opacity="0.55" stroke-linecap="round" stroke-linejoin="round" />
  <polyline points="407.04,127.7 410.76,128.7 414.49,129.7 418.21,130.69 421.93,131.69 425.66,132.69 429.38,133.69 433.1,134.68 436.83,135.68 440.55,136.68 444.27,137.68 447.99,138.67 451.72,139.67 455.44,140.67 459.16,141.67 462.89,142.66 466.61,143.66 470.33,144.66 474.05,145.66 477.78,146.66 481.5,147.65 485.22,148.65 488.95,149.65 492.67,150.65 496.39,151.64 500.12,152.64 503.84,153.64" fill="none" stroke="#1a1a1a" stroke-width="0.7" stroke-opacity="0.55" stroke-linecap="round" stroke-linejoin="round" />
  <polyline points="407.42,137.12 411.27,138.15 415.12,139.18 418.97,140.22 422.83,141.25 426.68,142.28 430.53,143.31 434.38,144.34 438.23,145.38 442.09,146.41 445.94,147.44 449.79,148.47 453.64,149.51 457.49,150.54 461.34,151.57 465.2,152.6 469.05,153.63 472.9,154.67 476.75,155.7 480.6,156.73 484.46,157.76 488.31,158.79 492.16,159.83 496.01,160.86 499.86,161.89 503.71,162.92" fill="none" stroke="#1a1a1a" stroke-width="0.7" stroke-opacity="0.55" stroke-linecap="round" stroke-linejoin="round" />
  <polyline points="407.8,146.54 411.63,147.57 415.46,148.59 419.29,149.62 423.12,150.65 426.96,151.67 430.79,152.7 434.62,153.73 438.45,154.75 442.28,155.78 446.11,156.81 449.95,157.83 453.78,158.86 457.61,159.89 461.44,160.91 465.27,161.94 469.11,162.97 472.94,163.99 476.77,165.02 480.6,166.05 484.43,167.07 488.26,168.1 492.1,169.13 495.93,170.15 499.76,171.18 503.59,172.21" fill="none" stroke="#1a1a1a" stroke-width="0.7" stroke-opacity="0.55" stroke-linecap="round" stroke-linejoin="round" />
  <polyline points="408.17,155.96 411.99,156.98 415.8,158 419.61,159.02 423.42,160.04 427.23,161.06 431.04,162.09 434.86,163.11 438.67,164.13 442.48,165.15 446.29,166.17 450.1,167.19 453.92,168.21 457.73,169.23 461.54,170.26 465.35,171.28 469.16,172.3 472.97,173.32 476.79,174.34 480.6,175.36 484.41,176.38 488.22,177.41 492.03,178.43 495.84,179.45 499.66,180.47 503.47,181.49" fill="none" stroke="#1a1a1a" stroke-width="0.7" stroke-opacity="0.55" stroke-linecap="round" stroke-linejoin="round" />
  <polyline points="408.55,165.38 412.34,166.39 416.13,167.41 419.93,168.42 423.72,169.44 427.51,170.46 431.3,171.47 435.09,172.49 438.89,173.5 442.68,174.52 446.47,175.54 450.26,176.55 454.05,177.57 457.84,178.58 461.64,179.6 465.43,180.62 469.22,181.63 473.01,182.65 476.8,183.66 480.59,184.68 484.39,185.7 488.18,186.71 491.97,187.73 495.76,188.74 499.55,189.76 503.35,190.78" fill="none" stroke="#1a1a1a" stroke-width="0.7" stroke-opacity="0.55" stroke-linecap="round" stroke-linejoin="round" />
  <polyline points="408.93,174.79 412.7,175.81 416.47,176.82 420.24,177.83 424.02,178.84 427.79,179.85 431.56,180.86 435.33,181.87 439.1,182.88 442.87,183.89 446.65,184.9 450.42,185.91 454.19,186.92 457.96,187.93 461.73,188.94 465.5,189.95 469.28,190.96 473.05,191.98 476.82,192.99 480.59,194 484.36,195.01 488.13,196.02 491.91,197.03 495.68,198.04 499.45,199.05 503.22,200.06" fill="none" stroke="#1a1a1a" stroke-width="0.7" stroke-opacity="0.55" stroke-linecap="round" stroke-linejoin="round" />
  <polyline points="409.31,184.21 413.06,185.22 416.81,186.22 420.56,187.23 424.31,188.23 428.06,189.24 431.82,190.24 435.57,191.25 439.32,192.26 443.07,193.26 446.82,194.27 450.57,195.27 454.33,196.28 458.08,197.28 461.83,198.29 465.58,199.29 469.33,200.3 473.08,201.3 476.84,202.31 480.59,203.31 484.34,204.32 488.09,205.32 491.84,206.33 495.6,207.33 499.35,208.34 503.1,209.34" fill="none" stroke="#1a1a1a" stroke-width="0.7" stroke-opacity="0.55" stroke-linecap="round" stroke-linejoin="round" />
  <polyline points="409.68,193.63 413.41,194.63 417.15,195.63 420.88,196.63 424.61,197.63 428.34,198.63 432.07,199.63 435.8,200.63 439.54,201.63 443.27,202.63 447,203.63 450.73,204.63 454.46,205.63 458.19,206.63 461.93,207.63 465.66,208.63 469.39,209.63 473.12,210.63 476.85,211.63 480.59,212.63 484.32,213.63 488.05,214.63 491.78,215.63 495.51,216.63 499.24,217.63 502.98,218.63" fill="none" stroke="#1a1a1a" stroke-width="0.7" stroke-opacity="0.55" stroke-linecap="round" stroke-linejoin="round" />
  <polyline points="410.06,203.05 413.78,204.05 417.5,205.04 421.22,206.04 424.94,207.04 428.65,208.03 432.37,209.03 436.09,210.03 439.81,211.02 443.53,212.02 447.25,213.01 450.97,214.01 454.69,215.01 458.4,216 462.12,217 465.84,218 469.56,218.99 473.28,219.99 477,220.99 480.72,221.98 484.44,222.98 488.15,223.98 491.87,224.97 495.59,225.97 499.31,226.96" fill="none" stroke="#1a1a1a" stroke-width="0.7" stroke-opacity="0.55" stroke-linecap="round" stroke-linejoin="round" />
  <polyline points="410.44,212.47 414.12,213.46 417.81,214.44 421.49,215.43 425.18,216.42 428.86,217.41 432.55,218.39 436.23,219.38 439.92,220.37 443.6,221.36 447.29,222.34 450.97,223.33 454.66,224.32 458.34,225.31 462.03,226.29 465.71,227.28 469.4,228.27 473.09,229.26 476.77,230.24 480.46,231.23 484.14,232.22 487.83,233.2" fill="none" stroke="#1a1a1a" stroke-width="0.7" stroke-opacity="0.55" stroke-linecap="round" stroke-linejoin="round" />
  <polyline points="410.81,221.89 414.67,222.92 418.53,223.96 422.39,224.99 426.25,226.02 430.11,227.06 433.97,228.09 437.83,229.13 441.69,230.16 445.55,231.19 449.41,232.23 453.27,233.26 457.12,234.3 460.98,235.33 464.84,236.36 468.7,237.4" fill="none" stroke="#1a1a1a" stroke-width="0.7" stroke-opacity="0.55" stroke-linecap="round" stroke-linejoin="round" />
  <polyline points="503.11,208.78 502.08,212.63 501.04,216.48 500.01,220.32 498.98,224.17 497.95,228.02" fill="none" stroke="#1a1a1a" stroke-width="0.7" stroke-opacity="0.55" stroke-linecap="round" stroke-linejoin="round" />
  <polyline points="503.59,172.2 502.57,176.02 501.54,179.85 500.52,183.67 499.49,187.5 498.47,191.33 497.44,195.15 496.42,198.98 495.39,202.81 494.36,206.63 493.34,210.46 492.31,214.28 491.29,218.11 490.26,221.94 489.24,225.76 488.21,229.59 487.19,233.42" fill="none" stroke="#1a1a1a" stroke-width="0.7" stroke-opacity="0.55" stroke-linecap="round" stroke-linejoin="round" />
  <polyline points="504.08,135.61 503.08,139.33 502.08,143.05 501.09,146.77 500.09,150.5 499.09,154.22 498.09,157.94 497.1,161.66 496.1,165.38 495.1,169.1 494.11,172.82 493.11,176.54 492.11,180.27 491.11,183.99 490.12,187.71 489.12,191.43 488.12,195.15 487.13,198.87 486.13,202.59 485.13,206.32 484.13,210.04 483.14,213.76 482.14,217.48 481.14,221.2 480.15,224.92 479.15,228.64 478.15,232.37 477.16,236.09" fill="none" stroke="#1a1a1a" stroke-width="0.7" stroke-opacity="0.55" stroke-linecap="round" stroke-linejoin="round" />
  <polyline points="501.19,111.63 500.16,115.44 499.14,119.26 498.12,123.07 497.1,126.89 496.07,130.71 495.05,134.52 494.03,138.34 493.01,142.15 491.98,145.97 490.96,149.79 489.94,153.6 488.92,157.42 487.89,161.23 486.87,165.05 485.85,168.87 484.83,172.68 483.8,176.5 482.78,180.31 481.76,184.13 480.74,187.95 479.71,191.76 478.69,195.58 477.67,199.39 476.65,203.21 475.62,207.02 474.6,210.84 473.58,214.66 472.56,218.47 471.53,222.29 470.51,226.1 469.49,229.92 468.47,233.74 467.44,237.55" fill="none" stroke="#1a1a1a" stroke-width="0.7" stroke-opacity="0.55" stroke-linecap="round" stroke-linejoin="round" />
  <polyline points="491.64,112.47 490.62,116.27 489.6,120.08 488.58,123.89 487.56,127.7 486.54,131.51 485.52,135.32 484.5,139.13 483.48,142.94 482.46,146.74 481.44,150.55 480.42,154.36 479.4,158.17 478.38,161.98 477.36,165.79 476.34,169.6 475.32,173.41 474.29,177.21 473.27,181.02 472.25,184.83 471.23,188.64 470.21,192.45 469.19,196.26 468.17,200.07 467.15,203.88 466.13,207.68 465.11,211.49 464.09,215.3 463.07,219.11 462.05,222.92 461.03,226.73 460.01,230.54 458.99,234.34 457.97,238.15" fill="none" stroke="#1a1a1a" stroke-width="0.7" stroke-opacity="0.55" stroke-linecap="round" stroke-linejoin="round" />
  <polyline points="481.65,115 480.62,118.84 479.59,122.69 478.56,126.53 477.53,130.38 476.5,134.22 475.47,138.07 474.44,141.91 473.41,145.75 472.38,149.6 471.35,153.44 470.32,157.29 469.29,161.13 468.26,164.98 467.23,168.82 466.2,172.67 465.17,176.51 464.14,180.36 463.11,184.2 462.08,188.04 461.05,191.89 460.02,195.73 458.98,199.58 457.95,203.42 456.92,207.27 455.89,211.11 454.86,214.96 453.83,218.8 452.8,222.65 451.77,226.49 450.74,230.33 449.71,234.18 448.68,238.02" fill="none" stroke="#1a1a1a" stroke-width="0.7" stroke-opacity="0.55" stroke-linecap="round" stroke-linejoin="round" />
  <polyline points="472.56,114.12 471.53,117.97 470.5,121.81 469.47,125.66 468.44,129.51 467.41,133.35 466.38,137.2 465.35,141.04 464.32,144.89 463.29,148.73 462.26,152.58 461.23,156.42 460.2,160.27 459.17,164.11 458.14,167.96 457.11,171.81 456.08,175.65 455.05,179.5 454.02,183.34 452.99,187.19 451.96,191.03 450.93,194.88 449.9,198.72 448.87,202.57 447.84,206.41 446.81,210.26 445.78,214.1 444.74,217.95 443.71,221.8 442.68,225.64 441.65,229.49 440.62,233.33 439.59,237.18" fill="none" stroke="#1a1a1a" stroke-width="0.7" stroke-opacity="0.55" stroke-linecap="round" stroke-linejoin="round" />
  <polyline points="462.39,117.32 461.37,121.13 460.35,124.94 459.33,128.76 458.31,132.57 457.28,136.38 456.26,140.2 455.24,144.01 454.22,147.82 453.2,151.64 452.17,155.45 451.15,159.26 450.13,163.08 449.11,166.89 448.09,170.7 447.07,174.51 446.04,178.33 445.02,182.14 444,185.95 442.98,189.77 441.96,193.58 440.93,197.39 439.91,201.21 438.89,205.02 437.87,208.83 436.85,212.65 435.83,216.46 434.8,220.27 433.78,224.09 432.76,227.9 431.74,231.71 430.72,235.53" fill="none" stroke="#1a1a1a" stroke-width="0.7" stroke-opacity="0.55" stroke-linecap="round" stroke-linejoin="round" />
  <polyline points="453.07,117.32 452.04,121.17 451.01,125.02 449.98,128.88 448.95,132.73 447.91,136.58 446.88,140.43 445.85,144.28 444.82,148.13 443.79,151.98 442.76,155.83 441.72,159.68 440.69,163.53 439.66,167.38 438.63,171.23 437.6,175.08 436.57,178.93 435.53,182.78 434.5,186.63 433.47,190.48 432.44,194.33 431.41,198.18 430.38,202.03 429.34,205.88 428.31,209.73 427.28,213.58 426.25,217.43 425.22,221.28 424.19,225.13 423.15,228.98 422.12,232.83" fill="none" stroke="#1a1a1a" stroke-width="0.7" stroke-opacity="0.55" stroke-linecap="round" stroke-linejoin="round" />
  <polyline points="443.77,117.27 442.75,121.09 441.72,124.9 440.7,128.72 439.68,132.53 438.66,136.35 437.63,140.16 436.61,143.98 435.59,147.8 434.57,151.61 433.55,155.43 432.52,159.24 431.5,163.06 430.48,166.87 429.46,170.69 428.43,174.51 427.41,178.32 426.39,182.14 425.37,185.95 424.34,189.77 423.32,193.59 422.3,197.4 421.28,201.22 420.25,205.03 419.23,208.85 418.21,212.66 417.19,216.48 416.16,220.3 415.14,224.11 414.12,227.93" fill="none" stroke="#1a1a1a" stroke-width="0.7" stroke-opacity="0.55" stroke-linecap="round" stroke-linejoin="round" />
  <polyline points="434.41,117.42 433.4,121.18 432.4,124.94 431.39,128.7 430.38,132.45 429.38,136.21 428.37,139.97 427.36,143.73 426.36,147.49 425.35,151.25 424.34,155 423.33,158.76 422.33,162.52 421.32,166.28 420.31,170.04 419.31,173.79 418.3,177.55 417.29,181.31 416.29,185.07 415.28,188.83 414.27,192.59 413.26,196.34 412.26,200.1 411.25,203.86 410.24,207.62" fill="none" stroke="#1a1a1a" stroke-width="0.7" stroke-opacity="0.55" stroke-linecap="round" stroke-linejoin="round" />
  <polyline points="425.93,114.29 424.94,118 423.94,121.71 422.95,125.42 421.96,129.13 420.96,132.84 419.97,136.55 418.97,140.26 417.98,143.97 416.98,147.68 415.99,151.39 415,155.11 414,158.82 413.01,162.53 412.01,166.24 411.02,169.95 410.03,173.66 409.03,177.37" fill="none" stroke="#1a1a1a" stroke-width="0.7" stroke-opacity="0.55" stroke-linecap="round" stroke-linejoin="round" />
  <polyline points="417.13,112.37 416.1,116.23 415.06,120.09 414.03,123.95 412.99,127.81 411.96,131.67 410.92,135.53 409.89,139.4 408.85,143.26 407.82,147.12" fill="none" stroke="#1a1a1a" stroke-width="0.7" stroke-opacity="0.55" stroke-linecap="round" stroke-linejoin="round" />
  <polyline points="408.42,110.1 407.51,113.48 406.61,116.87" fill="none" stroke="#1a1a1a" stroke-width="0.7" stroke-opacity="0.55" stroke-linecap="round" stroke-linejoin="round" />
  <polyline points="645.16,110.75 648.97,111.77 652.77,112.79 656.58,113.81 660.38,114.83 664.19,115.85 667.99,116.87" fill="none" stroke="#1a1a1a" stroke-width="0.7" stroke-opacity="0.55" stroke-linecap="round" stroke-linejoin="round" />
  <polyline points="632.27,111.44 636.13,112.47 639.99,113.51 643.85,114.54 647.71,115.58 651.58,116.61 655.44,117.65 659.3,118.68 663.16,119.72 667.03,120.75 670.89,121.79 674.75,122.82 678.61,123.86" fill="none" stroke="#1a1a1a" stroke-width="0.7" stroke-opacity="0.55" stroke-linecap="round" stroke-linejoin="round" />
  <polyline points="624.11,113.4 627.88,114.41 631.66,115.42 635.43,116.43 639.21,117.44 642.98,118.45 646.75,119.46 650.53,120.47 654.3,121.49 658.08,122.5 661.85,123.51 665.63,124.52 669.4,125.53 673.17,126.54 676.95,127.55 680.72,128.56 684.5,129.58" fill="none" stroke="#1a1a1a" stroke-width="0.7" stroke-opacity="0.55" stroke-linecap="round" stroke-linejoin="round" />
  <polyline points="617.75,115.83 621.48,116.83 625.21,117.83 628.94,118.83 632.66,119.83 636.39,120.83 640.12,121.83 643.85,122.83 647.57,123.82 651.3,124.82 655.03,125.82 658.76,126.82 662.49,127.82 666.21,128.82 669.94,129.82 673.67,130.82 677.4,131.81 681.12,132.81 684.85,133.81 688.58,134.81" fill="none" stroke="#1a1a1a" stroke-width="0.7" stroke-opacity="0.55" stroke-linecap="round" stroke-linejoin="round" />
  <polyline points="612.48,118.56 616.25,119.57 620.01,120.58 623.78,121.59 627.55,122.6 631.31,123.61 635.08,124.62 638.85,125.63 642.61,126.64 646.38,127.64 650.15,128.65 653.91,129.66 657.68,130.67 661.45,131.68 665.21,132.69 668.98,133.7 672.75,134.71 676.51,135.72 680.28,136.73 684.05,137.74 687.81,138.75 691.58,139.76" fill="none" stroke="#1a1a1a" stroke-width="0.7" stroke-opacity="0.55" stroke-linecap="round" stroke-linejoin="round" />
  <polyline points="607.97,121.49 611.7,122.49 615.43,123.49 619.17,124.49 622.9,125.49 626.63,126.49 630.36,127.49 634.1,128.49 637.83,129.49 641.56,130.49 645.29,131.49 649.03,132.5 652.76,133.5 656.49,134.5 660.22,135.5 663.96,136.5 667.69,137.5 671.42,138.5 675.15,139.5 678.89,140.5 682.62,141.5 686.35,142.5 690.08,143.5 693.82,144.5" fill="none" stroke="#1a1a1a" stroke-width="0.7" stroke-opacity="0.55" stroke-linecap="round" stroke-linejoin="round" />
  <polyline points="604.06,124.59 607.87,125.61 611.67,126.63 615.48,127.65 619.29,128.67 623.1,129.69 626.91,130.71 630.71,131.73 634.52,132.75 638.33,133.77 642.14,134.79 645.95,135.81 649.76,136.83 653.56,137.85 657.37,138.87 661.18,139.89 664.99,140.91 668.8,141.93 672.6,142.95 676.41,143.97 680.22,144.99 684.03,146.02 687.84,147.04 691.65,148.06 695.45,149.08" fill="none" stroke="#1a1a1a" stroke-width="0.7" stroke-opacity="0.55" stroke-linecap="round" stroke-linejoin="round" />
  <polyline points="600.64,127.81 604.48,128.84 608.32,129.87 612.15,130.9 615.99,131.93 619.83,132.95 623.67,133.98 627.51,135.01 631.35,136.04 635.18,137.07 639.02,138.1 642.86,139.13 646.7,140.15 650.54,141.18 654.38,142.21 658.22,143.24 662.05,144.27 665.89,145.3 669.73,146.32 673.57,147.35 677.41,148.38 681.25,149.41 685.08,150.44 688.92,151.47 692.76,152.5 696.6,153.52" fill="none" stroke="#1a1a1a" stroke-width="0.7" stroke-opacity="0.55" stroke-linecap="round" stroke-linejoin="round" />
  <polyline points="597.65,131.15 601.48,132.18 605.31,133.21 609.15,134.23 612.98,135.26 616.81,136.29 620.65,137.31 624.48,138.34 628.31,139.37 632.15,140.4 635.98,141.42 639.82,142.45 643.65,143.48 647.48,144.5 651.32,145.53 655.15,146.56 658.98,147.59 662.82,148.61 666.65,149.64 670.48,150.67 674.32,151.7 678.15,152.72 681.98,153.75 685.82,154.78 689.65,155.8 693.49,156.83 697.32,157.86" fill="none" stroke="#1a1a1a" stroke-width="0.7" stroke-opacity="0.55" stroke-linecap="round" stroke-linejoin="round" />
  <polyline points="595.03,134.59 598.83,135.61 602.63,136.63 606.43,137.65 610.23,138.67 614.04,139.68 617.84,140.7 621.64,141.72 625.44,142.74 629.24,143.76 633.04,144.78 636.84,145.79 640.64,146.81 644.44,147.83 648.25,148.85 652.05,149.87 655.85,150.89 659.65,151.91 663.45,152.92 667.25,153.94 671.05,154.96 674.85,155.98 678.65,157 682.46,158.02 686.26,159.04 690.06,160.05 693.86,161.07 697.66,162.09" fill="none" stroke="#1a1a1a" stroke-width="0.7" stroke-opacity="0.55" stroke-linecap="round" stroke-linejoin="round" />
  <polyline points="592.76,138.12 596.51,139.13 600.26,140.13 604,141.14 607.75,142.14 611.49,143.14 615.24,144.15 618.99,145.15 622.73,146.16 626.48,147.16 630.22,148.16 633.97,149.17 637.72,150.17 641.46,151.17 645.21,152.18 648.95,153.18 652.7,154.19 656.45,155.19 660.19,156.19 663.94,157.2 667.69,158.2 671.43,159.2 675.18,160.21 678.92,161.21 682.67,162.22 686.42,163.22 690.16,164.22 693.91,165.23 697.65,166.23" fill="none" stroke="#1a1a1a" stroke-width="0.7" stroke-opacity="0.55" stroke-linecap="round" stroke-linejoin="round" />
  <polyline points="590.82,141.75 594.62,142.76 598.43,143.78 602.23,144.8 606.04,145.82 609.84,146.84 613.64,147.86 617.45,148.88 621.25,149.9 625.05,150.92 628.86,151.94 632.66,152.96 636.46,153.98 640.27,154.99 644.07,156.01 647.88,157.03 651.68,158.05 655.48,159.07 659.29,160.09 663.09,161.11 666.89,162.13 670.7,163.15 674.5,164.17 678.3,165.19 682.11,166.21 685.91,167.23 689.72,168.24 693.52,169.26 697.32,170.28" fill="none" stroke="#1a1a1a" stroke-width="0.7" stroke-opacity="0.55" stroke-linecap="round" stroke-linejoin="round" />
  <polyline points="589.19,145.45 593.03,146.48 596.87,147.51 600.71,148.54 604.54,149.56 608.38,150.59 612.22,151.62 616.06,152.65 619.9,153.68 623.74,154.71 627.58,155.74 631.42,156.76 635.26,157.79 639.1,158.82 642.94,159.85 646.77,160.88 650.61,161.91 654.45,162.94 658.29,163.97 662.13,164.99 665.97,166.02 669.81,167.05 673.65,168.08 677.49,169.11 681.33,170.14 685.16,171.17 689,172.19 692.84,173.22 696.68,174.25" fill="none" stroke="#1a1a1a" stroke-width="0.7" stroke-opacity="0.55" stroke-linecap="round" stroke-linejoin="round" />
  <polyline points="587.86,149.23 591.71,150.27 595.56,151.3 599.42,152.33 603.27,153.36 607.12,154.4 610.98,155.43 614.83,156.46 618.68,157.49 622.53,158.53 626.39,159.56 630.24,160.59 634.09,161.62 637.95,162.65 641.8,163.69 645.65,164.72 649.5,165.75 653.36,166.78 657.21,167.82 661.06,168.85 664.92,169.88 668.77,170.91 672.62,171.95 676.47,172.98 680.33,174.01 684.18,175.04 688.03,176.08 691.89,177.11 695.74,178.14" fill="none" stroke="#1a1a1a" stroke-width="0.7" stroke-opacity="0.55" stroke-linecap="round" stroke-linejoin="round" />
  <polyline points="586.83,153.1 590.67,154.13 594.52,155.16 598.36,156.19 602.21,157.22 606.05,158.25 609.9,159.28 613.74,160.31 617.59,161.34 621.43,162.37 625.28,163.4 629.13,164.43 632.97,165.46 636.82,166.49 640.66,167.52 644.51,168.55 648.35,169.58 652.2,170.61 656.04,171.65 659.89,172.68 663.73,173.71 667.58,174.74 671.42,175.77 675.27,176.8 679.12,177.83 682.96,178.86 686.81,179.89 690.65,180.92 694.5,181.95" fill="none" stroke="#1a1a1a" stroke-width="0.7" stroke-opacity="0.55" stroke-linecap="round" stroke-linejoin="round" />
  <polyline points="586.09,157.04 589.91,158.07 593.73,159.09 597.54,160.11 601.36,161.13 605.18,162.16 608.99,163.18 612.81,164.2 616.63,165.22 620.44,166.25 624.26,167.27 628.08,168.29 631.89,169.31 635.71,170.34 639.52,171.36 643.34,172.38 647.16,173.41 650.97,174.43 654.79,175.45 658.61,176.47 662.42,177.5 666.24,178.52 670.06,179.54 673.87,180.56 677.69,181.59 681.51,182.61 685.32,183.63 689.14,184.65 692.96,185.68" fill="none" stroke="#1a1a1a" stroke-width="0.7" stroke-opacity="0.55" stroke-linecap="round" stroke-linejoin="round" />
  <polyline points="585.67,161.07 589.44,162.08 593.2,163.09 596.97,164.1 600.73,165.11 604.5,166.12 608.26,167.12 612.03,168.13 615.79,169.14 619.56,170.15 623.33,171.16 627.09,172.17 630.86,173.18 634.62,174.19 638.39,175.2 642.15,176.21 645.92,177.21 649.68,178.22 653.45,179.23 657.22,180.24 660.98,181.25 664.75,182.26 668.51,183.27 672.28,184.28 676.04,185.29 679.81,186.3 683.57,187.3 687.34,188.31 691.11,189.32" fill="none" stroke="#1a1a1a" stroke-width="0.7" stroke-opacity="0.55" stroke-linecap="round" stroke-linejoin="round" />
  <polyline points="585.57,165.18 589.39,166.21 593.22,167.24 597.05,168.26 600.88,169.29 604.71,170.31 608.54,171.34 612.37,172.37 616.19,173.39 620.02,174.42 623.85,175.44 627.68,176.47 631.51,177.49 635.34,178.52 639.17,179.55 642.99,180.57 646.82,181.6 650.65,182.62 654.48,183.65 658.31,184.68 662.14,185.7 665.97,186.73 669.79,187.75 673.62,188.78 677.45,189.8 681.28,190.83 685.11,191.86 688.94,192.88" fill="none" stroke="#1a1a1a" stroke-width="0.7" stroke-opacity="0.55" stroke-linecap="round" stroke-linejoin="round" />
  <polyline points="585.8,169.39 589.53,170.39 593.25,171.39 596.98,172.38 600.71,173.38 604.44,174.38 608.16,175.38 611.89,176.38 615.62,177.38 619.34,178.38 623.07,179.37 626.8,180.37 630.52,181.37 634.25,182.37 637.98,183.37 641.7,184.37 645.43,185.37 649.16,186.36 652.89,187.36 656.61,188.36 660.34,189.36 664.07,190.36 667.79,191.36 671.52,192.36 675.25,193.36 678.97,194.35 682.7,195.35 686.43,196.35" fill="none" stroke="#1a1a1a" stroke-width="0.7" stroke-opacity="0.55" stroke-linecap="round" stroke-linejoin="round" />
  <polyline points="586.4,173.69 590.14,174.69 593.88,175.69 597.61,176.69 601.35,177.7 605.09,178.7 608.82,179.7 612.56,180.7 616.3,181.7 620.03,182.7 623.77,183.7 627.5,184.7 631.24,185.7 634.98,186.71 638.71,187.71 642.45,188.71 646.19,189.71 649.92,190.71 653.66,191.71 657.4,192.71 661.13,193.71 664.87,194.72 668.61,195.72 672.34,196.72 676.08,197.72 679.82,198.72 683.55,199.72" fill="none" stroke="#1a1a1a" stroke-width="0.7" stroke-opacity="0.55" stroke-linecap="round" stroke-linejoin="round" />
  <polyline points="587.42,178.1 591.13,179.1 594.84,180.09 598.56,181.09 602.27,182.08 605.99,183.08 609.7,184.07 613.41,185.07 617.13,186.06 620.84,187.06 624.56,188.05 628.27,189.05 631.98,190.05 635.7,191.04 639.41,192.04 643.13,193.03 646.84,194.03 650.55,195.02 654.27,196.02 657.98,197.01 661.7,198.01 665.41,199 669.12,200 672.84,200.99 676.55,201.99 680.26,202.98" fill="none" stroke="#1a1a1a" stroke-width="0.7" stroke-opacity="0.55" stroke-linecap="round" stroke-linejoin="round" />
  <polyline points="588.9,182.64 592.71,183.66 596.52,184.68 600.33,185.7 604.14,186.72 607.95,187.75 611.75,188.77 615.56,189.79 619.37,190.81 623.18,191.83 626.99,192.85 630.8,193.87 634.61,194.89 638.42,195.91 642.23,196.93 646.04,197.95 649.84,198.97 653.65,199.99 657.46,201.01 661.27,202.03 665.08,203.05 668.89,204.08 672.7,205.1 676.51,206.12" fill="none" stroke="#1a1a1a" stroke-width="0.7" stroke-opacity="0.55" stroke-linecap="round" stroke-linejoin="round" />
  <polyline points="590.94,187.33 594.64,188.32 598.33,189.31 602.02,190.3 605.72,191.29 609.41,192.28 613.1,193.27 616.8,194.26 620.49,195.25 624.18,196.24 627.87,197.23 631.57,198.22 635.26,199.21 638.95,200.19 642.65,201.18 646.34,202.17 650.03,203.16 653.73,204.15 657.42,205.14 661.11,206.13 664.8,207.12 668.5,208.11 672.19,209.1" fill="none" stroke="#1a1a1a" stroke-width="0.7" stroke-opacity="0.55" stroke-linecap="round" stroke-linejoin="round" />
  <polyline points="593.69,192.21 597.37,193.19 601.04,194.18 604.72,195.16 608.39,196.15 612.06,197.13 615.74,198.11 619.41,199.1 623.08,200.08 626.76,201.07 630.43,202.05 634.1,203.04 637.78,204.02 641.45,205.01 645.12,205.99 648.8,206.97 652.47,207.96 656.15,208.94 659.82,209.93 663.49,210.91 667.17,211.9" fill="none" stroke="#1a1a1a" stroke-width="0.7" stroke-opacity="0.55" stroke-linecap="round" stroke-linejoin="round" />
  <polyline points="597.41,197.34 601.16,198.35 604.91,199.36 608.66,200.36 612.41,201.37 616.16,202.37 619.92,203.38 623.67,204.38 627.42,205.39 631.17,206.39 634.92,207.4 638.67,208.4 642.42,209.41 646.17,210.41 649.93,211.42 653.68,212.42 657.43,213.43 661.18,214.43" fill="none" stroke="#1a1a1a" stroke-width="0.7" stroke-opacity="0.55" stroke-linecap="round" stroke-linejoin="round" />
  <polyline points="602.63,202.88 606.28,203.86 609.92,204.84 613.57,205.82 617.22,206.79 620.86,207.77 624.51,208.75 628.16,209.73 631.8,210.7 635.45,211.68 639.1,212.66 642.74,213.63 646.39,214.61 650.04,215.59 653.68,216.57" fill="none" stroke="#1a1a1a" stroke-width="0.7" stroke-opacity="0.55" stroke-linecap="round" stroke-linejoin="round" />
  <polyline points="611.07,209.29 614.61,210.24 618.16,211.19 621.7,212.14 625.25,213.09 628.79,214.04 632.34,214.99 635.88,215.94 639.43,216.89 642.97,217.84" fill="none" stroke="#1a1a1a" stroke-width="0.7" stroke-opacity="0.55" stroke-linecap="round" stroke-linejoin="round" />
  <polyline points="691.91,140.38 692.87,143.95 693.82,147.52 694.78,151.09 695.74,154.66 696.69,158.23 697.65,161.8" fill="none" stroke="#1a1a1a" stroke-width="0.7" stroke-opacity="0.55" stroke-linecap="round" stroke-linejoin="round" />
  <polyline points="686.02,133.84 686.99,137.49 687.97,141.13 688.94,144.77 689.92,148.41 690.9,152.05 691.87,155.69 692.85,159.34 693.82,162.98 694.8,166.62 695.78,170.26 696.75,173.9" fill="none" stroke="#1a1a1a" stroke-width="0.7" stroke-opacity="0.55" stroke-linecap="round" stroke-linejoin="round" />
  <polyline points="680.39,128.31 681.41,132.11 682.43,135.91 683.45,139.71 684.47,143.51 685.48,147.31 686.5,151.11 687.52,154.92 688.54,158.72 689.56,162.52 690.58,166.32 691.6,170.12 692.61,173.92 693.63,177.72 694.65,181.52" fill="none" stroke="#1a1a1a" stroke-width="0.7" stroke-opacity="0.55" stroke-linecap="round" stroke-linejoin="round" />
  <polyline points="675.16,124.22 676.15,127.94 677.15,131.66 678.15,135.38 679.14,139.1 680.14,142.82 681.14,146.54 682.13,150.26 683.13,153.98 684.13,157.7 685.12,161.42 686.12,165.14 687.12,168.85 688.11,172.57 689.11,176.29 690.11,180.01 691.1,183.73 692.1,187.45" fill="none" stroke="#1a1a1a" stroke-width="0.7" stroke-opacity="0.55" stroke-linecap="round" stroke-linejoin="round" />
  <polyline points="670.22,121.25 671.22,125 672.23,128.74 673.23,132.48 674.23,136.22 675.23,139.97 676.24,143.71 677.24,147.45 678.24,151.2 679.25,154.94 680.25,158.68 681.25,162.42 682.25,166.17 683.26,169.91 684.26,173.65 685.26,177.4 686.27,181.14 687.27,184.88 688.27,188.62 689.27,192.37" fill="none" stroke="#1a1a1a" stroke-width="0.7" stroke-opacity="0.55" stroke-linecap="round" stroke-linejoin="round" />
  <polyline points="665.46,118.93 666.45,122.63 667.44,126.33 668.43,130.02 669.42,133.72 670.41,137.42 671.4,141.11 672.39,144.81 673.38,148.51 674.37,152.2 675.36,155.9 676.35,159.6 677.34,163.29 678.33,166.99 679.32,170.69 680.32,174.39 681.31,178.08 682.3,181.78 683.29,185.48 684.28,189.17 685.27,192.87 686.26,196.57" fill="none" stroke="#1a1a1a" stroke-width="0.7" stroke-opacity="0.55" stroke-linecap="round" stroke-linejoin="round" />
  <polyline points="660.87,117.29 661.88,121.05 662.89,124.82 663.9,128.59 664.91,132.36 665.92,136.13 666.93,139.9 667.94,143.67 668.95,147.44 669.96,151.21 670.97,154.98 671.98,158.75 672.99,162.52 674,166.29 675.01,170.06 676.02,173.82 677.03,177.59 678.04,181.36 679.05,185.13 680.06,188.9 681.07,192.67 682.08,196.44 683.09,200.21" fill="none" stroke="#1a1a1a" stroke-width="0.7" stroke-opacity="0.55" stroke-linecap="round" stroke-linejoin="round" />
  <polyline points="656.4,116.05 657.42,119.85 658.44,123.65 659.46,127.44 660.47,131.24 661.49,135.04 662.51,138.84 663.53,142.63 664.54,146.43 665.56,150.23 666.58,154.03 667.6,157.82 668.61,161.62 669.63,165.42 670.65,169.22 671.67,173.01 672.68,176.81 673.7,180.61 674.72,184.41 675.74,188.21 676.75,192 677.77,195.8 678.79,199.6 679.81,203.4" fill="none" stroke="#1a1a1a" stroke-width="0.7" stroke-opacity="0.55" stroke-linecap="round" stroke-linejoin="round" />
  <polyline points="652.03,115.18 653.04,118.97 654.06,122.76 655.08,126.55 656.09,130.35 657.11,134.14 658.12,137.93 659.14,141.72 660.16,145.51 661.17,149.31 662.19,153.1 663.2,156.89 664.22,160.68 665.24,164.47 666.25,168.27 667.27,172.06 668.28,175.85 669.3,179.64 670.32,183.44 671.33,187.23 672.35,191.02 673.37,194.81 674.38,198.6 675.4,202.4 676.41,206.19" fill="none" stroke="#1a1a1a" stroke-width="0.7" stroke-opacity="0.55" stroke-linecap="round" stroke-linejoin="round" />
  <polyline points="647.74,114.62 648.75,118.39 649.75,122.15 650.76,125.91 651.77,129.67 652.78,133.43 653.78,137.19 654.79,140.95 655.8,144.71 656.81,148.47 657.81,152.23 658.82,155.99 659.83,159.75 660.84,163.51 661.84,167.27 662.85,171.03 663.86,174.79 664.87,178.55 665.87,182.31 666.88,186.07 667.89,189.83 668.9,193.59 669.9,197.35 670.91,201.11 671.92,204.87 672.93,208.63" fill="none" stroke="#1a1a1a" stroke-width="0.7" stroke-opacity="0.55" stroke-linecap="round" stroke-linejoin="round" />
  <polyline points="643.57,114.51 644.6,118.36 645.63,122.21 646.66,126.06 647.69,129.91 648.72,133.76 649.76,137.61 650.79,141.46 651.82,145.31 652.85,149.16 653.88,153.01 654.91,156.86 655.95,160.71 656.98,164.56 658.01,168.41 659.04,172.26 660.07,176.11 661.1,179.96 662.14,183.81 663.17,187.66 664.2,191.51 665.23,195.36 666.26,199.21 667.29,203.06 668.32,206.91 669.36,210.76" fill="none" stroke="#1a1a1a" stroke-width="0.7" stroke-opacity="0.55" stroke-linecap="round" stroke-linejoin="round" />
  <polyline points="639.43,114.53 640.44,118.3 641.45,122.07 642.46,125.84 643.47,129.61 644.48,133.39 645.49,137.16 646.5,140.93 647.51,144.7 648.53,148.47 649.54,152.24 650.55,156.02 651.56,159.79 652.57,163.56 653.58,167.33 654.59,171.1 655.6,174.87 656.61,178.64 657.62,182.42 658.63,186.19 659.64,189.96 660.65,193.73 661.66,197.5 662.67,201.27 663.68,205.05 664.69,208.82 665.71,212.59" fill="none" stroke="#1a1a1a" stroke-width="0.7" stroke-opacity="0.55" stroke-linecap="round" stroke-linejoin="round" />
  <polyline points="635.4,114.95 636.42,118.76 637.45,122.58 638.47,126.39 639.49,130.21 640.51,134.02 641.53,137.84 642.56,141.65 643.58,145.47 644.6,149.28 645.62,153.1 646.65,156.91 647.67,160.73 648.69,164.54 649.71,168.36 650.73,172.17 651.76,175.99 652.78,179.8 653.8,183.62 654.82,187.43 655.85,191.25 656.87,195.06 657.89,198.88 658.91,202.69 659.94,206.51 660.96,210.32 661.98,214.14" fill="none" stroke="#1a1a1a" stroke-width="0.7" stroke-opacity="0.55" stroke-linecap="round" stroke-linejoin="round" />
  <polyline points="631.44,115.61 632.47,119.45 633.5,123.29 634.52,127.13 635.55,130.97 636.58,134.81 637.61,138.65 638.64,142.48 639.67,146.32 640.7,150.16 641.72,154 642.75,157.84 643.78,161.68 644.81,165.52 645.84,169.35 646.87,173.19 647.9,177.03 648.92,180.87 649.95,184.71 650.98,188.55 652.01,192.39 653.04,196.22 654.07,200.06 655.1,203.9 656.12,207.74 657.15,211.58 658.18,215.42" fill="none" stroke="#1a1a1a" stroke-width="0.7" stroke-opacity="0.55" stroke-linecap="round" stroke-linejoin="round" />
  <polyline points="626.51,112.69 627.54,116.53 628.57,120.37 629.6,124.22 630.63,128.06 631.66,131.9 632.69,135.74 633.72,139.58 634.75,143.43 635.78,147.27 636.81,151.11 637.84,154.95 638.87,158.8 639.9,162.64 640.93,166.48 641.96,170.32 642.99,174.16 644.02,178.01 645.05,181.85 646.07,185.69 647.1,189.53 648.13,193.37 649.16,197.22 650.19,201.06 651.22,204.9 652.25,208.74 653.28,212.59 654.31,216.43" fill="none" stroke="#1a1a1a" stroke-width="0.7" stroke-opacity="0.55" stroke-linecap="round" stroke-linejoin="round" />
  <polyline points="622.69,113.87 623.71,117.69 624.74,121.52 625.76,125.35 626.79,129.17 627.81,133 628.84,136.82 629.87,140.65 630.89,144.48 631.92,148.3 632.94,152.13 633.97,155.95 634.99,159.78 636.02,163.61 637.04,167.43 638.07,171.26 639.09,175.09 640.12,178.91 641.14,182.74 642.17,186.56 643.19,190.39 644.22,194.22 645.24,198.04 646.27,201.87 647.29,205.7 648.32,209.52 649.34,213.35 650.37,217.17" fill="none" stroke="#1a1a1a" stroke-width="0.7" stroke-opacity="0.55" stroke-linecap="round" stroke-linejoin="round" />
  <polyline points="618.94,115.31 619.95,119.1 620.97,122.89 621.98,126.68 623,130.48 624.01,134.27 625.03,138.06 626.04,141.85 627.06,145.64 628.08,149.43 629.09,153.22 630.11,157.01 631.12,160.8 632.14,164.59 633.15,168.38 634.17,172.17 635.18,175.96 636.2,179.75 637.22,183.54 638.23,187.33 639.25,191.12 640.26,194.91 641.28,198.7 642.29,202.49 643.31,206.28 644.33,210.07 645.34,213.86 646.36,217.65" fill="none" stroke="#1a1a1a" stroke-width="0.7" stroke-opacity="0.55" stroke-linecap="round" stroke-linejoin="round" />
  <polyline points="615.26,117.04 616.26,120.77 617.26,124.51 618.26,128.24 619.26,131.97 620.26,135.71 621.26,139.44 622.26,143.17 623.26,146.91 624.26,150.64 625.26,154.38 626.26,158.11 627.26,161.84 628.26,165.58 629.26,169.31 630.26,173.05 631.26,176.78 632.26,180.51 633.26,184.25 634.26,187.98 635.27,191.71 636.27,195.45 637.27,199.18 638.27,202.92 639.27,206.65 640.27,210.38 641.27,214.12 642.27,217.85" fill="none" stroke="#1a1a1a" stroke-width="0.7" stroke-opacity="0.55" stroke-linecap="round" stroke-linejoin="round" />
  <polyline points="611.65,119.05 612.67,122.85 613.69,126.65 614.71,130.44 615.72,134.24 616.74,138.03 617.76,141.83 618.78,145.63 619.79,149.42 620.81,153.22 621.83,157.02 622.84,160.81 623.86,164.61 624.88,168.41 625.9,172.2 626.91,176 627.93,179.8 628.95,183.59 629.97,187.39 630.98,191.19 632,194.98 633.02,198.78 634.03,202.57 635.05,206.37 636.07,210.17 637.09,213.96 638.1,217.76" fill="none" stroke="#1a1a1a" stroke-width="0.7" stroke-opacity="0.55" stroke-linecap="round" stroke-linejoin="round" />
  <polyline points="608.14,121.37 609.16,125.21 610.19,129.05 611.22,132.89 612.25,136.73 613.28,140.57 614.31,144.41 615.34,148.25 616.37,152.09 617.39,155.93 618.42,159.77 619.45,163.61 620.48,167.45 621.51,171.29 622.54,175.13 623.57,178.97 624.6,182.81 625.63,186.65 626.65,190.49 627.68,194.33 628.71,198.16 629.74,202 630.77,205.84 631.8,209.68 632.83,213.52 633.86,217.36" fill="none" stroke="#1a1a1a" stroke-width="0.7" stroke-opacity="0.55" stroke-linecap="round" stroke-linejoin="round" />
  <polyline points="604.71,124.03 605.74,127.89 606.77,131.75 607.81,135.61 608.84,139.47 609.88,143.32 610.91,147.18 611.94,151.04 612.98,154.9 614.01,158.76 615.04,162.61 616.08,166.47 617.11,170.33 618.15,174.19 619.18,178.05 620.21,181.9 621.25,185.76 622.28,189.62 623.31,193.48 624.35,197.34 625.38,201.2 626.42,205.05 627.45,208.91 628.48,212.77 629.52,216.63" fill="none" stroke="#1a1a1a" stroke-width="0.7" stroke-opacity="0.55" stroke-linecap="round" stroke-linejoin="round" />
  <polyline points="601.38,127.07 602.41,130.91 603.44,134.76 604.47,138.6 605.5,142.45 606.53,146.29 607.56,150.14 608.59,153.99 609.62,157.83 610.65,161.68 611.68,165.52 612.71,169.37 613.74,173.22 614.77,177.06 615.81,180.91 616.84,184.75 617.87,188.6 618.9,192.44 619.93,196.29 620.96,200.14 621.99,203.98 623.02,207.83 624.05,211.67 625.08,215.52" fill="none" stroke="#1a1a1a" stroke-width="0.7" stroke-opacity="0.55" stroke-linecap="round" stroke-linejoin="round" />
  <polyline points="598.17,130.53 599.18,134.32 600.2,138.12 601.21,141.91 602.23,145.7 603.25,149.5 604.26,153.29 605.28,157.08 606.3,160.87 607.31,164.67 608.33,168.46 609.35,172.25 610.36,176.05 611.38,179.84 612.39,183.63 613.41,187.43 614.43,191.22 615.44,195.01 616.46,198.81 617.48,202.6 618.49,206.39 619.51,210.19 620.53,213.98" fill="none" stroke="#1a1a1a" stroke-width="0.7" stroke-opacity="0.55" stroke-linecap="round" stroke-linejoin="round" />
  <polyline points="595.09,134.51 596.08,138.19 597.07,141.88 598.05,145.57 599.04,149.25 600.03,152.94 601.02,156.63 602,160.31 602.99,164 603.98,167.69 604.97,171.37 605.96,175.06 606.94,178.75 607.93,182.43 608.92,186.12 609.91,189.81 610.9,193.49 611.88,197.18 612.87,200.87 613.86,204.55 614.85,208.24 615.83,211.93" fill="none" stroke="#1a1a1a" stroke-width="0.7" stroke-opacity="0.55" stroke-linecap="round" stroke-linejoin="round" />
  <polyline points="592.19,139.13 593.18,142.82 594.16,146.51 595.15,150.2 596.14,153.89 597.13,157.58 598.12,161.27 599.11,164.95 600.1,168.64 601.08,172.33 602.07,176.02 603.06,179.71 604.05,183.4 605.04,187.09 606.03,190.78 607.02,194.47 608,198.16 608.99,201.85 609.98,205.54 610.97,209.23" fill="none" stroke="#1a1a1a" stroke-width="0.7" stroke-opacity="0.55" stroke-linecap="round" stroke-linejoin="round" />
  <polyline points="589.52,144.63 590.54,148.44 591.56,152.26 592.59,156.07 593.61,159.88 594.63,163.7 595.65,167.51 596.67,171.33 597.7,175.14 598.72,178.95 599.74,182.77 600.76,186.58 601.78,190.4 602.81,194.21 603.83,198.02 604.85,201.84 605.87,205.65" fill="none" stroke="#1a1a1a" stroke-width="0.7" stroke-opacity="0.55" stroke-linecap="round" stroke-linejoin="round" />
  <polyline points="587.22,151.49 588.23,155.28 589.25,159.06 590.26,162.85 591.28,166.64 592.29,170.42 593.3,174.21 594.32,178 595.33,181.78 596.35,185.57 597.36,189.36 598.38,193.14 599.39,196.93 600.41,200.72" fill="none" stroke="#1a1a1a" stroke-width="0.7" stroke-opacity="0.55" stroke-linecap="round" stroke-linejoin="round" />
  <polyline points="585.66,161.15 586.61,164.69 587.56,168.22 588.51,171.76 589.46,175.3 590.4,178.83 591.35,182.37 592.3,185.91 593.25,189.44 594.19,192.98" fill="none" stroke="#1a1a1a" stroke-width="0.7" stroke-opacity="0.55" stroke-linecap="round" stroke-linejoin="round" />
  <polyline points="687.42,195.05 685.11,197.36 682.8,199.66 680.5,201.97 678.19,204.28 675.88,206.59" fill="none" stroke="#1a1a1a" stroke-width="0.7" stroke-opacity="0.55" stroke-linecap="round" stroke-linejoin="round" />
  <polyline points="694.28,182.54 691.68,185.13 689.08,187.73 686.49,190.33 683.89,192.92 681.29,195.52 678.69,198.12 676.1,200.71 673.5,203.31 670.9,205.91 668.31,208.51 665.71,211.1 663.11,213.7" fill="none" stroke="#1a1a1a" stroke-width="0.7" stroke-opacity="0.55" stroke-linecap="round" stroke-linejoin="round" />
  <polyline points="696.62,174.53 693.84,177.32 691.06,180.1 688.27,182.89 685.49,185.67 682.7,188.46 679.92,191.24 677.13,194.02 674.35,196.81 671.56,199.59 668.78,202.38 665.99,205.16 663.21,207.95 660.42,210.73 657.64,213.52 654.85,216.3" fill="none" stroke="#1a1a1a" stroke-width="0.7" stroke-opacity="0.55" stroke-linecap="round" stroke-linejoin="round" />
  <polyline points="697.55,167.94 694.8,170.7 692.05,173.45 689.3,176.2 686.54,178.95 683.79,181.71 681.04,184.46 678.29,187.21 675.53,189.96 672.78,192.72 670.03,195.47 667.28,198.22 664.52,200.97 661.77,203.73 659.02,206.48 656.27,209.23 653.52,211.98 650.76,214.74 648.01,217.49" fill="none" stroke="#1a1a1a" stroke-width="0.7" stroke-opacity="0.55" stroke-linecap="round" stroke-linejoin="round" />
  <polyline points="694.88,164.96 692.1,167.75 689.31,170.53 686.53,173.31 683.74,176.1 680.96,178.88 678.18,181.66 675.39,184.45 672.61,187.23 669.83,190.02 667.04,192.8 664.26,195.58 661.47,198.37 658.69,201.15 655.91,203.93 653.12,206.72 650.34,209.5 647.56,212.29 644.77,215.07 641.99,217.85" fill="none" stroke="#1a1a1a" stroke-width="0.7" stroke-opacity="0.55" stroke-linecap="round" stroke-linejoin="round" />
  <polyline points="694.45,159.74 691.69,162.5 688.93,165.25 686.17,168.01 683.42,170.77 680.66,173.53 677.9,176.28 675.14,179.04 672.39,181.8 669.63,184.56 666.87,187.32 664.11,190.07 661.35,192.83 658.6,195.59 655.84,198.35 653.08,201.1 650.32,203.86 647.57,206.62 644.81,209.38 642.05,212.13 639.29,214.89 636.54,217.65" fill="none" stroke="#1a1a1a" stroke-width="0.7" stroke-opacity="0.55" stroke-linecap="round" stroke-linejoin="round" />
  <polyline points="693.49,155.04 690.67,157.85 687.86,160.67 685.04,163.49 682.22,166.31 679.41,169.12 676.59,171.94 673.77,174.76 670.96,177.57 668.14,180.39 665.32,183.21 662.51,186.02 659.69,188.84 656.87,191.66 654.05,194.47 651.24,197.29 648.42,200.11 645.6,202.92 642.79,205.74 639.97,208.56 637.15,211.37 634.34,214.19 631.52,217.01" fill="none" stroke="#1a1a1a" stroke-width="0.7" stroke-opacity="0.55" stroke-linecap="round" stroke-linejoin="round" />
  <polyline points="689.6,153.27 686.87,156 684.14,158.73 681.41,161.46 678.69,164.18 675.96,166.91 673.23,169.64 670.5,172.37 667.78,175.09 665.05,177.82 662.32,180.55 659.59,183.28 656.87,186.01 654.14,188.73 651.41,191.46 648.68,194.19 645.96,196.92 643.23,199.64 640.5,202.37 637.77,205.1 635.05,207.83 632.32,210.55 629.59,213.28 626.86,216.01" fill="none" stroke="#1a1a1a" stroke-width="0.7" stroke-opacity="0.55" stroke-linecap="round" stroke-linejoin="round" />
  <polyline points="688.03,149.18 685.3,151.91 682.57,154.64 679.84,157.37 677.11,160.1 674.38,162.83 671.65,165.56 668.92,168.29 666.19,171.02 663.46,173.75 660.73,176.48 658,179.21 655.27,181.94 652.54,184.67 649.81,187.4 647.08,190.13 644.35,192.86 641.62,195.59 638.89,198.32 636.16,201.05 633.43,203.78 630.7,206.51 627.97,209.24 625.24,211.97 622.51,214.7" fill="none" stroke="#1a1a1a" stroke-width="0.7" stroke-opacity="0.55" stroke-linecap="round" stroke-linejoin="round" />
  <polyline points="686.02,145.53 683.21,148.35 680.39,151.17 677.58,153.98 674.76,156.8 671.94,159.61 669.13,162.43 666.31,165.25 663.49,168.06 660.68,170.88 657.86,173.7 655.04,176.51 652.23,179.33 649.41,182.15 646.6,184.96 643.78,187.78 640.96,190.59 638.15,193.41 635.33,196.23 632.51,199.04 629.7,201.86 626.88,204.68 624.07,207.49 621.25,210.31 618.43,213.12" fill="none" stroke="#1a1a1a" stroke-width="0.7" stroke-opacity="0.55" stroke-linecap="round" stroke-linejoin="round" />
  <polyline points="684.02,141.88 681.25,144.65 678.47,147.43 675.69,150.21 672.92,152.99 670.14,155.76 667.36,158.54 664.58,161.32 661.81,164.09 659.03,166.87 656.25,169.65 653.48,172.42 650.7,175.2 647.92,177.98 645.15,180.75 642.37,183.53 639.59,186.31 636.82,189.08 634.04,191.86 631.26,194.64 628.49,197.42 625.71,200.19 622.93,202.97 620.15,205.75 617.38,208.52 614.6,211.3" fill="none" stroke="#1a1a1a" stroke-width="0.7" stroke-opacity="0.55" stroke-linecap="round" stroke-linejoin="round" />
  <polyline points="678.79,141.45 675.97,144.28 673.14,147.1 670.32,149.93 667.49,152.75 664.67,155.58 661.84,158.4 659.02,161.22 656.19,164.05 653.37,166.87 650.54,169.7 647.72,172.52 644.9,175.35 642.07,178.17 639.25,181 636.42,183.82 633.6,186.65 630.77,189.47 627.95,192.3 625.12,195.12 622.3,197.95 619.47,200.77 616.65,203.6 613.82,206.42 611,209.24" fill="none" stroke="#1a1a1a" stroke-width="0.7" stroke-opacity="0.55" stroke-linecap="round" stroke-linejoin="round" />
  <polyline points="676.47,138.11 673.72,140.87 670.97,143.62 668.21,146.38 665.46,149.13 662.7,151.88 659.95,154.64 657.19,157.39 654.44,160.15 651.68,162.9 648.93,165.66 646.18,168.41 643.42,171.17 640.67,173.92 637.91,176.67 635.16,179.43 632.4,182.18 629.65,184.94 626.9,187.69 624.14,190.45 621.39,193.2 618.63,195.95 615.88,198.71 613.12,201.46 610.37,204.22 607.62,206.97" fill="none" stroke="#1a1a1a" stroke-width="0.7" stroke-opacity="0.55" stroke-linecap="round" stroke-linejoin="round" />
  <polyline points="673.69,135.24 670.92,138.01 668.15,140.78 665.38,143.55 662.61,146.32 659.84,149.09 657.07,151.86 654.3,154.63 651.53,157.4 648.76,160.17 645.99,162.94 643.22,165.71 640.45,168.48 637.68,171.25 634.91,174.02 632.14,176.79 629.37,179.56 626.6,182.33 623.83,185.1 621.06,187.87 618.29,190.64 615.52,193.41 612.75,196.18 609.98,198.95 607.21,201.72 604.44,204.49" fill="none" stroke="#1a1a1a" stroke-width="0.7" stroke-opacity="0.55" stroke-linecap="round" stroke-linejoin="round" />
  <polyline points="670.74,132.54 667.97,135.31 665.2,138.08 662.43,140.85 659.66,143.62 656.89,146.39 654.12,149.16 651.35,151.93 648.57,154.7 645.8,157.47 643.03,160.24 640.26,163.01 637.49,165.78 634.72,168.55 631.95,171.32 629.18,174.09 626.41,176.86 623.64,179.63 620.87,182.4 618.1,185.17 615.33,187.94 612.56,190.71 609.79,193.48 607.02,196.25 604.25,199.02 601.48,201.79" fill="none" stroke="#1a1a1a" stroke-width="0.7" stroke-opacity="0.55" stroke-linecap="round" stroke-linejoin="round" />
  <polyline points="664.87,132.75 662.11,135.5 659.36,138.26 656.6,141.02 653.84,143.77 651.09,146.53 648.33,149.28 645.58,152.04 642.82,154.8 640.06,157.55 637.31,160.31 634.55,163.06 631.8,165.82 629.04,168.58 626.28,171.33 623.53,174.09 620.77,176.84 618.02,179.6 615.26,182.36 612.5,185.11 609.75,187.87 606.99,190.63 604.24,193.38 601.48,196.14 598.72,198.89" fill="none" stroke="#1a1a1a" stroke-width="0.7" stroke-opacity="0.55" stroke-linecap="round" stroke-linejoin="round" />
  <polyline points="661.21,130.75 658.39,133.57 655.56,136.4 652.73,139.23 649.9,142.06 647.08,144.88 644.25,147.71 641.42,150.54 638.59,153.37 635.77,156.19 632.94,159.02 630.11,161.85 627.28,164.68 624.45,167.51 621.63,170.33 618.8,173.16 615.97,175.99 613.14,178.82 610.32,181.64 607.49,184.47 604.66,187.3 601.83,190.13 599.01,192.95 596.18,195.78" fill="none" stroke="#1a1a1a" stroke-width="0.7" stroke-opacity="0.55" stroke-linecap="round" stroke-linejoin="round" />
  <polyline points="657.82,128.49 655.03,131.27 652.25,134.05 649.47,136.83 646.69,139.61 643.91,142.39 641.13,145.17 638.35,147.95 635.57,150.74 632.79,153.52 630,156.3 627.22,159.08 624.44,161.86 621.66,164.64 618.88,167.42 616.1,170.2 613.32,172.98 610.54,175.77 607.76,178.55 604.97,181.33 602.19,184.11 599.41,186.89 596.63,189.67 593.85,192.45" fill="none" stroke="#1a1a1a" stroke-width="0.7" stroke-opacity="0.55" stroke-linecap="round" stroke-linejoin="round" />
  <polyline points="653.84,126.81 651.02,129.63 648.19,132.45 645.37,135.27 642.55,138.1 639.73,140.92 636.91,143.74 634.08,146.56 631.26,149.38 628.44,152.21 625.62,155.03 622.79,157.85 619.97,160.67 617.15,163.5 614.33,166.32 611.51,169.14 608.68,171.96 605.86,174.78 603.04,177.61 600.22,180.43 597.4,183.25 594.57,186.07 591.75,188.89" fill="none" stroke="#1a1a1a" stroke-width="0.7" stroke-opacity="0.55" stroke-linecap="round" stroke-linejoin="round" />
  <polyline points="650.12,124.87 647.38,127.61 644.64,130.35 641.91,133.08 639.17,135.82 636.43,138.56 633.69,141.29 630.96,144.03 628.22,146.77 625.48,149.51 622.75,152.24 620.01,154.98 617.27,157.72 614.53,160.46 611.8,163.19 609.06,165.93 606.32,168.67 603.58,171.4 600.85,174.14 598.11,176.88 595.37,179.62 592.64,182.35 589.9,185.09" fill="none" stroke="#1a1a1a" stroke-width="0.7" stroke-opacity="0.55" stroke-linecap="round" stroke-linejoin="round" />
  <polyline points="645.79,123.54 643.05,126.28 640.32,129.02 637.58,131.75 634.84,134.49 632.11,137.23 629.37,139.96 626.63,142.7 623.9,145.44 621.16,148.17 618.42,150.91 615.68,153.65 612.95,156.38 610.21,159.12 607.47,161.86 604.74,164.6 602,167.33 599.26,170.07 596.53,172.81 593.79,175.54 591.05,178.28 588.32,181.02" fill="none" stroke="#1a1a1a" stroke-width="0.7" stroke-opacity="0.55" stroke-linecap="round" stroke-linejoin="round" />
  <polyline points="641.26,122.41 638.55,125.13 635.84,127.84 633.13,130.55 630.42,133.26 627.7,135.97 624.99,138.68 622.28,141.39 619.57,144.1 616.86,146.82 614.15,149.53 611.44,152.24 608.73,154.95 606.01,157.66 603.3,160.37 600.59,163.08 597.88,165.79 595.17,168.51 592.46,171.22 589.75,173.93 587.04,176.64" fill="none" stroke="#1a1a1a" stroke-width="0.7" stroke-opacity="0.55" stroke-linecap="round" stroke-linejoin="round" />
  <polyline points="636.03,121.99 633.25,124.76 630.48,127.54 627.71,130.31 624.93,133.08 622.16,135.86 619.39,138.63 616.61,141.4 613.84,144.18 611.07,146.95 608.29,149.72 605.52,152.5 602.75,155.27 599.97,158.04 597.2,160.82 594.43,163.59 591.66,166.36 588.88,169.14 586.11,171.91" fill="none" stroke="#1a1a1a" stroke-width="0.7" stroke-opacity="0.55" stroke-linecap="round" stroke-linejoin="round" />
  <polyline points="633.29,119.07 630.49,121.88 627.68,124.68 624.88,127.49 622.07,130.29 619.27,133.09 616.46,135.9 613.66,138.7 610.85,141.51 608.05,144.31 605.24,147.12 602.44,149.92 599.64,152.73 596.83,155.53 594.03,158.34 591.22,161.14 588.42,163.94 585.61,166.75" fill="none" stroke="#1a1a1a" stroke-width="0.7" stroke-opacity="0.55" stroke-linecap="round" stroke-linejoin="round" />
  <polyline points="627.39,119.32 624.61,122.1 621.83,124.88 619.04,127.66 616.26,130.44 613.48,133.22 610.7,136 607.92,138.78 605.14,141.57 602.36,144.35 599.58,147.13 596.8,149.91 594.02,152.69 591.23,155.47 588.45,158.25 585.67,161.03" fill="none" stroke="#1a1a1a" stroke-width="0.7" stroke-opacity="0.55" stroke-linecap="round" stroke-linejoin="round" />
  <polyline points="621.01,120.04 618.36,122.69 615.7,125.34 613.05,128 610.4,130.65 607.75,133.3 605.09,135.95 602.44,138.61 599.79,141.26 597.14,143.91 594.48,146.57 591.83,149.22 589.18,151.87 586.53,154.52" fill="none" stroke="#1a1a1a" stroke-width="0.7" stroke-opacity="0.55" stroke-linecap="round" stroke-linejoin="round" />
  <polyline points="615.5,119.89 612.82,122.57 610.14,125.25 607.47,127.92 604.79,130.6 602.11,133.28 599.43,135.96 596.76,138.63 594.08,141.31 591.4,143.99 588.72,146.67" fill="none" stroke="#1a1a1a" stroke-width="0.7" stroke-opacity="0.55" stroke-linecap="round" stroke-linejoin="round" />
  <polyline points="606.07,123.67 603.24,126.49 600.42,129.31 597.6,132.13 594.78,134.96" fill="none" stroke="#1a1a1a" stroke-width="0.7" stroke-opacity="0.55" stroke-linecap="round" stroke-linejoin="round" />
  <polyline points="278.97,219.7 280.82,214.25 282.6,208.71 284.38,203.17 286.18,197.69 287.91,192.13 289.62,186.56 291.5,181 293.4,175.37 295.18,169.74 296.89,164.17 298.64,158.67 300.44,153.2 302.27,147.75 304.07,142.31 305.88,136.78 307.69,131.16 309.56,125.61 311.48,120.12 313.38,114.65 315.24,109.23 317.04,103.75" fill="none" stroke="#1a1a1a" stroke-width="1.5" stroke-linecap="round" stroke-linejoin="round" />
  <polyline points="278.97,219.7 276.02,214.7 272.99,209.66 269.92,204.65 266.86,199.7 263.79,194.79 260.65,189.86 257.51,184.87 254.38,179.78 251.25,174.64 248.17,169.56 245.09,164.61 241.99,159.67 238.89,154.65 235.82,149.62 232.78,144.59 229.83,139.55 226.84,134.56 223.8,129.59 220.75,124.63 217.7,119.67 214.68,114.6 211.64,109.52" fill="none" stroke="#1a1a1a" stroke-width="1.5" stroke-linecap="round" stroke-linejoin="round" />
  <polyline points="283.53,98.34 278.94,98.49 274.35,98.64 269.76,98.76 265.1,98.85 260.25,99.06 255.4,99.23 250.71,99.51 246.12,99.89 240.57,100.67 234.92,101.52 229.45,102.41 225.47,103.49 221.38,104.49 217.26,105.47 213.47,107.02 211.63,108.41 211.93,109.93 214.45,111.31 219.07,112.52 222.47,113.03 225.9,113.52 230.54,113.67 235.15,113.81 239.79,113.92 244.52,114.03 250.09,113.82 255.64,113.65 261.18,113.51 266.77,113.41 272.16,113.03 277.52,112.61 282.85,112.16 288.13,111.72 293.66,110.83 299.35,109.92 305.09,108.97 308.08,108.13 311.08,107.28 315.13,105.67 316.92,104.12 316.68,102.53 314.63,101.2 311.09,100.24 305.13,99.54 299.38,98.72 294.07,98.57 288.74,98.47 283.53,98.34" fill="none" stroke="#1a1a1a" stroke-width="1.5" stroke-linecap="round" stroke-linejoin="round" />
  <polyline points="502.99,220.2 503.17,214.41 503.25,208.67 503.31,202.93 503.38,197.18 503.34,191.36 503.33,185.57 503.49,179.9 503.7,174.28 503.73,168.67 503.76,163.09 503.83,157.41 503.89,151.64 503.96,145.86 504.01,140.11 504.02,134.41 504.1,128.67 504.19,122.89 504.3,117.09 504.46,111.24 504.59,105.4" fill="none" stroke="#1a1a1a" stroke-width="1.5" stroke-linecap="round" stroke-linejoin="round" />
  <polyline points="410.89,221.95 410.74,216.12 410.47,210.32 410.18,204.49 409.87,198.67 409.49,192.96 409.18,187.26 409.01,181.54 408.87,175.85 408.67,170.16 408.51,164.36 408.28,158.54 407.9,152.88 407.55,147.23 407.37,141.38 407.25,135.45 407.09,129.64 406.97,123.89 406.83,118.15 406.55,112.42 406.23,106.67" fill="none" stroke="#1a1a1a" stroke-width="1.5" stroke-linecap="round" stroke-linejoin="round" />
  <polyline points="459.01,203.45 454.44,203.59 449.8,203.78 445.23,204.3 440.7,204.82 436.54,205.69 432.46,206.61 428.84,207.72 425.23,208.73 422.19,210.03 419.18,211.41 414.68,214.67 411.78,218.24 410.89,221.95" fill="none" stroke="#1a1a1a" stroke-width="1.35" stroke-opacity="0.32" stroke-dasharray="4,3" stroke-linecap="round" stroke-linejoin="round" />
  <polyline points="410.89,221.95 411.89,225.12 414.46,228.09 418.61,230.84 421.44,232.15 424.31,233.47 427.86,234.55 431.43,235.62 435.51,236.43 439.53,237.23 443.94,237.73 448.35,238.22 452.94,238.34 457.49,238.39 462.02,238.07 466.59,237.75 470.95,237.09 475.33,236.43 479.35,235.5 483.41,234.6 486.96,233.44 490.49,232.28 493.28,230.92 495.98,229.56 499.76,226.56 502.12,223.41 502.99,220.2" fill="none" stroke="#1a1a1a" stroke-width="1.5" stroke-linecap="round" stroke-linejoin="round" />
  <polyline points="502.99,220.2 502.1,216.77 499.49,213.71 495.12,210.89 492.26,209.6 489.45,208.3 486.14,207.27 482.89,206.25 479.2,205.5 475.47,204.77 471.4,204.31 467.39,203.82 463.21,203.63 459.01,203.45" fill="none" stroke="#1a1a1a" stroke-width="1.35" stroke-opacity="0.32" stroke-dasharray="4,3" stroke-linecap="round" stroke-linejoin="round" />
  <polyline points="457.82,98.15 452,98.28 446.07,98.5 440.14,98.73 434.98,99.19 429.84,99.6 424.54,100.14 420.49,100.95 416.6,101.59 412.71,102.36 408.9,103.99 406.72,105.56 406.27,107.12 407.81,108.7 411.54,110 416.97,111.21 422.24,111.92 427.61,112.73 433.04,113.52 438.12,113.75 443.19,113.95 448.28,114.12 453.39,114.3 458.53,114.1 463.66,113.9 468.74,113.73 473.8,113.52 479.4,112.82 485.1,112.1 490.7,111.27 493.73,110.49 496.84,109.74 501.3,108.2 503.89,106.62 504.55,105.03 503.24,103.58 500.07,102.2 494.71,101.1 489.56,100.18 484.65,99.78 479.71,99.3 474.81,98.72 469.15,98.46 463.51,98.27 457.82,98.15" fill="none" stroke="#1a1a1a" stroke-width="1.5" stroke-linecap="round" stroke-linejoin="round" />
  <polyline points="697.08,168.98 697.05,163.62 697.21,158.17 696.29,152.83 695.22,147.54 692.96,142.66 690.68,137.83 687.39,133.5 684.04,129.11 679.87,125.4 675.71,121.55 670.91,118.61 666.19,115.83 661.01,114.06 655.78,112.28 650.27,111.5 644.75,110.77 639.2,111.06 633.66,111.27 628.4,112.47 623.15,113.69 618.26,115.94 613.26,118.21 608.79,121.24 604.37,124.24 600.71,128.04 597.1,131.9 594.34,136.27 591.57,140.6 589.68,145.33 587.63,149.99 586.56,154.93 585.64,159.99 585.83,165.18 585.94,170.33 586.94,175.21 587.94,180.03 590.02,184.69 592.07,189.46 594.99,193.8 597.91,198.07 601.67,201.68 605.48,205.34 610.01,208.33 614.51,211.31 619.48,213.37 624.43,215.43 629.73,216.57 635.08,217.71 640.69,217.81 646.3,217.84 651.8,216.85 657.27,215.9 662.48,213.92 667.66,211.96 672.36,209.1 677.05,206.25 681.01,202.48 684.97,198.63 688.07,194.07 691.11,189.53 693.1,184.45 695.11,179.39 696.07,174.13 697.08,168.98" fill="none" stroke="#1a1a1a" stroke-width="1.5" stroke-linecap="round" stroke-linejoin="round" />
</svg>