<svg xmlns="http://www.w3.org/2000/svg" viewBox="0 0 640 978" width="640" height="978">
  <rect width="640" height="480" fill="#faf9f5" />
  <polyline points="402.87,339.56 416.86,137.02" fill="none" stroke="#1a1a1a" stroke-width="1" stroke-linecap="round" stroke-linejoin="round" />
  <polyline points="237.13,339.56 223.14,137.02" fill="none" stroke="#1a1a1a" stroke-width="1" stroke-linecap="round" stroke-linejoin="round" />
  <polyline points="392.65,360.05 396.87,355.11 399.98,349.99 401.98,344.78 402.87,339.56" fill="none" stroke="#1a1a1a" stroke-width="1" stroke-linecap="round" stroke-linejoin="round" />
  <polyline points="402.87,339.56 402.73,334.51 401.61,329.57 399.59,324.8 396.71,320.23 393.04,315.91 388.65,311.88 383.6,308.15 377.97,304.77 365.24,299.09 350.99,294.96 335.74,292.46 320,291.62 304.26,292.46 289.01,294.96 274.76,299.09 262.03,304.77 256.4,308.15 251.35,311.88 246.96,315.91 243.29,320.23 240.41,324.8 238.39,329.57 237.27,334.51 237.13,339.56" fill="none" stroke="#1a1a1a" stroke-width="0.9" stroke-opacity="0.2" stroke-dasharray="4,3" stroke-linecap="round" stroke-linejoin="round" />
  <polyline points="237.13,339.56 238.55,346.47 241.9,353.31 247.21,359.91 254.43,366.05 263.47,371.56 274.12,376.24 286.14,379.92 299.19,382.47 312.89,383.78 326.8,383.79 340.51,382.51 353.58,379.99 365.62,376.34 376.31,371.67 385.38,366.18 392.65,360.05" fill="none" stroke="#1a1a1a" stroke-width="1" stroke-linecap="round" stroke-linejoin="round" />
  <polyline points="405.74,147.52 413.25,142.97 415.45,140.63 416.63,138.28 416.84,135.95 416.1,133.67 414.46,131.44 411.99,129.29 404.75,125.3 394.87,121.78 382.83,118.82 369.1,116.46 354.12,114.73 338.3,113.66 322.06,113.24 305.76,113.49 289.8,114.4 274.57,115.97 260.49,118.17 247.97,120.98 237.51,124.36 229.56,128.25 224.62,132.54 223.42,134.8 223.14,137.11 223.83,139.45 225.51,141.8 228.23,144.12 231.98,146.4 242.57,150.69 257.08,154.42 274.96,157.34 295.37,159.26 317.21,160.02 339.21,159.56 360.1,157.93 378.71,155.24 394.13,151.69 405.74,147.52" fill="none" stroke="#1a1a1a" stroke-width="1" stroke-linecap="round" stroke-linejoin="round" />
  <polyline points="460.09,153.67 459.93,142.01 457.85,130.55 453.91,119.59 448.19,109.46 440.86,100.44 432.11,92.79 422.2,86.72 411.4,82.41 400.03,79.97 388.39,79.47 376.83,80.89 365.65,84.19 355.16,89.27 345.64,95.96 337.34,104.07 330.46,113.37" fill="none" stroke="#1a1a1a" stroke-width="1.5" stroke-linecap="round" stroke-linejoin="round" />
  <polyline points="330.46,113.37 325.36,123.12 321.82,133.48 319.91,144.2 319.64,155.03 321.01,165.71 323.99,176.01 328.48,185.68 334.39,194.52 341.58,202.33 349.87,208.93 359.09,214.18 369.02,217.95 379.46,220.16 390.15,220.75 400.86,219.69 411.34,217.01" fill="none" stroke="#1a1a1a" stroke-width="1.35" stroke-opacity="0.32" stroke-dasharray="4,3" stroke-linecap="round" stroke-linejoin="round" />
  <polyline points="411.34,217.01 420.94,212.94 429.9,207.49 438.01,200.77 445.09,192.91 450.97,184.07 455.5,174.44 458.56,164.23 460.09,153.67" fill="none" stroke="#1a1a1a" stroke-width="1.5" stroke-linecap="round" stroke-linejoin="round" />
  <g opacity="0.28">
    <polyline points="460.09,153.67 459.93,142.01 457.85,130.55 453.91,119.59 448.19,109.46 440.86,100.44 432.11,92.79 422.2,86.72 411.4,82.41 400.03,79.97 388.39,79.47 376.83,80.89 365.65,84.19 355.16,89.27 345.64,95.96 337.34,104.07 330.46,113.37" fill="none" stroke="#1a1a1a" stroke-width="12" stroke-linecap="round" stroke-linejoin="round" />
    <polyline points="330.46,113.37 325.36,123.12 321.82,133.48 319.91,144.2 319.64,155.03 321.01,165.71 323.99,176.01 328.48,185.68 334.39,194.52 341.58,202.33 349.87,208.93 359.09,214.18 369.02,217.95 379.46,220.16 390.15,220.75 400.86,219.69 411.34,217.01" fill="none" stroke="#1a1a1a" stroke-width="10.8" stroke-linecap="round" stroke-linejoin="round" />
    <polyline points="411.34,217.01 420.94,212.94 429.9,207.49 438.01,200.77 445.09,192.91 450.97,184.07 455.5,174.44 458.56,164.23 460.09,153.67" fill="none" stroke="#1a1a1a" stroke-width="12" stroke-linecap="round" stroke-linejoin="round" />
  </g>
  <polyline points="460.09,153.67 459.93,142.01 457.85,130.55 453.91,119.59 448.19,109.46 440.86,100.44 432.11,92.79 422.2,86.72 411.4,82.41 400.03,79.97 388.39,79.47 376.83,80.89 365.65,84.19 355.16,89.27 345.64,95.96 337.34,104.07 330.46,113.37" fill="none" stroke="#1a1a1a" stroke-width="1.8" stroke-linecap="round" stroke-linejoin="round" />
  <polyline points="330.46,113.37 325.36,123.12 321.82,133.48 319.91,144.2 319.64,155.03 321.01,165.71 323.99,176.01 328.48,185.68 334.39,194.52 341.58,202.33 349.87,208.93 359.09,214.18 369.02,217.95 379.46,220.16 390.15,220.75 400.86,219.69 411.34,217.01" fill="none" stroke="#1a1a1a" stroke-width="1.62" stroke-opacity="0.55" stroke-dasharray="4,3" stroke-linecap="round" stroke-linejoin="round" />
  <polyline points="411.34,217.01 420.94,212.94 429.9,207.49 438.01,200.77 445.09,192.91 450.97,184.07 455.5,174.44 458.56,164.23 460.09,153.67" fill="none" stroke="#1a1a1a" stroke-width="1.8" stroke-linecap="round" stroke-linejoin="round" />

<g transform="translate(0,498)">  <rect width="640" height="480" fill="#faf9f5" />
  <polyline points="403.29,340.07 403.67,334.07 404.08,328.05 404.5,322.04 404.87,316.09 405.44,310.18 406.07,304.28 406.55,298.39 406.82,292.49 407.09,286.45 407.43,280.36 407.77,274.29 408.05,268.23 408.28,262.12 408.52,255.97 408.81,249.82 409.16,243.59 409.56,237.35 409.98,231.25 410.34,225.31 410.66,219.4 410.97,213.52 411.33,207.64 411.73,201.93 412.16,196.41 412.61,190.82 413.14,184.95 413.7,178.85 414.29,172.69 414.91,166.61 415.51,160.7 416.02,154.77 416.43,148.81 416.81,142.85 417.19,136.93" fill="none" stroke="#1a1a1a" stroke-width="1" stroke-linecap="round" stroke-linejoin="round" />
  <polyline points="237.19,340.27 236.77,334.28 236.51,328.35 236.28,322.45 235.92,316.5 235.53,310.55 235.14,304.6 234.77,298.64 234.34,292.58 233.79,286.31 233.22,280.01 232.67,273.86 231.99,267.87 231.18,261.88 230.42,255.88 229.82,249.82 229.32,243.78 228.88,237.78 228.5,231.82 228.26,225.85 228.24,219.92 228.2,213.98 227.93,208 227.44,201.99 226.88,196.01 226.36,190.06 226.03,184.11 225.75,178.23 225.5,172.38 225.26,166.5 225.1,160.57 225,154.67 224.8,148.79 224.3,142.86 223.51,136.69" fill="none" stroke="#1a1a1a" stroke-width="1" stroke-linecap="round" stroke-linejoin="round" />
  <polyline points="391.71,359.23 394,356.8 396.27,354.41 399.66,349.55 401.99,344.75 403.29,340.07" fill="none" stroke="#1a1a1a" stroke-width="1" stroke-linecap="round" stroke-linejoin="round" />
  <polyline points="403.29,340.07 403.24,335.35 401.92,330.34 399.98,325.42 396.94,320.74 392.6,316.27 387.78,312.07 385.11,310.15 382.49,308.21 379.64,306.47 376.82,304.77 372.49,302.89 368.06,300.97 363.6,298.91 358.78,297.36 354.16,295.91 349.64,294.51 344.82,293.59 340.01,292.63 335.44,291.79 330.72,291.61 325.79,291.42 320.48,291.2 314.97,291.65 309.53,292.21 304.26,292.69 299.26,293.59 294.22,294.27 288.98,294.87 283.93,296.03 278.94,297.2 274.1,298.38 269.89,300.11 265.77,301.93 261.57,303.85 258.66,305.57 255.79,307.34 253.24,309.34 250.76,311.38 246.64,315.66 243.23,320.14 240.38,325.02 238.35,330.02 237.28,334.93 237.19,340.27" fill="none" stroke="#1a1a1a" stroke-width="0.9" stroke-opacity="0.2" stroke-dasharray="4,3" stroke-linecap="round" stroke-linejoin="round" />
  <polyline points="237.19,340.27 237.89,343.99 238.58,347.55 240.22,351 241.8,354.3 244.34,357.37 246.93,360.43 250.59,363.49 254.5,366.69 259.44,369.55 264.25,372.24 269.58,374.38 274.73,376.43 278.57,377.48 282.43,378.53 286.32,379.55 290.57,380.21 294.82,380.91 299.07,381.68 303.53,382.12 308,382.66 312.49,383.22 317.1,383.29 321.85,383.28 326.75,383.24 331.66,382.79 336.55,382.37 341.32,381.96 345.73,381.16 350.07,380.34 354.4,379.51 358.42,378.29 362.45,377.02 366.45,375.74 371.42,373.33 376.17,370.94 380.1,368.19 384.31,365.4 387.92,362.3 391.71,359.23" fill="none" stroke="#1a1a1a" stroke-width="1" stroke-linecap="round" stroke-linejoin="round" />
  <polyline points="405.54,147.75 409.46,145.27 413.27,142.77 415.55,140.24 416.96,138.02 417.08,135.98 415.99,133.77 414.07,131.5 411.43,129.36 407.83,127.25 404.39,124.9 399.66,122.74 394.92,120.81 390.96,119.9 386.95,119.01 382.91,118.08 378.26,117.3 373.65,116.43 369.07,115.55 364.1,114.92 359.27,114.39 354.51,113.92 349.46,113.71 344.26,113.52 338.86,113.34 333.17,113.43 327.45,113.55 321.81,113.63 316.17,113.78 310.65,113.78 305.27,113.64 300.06,113.7 294.86,113.81 289.47,113.96 284.15,114.41 278.92,114.9 273.94,115.4 269.48,116.11 265,116.81 260.41,117.52 256.25,118.45 252.13,119.4 248.01,120.37 242.87,122.17 237.78,123.9 234.02,125.8 230.07,127.67 227.46,129.74 225.06,131.96 223.97,134.39 223.51,136.78 223.76,139.07 224.94,141.18 227.38,143.34 231.24,145.76 236.77,148.08 241.9,150.14 246.47,151.34 251.11,152.58 255.92,153.77 260.41,154.49 264.92,155.23 269.42,156 273.92,156.82 279.02,157.45 284.13,158.08 289.26,158.7 294.39,159.29 299.85,159.53 305.27,159.77 310.69,160.06 316.14,160.41 321.63,160.5 327.1,160.55 332.57,160.47 338.09,160.32 343.39,159.84 348.76,159.39 354.16,159.03 359.54,158.75 364.3,158.22 369,157.71 373.62,157.12 378.26,156.45 383.47,155.14 388.71,153.82 393.9,152.54 397.74,150.97 401.63,149.35 405.54,147.75" fill="none" stroke="#1a1a1a" stroke-width="1" stroke-linecap="round" stroke-linejoin="round" />
  <polyline points="460.36,153.9 460.17,148.1 459.91,142.35 458.74,136.71 457.66,131.04 455.75,125.52 453.93,120.02 451.16,115 448.27,110 444.48,105.49 440.62,100.99 436.02,97.23 431.51,93.55 426.46,90.72 421.49,87.81 416.15,85.6 410.88,83.32 405.35,81.95 399.83,80.55 394.18,80.04 388.53,79.62 382.97,80.31 377.47,81.23 372.15,83.17 366.58,85.11 361.01,87.76 355.36,90.23 350.31,93.37 345.4,96.38 341.11,100.11 336.77,103.91 333.13,108.54 329.62,113.42" fill="none" stroke="#1a1a1a" stroke-width="1.5" stroke-linecap="round" stroke-linejoin="round" />
  <polyline points="329.62,113.42 327.11,118.58 324.63,123.52 322.93,128.54 321.26,133.47 320.42,138.54 319.56,143.62 319.45,148.86 319.38,154.2 320.21,159.6 321.03,165.02 322.51,170.25 323.69,175.48 325.62,180.37 327.68,185.22 330.82,189.6 334.13,193.99 337.96,197.9 341.47,201.87 345.4,205.22 349.43,208.55 354.05,211.12 358.64,213.74 363.57,215.61 368.6,217.41 374.08,218.29 379.64,219.14 385.24,219.38 390.69,219.81 396,219.54 401.34,219.3 406.62,218.32 412.01,217.42" fill="none" stroke="#1a1a1a" stroke-width="1.35" stroke-opacity="0.32" stroke-dasharray="4,3" stroke-linecap="round" stroke-linejoin="round" />
  <polyline points="412.01,217.42 416.97,215.75 421.77,213.89 426.13,211.15 430.54,208.3 434.67,204.75 438.83,201.19 442.45,197.12 446.09,193.15 449.05,188.7 451.85,184.3 453.82,179.5 455.79,174.68 457.23,169.51 458.77,164.39 459.58,159.14 460.36,153.9" fill="none" stroke="#1a1a1a" stroke-width="1.5" stroke-linecap="round" stroke-linejoin="round" />
  <g opacity="0.28">
    <polyline points="460.36,153.9 460.17,148.1 459.91,142.35 458.74,136.71 457.66,131.04 455.75,125.52 453.93,120.02 451.16,115 448.27,110 444.48,105.49 440.62,100.99 436.02,97.23 431.51,93.55 426.46,90.72 421.49,87.81 416.15,85.6 410.88,83.32 405.35,81.95 399.83,80.55 394.18,80.04 388.53,79.62 382.97,80.31 377.47,81.23 372.15,83.17 366.58,85.11 361.01,87.76 355.36,90.23 350.31,93.37 345.4,96.38 341.11,100.11 336.77,103.91 333.13,108.54 329.62,113.42" fill="none" stroke="#1a1a1a" stroke-width="12" stroke-linecap="round" stroke-linejoin="round" />
    <polyline points="329.62,113.42 327.11,118.58 324.63,123.52 322.93,128.54 321.26,133.47 320.42,138.54 319.56,143.62 319.45,148.86 319.38,154.2 320.21,159.6 321.03,165.02 322.51,170.25 323.69,175.48 325.62,180.37 327.68,185.22 330.82,189.6 334.13,193.99 337.96,197.9 341.47,201.87 345.4,205.22 349.43,208.55 354.05,211.12 358.64,213.74 363.57,215.61 368.6,217.41 374.08,218.29 379.64,219.14 385.24,219.38 390.69,219.81 396,219.54 401.34,219.3 406.62,218.32 412.01,217.42" fill="none" stroke="#1a1a1a" stroke-width="10.8" stroke-linecap="round" stroke-linejoin="round" />
    <polyline points="412.01,217.42 416.97,215.75 421.77,213.89 426.13,211.15 430.54,208.3 434.67,204.75 438.83,201.19 442.45,197.12 446.09,193.15 449.05,188.7 451.85,184.3 453.82,179.5 455.79,174.68 457.23,169.51 458.77,164.39 459.58,159.14 460.36,153.9" fill="none" stroke="#1a1a1a" stroke-width="12" stroke-linecap="round" stroke-linejoin="round" />
  </g>
  <polyline points="460.36,153.9 460.17,148.1 459.91,142.35 458.74,136.71 457.66,131.04 455.75,125.52 453.93,120.02 451.16,115 448.27,110 444.48,105.49 440.62,100.99 436.02,97.23 431.51,93.55 426.46,90.72 421.49,87.81 416.15,85.6 410.88,83.32 405.35,81.95 399.83,80.55 394.18,80.04 388.53,79.62 382.97,80.31 377.47,81.23 372.15,83.17 366.58,85.11 361.01,87.76 355.36,90.23 350.31,93.37 345.4,96.38 341.11,100.11 336.77,103.91 333.13,108.54 329.62,113.42" fill="none" stroke="#1a1a1a" stroke-width="1.8" stroke-linecap="round" stroke-linejoin="round" />
  <polyline points="329.62,113.42 327.11,118.58 324.63,123.52 322.93,128.54 321.26,133.47 320.42,138.54 319.56,143.62 319.45,148.86 319.38,154.2 320.21,159.6 321.03,165.02 322.51,170.25 323.69,175.48 325.62,180.37 327.68,185.22 330.82,189.6 334.13,193.99 337.96,197.9 341.47,201.87 345.4,205.22 349.43,208.55 354.05,211.12 358.64,213.74 363.57,215.61 368.6,217.41 374.08,218.29 379.64,219.14 385.24,219.38 390.69,219.81 396,219.54 401.34,219.3 406.62,218.32 412.01,217.42" fill="none" stroke="#1a1a1a" stroke-width="1.62" stroke-opacity="0.55" stroke-dasharray="4,3" stroke-linecap="round" stroke-linejoin="round" />
  <polyline points="412.01,217.42 416.97,215.75 421.77,213.89 426.13,211.15 430.54,208.3 434.67,204.75 438.83,201.19 442.45,197.12 446.09,193.15 449.05,188.7 451.85,184.3 453.82,179.5 455.79,174.68 457.23,169.51 458.77,164.39 459.58,159.14 460.36,153.9" fill="none" stroke="#1a1a1a" stroke-width="1.8" stroke-linecap="round" stroke-linejoin="round" />
</g>
<line x1="10" y1="489" x2="630" y2="489" stroke="#ddd" stroke-width="1" />
<text x="14" y="26" font-family="sans-serif" font-size="14" fill="#999">wobble: off</text>
<text x="14" y="524" font-family="sans-serif" font-size="14" fill="#999">wobble: on</text>
</svg>