<svg xmlns="http://www.w3.org/2000/svg" viewBox="0 0 640 978" width="640" height="978">
  <rect width="640" height="480" fill="#faf9f5" />
  <polyline points="402.87,339.56 416.86,137.02" fill="none" stroke="#1a1a1a" stroke-width="1.013" stroke-linecap="round" stroke-linejoin="round" />
  <polyline points="237.13,339.56 223.14,137.02" fill="none" stroke="#1a1a1a" stroke-width="1.013" stroke-linecap="round" stroke-linejoin="round" />
  <polyline points="392.65,360.05 396.87,355.11 399.98,349.99 401.98,344.78 402.87,339.56" fill="none" stroke="#1a1a1a" stroke-width="0.987" stroke-linecap="round" stroke-linejoin="round" />
  <polyline points="402.87,339.56 402.73,334.51 401.61,329.57 399.59,324.8 396.71,320.23 393.04,315.91 388.65,311.88 383.6,308.15 377.97,304.77 365.24,299.09 350.99,294.96 335.74,292.46 320,291.62 304.26,292.46 289.01,294.96 274.76,299.09 262.03,304.77 256.4,308.15 251.35,311.88 246.96,315.91 243.29,320.23 240.41,324.8 238.39,329.57 237.27,334.51 237.13,339.56" fill="none" stroke="#1a1a1a" stroke-width="0.839" stroke-opacity="0.2" stroke-dasharray="4,3" stroke-linecap="round" stroke-linejoin="round" />
  <polyline points="237.13,339.56 238.55,346.47 241.9,353.31 247.21,359.91 254.43,366.05 263.47,371.56 274.12,376.24 286.14,379.92 299.19,382.47 312.89,383.78 326.8,383.79 340.51,382.51 353.58,379.99 365.62,376.34 376.31,371.67 385.38,366.18 392.65,360.05" fill="none" stroke="#1a1a1a" stroke-width="1.015" stroke-linecap="round" stroke-linejoin="round" />
  <polyline points="405.74,147.52 413.25,142.97 415.45,140.63 416.63,138.28 416.84,135.95 416.1,133.67 414.46,131.44 411.99,129.29 404.75,125.3 394.87,121.78 382.83,118.82 369.1,116.46 354.12,114.73 338.3,113.66 322.06,113.24 305.76,113.49 289.8,114.4 274.57,115.97 260.49,118.17 247.97,120.98 237.51,124.36 229.56,128.25 224.62,132.54 223.42,134.8 223.14,137.11 223.83,139.45 225.51,141.8 228.23,144.12 231.98,146.4 242.57,150.69 257.08,154.42 274.96,157.34 295.37,159.26 317.21,160.02 339.21,159.56 360.1,157.93 378.71,155.24 394.13,151.69 405.74,147.52" fill="none" stroke="#1a1a1a" stroke-width="1.048" stroke-linecap="round" stroke-linejoin="round" />
  <polyline points="460.09,153.67 459.93,142.01 457.85,130.55 453.91,119.59 448.19,109.46 440.86,100.44 432.11,92.79 422.2,86.72 411.4,82.41 400.03,79.97 388.39,79.47 376.83,80.89 365.65,84.19 355.16,89.27 345.64,95.96 337.34,104.07 330.46,113.37" fill="none" stroke="#1a1a1a" stroke-width="1.376" stroke-linecap="round" stroke-linejoin="round" />
  <polyline points="330.46,113.37 325.36,123.12 321.82,133.48 319.91,144.2 319.64,155.03 321.01,165.71 323.99,176.01 328.48,185.68 334.39,194.52 341.58,202.33 349.87,208.93 359.09,214.18 369.02,217.95 379.46,220.16 390.15,220.75 400.86,219.69 411.34,217.01" fill="none" stroke="#1a1a1a" stroke-width="1.217" stroke-opacity="0.32" stroke-dasharray="4,3" stroke-linecap="round" stroke-linejoin="round" />
  <polyline points="411.34,217.01 420.94,212.94 429.9,207.49 438.01,200.77 445.09,192.91 450.97,184.07 455.5,174.44 458.56,164.23 460.09,153.67" fill="none" stroke="#1a1a1a" stroke-width="1.365" stroke-linecap="round" stroke-linejoin="round" />
  <g opacity="0.28">
    <polyline points="460.09,153.67 459.93,142.01 457.85,130.55 453.91,119.59 448.19,109.46 440.86,100.44 432.11,92.79 422.2,86.72 411.4,82.41 400.03,79.97 388.39,79.47 376.83,80.89 365.65,84.19 355.16,89.27 345.64,95.96 337.34,104.07 330.46,113.37" fill="none" stroke="#1a1a1a" stroke-width="11.006" stroke-linecap="round" stroke-linejoin="round" />
    <polyline points="330.46,113.37 325.36,123.12 321.82,133.48 319.91,144.2 319.64,155.03 321.01,165.71 323.99,176.01 328.48,185.68 334.39,194.52 341.58,202.33 349.87,208.93 359.09,214.18 369.02,217.95 379.46,220.16 390.15,220.75 400.86,219.69 411.34,217.01" fill="none" stroke="#1a1a1a" stroke-width="9.735" stroke-linecap="round" stroke-linejoin="round" />
    <polyline points="411.34,217.01 420.94,212.94 429.9,207.49 438.01,200.77 445.09,192.91 450.97,184.07 455.5,174.44 458.56,164.23 460.09,153.67" fill="none" stroke="#1a1a1a" stroke-width="10.916" stroke-linecap="round" stroke-linejoin="round" />
  </g>
  <polyline points="460.09,153.67 459.93,142.01 457.85,130.55 453.91,119.59 448.19,109.46 440.86,100.44 432.11,92.79 422.2,86.72 411.4,82.41 400.03,79.97 388.39,79.47 376.83,80.89 365.65,84.19 355.16,89.27 345.64,95.96 337.34,104.07 330.46,113.37" fill="none" stroke="#1a1a1a" stroke-width="1.651" stroke-linecap="round" stroke-linejoin="round" />
  <polyline points="330.46,113.37 325.36,123.12 321.82,133.48 319.91,144.2 319.64,155.03 321.01,165.71 323.99,176.01 328.48,185.68 334.39,194.52 341.58,202.33 349.87,208.93 359.09,214.18 369.02,217.95 379.46,220.16 390.15,220.75 400.86,219.69 411.34,217.01" fill="none" stroke="#1a1a1a" stroke-width="1.46" stroke-opacity="0.55" stroke-dasharray="4,3" stroke-linecap="round" stroke-linejoin="round" />
  <polyline points="411.34,217.01 420.94,212.94 429.9,207.49 438.01,200.77 445.09,192.91 450.97,184.07 455.5,174.44 458.56,164.23 460.09,153.67" fill="none" stroke="#1a1a1a" stroke-width="1.637" stroke-linecap="round" stroke-linejoin="round" />

<g transform="translate(0,498)">  <rect width="640" height="480" fill="#faf9f5" />
  <path d="M 403.55,340.09 L 403.95,334.09 L 404.43,328.07 L 404.92,322.07 L 405.37,316.13 L 405.98,310.23 L 406.6,304.33 L 407.08,298.43 L 407.38,292.51 L 407.66,286.48 L 407.96,280.39 L 408.25,274.32 L 408.52,268.25 L 408.79,262.14 L 409.07,255.99 L 409.38,249.85 L 409.7,243.62 L 410.08,237.39 L 410.51,231.28 L 410.91,225.34 L 411.24,219.43 L 411.56,213.55 L 411.9,207.68 L 412.3,201.97 L 412.72,196.45 L 413.16,190.87 L 413.68,185 L 414.23,178.9 L 414.82,172.74 L 415.42,166.66 L 415.99,160.74 L 416.44,154.8 L 416.77,148.83 L 417.1,142.86 L 417.46,136.94 L 416.93,136.91 L 416.52,142.83 L 416.08,148.79 L 415.6,154.74 L 415.03,160.66 L 414.4,166.56 L 413.77,172.63 L 413.17,178.8 L 412.6,184.91 L 412.07,190.77 L 411.6,196.36 L 411.16,201.89 L 410.76,207.6 L 410.39,213.48 L 410.07,219.37 L 409.77,225.27 L 409.44,231.21 L 409.05,237.32 L 408.62,243.56 L 408.25,249.79 L 407.96,255.94 L 407.77,262.1 L 407.57,268.21 L 407.28,274.27 L 406.89,280.33 L 406.53,286.42 L 406.26,292.46 L 406.01,298.36 L 405.53,304.23 L 404.91,310.13 L 404.38,316.05 L 404.08,322.02 L 403.74,328.02 L 403.38,334.05 L 403.03,340.06 Z" fill="#1a1a1a" stroke="#1a1a1a" stroke-width="0.4" stroke-linejoin="round" />
  <path d="M 237.45,340.25 L 237.06,334.26 L 236.86,328.34 L 236.69,322.43 L 236.42,316.47 L 236.06,310.51 L 235.68,304.57 L 235.3,298.6 L 234.9,292.53 L 234.36,286.26 L 233.75,279.96 L 233.16,273.81 L 232.46,267.81 L 231.69,261.82 L 230.97,255.81 L 230.38,249.77 L 229.85,243.73 L 229.4,237.74 L 229.03,231.79 L 228.83,225.84 L 228.82,219.91 L 228.78,213.96 L 228.5,207.96 L 228.01,201.94 L 227.43,195.96 L 226.9,190.02 L 226.57,184.08 L 226.28,178.21 L 226.02,172.36 L 225.77,166.49 L 225.59,160.56 L 225.43,154.66 L 225.14,148.77 L 224.59,142.83 L 223.78,136.66 L 223.25,136.73 L 224.01,142.89 L 224.45,148.81 L 224.58,154.68 L 224.62,160.58 L 224.75,166.52 L 224.97,172.41 L 225.22,178.25 L 225.49,184.14 L 225.81,190.1 L 226.32,196.06 L 226.87,202.04 L 227.35,208.03 L 227.62,213.99 L 227.65,219.92 L 227.69,225.87 L 227.96,231.85 L 228.36,237.81 L 228.78,243.82 L 229.26,249.87 L 229.86,255.94 L 230.67,261.95 L 231.52,267.92 L 232.19,273.91 L 232.69,280.05 L 233.23,286.36 L 233.78,292.62 L 234.23,298.67 L 234.61,304.64 L 235,310.58 L 235.43,316.53 L 235.86,322.47 L 236.17,328.37 L 236.49,334.29 L 236.92,340.28 Z" fill="#1a1a1a" stroke="#1a1a1a" stroke-width="0.4" stroke-linejoin="round" />
  <path d="M 391.89,359.41 L 394.39,357.16 L 396.71,354.75 L 400.14,349.84 L 402.52,344.95 L 403.55,340.14 L 403.04,340 L 401.46,344.55 L 399.18,349.27 L 395.84,354.07 L 393.62,356.43 L 391.52,359.06 Z" fill="#1a1a1a" stroke="#1a1a1a" stroke-width="0.4" stroke-linejoin="round" />
  <polyline points="403.29,340.07 403.24,335.35 401.92,330.34 399.98,325.42 396.94,320.74 392.6,316.27 387.78,312.07 385.11,310.15 382.49,308.21 379.64,306.47 376.82,304.77 372.49,302.89 368.06,300.97 363.6,298.91 358.78,297.36 354.16,295.91 349.64,294.51 344.82,293.59 340.01,292.63 335.44,291.79 330.72,291.61 325.79,291.42 320.48,291.2 314.97,291.65 309.53,292.21 304.26,292.69 299.26,293.59 294.22,294.27 288.98,294.87 283.93,296.03 278.94,297.2 274.1,298.38 269.89,300.11 265.77,301.93 261.57,303.85 258.66,305.57 255.79,307.34 253.24,309.34 250.76,311.38 246.64,315.66 243.23,320.14 240.38,325.02 238.35,330.02 237.28,334.93 237.19,340.27" fill="none" stroke="#1a1a1a" stroke-width="0.839" stroke-opacity="0.2" stroke-dasharray="4,3" stroke-linecap="round" stroke-linejoin="round" />
  <path d="M 236.93,340.31 L 237.62,344.04 L 238.29,347.65 L 239.9,351.15 L 241.46,354.52 L 243.98,357.67 L 246.56,360.8 L 250.24,363.92 L 254.19,367.15 L 259.17,370.01 L 264.01,372.73 L 269.37,374.9 L 274.54,376.96 L 278.43,378 L 282.3,379.02 L 286.22,380.02 L 290.5,380.68 L 294.73,381.4 L 299,382.2 L 303.47,382.68 L 307.93,383.23 L 312.45,383.78 L 317.1,383.82 L 321.85,383.8 L 326.78,383.77 L 331.71,383.35 L 336.6,382.95 L 341.4,382.55 L 345.84,381.73 L 350.17,380.91 L 354.53,380.07 L 358.58,378.83 L 362.62,377.55 L 366.66,376.25 L 371.65,373.78 L 376.4,371.32 L 380.31,368.5 L 384.5,365.65 L 388.09,362.51 L 391.87,359.44 L 391.54,359.03 L 387.74,362.09 L 384.13,365.15 L 379.89,367.88 L 375.95,370.57 L 371.2,372.87 L 366.24,375.23 L 362.28,376.48 L 358.25,377.74 L 354.26,378.96 L 349.96,379.78 L 345.63,380.58 L 341.24,381.38 L 336.5,381.79 L 331.61,382.23 L 326.72,382.71 L 321.85,382.76 L 317.11,382.76 L 312.53,382.67 L 308.07,382.1 L 303.59,381.57 L 299.14,381.15 L 294.9,380.43 L 290.65,379.74 L 286.42,379.08 L 282.56,378.04 L 278.72,376.96 L 274.91,375.89 L 269.79,373.85 L 264.48,371.74 L 259.7,369.08 L 254.81,366.24 L 250.95,363.06 L 247.29,360.06 L 244.7,357.07 L 242.14,354.08 L 240.54,350.84 L 238.87,347.45 L 238.16,343.94 L 237.44,340.22 Z" fill="#1a1a1a" stroke="#1a1a1a" stroke-width="0.4" stroke-linejoin="round" />
  <path d="M 405.69,147.97 L 409.61,145.5 L 413.45,142.99 L 415.79,140.43 L 417.25,138.13 L 417.4,135.91 L 416.27,133.58 L 414.32,131.25 L 411.64,129.06 L 408.03,126.93 L 404.58,124.55 L 399.83,122.36 L 395.07,120.37 L 391.06,119.41 L 387.07,118.5 L 383.01,117.56 L 378.35,116.79 L 373.74,115.95 L 369.14,115.07 L 364.16,114.41 L 359.33,113.84 L 354.55,113.34 L 349.48,113.12 L 344.28,112.96 L 338.86,112.8 L 333.16,112.88 L 327.44,112.97 L 321.8,113.03 L 316.16,113.17 L 310.65,113.18 L 305.28,113.05 L 300.06,113.12 L 294.85,113.23 L 289.44,113.4 L 284.1,113.86 L 278.87,114.35 L 273.87,114.86 L 269.39,115.57 L 264.91,116.25 L 260.3,116.94 L 256.12,117.86 L 252,118.81 L 247.83,119.79 L 242.67,121.6 L 237.56,123.35 L 233.76,125.28 L 229.77,127.17 L 227.09,129.3 L 224.61,131.62 L 223.43,134.22 L 222.95,136.75 L 223.23,139.24 L 224.52,141.53 L 227.06,143.79 L 231,146.25 L 236.57,148.57 L 241.74,150.63 L 246.34,151.84 L 250.97,153.1 L 255.81,154.32 L 260.32,155.05 L 264.82,155.78 L 269.33,156.54 L 273.84,157.35 L 278.96,157.96 L 284.07,158.58 L 289.21,159.18 L 294.35,159.76 L 299.83,160.02 L 305.25,160.27 L 310.66,160.56 L 316.12,160.92 L 321.62,161.03 L 327.1,161.08 L 332.58,161 L 338.12,160.82 L 343.43,160.32 L 348.79,159.87 L 354.18,159.5 L 359.57,159.2 L 364.35,158.63 L 369.04,158.08 L 373.67,157.46 L 378.33,156.77 L 383.55,155.46 L 388.79,154.13 L 393.99,152.83 L 397.85,151.24 L 401.74,149.61 L 405.65,148 L 405.44,147.49 L 401.52,149.09 L 397.63,150.7 L 393.81,152.26 L 388.63,153.51 L 383.39,154.82 L 378.2,156.13 L 373.58,156.78 L 368.95,157.34 L 364.26,157.81 L 359.5,158.3 L 354.13,158.56 L 348.72,158.92 L 343.35,159.35 L 338.06,159.81 L 332.56,159.95 L 327.1,160.01 L 321.64,159.97 L 316.16,159.9 L 310.72,159.56 L 305.3,159.28 L 299.87,159.05 L 294.43,158.81 L 289.32,158.22 L 284.19,157.58 L 279.08,156.93 L 274,156.3 L 269.52,155.46 L 265.01,154.68 L 260.5,153.93 L 256.03,153.22 L 251.24,152.06 L 246.61,150.83 L 242.07,149.65 L 236.98,147.58 L 231.49,145.26 L 227.71,142.9 L 225.36,140.82 L 224.28,138.9 L 224.06,136.8 L 224.5,134.57 L 225.52,132.3 L 227.84,130.18 L 230.37,128.16 L 234.28,126.33 L 238.01,124.45 L 243.06,122.73 L 248.18,120.94 L 252.27,119.99 L 256.39,119.04 L 260.51,118.09 L 265.09,117.37 L 269.57,116.66 L 274.01,115.94 L 278.98,115.45 L 284.19,114.97 L 289.5,114.53 L 294.88,114.38 L 300.07,114.29 L 305.27,114.24 L 310.64,114.38 L 316.18,114.39 L 321.82,114.24 L 327.46,114.13 L 333.18,113.97 L 338.85,113.88 L 344.24,114.08 L 349.44,114.29 L 354.47,114.5 L 359.21,114.94 L 364.04,115.43 L 368.99,116.03 L 373.55,116.92 L 378.17,117.8 L 382.8,118.6 L 386.84,119.52 L 390.85,120.38 L 394.78,121.25 L 399.49,123.13 L 404.2,125.24 L 407.62,127.57 L 411.23,129.67 L 413.83,131.75 L 415.71,133.95 L 416.77,136.06 L 416.66,137.92 L 415.31,140.06 L 413.08,142.55 L 409.31,145.04 L 405.4,147.52 Z" fill="#1a1a1a" stroke="#1a1a1a" stroke-width="0.4" stroke-linejoin="round" />
  <path d="M 460.72,153.89 L 460.56,148.08 L 460.35,142.29 L 459.21,136.62 L 458.16,130.9 L 456.29,125.34 L 454.47,119.79 L 451.69,114.7 L 448.76,109.65 L 444.94,105.09 L 441.07,100.53 L 436.45,96.7 L 431.91,92.97 L 426.79,90.14 L 421.76,87.26 L 416.37,85.09 L 411.06,82.81 L 405.48,81.43 L 399.92,80.01 L 394.23,79.47 L 388.52,79.01 L 382.88,79.69 L 377.31,80.61 L 371.93,82.55 L 366.33,84.5 L 360.75,87.18 L 355.07,89.68 L 349.98,92.84 L 345.05,95.9 L 340.75,99.7 L 336.44,103.6 L 332.81,108.3 L 329.32,113.21 L 329.92,113.64 L 333.44,108.77 L 337.1,104.22 L 341.46,100.51 L 345.75,96.87 L 350.63,93.89 L 355.64,90.77 L 361.28,88.34 L 366.83,85.72 L 372.37,83.79 L 377.64,81.85 L 383.06,80.93 L 388.54,80.22 L 394.13,80.61 L 399.74,81.1 L 405.22,82.48 L 410.71,83.83 L 415.93,86.11 L 421.22,88.35 L 426.13,91.29 L 431.12,94.12 L 435.59,97.76 L 440.17,101.45 L 444.01,105.88 L 447.77,110.34 L 450.64,115.29 L 453.39,120.26 L 455.22,125.7 L 457.15,131.17 L 458.26,136.81 L 459.47,142.41 L 459.77,148.11 L 460,153.92 Z" fill="#1a1a1a" stroke="#1a1a1a" stroke-width="0.4" stroke-linejoin="round" />
  <polyline points="329.62,113.42 327.11,118.58 324.63,123.52 322.93,128.54 321.26,133.47 320.42,138.54 319.56,143.62 319.45,148.86 319.38,154.2 320.21,159.6 321.03,165.02 322.51,170.25 323.69,175.48 325.62,180.37 327.68,185.22 330.82,189.6 334.13,193.99 337.96,197.9 341.47,201.87 345.4,205.22 349.43,208.55 354.05,211.12 358.64,213.74 363.57,215.61 368.6,217.41 374.08,218.29 379.64,219.14 385.24,219.38 390.69,219.81 396,219.54 401.34,219.3 406.62,218.32 412.01,217.42" fill="none" stroke="#1a1a1a" stroke-width="1.217" stroke-opacity="0.32" stroke-dasharray="4,3" stroke-linecap="round" stroke-linejoin="round" />
  <path d="M 412.12,217.76 L 417.13,216.19 L 422.05,214.45 L 426.48,211.7 L 430.9,208.78 L 435.04,205.18 L 439.23,201.6 L 442.89,197.52 L 446.56,193.51 L 449.55,189.03 L 452.39,184.58 L 454.41,179.74 L 456.43,174.89 L 457.89,169.7 L 459.35,164.52 L 459.97,159.2 L 460.64,153.95 L 460.08,153.86 L 459.19,159.08 L 458.19,164.26 L 456.56,169.32 L 455.16,174.46 L 453.23,179.25 L 451.31,184.02 L 448.55,188.38 L 445.62,192.78 L 442.01,196.72 L 438.42,200.78 L 434.29,204.31 L 430.18,207.82 L 425.77,210.59 L 421.48,213.32 L 416.81,215.3 L 411.9,217.08 Z" fill="#1a1a1a" stroke="#1a1a1a" stroke-width="0.4" stroke-linejoin="round" />
  <g opacity="0.28">
    <polyline points="460.36,153.9 460.17,148.1 459.91,142.35 458.74,136.71 457.66,131.04 455.75,125.52 453.93,120.02 451.16,115 448.27,110 444.48,105.49 440.62,100.99 436.02,97.23 431.51,93.55 426.46,90.72 421.49,87.81 416.15,85.6 410.88,83.32 405.35,81.95 399.83,80.55 394.18,80.04 388.53,79.62 382.97,80.31 377.47,81.23 372.15,83.17 366.58,85.11 361.01,87.76 355.36,90.23 350.31,93.37 345.4,96.38 341.11,100.11 336.77,103.91 333.13,108.54 329.62,113.42" fill="none" stroke="#1a1a1a" stroke-width="11.006" stroke-linecap="round" stroke-linejoin="round" />
    <polyline points="329.62,113.42 327.11,118.58 324.63,123.52 322.93,128.54 321.26,133.47 320.42,138.54 319.56,143.62 319.45,148.86 319.38,154.2 320.21,159.6 321.03,165.02 322.51,170.25 323.69,175.48 325.62,180.37 327.68,185.22 330.82,189.6 334.13,193.99 337.96,197.9 341.47,201.87 345.4,205.22 349.43,208.55 354.05,211.12 358.64,213.74 363.57,215.61 368.6,217.41 374.08,218.29 379.64,219.14 385.24,219.38 390.69,219.81 396,219.54 401.34,219.3 406.62,218.32 412.01,217.42" fill="none" stroke="#1a1a1a" stroke-width="9.735" stroke-linecap="round" stroke-linejoin="round" />
    <polyline points="412.01,217.42 416.97,215.75 421.77,213.89 426.13,211.15 430.54,208.3 434.67,204.75 438.83,201.19 442.45,197.12 446.09,193.15 449.05,188.7 451.85,184.3 453.82,179.5 455.79,174.68 457.23,169.51 458.77,164.39 459.58,159.14 460.36,153.9" fill="none" stroke="#1a1a1a" stroke-width="10.916" stroke-linecap="round" stroke-linejoin="round" />
  </g>
  <path d="M 460.79,153.89 L 460.64,148.08 L 460.44,142.28 L 459.31,136.6 L 458.26,130.87 L 456.39,125.3 L 454.58,119.74 L 451.79,114.64 L 448.86,109.58 L 445.03,105.01 L 441.16,100.44 L 436.54,96.59 L 431.98,92.85 L 426.86,90.02 L 421.81,87.16 L 416.41,84.99 L 411.09,82.71 L 405.5,81.32 L 399.94,79.9 L 394.24,79.36 L 388.51,78.89 L 382.86,79.57 L 377.27,80.48 L 371.88,82.43 L 366.27,84.38 L 360.69,87.06 L 355.01,89.57 L 349.92,92.74 L 344.98,95.8 L 340.68,99.62 L 336.37,103.53 L 332.75,108.25 L 329.26,113.16 L 329.98,113.68 L 333.5,108.82 L 337.16,104.28 L 341.53,100.6 L 345.83,96.96 L 350.7,94 L 355.7,90.88 L 361.33,88.45 L 366.88,85.84 L 372.41,83.92 L 377.67,81.98 L 383.07,81.05 L 388.55,80.34 L 394.12,80.73 L 399.72,81.21 L 405.19,82.58 L 410.68,83.93 L 415.89,86.22 L 421.17,88.46 L 426.06,91.41 L 431.04,94.24 L 435.5,97.86 L 440.08,101.54 L 443.92,105.96 L 447.68,110.41 L 450.53,115.35 L 453.28,120.31 L 455.11,125.74 L 457.05,131.2 L 458.17,136.82 L 459.38,142.42 L 459.69,148.12 L 459.93,153.92 Z" fill="#1a1a1a" stroke="#1a1a1a" stroke-width="0.4" stroke-linejoin="round" />
  <polyline points="329.62,113.42 327.11,118.58 324.63,123.52 322.93,128.54 321.26,133.47 320.42,138.54 319.56,143.62 319.45,148.86 319.38,154.2 320.21,159.6 321.03,165.02 322.51,170.25 323.69,175.48 325.62,180.37 327.68,185.22 330.82,189.6 334.13,193.99 337.96,197.9 341.47,201.87 345.4,205.22 349.43,208.55 354.05,211.12 358.64,213.74 363.57,215.61 368.6,217.41 374.08,218.29 379.64,219.14 385.24,219.38 390.69,219.81 396,219.54 401.34,219.3 406.62,218.32 412.01,217.42" fill="none" stroke="#1a1a1a" stroke-width="1.46" stroke-opacity="0.55" stroke-dasharray="4,3" stroke-linecap="round" stroke-linejoin="round" />
  <path d="M 412.15,217.83 L 417.17,216.28 L 422.11,214.57 L 426.55,211.81 L 430.97,208.88 L 435.11,205.27 L 439.31,201.68 L 442.97,197.6 L 446.65,193.59 L 449.65,189.1 L 452.5,184.63 L 454.53,179.79 L 456.56,174.94 L 458.03,169.74 L 459.46,164.55 L 460.04,159.21 L 460.7,153.95 L 460.02,153.85 L 459.11,159.07 L 458.07,164.23 L 456.43,169.28 L 455.03,174.41 L 453.11,179.21 L 451.2,183.96 L 448.45,188.31 L 445.52,192.7 L 441.92,196.64 L 438.34,200.69 L 434.22,204.23 L 430.11,207.73 L 425.7,210.48 L 421.42,213.2 L 416.78,215.21 L 411.87,217.02 Z" fill="#1a1a1a" stroke="#1a1a1a" stroke-width="0.4" stroke-linejoin="round" />
</g>
<line x1="10" y1="489" x2="630" y2="489" stroke="#ddd" stroke-width="1" />
<text x="14" y="26" font-family="sans-serif" font-size="14" fill="#999">wobble: off</text>
<text x="14" y="524" font-family="sans-serif" font-size="14" fill="#999">wobble: on</text>
</svg>