<svg xmlns="http://www.w3.org/2000/svg" viewBox="0 0 640 480" width="640" height="480">
  <rect width="640" height="480" fill="#faf9f5" />
  <polyline points="402.87,339.56 416.86,137.02" fill="none" stroke="#1a1a1a" stroke-width="1" stroke-linecap="round" stroke-linejoin="round" />
  <polyline points="237.13,339.56 223.14,137.02" fill="none" stroke="#1a1a1a" stroke-width="1" stroke-linecap="round" stroke-linejoin="round" />
  <polyline points="392.65,360.05 396.87,355.11 399.98,349.99 401.98,344.78 402.87,339.56" fill="none" stroke="#1a1a1a" stroke-width="1" stroke-linecap="round" stroke-linejoin="round" />
  <polyline points="402.87,339.56 402.73,334.51 401.61,329.57 399.59,324.8 396.71,320.23 393.04,315.91 388.65,311.88 383.6,308.15 377.97,304.77 365.24,299.09 350.99,294.96 335.74,292.46 320,291.62 304.26,292.46 289.01,294.96 274.76,299.09 262.03,304.77 256.4,308.15 251.35,311.88 246.96,315.91 243.29,320.23 240.41,324.8 238.39,329.57 237.27,334.51 237.13,339.56" fill="none" stroke="#1a1a1a" stroke-width="0.9" stroke-opacity="0.2" stroke-dasharray="4,3" stroke-linecap="round" stroke-linejoin="round" />
  <polyline points="237.13,339.56 238.55,346.47 241.9,353.31 247.21,359.91 254.43,366.05 263.47,371.56 274.12,376.24 286.14,379.92 299.19,382.47 312.89,383.78 326.8,383.79 340.51,382.51 353.58,379.99 365.62,376.34 376.31,371.67 385.38,366.18 392.65,360.05" fill="none" stroke="#1a1a1a" stroke-width="1" stroke-linecap="round" stroke-linejoin="round" />
  <polyline points="405.74,147.52 413.25,142.97 415.45,140.63 416.63,138.28 416.84,135.95 416.1,133.67 414.46,131.44 411.99,129.29 404.75,125.3 394.87,121.78 382.83,118.82 369.1,116.46 354.12,114.73 338.3,113.66 322.06,113.24 305.76,113.49 289.8,114.4 274.57,115.97 260.49,118.17 247.97,120.98 237.51,124.36 229.56,128.25 224.62,132.54 223.42,134.8 223.14,137.11 223.83,139.45 225.51,141.8 228.23,144.12 231.98,146.4 242.57,150.69 257.08,154.42 274.96,157.34 295.37,159.26 317.21,160.02 339.21,159.56 360.1,157.93 378.71,155.24 394.13,151.69 405.74,147.52" fill="none" stroke="#1a1a1a" stroke-width="1" stroke-linecap="round" stroke-linejoin="round" />
  <polyline points="460.09,153.67 459.93,142.01 457.85,130.55 453.91,119.59 448.19,109.46 440.86,100.44 432.11,92.79 422.2,86.72 411.4,82.41 400.03,79.97 388.39,79.47 376.83,80.89 365.65,84.19 355.16,89.27 345.64,95.96 337.34,104.07 330.46,113.37" fill="none" stroke="#1a1a1a" stroke-width="1.5" stroke-linecap="round" stroke-linejoin="round" />
  <polyline points="330.46,113.37 325.36,123.12 321.82,133.48 319.91,144.2 319.64,155.03 321.01,165.71 323.99,176.01 328.48,185.68 334.39,194.52 341.58,202.33 349.87,208.93 359.09,214.18 369.02,217.95 379.46,220.16 390.15,220.75 400.86,219.69 411.34,217.01" fill="none" stroke="#1a1a1a" stroke-width="1.35" stroke-opacity="0.32" stroke-dasharray="4,3" stroke-linecap="round" stroke-linejoin="round" />
  <polyline points="411.34,217.01 420.94,212.94 429.9,207.49 438.01,200.77 445.09,192.91 450.97,184.07 455.5,174.44 458.56,164.23 460.09,153.67" fill="none" stroke="#1a1a1a" stroke-width="1.5" stroke-linecap="round" stroke-linejoin="round" />
  <polyline points="460.09,153.67 459.93,142.01 457.85,130.55 453.91,119.59 448.19,109.46 440.86,100.44 432.11,92.79 422.2,86.72 411.4,82.41 400.03,79.97 388.39,79.47 376.83,80.89 365.65,84.19 355.16,89.27 345.64,95.96 337.34,104.07 330.46,113.37" fill="none" stroke="#1a1a1a" stroke-width="12" stroke-opacity="0.28" stroke-linecap="round" stroke-linejoin="round" />
  <polyline points="330.46,113.37 325.36,123.12 321.82,133.48 319.91,144.2 319.64,155.03 321.01,165.71 323.99,176.01 328.48,185.68 334.39,194.52 341.58,202.33 349.87,208.93 359.09,214.18 369.02,217.95 379.46,220.16 390.15,220.75 400.86,219.69 411.34,217.01" fill="none" stroke="#1a1a1a" stroke-width="10.8" stroke-opacity="0.28" stroke-linecap="round" stroke-linejoin="round" />
  <polyline points="411.34,217.01 420.94,212.94 429.9,207.49 438.01,200.77 445.09,192.91 450.97,184.07 455.5,174.44 458.56,164.23 460.09,153.67" fill="none" stroke="#1a1a1a" stroke-width="12" stroke-opacity="0.28" stroke-linecap="round" stroke-linejoin="round" />
  <polyline points="460.09,153.67 459.93,142.01 457.85,130.55 453.91,119.59 448.19,109.46 440.86,100.44 432.11,92.79 422.2,86.72 411.4,82.41 400.03,79.97 388.39,79.47 376.83,80.89 365.65,84.19 355.16,89.27 345.64,95.96 337.34,104.07 330.46,113.37" fill="none" stroke="#1a1a1a" stroke-width="1.8" stroke-linecap="round" stroke-linejoin="round" />
  <polyline points="330.46,113.37 325.36,123.12 321.82,133.48 319.91,144.2 319.64,155.03 321.01,165.71 323.99,176.01 328.48,185.68 334.39,194.52 341.58,202.33 349.87,208.93 359.09,214.18 369.02,217.95 379.46,220.16 390.15,220.75 400.86,219.69 411.34,217.01" fill="none" stroke="#1a1a1a" stroke-width="1.62" stroke-opacity="0.55" stroke-dasharray="4,3" stroke-linecap="round" stroke-linejoin="round" />
  <polyline points="411.34,217.01 420.94,212.94 429.9,207.49 438.01,200.77 445.09,192.91 450.97,184.07 455.5,174.44 458.56,164.23 460.09,153.67" fill="none" stroke="#1a1a1a" stroke-width="1.8" stroke-linecap="round" stroke-linejoin="round" />
</svg>
