<svg xmlns="http://www.w3.org/2000/svg" viewBox="0 0 640 978" width="640" height="978">
  <rect width="640" height="480" fill="#faf9f5" />
  <polyline points="402.87,339.56 416.86,137.02" fill="none" stroke="#1a1a1a" stroke-width="1.013" stroke-linecap="round" stroke-linejoin="round" />
  <polyline points="237.13,339.56 223.14,137.02" fill="none" stroke="#1a1a1a" stroke-width="1.013" stroke-linecap="round" stroke-linejoin="round" />
  <polyline points="392.65,360.05 396.87,355.11 399.98,349.99 401.98,344.78 402.87,339.56" fill="none" stroke="#1a1a1a" stroke-width="0.987" stroke-linecap="round" stroke-linejoin="round" />
  <polyline points="402.87,339.56 402.73,334.51 401.61,329.57 399.59,324.8 396.71,320.23 393.04,315.91 388.65,311.88 383.6,308.15 377.97,304.77 365.24,299.09 350.99,294.96 335.74,292.46 320,291.62 304.26,292.46 289.01,294.96 274.76,299.09 262.03,304.77 256.4,308.15 251.35,311.88 246.96,315.91 243.29,320.23 240.41,324.8 238.39,329.57 237.27,334.51 237.13,339.56" fill="none" stroke="#1a1a1a" stroke-width="0.839" stroke-opacity="0.2" stroke-dasharray="4,3" stroke-linecap="round" stroke-linejoin="round" />
  <polyline points="237.13,339.56 238.55,346.47 241.9,353.31 247.21,359.91 254.43,366.05 263.47,371.56 274.12,376.24 286.14,379.92 299.19,382.47 312.89,383.78 326.8,383.79 340.51,382.51 353.58,379.99 365.62,376.34 376.31,371.67 385.38,366.18 392.65,360.05" fill="none" stroke="#1a1a1a" stroke-width="1.015" stroke-linecap="round" stroke-linejoin="round" />
  <polyline points="405.74,147.52 413.25,142.97 415.45,140.63 416.63,138.28 416.84,135.95 416.1,133.67 414.46,131.44 411.99,129.29 404.75,125.3 394.87,121.78 382.83,118.82 369.1,116.46 354.12,114.73 338.3,113.66 322.06,113.24 305.76,113.49 289.8,114.4 274.57,115.97 260.49,118.17 247.97,120.98 237.51,124.36 229.56,128.25 224.62,132.54 223.42,134.8 223.14,137.11 223.83,139.45 225.51,141.8 228.23,144.12 231.98,146.4 242.57,150.69 257.08,154.42 274.96,157.34 295.37,159.26 317.21,160.02 339.21,159.56 360.1,157.93 378.71,155.24 394.13,151.69 405.74,147.52" fill="none" stroke="#1a1a1a" stroke-width="1.048" stroke-linecap="round" stroke-linejoin="round" />
  <polyline points="460.09,153.67 459.93,142.01 457.85,130.55 453.91,119.59 448.19,109.46 440.86,100.44 432.11,92.79 422.2,86.72 411.4,82.41 400.03,79.97 388.39,79.47 376.83,80.89 365.65,84.19 355.16,89.27 345.64,95.96 337.34,104.07 330.46,113.37" fill="none" stroke="#1a1a1a" stroke-width="1.376" stroke-linecap="round" stroke-linejoin="round" />
  <polyline points="330.46,113.37 325.36,123.12 321.82,133.48 319.91,144.2 319.64,155.03 321.01,165.71 323.99,176.01 328.48,185.68 334.39,194.52 341.58,202.33 349.87,208.93 359.09,214.18 369.02,217.95 379.46,220.16 390.15,220.75 400.86,219.69 411.34,217.01" fill="none" stroke="#1a1a1a" stroke-width="1.217" stroke-opacity="0.32" stroke-dasharray="4,3" stroke-linecap="round" stroke-linejoin="round" />
  <polyline points="411.34,217.01 420.94,212.94 429.9,207.49 438.01,200.77 445.09,192.91 450.97,184.07 455.5,174.44 458.56,164.23 460.09,153.67" fill="none" stroke="#1a1a1a" stroke-width="1.365" stroke-linecap="round" stroke-linejoin="round" />
  <g opacity="0.28">
    <polyline points="460.09,153.67 459.93,142.01 457.85,130.55 453.91,119.59 448.19,109.46 440.86,100.44 432.11,92.79 422.2,86.72 411.4,82.41 400.03,79.97 388.39,79.47 376.83,80.89 365.65,84.19 355.16,89.27 345.64,95.96 337.34,104.07 330.46,113.37" fill="none" stroke="#1a1a1a" stroke-width="11.006" stroke-linecap="round" stroke-linejoin="round" />
    <polyline points="330.46,113.37 325.36,123.12 321.82,133.48 319.91,144.2 319.64,155.03 321.01,165.71 323.99,176.01 328.48,185.68 334.39,194.52 341.58,202.33 349.87,208.93 359.09,214.18 369.02,217.95 379.46,220.16 390.15,220.75 400.86,219.69 411.34,217.01" fill="none" stroke="#1a1a1a" stroke-width="9.735" stroke-linecap="round" stroke-linejoin="round" />
    <polyline points="411.34,217.01 420.94,212.94 429.9,207.49 438.01,200.77 445.09,192.91 450.97,184.07 455.5,174.44 458.56,164.23 460.09,153.67" fill="none" stroke="#1a1a1a" stroke-width="10.916" stroke-linecap="round" stroke-linejoin="round" />
  </g>
  <polyline points="460.09,153.67 459.93,142.01 457.85,130.55 453.91,119.59 448.19,109.46 440.86,100.44 432.11,92.79 422.2,86.72 411.4,82.41 400.03,79.97 388.39,79.47 376.83,80.89 365.65,84.19 355.16,89.27 345.64,95.96 337.34,104.07 330.46,113.37" fill="none" stroke="#1a1a1a" stroke-width="1.651" stroke-linecap="round" stroke-linejoin="round" />
  <polyline points="330.46,113.37 325.36,123.12 321.82,133.48 319.91,144.2 319.64,155.03 321.01,165.71 323.99,176.01 328.48,185.68 334.39,194.52 341.58,202.33 349.87,208.93 359.09,214.18 369.02,217.95 379.46,220.16 390.15,220.75 400.86,219.69 411.34,217.01" fill="none" stroke="#1a1a1a" stroke-width="1.46" stroke-opacity="0.55" stroke-dasharray="4,3" stroke-linecap="round" stroke-linejoin="round" />
  <polyline points="411.34,217.01 420.94,212.94 429.9,207.49 438.01,200.77 445.09,192.91 450.97,184.07 455.5,174.44 458.56,164.23 460.09,153.67" fill="none" stroke="#1a1a1a" stroke-width="1.637" stroke-linecap="round" stroke-linejoin="round" />

<g transform="translate(0,498)">  <rect width="640" height="480" fill="#faf9f5" />
  <path d="M 402.68,340.52 L 402.82,334.44 L 403.16,328.34 L 403.66,322.28 L 404.21,316.26 L 404.84,310.2 L 405.45,304.1 L 405.99,297.96 L 406.47,291.83 L 406.93,285.65 L 407.32,279.51 L 407.78,273.47 L 408.1,267.55 L 408.33,261.79 L 408.64,256.01 L 409.18,250.02 L 409.84,243.72 L 410.47,237.3 L 411,231.04 L 411.47,225.08 L 411.94,219.18 L 412.42,213.3 L 412.89,207.43 L 413.38,201.63 L 413.86,195.9 L 414.31,190.13 L 414.77,184.23 L 415.25,178.32 L 415.72,172.43 L 416.17,166.55 L 416.69,160.65 L 417.28,154.66 L 417.81,148.62 L 418.05,142.61 L 418.03,136.67 L 417.55,136.67 L 417.53,142.59 L 417.18,148.57 L 416.5,154.57 L 415.74,160.55 L 415.09,166.45 L 414.57,172.33 L 414.12,178.23 L 413.68,184.14 L 413.22,190.04 L 412.74,195.81 L 412.24,201.53 L 411.75,207.33 L 411.31,213.22 L 410.89,219.1 L 410.47,225.01 L 410.06,230.97 L 409.57,237.22 L 408.94,243.63 L 408.24,249.92 L 407.62,255.93 L 407.26,261.73 L 406.99,267.5 L 406.63,273.39 L 406.11,279.42 L 405.66,285.56 L 405.22,291.73 L 404.74,297.86 L 404.22,303.99 L 403.71,310.1 L 403.27,316.18 L 402.88,322.22 L 402.49,328.3 L 402.25,334.43 L 402.16,340.51 Z" fill="#1a1a1a" stroke="#1a1a1a" stroke-width="0.4" stroke-linejoin="round" />
  <path d="M 237.36,339.86 L 236.57,334.04 L 235.82,328.42 L 235.27,322.8 L 234.96,316.89 L 234.87,310.76 L 234.8,304.55 L 234.58,298.3 L 234.13,292 L 233.48,285.66 L 232.79,279.42 L 232.35,273.38 L 232.11,267.44 L 231.92,261.54 L 231.73,255.62 L 231.51,249.66 L 231.35,243.61 L 231.14,237.52 L 230.84,231.46 L 230.36,225.56 L 229.68,219.79 L 229.03,214.1 L 228.61,208.39 L 228.44,202.5 L 228.34,196.4 L 228.14,190.24 L 227.78,184.23 L 227.46,178.38 L 227.14,172.58 L 226.76,166.74 L 226.31,160.8 L 225.81,154.79 L 225.28,148.76 L 224.66,142.76 L 223.98,136.86 L 223.5,136.91 L 224.14,142.82 L 224.65,148.81 L 225.01,154.85 L 225.35,160.87 L 225.67,166.81 L 225.98,172.64 L 226.33,178.44 L 226.69,184.3 L 227.04,190.29 L 227.21,196.43 L 227.29,202.52 L 227.47,208.45 L 227.94,214.2 L 228.64,219.92 L 229.37,225.66 L 229.92,231.53 L 230.25,237.56 L 230.44,243.63 L 230.56,249.68 L 230.71,255.65 L 230.85,261.57 L 231,267.48 L 231.2,273.44 L 231.58,279.52 L 232.22,285.79 L 232.87,292.11 L 233.34,298.36 L 233.57,304.59 L 233.76,310.79 L 234.05,316.94 L 234.51,322.87 L 235.17,328.5 L 236,334.12 L 236.84,339.93 Z" fill="#1a1a1a" stroke="#1a1a1a" stroke-width="0.4" stroke-linejoin="round" />
  <path d="M 393.12,361.33 L 395.5,359.12 L 397.61,356.68 L 400.43,351.51 L 402.15,346.08 L 402.67,340.55 L 402.17,340.48 L 401.13,345.84 L 399.44,351.09 L 396.69,356.08 L 394.74,358.45 L 392.75,360.98 Z" fill="#1a1a1a" stroke="#1a1a1a" stroke-width="0.4" stroke-linejoin="round" />
  <polyline points="402.42,340.51 402.26,335.1 401.21,329.69 399.08,324.66 396.05,320.16 392.5,316.21 388.23,312.43 385.7,310.46 383.22,308.37 380.51,306.46 377.9,304.53 373.98,302.43 370.17,300.44 366.27,298.64 361.6,297.52 356.81,296.31 352,294.93 346.83,293.99 341.7,293.03 336.44,292.19 330.96,292.08 325.53,292.08 320.27,292.05 315.18,292.34 310.03,292.4 304.73,292.47 299.56,293.26 294.6,294.2 289.84,295.07 285.4,296.39 280.78,297.66 275.98,299.03 271.6,300.91 267.22,302.61 262.89,304.27 260,305.91 257.03,307.75 254.27,309.93 251.52,312.16 246.89,316.65 243.22,320.8 240.49,325.02 238.59,329.82 237.43,334.94 237.1,339.9" fill="none" stroke="#1a1a1a" stroke-width="0.839" stroke-opacity="0.2" stroke-dasharray="4,3" stroke-linecap="round" stroke-linejoin="round" />
  <path d="M 236.84,339.93 L 237.36,343.34 L 237.93,347.09 L 239.57,350.97 L 241.12,354.71 L 243.55,358.06 L 245.99,361.15 L 249.59,364.02 L 253.49,366.95 L 258.43,369.6 L 263.24,372.25 L 268.65,374.46 L 274.04,376.64 L 278.1,377.81 L 282.11,378.99 L 286.1,380.17 L 290.34,381.01 L 294.44,381.85 L 298.57,382.7 L 303.05,383.18 L 307.64,383.64 L 312.41,384.05 L 317.4,384.02 L 322.39,383.95 L 327.36,383.91 L 332.23,383.54 L 336.99,383.24 L 341.67,382.96 L 346.05,382.32 L 350.33,381.64 L 354.61,380.9 L 358.55,379.76 L 362.5,378.56 L 366.53,377.28 L 371.68,374.8 L 376.67,372.34 L 380.9,369.59 L 385.4,367.02 L 389.23,364.21 L 393.09,361.37 L 392.78,360.94 L 388.89,363.75 L 385.05,366.45 L 380.49,368.9 L 376.23,371.53 L 371.23,373.88 L 366.12,376.26 L 362.17,377.48 L 358.23,378.67 L 354.35,379.78 L 350.14,380.51 L 345.88,381.21 L 341.55,381.9 L 336.92,382.22 L 332.16,382.56 L 327.32,382.97 L 322.37,383.05 L 317.39,383.12 L 312.45,383.13 L 307.73,382.68 L 303.15,382.17 L 298.74,381.66 L 294.67,380.78 L 290.56,379.91 L 286.38,379.06 L 282.45,377.85 L 278.46,376.62 L 274.46,375.44 L 269.12,373.29 L 263.77,371.12 L 259.02,368.51 L 254.14,365.92 L 250.26,363.13 L 246.67,360.43 L 244.24,357.53 L 241.8,354.33 L 240.2,350.7 L 238.51,346.92 L 237.89,343.26 L 237.36,339.86 Z" fill="#1a1a1a" stroke="#1a1a1a" stroke-width="0.4" stroke-linejoin="round" />
  <path d="M 404.85,146.83 L 408.71,144.24 L 413.14,141.75 L 416.16,139.53 L 417.75,137.68 L 418.1,135.88 L 417.24,133.93 L 415.38,131.82 L 412.66,129.81 L 409.04,127.91 L 405.56,125.81 L 400.56,123.91 L 395.27,122.12 L 390.95,121.03 L 386.66,119.82 L 382.4,118.5 L 377.67,117.49 L 373.03,116.47 L 368.42,115.46 L 363.39,114.79 L 358.3,114.23 L 353.2,113.79 L 347.91,113.61 L 342.76,113.36 L 337.74,112.97 L 332.65,112.69 L 327.51,112.4 L 322.18,112.13 L 316.62,112.09 L 310.98,112.18 L 305.37,112.39 L 299.98,112.79 L 294.66,113.06 L 289.36,113.28 L 284.38,113.86 L 279.41,114.58 L 274.36,115.32 L 269.65,116.12 L 264.88,116.7 L 260.1,117.2 L 255.88,117.97 L 251.7,118.89 L 247.53,119.98 L 242.34,121.94 L 237.04,123.85 L 233.08,125.91 L 229.03,128 L 226.48,130.2 L 224.09,132.37 L 223.14,134.72 L 223.27,137.09 L 224.31,139.66 L 226.19,142.38 L 228.85,144.66 L 232.27,146.54 L 237.1,148.45 L 242.03,150.45 L 246.69,151.61 L 251.37,152.87 L 256.14,154.39 L 260.58,155.4 L 264.99,156.41 L 269.39,157.36 L 273.85,158.27 L 278.99,158.92 L 284.23,159.54 L 289.54,160.12 L 294.88,160.67 L 300.48,160.84 L 305.97,160.95 L 311.37,160.98 L 316.76,160.96 L 322.18,160.58 L 327.62,160.2 L 333.11,159.9 L 338.67,159.67 L 343.99,159.21 L 349.3,158.77 L 354.63,158.33 L 359.98,157.9 L 364.74,157.23 L 369.46,156.62 L 374.13,156.07 L 378.75,155.54 L 383.68,154.52 L 388.52,153.32 L 393.42,151.91 L 397.19,150.2 L 400.98,148.49 L 404.81,146.84 L 404.6,146.37 L 400.77,148.04 L 396.99,149.75 L 393.25,151.44 L 388.39,152.81 L 383.56,153.95 L 378.65,154.92 L 374.06,155.39 L 369.38,155.92 L 364.65,156.52 L 359.9,157.16 L 354.57,157.52 L 349.24,157.84 L 343.91,158.18 L 338.6,158.57 L 333.05,158.77 L 327.54,159.07 L 322.09,159.46 L 316.71,159.89 L 311.37,159.93 L 305.98,159.9 L 300.51,159.78 L 294.95,159.6 L 289.66,159.05 L 284.36,158.45 L 279.12,157.84 L 274.01,157.24 L 269.6,156.38 L 265.19,155.47 L 260.79,154.47 L 256.39,153.47 L 251.64,151.95 L 246.93,150.67 L 242.33,149.52 L 237.45,147.56 L 232.66,145.69 L 229.38,143.89 L 226.9,141.75 L 225.17,139.19 L 224.26,136.85 L 224.16,134.9 L 224.92,133 L 227.18,130.99 L 229.6,128.88 L 233.56,126.84 L 237.45,124.8 L 242.7,122.92 L 247.86,121 L 251.95,119.96 L 256.1,119.09 L 260.26,118.35 L 265.01,117.87 L 269.82,117.3 L 274.55,116.5 L 279.58,115.73 L 284.52,114.98 L 289.45,114.41 L 294.71,114.21 L 300.05,113.97 L 305.44,113.58 L 311.02,113.35 L 316.63,113.2 L 322.15,113.19 L 327.46,113.41 L 332.6,113.64 L 337.68,113.9 L 342.7,114.29 L 347.87,114.58 L 353.13,114.81 L 358.19,115.29 L 363.25,115.9 L 368.22,116.6 L 372.78,117.61 L 377.41,118.65 L 382.1,119.67 L 386.33,120.94 L 390.67,122.1 L 394.98,123.12 L 400.24,124.81 L 405.19,126.6 L 408.65,128.6 L 412.29,130.42 L 414.95,132.31 L 416.72,134.28 L 417.49,135.96 L 417.22,137.4 L 415.78,139.09 L 412.83,141.27 L 408.42,143.77 L 404.56,146.38 Z" fill="#1a1a1a" stroke="#1a1a1a" stroke-width="0.4" stroke-linejoin="round" />
  <path d="M 460.28,154.41 L 460.18,148.52 L 460.09,142.68 L 459.19,136.98 L 458.32,131.26 L 456.52,125.77 L 454.58,120.31 L 451.73,115.29 L 448.95,110.22 L 445.48,105.44 L 442.03,100.38 L 437.84,96.13 L 433.5,92.17 L 428.39,89.15 L 423.25,86.05 L 417.78,83.7 L 412.38,81.37 L 406.45,80.12 L 400.28,78.9 L 393.85,78.72 L 387.52,78.72 L 381.54,79.84 L 375.96,80.88 L 370.73,82.56 L 365.29,83.97 L 360.01,86.42 L 354.72,89.06 L 350.02,92.5 L 345.4,95.87 L 341.33,99.82 L 337.17,103.72 L 333.68,108.23 L 330.03,112.59 L 330.56,113.04 L 334.26,108.7 L 337.81,104.32 L 342.04,100.59 L 346.19,96.83 L 350.84,93.64 L 355.47,90.28 L 360.61,87.65 L 365.74,85.19 L 371.09,83.78 L 376.26,82.06 L 381.76,80.98 L 387.62,79.85 L 393.84,79.87 L 400.15,80.07 L 406.22,81.27 L 412.02,82.5 L 417.28,84.84 L 422.64,87.22 L 427.67,90.34 L 432.65,93.32 L 436.84,97.16 L 440.93,101.29 L 444.28,106.27 L 447.62,111.04 L 450.27,116.09 L 453.05,121.01 L 455.03,126.3 L 457,131.6 L 458.09,137.17 L 459.22,142.77 L 459.46,148.54 L 459.64,154.43 Z" fill="#1a1a1a" stroke="#1a1a1a" stroke-width="0.4" stroke-linejoin="round" />
  <polyline points="330.29,112.81 327.45,117.5 324.69,122.32 322.83,127.64 321.04,132.92 320.1,138.36 319.19,143.75 319.07,149.21 319.09,154.55 320,159.81 320.91,165.05 322.47,170.11 323.97,175.04 326.16,179.67 328.31,184.28 331.15,188.62 334.01,193.23 337.64,197.53 341.44,201.81 345.83,205.21 350.07,208.47 354.55,211.04 358.94,213.68 363.73,215.66 368.68,217.61 373.85,218.71 378.89,219.75 384.03,220.18 389.36,220.7 394.95,220.35 400.62,219.85 406.14,218.51 411.53,217.17" fill="none" stroke="#1a1a1a" stroke-width="1.217" stroke-opacity="0.32" stroke-dasharray="4,3" stroke-linecap="round" stroke-linejoin="round" />
  <path d="M 411.65,217.46 L 416.48,215.59 L 421.21,213.73 L 425.52,211.16 L 429.84,208.56 L 433.89,205.4 L 438,202.3 L 441.54,198.59 L 445.09,194.74 L 448.03,190.25 L 450.95,185.67 L 453.2,180.72 L 455.49,175.84 L 457.14,170.71 L 458.83,165.47 L 459.58,159.93 L 460.27,154.46 L 459.65,154.37 L 458.73,159.79 L 457.59,165.16 L 455.78,170.27 L 454.17,175.32 L 451.91,180.12 L 449.67,184.97 L 446.74,189.4 L 443.79,193.72 L 440.33,197.45 L 436.91,201.09 L 432.93,204.16 L 428.98,207.33 L 424.76,209.93 L 420.64,212.66 L 416.16,214.82 L 411.41,216.88 Z" fill="#1a1a1a" stroke="#1a1a1a" stroke-width="0.4" stroke-linejoin="round" />
  <g opacity="0.28">
    <polyline points="459.96,154.42 459.82,148.53 459.66,142.73 458.64,137.07 457.66,131.43 455.78,126.04 453.82,120.66 451,115.69 448.29,110.63 444.88,105.85 441.48,100.83 437.34,96.64 433.07,92.74 428.03,89.75 422.94,86.64 417.53,84.27 412.2,81.93 406.34,80.7 400.21,79.49 393.84,79.3 387.57,79.29 381.65,80.41 376.11,81.47 370.91,83.17 365.51,84.58 360.31,87.03 355.1,89.67 350.43,93.07 345.8,96.35 341.68,100.21 337.49,104.02 333.97,108.46 330.29,112.81" fill="none" stroke="#1a1a1a" stroke-width="11.006" stroke-linecap="round" stroke-linejoin="round" />
    <polyline points="330.29,112.81 327.45,117.5 324.69,122.32 322.83,127.64 321.04,132.92 320.1,138.36 319.19,143.75 319.07,149.21 319.09,154.55 320,159.81 320.91,165.05 322.47,170.11 323.97,175.04 326.16,179.67 328.31,184.28 331.15,188.62 334.01,193.23 337.64,197.53 341.44,201.81 345.83,205.21 350.07,208.47 354.55,211.04 358.94,213.68 363.73,215.66 368.68,217.61 373.85,218.71 378.89,219.75 384.03,220.18 389.36,220.7 394.95,220.35 400.62,219.85 406.14,218.51 411.53,217.17" fill="none" stroke="#1a1a1a" stroke-width="9.735" stroke-linecap="round" stroke-linejoin="round" />
    <polyline points="411.53,217.17 416.32,215.2 420.93,213.19 425.14,210.55 429.41,207.95 433.41,204.78 437.45,201.69 440.93,198.02 444.44,194.23 447.39,189.83 450.31,185.32 452.55,180.42 454.83,175.58 456.46,170.49 458.21,165.32 459.16,159.86 459.96,154.42" fill="none" stroke="#1a1a1a" stroke-width="10.916" stroke-linecap="round" stroke-linejoin="round" />
  </g>
  <path d="M 460.34,154.41 L 460.25,148.52 L 460.18,142.67 L 459.3,136.96 L 458.45,131.22 L 456.67,125.72 L 454.73,120.24 L 451.88,115.21 L 449.08,110.13 L 445.6,105.35 L 442.15,100.29 L 437.93,96.02 L 433.58,92.05 L 428.46,89.03 L 423.31,85.94 L 417.83,83.59 L 412.42,81.26 L 406.48,80.01 L 400.29,78.79 L 393.86,78.6 L 387.51,78.61 L 381.52,79.73 L 375.93,80.77 L 370.7,82.44 L 365.25,83.85 L 359.95,86.29 L 354.65,88.93 L 349.94,92.39 L 345.32,95.77 L 341.26,99.75 L 337.1,103.66 L 333.62,108.18 L 329.97,112.54 L 330.61,113.08 L 334.31,108.75 L 337.87,104.38 L 342.11,100.67 L 346.27,96.93 L 350.92,93.76 L 355.55,90.41 L 360.67,87.77 L 365.78,85.31 L 371.13,83.9 L 376.29,82.18 L 381.78,81.09 L 387.63,79.96 L 393.83,79.99 L 400.13,80.19 L 406.2,81.39 L 411.99,82.61 L 417.23,84.95 L 422.58,87.33 L 427.6,90.46 L 432.56,93.43 L 436.74,97.26 L 440.81,101.38 L 444.16,106.35 L 447.49,111.13 L 450.13,116.18 L 452.9,121.08 L 454.88,126.36 L 456.87,131.63 L 457.98,137.19 L 459.13,142.78 L 459.39,148.54 L 459.58,154.43 Z" fill="#1a1a1a" stroke="#1a1a1a" stroke-width="0.4" stroke-linejoin="round" />
  <polyline points="330.29,112.81 327.45,117.5 324.69,122.32 322.83,127.64 321.04,132.92 320.1,138.36 319.19,143.75 319.07,149.21 319.09,154.55 320,159.81 320.91,165.05 322.47,170.11 323.97,175.04 326.16,179.67 328.31,184.28 331.15,188.62 334.01,193.23 337.64,197.53 341.44,201.81 345.83,205.21 350.07,208.47 354.55,211.04 358.94,213.68 363.73,215.66 368.68,217.61 373.85,218.71 378.89,219.75 384.03,220.18 389.36,220.7 394.95,220.35 400.62,219.85 406.14,218.51 411.53,217.17" fill="none" stroke="#1a1a1a" stroke-width="1.46" stroke-opacity="0.55" stroke-dasharray="4,3" stroke-linecap="round" stroke-linejoin="round" />
  <path d="M 411.68,217.52 L 416.52,215.67 L 421.27,213.84 L 425.59,211.28 L 429.93,208.69 L 433.99,205.53 L 438.11,202.42 L 441.66,198.71 L 445.22,194.84 L 448.16,190.34 L 451.08,185.74 L 453.33,180.78 L 455.62,175.89 L 457.27,170.76 L 458.95,165.5 L 459.66,159.94 L 460.33,154.47 L 459.59,154.36 L 458.65,159.78 L 457.47,165.13 L 455.65,170.22 L 454.03,175.27 L 451.78,180.06 L 449.54,184.9 L 446.61,189.31 L 443.66,193.62 L 440.2,197.34 L 436.8,200.96 L 432.83,204.04 L 428.9,207.21 L 424.68,209.81 L 420.59,212.55 L 416.12,214.74 L 411.39,216.82 Z" fill="#1a1a1a" stroke="#1a1a1a" stroke-width="0.4" stroke-linejoin="round" />
</g>
<line x1="10" y1="489" x2="630" y2="489" stroke="#ddd" stroke-width="1" />
<text x="14" y="26" font-family="sans-serif" font-size="14" fill="#999">wobble: off</text>
<text x="14" y="524" font-family="sans-serif" font-size="14" fill="#999">wobble: on</text>
</svg>