<svg xmlns="http://www.w3.org/2000/svg" viewBox="0 0 640 978" width="640" height="978">
  <rect width="640" height="480" fill="#faf9f5" />
  <polyline points="402.87,339.56 416.86,137.02" fill="none" stroke="#1a1a1a" stroke-width="1" stroke-linecap="round" stroke-linejoin="round" />
  <polyline points="237.13,339.56 223.14,137.02" fill="none" stroke="#1a1a1a" stroke-width="1" stroke-linecap="round" stroke-linejoin="round" />
  <polyline points="392.65,360.05 396.87,355.11 399.98,349.99 401.98,344.78 402.87,339.56" fill="none" stroke="#1a1a1a" stroke-width="1" stroke-linecap="round" stroke-linejoin="round" />
  <polyline points="402.87,339.56 402.73,334.51 401.61,329.57 399.59,324.8 396.71,320.23 393.04,315.91 388.65,311.88 383.6,308.15 377.97,304.77 365.24,299.09 350.99,294.96 335.74,292.46 320,291.62 304.26,292.46 289.01,294.96 274.76,299.09 262.03,304.77 256.4,308.15 251.35,311.88 246.96,315.91 243.29,320.23 240.41,324.8 238.39,329.57 237.27,334.51 237.13,339.56" fill="none" stroke="#1a1a1a" stroke-width="0.9" stroke-opacity="0.2" stroke-dasharray="4,3" stroke-linecap="round" stroke-linejoin="round" />
  <polyline points="237.13,339.56 238.55,346.47 241.9,353.31 247.21,359.91 254.43,366.05 263.47,371.56 274.12,376.24 286.14,379.92 299.19,382.47 312.89,383.78 326.8,383.79 340.51,382.51 353.58,379.99 365.62,376.34 376.31,371.67 385.38,366.18 392.65,360.05" fill="none" stroke="#1a1a1a" stroke-width="1" stroke-linecap="round" stroke-linejoin="round" />
  <polyline points="405.74,147.52 413.25,142.97 415.45,140.63 416.63,138.28 416.84,135.95 416.1,133.67 414.46,131.44 411.99,129.29 404.75,125.3 394.87,121.78 382.83,118.82 369.1,116.46 354.12,114.73 338.3,113.66 322.06,113.24 305.76,113.49 289.8,114.4 274.57,115.97 260.49,118.17 247.97,120.98 237.51,124.36 229.56,128.25 224.62,132.54 223.42,134.8 223.14,137.11 223.83,139.45 225.51,141.8 228.23,144.12 231.98,146.4 242.57,150.69 257.08,154.42 274.96,157.34 295.37,159.26 317.21,160.02 339.21,159.56 360.1,157.93 378.71,155.24 394.13,151.69 405.74,147.52" fill="none" stroke="#1a1a1a" stroke-width="1" stroke-linecap="round" stroke-linejoin="round" />
  <polyline points="460.09,153.67 459.93,142.01 457.85,130.55 453.91,119.59 448.19,109.46 440.86,100.44 432.11,92.79 422.2,86.72 411.4,82.41 400.03,79.97 388.39,79.47 376.83,80.89 365.65,84.19 355.16,89.27 345.64,95.96 337.34,104.07 330.46,113.37" fill="none" stroke="#1a1a1a" stroke-width="1.5" stroke-linecap="round" stroke-linejoin="round" />
  <polyline points="330.46,113.37 325.36,123.12 321.82,133.48 319.91,144.2 319.64,155.03 321.01,165.71 323.99,176.01 328.48,185.68 334.39,194.52 341.58,202.33 349.87,208.93 359.09,214.18 369.02,217.95 379.46,220.16 390.15,220.75 400.86,219.69 411.34,217.01" fill="none" stroke="#1a1a1a" stroke-width="1.35" stroke-opacity="0.32" stroke-dasharray="4,3" stroke-linecap="round" stroke-linejoin="round" />
  <polyline points="411.34,217.01 420.94,212.94 429.9,207.49 438.01,200.77 445.09,192.91 450.97,184.07 455.5,174.44 458.56,164.23 460.09,153.67" fill="none" stroke="#1a1a1a" stroke-width="1.5" stroke-linecap="round" stroke-linejoin="round" />
  <g opacity="0.28">
    <polyline points="460.09,153.67 459.93,142.01 457.85,130.55 453.91,119.59 448.19,109.46 440.86,100.44 432.11,92.79 422.2,86.72 411.4,82.41 400.03,79.97 388.39,79.47 376.83,80.89 365.65,84.19 355.16,89.27 345.64,95.96 337.34,104.07 330.46,113.37" fill="none" stroke="#1a1a1a" stroke-width="12" stroke-linecap="round" stroke-linejoin="round" />
    <polyline points="330.46,113.37 325.36,123.12 321.82,133.48 319.91,144.2 319.64,155.03 321.01,165.71 323.99,176.01 328.48,185.68 334.39,194.52 341.58,202.33 349.87,208.93 359.09,214.18 369.02,217.95 379.46,220.16 390.15,220.75 400.86,219.69 411.34,217.01" fill="none" stroke="#1a1a1a" stroke-width="10.8" stroke-linecap="round" stroke-linejoin="round" />
    <polyline points="411.34,217.01 420.94,212.94 429.9,207.49 438.01,200.77 445.09,192.91 450.97,184.07 455.5,174.44 458.56,164.23 460.09,153.67" fill="none" stroke="#1a1a1a" stroke-width="12" stroke-linecap="round" stroke-linejoin="round" />
  </g>
  <polyline points="460.09,153.67 459.93,142.01 457.85,130.55 453.91,119.59 448.19,109.46 440.86,100.44 432.11,92.79 422.2,86.72 411.4,82.41 400.03,79.97 388.39,79.47 376.83,80.89 365.65,84.19 355.16,89.27 345.64,95.96 337.34,104.07 330.46,113.37" fill="none" stroke="#1a1a1a" stroke-width="1.8" stroke-linecap="round" stroke-linejoin="round" />
  <polyline points="330.46,113.37 325.36,123.12 321.82,133.48 319.91,144.2 319.64,155.03 321.01,165.71 323.99,176.01 328.48,185.68 334.39,194.52 341.58,202.33 349.87,208.93 359.09,214.18 369.02,217.95 379.46,220.16 390.15,220.75 400.86,219.69 411.34,217.01" fill="none" stroke="#1a1a1a" stroke-width="1.62" stroke-opacity="0.55" stroke-dasharray="4,3" stroke-linecap="round" stroke-linejoin="round" />
  <polyline points="411.34,217.01 420.94,212.94 429.9,207.49 438.01,200.77 445.09,192.91 450.97,184.07 455.5,174.44 458.56,164.23 460.09,153.67" fill="none" stroke="#1a1a1a" stroke-width="1.8" stroke-linecap="round" stroke-linejoin="round" />

<g transform="translate(0,498)">  <rect width="640" height="480" fill="#faf9f5" />
  <path d="M 403.55,340.09 L 403.95,334.09 L 404.42,328.07 L 404.91,322.07 L 405.36,316.13 L 405.97,310.23 L 406.6,304.33 L 407.08,298.43 L 407.37,292.51 L 407.65,286.48 L 407.95,280.39 L 408.25,274.32 L 408.52,268.25 L 408.78,262.14 L 409.06,255.99 L 409.37,249.85 L 409.69,243.62 L 410.07,237.39 L 410.51,231.28 L 410.9,225.34 L 411.24,219.43 L 411.55,213.55 L 411.9,207.68 L 412.29,201.97 L 412.71,196.45 L 413.15,190.87 L 413.67,185 L 414.22,178.9 L 414.81,172.74 L 415.42,166.66 L 415.99,160.74 L 416.43,154.8 L 416.77,148.83 L 417.1,142.86 L 417.45,136.94 L 416.93,136.91 L 416.53,142.83 L 416.09,148.79 L 415.61,154.74 L 415.04,160.66 L 414.41,166.56 L 413.77,172.63 L 413.18,178.8 L 412.61,184.91 L 412.07,190.78 L 411.6,196.36 L 411.17,201.89 L 410.76,207.6 L 410.4,213.48 L 410.08,219.37 L 409.78,225.27 L 409.45,231.21 L 409.05,237.32 L 408.63,243.56 L 408.26,249.79 L 407.97,255.94 L 407.77,262.1 L 407.58,268.22 L 407.29,274.27 L 406.9,280.33 L 406.53,286.42 L 406.27,292.46 L 406.02,298.36 L 405.54,304.23 L 404.92,310.13 L 404.38,316.06 L 404.08,322.02 L 403.74,328.02 L 403.39,334.05 L 403.03,340.06 Z" fill="#1a1a1a" stroke="#1a1a1a" stroke-width="0.4" stroke-linejoin="round" />
  <path d="M 237.44,340.25 L 237.06,334.26 L 236.85,328.34 L 236.69,322.43 L 236.41,316.47 L 236.06,310.51 L 235.67,304.57 L 235.3,298.6 L 234.89,292.53 L 234.35,286.26 L 233.74,279.96 L 233.15,273.81 L 232.46,267.81 L 231.69,261.82 L 230.96,255.82 L 230.38,249.77 L 229.84,243.74 L 229.39,237.74 L 229.02,231.79 L 228.82,225.84 L 228.82,219.91 L 228.78,213.96 L 228.49,207.96 L 228,201.94 L 227.43,195.96 L 226.9,190.02 L 226.56,184.08 L 226.27,178.21 L 226.02,172.36 L 225.77,166.49 L 225.58,160.56 L 225.42,154.66 L 225.14,148.77 L 224.59,142.83 L 223.77,136.66 L 223.25,136.73 L 224.02,142.89 L 224.45,148.81 L 224.59,154.68 L 224.63,160.58 L 224.75,166.52 L 224.98,172.41 L 225.23,178.25 L 225.5,184.14 L 225.82,190.1 L 226.33,196.06 L 226.88,202.04 L 227.36,208.03 L 227.62,213.99 L 227.65,219.92 L 227.69,225.87 L 227.97,231.85 L 228.37,237.81 L 228.79,243.82 L 229.27,249.87 L 229.87,255.94 L 230.68,261.95 L 231.52,267.92 L 232.2,273.91 L 232.7,280.05 L 233.24,286.36 L 233.79,292.62 L 234.24,298.67 L 234.61,304.64 L 235,310.58 L 235.43,316.53 L 235.86,322.47 L 236.17,328.36 L 236.49,334.29 L 236.93,340.28 Z" fill="#1a1a1a" stroke="#1a1a1a" stroke-width="0.4" stroke-linejoin="round" />
  <path d="M 391.9,359.41 L 394.39,357.16 L 396.72,354.76 L 400.15,349.84 L 402.52,344.96 L 403.55,340.15 L 403.04,340 L 401.45,344.54 L 399.17,349.26 L 395.83,354.06 L 393.62,356.43 L 391.52,359.06 Z" fill="#1a1a1a" stroke="#1a1a1a" stroke-width="0.4" stroke-linejoin="round" />
  <polyline points="403.29,340.07 403.24,335.35 401.92,330.34 399.98,325.42 396.94,320.74 392.6,316.27 387.78,312.07 385.11,310.15 382.49,308.21 379.64,306.47 376.82,304.77 372.49,302.89 368.06,300.97 363.6,298.91 358.78,297.36 354.16,295.91 349.64,294.51 344.82,293.59 340.01,292.63 335.44,291.79 330.72,291.61 325.79,291.42 320.48,291.2 314.97,291.65 309.53,292.21 304.26,292.69 299.26,293.59 294.22,294.27 288.98,294.87 283.93,296.03 278.94,297.2 274.1,298.38 269.89,300.11 265.77,301.93 261.57,303.85 258.66,305.57 255.79,307.34 253.24,309.34 250.76,311.38 246.64,315.66 243.23,320.14 240.38,325.02 238.35,330.02 237.28,334.93 237.19,340.27" fill="none" stroke="#1a1a1a" stroke-width="0.9" stroke-opacity="0.2" stroke-dasharray="4,3" stroke-linecap="round" stroke-linejoin="round" />
  <path d="M 236.93,340.31 L 237.63,344.04 L 238.29,347.65 L 239.91,351.15 L 241.46,354.51 L 243.99,357.67 L 246.57,360.8 L 250.24,363.91 L 254.2,367.14 L 259.18,370 L 264.02,372.72 L 269.37,374.89 L 274.54,376.95 L 278.43,377.99 L 282.3,379.01 L 286.22,380.02 L 290.5,380.68 L 294.74,381.4 L 299,382.19 L 303.47,382.67 L 307.93,383.22 L 312.45,383.77 L 317.1,383.81 L 321.85,383.79 L 326.78,383.76 L 331.71,383.34 L 336.6,382.95 L 341.4,382.54 L 345.84,381.72 L 350.17,380.9 L 354.53,380.06 L 358.58,378.82 L 362.62,377.55 L 366.65,376.24 L 371.64,373.77 L 376.39,371.32 L 380.31,368.49 L 384.5,365.65 L 388.09,362.51 L 391.87,359.44 L 391.54,359.03 L 387.75,362.09 L 384.13,365.16 L 379.89,367.89 L 375.95,370.57 L 371.2,372.88 L 366.24,375.24 L 362.29,376.49 L 358.25,377.75 L 354.26,378.97 L 349.96,379.78 L 345.63,380.59 L 341.25,381.39 L 336.5,381.8 L 331.61,382.24 L 326.72,382.71 L 321.85,382.77 L 317.11,382.76 L 312.53,382.68 L 308.07,382.11 L 303.59,381.58 L 299.14,381.16 L 294.9,380.43 L 290.65,379.75 L 286.42,379.09 L 282.56,378.05 L 278.71,376.97 L 274.91,375.9 L 269.78,373.86 L 264.48,371.75 L 259.7,369.09 L 254.81,366.25 L 250.94,363.06 L 247.29,360.06 L 244.69,357.07 L 242.13,354.08 L 240.54,350.85 L 238.86,347.46 L 238.16,343.94 L 237.44,340.22 Z" fill="#1a1a1a" stroke="#1a1a1a" stroke-width="0.4" stroke-linejoin="round" />
  <path d="M 405.68,147.96 L 409.6,145.49 L 413.44,142.98 L 415.78,140.42 L 417.24,138.12 L 417.38,135.92 L 416.26,133.59 L 414.31,131.26 L 411.63,129.07 L 408.02,126.94 L 404.57,124.57 L 399.82,122.37 L 395.06,120.39 L 391.06,119.43 L 387.06,118.52 L 383,117.58 L 378.35,116.81 L 373.73,115.97 L 369.14,115.09 L 364.16,114.43 L 359.32,113.86 L 354.55,113.37 L 349.48,113.15 L 344.28,112.98 L 338.86,112.83 L 333.16,112.91 L 327.44,113 L 321.8,113.05 L 316.16,113.2 L 310.65,113.21 L 305.28,113.08 L 300.06,113.14 L 294.85,113.26 L 289.44,113.42 L 284.1,113.88 L 278.87,114.38 L 273.88,114.88 L 269.4,115.6 L 264.92,116.28 L 260.3,116.97 L 256.13,117.89 L 252,118.84 L 247.84,119.82 L 242.68,121.63 L 237.57,123.38 L 233.77,125.3 L 229.78,127.19 L 227.11,129.32 L 224.63,131.64 L 223.46,134.23 L 222.98,136.75 L 223.25,139.23 L 224.54,141.52 L 227.07,143.77 L 231.01,146.22 L 236.58,148.55 L 241.74,150.61 L 246.35,151.82 L 250.98,153.08 L 255.81,154.29 L 260.33,155.02 L 264.83,155.76 L 269.33,156.52 L 273.84,157.33 L 278.96,157.94 L 284.07,158.56 L 289.21,159.16 L 294.36,159.74 L 299.83,159.99 L 305.25,160.24 L 310.66,160.54 L 316.12,160.9 L 321.62,161 L 327.1,161.06 L 332.58,160.97 L 338.12,160.8 L 343.43,160.3 L 348.79,159.85 L 354.18,159.48 L 359.57,159.18 L 364.34,158.62 L 369.04,158.06 L 373.67,157.44 L 378.33,156.76 L 383.55,155.44 L 388.78,154.12 L 393.99,152.82 L 397.85,151.22 L 401.73,149.6 L 405.64,147.99 L 405.44,147.5 L 401.53,149.1 L 397.64,150.71 L 393.81,152.27 L 388.64,153.52 L 383.39,154.83 L 378.2,156.14 L 373.58,156.8 L 368.95,157.36 L 364.26,157.83 L 359.5,158.32 L 354.13,158.58 L 348.72,158.94 L 343.35,159.37 L 338.06,159.84 L 332.56,159.97 L 327.1,160.04 L 321.64,159.99 L 316.16,159.92 L 310.72,159.58 L 305.29,159.3 L 299.87,159.07 L 294.43,158.83 L 289.32,158.24 L 284.19,157.6 L 279.08,156.95 L 273.99,156.32 L 269.51,155.49 L 265,154.7 L 260.5,153.96 L 256.03,153.25 L 251.23,152.08 L 246.6,150.86 L 242.06,149.67 L 236.97,147.61 L 231.48,145.29 L 227.69,142.92 L 225.34,140.84 L 224.26,138.9 L 224.04,136.8 L 224.47,134.56 L 225.5,132.29 L 227.82,130.16 L 230.36,128.14 L 234.27,126.31 L 238,124.42 L 243.06,122.7 L 248.17,120.92 L 252.26,119.96 L 256.38,119.01 L 260.51,118.07 L 265.08,117.34 L 269.56,116.63 L 274.01,115.91 L 278.97,115.42 L 284.19,114.95 L 289.5,114.5 L 294.88,114.36 L 300.07,114.26 L 305.27,114.21 L 310.64,114.35 L 316.18,114.36 L 321.82,114.21 L 327.46,114.1 L 333.18,113.95 L 338.85,113.85 L 344.24,114.05 L 349.44,114.26 L 354.47,114.47 L 359.21,114.91 L 364.04,115.4 L 368.99,116.01 L 373.56,116.89 L 378.18,117.78 L 382.81,118.58 L 386.84,119.5 L 390.85,120.36 L 394.79,121.23 L 399.5,123.11 L 404.2,125.23 L 407.63,127.56 L 411.24,129.65 L 413.84,131.74 L 415.73,133.94 L 416.78,136.05 L 416.68,137.92 L 415.33,140.06 L 413.09,142.56 L 409.31,145.05 L 405.4,147.53 Z" fill="#1a1a1a" stroke="#1a1a1a" stroke-width="0.4" stroke-linejoin="round" />
  <path d="M 460.75,153.89 L 460.6,148.08 L 460.39,142.29 L 459.26,136.61 L 458.21,130.89 L 456.34,125.32 L 454.52,119.77 L 451.74,114.68 L 448.81,109.62 L 444.98,105.06 L 441.11,100.49 L 436.49,96.65 L 431.94,92.92 L 426.82,90.09 L 421.78,87.22 L 416.39,85.04 L 411.07,82.77 L 405.49,81.38 L 399.93,79.96 L 394.23,79.42 L 388.51,78.96 L 382.87,79.63 L 377.29,80.55 L 371.91,82.49 L 366.3,84.45 L 360.72,87.13 L 355.05,89.63 L 349.95,92.8 L 345.01,95.86 L 340.72,99.67 L 336.41,103.57 L 332.79,108.28 L 329.3,113.19 L 329.95,113.65 L 333.46,108.79 L 337.13,104.25 L 341.49,100.55 L 345.79,96.91 L 350.66,93.94 L 355.67,90.82 L 361.3,88.39 L 366.85,85.78 L 372.39,83.85 L 377.65,81.91 L 383.06,80.98 L 388.55,80.27 L 394.13,80.66 L 399.73,81.15 L 405.2,82.52 L 410.7,83.88 L 415.91,86.16 L 421.2,88.4 L 426.1,91.35 L 431.08,94.18 L 435.55,97.8 L 440.13,101.49 L 443.97,105.92 L 447.73,110.37 L 450.59,115.32 L 453.34,120.28 L 455.17,125.72 L 457.1,131.18 L 458.22,136.81 L 459.43,142.41 L 459.73,148.11 L 459.97,153.92 Z" fill="#1a1a1a" stroke="#1a1a1a" stroke-width="0.4" stroke-linejoin="round" />
  <polyline points="329.62,113.42 327.11,118.58 324.63,123.52 322.93,128.54 321.26,133.47 320.42,138.54 319.56,143.62 319.45,148.86 319.38,154.2 320.21,159.6 321.03,165.02 322.51,170.25 323.69,175.48 325.62,180.37 327.68,185.22 330.82,189.6 334.13,193.99 337.96,197.9 341.47,201.87 345.4,205.22 349.43,208.55 354.05,211.12 358.64,213.74 363.57,215.61 368.6,217.41 374.08,218.29 379.64,219.14 385.24,219.38 390.69,219.81 396,219.54 401.34,219.3 406.62,218.32 412.01,217.42" fill="none" stroke="#1a1a1a" stroke-width="1.35" stroke-opacity="0.32" stroke-dasharray="4,3" stroke-linecap="round" stroke-linejoin="round" />
  <path d="M 412.14,217.79 L 417.15,216.24 L 422.08,214.51 L 426.51,211.76 L 430.94,208.83 L 435.08,205.23 L 439.27,201.64 L 442.93,197.56 L 446.61,193.55 L 449.6,189.06 L 452.44,184.6 L 454.47,179.76 L 456.5,174.92 L 457.96,169.72 L 459.4,164.53 L 460,159.2 L 460.67,153.95 L 460.05,153.86 L 459.15,159.07 L 458.13,164.24 L 456.49,169.3 L 455.09,174.44 L 453.17,179.23 L 451.25,183.99 L 448.5,188.34 L 445.57,192.74 L 441.96,196.68 L 438.38,200.74 L 434.25,204.27 L 430.15,207.78 L 425.74,210.53 L 421.45,213.26 L 416.79,215.26 L 411.89,217.05 Z" fill="#1a1a1a" stroke="#1a1a1a" stroke-width="0.4" stroke-linejoin="round" />
  <g opacity="0.28">
    <polyline points="460.36,153.9 460.17,148.1 459.91,142.35 458.74,136.71 457.66,131.04 455.75,125.52 453.93,120.02 451.16,115 448.27,110 444.48,105.49 440.62,100.99 436.02,97.23 431.51,93.55 426.46,90.72 421.49,87.81 416.15,85.6 410.88,83.32 405.35,81.95 399.83,80.55 394.18,80.04 388.53,79.62 382.97,80.31 377.47,81.23 372.15,83.17 366.58,85.11 361.01,87.76 355.36,90.23 350.31,93.37 345.4,96.38 341.11,100.11 336.77,103.91 333.13,108.54 329.62,113.42" fill="none" stroke="#1a1a1a" stroke-width="12" stroke-linecap="round" stroke-linejoin="round" />
    <polyline points="329.62,113.42 327.11,118.58 324.63,123.52 322.93,128.54 321.26,133.47 320.42,138.54 319.56,143.62 319.45,148.86 319.38,154.2 320.21,159.6 321.03,165.02 322.51,170.25 323.69,175.48 325.62,180.37 327.68,185.22 330.82,189.6 334.13,193.99 337.96,197.9 341.47,201.87 345.4,205.22 349.43,208.55 354.05,211.12 358.64,213.74 363.57,215.61 368.6,217.41 374.08,218.29 379.64,219.14 385.24,219.38 390.69,219.81 396,219.54 401.34,219.3 406.62,218.32 412.01,217.42" fill="none" stroke="#1a1a1a" stroke-width="10.8" stroke-linecap="round" stroke-linejoin="round" />
    <polyline points="412.01,217.42 416.97,215.75 421.77,213.89 426.13,211.15 430.54,208.3 434.67,204.75 438.83,201.19 442.45,197.12 446.09,193.15 449.05,188.7 451.85,184.3 453.82,179.5 455.79,174.68 457.23,169.51 458.77,164.39 459.58,159.14 460.36,153.9" fill="none" stroke="#1a1a1a" stroke-width="12" stroke-linecap="round" stroke-linejoin="round" />
  </g>
  <path d="M 460.83,153.89 L 460.68,148.08 L 460.49,142.28 L 459.36,136.59 L 458.32,130.86 L 456.45,125.29 L 454.63,119.72 L 451.85,114.61 L 448.91,109.54 L 445.08,104.97 L 441.2,100.39 L 436.59,96.53 L 432.03,92.79 L 426.89,89.96 L 421.84,87.1 L 416.43,84.93 L 411.11,82.65 L 405.52,81.27 L 399.95,79.84 L 394.24,79.3 L 388.51,78.83 L 382.85,79.5 L 377.26,80.41 L 371.86,82.36 L 366.25,84.31 L 360.67,87 L 354.98,89.51 L 349.88,92.68 L 344.94,95.75 L 340.64,99.58 L 336.34,103.5 L 332.72,108.23 L 329.23,113.14 L 330.02,113.7 L 333.53,108.84 L 337.2,104.32 L 341.57,100.64 L 345.86,97.02 L 350.73,94.06 L 355.73,90.94 L 361.36,88.52 L 366.91,85.91 L 372.44,83.98 L 377.69,82.04 L 383.08,81.12 L 388.55,80.4 L 394.12,80.79 L 399.71,81.26 L 405.17,82.64 L 410.66,83.99 L 415.87,86.27 L 421.14,88.52 L 426.03,91.47 L 431,94.3 L 435.45,97.92 L 440.03,101.59 L 443.87,106.01 L 447.62,110.45 L 450.48,115.39 L 453.22,120.33 L 455.06,125.76 L 456.99,131.21 L 458.11,136.83 L 459.33,142.42 L 459.65,148.12 L 459.89,153.92 Z" fill="#1a1a1a" stroke="#1a1a1a" stroke-width="0.4" stroke-linejoin="round" />
  <polyline points="329.62,113.42 327.11,118.58 324.63,123.52 322.93,128.54 321.26,133.47 320.42,138.54 319.56,143.62 319.45,148.86 319.38,154.2 320.21,159.6 321.03,165.02 322.51,170.25 323.69,175.48 325.62,180.37 327.68,185.22 330.82,189.6 334.13,193.99 337.96,197.9 341.47,201.87 345.4,205.22 349.43,208.55 354.05,211.12 358.64,213.74 363.57,215.61 368.6,217.41 374.08,218.29 379.64,219.14 385.24,219.38 390.69,219.81 396,219.54 401.34,219.3 406.62,218.32 412.01,217.42" fill="none" stroke="#1a1a1a" stroke-width="1.62" stroke-opacity="0.55" stroke-dasharray="4,3" stroke-linecap="round" stroke-linejoin="round" />
  <path d="M 412.16,217.87 L 417.18,216.34 L 422.14,214.64 L 426.59,211.88 L 431.01,208.94 L 435.16,205.32 L 439.36,201.73 L 443.03,197.64 L 446.71,193.63 L 449.71,189.13 L 452.56,184.67 L 454.6,179.82 L 456.64,174.96 L 458.11,169.76 L 459.53,164.56 L 460.09,159.22 L 460.73,153.96 L 459.99,153.85 L 459.06,159.06 L 458,164.21 L 456.35,169.26 L 454.95,174.39 L 453.04,179.18 L 451.14,183.93 L 448.39,188.27 L 445.47,192.66 L 441.87,196.6 L 438.29,200.65 L 434.17,204.17 L 430.07,207.67 L 425.66,210.41 L 421.39,213.14 L 416.76,215.16 L 411.86,216.98 Z" fill="#1a1a1a" stroke="#1a1a1a" stroke-width="0.4" stroke-linejoin="round" />
</g>
<line x1="10" y1="489" x2="630" y2="489" stroke="#ddd" stroke-width="1" />
<text x="14" y="26" font-family="sans-serif" font-size="14" fill="#999">wobble: off</text>
<text x="14" y="524" font-family="sans-serif" font-size="14" fill="#999">wobble: on</text>
</svg>