<svg xmlns="http://www.w3.org/2000/svg" viewBox="0 0 620 460" width="620" height="460">
  <rect width="620" height="460" fill="#faf9f5" />
  <polyline points="424.4,230 423.85,218.79 422.2,207.68 419.47,196.79 415.69,186.22 410.89,176.07 405.12,166.44 398.43,157.43 390.89,149.11 382.57,141.57 373.56,134.88 363.93,129.11 353.78,124.31 343.21,120.53 332.32,117.8 321.21,116.15 310,115.6 298.79,116.15 287.68,117.8 276.79,120.53 266.22,124.31 256.07,129.11 246.44,134.88 237.43,141.57 229.11,149.11 221.57,157.43 214.88,166.44 209.11,176.07 204.31,186.22 200.53,196.79 197.8,207.68 196.15,218.79 195.6,230 196.15,241.21 197.8,252.32 200.53,263.21 204.31,273.78 209.11,283.93 214.88,293.56 221.57,302.57 229.11,310.89 237.43,318.43 246.44,325.12 256.07,330.89 266.22,335.69 276.79,339.47 287.68,342.2 298.79,343.85 310,344.4 321.21,343.85 332.32,342.2 343.21,339.47 353.78,335.69 363.93,330.89 373.56,325.12 382.57,318.43 390.89,310.89 398.43,302.57 405.12,293.56 410.89,283.93 415.69,273.78 419.47,263.21 422.2,252.32 423.85,241.21 424.4,230" fill="none" stroke="#1a1a1a" stroke-width="1.023" stroke-linecap="round" stroke-linejoin="round" />
  <polyline points="140.42,200.64 146.78,194.27" fill="none" stroke="#1a1a1a" stroke-width="1.869" stroke-linecap="round" stroke-linejoin="round" />
  <polyline points="140.42,194.27 146.78,200.64" fill="none" stroke="#1a1a1a" stroke-width="1.869" stroke-linecap="round" stroke-linejoin="round" />
  <polyline points="413,130.62 419.36,124.26" fill="none" stroke="#1a1a1a" stroke-width="1.383" stroke-linecap="round" stroke-linejoin="round" />
  <polyline points="413,124.26 419.36,130.62" fill="none" stroke="#1a1a1a" stroke-width="1.383" stroke-linecap="round" stroke-linejoin="round" />
  <polyline points="477.76,351.42 484.13,345.06" fill="none" stroke="#1a1a1a" stroke-width="1.666" stroke-linecap="round" stroke-linejoin="round" />
  <polyline points="477.76,345.06 484.13,351.42" fill="none" stroke="#1a1a1a" stroke-width="1.666" stroke-linecap="round" stroke-linejoin="round" />
  <polyline points="293.4,397.73 299.77,391.36" fill="none" stroke="#1a1a1a" stroke-width="1.378" stroke-linecap="round" stroke-linejoin="round" />
  <polyline points="293.4,391.36 299.77,397.73" fill="none" stroke="#1a1a1a" stroke-width="1.378" stroke-linecap="round" stroke-linejoin="round" />
  <polyline points="315,42.49 314.62,40.57 313.54,38.95 311.91,37.87 310,37.49 308.09,37.87 306.46,38.95 305.38,40.57 305,42.49 305.38,44.4 306.46,46.02 308.09,47.11 310,47.49 311.91,47.11 313.54,46.02 314.62,44.4 315,42.49" fill="none" stroke="#1a1a1a" stroke-width="1.633" stroke-linecap="round" stroke-linejoin="round" />
</svg>