<svg xmlns="http://www.w3.org/2000/svg" viewBox="0 0 640 480" width="640" height="480">
  <rect width="640" height="480" fill="#faf9f5" />
  <polyline points="313.43,133.26 306.91,136.69" fill="none" stroke="#1a1a1a" stroke-width="1" stroke-linecap="round" stroke-linejoin="round" />
  <polyline points="306.91,136.69 293.24,145.26 279.99,155.71 267.19,168.45 261.05,175.83 255.19,183.98 249.71,192.95 244.79,202.78 240.62,213.47 237.46,224.97 235.6,237.14 235.33,249.75 236.89,262.46 240.45,274.87 246.03,286.52 253.48,297 262.5,305.98 272.7,313.29 283.63,318.88 294.9,322.83 306.18,325.31 317.22,326.51 327.86,326.64 338.01,325.88 347.63,324.41 356.72,322.35 373.41,316.84 388.38,309.9" fill="none" stroke="#1a1a1a" stroke-width="0.9" stroke-opacity="0.2" stroke-dasharray="4,3" stroke-linecap="round" stroke-linejoin="round" />
  <polyline points="388.38,309.9 403.82,300.48 417.85,289.48 430.7,276.68 436.69,269.48 442.34,261.66 447.6,253.16 452.35,243.92 456.45,233.91 459.69,223.13 461.83,211.65 462.59,199.63 461.72,187.32 458.99,175.08 454.32,163.36 447.78,152.59 439.62,143.14 430.19,135.25 419.91,129.01 409.17,124.37 398.31,121.2 387.56,119.33 377.08,118.55 366.94,118.71 357.18,119.66 347.8,121.28 338.78,123.49 330.07,126.25 313.43,133.26" fill="none" stroke="#1a1a1a" stroke-width="1" stroke-linecap="round" stroke-linejoin="round" />
  <polyline points="398.42,253.56 397.23,241.21 394.85,229.04 391.31,217.17 386.65,205.69 380.89,194.71 374.1,184.34 366.34,174.66 357.67,165.77 348.17,157.75 337.92,150.68 327.03,144.62 315.58,139.63 303.68,135.76 291.44,133.06 278.97,131.55 266.38,131.26 253.8,132.2 241.35,134.35 229.13,137.72 217.29,142.27 205.92,147.97 195.14,154.76 185.07,162.59 175.8,171.39 167.43,181.08 160.04,191.55 153.73,202.72 148.55,214.48 144.56,226.7 141.81,239.27 140.33,252.06 140.13,264.94 141.22,277.78 143.6,290.44 147.24,302.81 152.1,314.75 158.14,326.14 165.28,336.87 173.47,346.82 182.6,355.9 192.59,364.02 203.34,371.09 214.73,377.05 226.64,381.85 238.96,385.43 251.56,387.78 264.31,388.87 277.08,388.69 289.76,387.27 302.22,384.61 314.33,380.75 325.98,375.74 337.07,369.63 347.49,362.48 357.15,354.37 365.95,345.38 373.83,335.6 380.71,325.13 386.53,314.06 391.25,302.5 394.82,290.55 397.21,278.34 398.42,265.97 398.42,253.56" fill="none" stroke="#1a1a1a" stroke-width="1" stroke-linecap="round" stroke-linejoin="round" />
  <polyline points="382.07,203.63 379.03,199.25 375.98,194.89 372.93,190.54 369.89,186.19 366.85,181.83 364.96,179.12 362.89,177.27 358.72,173.87 354.56,170.48 350.41,167.09 346.28,163.74 341.14,161.42 335.9,159.31 330.69,157.19 325.56,155.09 323.01,154.05 321.61,153.63 319.42,153.85 313.67,154.43 307.89,155.02 302.09,155.6 296.5,156.16 290.92,156.71 285.35,157.26 283.3,157.47 281.48,159.14 277.92,162.94 274.42,166.67 270.92,170.4 267.55,174 264.22,177.61 260.93,181.22 257.67,184.85 254.88,188.2 252.08,191.54 250.76,196.19 249.57,200.6 248.38,205.01 247.17,209.43 245.96,213.84 245.52,218.41 245.1,222.97 244.69,227.54 244.93,233.36 245.16,239.19 245.88,244.54 246.59,249.91 247.75,255.01 248.91,260.12 250.53,265.11 252.16,270.11 254.38,275.18 256.6,280.25 259.31,285.47 261.29,288.45 263.27,291.42 265.72,294.69 268.17,297.96 270.63,301.23 272.05,302.9 274.61,304.77 278.78,307.82 282.93,310.87 287.08,313.94 291.25,317.04 295.44,320.16 299.95,321.64 304.45,323.13 308.95,324.64 313.88,325.44 318.81,326.27 322.91,326.37 327.02,326.48 330.69,326.13 334.37,325.77 337.75,325.04 341.14,324.29 344.32,323.22 347.51,322.13 350.53,320.74 353.56,319.33 356.46,317.62 359.37,315.9 362.15,313.78 364.93,311.67 367.61,309.16 370.3,306.65 372.9,303.64 375.51,300.64 378.02,296.97 380.54,293.31 383.02,289.26 385.32,284.02 387.6,278.56 388.71,275.56 389.58,271.04 390.45,266.48 391.32,261.91 392.2,257.3 392.42,254.52 391.27,248.93 390.1,243.25 388.93,237.57 387.77,231.9 386.62,226.24 385.47,220.59 384.34,214.94 383.21,209.28 382.07,203.63" fill="none" stroke="#1a1a1a" stroke-width="2.34" stroke-opacity="0.32" stroke-dasharray="4,3" stroke-linecap="round" stroke-linejoin="round" />
</svg>