<svg xmlns="http://www.w3.org/2000/svg" viewBox="0 0 640 978" width="640" height="978">
  <rect width="640" height="480" fill="#faf9f5" />
  <polyline points="313.43,133.26 306.91,136.69" fill="none" stroke="#1a1a1a" stroke-width="1" stroke-linecap="round" stroke-linejoin="round" />
  <polyline points="306.91,136.69 293.24,145.26 279.99,155.71 267.19,168.45 261.05,175.83 255.19,183.98 249.71,192.95 244.79,202.78 240.62,213.47 237.46,224.97 235.6,237.14 235.33,249.75 236.89,262.46 240.45,274.87 246.03,286.52 253.48,297 262.5,305.98 272.7,313.29 283.63,318.88 294.9,322.83 306.18,325.31 317.22,326.51 327.86,326.64 338.01,325.88 347.63,324.41 356.72,322.35 373.41,316.84 388.38,309.9" fill="none" stroke="#1a1a1a" stroke-width="0.9" stroke-opacity="0.2" stroke-dasharray="4,3" stroke-linecap="round" stroke-linejoin="round" />
  <polyline points="388.38,309.9 403.82,300.48 417.85,289.48 430.7,276.68 436.69,269.48 442.34,261.66 447.6,253.16 452.35,243.92 456.45,233.91 459.69,223.13 461.83,211.65 462.59,199.63 461.72,187.32 458.99,175.08 454.32,163.36 447.78,152.59 439.62,143.14 430.19,135.25 419.91,129.01 409.17,124.37 398.31,121.2 387.56,119.33 377.08,118.55 366.94,118.71 357.18,119.66 347.8,121.28 338.78,123.49 330.07,126.25 313.43,133.26" fill="none" stroke="#1a1a1a" stroke-width="1" stroke-linecap="round" stroke-linejoin="round" />
  <polyline points="398.42,253.56 397.23,241.21 394.85,229.04 391.31,217.17 386.65,205.69 380.89,194.71 374.1,184.34 366.34,174.66 357.67,165.77 348.17,157.75 337.92,150.68 327.03,144.62 315.58,139.63 303.68,135.76 291.44,133.06 278.97,131.55 266.38,131.26 253.8,132.2 241.35,134.35 229.13,137.72 217.29,142.27 205.92,147.97 195.14,154.76 185.07,162.59 175.8,171.39 167.43,181.08 160.04,191.55 153.73,202.72 148.55,214.48 144.56,226.7 141.81,239.27 140.33,252.06 140.13,264.94 141.22,277.78 143.6,290.44 147.24,302.81 152.1,314.75 158.14,326.14 165.28,336.87 173.47,346.82 182.6,355.9 192.59,364.02 203.34,371.09 214.73,377.05 226.64,381.85 238.96,385.43 251.56,387.78 264.31,388.87 277.08,388.69 289.76,387.27 302.22,384.61 314.33,380.75 325.98,375.74 337.07,369.63 347.49,362.48 357.15,354.37 365.95,345.38 373.83,335.6 380.71,325.13 386.53,314.06 391.25,302.5 394.82,290.55 397.21,278.34 398.42,265.97 398.42,253.56" fill="none" stroke="#1a1a1a" stroke-width="1" stroke-linecap="round" stroke-linejoin="round" />
  <polyline points="381.89,203.83 377.11,195.24 371.58,187.15 365.34,179.69 359.54,173.89 353.5,168.79 347.17,164.31 339.95,160.14 332.32,156.73 324.6,154.22 317.56,152.76 310.97,152.08 304.52,152.1 298.25,152.78 292.2,154.11 286.43,156.06 280.49,158.84 274.28,162.77 268.61,167.43 263.53,172.77 259.04,178.7 255.16,185.16 251.94,191.95 247.6,205.18 246.15,212.19 244.97,222.18 244.69,231.56 245.13,240.09 247.53,255.5 251.88,270.12 254.94,277.45 258.86,285.14 265.97,295.99 275.31,306.44 282.7,312.7 290.74,317.9 299.69,322.15 309.65,325.15 316.9,326.34 323.37,326.69 329.06,326.46 338.04,325.03 347.42,322.07 356.16,317.81 364.37,312.1 372.02,304.95 379.55,295.18 383.04,289.22 386.57,281.5 389.17,273.94 390.79,267.37 392.53,253.35 392.56,245.08 391.86,236.71 390.43,228.31 388.29,219.98 385.42,211.79 381.89,203.83" fill="none" stroke="#1a1a1a" stroke-width="2.34" stroke-opacity="0.32" stroke-dasharray="4,3" stroke-linecap="round" stroke-linejoin="round" />

<g transform="translate(0,498)">  <rect width="640" height="480" fill="#faf9f5" />
  <polyline points="313.41,132.65 310.01,134.27 306.63,135.93" fill="none" stroke="#1a1a1a" stroke-width="1" stroke-linecap="round" stroke-linejoin="round" />
  <polyline points="306.63,135.93 301.92,138.75 297.2,141.63 292.45,144.55 287.82,148.06 283.18,151.53 278.63,154.99 275.45,158.19 272.36,161.43 269.33,164.73 266.33,168.08 263.44,171.98 260.45,175.88 257.5,180.14 254.51,184.33 251.69,188.89 248.9,193.4 246.4,198.31 243.92,203.22 241.82,208.58 239.69,213.97 238.03,219.81 236.41,225.66 235.78,229.78 235.18,233.9 234.6,238.01 234.56,242.24 234.51,246.44 234.47,250.61 235.04,254.8 235.63,258.96 236.24,263.1 237.56,267.15 238.89,271.22 240.22,275.33 242.21,279.23 244.18,283.14 246.13,287.05 248.68,290.58 251.2,294.08 253.7,297.56 256.67,300.53 259.61,303.49 262.53,306.45 265.82,308.86 269.12,311.28 272.43,313.69 276,315.5 279.62,317.29 283.26,319.06 288.89,320.9 294.47,322.75 300.01,323.87 305.52,325.01 310.99,325.54 316.54,326.05 321.96,325.99 327.38,325.88 332.51,325.33 337.6,324.86 342.42,324.12 347.24,323.44 351.78,322.48 356.3,321.49 361.8,319.62 367.28,317.72 372.74,315.81 377.61,313.43 382.47,311.08 387.32,308.74" fill="none" stroke="#1a1a1a" stroke-width="0.9" stroke-opacity="0.2" stroke-dasharray="4,3" stroke-linecap="round" stroke-linejoin="round" />
  <polyline points="387.32,308.74 391.08,306.45 394.93,304.23 398.83,302.05 402.73,299.87 407.43,296.31 412.14,292.62 416.9,288.92 420.23,285.66 423.62,282.41 427.03,279.21 430.41,276.03 433.53,272.46 436.59,268.91 439.5,265.07 442.41,261.26 445.12,257.15 447.81,253.07 450.21,248.65 452.57,244.24 454.64,239.41 456.73,234.55 458.38,229.26 460,223.87 461.02,218.03 462.03,212.13 462.23,207.98 462.43,203.82 462.64,199.66 462.31,195.44 461.96,191.26 461.59,187.1 460.62,183.04 459.65,179.02 458.68,175.02 457.09,171.23 455.52,167.47 453.97,163.77 451.81,160.4 449.66,157.01 447.48,153.59 444.73,150.53 441.93,147.42 439.08,144.25 435.81,141.54 432.55,138.82 429.32,136.12 425.85,133.97 422.44,131.85 419.03,129.73 413.68,127.32 408.29,124.83 402.79,123.02 397.26,121.19 391.78,120.07 386.31,119.05 381.05,118.67 375.97,118.34 371.2,118.43 366.46,118.49 361.88,118.98 357.22,119.54 352.69,120.47 348.13,121.36 343.74,122.45 339.3,123.48 334.96,124.74 330.57,126.01 326.34,127.68 322.06,129.37 317.75,131.02 313.41,132.65" fill="none" stroke="#1a1a1a" stroke-width="1" stroke-linecap="round" stroke-linejoin="round" />
  <polyline points="398.16,253.27 397.79,249.21 397.44,245.15 397.11,241.07 396.4,237.01 395.68,232.9 394.95,228.77 393.8,224.73 392.61,220.7 391.39,216.69 389.77,212.85 388.15,209.04 386.56,205.25 384.64,201.66 382.78,198.07 380.95,194.5 378.75,191.15 376.53,187.8 374.26,184.45 371.6,181.33 368.89,178.21 366.13,175.09 363.05,172.23 359.99,169.36 356.97,166.47 353.73,163.86 350.55,161.23 347.42,158.59 344.06,156.27 340.7,153.95 337.35,151.62 333.79,149.61 330.24,147.59 326.7,145.57 322.99,143.91 319.31,142.26 315.63,140.64 311.8,139.42 307.95,138.22 304.05,137.03 299.99,136.22 295.89,135.39 291.78,134.51 287.6,133.99 283.43,133.43 279.28,132.85 275.12,132.66 270.97,132.47 266.81,132.27 262.63,132.49 258.43,132.71 254.21,132.95 250.02,133.58 245.81,134.21 241.59,134.85 237.47,135.9 233.37,136.97 229.3,138.06 225.37,139.57 221.45,141.1 217.54,142.64 213.79,144.57 210.03,146.5 206.24,148.43 202.62,150.71 198.97,152.99 195.3,155.25 191.85,157.86 188.41,160.47 184.98,163.1 181.85,166.05 178.75,169.01 175.67,171.97 172.91,175.22 170.16,178.45 167.41,181.66 164.99,185.12 162.56,188.56 160.13,191.98 158.06,195.62 155.99,199.25 153.91,202.86 152.22,206.67 150.52,210.49 148.81,214.33 147.5,218.36 146.2,222.42 144.91,226.51 144.05,230.76 143.2,235.03 142.34,239.3 141.91,243.64 141.45,247.96 140.98,252.26 140.94,256.58 140.91,260.91 140.9,265.24 141.34,269.55 141.78,273.86 142.22,278.16 143.08,282.38 143.91,286.59 144.71,290.79 145.89,294.86 147.05,298.92 148.21,302.94 149.78,306.8 151.36,310.65 152.94,314.52 154.91,318.23 156.86,321.96 158.79,325.72 161.07,329.28 163.33,332.84 165.58,336.41 168.15,339.72 170.73,343.02 173.3,346.32 176.2,349.32 179.12,352.32 182.07,355.35 185.34,358.07 188.65,360.82 192,363.59 195.64,366.02 199.32,368.44 203.02,370.85 206.97,372.85 210.92,374.8 214.86,376.73 218.93,378.26 222.94,379.76 226.9,381.24 230.95,382.31 234.97,383.38 238.96,384.46 243.05,385.16 247.15,385.9 251.28,386.68 255.5,387.07 259.76,387.48 264.04,387.91 268.36,387.95 272.67,388.01 276.98,388.07 281.23,387.73 285.48,387.38 289.73,387.03 293.91,386.25 298.08,385.47 302.25,384.67 306.29,383.47 310.31,382.27 314.3,381.08 318.12,379.5 321.92,377.92 325.74,376.31 329.39,374.3 333.07,372.25 336.79,370.16 340.32,367.7 343.87,365.23 347.45,362.76 350.77,359.99 354.09,357.26 357.4,354.58 360.38,351.66 363.35,348.78 366.28,345.9 368.88,342.74 371.46,339.53 374.04,336.27 376.28,332.71 378.52,329.1 380.77,325.44 382.66,321.58 384.55,317.7 386.45,313.84 387.99,309.84 389.54,305.84 391.1,301.87 392.28,297.8 393.46,293.77 394.63,289.79 395.4,285.75 396.17,281.74 396.95,277.71 397.34,273.63 397.74,269.55 398.13,265.48 398.14,261.4 398.14,257.33 398.16,253.27" fill="none" stroke="#1a1a1a" stroke-width="1" stroke-linecap="round" stroke-linejoin="round" />
  <polyline points="381.44,204.16 379.05,199.84 376.68,195.54 373.95,191.49 371.24,187.42 368.17,183.64 365.11,179.85 362.24,176.89 359.37,173.95 356.39,171.37 353.41,168.79 350.29,166.5 347.16,164.19 343.6,162.02 340.03,159.83 336.26,158.05 332.49,156.31 328.67,155.08 324.85,153.91 321.34,153.3 317.83,152.7 314.53,152.49 311.21,152.25 307.93,152.33 304.64,152.36 301.42,152.72 298.17,153.07 295.02,153.74 291.87,154.39 288.84,155.34 285.81,156.27 282.68,157.59 279.58,158.91 276.39,160.81 273.28,162.72 270.49,165.01 267.73,167.32 265.24,170 262.72,172.68 260.47,175.67 258.23,178.68 256.33,181.96 254.48,185.25 253,188.7 251.55,192.14 250.31,196.61 249.06,201.08 247.81,205.52 247.22,209.03 246.62,212.53 246.14,217.51 245.61,222.5 245.38,227.22 245.07,231.9 245.12,236.13 245.22,240.33 245.95,245.34 246.8,250.34 247.74,255.36 249.38,260.14 251.04,264.92 252.68,269.68 254.31,273.25 255.88,276.86 257.81,280.66 259.71,284.49 261.99,288.11 264.28,291.75 266.59,295.41 269.67,299 272.79,302.56 275.93,306.11 279.63,309.3 283.31,312.45 287.3,315.08 291.3,317.67 295.77,319.82 300.26,322.01 305.3,323.64 310.35,325.25 314,325.92 317.63,326.55 320.85,326.74 324.06,326.91 329.64,326.62 334.04,325.85 338.47,325.1 343.16,323.64 347.91,322.22 352.36,320.15 356.78,318.01 360.92,315.09 364.99,312.15 368.73,308.51 372.47,304.93 374.92,301.7 377.38,298.52 379.84,295.39 381.53,292.52 383.2,289.66 384.86,285.94 386.46,282.16 387.58,278.39 388.71,274.57 389.39,271.22 390.11,267.86 390.62,263.06 391.19,258.3 391.8,253.59 391.85,249.44 391.91,245.32 391.61,241.18 391.3,237.05 390.61,232.92 389.9,228.78 388.83,224.62 387.77,220.43 386.37,216.32 384.96,212.19 383.2,208.18 381.44,204.16" fill="none" stroke="#1a1a1a" stroke-width="2.34" stroke-opacity="0.32" stroke-dasharray="4,3" stroke-linecap="round" stroke-linejoin="round" />
</g>
<line x1="10" y1="489" x2="630" y2="489" stroke="#ddd" stroke-width="1" />
<text x="14" y="26" font-family="sans-serif" font-size="14" fill="#999">wobble: off</text>
<text x="14" y="524" font-family="sans-serif" font-size="14" fill="#999">wobble: on</text>
</svg>