<svg xmlns="http://www.w3.org/2000/svg" viewBox="0 0 640 480" width="640" height="480">
  <rect width="640" height="480" fill="#faf9f5" />
  <polyline points="313.43,133.26 306.91,136.69" fill="none" stroke="#1a1a1a" stroke-width="1" stroke-linecap="round" stroke-linejoin="round" />
  <polyline points="306.91,136.69 293.24,145.26 279.99,155.71 267.19,168.45 261.05,175.83 255.19,183.98 249.71,192.95 244.79,202.78 240.62,213.47 237.46,224.97 235.6,237.14 235.33,249.75 236.89,262.46 240.45,274.87 246.03,286.52 253.48,297 262.5,305.98 272.7,313.29 283.63,318.88 294.9,322.83 306.18,325.31 317.22,326.51 327.86,326.64 338.01,325.88 347.63,324.41 356.72,322.35 373.41,316.84 388.38,309.9" fill="none" stroke="#1a1a1a" stroke-width="0.9" stroke-opacity="0.2" stroke-dasharray="4,3" stroke-linecap="round" stroke-linejoin="round" />
  <polyline points="388.38,309.9 403.82,300.48 417.85,289.48 430.7,276.68 436.69,269.48 442.34,261.66 447.6,253.16 452.35,243.92 456.45,233.91 459.69,223.13 461.83,211.65 462.59,199.63 461.72,187.32 458.99,175.08 454.32,163.36 447.78,152.59 439.62,143.14 430.19,135.25 419.91,129.01 409.17,124.37 398.31,121.2 387.56,119.33 377.08,118.55 366.94,118.71 357.18,119.66 347.8,121.28 338.78,123.49 330.07,126.25 313.43,133.26" fill="none" stroke="#1a1a1a" stroke-width="1" stroke-linecap="round" stroke-linejoin="round" />
  <polyline points="398.42,253.56 397.23,241.21 394.85,229.04 391.31,217.17 386.65,205.69 380.89,194.71 374.1,184.34 366.34,174.66 357.67,165.77 348.17,157.75 337.92,150.68 327.03,144.62 315.58,139.63 303.68,135.76 291.44,133.06 278.97,131.55 266.38,131.26 253.8,132.2 241.35,134.35 229.13,137.72 217.29,142.27 205.92,147.97 195.14,154.76 185.07,162.59 175.8,171.39 167.43,181.08 160.04,191.55 153.73,202.72 148.55,214.48 144.56,226.7 141.81,239.27 140.33,252.06 140.13,264.94 141.22,277.78 143.6,290.44 147.24,302.81 152.1,314.75 158.14,326.14 165.28,336.87 173.47,346.82 182.6,355.9 192.59,364.02 203.34,371.09 214.73,377.05 226.64,381.85 238.96,385.43 251.56,387.78 264.31,388.87 277.08,388.69 289.76,387.27 302.22,384.61 314.33,380.75 325.98,375.74 337.07,369.63 347.49,362.48 357.15,354.37 365.95,345.38 373.83,335.6 380.71,325.13 386.53,314.06 391.25,302.5 394.82,290.55 397.21,278.34 398.42,265.97 398.42,253.56" fill="none" stroke="#1a1a1a" stroke-width="1" stroke-linecap="round" stroke-linejoin="round" />
  <polyline points="381.88,203.79 378.86,199.41 375.84,195.03 372.82,190.67 369.8,186.3 366.76,181.93 364.86,179.21 362.79,177.36 358.6,173.96 354.44,170.56 350.27,167.16 346.13,163.79 340.99,161.46 335.75,159.33 330.53,157.19 325.37,155.09 322.81,154.04 321.4,153.63 319.19,153.86 313.44,154.49 307.69,155.11 301.96,155.71 296.45,156.25 290.96,156.79 285.47,157.32 283.45,157.51 281.66,159.19 278.18,162.99 274.74,166.73 271.29,170.47 267.95,174.08 264.61,177.69 261.27,181.3 257.94,184.91 255.07,188.25 252.21,191.58 250.83,196.22 249.61,200.62 248.39,205.01 247.18,209.41 245.97,213.81 245.51,218.37 245.07,222.93 244.63,227.51 244.83,233.35 245.06,239.2 245.78,244.57 246.5,249.94 247.65,255.05 248.78,260.15 250.36,265.16 251.94,270.15 254.14,275.24 256.35,280.31 259.08,285.56 261.08,288.57 263.09,291.59 265.59,294.91 268.09,298.22 270.6,301.53 272.05,303.22 274.65,305.1 278.87,308.15 283.06,311.2 287.23,314.26 291.41,317.34 295.61,320.45 300.11,321.94 304.63,323.42 309.16,324.9 314.13,325.66 319.09,326.41 323.2,326.44 327.31,326.47 330.97,326.05 334.64,325.62 338.01,324.84 341.38,324.06 344.54,322.97 347.71,321.88 350.72,320.5 353.73,319.12 356.62,317.44 359.5,315.76 362.26,313.69 365.02,311.62 367.68,309.15 370.35,306.67 372.93,303.68 375.52,300.68 378.01,297.02 380.5,293.36 382.94,289.31 385.21,284.07 387.47,278.59 388.58,275.58 389.44,271.03 390.32,266.44 391.19,261.86 392.07,257.25 392.28,254.47 391.13,248.92 389.96,243.29 388.8,237.65 387.64,232.01 386.49,226.37 385.34,220.73 384.18,215.09 383.03,209.44 381.88,203.79" fill="none" stroke="#1a1a1a" stroke-width="2.34" stroke-opacity="0.32" stroke-dasharray="4,3" stroke-linecap="round" stroke-linejoin="round" />
</svg>