<svg xmlns="http://www.w3.org/2000/svg" viewBox="0 0 944 220" width="944" height="220">
  <rect width="460" height="220" fill="#faf9f5" />
  <path d="M 37.29,110.91 L 43.98,111 L 50.41,111.04 L 56.42,111 L 62.5,110.68 L 68.75,110.19 L 75.08,109.82 L 81.01,109.79 L 86.66,109.97 L 92.41,110.3 L 98.5,110.66 L 104.53,111.01 L 110.51,111.42 L 116.4,111.89 L 122.22,112.29 L 128.03,112.49 L 133.88,112.46 L 139.85,112.18 L 146.21,111.74 L 152.81,111.21 L 159.32,110.68 L 165.62,110.3 L 171.93,109.96 L 178.17,109.79 L 184.23,110 L 189.76,110.6 L 194.84,111.44 L 199.9,112.3 L 205.27,112.99 L 210.76,113.45 L 216.34,113.6 L 221.98,113.45 L 227.75,113.06 L 233.71,112.59 L 239.8,112.13 L 246.07,111.76 L 252.66,111.47 L 259.31,111.24 L 265.73,111.04 L 271.71,110.8 L 277.45,110.59 L 283.28,110.38 L 289.36,110.12 L 295.72,109.83 L 302.15,109.45 L 308.45,109.15 L 314.31,109 L 319.63,109.17 L 325.04,109.51 L 331.01,109.75 L 337.84,109.75 L 345.08,109.79 L 352.09,109.89 L 358.28,109.91 L 363.8,109.69 L 368.83,109.19 L 373.8,108.62 L 378.98,108.24 L 384.2,107.95 L 389.49,107.7 L 394.93,107.65 L 400.94,107.95 L 407.34,108.67 L 413.75,109.45 L 419.83,110.05 L 419.84,109.9 L 413.76,109.3 L 407.36,108.52 L 400.95,107.8 L 394.95,107.19 L 389.5,106.81 L 384.18,106.67 L 378.92,106.65 L 373.67,106.77 L 368.63,107.14 L 363.65,107.61 L 358.23,107.95 L 352.1,108.06 L 345.1,108.03 L 337.85,107.99 L 331.05,107.96 L 325.13,107.7 L 319.7,107.41 L 314.31,107.27 L 308.39,107.4 L 302.06,107.69 L 295.63,108.05 L 289.28,108.3 L 283.19,108.62 L 277.37,109.02 L 271.66,109.33 L 265.7,109.46 L 259.28,109.41 L 252.58,109.52 L 245.96,109.93 L 239.68,110.42 L 233.59,110.87 L 227.63,111.25 L 221.91,111.53 L 216.38,111.5 L 210.92,111.16 L 205.54,110.62 L 200.27,109.9 L 195.25,109 L 190.09,108.15 L 184.39,107.57 L 178.17,107.39 L 171.83,107.6 L 165.47,108.03 L 159.14,108.6 L 152.63,109.31 L 146.06,110.03 L 139.75,110.57 L 133.83,110.87 L 128.04,110.96 L 122.27,110.88 L 116.47,110.72 L 110.57,110.46 L 104.58,110.12 L 98.55,109.8 L 92.46,109.46 L 86.69,109.15 L 81.02,108.99 L 75.05,109.12 L 68.7,109.63 L 62.46,110.24 L 56.41,110.68 L 50.41,110.81 L 43.98,110.84 L 37.29,110.76 Z" fill="#1a1a1a" stroke="#1a1a1a" stroke-width="0.4" stroke-linejoin="round" />
  <path d="M 38.91,109.14 L 43.59,108.78 L 48.67,108.56 L 54.32,108.81 L 60.23,109.36 L 66.39,109.99 L 72.84,110.56 L 79.61,110.97 L 86.45,111.11 L 93.07,111.19 L 99.28,111.45 L 105.34,111.79 L 111.46,112.08 L 117.58,112.27 L 123.76,112.39 L 130.03,112.51 L 136.24,112.57 L 142.27,112.66 L 148.07,112.81 L 153.87,113.04 L 159.82,113.23 L 165.96,113.3 L 172.17,113.33 L 178.36,113.36 L 184.44,113.29 L 190.2,113.09 L 195.65,112.73 L 201.03,112.3 L 206.58,111.97 L 212.16,111.64 L 217.77,111.25 L 223.47,110.82 L 229.56,110.52 L 235.88,110.51 L 241.94,110.54 L 247.56,110.4 L 253.03,110.23 L 258.52,110.35 L 264.12,110.58 L 269.7,110.74 L 275.13,110.78 L 280.65,110.81 L 286.6,110.89 L 292.74,111.01 L 298.9,111.13 L 305.03,111.14 L 311.07,110.91 L 317,110.46 L 323.21,109.97 L 329.75,109.55 L 336.69,109.18 L 343.8,108.75 L 350.72,108.46 L 357.11,108.57 L 363.05,109.14 L 368.58,109.98 L 373.9,110.85 L 379.15,111.5 L 384.44,111.95 L 389.79,112.12 L 395.26,112.07 L 401.21,111.92 L 407.46,111.8 L 413.62,111.68 L 419.43,111.55 L 419.43,111.4 L 413.62,111.53 L 407.46,111.48 L 401.2,111.42 L 395.25,111.48 L 389.8,111.47 L 384.49,111.23 L 379.24,110.71 L 374.03,109.97 L 368.76,108.97 L 363.21,107.96 L 357.2,107.23 L 350.7,107.03 L 343.73,107.32 L 336.61,107.75 L 329.66,108.11 L 323.11,108.52 L 316.89,108.89 L 310.99,109.14 L 305,109.3 L 298.92,109.3 L 292.78,109.18 L 286.64,108.99 L 280.66,108.95 L 275.14,108.96 L 269.74,108.89 L 264.19,108.7 L 258.57,108.48 L 253.01,108.43 L 247.51,108.61 L 241.92,108.73 L 235.87,108.77 L 229.52,108.88 L 223.37,109.14 L 217.65,109.52 L 212.05,109.9 L 206.48,110.21 L 200.93,110.41 L 195.52,110.7 L 190.1,111.02 L 184.39,111.25 L 178.35,111.34 L 172.18,111.3 L 165.98,111.19 L 159.85,111.1 L 153.9,111.08 L 148.1,111.11 L 142.29,111.11 L 136.26,111.02 L 130.06,110.92 L 123.81,110.74 L 117.65,110.46 L 111.55,110.12 L 105.42,109.86 L 99.33,109.73 L 93.1,109.62 L 86.48,109.49 L 79.66,109.34 L 72.92,109.18 L 66.47,108.88 L 60.29,108.52 L 54.35,108.21 L 48.67,108.17 L 43.57,108.49 L 38.89,108.9 Z" fill="#1a1a1a" stroke="#1a1a1a" stroke-width="0.4" stroke-linejoin="round" />
  <path d="M 129.43,108.35 L 135.72,108.52 L 141.93,109.07 L 148.46,109.77 L 154.91,110.5 L 160.89,111.22 L 166.59,111.8 L 172.32,112 L 178.07,111.97 L 183.78,112.05 L 188.98,112.12 L 193.99,112.09 L 199.38,112.11 L 205.56,112.34 L 212.18,112.67 L 218.76,112.82 L 224.82,112.76 L 230.35,112.63 L 235.67,112.69 L 241.17,112.72 L 247.09,112.52 L 253.14,111.99 L 259.19,111.37 L 265.11,110.99 L 270.77,111.07 L 276.59,111.37 L 282.93,111.69 L 289.83,111.82 L 296.91,111.74 L 303.93,111.63 L 310.66,111.65 L 317.3,111.75 L 323.86,111.76 L 330.09,111.78 L 335.69,111.89 L 340.95,112.02 L 346.19,112.2 L 351.62,112.26 L 357.35,112.06 L 357.35,111.91 L 351.62,112.06 L 346.21,111.83 L 340.98,111.44 L 335.72,111.08 L 330.13,110.72 L 323.91,110.26 L 317.35,109.83 L 310.67,109.68 L 303.91,109.85 L 296.89,110.02 L 289.84,110.01 L 282.98,109.92 L 276.64,109.86 L 270.79,109.83 L 265.08,109.89 L 259.11,110.25 L 253.04,110.74 L 247.02,111.15 L 241.17,111.19 L 235.7,111.02 L 230.34,110.91 L 224.79,111.03 L 218.77,111.07 L 212.23,110.96 L 205.61,110.82 L 199.41,110.67 L 194,110.57 L 189.02,110.44 L 183.84,110.21 L 178.12,109.91 L 172.39,109.68 L 166.73,109.37 L 161.05,109.12 L 155.02,108.95 L 148.53,108.77 L 141.96,108.58 L 135.73,108.37 L 129.43,108.2 Z" fill="#1a1a1a" stroke="#1a1a1a" stroke-width="0.4" stroke-linejoin="round" />

<g transform="translate(484,0)">  <rect width="460" height="220" fill="#faf9f5" />
  <path d="M 37.29,110.91 L 43.98,111 L 50.41,111.04 L 56.42,111 L 62.5,110.68 L 68.75,110.19 L 75.08,109.82 L 81.01,109.79 L 86.66,109.97 L 92.41,110.3 L 98.5,110.66 L 104.53,111.01 L 110.51,111.42 L 116.4,111.89 L 122.22,112.29 L 128.03,112.49 L 133.88,112.46 L 139.85,112.18 L 146.21,111.74 L 152.81,111.21 L 159.32,110.68 L 165.62,110.3 L 171.93,109.96 L 178.17,109.79 L 184.23,110 L 189.76,110.6 L 194.84,111.44 L 199.9,112.3 L 205.27,112.99 L 210.76,113.45 L 216.34,113.6 L 221.98,113.45 L 227.75,113.06 L 233.71,112.59 L 239.8,112.13 L 246.07,111.76 L 252.66,111.47 L 259.31,111.24 L 265.73,111.04 L 271.71,110.8 L 277.45,110.59 L 283.28,110.38 L 289.36,110.12 L 295.72,109.83 L 302.15,109.45 L 308.45,109.15 L 314.31,109 L 319.63,109.17 L 325.04,109.51 L 331.01,109.75 L 337.84,109.75 L 345.08,109.79 L 352.09,109.89 L 358.28,109.91 L 363.8,109.69 L 368.83,109.19 L 373.8,108.62 L 378.98,108.24 L 384.2,107.95 L 389.49,107.7 L 394.93,107.65 L 400.94,107.95 L 407.34,108.67 L 413.75,109.45 L 419.83,110.05 L 419.84,109.9 L 413.76,109.3 L 407.36,108.52 L 400.95,107.8 L 394.95,107.19 L 389.5,106.81 L 384.18,106.67 L 378.92,106.65 L 373.67,106.77 L 368.63,107.14 L 363.65,107.61 L 358.23,107.95 L 352.1,108.06 L 345.1,108.03 L 337.85,107.99 L 331.05,107.96 L 325.13,107.7 L 319.7,107.41 L 314.31,107.27 L 308.39,107.4 L 302.06,107.69 L 295.63,108.05 L 289.28,108.3 L 283.19,108.62 L 277.37,109.02 L 271.66,109.33 L 265.7,109.46 L 259.28,109.41 L 252.58,109.52 L 245.96,109.93 L 239.68,110.42 L 233.59,110.87 L 227.63,111.25 L 221.91,111.53 L 216.38,111.5 L 210.92,111.16 L 205.54,110.62 L 200.27,109.9 L 195.25,109 L 190.09,108.15 L 184.39,107.57 L 178.17,107.39 L 171.83,107.6 L 165.47,108.03 L 159.14,108.6 L 152.63,109.31 L 146.06,110.03 L 139.75,110.57 L 133.83,110.87 L 128.04,110.96 L 122.27,110.88 L 116.47,110.72 L 110.57,110.46 L 104.58,110.12 L 98.55,109.8 L 92.46,109.46 L 86.69,109.15 L 81.02,108.99 L 75.05,109.12 L 68.7,109.63 L 62.46,110.24 L 56.41,110.68 L 50.41,110.81 L 43.98,110.84 L 37.29,110.76 Z" fill="#1a1a1a" stroke="#1a1a1a" stroke-width="0.4" stroke-linejoin="round" />
</g>
<line x1="472" y1="8" x2="472" y2="212" stroke="#ddd" stroke-width="1" />
<text x="14" y="26" font-family="sans-serif" font-size="14" fill="#888">consolidate: off</text>
<text x="498" y="26" font-family="sans-serif" font-size="14" fill="#888">consolidate: on</text>
</svg>