<svg xmlns="http://www.w3.org/2000/svg" viewBox="0 0 944 220" width="944" height="220">
  <rect width="460" height="220" fill="#faf9f5" />
  <path d="M 38.91,109.14 L 43.59,108.78 L 48.67,108.56 L 54.32,108.81 L 60.23,109.36 L 66.39,109.99 L 72.84,110.56 L 79.61,110.97 L 86.45,111.11 L 93.07,111.19 L 99.28,111.45 L 105.34,111.79 L 111.46,112.08 L 117.58,112.27 L 123.76,112.39 L 130.03,112.51 L 136.24,112.57 L 142.27,112.66 L 148.07,112.81 L 153.87,113.04 L 159.82,113.23 L 165.96,113.3 L 172.17,113.33 L 178.36,113.36 L 184.44,113.29 L 190.2,113.09 L 195.65,112.73 L 201.03,112.3 L 206.58,111.97 L 212.16,111.64 L 217.77,111.25 L 223.47,110.82 L 229.56,110.52 L 235.88,110.51 L 241.94,110.54 L 247.56,110.4 L 253.03,110.23 L 258.52,110.35 L 264.12,110.58 L 269.7,110.74 L 275.13,110.78 L 280.65,110.81 L 286.6,110.89 L 292.74,111.01 L 298.9,111.13 L 305.03,111.14 L 311.07,110.91 L 317,110.46 L 323.21,109.97 L 329.75,109.55 L 336.69,109.18 L 343.8,108.75 L 350.72,108.46 L 357.11,108.57 L 363.05,109.14 L 368.58,109.98 L 373.9,110.85 L 379.15,111.5 L 384.44,111.95 L 389.79,112.12 L 395.26,112.07 L 401.21,111.92 L 407.46,111.8 L 413.62,111.68 L 419.43,111.55 L 419.43,111.4 L 413.62,111.53 L 407.46,111.48 L 401.2,111.42 L 395.25,111.48 L 389.8,111.47 L 384.49,111.23 L 379.24,110.71 L 374.03,109.97 L 368.76,108.97 L 363.21,107.96 L 357.2,107.23 L 350.7,107.03 L 343.73,107.32 L 336.61,107.75 L 329.66,108.11 L 323.11,108.52 L 316.89,108.89 L 310.99,109.14 L 305,109.3 L 298.92,109.3 L 292.78,109.18 L 286.64,108.99 L 280.66,108.95 L 275.14,108.96 L 269.74,108.89 L 264.19,108.7 L 258.57,108.48 L 253.01,108.43 L 247.51,108.61 L 241.92,108.73 L 235.87,108.77 L 229.52,108.88 L 223.37,109.14 L 217.65,109.52 L 212.05,109.9 L 206.48,110.21 L 200.93,110.41 L 195.52,110.7 L 190.1,111.02 L 184.39,111.25 L 178.35,111.34 L 172.18,111.3 L 165.98,111.19 L 159.85,111.1 L 153.9,111.08 L 148.1,111.11 L 142.29,111.11 L 136.26,111.02 L 130.06,110.92 L 123.81,110.74 L 117.65,110.46 L 111.55,110.12 L 105.42,109.86 L 99.33,109.73 L 93.1,109.62 L 86.48,109.49 L 79.66,109.34 L 72.92,109.18 L 66.47,108.88 L 60.29,108.52 L 54.35,108.21 L 48.67,108.17 L 43.57,108.49 L 38.89,108.9 Z" fill="#1a1a1a" stroke="#1a1a1a" stroke-width="0.4" stroke-linejoin="round" />
  <path d="M 40.79,110.03 L 47.73,109.54 L 54.33,109.38 L 60.25,109.71 L 65.56,110.27 L 70.63,110.88 L 75.89,111.47 L 81.52,111.91 L 87.36,112.1 L 93.22,111.97 L 98.88,111.52 L 104.2,110.9 L 109.51,110.3 L 115.3,109.76 L 121.56,109.35 L 127.92,109.16 L 134.2,109.25 L 140.35,109.58 L 146.82,109.99 L 153.34,110.36 L 159.48,110.73 L 165.19,111.1 L 170.88,111.36 L 176.59,111.45 L 182.35,111.7 L 187.66,112.01 L 192.65,112.18 L 197.86,112.28 L 203.83,112.4 L 210.36,112.61 L 216.98,112.85 L 223.21,112.92 L 228.83,112.73 L 234.16,112.67 L 239.56,112.68 L 245.36,112.65 L 251.4,112.34 L 257.46,111.87 L 263.41,111.49 L 269.11,111.43 L 274.79,111.56 L 280.95,111.72 L 287.69,111.79 L 294.73,111.65 L 301.77,111.39 L 308.6,111.23 L 315.2,111.32 L 321.8,111.6 L 328.14,112.02 L 333.92,112.48 L 339.21,112.84 L 344.42,113.12 L 349.78,113.28 L 355.45,113.13 L 361.33,112.75 L 367.3,112.35 L 373.31,111.93 L 379.31,111.43 L 385.26,110.78 L 391.2,110.24 L 397.18,109.82 L 403.07,109.51 L 408.97,109.2 L 415.05,108.91 L 421.32,108.63 L 421.31,108.48 L 415.04,108.76 L 408.97,109.05 L 403.06,109.26 L 397.16,109.4 L 391.16,109.61 L 385.19,109.86 L 379.22,110.17 L 373.22,110.39 L 367.21,110.62 L 361.24,110.83 L 355.39,111.02 L 349.81,111 L 344.53,110.73 L 339.33,110.43 L 334,110.35 L 328.21,110.33 L 321.85,110.27 L 315.23,110.14 L 308.6,110.11 L 301.75,110.19 L 294.72,110.16 L 287.71,109.99 L 281,109.77 L 274.85,109.56 L 269.11,109.42 L 263.32,109.54 L 257.31,110.06 L 251.27,110.71 L 245.31,111.16 L 239.57,111.19 L 234.19,110.98 L 228.82,110.82 L 223.18,110.93 L 217,111 L 210.41,110.9 L 203.88,110.63 L 197.89,110.45 L 192.67,110.46 L 187.69,110.5 L 182.39,110.44 L 176.62,110.36 L 170.92,110.24 L 165.27,109.87 L 159.58,109.39 L 153.44,108.86 L 146.94,108.32 L 140.45,107.86 L 134.26,107.52 L 127.9,107.41 L 121.46,107.69 L 115.17,108.28 L 109.37,108.85 L 104.04,109.39 L 98.73,109.91 L 93.14,110.32 L 87.37,110.42 L 81.6,110.27 L 75.99,110.05 L 70.72,109.8 L 65.62,109.5 L 60.28,109.19 L 54.33,109.1 L 47.72,109.39 L 40.78,109.88 Z" fill="#1a1a1a" stroke="#1a1a1a" stroke-width="0.4" stroke-linejoin="round" />
  <path d="M 128.26,109.16 L 133.82,108.87 L 139.52,108.96 L 145.61,109.37 L 152.07,109.88 L 158.79,110.31 L 165.46,110.58 L 171.98,110.77 L 178.42,110.87 L 184.81,110.7 L 190.99,110.39 L 197.16,110.01 L 203.28,109.51 L 209.2,108.95 L 214.93,108.44 L 220.65,108.2 L 226.58,108.43 L 232.71,109.06 L 238.79,109.82 L 244.67,110.61 L 250.37,111.36 L 256.15,112.04 L 261.97,112.41 L 267.79,112.53 L 273.58,112.46 L 279.35,112.27 L 285.17,112.13 L 291.13,112.13 L 297.09,112.3 L 303.05,112.49 L 309.04,112.63 L 315.32,112.77 L 321.82,112.85 L 328.06,112.78 L 333.72,112.64 L 338.83,112.53 L 343.81,112.44 L 349.12,112.3 L 354.96,112.1 L 354.95,111.91 L 349.12,111.94 L 343.81,111.81 L 338.83,111.64 L 333.73,111.48 L 328.07,111.27 L 321.83,111.12 L 315.33,111.13 L 309.06,111.18 L 303.09,111.06 L 297.13,110.89 L 291.15,110.78 L 285.17,110.77 L 279.33,110.78 L 273.58,110.7 L 267.83,110.5 L 262.06,110.29 L 256.3,110.08 L 250.57,109.61 L 244.87,108.98 L 238.99,108.26 L 232.88,107.54 L 226.69,106.93 L 220.67,106.63 L 214.85,106.7 L 209.07,106.88 L 203.13,107.07 L 196.99,107.38 L 190.82,107.79 L 184.68,108.23 L 178.35,108.64 L 171.96,108.98 L 165.48,109.09 L 158.83,109.03 L 152.13,108.84 L 145.64,108.66 L 139.53,108.56 L 133.82,108.68 L 128.25,109.01 Z" fill="#1a1a1a" stroke="#1a1a1a" stroke-width="0.4" stroke-linejoin="round" />

<g transform="translate(484,0)">  <rect width="460" height="220" fill="#faf9f5" />
  <path d="M 39.37,109.84 L 45.93,110.05 L 52.33,110.28 L 58.59,110.4 L 64.96,110.51 L 71.36,110.72 L 77.53,110.94 L 83.27,111.02 L 88.81,110.75 L 94.46,110.34 L 100.5,110.03 L 106.72,109.87 L 112.75,109.74 L 118.41,109.65 L 123.81,109.48 L 129.19,109.21 L 134.66,108.93 L 140.34,108.7 L 146.37,108.6 L 152.63,108.44 L 158.97,108.25 L 165.1,108.15 L 170.87,108.28 L 176.62,108.49 L 182.65,108.7 L 188.79,108.86 L 195.03,109.03 L 201.33,109.11 L 207.52,109.16 L 213.54,109.13 L 219.49,108.96 L 225.51,109.01 L 231.75,109.48 L 238.01,110.2 L 244.02,110.93 L 249.63,111.55 L 255.1,111.89 L 260.57,111.88 L 266.14,111.7 L 271.76,111.7 L 277.42,112.04 L 283.27,112.56 L 289.48,112.9 L 295.85,112.83 L 302.2,112.58 L 308.46,112.36 L 314.66,112.34 L 320.93,112.59 L 327.01,113 L 332.73,113.35 L 338.16,113.49 L 343.51,113.42 L 348.94,113.24 L 354.7,112.95 L 361.03,112.48 L 367.46,111.75 L 373.55,110.94 L 379.23,110.37 L 384.76,110.03 L 390.37,109.88 L 396.19,109.6 L 402.18,109.23 L 408.25,109.06 L 414.33,108.87 L 420.37,108.59 L 420.36,108.44 L 414.32,108.72 L 408.24,108.91 L 402.17,109.08 L 396.18,109.14 L 390.37,108.96 L 384.75,108.73 L 379.14,108.74 L 373.36,109.05 L 367.22,109.69 L 360.83,110.42 L 354.57,110.87 L 348.86,111.1 L 343.46,111.22 L 338.17,111.27 L 332.8,111.23 L 327.1,111.08 L 321,110.91 L 314.68,110.79 L 308.43,110.84 L 302.16,111.04 L 295.83,111.14 L 289.53,111.04 L 283.4,110.69 L 277.54,110.26 L 271.81,109.94 L 266.1,110 L 260.52,110.32 L 255.13,110.48 L 249.76,110.15 L 244.18,109.51 L 238.16,108.82 L 231.86,108.24 L 225.57,107.8 L 219.5,107.56 L 213.54,107.51 L 207.54,107.43 L 201.36,107.29 L 195.07,107.15 L 188.82,107.11 L 182.69,107.08 L 176.66,106.96 L 170.9,106.85 L 165.11,106.8 L 158.97,106.74 L 152.62,106.61 L 146.36,106.51 L 140.3,106.46 L 134.57,106.55 L 129.06,106.78 L 123.68,107.18 L 118.32,107.56 L 112.69,107.85 L 106.66,108.08 L 100.41,108.42 L 94.35,109.01 L 88.73,109.64 L 83.24,110.07 L 77.54,110.18 L 71.37,110.25 L 64.96,110.3 L 58.59,110.25 L 52.33,110.07 L 45.94,109.79 L 39.38,109.62 Z" fill="#1a1a1a" stroke="#1a1a1a" stroke-width="0.4" stroke-linejoin="round" />
</g>
<line x1="472" y1="8" x2="472" y2="212" stroke="#ddd" stroke-width="1" />
<text x="14" y="26" font-family="sans-serif" font-size="14" fill="#888">consolidate: off</text>
<text x="498" y="26" font-family="sans-serif" font-size="14" fill="#888">consolidate: on</text>
</svg>