<svg xmlns="http://www.w3.org/2000/svg" viewBox="0 0 944 220" width="944" height="220">
  <rect width="460" height="220" fill="#faf9f5" />
  <polyline points="38.9,109.02 43.58,108.63 48.67,108.36 54.33,108.51 60.26,108.94 66.43,109.44 72.88,109.87 79.63,110.15 86.46,110.3 93.08,110.4 99.31,110.59 105.38,110.83 111.51,111.1 117.61,111.37 123.78,111.57 130.04,111.71 136.25,111.79 142.28,111.88 148.08,111.96 153.89,112.06 159.83,112.17 165.97,112.24 172.18,112.31 178.36,112.35 184.42,112.27 190.15,112.06 195.59,111.72 200.98,111.35 206.53,111.09 212.1,110.77 217.71,110.39 223.42,109.98 229.54,109.7 235.88,109.64 241.93,109.63 247.53,109.51 253.02,109.33 258.54,109.41 264.16,109.64 269.72,109.82 275.13,109.87 280.66,109.88 286.62,109.94 292.76,110.09 298.91,110.22 305.02,110.22 311.03,110.03 316.94,109.68 323.16,109.25 329.7,108.83 336.65,108.46 343.77,108.03 350.71,107.75 357.15,107.9 363.13,108.55 368.67,109.48 373.96,110.41 379.2,111.1 384.47,111.59 389.8,111.8 395.26,111.78 401.2,111.67 407.46,111.64 413.62,111.61 419.43,111.47" fill="none" stroke="#1a1a1a" stroke-width="1.8" stroke-linecap="round" stroke-linejoin="round" />
  <polyline points="40.79,109.96 47.72,109.47 54.33,109.24 60.27,109.45 65.59,109.88 70.67,110.34 75.94,110.76 81.56,111.09 87.36,111.26 93.18,111.14 98.81,110.71 104.12,110.15 109.44,109.58 115.23,109.02 121.51,108.52 127.91,108.28 134.23,108.38 140.4,108.72 146.88,109.16 153.39,109.61 159.53,110.06 165.23,110.49 170.9,110.8 176.61,110.91 182.37,111.07 187.68,111.26 192.66,111.32 197.88,111.37 203.86,111.51 210.39,111.75 216.99,111.93 223.19,111.93 228.82,111.78 234.18,111.82 239.57,111.94 245.34,111.9 251.33,111.53 257.38,110.96 263.36,110.52 269.11,110.42 274.82,110.56 280.98,110.75 287.7,110.89 294.72,110.91 301.76,110.79 308.6,110.67 315.22,110.73 321.82,110.93 328.18,111.18 333.96,111.42 339.27,111.64 344.48,111.93 349.8,112.14 355.42,112.07 361.29,111.79 367.26,111.49 373.27,111.16 379.27,110.8 385.22,110.32 391.18,109.93 397.17,109.61 403.06,109.38 408.97,109.12 415.04,108.83 421.31,108.56" fill="none" stroke="#1a1a1a" stroke-width="1.8" stroke-linecap="round" stroke-linejoin="round" />
  <polyline points="128.26,109.08 133.82,108.78 139.52,108.76 145.62,109.02 152.1,109.36 158.81,109.67 165.47,109.84 171.97,109.87 178.39,109.76 184.75,109.47 190.91,109.09 197.07,108.69 203.2,108.29 209.14,107.92 214.89,107.57 220.66,107.41 226.64,107.68 232.8,108.3 238.89,109.04 244.77,109.79 250.47,110.49 256.22,111.06 262.01,111.35 267.81,111.51 273.58,111.58 279.34,111.52 285.17,111.45 291.14,111.45 297.11,111.6 303.07,111.77 309.05,111.91 315.33,111.95 321.83,111.99 328.06,112.03 333.72,112.06 338.83,112.09 343.81,112.12 349.12,112.12 354.96,112" fill="none" stroke="#1a1a1a" stroke-width="1.8" stroke-linecap="round" stroke-linejoin="round" />

<g transform="translate(484,0)">  <rect width="460" height="220" fill="#faf9f5" />
  <polyline points="39.38,109.73 45.94,109.92 52.33,110.17 58.59,110.33 64.96,110.41 71.37,110.48 77.54,110.56 83.26,110.55 88.77,110.2 94.41,109.67 100.46,109.23 106.69,108.98 112.72,108.79 118.36,108.6 123.74,108.33 129.13,108 134.62,107.74 140.32,107.58 146.36,107.55 152.62,107.52 158.97,107.49 165.1,107.48 170.89,107.56 176.64,107.72 182.67,107.89 188.81,107.99 195.05,108.09 201.35,108.2 207.53,108.3 213.54,108.32 219.5,108.26 225.54,108.41 231.81,108.86 238.08,109.51 244.1,110.22 249.69,110.85 255.12,111.18 260.55,111.1 266.12,110.85 271.79,110.82 277.48,111.15 283.34,111.62 289.51,111.97 295.84,111.99 302.18,111.81 308.45,111.6 314.67,111.56 320.97,111.75 327.06,112.04 332.77,112.29 338.16,112.38 343.49,112.32 348.9,112.17 354.64,111.91 360.93,111.45 367.34,110.72 373.46,110 379.18,109.56 384.76,109.38 390.37,109.42 396.18,109.37 402.17,109.16 408.25,108.98 414.32,108.79 420.37,108.52" fill="none" stroke="#1a1a1a" stroke-width="1.8" stroke-linecap="round" stroke-linejoin="round" />
</g>
<line x1="472" y1="8" x2="472" y2="212" stroke="#ddd" stroke-width="1" />
<text x="14" y="26" font-family="sans-serif" font-size="14" fill="#888">consolidate: off</text>
<text x="498" y="26" font-family="sans-serif" font-size="14" fill="#888">consolidate: on</text>
</svg>