<svg xmlns="http://www.w3.org/2000/svg" viewBox="0 0 620 818" width="620" height="818">
  <rect width="620" height="400" fill="#faf9f5" />
  <polyline points="404.82,194.99 395.18,200.29 385.55,203.95 373.06,207.52 358.16,210.59 341.4,212.89 323.44,214.22 304.96,214.47 286.68,213.63 269.29,211.75 253.47,209 239.81,205.61 228.83,201.94 220.9,198.44 214.74,194.62" fill="none" stroke="#1a1a1a" stroke-width="1.5" stroke-linecap="round" stroke-linejoin="round" />
  <polyline points="214.74,194.62 216.6,197.07 218.21,200.22 219.52,204.31 220.13,208.72 220,212.75 218.71,217.72 221.78,214.85 228.3,210.14 237.83,205.02" fill="none" stroke="#1a1a1a" stroke-width="1.35" stroke-opacity="0.32" stroke-dasharray="4,3" stroke-linecap="round" stroke-linejoin="round" />
  <polyline points="237.83,205.02 252.93,199.22 270.62,194.72 289.92,191.9 310,190.95 330.08,191.9 349.38,194.72 367.07,199.22 382.17,205.02" fill="none" stroke="#1a1a1a" stroke-width="1.5" stroke-linecap="round" stroke-linejoin="round" />
  <polyline points="382.17,205.02 391.67,210.12 398.19,214.82 401.3,217.75 400.01,212.88 399.86,208.89 400.44,204.49 401.72,200.38 403.33,197.19 405.26,194.62" fill="none" stroke="#1a1a1a" stroke-width="1.35" stroke-opacity="0.32" stroke-dasharray="4,3" stroke-linecap="round" stroke-linejoin="round" />
  <polyline points="405.26,194.62 404.82,194.99" fill="none" stroke="#1a1a1a" stroke-width="1.5" stroke-linecap="round" stroke-linejoin="round" />
  <polyline points="509.39,290.53 502.68,299.2 495.31,307.35 487.34,314.97 478.83,322.07 469.83,328.69 460.36,334.81 440.15,345.67 418.44,354.7 395.45,361.93 371.41,367.36 346.6,370.96 321.32,372.72 295.9,372.62 270.66,370.66 245.92,366.85 221.98,361.23 199.12,353.8 177.56,344.57 167.34,339.27 157.53,333.51 148.16,327.28 139.26,320.56 130.87,313.34 123.03,305.61 115.8,297.35 109.25,288.56 103.45,279.26 98.51,269.47 94.52,259.25 91.56,248.71 89.71,237.99 89.01,227.24 89.44,216.65 90.95,206.41 93.43,196.67 96.74,187.54 100.73,179.11 105.25,171.38 110.16,164.35 115.37,157.96 126.36,146.92 137.81,137.77 149.54,130.1 161.49,123.58 173.64,117.99 186,113.17 198.54,109.01 211.27,105.43 237.23,99.83 263.7,96.09 290.52,94.08 317.48,93.71 344.38,94.99 371.04,97.95 397.24,102.69 422.84,109.44 435.36,113.66 447.69,118.56 459.83,124.25 471.75,130.88 483.46,138.7 494.87,148.03 505.79,159.31 510.94,165.83 515.78,173.01 520.19,180.89 524.05,189.48 527.19,198.75 529.47,208.61 530.75,218.94 530.94,229.58 529.99,240.34 527.89,251.04 524.7,261.52 520.49,271.64 515.35,281.33 509.39,290.53" fill="none" stroke="#1a1a1a" stroke-width="1.5" stroke-linecap="round" stroke-linejoin="round" />

<g transform="translate(0,418)">  <rect width="620" height="400" fill="#faf9f5" />
  <polyline points="403.92,194.5 399.25,196.77 394.88,199 390.3,200.89 385.62,202.91 381.48,204.22 377.27,205.53 373.08,206.87 368.14,208.06 363.26,209.26 358.43,210.45 353.01,211.34 347.57,212.21 342.1,213.05 337.67,213.41 333.22,213.74 328.75,214.03 324.24,214.29 319.55,214.27 314.81,214.23 310.03,214.18 305.22,214.12 300.47,213.81 295.72,213.5 291.02,213.2 286.39,212.92 280.58,212.29 274.83,211.71 269.1,211.16 263.93,210.32 258.79,209.51 253.67,208.74 249.27,207.8 244.85,206.89 240.38,205.98 234.99,204.41 229.54,202.68 225.59,200.92 221.48,199.1 218.31,196.96 215.07,194.64" fill="none" stroke="#1a1a1a" stroke-width="1.5" stroke-linecap="round" stroke-linejoin="round" />
  <polyline points="215.07,194.64 216.98,196.9 219.09,200.07 220.5,204.18 221.02,208.58 220.93,212.75 219.73,218.13 222.14,215 225.32,212.63 228.64,210.09 233.43,207.47 238.05,204.98" fill="none" stroke="#1a1a1a" stroke-width="1.35" stroke-opacity="0.32" stroke-dasharray="4,3" stroke-linecap="round" stroke-linejoin="round" />
  <polyline points="238.05,204.98 242.89,203.1 247.74,201.25 252.58,199.55 256.84,198.69 261.15,197.81 265.61,196.77 270.22,195.58 275.29,194.76 280.35,193.96 285.4,193.24 290.48,192.52 295.68,192.18 300.71,191.79 305.54,191.48 310.32,191.33 315.25,191.79 320.26,192.18 325.3,192.44 330.35,192.63 335.18,193.23 339.96,193.77 344.66,194.27 349.29,194.73 353.52,195.59 357.77,196.5 362.06,197.49 366.42,198.57 371.37,200.46 376.3,202.39 381.29,204.28" fill="none" stroke="#1a1a1a" stroke-width="1.5" stroke-linecap="round" stroke-linejoin="round" />
  <polyline points="381.29,204.28 385.94,206.63 390.57,209.06 393.7,211.61 397.02,214.37 401.36,217.74 399.95,212.37 399.59,208.57 400.15,204.62 401.39,200.55 402.86,197.08 404.37,194.26" fill="none" stroke="#1a1a1a" stroke-width="1.35" stroke-opacity="0.32" stroke-dasharray="4,3" stroke-linecap="round" stroke-linejoin="round" />
  <polyline points="404.37,194.26 403.92,194.5" fill="none" stroke="#1a1a1a" stroke-width="1.5" stroke-linecap="round" stroke-linejoin="round" />
  <polyline points="509.26,290.39 505.84,294.78 502.43,299.17 498.74,303.28 495.13,307.4 491.3,311.29 487.46,315.21 483.28,318.93 479.02,322.63 474.43,326.01 469.83,329.28 465.05,332.21 460.34,335.1 455.36,337.65 450.37,340.22 445.34,342.83 440.29,345.44 434.89,347.64 429.55,349.88 424.24,352.18 418.84,354.56 414.21,356.1 409.53,357.63 404.85,359.16 400.19,360.71 395.58,362.27 390.83,363.51 386.12,364.74 381.42,365.94 376.72,367.08 372.01,368.18 367.12,368.88 362.22,369.53 357.3,370.15 352.35,370.75 347.38,371.36 342.32,371.64 337.24,371.96 332.13,372.3 326.97,372.64 321.76,372.97 316.5,372.89 311.23,372.78 305.95,372.64 300.67,372.48 295.38,372.32 290.13,371.85 284.91,371.46 279.74,371.12 274.61,370.8 269.54,370.47 264.61,369.76 259.72,368.99 254.86,368.18 250.01,367.36 245.17,366.55 240.47,365.39 235.73,364.26 230.98,363.15 226.2,362.07 221.41,361.01 216.81,359.59 212.21,358.16 207.62,356.74 203.07,355.3 198.57,353.84 193.33,351.54 188.11,349.25 182.87,346.93 177.54,344.55 172.39,341.79 167.19,338.97 162.18,335.9 157.21,332.85 152.57,329.64 148.04,326.53 143.82,323.28 139.61,320.07 135.64,316.61 131.62,313.11 127.85,309.29 124.06,305.43 120.55,301.26 116.98,297.05 113.56,292.55 109.99,288.07 106.78,283.38 103.67,278.72 101.12,273.8 98.62,268.85 96.63,263.67 94.65,258.59 93.21,253.41 91.77,248.25 90.85,242.94 89.89,237.6 89.48,232.25 89.08,227.01 89.27,221.99 89.43,217.04 90.11,212.22 90.82,207.24 92.07,202.37 93.32,197.44 94.91,192.8 96.45,188.18 98.35,183.92 100.37,179.73 102.74,175.99 105.13,172.26 107.73,168.8 110.35,165.22 113.14,161.84 115.98,158.43 119.94,154.51 123.77,150.64 127.44,146.8 131.13,143.53 134.81,140.24 138.48,137.04 142.23,134.61 145.89,132.42 149.44,130.36 153.13,128.6 156.95,126.64 160.97,124.55 165.21,122.66 169.46,120.72 173.58,118.77 177.58,117.08 181.44,115.42 185.3,113.75 189.36,112.31 193.63,110.88 198.04,109.47 202.54,108.31 206.99,107.18 211.28,106.03 216.31,104.96 221.26,103.88 226.32,102.83 231.6,101.79 237.01,100.74 242.38,100.02 247.61,99.16 252.83,98.18 258.19,97.22 263.59,96.34 268.95,95.89 274.26,95.35 279.57,94.72 284.92,94.13 290.31,93.74 295.77,93.81 301.21,93.71 306.61,93.4 311.95,93.11 317.29,93.06 322.75,93.59 328.27,94.1 333.78,94.46 339.19,94.81 344.55,95.22 349.86,95.98 355.16,96.63 360.49,97.18 365.82,97.73 371.11,98.36 376.3,99.31 381.44,100.18 386.58,101.07 391.73,102.05 396.9,103.03 401.96,104.35 407.04,105.61 412.2,106.89 417.56,108.22 423.06,109.54 427.49,110.94 431.75,112.52 435.81,114.17 439.68,115.99 443.55,117.65 447.49,119.18 451.48,120.91 455.55,122.66 459.63,124.49 463.59,126.64 467.48,128.78 471.33,130.95 475.11,133.55 478.95,136.2 482.84,138.92 486.67,142.17 490.56,145.37 494.51,148.51 498.33,152.26 502.1,155.97 505.76,159.57 508.3,162.66 510.83,165.79 513.25,169.28 515.7,172.73 517.96,176.46 520.24,180.13 522.21,184.25 524.14,188.58 525.7,193.44 527.24,198.35 528.36,203.59 529.47,208.83 530.06,214.35 530.62,219.77 530.64,225.22 530.68,230.5 530.15,235.73 529.63,240.93 528.64,246.11 527.7,251.3 526.24,256.39 524.73,261.51 522.63,266.49 520.47,271.5 517.85,276.3 515.25,281.14 512.28,285.74 509.26,290.39" fill="none" stroke="#1a1a1a" stroke-width="1.5" stroke-linecap="round" stroke-linejoin="round" />
</g>
<line x1="10" y1="409" x2="610" y2="409" stroke="#ddd" stroke-width="1" />
<text x="14" y="26" font-family="sans-serif" font-size="14" fill="#999">wobble: off</text>
<text x="14" y="444" font-family="sans-serif" font-size="14" fill="#999">wobble: on</text>
</svg>