<svg xmlns="http://www.w3.org/2000/svg" viewBox="0 0 882 380" width="882" height="380">
<defs><clipPath id="clip-0-0" clipPathUnits="userSpaceOnUse"><rect x="0" y="0" width="430" height="380" /></clipPath><clipPath id="clip-0-1" clipPathUnits="userSpaceOnUse"><rect x="452" y="0" width="430" height="380" /></clipPath></defs>
<g clip-path="url(#clip-0-0)"><g transform="translate(0,0)">  <rect width="430" height="380" fill="#faf9f5" />
  <path d="M 236.24,56.59 L 239.97,58 L 243.68,59.39 L 247.39,60.71 L 251.09,62.03 L 254.78,63.35 L 258.49,64.67 L 262.21,65.99 L 265.92,67.3 L 269.63,68.62 L 273.34,69.93 L 277.06,71.23 L 280.75,72.49 L 284.36,73.79 L 284.56,73.24 L 280.96,71.91 L 277.28,70.59 L 273.57,69.27 L 269.86,67.96 L 266.15,66.65 L 262.44,65.33 L 258.72,64.01 L 255.01,62.69 L 251.32,61.37 L 247.63,60.04 L 243.92,58.72 L 240.19,57.39 L 236.45,56.02 Z" fill="#1a1a1a" fill-opacity="0.55" stroke="#1a1a1a" stroke-width="0.4" stroke-opacity="0.55" stroke-linejoin="round" />
  <path d="M 211.77,54.67 L 215.23,55.98 L 218.88,57.36 L 222.63,58.76 L 226.4,60.18 L 230.19,61.6 L 233.97,63.02 L 237.72,64.43 L 241.44,65.83 L 245.15,67.24 L 248.86,68.64 L 252.55,70.04 L 256.23,71.43 L 259.91,72.82 L 263.58,74.19 L 267.25,75.55 L 270.93,76.9 L 274.6,78.26 L 278.26,79.62 L 281.92,80.99 L 285.57,82.36 L 289.24,83.73 L 292.94,85.07 L 296.63,86.39 L 300.31,87.68 L 303.99,88.94 L 304.19,88.37 L 300.52,87.1 L 296.85,85.78 L 293.17,84.43 L 289.49,83.06 L 285.82,81.69 L 282.17,80.33 L 278.51,78.96 L 274.85,77.6 L 271.18,76.24 L 267.5,74.88 L 263.83,73.53 L 260.15,72.16 L 256.47,70.79 L 252.79,69.41 L 249.1,68.01 L 245.39,66.61 L 241.68,65.21 L 237.95,63.8 L 234.21,62.4 L 230.43,60.97 L 226.64,59.55 L 222.85,58.16 L 219.1,56.78 L 215.44,55.43 L 211.97,54.12 Z" fill="#1a1a1a" fill-opacity="0.55" stroke="#1a1a1a" stroke-width="0.4" stroke-opacity="0.55" stroke-linejoin="round" />
  <path d="M 194.88,56.16 L 198.47,57.73 L 202.17,59.14 L 205.83,60.5 L 209.47,61.85 L 213.08,63.19 L 216.67,64.53 L 220.26,65.85 L 223.88,67.17 L 227.51,68.48 L 231.15,69.79 L 234.8,71.1 L 238.44,72.42 L 242.09,73.73 L 245.76,75.05 L 249.43,76.36 L 253.12,77.67 L 256.8,78.97 L 260.49,80.26 L 264.19,81.55 L 267.89,82.85 L 271.59,84.15 L 275.29,85.46 L 278.97,86.8 L 282.65,88.16 L 286.3,89.53 L 289.94,90.9 L 293.55,92.28 L 297.17,93.63 L 300.82,94.96 L 304.52,96.27 L 308.3,97.59 L 312.13,98.9 L 315.81,100.12 L 316,99.55 L 312.32,98.33 L 308.51,96.99 L 304.74,95.66 L 301.05,94.31 L 297.42,92.97 L 293.81,91.61 L 290.19,90.23 L 286.55,88.86 L 282.89,87.49 L 279.21,86.14 L 275.52,84.8 L 271.83,83.48 L 268.13,82.17 L 264.42,80.87 L 260.73,79.58 L 257.04,78.28 L 253.36,76.99 L 249.68,75.68 L 246,74.37 L 242.33,73.05 L 238.69,71.73 L 235.04,70.42 L 231.4,69.1 L 227.76,67.79 L 224.12,66.48 L 220.51,65.17 L 216.92,63.85 L 213.33,62.52 L 209.71,61.2 L 206.06,59.87 L 202.39,58.54 L 198.71,57.16 L 195.12,55.6 Z" fill="#1a1a1a" fill-opacity="0.55" stroke="#1a1a1a" stroke-width="0.4" stroke-opacity="0.55" stroke-linejoin="round" />
  <path d="M 182.15,59.33 L 185.79,60.71 L 189.47,62.03 L 193.18,63.38 L 196.9,64.75 L 200.61,66.11 L 204.34,67.47 L 208.07,68.81 L 211.79,70.14 L 215.51,71.48 L 219.22,72.84 L 222.93,74.2 L 226.61,75.57 L 230.29,76.94 L 233.97,78.31 L 237.66,79.68 L 241.35,81.04 L 245.06,82.4 L 248.79,83.77 L 252.53,85.13 L 256.3,86.5 L 260.08,87.84 L 263.85,89.18 L 267.61,90.5 L 271.35,91.82 L 275.08,93.14 L 278.79,94.48 L 282.49,95.84 L 286.18,97.22 L 289.91,98.59 L 293.66,99.97 L 297.41,101.35 L 301.17,102.71 L 304.94,104.05 L 308.72,105.39 L 312.51,106.73 L 316.29,108.07 L 320.08,109.41 L 323.74,110.78 L 323.95,110.22 L 320.29,108.84 L 316.5,107.48 L 312.73,106.12 L 308.95,104.75 L 305.18,103.39 L 301.41,102.05 L 297.65,100.69 L 293.89,99.32 L 290.14,97.95 L 286.42,96.57 L 282.72,95.2 L 279.02,93.84 L 275.31,92.5 L 271.58,91.17 L 267.84,89.84 L 264.08,88.51 L 260.31,87.17 L 256.54,85.82 L 252.78,84.45 L 249.04,83.08 L 245.31,81.71 L 241.6,80.35 L 237.91,78.99 L 234.23,77.63 L 230.55,76.26 L 226.87,74.89 L 223.18,73.52 L 219.47,72.16 L 215.75,70.81 L 212.03,69.46 L 208.31,68.13 L 204.58,66.79 L 200.85,65.46 L 197.12,64.13 L 193.4,62.8 L 189.68,61.47 L 185.99,60.16 L 182.36,58.8 Z" fill="#1a1a1a" fill-opacity="0.55" stroke="#1a1a1a" stroke-width="0.4" stroke-opacity="0.55" stroke-linejoin="round" />
  <path d="M 170.66,62.41 L 174.2,63.52 L 177.95,65 L 181.77,66.48 L 185.57,67.92 L 189.33,69.32 L 193.04,70.69 L 196.76,72.04 L 200.47,73.39 L 204.18,74.73 L 207.89,76.07 L 211.6,77.41 L 215.3,78.77 L 218.99,80.13 L 222.68,81.49 L 226.38,82.86 L 230.08,84.23 L 233.8,85.59 L 237.52,86.95 L 241.25,88.3 L 244.98,89.66 L 248.7,91.03 L 252.42,92.41 L 256.15,93.79 L 259.87,95.17 L 263.6,96.55 L 267.33,97.92 L 271.06,99.28 L 274.79,100.63 L 278.51,101.98 L 282.21,103.33 L 285.93,104.69 L 289.65,106.05 L 293.38,107.41 L 297.13,108.78 L 300.89,110.14 L 304.64,111.48 L 308.35,112.78 L 312.02,114.05 L 315.65,115.3 L 319.29,116.58 L 322.96,117.93 L 326.72,119.4 L 330.48,120.69 L 330.67,120.13 L 326.92,118.85 L 323.17,117.38 L 319.5,116 L 315.86,114.7 L 312.24,113.43 L 308.58,112.13 L 304.88,110.8 L 301.14,109.45 L 297.38,108.09 L 293.63,106.72 L 289.9,105.36 L 286.17,104.01 L 282.46,102.66 L 278.74,101.32 L 275.03,99.98 L 271.3,98.64 L 267.56,97.28 L 263.83,95.91 L 260.11,94.53 L 256.39,93.14 L 252.67,91.75 L 248.94,90.37 L 245.22,89 L 241.49,87.64 L 237.76,86.28 L 234.04,84.92 L 230.33,83.56 L 226.62,82.2 L 222.93,80.84 L 219.24,79.47 L 215.54,78.11 L 211.84,76.76 L 208.13,75.41 L 204.42,74.07 L 200.71,72.73 L 197,71.39 L 193.28,70.04 L 189.56,68.68 L 185.8,67.31 L 181.99,65.9 L 178.16,64.44 L 174.4,62.96 L 170.84,61.85 Z" fill="#1a1a1a" fill-opacity="0.55" stroke="#1a1a1a" stroke-width="0.4" stroke-opacity="0.55" stroke-linejoin="round" />
  <path d="M 160.76,65.99 L 164.44,67.3 L 168.1,68.74 L 171.77,70.2 L 175.43,71.61 L 179.12,72.99 L 182.82,74.35 L 186.55,75.7 L 190.3,77.03 L 194.07,78.36 L 197.84,79.7 L 201.61,81.03 L 205.37,82.37 L 209.11,83.71 L 212.86,85.06 L 216.6,86.42 L 220.34,87.78 L 224.08,89.14 L 227.83,90.51 L 231.57,91.87 L 235.32,93.24 L 239.06,94.6 L 242.81,95.97 L 246.55,97.34 L 250.29,98.7 L 254.02,100.06 L 257.75,101.42 L 261.48,102.78 L 265.2,104.13 L 268.93,105.47 L 272.66,106.8 L 276.39,108.12 L 280.09,109.45 L 283.79,110.79 L 287.48,112.15 L 291.17,113.51 L 294.87,114.87 L 298.56,116.24 L 302.26,117.61 L 305.96,118.98 L 309.67,120.34 L 313.38,121.71 L 317.09,123.07 L 320.8,124.44 L 324.49,125.81 L 328.18,127.16 L 331.9,128.48 L 335.61,129.71 L 335.79,129.15 L 332.09,127.92 L 328.38,126.6 L 324.7,125.24 L 321.01,123.86 L 317.3,122.48 L 313.6,121.11 L 309.9,119.73 L 306.19,118.35 L 302.49,116.98 L 298.8,115.61 L 295.1,114.24 L 291.4,112.87 L 287.71,111.51 L 284.02,110.16 L 280.32,108.81 L 276.61,107.48 L 272.89,106.16 L 269.17,104.83 L 265.44,103.49 L 261.71,102.15 L 257.98,100.78 L 254.25,99.42 L 250.52,98.05 L 246.79,96.68 L 243.05,95.31 L 239.31,93.93 L 235.57,92.56 L 231.83,91.18 L 228.08,89.81 L 224.34,88.45 L 220.59,87.09 L 216.85,85.73 L 213.1,84.38 L 209.36,83.04 L 205.61,81.7 L 201.85,80.36 L 198.08,79.03 L 194.31,77.7 L 190.54,76.37 L 186.79,75.04 L 183.06,73.71 L 179.35,72.37 L 175.66,71 L 171.99,69.61 L 168.32,68.17 L 164.65,66.73 L 160.96,65.42 Z" fill="#1a1a1a" fill-opacity="0.55" stroke="#1a1a1a" stroke-width="0.4" stroke-opacity="0.55" stroke-linejoin="round" />
  <path d="M 152.13,70.36 L 156.02,71.81 L 159.83,73.14 L 163.56,74.52 L 167.2,75.93 L 170.84,77.33 L 174.52,78.71 L 178.24,80.05 L 182,81.41 L 185.75,82.77 L 189.51,84.14 L 193.26,85.53 L 197.02,86.95 L 200.77,88.36 L 204.53,89.77 L 208.32,91.17 L 212.11,92.56 L 215.91,93.94 L 219.71,95.31 L 223.5,96.67 L 227.27,98.02 L 231.03,99.36 L 234.76,100.7 L 238.49,102.05 L 242.22,103.41 L 245.94,104.78 L 249.68,106.17 L 253.43,107.57 L 257.19,108.98 L 260.97,110.41 L 264.75,111.84 L 268.53,113.26 L 272.32,114.68 L 276.11,116.09 L 279.9,117.49 L 283.68,118.89 L 287.45,120.29 L 291.19,121.69 L 294.92,123.08 L 298.64,124.45 L 302.36,125.81 L 306.08,127.15 L 309.81,128.47 L 313.57,129.78 L 317.35,131.09 L 321.15,132.41 L 324.96,133.72 L 328.73,135.01 L 332.44,136.28 L 336.19,137.54 L 340.07,138.75 L 340.24,138.19 L 336.37,136.98 L 332.63,135.71 L 328.93,134.43 L 325.17,133.12 L 321.37,131.79 L 317.57,130.45 L 313.8,129.13 L 310.05,127.81 L 306.33,126.48 L 302.61,125.13 L 298.9,123.76 L 295.18,122.38 L 291.45,120.99 L 287.7,119.6 L 283.94,118.21 L 280.16,116.81 L 276.37,115.4 L 272.58,113.99 L 268.79,112.57 L 265.01,111.15 L 261.22,109.73 L 257.45,108.31 L 253.68,106.9 L 249.93,105.51 L 246.19,104.12 L 242.45,102.76 L 238.72,101.4 L 234.99,100.06 L 231.25,98.72 L 227.5,97.38 L 223.72,96.05 L 219.93,94.69 L 216.14,93.32 L 212.34,91.93 L 208.55,90.54 L 204.77,89.13 L 201.01,87.72 L 197.26,86.31 L 193.5,84.9 L 189.75,83.5 L 185.98,82.13 L 182.22,80.78 L 178.46,79.44 L 174.74,78.1 L 171.07,76.74 L 167.43,75.34 L 163.78,73.93 L 160.04,72.56 L 156.23,71.24 L 152.34,69.8 Z" fill="#1a1a1a" fill-opacity="0.55" stroke="#1a1a1a" stroke-width="0.4" stroke-opacity="0.55" stroke-linejoin="round" />
  <path d="M 143.97,75.2 L 147.51,76.72 L 151.34,77.81 L 155.11,79.08 L 158.87,80.43 L 162.65,81.77 L 166.41,83.12 L 170.17,84.48 L 173.92,85.87 L 177.69,87.25 L 181.46,88.63 L 185.23,90.01 L 189.01,91.38 L 192.78,92.74 L 196.54,94.1 L 200.29,95.46 L 204.03,96.81 L 207.75,98.16 L 211.48,99.52 L 215.21,100.87 L 218.95,102.23 L 222.7,103.6 L 226.47,104.97 L 230.25,106.33 L 234.02,107.69 L 237.78,109.05 L 237.99,108.49 L 234.24,107.11 L 230.48,105.71 L 226.71,104.32 L 222.94,102.94 L 219.19,101.57 L 215.45,100.21 L 211.71,98.86 L 207.99,97.51 L 204.26,96.16 L 200.53,94.8 L 196.78,93.45 L 193.01,92.09 L 189.24,90.72 L 185.47,89.35 L 181.7,87.97 L 177.93,86.59 L 174.17,85.21 L 170.41,83.82 L 166.65,82.46 L 162.88,81.11 L 159.11,79.77 L 155.33,78.44 L 151.52,77.2 L 147.71,76.15 L 144.21,74.65 Z" fill="#1a1a1a" fill-opacity="0.55" stroke="#1a1a1a" stroke-width="0.4" stroke-opacity="0.55" stroke-linejoin="round" />
  <path d="M 249.15,113.14 L 252.88,114.48 L 256.61,115.83 L 260.35,117.19 L 264.11,118.55 L 267.88,119.92 L 271.65,121.3 L 275.42,122.69 L 279.19,124.1 L 282.95,125.51 L 286.72,126.91 L 290.48,128.31 L 294.24,129.72 L 297.99,131.13 L 301.73,132.55 L 305.46,133.97 L 309.19,135.38 L 312.93,136.79 L 316.69,138.19 L 320.49,139.58 L 324.29,140.97 L 328.08,142.36 L 331.88,143.74 L 335.67,145.05 L 339.5,146.33 L 343.27,147.55 L 343.45,146.99 L 339.69,145.75 L 335.88,144.44 L 332.11,143.1 L 328.32,141.71 L 324.52,140.32 L 320.72,138.94 L 316.93,137.55 L 313.16,136.15 L 309.43,134.75 L 305.7,133.33 L 301.97,131.91 L 298.23,130.49 L 294.48,129.07 L 290.72,127.67 L 286.96,126.27 L 283.2,124.86 L 279.43,123.45 L 275.66,122.04 L 271.89,120.65 L 268.12,119.27 L 264.34,117.91 L 260.57,116.57 L 256.82,115.24 L 253.08,113.92 L 249.35,112.59 Z" fill="#1a1a1a" fill-opacity="0.55" stroke="#1a1a1a" stroke-width="0.4" stroke-opacity="0.55" stroke-linejoin="round" />
  <path d="M 136.98,79.8 L 140.61,81.26 L 144.24,82.69 L 147.91,83.98 L 151.61,85.22 L 155.3,86.48 L 158.97,87.76 L 162.64,89.08 L 166.34,90.45 L 170.06,91.85 L 173.8,93.26 L 177.54,94.67 L 181.29,96.07 L 185.03,97.44 L 188.76,98.82 L 192.49,100.19 L 196.2,101.56 L 199.91,102.92 L 203.61,104.27 L 207.32,105.62 L 211.03,106.97 L 211.23,106.41 L 207.53,105.05 L 203.84,103.67 L 200.14,102.28 L 196.44,100.91 L 192.73,99.53 L 189.01,98.16 L 185.27,96.78 L 181.53,95.41 L 177.79,94.01 L 174.05,92.6 L 170.32,91.18 L 166.59,89.78 L 162.89,88.41 L 159.21,87.09 L 155.53,85.81 L 151.84,84.55 L 148.14,83.31 L 144.46,82.06 L 140.84,80.69 L 137.2,79.25 Z" fill="#1a1a1a" fill-opacity="0.55" stroke="#1a1a1a" stroke-width="0.4" stroke-opacity="0.55" stroke-linejoin="round" />
  <path d="M 267.14,127.28 L 270.86,128.62 L 274.58,129.97 L 278.32,131.32 L 282.07,132.66 L 285.82,134.01 L 289.58,135.37 L 293.32,136.75 L 297.04,138.15 L 300.75,139.55 L 304.44,140.95 L 308.12,142.35 L 311.79,143.73 L 315.46,145.09 L 319.13,146.43 L 322.8,147.75 L 326.47,149.06 L 330.16,150.41 L 333.88,151.79 L 337.58,153.18 L 341.22,154.48 L 344.78,155.72 L 344.97,155.16 L 341.42,153.92 L 337.8,152.58 L 334.11,151.17 L 330.39,149.78 L 326.7,148.43 L 323.03,147.11 L 319.37,145.79 L 315.7,144.45 L 312.03,143.08 L 308.36,141.7 L 304.69,140.3 L 301,138.9 L 297.29,137.51 L 293.55,136.12 L 289.81,134.74 L 286.05,133.37 L 282.3,132.02 L 278.55,130.68 L 274.8,129.36 L 271.06,128.05 L 267.34,126.73 Z" fill="#1a1a1a" fill-opacity="0.55" stroke="#1a1a1a" stroke-width="0.4" stroke-opacity="0.55" stroke-linejoin="round" />
  <path d="M 130.58,84.82 L 134.31,86.3 L 137.98,87.77 L 141.59,89.18 L 145.24,90.51 L 148.91,91.83 L 152.57,93.15 L 156.24,94.49 L 159.94,95.83 L 163.68,97.18 L 167.45,98.55 L 171.23,99.92 L 175.02,101.29 L 178.8,102.68 L 182.57,104.05 L 186.3,105.41 L 190.03,106.75 L 193.75,108.08 L 197.47,109.41 L 201.19,110.76 L 201.4,110.21 L 197.68,108.84 L 193.97,107.47 L 190.26,106.11 L 186.54,104.76 L 182.8,103.41 L 179.04,102.04 L 175.25,100.66 L 171.46,99.28 L 167.68,97.91 L 163.91,96.55 L 160.17,95.2 L 156.48,93.84 L 152.81,92.5 L 149.15,91.17 L 145.49,89.84 L 141.85,88.5 L 138.23,87.13 L 134.55,85.71 L 130.8,84.25 Z" fill="#1a1a1a" fill-opacity="0.55" stroke="#1a1a1a" stroke-width="0.4" stroke-opacity="0.55" stroke-linejoin="round" />
  <path d="M 272.61,136.48 L 276.35,137.79 L 280.07,139.12 L 283.78,140.45 L 287.48,141.79 L 291.17,143.14 L 294.87,144.52 L 298.59,145.92 L 302.33,147.33 L 306.08,148.77 L 309.84,150.23 L 313.59,151.68 L 317.35,153.12 L 321.11,154.53 L 324.89,155.9 L 328.69,157.27 L 332.46,158.67 L 336.2,160.08 L 339.9,161.43 L 343.54,162.6 L 347.19,163.92 L 347.39,163.37 L 343.74,162.02 L 340.11,160.81 L 336.44,159.44 L 332.71,158.02 L 328.92,156.62 L 325.13,155.25 L 321.35,153.88 L 317.59,152.48 L 313.84,151.05 L 310.09,149.59 L 306.33,148.14 L 302.57,146.7 L 298.83,145.28 L 295.11,143.89 L 291.4,142.52 L 287.71,141.16 L 284.01,139.82 L 280.29,138.52 L 276.55,137.22 L 272.8,135.93 Z" fill="#1a1a1a" fill-opacity="0.55" stroke="#1a1a1a" stroke-width="0.4" stroke-opacity="0.55" stroke-linejoin="round" />
  <path d="M 124.18,90.27 L 127.51,91.51 L 131.28,92.77 L 135.09,94.14 L 138.91,95.56 L 142.72,97 L 146.49,98.42 L 150.24,99.82 L 153.99,101.19 L 157.74,102.53 L 161.5,103.88 L 165.27,105.25 L 169.05,106.62 L 172.81,108 L 176.56,109.4 L 180.29,110.8 L 184,112.19 L 187.67,113.56 L 191.33,114.94 L 191.55,114.38 L 187.9,112.98 L 184.24,111.55 L 180.55,110.12 L 176.82,108.72 L 173.07,107.32 L 169.29,105.94 L 165.51,104.57 L 161.74,103.21 L 157.98,101.86 L 154.23,100.51 L 150.49,99.14 L 146.75,97.74 L 142.98,96.31 L 139.17,94.88 L 135.34,93.46 L 131.5,92.12 L 127.71,90.92 L 124.39,89.71 Z" fill="#1a1a1a" fill-opacity="0.55" stroke="#1a1a1a" stroke-width="0.4" stroke-opacity="0.55" stroke-linejoin="round" />
  <path d="M 277.23,145.75 L 280.94,147.17 L 284.63,148.6 L 288.31,150.03 L 291.99,151.45 L 295.68,152.85 L 299.38,154.23 L 303.1,155.6 L 306.83,156.96 L 310.58,158.3 L 314.34,159.63 L 318.1,160.96 L 321.84,162.27 L 325.58,163.58 L 329.32,164.88 L 333.05,166.16 L 336.79,167.45 L 340.58,168.74 L 344.48,170.02 L 348.41,171.41 L 348.61,170.85 L 344.67,169.45 L 340.78,168.13 L 337.01,166.82 L 333.27,165.53 L 329.54,164.24 L 325.8,162.94 L 322.07,161.62 L 318.33,160.3 L 314.57,158.97 L 310.82,157.63 L 307.07,156.29 L 303.34,154.95 L 299.62,153.59 L 295.91,152.21 L 292.23,150.81 L 288.55,149.41 L 284.85,148.01 L 281.15,146.61 L 277.44,145.21 Z" fill="#1a1a1a" fill-opacity="0.55" stroke="#1a1a1a" stroke-width="0.4" stroke-opacity="0.55" stroke-linejoin="round" />
  <path d="M 119.03,95.64 L 122.44,96.9 L 126.05,98.23 L 129.78,99.57 L 133.51,100.91 L 137.24,102.28 L 140.94,103.65 L 144.61,105.02 L 148.3,106.37 L 151.99,107.73 L 155.7,109.09 L 159.44,110.46 L 163.19,111.83 L 166.94,113.19 L 170.69,114.55 L 174.44,115.9 L 178.18,117.24 L 181.92,118.56 L 185.68,119.89 L 185.89,119.32 L 182.14,117.96 L 178.41,116.59 L 174.68,115.23 L 170.93,113.88 L 167.18,112.53 L 163.42,111.17 L 159.68,109.81 L 155.94,108.45 L 152.23,107.09 L 148.53,105.73 L 144.85,104.38 L 141.18,103 L 137.48,101.62 L 133.76,100.24 L 130.02,98.9 L 126.28,97.6 L 122.65,96.31 L 119.23,95.08 Z" fill="#1a1a1a" fill-opacity="0.55" stroke="#1a1a1a" stroke-width="0.4" stroke-opacity="0.55" stroke-linejoin="round" />
  <path d="M 278.58,153.44 L 282.32,154.83 L 286.03,156.23 L 289.73,157.62 L 293.44,159 L 297.16,160.38 L 300.88,161.75 L 304.62,163.12 L 308.37,164.48 L 312.1,165.84 L 315.81,167.2 L 319.49,168.58 L 323.13,169.96 L 326.77,171.35 L 330.41,172.73 L 334.1,174.12 L 337.87,175.51 L 341.69,176.87 L 345.55,178.27 L 349.2,179.7 L 349.41,179.17 L 345.76,177.71 L 341.91,176.28 L 338.1,174.88 L 334.34,173.48 L 330.65,172.08 L 327.02,170.69 L 323.39,169.3 L 319.74,167.91 L 316.06,166.52 L 312.35,165.16 L 308.62,163.8 L 304.87,162.44 L 301.13,161.08 L 297.41,159.7 L 293.7,158.32 L 289.99,156.94 L 286.27,155.59 L 282.54,154.24 L 278.79,152.88 Z" fill="#1a1a1a" fill-opacity="0.55" stroke="#1a1a1a" stroke-width="0.4" stroke-opacity="0.55" stroke-linejoin="round" />
  <path d="M 113.44,101.12 L 117.19,102.71 L 120.83,104.17 L 124.58,105.6 L 128.41,106.93 L 132.24,108.2 L 136.07,109.48 L 139.89,110.77 L 143.7,112.09 L 147.49,113.46 L 151.26,114.86 L 155.01,116.26 L 158.74,117.66 L 162.47,119.05 L 166.19,120.41 L 169.92,121.77 L 173.65,123.1 L 177.39,124.43 L 181.13,125.76 L 181.34,125.2 L 177.61,123.83 L 173.88,122.46 L 170.16,121.09 L 166.44,119.74 L 162.72,118.38 L 158.99,116.99 L 155.25,115.6 L 151.51,114.2 L 147.73,112.8 L 143.94,111.43 L 140.12,110.1 L 136.29,108.81 L 132.46,107.54 L 128.63,106.27 L 124.81,104.96 L 121.06,103.57 L 117.42,102.15 L 113.67,100.58 Z" fill="#1a1a1a" fill-opacity="0.55" stroke="#1a1a1a" stroke-width="0.4" stroke-opacity="0.55" stroke-linejoin="round" />
  <path d="M 278.53,161.51 L 282.25,162.87 L 285.97,164.25 L 289.67,165.61 L 293.39,166.96 L 297.13,168.3 L 300.88,169.64 L 304.66,170.98 L 308.46,172.32 L 312.26,173.68 L 316.05,175.05 L 319.79,176.44 L 323.5,177.84 L 327.18,179.24 L 330.88,180.63 L 334.68,181.99 L 338.6,183.33 L 342.54,184.64 L 346.52,185.86 L 350.24,187.1 L 350.43,186.54 L 346.71,185.28 L 342.75,184 L 338.83,182.66 L 334.92,181.31 L 331.13,179.95 L 327.43,178.56 L 323.75,177.17 L 320.04,175.78 L 316.29,174.39 L 312.5,173.02 L 308.69,171.66 L 304.9,170.31 L 301.12,168.98 L 297.36,167.64 L 293.63,166.31 L 289.91,164.97 L 286.19,163.64 L 282.46,162.31 L 278.73,160.96 Z" fill="#1a1a1a" fill-opacity="0.55" stroke="#1a1a1a" stroke-width="0.4" stroke-opacity="0.55" stroke-linejoin="round" />
  <path d="M 108.18,106.65 L 111.75,107.95 L 115.49,109.26 L 119.26,110.64 L 123.01,112.09 L 126.72,113.61 L 130.42,115.14 L 134.1,116.66 L 137.78,118.11 L 141.46,119.49 L 145.16,120.83 L 148.88,122.16 L 152.63,123.48 L 156.39,124.81 L 160.16,126.15 L 163.92,127.5 L 167.68,128.84 L 171.42,130.17 L 175.14,131.51 L 175.35,130.95 L 171.63,129.59 L 167.9,128.21 L 164.16,126.84 L 160.4,125.48 L 156.63,124.14 L 152.87,122.81 L 149.12,121.49 L 145.4,120.17 L 141.71,118.83 L 138.03,117.44 L 134.37,116 L 130.69,114.49 L 126.99,112.96 L 123.27,111.45 L 119.5,110 L 115.71,108.65 L 111.95,107.38 L 108.38,106.1 Z" fill="#1a1a1a" fill-opacity="0.55" stroke="#1a1a1a" stroke-width="0.4" stroke-opacity="0.55" stroke-linejoin="round" />
  <path d="M 279.23,169.09 L 282.96,170.47 L 286.67,171.86 L 290.38,173.22 L 294.1,174.57 L 297.82,175.92 L 301.56,177.28 L 305.32,178.64 L 309.09,179.98 L 312.86,181.31 L 316.64,182.63 L 320.38,183.93 L 324.11,185.22 L 327.85,186.54 L 331.59,187.88 L 335.33,189.23 L 339.04,190.58 L 342.74,191.87 L 346.48,193.21 L 350.17,194.76 L 350.41,194.21 L 346.71,192.63 L 342.97,191.23 L 339.28,189.9 L 335.58,188.56 L 331.83,187.21 L 328.08,185.87 L 324.34,184.56 L 320.61,183.27 L 316.87,181.98 L 313.09,180.67 L 309.32,179.34 L 305.55,178 L 301.8,176.64 L 298.06,175.27 L 294.34,173.9 L 290.62,172.55 L 286.9,171.21 L 283.18,169.88 L 279.44,168.52 Z" fill="#1a1a1a" fill-opacity="0.55" stroke="#1a1a1a" stroke-width="0.4" stroke-opacity="0.55" stroke-linejoin="round" />
  <path d="M 104.35,112.82 L 108.01,114.51 L 111.61,115.79 L 115.32,117.03 L 119.12,118.28 L 122.91,119.59 L 126.64,120.92 L 130.3,122.26 L 133.94,123.59 L 137.59,124.93 L 141.27,126.26 L 144.98,127.6 L 148.72,128.95 L 152.48,130.3 L 156.24,131.65 L 160,133.01 L 163.76,134.37 L 167.49,135.71 L 171.23,137.05 L 174.96,138.4 L 175.16,137.84 L 171.44,136.47 L 167.72,135.09 L 163.99,133.72 L 160.24,132.35 L 156.48,131 L 152.71,129.65 L 148.95,128.31 L 145.2,126.98 L 141.49,125.65 L 137.81,124.32 L 134.17,122.98 L 130.53,121.63 L 126.87,120.27 L 123.14,118.93 L 119.35,117.61 L 115.54,116.35 L 111.83,115.15 L 108.24,113.93 L 104.6,112.28 Z" fill="#1a1a1a" fill-opacity="0.55" stroke="#1a1a1a" stroke-width="0.4" stroke-opacity="0.55" stroke-linejoin="round" />
  <path d="M 279.06,176.42 L 282.77,177.85 L 286.46,179.27 L 290.13,180.68 L 293.8,182.05 L 297.46,183.38 L 301.13,184.69 L 304.79,185.98 L 308.46,187.28 L 312.15,188.59 L 315.86,189.93 L 319.59,191.27 L 323.34,192.59 L 327.12,193.91 L 330.91,195.23 L 334.7,196.56 L 338.47,197.88 L 342.09,199.22 L 345.72,200.53 L 349.34,202.05 L 349.57,201.5 L 345.94,199.96 L 342.32,198.6 L 338.71,197.23 L 334.93,195.9 L 331.14,194.56 L 327.35,193.24 L 323.57,191.93 L 319.82,190.61 L 316.09,189.27 L 312.39,187.93 L 308.7,186.61 L 305.03,185.31 L 301.36,184.01 L 297.71,182.71 L 294.04,181.39 L 290.37,180.04 L 286.69,178.67 L 282.98,177.28 L 279.27,175.88 Z" fill="#1a1a1a" fill-opacity="0.55" stroke="#1a1a1a" stroke-width="0.4" stroke-opacity="0.55" stroke-linejoin="round" />
  <path d="M 100.46,118.79 L 104.06,120.14 L 107.65,121.51 L 111.36,122.83 L 115.07,124.14 L 118.77,125.49 L 122.46,126.84 L 126.16,128.19 L 129.87,129.54 L 133.58,130.88 L 137.29,132.24 L 140.98,133.62 L 144.66,135.01 L 148.33,136.4 L 151.99,137.78 L 155.64,139.15 L 159.3,140.52 L 163,141.87 L 166.71,143.21 L 170.42,144.56 L 170.63,144 L 166.92,142.62 L 163.23,141.24 L 159.55,139.85 L 155.89,138.49 L 152.24,137.12 L 148.58,135.74 L 144.91,134.35 L 141.23,132.96 L 137.53,131.58 L 133.82,130.22 L 130.11,128.86 L 126.41,127.51 L 122.71,126.16 L 119.02,124.81 L 115.31,123.47 L 111.58,122.17 L 107.87,120.9 L 104.27,119.57 L 100.67,118.24 Z" fill="#1a1a1a" fill-opacity="0.55" stroke="#1a1a1a" stroke-width="0.4" stroke-opacity="0.55" stroke-linejoin="round" />
  <path d="M 274.52,182.08 L 278.2,183.45 L 281.87,184.83 L 285.53,186.22 L 289.2,187.59 L 292.88,188.95 L 296.58,190.29 L 300.31,191.63 L 304.07,192.96 L 307.83,194.28 L 311.58,195.61 L 315.32,196.95 L 319.03,198.31 L 322.74,199.69 L 326.48,201.1 L 330.23,202.51 L 334,203.9 L 337.78,205.24 L 341.54,206.53 L 345.21,207.81 L 348.77,209.1 L 348.97,208.55 L 345.42,207.23 L 341.76,205.9 L 338.01,204.58 L 334.24,203.23 L 330.48,201.85 L 326.73,200.45 L 322.99,199.04 L 319.27,197.66 L 315.56,196.29 L 311.82,194.95 L 308.07,193.62 L 304.3,192.3 L 300.55,190.97 L 296.82,189.64 L 293.12,188.29 L 289.45,186.93 L 285.78,185.57 L 282.1,184.21 L 278.41,182.87 L 274.73,181.52 Z" fill="#1a1a1a" fill-opacity="0.55" stroke="#1a1a1a" stroke-width="0.4" stroke-opacity="0.55" stroke-linejoin="round" />
  <path d="M 97.03,125.1 L 100.62,126.24 L 104.44,127.52 L 108.13,129.01 L 111.75,130.48 L 115.4,131.84 L 119.09,133.18 L 122.83,134.51 L 126.61,135.85 L 130.38,137.21 L 134.15,138.56 L 137.88,139.93 L 141.6,141.3 L 145.3,142.68 L 149,144.07 L 152.7,145.47 L 156.42,146.84 L 160.17,148.17 L 163.93,149.47 L 167.69,150.76 L 171.44,152.06 L 171.63,151.51 L 167.89,150.19 L 164.14,148.87 L 160.39,147.54 L 156.65,146.21 L 152.93,144.85 L 149.23,143.46 L 145.53,142.07 L 141.82,140.69 L 138.11,139.32 L 134.37,137.95 L 130.6,136.59 L 126.83,135.24 L 123.06,133.88 L 119.32,132.53 L 115.64,131.18 L 112.01,129.83 L 108.4,128.36 L 104.67,126.89 L 100.81,125.65 L 97.21,124.53 Z" fill="#1a1a1a" fill-opacity="0.55" stroke="#1a1a1a" stroke-width="0.4" stroke-opacity="0.55" stroke-linejoin="round" />
  <path d="M 272.27,189.03 L 275.98,190.37 L 279.7,191.71 L 283.41,193.05 L 287.13,194.37 L 290.86,195.7 L 294.61,197.05 L 298.39,198.4 L 302.18,199.77 L 305.98,201.13 L 309.8,202.5 L 313.6,203.85 L 317.4,205.18 L 321.18,206.49 L 324.93,207.81 L 328.64,209.16 L 332.3,210.56 L 335.93,211.97 L 339.46,213.37 L 343.06,214.73 L 346.83,215.87 L 347.01,215.31 L 343.25,214.15 L 339.7,212.76 L 336.18,211.33 L 332.55,209.9 L 328.88,208.5 L 325.17,207.15 L 321.42,205.81 L 317.64,204.49 L 313.85,203.16 L 310.04,201.81 L 306.23,200.44 L 302.43,199.07 L 298.64,197.71 L 294.86,196.35 L 291.11,195.02 L 287.37,193.69 L 283.65,192.38 L 279.92,191.09 L 276.19,189.79 L 272.47,188.47 Z" fill="#1a1a1a" fill-opacity="0.55" stroke="#1a1a1a" stroke-width="0.4" stroke-opacity="0.55" stroke-linejoin="round" />
  <path d="M 93.75,131.26 L 97.54,132.74 L 101.43,134.15 L 105.18,135.58 L 108.86,136.96 L 112.55,138.3 L 116.26,139.58 L 120.01,140.86 L 123.77,142.18 L 127.53,143.52 L 131.29,144.92 L 135.05,146.34 L 138.83,147.76 L 142.62,149.19 L 146.41,150.6 L 150.2,151.98 L 153.97,153.36 L 157.74,154.73 L 161.49,156.09 L 165.23,157.44 L 168.96,158.8 L 169.17,158.25 L 165.44,156.88 L 161.71,155.5 L 157.96,154.11 L 154.2,152.73 L 150.42,151.36 L 146.64,149.97 L 142.85,148.56 L 139.07,147.12 L 135.3,145.69 L 131.54,144.25 L 127.77,142.85 L 124,141.51 L 120.24,140.2 L 116.49,138.93 L 112.78,137.65 L 109.1,136.31 L 105.42,134.94 L 101.66,133.54 L 97.75,132.17 L 93.96,130.72 Z" fill="#1a1a1a" fill-opacity="0.55" stroke="#1a1a1a" stroke-width="0.4" stroke-opacity="0.55" stroke-linejoin="round" />
  <path d="M 266.38,194.17 L 270.11,195.54 L 273.84,196.9 L 277.57,198.26 L 281.31,199.59 L 285.05,200.92 L 288.81,202.24 L 292.58,203.56 L 296.36,204.87 L 300.17,206.21 L 303.98,207.59 L 307.78,209.01 L 311.57,210.46 L 315.34,211.91 L 319.1,213.35 L 322.87,214.76 L 326.65,216.13 L 330.39,217.5 L 334.08,218.87 L 337.75,220.2 L 341.45,221.44 L 345.26,222.98 L 345.48,222.43 L 341.67,220.86 L 337.96,219.58 L 334.32,218.23 L 330.63,216.85 L 326.89,215.47 L 323.12,214.08 L 319.36,212.67 L 315.6,211.23 L 311.83,209.78 L 308.04,208.34 L 304.23,206.92 L 300.41,205.54 L 296.6,204.2 L 292.81,202.88 L 289.04,201.56 L 285.29,200.25 L 281.53,198.94 L 277.79,197.63 L 274.04,196.32 L 270.31,194.98 L 266.58,193.63 Z" fill="#1a1a1a" fill-opacity="0.55" stroke="#1a1a1a" stroke-width="0.4" stroke-opacity="0.55" stroke-linejoin="round" />
  <path d="M 90.89,137.61 L 94.78,139.1 L 98.57,140.5 L 102.31,141.84 L 106.02,143.21 L 109.7,144.59 L 113.35,145.95 L 116.96,147.3 L 120.58,148.65 L 124.2,150.01 L 127.85,151.36 L 131.54,152.7 L 135.26,154.03 L 138.99,155.36 L 142.73,156.68 L 146.47,158.01 L 150.21,159.34 L 153.95,160.69 L 157.69,162.02 L 161.45,163.35 L 165.21,164.69 L 168.98,166.03 L 169.17,165.48 L 165.42,164.11 L 161.67,162.74 L 157.92,161.38 L 154.19,160.03 L 150.44,158.69 L 146.7,157.35 L 142.96,156.02 L 139.23,154.7 L 135.5,153.37 L 131.78,152.04 L 128.09,150.69 L 124.45,149.34 L 120.82,147.99 L 117.21,146.64 L 113.6,145.29 L 109.95,143.92 L 106.27,142.54 L 102.55,141.19 L 98.79,139.88 L 94.99,138.53 L 91.1,137.06 Z" fill="#1a1a1a" fill-opacity="0.55" stroke="#1a1a1a" stroke-width="0.4" stroke-opacity="0.55" stroke-linejoin="round" />
  <path d="M 261.94,199.81 L 265.67,201.14 L 269.42,202.49 L 273.16,203.85 L 276.91,205.22 L 280.65,206.58 L 284.38,207.95 L 288.1,209.32 L 291.81,210.68 L 295.5,212.06 L 299.2,213.44 L 302.89,214.84 L 306.58,216.25 L 310.28,217.64 L 313.97,219.02 L 317.66,220.42 L 321.34,221.84 L 325,223.29 L 328.66,224.75 L 332.36,226.18 L 336.11,227.57 L 339.86,228.9 L 343.63,229.85 L 343.77,229.28 L 340.04,228.32 L 336.33,226.96 L 332.61,225.53 L 328.92,224.08 L 325.27,222.62 L 321.6,221.17 L 317.91,219.75 L 314.22,218.35 L 310.53,216.97 L 306.83,215.59 L 303.14,214.2 L 299.44,212.8 L 295.74,211.42 L 292.05,210.04 L 288.34,208.66 L 284.63,207.29 L 280.9,205.91 L 277.15,204.55 L 273.4,203.2 L 269.63,201.87 L 265.88,200.56 L 262.13,199.25 Z" fill="#1a1a1a" fill-opacity="0.55" stroke="#1a1a1a" stroke-width="0.4" stroke-opacity="0.55" stroke-linejoin="round" />
  <path d="M 88.1,144.37 L 91.5,145.44 L 95.06,146.84 L 98.85,148.31 L 102.64,149.68 L 106.43,150.98 L 110.21,152.27 L 114,153.59 L 117.78,154.92 L 121.55,156.27 L 125.31,157.63 L 129.05,159.01 L 132.79,160.39 L 136.53,161.76 L 140.28,163.14 L 144.02,164.51 L 147.75,165.86 L 151.48,167.2 L 155.19,168.53 L 158.9,169.86 L 162.61,171.19 L 166.33,172.5 L 170.06,173.83 L 173.78,175.18 L 173.99,174.62 L 170.27,173.25 L 166.56,171.88 L 162.85,170.53 L 159.14,169.19 L 155.43,167.86 L 151.72,166.53 L 148,165.18 L 144.26,163.83 L 140.52,162.46 L 136.78,161.09 L 133.03,159.73 L 129.29,158.36 L 125.55,156.98 L 121.78,155.63 L 118.01,154.28 L 114.23,152.95 L 110.43,151.63 L 106.65,150.33 L 102.87,149.02 L 99.08,147.67 L 95.29,146.24 L 91.7,144.87 L 88.28,143.8 Z" fill="#1a1a1a" fill-opacity="0.55" stroke="#1a1a1a" stroke-width="0.4" stroke-opacity="0.55" stroke-linejoin="round" />
  <path d="M 256.01,205.17 L 259.73,206.54 L 263.45,207.92 L 267.19,209.31 L 270.93,210.7 L 274.68,212.07 L 278.42,213.43 L 282.16,214.78 L 285.9,216.12 L 289.65,217.45 L 293.4,218.78 L 297.14,220.11 L 300.87,221.47 L 304.55,222.84 L 308.2,224.22 L 311.84,225.59 L 315.51,226.94 L 319.2,228.27 L 322.93,229.58 L 326.69,230.9 L 330.49,232.2 L 334.31,233.49 L 338.02,234.77 L 341.57,236.27 L 341.79,235.74 L 338.24,234.21 L 334.51,232.9 L 330.71,231.59 L 326.91,230.27 L 323.16,228.95 L 319.42,227.63 L 315.74,226.3 L 312.09,224.94 L 308.44,223.57 L 304.79,222.19 L 301.11,220.82 L 297.38,219.46 L 293.63,218.12 L 289.88,216.79 L 286.14,215.46 L 282.4,214.13 L 278.66,212.78 L 274.92,211.41 L 271.18,210.03 L 267.43,208.66 L 263.68,207.3 L 259.94,205.95 L 256.21,204.6 Z" fill="#1a1a1a" fill-opacity="0.55" stroke="#1a1a1a" stroke-width="0.4" stroke-opacity="0.55" stroke-linejoin="round" />
  <path d="M 85.8,150.55 L 89.46,152 L 93.17,153.37 L 96.89,154.68 L 100.67,156.01 L 104.44,157.38 L 108.18,158.77 L 111.93,160.16 L 115.69,161.54 L 119.45,162.9 L 123.2,164.25 L 126.93,165.6 L 130.63,166.95 L 134.32,168.3 L 138,169.66 L 141.68,171.02 L 145.37,172.39 L 149.07,173.75 L 152.79,175.12 L 156.54,176.49 L 160.3,177.85 L 164.07,179.19 L 167.85,180.53 L 171.61,181.87 L 175.37,183.22 L 175.56,182.67 L 171.81,181.31 L 168.06,179.95 L 164.3,178.57 L 160.54,177.2 L 156.78,175.84 L 153.03,174.47 L 149.31,173.1 L 145.61,171.73 L 141.92,170.37 L 138.24,169 L 134.57,167.64 L 130.88,166.28 L 127.17,164.93 L 123.44,163.58 L 119.69,162.23 L 115.93,160.87 L 112.17,159.5 L 108.43,158.12 L 104.68,156.73 L 100.9,155.36 L 97.11,154.05 L 93.38,152.77 L 89.67,151.44 L 86.02,150.01 Z" fill="#1a1a1a" fill-opacity="0.55" stroke="#1a1a1a" stroke-width="0.4" stroke-opacity="0.55" stroke-linejoin="round" />
  <path d="M 245.81,208.98 L 249.52,210.34 L 253.24,211.71 L 256.97,213.07 L 260.72,214.43 L 264.48,215.79 L 268.26,217.15 L 272.05,218.51 L 275.84,219.88 L 279.63,221.23 L 283.41,222.58 L 287.18,223.92 L 290.94,225.27 L 294.68,226.63 L 298.41,227.99 L 302.14,229.36 L 305.85,230.73 L 309.55,232.08 L 313.24,233.44 L 316.93,234.79 L 320.63,236.13 L 324.33,237.47 L 328.03,238.81 L 331.72,240.16 L 335.49,241.55 L 339.12,242.9 L 339.32,242.36 L 335.7,240.99 L 331.93,239.58 L 328.25,238.2 L 324.56,236.84 L 320.85,235.5 L 317.15,234.16 L 313.46,232.82 L 309.78,231.47 L 306.08,230.11 L 302.36,228.75 L 298.64,227.38 L 294.91,226.01 L 291.16,224.65 L 287.41,223.3 L 283.64,221.95 L 279.85,220.6 L 276.06,219.25 L 272.27,217.88 L 268.49,216.51 L 264.72,215.14 L 260.96,213.77 L 257.2,212.43 L 253.46,211.09 L 249.74,209.76 L 246.02,208.41 Z" fill="#1a1a1a" fill-opacity="0.55" stroke="#1a1a1a" stroke-width="0.4" stroke-opacity="0.55" stroke-linejoin="round" />
  <path d="M 83.79,157.46 L 87.51,158.72 L 91.24,160.06 L 94.98,161.41 L 98.64,162.77 L 102.29,164.12 L 105.95,165.45 L 109.63,166.79 L 113.32,168.14 L 117.01,169.48 L 120.72,170.82 L 124.43,172.18 L 128.15,173.55 L 131.88,174.93 L 135.61,176.31 L 139.35,177.69 L 143.09,179.07 L 146.82,180.45 L 150.55,181.81 L 154.27,183.17 L 157.99,184.53 L 161.7,185.88 L 165.41,187.24 L 169.12,188.6 L 172.83,189.94 L 176.53,191.27 L 180.23,192.6 L 183.91,193.94 L 184.12,193.38 L 180.44,192.02 L 176.76,190.66 L 173.07,189.3 L 169.37,187.93 L 165.66,186.56 L 161.95,185.21 L 158.24,183.85 L 154.52,182.49 L 150.79,181.13 L 147.07,179.77 L 143.33,178.41 L 139.59,177.04 L 135.85,175.66 L 132.11,174.29 L 128.38,172.92 L 124.66,171.55 L 120.94,170.2 L 117.24,168.85 L 113.55,167.5 L 109.86,166.15 L 106.18,164.81 L 102.53,163.47 L 98.88,162.13 L 95.2,160.8 L 91.45,159.47 L 87.7,158.16 L 83.98,156.9 Z" fill="#1a1a1a" fill-opacity="0.55" stroke="#1a1a1a" stroke-width="0.4" stroke-opacity="0.55" stroke-linejoin="round" />
  <path d="M 232.57,211.81 L 236.27,213.16 L 239.96,214.52 L 243.65,215.89 L 247.34,217.27 L 251.03,218.64 L 254.73,220 L 258.43,221.35 L 262.14,222.69 L 265.87,224.02 L 269.63,225.33 L 273.4,226.63 L 277.17,227.93 L 280.95,229.23 L 284.71,230.53 L 288.46,231.84 L 292.19,233.17 L 295.9,234.51 L 299.61,235.86 L 303.31,237.24 L 307.01,238.64 L 310.7,240.03 L 314.39,241.41 L 318.06,242.78 L 321.72,244.13 L 325.36,245.48 L 329.05,246.85 L 332.8,248.23 L 336.55,249.29 L 336.71,248.74 L 332.98,247.67 L 329.26,246.28 L 325.59,244.88 L 321.96,243.5 L 318.31,242.14 L 314.63,240.76 L 310.95,239.37 L 307.25,237.98 L 303.56,236.58 L 299.85,235.2 L 296.14,233.84 L 292.42,232.5 L 288.69,231.18 L 284.94,229.87 L 281.18,228.56 L 277.41,227.25 L 273.63,225.94 L 269.87,224.64 L 266.12,223.32 L 262.38,222 L 258.67,220.68 L 254.97,219.34 L 251.28,217.98 L 247.58,216.63 L 243.88,215.28 L 240.18,213.94 L 236.47,212.6 L 232.77,211.26 Z" fill="#1a1a1a" fill-opacity="0.55" stroke="#1a1a1a" stroke-width="0.4" stroke-opacity="0.55" stroke-linejoin="round" />
  <path d="M 81.78,164.25 L 85.51,165.5 L 89.27,166.9 L 93.06,168.28 L 96.91,169.66 L 100.75,171.07 L 104.55,172.51 L 108.26,173.96 L 111.95,175.4 L 115.63,176.81 L 119.33,178.17 L 123.06,179.48 L 126.81,180.78 L 130.57,182.09 L 134.32,183.4 L 138.08,184.75 L 141.85,186.1 L 145.61,187.47 L 149.4,188.84 L 153.19,190.22 L 157,191.58 L 160.81,192.95 L 164.61,194.31 L 168.41,195.67 L 172.2,197.04 L 175.98,198.42 L 179.75,199.81 L 183.53,201.2 L 187.3,202.59 L 191.08,203.98 L 194.86,205.36 L 198.63,206.73 L 202.39,208.08 L 206.15,209.43 L 209.9,210.76 L 213.64,212.09 L 217.37,213.4 L 221.11,214.71 L 224.84,216.01 L 228.57,217.32 L 232.29,218.63 L 236.01,219.97 L 239.73,221.31 L 243.44,222.67 L 247.15,224.05 L 250.85,225.43 L 254.54,226.81 L 258.24,228.18 L 261.94,229.55 L 265.65,230.92 L 269.36,232.28 L 273.09,233.66 L 276.82,235.04 L 280.57,236.43 L 284.33,237.82 L 288.09,239.21 L 291.87,240.6 L 295.66,241.99 L 299.46,243.38 L 303.25,244.76 L 307.03,246.11 L 310.79,247.44 L 314.53,248.77 L 318.26,250.11 L 322.01,251.5 L 325.72,252.89 L 329.32,254.25 L 333.16,255.75 L 333.37,255.21 L 329.53,253.71 L 325.93,252.34 L 322.21,250.94 L 318.47,249.54 L 314.74,248.19 L 311,246.85 L 307.25,245.5 L 303.48,244.13 L 299.69,242.74 L 295.89,241.35 L 292.11,239.96 L 288.33,238.57 L 284.56,237.18 L 280.81,235.78 L 277.06,234.39 L 273.33,233 L 269.61,231.62 L 265.89,230.26 L 262.18,228.89 L 258.48,227.53 L 254.78,226.16 L 251.09,224.79 L 247.38,223.42 L 243.67,222.05 L 239.96,220.69 L 236.24,219.34 L 232.52,218 L 228.79,216.68 L 225.06,215.38 L 221.33,214.07 L 217.6,212.77 L 213.86,211.45 L 210.12,210.13 L 206.38,208.79 L 202.62,207.44 L 198.86,206.09 L 195.09,204.72 L 191.32,203.34 L 187.54,201.95 L 183.76,200.57 L 179.98,199.18 L 176.21,197.79 L 172.43,196.4 L 168.65,195.03 L 164.85,193.66 L 161.04,192.29 L 157.24,190.92 L 153.44,189.54 L 149.64,188.17 L 145.86,186.79 L 142.09,185.43 L 138.32,184.08 L 134.56,182.74 L 130.8,181.43 L 127.04,180.12 L 123.29,178.82 L 119.56,177.51 L 115.87,176.17 L 112.19,174.78 L 108.5,173.36 L 104.77,171.93 L 100.97,170.49 L 97.11,169.09 L 93.27,167.71 L 89.47,166.34 L 85.71,164.95 L 81.97,163.69 Z" fill="#1a1a1a" fill-opacity="0.55" stroke="#1a1a1a" stroke-width="0.4" stroke-opacity="0.55" stroke-linejoin="round" />
  <path d="M 81.44,171.51 L 85.44,172.82 L 89.3,174.21 L 93.04,175.53 L 96.72,176.83 L 100.38,178.14 L 104.06,179.44 L 107.8,180.76 L 111.56,182.1 L 115.33,183.45 L 119.09,184.84 L 122.84,186.29 L 126.55,187.74 L 130.25,189.19 L 133.95,190.61 L 137.65,192 L 141.37,193.37 L 145.13,194.75 L 148.92,196.12 L 152.73,197.49 L 156.55,198.85 L 160.37,200.21 L 164.19,201.57 L 168,202.93 L 171.79,204.28 L 175.55,205.64 L 179.31,206.99 L 183.06,208.35 L 186.8,209.71 L 190.53,211.07 L 194.26,212.44 L 197.98,213.81 L 201.69,215.17 L 205.4,216.52 L 209.12,217.86 L 212.83,219.19 L 216.55,220.51 L 220.28,221.82 L 224.02,223.14 L 227.76,224.46 L 231.5,225.79 L 235.24,227.13 L 238.99,228.48 L 242.74,229.85 L 246.5,231.22 L 250.25,232.58 L 254,233.95 L 257.75,235.3 L 261.49,236.65 L 265.24,238 L 268.99,239.37 L 272.73,240.74 L 276.46,242.13 L 280.17,243.56 L 283.89,245.01 L 287.62,246.48 L 291.35,247.94 L 295.1,249.38 L 298.85,250.8 L 302.6,252.2 L 306.35,253.58 L 310.12,254.95 L 313.9,256.33 L 317.71,257.71 L 321.54,259.09 L 325.37,260.41 L 329.38,261.61 L 329.55,261.05 L 325.55,259.85 L 321.74,258.53 L 317.92,257.14 L 314.12,255.74 L 310.34,254.35 L 306.58,252.96 L 302.84,251.55 L 299.1,250.14 L 295.36,248.71 L 291.62,247.26 L 287.88,245.8 L 284.15,244.34 L 280.43,242.89 L 276.71,241.47 L 272.97,240.08 L 269.23,238.7 L 265.48,237.34 L 261.74,235.98 L 257.99,234.63 L 254.25,233.27 L 250.5,231.91 L 246.75,230.54 L 242.99,229.17 L 239.24,227.8 L 235.49,226.45 L 231.74,225.11 L 228,223.78 L 224.26,222.46 L 220.52,221.15 L 216.79,219.83 L 213.07,218.51 L 209.36,217.18 L 205.64,215.85 L 201.93,214.51 L 198.21,213.16 L 194.49,211.8 L 190.77,210.43 L 187.04,209.07 L 183.3,207.7 L 179.55,206.34 L 175.79,204.99 L 172.02,203.64 L 168.23,202.28 L 164.42,200.92 L 160.61,199.57 L 156.78,198.2 L 152.96,196.84 L 149.15,195.47 L 145.36,194.1 L 141.61,192.73 L 137.89,191.35 L 134.19,189.97 L 130.5,188.55 L 126.8,187.1 L 123.08,185.65 L 119.33,184.21 L 115.56,182.81 L 111.78,181.48 L 108.02,180.16 L 104.27,178.84 L 100.58,177.56 L 96.92,176.27 L 93.24,174.98 L 89.5,173.66 L 85.63,172.27 L 81.62,170.96 Z" fill="#1a1a1a" fill-opacity="0.55" stroke="#1a1a1a" stroke-width="0.4" stroke-opacity="0.55" stroke-linejoin="round" />
  <path d="M 80.97,178.76 L 84.77,179.72 L 88.45,181.15 L 92.06,182.54 L 95.71,183.87 L 99.41,185.19 L 103.17,186.53 L 106.93,187.89 L 110.69,189.24 L 114.45,190.59 L 118.19,191.95 L 121.9,193.33 L 125.58,194.71 L 129.25,196.09 L 132.9,197.47 L 136.54,198.84 L 140.18,200.2 L 143.83,201.56 L 147.48,202.91 L 151.13,204.27 L 154.79,205.63 L 158.44,206.99 L 162.11,208.36 L 165.78,209.74 L 169.46,211.1 L 173.15,212.46 L 176.86,213.81 L 180.56,215.16 L 184.26,216.49 L 187.95,217.81 L 191.64,219.14 L 195.32,220.48 L 199,221.83 L 202.68,223.19 L 206.37,224.55 L 210.07,225.92 L 213.77,227.3 L 217.48,228.68 L 221.2,230.05 L 224.93,231.42 L 228.66,232.79 L 232.4,234.15 L 236.14,235.49 L 239.89,236.84 L 243.65,238.18 L 247.4,239.53 L 251.15,240.89 L 254.88,242.25 L 258.59,243.62 L 262.29,244.99 L 265.97,246.36 L 269.66,247.73 L 273.34,249.09 L 277.03,250.43 L 280.72,251.74 L 284.43,253.04 L 288.14,254.33 L 291.85,255.62 L 295.56,256.91 L 299.29,258.23 L 303.01,259.57 L 306.71,260.92 L 310.37,262.27 L 314.01,263.63 L 317.68,265.01 L 321.5,266.38 L 325.31,267.59 L 325.49,267.03 L 321.69,265.83 L 317.88,264.46 L 314.22,263.07 L 310.58,261.7 L 306.92,260.34 L 303.22,258.98 L 299.5,257.63 L 295.78,256.3 L 292.07,254.99 L 288.36,253.69 L 284.66,252.39 L 280.96,251.09 L 277.27,249.77 L 273.58,248.43 L 269.9,247.07 L 266.22,245.69 L 262.54,244.32 L 258.84,242.94 L 255.12,241.57 L 251.39,240.21 L 247.65,238.86 L 243.89,237.51 L 240.13,236.17 L 236.38,234.82 L 232.64,233.48 L 228.9,232.13 L 225.17,230.77 L 221.44,229.41 L 217.72,228.04 L 214,226.67 L 210.3,225.3 L 206.6,223.93 L 202.91,222.56 L 199.23,221.2 L 195.55,219.84 L 191.87,218.5 L 188.19,217.16 L 184.5,215.83 L 180.8,214.5 L 177.1,213.15 L 173.39,211.81 L 169.7,210.46 L 166.02,209.1 L 162.35,207.72 L 158.68,206.35 L 155.03,204.97 L 151.38,203.6 L 147.73,202.24 L 144.08,200.89 L 140.43,199.54 L 136.79,198.18 L 133.15,196.81 L 129.49,195.43 L 125.83,194.04 L 122.14,192.66 L 118.43,191.29 L 114.69,189.94 L 110.92,188.6 L 107.15,187.26 L 103.38,185.92 L 99.62,184.59 L 95.92,183.28 L 92.27,181.97 L 88.66,180.59 L 84.95,179.15 L 81.11,178.19 Z" fill="#1a1a1a" fill-opacity="0.55" stroke="#1a1a1a" stroke-width="0.4" stroke-opacity="0.55" stroke-linejoin="round" />
  <path d="M 80.15,185.93 L 83.87,187.25 L 87.68,188.45 L 91.4,189.69 L 95.08,191.01 L 98.73,192.37 L 102.35,193.75 L 105.97,195.13 L 109.6,196.5 L 113.23,197.86 L 116.89,199.21 L 120.59,200.56 L 124.32,201.92 L 128.07,203.28 L 131.82,204.65 L 135.57,206.03 L 139.32,207.42 L 143.06,208.8 L 146.8,210.18 L 150.54,211.56 L 154.28,212.93 L 158.01,214.3 L 161.74,215.65 L 165.46,217.01 L 169.18,218.38 L 172.9,219.75 L 176.62,221.11 L 180.34,222.47 L 184.06,223.81 L 187.78,225.14 L 191.5,226.46 L 195.21,227.77 L 198.92,229.09 L 202.62,230.41 L 206.32,231.74 L 210.02,233.08 L 213.73,234.42 L 217.43,235.77 L 221.14,237.12 L 224.84,238.46 L 228.55,239.81 L 232.24,241.16 L 235.93,242.5 L 239.6,243.86 L 243.26,245.21 L 246.92,246.56 L 250.58,247.91 L 254.26,249.24 L 257.94,250.57 L 261.63,251.89 L 265.32,253.21 L 269,254.54 L 272.68,255.9 L 276.37,257.28 L 280.08,258.67 L 283.81,260.07 L 287.55,261.46 L 291.27,262.83 L 294.97,264.16 L 298.62,265.46 L 302.3,266.78 L 306.04,268.14 L 309.79,269.51 L 313.54,270.85 L 317.27,272.16 L 321.16,273.47 L 321.35,272.91 L 317.46,271.6 L 313.74,270.29 L 310,268.95 L 306.25,267.57 L 302.51,266.2 L 298.84,264.87 L 295.18,263.56 L 291.49,262.21 L 287.77,260.85 L 284.04,259.46 L 280.31,258.05 L 276.6,256.66 L 272.91,255.28 L 269.23,253.92 L 265.54,252.58 L 261.86,251.25 L 258.17,249.93 L 254.49,248.6 L 250.82,247.27 L 247.16,245.92 L 243.5,244.57 L 239.84,243.22 L 236.16,241.86 L 232.48,240.51 L 228.78,239.16 L 225.08,237.81 L 221.37,236.47 L 217.66,235.13 L 213.96,233.79 L 210.25,232.45 L 206.55,231.12 L 202.84,229.79 L 199.14,228.46 L 195.44,227.14 L 191.73,225.82 L 188.01,224.5 L 184.3,223.16 L 180.58,221.81 L 176.86,220.46 L 173.15,219.09 L 169.43,217.72 L 165.71,216.34 L 161.99,214.98 L 158.26,213.62 L 154.52,212.26 L 150.79,210.89 L 147.05,209.52 L 143.3,208.14 L 139.56,206.76 L 135.81,205.37 L 132.05,204 L 128.3,202.63 L 124.56,201.27 L 120.83,199.92 L 117.13,198.58 L 113.47,197.24 L 109.83,195.88 L 106.2,194.52 L 102.57,193.15 L 98.95,191.79 L 95.29,190.44 L 91.59,189.13 L 87.86,187.9 L 84.05,186.7 L 80.35,185.39 Z" fill="#1a1a1a" fill-opacity="0.55" stroke="#1a1a1a" stroke-width="0.4" stroke-opacity="0.55" stroke-linejoin="round" />
  <path d="M 80.4,193.59 L 84.26,194.96 L 88.06,196.15 L 91.76,197.34 L 95.46,198.63 L 99.19,200.03 L 102.94,201.46 L 106.68,202.87 L 110.42,204.25 L 114.16,205.62 L 117.9,206.99 L 121.67,208.36 L 125.45,209.74 L 129.23,211.11 L 133,212.48 L 136.77,213.86 L 140.52,215.23 L 144.25,216.6 L 147.98,217.97 L 151.71,219.35 L 155.42,220.72 L 159.14,222.09 L 162.85,223.46 L 166.57,224.82 L 170.3,226.17 L 174.04,227.53 L 177.78,228.9 L 181.51,230.28 L 185.24,231.67 L 188.98,233.06 L 192.73,234.46 L 196.48,235.85 L 200.25,237.25 L 204.02,238.64 L 207.8,240.02 L 211.58,241.4 L 215.37,242.76 L 219.16,244.11 L 222.94,245.45 L 226.72,246.79 L 230.49,248.13 L 234.25,249.47 L 238.01,250.81 L 241.77,252.15 L 245.53,253.48 L 249.27,254.81 L 253,256.14 L 256.72,257.49 L 260.41,258.83 L 264.1,260.19 L 267.79,261.57 L 271.47,262.97 L 275.14,264.38 L 278.82,265.78 L 282.5,267.15 L 286.19,268.49 L 289.89,269.81 L 293.61,271.13 L 297.37,272.47 L 301.2,273.87 L 305.05,275.27 L 308.87,276.67 L 312.6,278.03 L 316.1,279.54 L 316.33,279 L 312.81,277.49 L 309.08,276.11 L 305.26,274.7 L 301.41,273.28 L 297.59,271.87 L 293.83,270.51 L 290.11,269.17 L 286.42,267.84 L 282.75,266.49 L 279.07,265.11 L 275.4,263.71 L 271.72,262.3 L 268.04,260.9 L 264.35,259.52 L 260.66,258.17 L 256.96,256.82 L 253.24,255.48 L 249.51,254.14 L 245.77,252.81 L 242.02,251.47 L 238.25,250.13 L 234.49,248.79 L 230.72,247.45 L 226.95,246.12 L 223.18,244.78 L 219.4,243.43 L 215.62,242.07 L 211.83,240.71 L 208.05,239.33 L 204.27,237.95 L 200.5,236.56 L 196.74,235.17 L 192.98,233.77 L 189.23,232.38 L 185.49,230.99 L 181.76,229.61 L 178.02,228.23 L 174.29,226.86 L 170.55,225.5 L 166.82,224.15 L 163.1,222.79 L 159.39,221.42 L 155.68,220.04 L 151.96,218.66 L 148.24,217.28 L 144.51,215.91 L 140.77,214.54 L 137.02,213.17 L 133.25,211.8 L 129.47,210.43 L 125.69,209.07 L 121.9,207.7 L 118.13,206.34 L 114.39,204.98 L 110.65,203.62 L 106.91,202.25 L 103.16,200.85 L 99.41,199.44 L 95.67,198.05 L 91.95,196.77 L 88.24,195.58 L 84.45,194.4 L 80.59,193.04 Z" fill="#1a1a1a" fill-opacity="0.55" stroke="#1a1a1a" stroke-width="0.4" stroke-opacity="0.55" stroke-linejoin="round" />
  <path d="M 80.62,201.18 L 84.54,202.37 L 88.21,203.61 L 91.92,204.89 L 95.64,206.2 L 99.33,207.56 L 103.03,208.93 L 106.75,210.3 L 110.47,211.65 L 114.2,212.97 L 117.92,214.28 L 121.61,215.62 L 125.27,216.97 L 128.92,218.35 L 132.57,219.75 L 136.23,221.18 L 139.92,222.61 L 143.61,224.04 L 147.3,225.47 L 151,226.88 L 154.7,228.28 L 158.42,229.66 L 162.14,231.03 L 165.87,232.38 L 169.59,233.73 L 173.33,235.07 L 177.07,236.4 L 180.82,237.73 L 184.58,239.07 L 188.34,240.4 L 192.1,241.74 L 195.86,243.08 L 199.61,244.41 L 203.36,245.74 L 207.11,247.06 L 210.85,248.38 L 214.58,249.69 L 218.3,251 L 222.02,252.31 L 225.73,253.64 L 229.44,254.98 L 233.15,256.34 L 236.86,257.71 L 240.58,259.08 L 244.31,260.46 L 248.05,261.84 L 251.79,263.23 L 255.54,264.62 L 259.28,266.02 L 263.03,267.41 L 266.77,268.78 L 270.5,270.13 L 274.23,271.47 L 277.94,272.78 L 281.64,274.09 L 285.33,275.39 L 289.01,276.69 L 292.68,277.99 L 296.33,279.29 L 300.01,280.63 L 303.7,282.02 L 307.38,283.44 L 311.24,284.75 L 311.43,284.2 L 307.58,282.89 L 303.91,281.47 L 300.22,280.07 L 296.54,278.71 L 292.89,277.41 L 289.22,276.1 L 285.54,274.79 L 281.85,273.48 L 278.16,272.16 L 274.45,270.84 L 270.73,269.5 L 267,268.15 L 263.26,266.78 L 259.52,265.39 L 255.77,264 L 252.03,262.6 L 248.29,261.2 L 244.55,259.81 L 240.83,258.43 L 237.11,257.05 L 233.39,255.69 L 229.68,254.33 L 225.96,252.99 L 222.25,251.66 L 218.54,250.34 L 214.81,249.02 L 211.08,247.71 L 207.35,246.39 L 203.6,245.06 L 199.85,243.73 L 196.1,242.39 L 192.34,241.05 L 188.58,239.71 L 184.82,238.37 L 181.07,237.04 L 177.32,235.7 L 173.58,234.37 L 169.84,233.04 L 166.11,231.71 L 162.38,230.36 L 158.66,229 L 154.95,227.62 L 151.24,226.22 L 147.55,224.81 L 143.86,223.39 L 140.17,221.96 L 136.49,220.52 L 132.83,219.09 L 129.17,217.68 L 125.51,216.31 L 121.85,214.96 L 118.15,213.63 L 114.43,212.33 L 110.7,211.01 L 106.97,209.68 L 103.25,208.33 L 99.55,206.97 L 95.85,205.62 L 92.12,204.31 L 88.4,203.04 L 84.73,201.8 L 80.79,200.61 Z" fill="#1a1a1a" fill-opacity="0.55" stroke="#1a1a1a" stroke-width="0.4" stroke-opacity="0.55" stroke-linejoin="round" />
  <path d="M 80.79,208.68 L 84.35,210.08 L 88.17,211.48 L 91.98,212.82 L 95.78,214.14 L 99.59,215.48 L 103.4,216.84 L 107.21,218.21 L 111.01,219.57 L 114.78,220.94 L 118.51,222.31 L 122.23,223.68 L 125.95,225.05 L 129.67,226.41 L 133.38,227.77 L 137.1,229.15 L 140.83,230.54 L 144.57,231.93 L 148.33,233.32 L 152.1,234.71 L 155.86,236.08 L 159.63,237.44 L 163.39,238.78 L 167.14,240.1 L 170.89,241.41 L 174.63,242.72 L 178.38,244.04 L 182.12,245.36 L 185.86,246.69 L 189.6,248.03 L 193.34,249.38 L 197.08,250.74 L 200.81,252.09 L 204.55,253.43 L 208.28,254.75 L 212.02,256.07 L 215.75,257.38 L 219.49,258.68 L 223.23,259.99 L 226.98,261.31 L 230.73,262.64 L 234.48,263.98 L 238.22,265.34 L 241.94,266.71 L 245.64,268.1 L 249.33,269.5 L 253.02,270.91 L 256.73,272.32 L 260.44,273.73 L 264.18,275.14 L 267.93,276.54 L 271.7,277.95 L 275.46,279.37 L 279.22,280.79 L 282.96,282.2 L 286.7,283.6 L 290.43,284.99 L 294.15,286.37 L 297.9,287.79 L 301.71,289.14 L 305.18,290.12 L 305.34,289.55 L 301.9,288.57 L 298.11,287.23 L 294.36,285.79 L 290.65,284.4 L 286.93,283 L 283.2,281.58 L 279.46,280.15 L 275.7,278.72 L 271.94,277.3 L 268.18,275.88 L 264.43,274.47 L 260.69,273.07 L 256.98,271.66 L 253.28,270.25 L 249.58,268.83 L 245.89,267.43 L 242.19,266.04 L 238.47,264.67 L 234.73,263.31 L 230.97,261.96 L 227.22,260.63 L 223.47,259.31 L 219.73,258 L 215.99,256.69 L 212.26,255.38 L 208.53,254.06 L 204.79,252.74 L 201.06,251.4 L 197.32,250.06 L 193.58,248.71 L 189.84,247.36 L 186.1,246.02 L 182.35,244.69 L 178.61,243.37 L 174.87,242.06 L 171.12,240.75 L 167.38,239.44 L 163.62,238.12 L 159.87,236.78 L 156.1,235.42 L 152.34,234.04 L 148.58,232.65 L 144.82,231.26 L 141.08,229.87 L 137.35,228.48 L 133.63,227.11 L 129.91,225.75 L 126.19,224.4 L 122.47,223.05 L 118.74,221.69 L 115,220.33 L 111.23,218.96 L 107.43,217.59 L 103.62,216.23 L 99.8,214.88 L 95.99,213.54 L 92.19,212.23 L 88.38,210.9 L 84.56,209.51 L 81.01,208.12 Z" fill="#1a1a1a" fill-opacity="0.55" stroke="#1a1a1a" stroke-width="0.4" stroke-opacity="0.55" stroke-linejoin="round" />
  <path d="M 82.31,216.51 L 86.17,217.66 L 89.85,219 L 93.51,220.45 L 97.21,221.93 L 100.91,223.37 L 104.6,224.78 L 108.3,226.17 L 112.02,227.55 L 115.76,228.9 L 119.53,230.25 L 123.31,231.59 L 127.12,232.93 L 130.93,234.28 L 134.73,235.64 L 138.53,237.01 L 142.32,238.38 L 146.08,239.75 L 149.84,241.12 L 153.58,242.49 L 157.32,243.85 L 161.05,245.22 L 164.79,246.57 L 168.54,247.92 L 172.3,249.27 L 176.04,250.62 L 179.79,251.98 L 183.54,253.34 L 187.3,254.7 L 191.06,256.07 L 194.82,257.45 L 198.58,258.81 L 202.34,260.17 L 206.1,261.52 L 209.86,262.88 L 213.62,264.23 L 217.38,265.57 L 221.14,266.92 L 224.89,268.28 L 228.64,269.64 L 232.38,271.01 L 236.13,272.39 L 239.86,273.78 L 243.58,275.17 L 247.28,276.57 L 250.97,277.96 L 254.64,279.36 L 258.31,280.76 L 261.98,282.16 L 265.67,283.56 L 269.39,284.93 L 273.17,286.27 L 276.99,287.6 L 280.84,288.96 L 284.69,290.35 L 288.54,291.73 L 292.37,293.03 L 296.04,294.34 L 299.79,295.68 L 299.99,295.13 L 296.23,293.78 L 292.56,292.47 L 288.74,291.16 L 284.9,289.77 L 281.05,288.37 L 277.2,287 L 273.39,285.65 L 269.62,284.31 L 265.9,282.93 L 262.22,281.54 L 258.54,280.14 L 254.88,278.73 L 251.21,277.33 L 247.53,275.93 L 243.83,274.53 L 240.11,273.13 L 236.37,271.73 L 232.63,270.35 L 228.88,268.98 L 225.13,267.61 L 221.37,266.26 L 217.62,264.91 L 213.86,263.57 L 210.1,262.22 L 206.34,260.87 L 202.58,259.51 L 198.82,258.15 L 195.06,256.78 L 191.3,255.4 L 187.54,254.03 L 183.79,252.66 L 180.04,251.3 L 176.29,249.95 L 172.54,248.6 L 168.79,247.25 L 165.04,245.89 L 161.3,244.53 L 157.56,243.18 L 153.83,241.81 L 150.08,240.44 L 146.33,239.07 L 142.56,237.7 L 138.78,236.33 L 134.98,234.97 L 131.16,233.61 L 127.35,232.26 L 123.55,230.92 L 119.77,229.57 L 116,228.24 L 112.26,226.9 L 108.54,225.54 L 104.83,224.17 L 101.13,222.78 L 97.43,221.36 L 93.73,219.89 L 90.06,218.45 L 86.36,217.1 L 82.47,215.95 Z" fill="#1a1a1a" fill-opacity="0.55" stroke="#1a1a1a" stroke-width="0.4" stroke-opacity="0.55" stroke-linejoin="round" />
  <path d="M 84.11,224.73 L 87.99,226.18 L 91.76,227.44 L 95.52,228.68 L 99.28,229.95 L 103.02,231.23 L 106.77,232.53 L 110.51,233.85 L 114.24,235.19 L 117.96,236.55 L 121.67,237.93 L 125.37,239.32 L 129.08,240.72 L 132.78,242.14 L 136.47,243.58 L 140.17,245.03 L 143.87,246.49 L 147.57,247.93 L 151.27,249.35 L 154.97,250.76 L 158.68,252.15 L 162.39,253.51 L 166.11,254.84 L 169.83,256.14 L 173.56,257.44 L 177.28,258.74 L 181,260.04 L 184.7,261.35 L 188.41,262.68 L 192.11,264.02 L 195.8,265.36 L 199.51,266.7 L 203.21,268.03 L 206.91,269.37 L 210.61,270.7 L 214.32,272.03 L 218.03,273.35 L 221.76,274.68 L 225.5,276 L 229.26,277.33 L 233.04,278.66 L 236.82,280 L 240.62,281.36 L 244.4,282.74 L 248.17,284.14 L 251.92,285.55 L 255.66,286.96 L 259.41,288.36 L 263.15,289.74 L 266.89,291.1 L 270.64,292.44 L 274.4,293.77 L 278.21,295.08 L 282.01,296.38 L 285.79,297.68 L 289.52,298.99 L 293.06,300.34 L 293.27,299.8 L 289.72,298.44 L 285.99,297.12 L 282.21,295.81 L 278.41,294.5 L 274.61,293.17 L 270.85,291.83 L 267.11,290.48 L 263.38,289.1 L 259.65,287.71 L 255.9,286.31 L 252.16,284.91 L 248.4,283.5 L 244.64,282.11 L 240.85,280.73 L 237.05,279.35 L 233.27,278 L 229.5,276.66 L 225.74,275.32 L 222,273.99 L 218.28,272.67 L 214.57,271.34 L 210.86,270.01 L 207.16,268.68 L 203.46,267.34 L 199.75,266.01 L 196.05,264.68 L 192.34,263.35 L 188.64,262.03 L 184.93,260.72 L 181.22,259.42 L 177.5,258.11 L 173.78,256.8 L 170.06,255.49 L 166.34,254.19 L 162.62,252.86 L 158.92,251.51 L 155.21,250.13 L 151.51,248.72 L 147.81,247.3 L 144.12,245.86 L 140.42,244.4 L 136.73,242.94 L 133.03,241.49 L 129.33,240.06 L 125.63,238.64 L 121.93,237.24 L 118.22,235.86 L 114.49,234.5 L 110.75,233.18 L 106.99,231.89 L 103.24,230.61 L 99.48,229.35 L 95.71,228.1 L 91.94,226.87 L 88.19,225.62 L 84.32,224.19 Z" fill="#1a1a1a" fill-opacity="0.55" stroke="#1a1a1a" stroke-width="0.4" stroke-opacity="0.55" stroke-linejoin="round" />
  <path d="M 86.77,232.82 L 90.71,234.4 L 94.38,235.85 L 98.06,237.23 L 101.75,238.61 L 105.45,239.99 L 109.16,241.36 L 112.88,242.71 L 116.62,244.05 L 120.36,245.38 L 124.1,246.72 L 127.84,248.06 L 131.58,249.42 L 135.31,250.8 L 139.06,252.21 L 142.82,253.63 L 146.58,255.04 L 150.35,256.45 L 154.11,257.84 L 157.87,259.22 L 161.63,260.57 L 165.38,261.92 L 169.12,263.27 L 172.86,264.61 L 176.6,265.95 L 180.34,267.29 L 184.1,268.63 L 187.87,269.97 L 191.65,271.31 L 195.44,272.65 L 199.24,274 L 203.04,275.35 L 206.84,276.7 L 210.64,278.05 L 214.43,279.39 L 218.21,280.72 L 222,282.05 L 225.78,283.39 L 229.55,284.74 L 233.31,286.11 L 237.06,287.49 L 240.81,288.89 L 244.55,290.3 L 248.29,291.71 L 252.03,293.11 L 255.75,294.49 L 259.45,295.86 L 263.15,297.22 L 266.83,298.57 L 270.53,299.88 L 274.22,301.18 L 277.9,302.49 L 281.58,303.82 L 285.69,305.28 L 285.88,304.72 L 281.78,303.26 L 278.11,301.92 L 274.43,300.59 L 270.74,299.28 L 267.06,297.95 L 263.38,296.59 L 259.69,295.22 L 255.99,293.84 L 252.27,292.45 L 248.54,291.05 L 244.8,289.64 L 241.05,288.23 L 237.31,286.83 L 233.55,285.45 L 229.79,284.08 L 226.01,282.72 L 222.23,281.39 L 218.45,280.05 L 214.66,278.72 L 210.87,277.39 L 207.07,276.05 L 203.27,274.71 L 199.47,273.37 L 195.67,272.02 L 191.88,270.67 L 188.1,269.32 L 184.33,267.99 L 180.57,266.65 L 176.83,265.32 L 173.09,263.98 L 169.35,262.64 L 165.61,261.29 L 161.86,259.94 L 158.11,258.58 L 154.35,257.2 L 150.58,255.81 L 146.82,254.4 L 143.06,252.98 L 139.31,251.56 L 135.56,250.15 L 131.82,248.76 L 128.08,247.4 L 124.34,246.06 L 120.6,244.72 L 116.85,243.39 L 113.11,242.07 L 109.38,240.73 L 105.67,239.38 L 101.97,238.02 L 98.27,236.65 L 94.6,235.29 L 90.93,233.85 L 86.99,232.27 Z" fill="#1a1a1a" fill-opacity="0.55" stroke="#1a1a1a" stroke-width="0.4" stroke-opacity="0.55" stroke-linejoin="round" />
  <path d="M 90.57,241.98 L 94.46,243.3 L 98.18,244.7 L 101.97,246.11 L 105.74,247.48 L 109.49,248.85 L 113.22,250.23 L 116.95,251.61 L 120.69,252.98 L 124.43,254.34 L 128.16,255.7 L 131.89,257.05 L 135.6,258.41 L 139.31,259.78 L 143.01,261.14 L 146.71,262.51 L 150.41,263.89 L 154.11,265.27 L 157.81,266.64 L 161.52,268.01 L 165.24,269.37 L 168.98,270.72 L 172.73,272.06 L 176.49,273.39 L 180.26,274.71 L 184.02,276.03 L 187.78,277.35 L 191.53,278.69 L 195.29,280.04 L 199.04,281.4 L 202.79,282.76 L 206.55,284.14 L 210.31,285.52 L 214.06,286.9 L 217.8,288.29 L 221.52,289.67 L 225.23,291.05 L 228.92,292.44 L 232.61,293.81 L 236.29,295.17 L 239.98,296.53 L 243.69,297.88 L 247.41,299.23 L 251.15,300.57 L 254.91,301.89 L 258.68,303.19 L 262.43,304.48 L 266.16,305.77 L 269.9,307.06 L 273.68,308.34 L 277.5,309.56 L 277.68,309.01 L 273.86,307.78 L 270.09,306.5 L 266.36,305.2 L 262.64,303.89 L 258.89,302.57 L 255.14,301.25 L 251.39,299.91 L 247.65,298.56 L 243.94,297.21 L 240.23,295.86 L 236.54,294.51 L 232.85,293.15 L 229.16,291.79 L 225.47,290.41 L 221.76,289.04 L 218.03,287.66 L 214.29,286.28 L 210.54,284.89 L 206.78,283.51 L 203.03,282.12 L 199.28,280.75 L 195.53,279.38 L 191.77,278.02 L 188.02,276.68 L 184.26,275.35 L 180.49,274.03 L 176.73,272.71 L 172.97,271.39 L 169.22,270.06 L 165.48,268.71 L 161.76,267.36 L 158.05,266 L 154.35,264.62 L 150.65,263.24 L 146.95,261.86 L 143.25,260.49 L 139.55,259.12 L 135.85,257.75 L 132.13,256.38 L 128.41,255.03 L 124.67,253.67 L 120.94,252.3 L 117.2,250.94 L 113.47,249.57 L 109.72,248.21 L 105.96,246.87 L 102.18,245.53 L 98.39,244.14 L 94.66,242.75 L 90.76,241.43 Z" fill="#1a1a1a" fill-opacity="0.55" stroke="#1a1a1a" stroke-width="0.4" stroke-opacity="0.55" stroke-linejoin="round" />
  <path d="M 94.58,250.85 L 98.21,252.03 L 101.86,253.32 L 105.57,254.64 L 109.28,255.98 L 113,257.32 L 116.71,258.66 L 120.43,260 L 124.15,261.35 L 127.87,262.71 L 131.58,264.07 L 135.29,265.44 L 138.99,266.81 L 142.69,268.17 L 146.38,269.55 L 150.08,270.93 L 153.77,272.31 L 157.46,273.69 L 161.16,275.06 L 164.86,276.42 L 168.57,277.77 L 172.29,279.11 L 176.03,280.46 L 179.79,281.81 L 183.55,283.17 L 187.31,284.53 L 191.06,285.9 L 194.8,287.27 L 198.53,288.64 L 202.23,290.01 L 205.93,291.38 L 209.62,292.76 L 213.32,294.15 L 217.04,295.55 L 220.76,296.97 L 224.48,298.4 L 228.21,299.82 L 231.93,301.23 L 235.66,302.62 L 239.41,303.97 L 243.2,305.28 L 246.96,306.59 L 250.69,307.94 L 254.37,309.3 L 258,310.66 L 261.59,311.95 L 265.25,313.2 L 268.99,314.47 L 269.19,313.91 L 265.45,312.63 L 261.79,311.37 L 258.21,310.07 L 254.59,308.7 L 250.92,307.31 L 247.19,305.94 L 243.43,304.61 L 239.66,303.29 L 235.91,301.95 L 232.18,300.57 L 228.46,299.16 L 224.73,297.74 L 221.01,296.32 L 217.28,294.9 L 213.57,293.49 L 209.87,292.09 L 206.18,290.7 L 202.49,289.32 L 198.78,287.94 L 195.06,286.57 L 191.32,285.19 L 187.56,283.83 L 183.8,282.47 L 180.04,281.12 L 176.28,279.77 L 172.54,278.43 L 168.81,277.09 L 165.1,275.75 L 161.4,274.39 L 157.71,273.02 L 154.02,271.65 L 150.33,270.27 L 146.63,268.89 L 142.93,267.51 L 139.24,266.14 L 135.54,264.76 L 131.83,263.39 L 128.12,262.03 L 124.4,260.67 L 120.67,259.33 L 116.95,258 L 113.22,256.69 L 109.5,255.38 L 105.78,254.06 L 102.06,252.75 L 98.39,251.47 L 94.76,250.3 Z" fill="#1a1a1a" fill-opacity="0.55" stroke="#1a1a1a" stroke-width="0.4" stroke-opacity="0.55" stroke-linejoin="round" />
  <path d="M 99.19,259.79 L 102.79,261.04 L 106.47,262.46 L 110.16,263.86 L 113.84,265.23 L 117.53,266.55 L 121.24,267.87 L 124.97,269.21 L 128.72,270.56 L 132.47,271.92 L 136.21,273.31 L 139.94,274.72 L 143.65,276.15 L 147.36,277.57 L 151.07,278.98 L 154.78,280.38 L 158.49,281.76 L 162.21,283.13 L 165.93,284.47 L 169.64,285.78 L 173.35,287.08 L 177.05,288.38 L 180.74,289.69 L 184.43,291 L 188.13,292.33 L 191.83,293.68 L 195.53,295.04 L 199.23,296.4 L 202.95,297.77 L 206.66,299.15 L 210.38,300.54 L 214.1,301.92 L 217.83,303.31 L 221.56,304.68 L 225.31,306.05 L 229.06,307.4 L 232.81,308.75 L 236.56,310.1 L 240.31,311.46 L 244.09,312.84 L 247.88,314.2 L 251.65,315.5 L 255.36,316.74 L 259.04,318.06 L 259.25,317.49 L 255.56,316.17 L 251.85,314.92 L 248.09,313.61 L 244.32,312.22 L 240.55,310.83 L 236.8,309.45 L 233.05,308.09 L 229.3,306.73 L 225.55,305.38 L 221.81,304.01 L 218.07,302.64 L 214.35,301.26 L 210.63,299.87 L 206.91,298.49 L 203.19,297.11 L 199.48,295.73 L 195.77,294.37 L 192.07,293.01 L 188.37,291.66 L 184.68,290.33 L 180.98,289.01 L 177.29,287.7 L 173.59,286.39 L 169.88,285.1 L 166.17,283.79 L 162.46,282.45 L 158.75,281.08 L 155.04,279.68 L 151.33,278.28 L 147.63,276.87 L 143.92,275.46 L 140.2,274.04 L 136.46,272.63 L 132.72,271.23 L 128.97,269.87 L 125.22,268.52 L 121.47,267.2 L 117.75,265.91 L 114.06,264.62 L 110.38,263.28 L 106.68,261.9 L 102.99,260.49 L 99.38,259.24 Z" fill="#1a1a1a" fill-opacity="0.55" stroke="#1a1a1a" stroke-width="0.4" stroke-opacity="0.55" stroke-linejoin="round" />
  <path d="M 105.94,269.58 L 109.63,270.95 L 113.28,272.35 L 116.96,273.74 L 120.7,275.1 L 124.47,276.45 L 128.21,277.81 L 131.95,279.17 L 135.7,280.54 L 139.45,281.92 L 143.21,283.3 L 146.97,284.68 L 150.73,286.07 L 154.5,287.44 L 158.26,288.81 L 162.01,290.18 L 165.76,291.55 L 169.5,292.9 L 173.23,294.25 L 176.93,295.59 L 180.63,296.94 L 184.32,298.28 L 188.01,299.62 L 191.71,300.97 L 195.41,302.31 L 199.11,303.66 L 202.81,305.03 L 206.51,306.41 L 210.22,307.78 L 213.95,309.17 L 217.72,310.56 L 221.5,311.95 L 225.26,313.34 L 229.01,314.73 L 232.72,316.13 L 236.41,317.53 L 240.11,318.92 L 243.93,320.25 L 247.73,321.62 L 247.93,321.05 L 244.14,319.68 L 240.33,318.32 L 236.64,316.92 L 232.96,315.49 L 229.26,314.07 L 225.52,312.66 L 221.75,311.27 L 217.97,309.88 L 214.2,308.49 L 210.47,307.11 L 206.76,305.73 L 203.06,304.36 L 199.36,302.99 L 195.66,301.63 L 191.96,300.29 L 188.26,298.96 L 184.56,297.62 L 180.87,296.29 L 177.17,294.95 L 173.46,293.61 L 169.73,292.27 L 165.99,290.92 L 162.24,289.56 L 158.48,288.19 L 154.73,286.81 L 150.97,285.43 L 147.21,284.04 L 143.45,282.65 L 139.69,281.26 L 135.94,279.88 L 132.2,278.51 L 128.45,277.15 L 124.7,275.8 L 120.93,274.47 L 117.19,273.13 L 113.5,271.77 L 109.84,270.38 L 106.14,269.01 Z" fill="#1a1a1a" fill-opacity="0.55" stroke="#1a1a1a" stroke-width="0.4" stroke-opacity="0.55" stroke-linejoin="round" />
  <path d="M 114.7,280.74 L 118.31,281.99 L 121.94,283.28 L 125.62,284.66 L 129.35,286.06 L 133.1,287.45 L 136.86,288.82 L 140.61,290.17 L 144.37,291.51 L 148.12,292.84 L 151.86,294.18 L 155.61,295.52 L 159.37,296.86 L 163.13,298.2 L 166.9,299.53 L 170.66,300.87 L 174.41,302.22 L 178.15,303.56 L 181.88,304.9 L 185.61,306.25 L 189.35,307.6 L 193.08,308.95 L 196.81,310.3 L 200.53,311.65 L 204.24,313 L 207.94,314.32 L 211.62,315.63 L 215.29,316.96 L 218.99,318.3 L 222.72,319.65 L 226.46,321 L 230.22,322.34 L 234.06,323.86 L 234.28,323.31 L 230.43,321.78 L 226.67,320.41 L 222.94,319.04 L 219.23,317.65 L 215.54,316.29 L 211.86,314.96 L 208.18,313.65 L 204.49,312.32 L 200.78,310.97 L 197.05,309.62 L 193.32,308.27 L 189.59,306.93 L 185.85,305.58 L 182.12,304.23 L 178.39,302.89 L 174.65,301.55 L 170.9,300.21 L 167.14,298.87 L 163.37,297.53 L 159.6,296.2 L 155.84,294.86 L 152.1,293.52 L 148.35,292.18 L 144.6,290.84 L 140.85,289.5 L 137.1,288.15 L 133.34,286.79 L 129.59,285.41 L 125.85,284.04 L 122.16,282.69 L 118.51,281.42 L 114.9,280.17 Z" fill="#1a1a1a" fill-opacity="0.55" stroke="#1a1a1a" stroke-width="0.4" stroke-opacity="0.55" stroke-linejoin="round" />
  <path d="M 125.43,291.6 L 128.96,293.02 L 132.58,294.6 L 136.29,295.98 L 140.01,297.32 L 143.72,298.62 L 147.43,299.91 L 151.13,301.19 L 154.82,302.48 L 158.52,303.8 L 162.21,305.11 L 165.9,306.43 L 169.58,307.77 L 173.26,309.12 L 176.93,310.48 L 180.61,311.85 L 184.29,313.21 L 187.97,314.57 L 191.66,315.92 L 195.35,317.26 L 199.02,318.59 L 202.67,319.93 L 206.31,321.25 L 209.94,322.52 L 213.54,323.77 L 217.05,325.08 L 217.25,324.54 L 213.74,323.21 L 210.15,321.93 L 206.54,320.62 L 202.91,319.26 L 199.26,317.92 L 195.6,316.57 L 191.92,315.23 L 188.23,313.88 L 184.54,312.52 L 180.86,311.16 L 177.19,309.79 L 173.51,308.44 L 169.83,307.09 L 166.14,305.76 L 162.45,304.44 L 158.76,303.13 L 155.06,301.82 L 151.36,300.53 L 147.66,299.26 L 143.95,297.98 L 140.23,296.68 L 136.51,295.37 L 132.81,294.02 L 129.18,292.48 L 125.64,291.06 Z" fill="#1a1a1a" fill-opacity="0.55" stroke="#1a1a1a" stroke-width="0.4" stroke-opacity="0.55" stroke-linejoin="round" />
  <path d="M 147.05,307 L 150.51,308.23 L 153.93,309.47 L 157.35,310.71 L 160.77,311.95 L 164.19,313.2 L 167.61,314.45 L 171.04,315.69 L 174.46,316.93 L 177.9,318.16 L 181.35,319.4 L 184.81,320.65 L 188.31,321.88 L 191.93,323.24 L 192.14,322.68 L 188.53,321.28 L 185.05,319.98 L 181.59,318.72 L 178.14,317.48 L 174.71,316.25 L 171.28,315.01 L 167.86,313.77 L 164.44,312.53 L 161.01,311.29 L 157.59,310.05 L 154.17,308.82 L 150.72,307.63 L 147.25,306.44 Z" fill="#1a1a1a" fill-opacity="0.55" stroke="#1a1a1a" stroke-width="0.4" stroke-opacity="0.55" stroke-linejoin="round" />
  <path d="M 349.15,207.45 L 347.72,211.14 L 346.27,214.79 L 344.89,218.33 L 343.56,221.85 L 342.25,225.36 L 340.96,228.87 L 339.67,232.38 L 338.39,235.9 L 337.11,239.42 L 335.83,242.95 L 334.56,246.49 L 333.32,250.05 L 332.09,253.6 L 330.85,257.14 L 329.6,260.64 L 330.14,260.84 L 331.42,257.35 L 332.69,253.81 L 333.94,250.27 L 335.18,246.71 L 336.45,243.18 L 337.73,239.64 L 339,236.12 L 340.28,232.6 L 341.57,229.09 L 342.86,225.59 L 344.18,222.08 L 345.52,218.57 L 346.89,215.03 L 348.29,211.36 L 349.7,207.66 Z" fill="#1a1a1a" fill-opacity="0.55" stroke="#1a1a1a" stroke-width="0.4" stroke-opacity="0.55" stroke-linejoin="round" />
  <path d="M 349.35,184.77 L 347.97,188.39 L 346.74,192.05 L 347.3,192.25 L 348.64,188.63 L 349.91,184.98 Z" fill="#1a1a1a" fill-opacity="0.55" stroke="#1a1a1a" stroke-width="0.4" stroke-opacity="0.55" stroke-linejoin="round" />
  <path d="M 322.66,258.95 L 321.23,262.61 L 319.84,266.29 L 318.45,269.98 L 317.04,273.66 L 315.62,277.31 L 314.25,281.05 L 314.8,281.26 L 316.26,277.55 L 317.68,273.91 L 319.09,270.22 L 320.48,266.53 L 321.87,262.85 L 323.21,259.16 Z" fill="#1a1a1a" fill-opacity="0.55" stroke="#1a1a1a" stroke-width="0.4" stroke-opacity="0.55" stroke-linejoin="round" />
  <path d="M 308.5,276.61 L 307.03,280.31 L 305.61,284.06 L 304.22,287.81 L 303.03,291.51 L 303.59,291.69 L 304.87,288.04 L 306.26,284.3 L 307.68,280.56 L 309.05,276.82 Z" fill="#1a1a1a" fill-opacity="0.55" stroke="#1a1a1a" stroke-width="0.4" stroke-opacity="0.55" stroke-linejoin="round" />
  <path d="M 298.12,285.19 L 296.72,288.85 L 295.38,292.53 L 293.99,296.23 L 292.59,300.03 L 293.14,300.24 L 294.64,296.48 L 296.02,292.77 L 297.36,289.08 L 298.67,285.4 Z" fill="#1a1a1a" fill-opacity="0.55" stroke="#1a1a1a" stroke-width="0.4" stroke-opacity="0.55" stroke-linejoin="round" />
  <path d="M 288.49,291.64 L 287.12,295.29 L 285.78,298.9 L 284.36,302.52 L 282.94,306.34 L 283.49,306.55 L 285.01,302.78 L 286.44,299.15 L 287.79,295.53 L 289.05,291.84 Z" fill="#1a1a1a" fill-opacity="0.55" stroke="#1a1a1a" stroke-width="0.4" stroke-opacity="0.55" stroke-linejoin="round" />
  <path d="M 278.78,296.62 L 277.34,300.31 L 275.95,304.07 L 274.59,307.85 L 273.44,311.87 L 274,312.04 L 275.25,308.07 L 276.6,304.31 L 277.99,300.56 L 279.33,296.83 Z" fill="#1a1a1a" fill-opacity="0.55" stroke="#1a1a1a" stroke-width="0.4" stroke-opacity="0.55" stroke-linejoin="round" />
  <path d="M 270.33,300.38 L 268.91,304.11 L 267.54,307.9 L 266.19,311.68 L 264.94,315.37 L 265.49,315.56 L 266.84,311.92 L 268.21,308.14 L 269.58,304.35 L 270.88,300.58 Z" fill="#1a1a1a" fill-opacity="0.55" stroke="#1a1a1a" stroke-width="0.4" stroke-opacity="0.55" stroke-linejoin="round" />
  <path d="M 260.51,306.87 L 259.04,310.51 L 257.68,314.19 L 256.5,317.99 L 257.05,318.16 L 258.31,314.41 L 259.66,310.75 L 261.05,307.08 Z" fill="#1a1a1a" fill-opacity="0.55" stroke="#1a1a1a" stroke-width="0.4" stroke-opacity="0.55" stroke-linejoin="round" />
  <path d="M 253.19,305.67 L 251.8,309.41 L 250.41,313.2 L 249.04,317 L 247.85,320.8 L 248.4,320.98 L 249.67,317.21 L 251.04,313.43 L 252.42,309.64 L 253.73,305.87 Z" fill="#1a1a1a" fill-opacity="0.55" stroke="#1a1a1a" stroke-width="0.4" stroke-opacity="0.55" stroke-linejoin="round" />
  <path d="M 245.23,307.97 L 243.79,311.57 L 242.38,315.14 L 241.01,318.81 L 239.85,322.49 L 240.4,322.67 L 241.65,319.03 L 243,315.38 L 244.41,311.81 L 245.77,308.18 Z" fill="#1a1a1a" fill-opacity="0.55" stroke="#1a1a1a" stroke-width="0.4" stroke-opacity="0.55" stroke-linejoin="round" />
  <path d="M 236.09,313 L 234.64,316.57 L 233.17,320.2 L 231.96,323.94 L 232.52,324.13 L 233.8,320.43 L 235.26,316.82 L 236.62,313.21 Z" fill="#1a1a1a" fill-opacity="0.55" stroke="#1a1a1a" stroke-width="0.4" stroke-opacity="0.55" stroke-linejoin="round" />
  <path d="M 228.39,313.5 L 226.96,317.25 L 225.51,320.97 L 224.03,324.63 L 224.57,324.86 L 226.15,321.22 L 227.6,317.49 L 228.94,313.7 Z" fill="#1a1a1a" fill-opacity="0.55" stroke="#1a1a1a" stroke-width="0.4" stroke-opacity="0.55" stroke-linejoin="round" />
  <path d="M 220.81,313.86 L 219.37,317.42 L 218.02,320.96 L 216.64,324.67 L 217.2,324.89 L 218.71,321.23 L 220.06,317.68 L 221.37,314.08 Z" fill="#1a1a1a" fill-opacity="0.55" stroke="#1a1a1a" stroke-width="0.4" stroke-opacity="0.55" stroke-linejoin="round" />
  <path d="M 214.34,310.5 L 212.85,314.28 L 211.48,318.01 L 210.32,321.57 L 209.1,325.19 L 209.65,325.39 L 210.97,321.79 L 212.13,318.23 L 213.5,314.52 L 214.89,310.71 Z" fill="#1a1a1a" fill-opacity="0.55" stroke="#1a1a1a" stroke-width="0.4" stroke-opacity="0.55" stroke-linejoin="round" />
  <path d="M 206.07,313.35 L 204.64,317.01 L 203.29,320.72 L 201.66,324.47 L 202.19,324.71 L 203.93,320.98 L 205.28,317.24 L 206.62,313.56 Z" fill="#1a1a1a" fill-opacity="0.55" stroke="#1a1a1a" stroke-width="0.4" stroke-opacity="0.55" stroke-linejoin="round" />
  <path d="M 199.08,312.53 L 197.73,316.3 L 196.42,319.98 L 195.12,323.57 L 195.66,323.77 L 197.05,320.21 L 198.37,316.52 L 199.63,312.72 Z" fill="#1a1a1a" fill-opacity="0.55" stroke="#1a1a1a" stroke-width="0.4" stroke-opacity="0.55" stroke-linejoin="round" />
  <path d="M 192.19,311.2 L 190.83,314.92 L 189.44,318.74 L 188.16,322.62 L 188.72,322.81 L 190.08,318.96 L 191.45,315.14 L 192.74,311.39 Z" fill="#1a1a1a" fill-opacity="0.55" stroke="#1a1a1a" stroke-width="0.4" stroke-opacity="0.55" stroke-linejoin="round" />
  <path d="M 185.34,309.37 L 183.93,313.05 L 182.57,316.71 L 181.15,320.26 L 181.7,320.49 L 183.24,316.98 L 184.62,313.3 L 185.9,309.57 Z" fill="#1a1a1a" fill-opacity="0.55" stroke="#1a1a1a" stroke-width="0.4" stroke-opacity="0.55" stroke-linejoin="round" />
  <path d="M 178.29,307.39 L 176.94,311.14 L 175.59,314.85 L 174.25,318.76 L 174.81,318.96 L 176.26,315.09 L 177.61,311.38 L 178.85,307.59 Z" fill="#1a1a1a" fill-opacity="0.55" stroke="#1a1a1a" stroke-width="0.4" stroke-opacity="0.55" stroke-linejoin="round" />
  <path d="M 171.99,305.35 L 170.43,309.14 L 168.99,312.86 L 167.86,316.51 L 168.42,316.7 L 169.67,313.11 L 171.11,309.41 L 172.55,305.57 Z" fill="#1a1a1a" fill-opacity="0.55" stroke="#1a1a1a" stroke-width="0.4" stroke-opacity="0.55" stroke-linejoin="round" />
  <path d="M 165.03,302.66 L 163.64,306.41 L 162.37,310.19 L 160.94,314.16 L 161.49,314.36 L 163.01,310.42 L 164.28,306.63 L 165.58,302.85 Z" fill="#1a1a1a" fill-opacity="0.55" stroke="#1a1a1a" stroke-width="0.4" stroke-opacity="0.55" stroke-linejoin="round" />
  <path d="M 158.53,299.65 L 157.14,303.43 L 155.78,307.23 L 154.41,310.88 L 154.97,311.1 L 156.44,307.47 L 157.81,303.67 L 159.09,299.85 Z" fill="#1a1a1a" fill-opacity="0.55" stroke="#1a1a1a" stroke-width="0.4" stroke-opacity="0.55" stroke-linejoin="round" />
  <path d="M 152.34,296.96 L 150.83,300.62 L 149.32,304.24 L 148.32,307.6 L 148.88,307.78 L 149.97,304.48 L 151.48,300.89 L 152.89,297.17 Z" fill="#1a1a1a" fill-opacity="0.55" stroke="#1a1a1a" stroke-width="0.4" stroke-opacity="0.55" stroke-linejoin="round" />
  <path d="M 146.35,292.18 L 144.88,295.94 L 143.52,299.71 L 142.12,303.57 L 142.67,303.78 L 144.18,299.95 L 145.53,296.18 L 146.9,292.38 Z" fill="#1a1a1a" fill-opacity="0.55" stroke="#1a1a1a" stroke-width="0.4" stroke-opacity="0.55" stroke-linejoin="round" />
  <path d="M 140.53,288.6 L 138.94,292.3 L 137.47,295.97 L 136.37,299.66 L 136.93,299.84 L 138.11,296.2 L 139.58,292.56 L 141.08,288.82 Z" fill="#1a1a1a" fill-opacity="0.55" stroke="#1a1a1a" stroke-width="0.4" stroke-opacity="0.55" stroke-linejoin="round" />
  <path d="M 135.78,280.72 L 134.43,284.2 L 133.11,287.82 L 131.72,291.56 L 130.16,295.44 L 130.71,295.67 L 132.38,291.82 L 133.77,288.06 L 135.09,284.45 L 136.33,280.92 Z" fill="#1a1a1a" fill-opacity="0.55" stroke="#1a1a1a" stroke-width="0.4" stroke-opacity="0.55" stroke-linejoin="round" />
  <path d="M 128.87,279.7 L 127.54,283.32 L 126.22,287.05 L 124.91,291.04 L 125.46,291.23 L 126.87,287.28 L 128.2,283.55 L 129.43,279.9 Z" fill="#1a1a1a" fill-opacity="0.55" stroke="#1a1a1a" stroke-width="0.4" stroke-opacity="0.55" stroke-linejoin="round" />
  <path d="M 123.49,274.16 L 121.98,277.85 L 120.5,281.55 L 119.21,285.43 L 119.76,285.62 L 121.15,281.79 L 122.62,278.1 L 124.04,274.37 Z" fill="#1a1a1a" fill-opacity="0.55" stroke="#1a1a1a" stroke-width="0.4" stroke-opacity="0.55" stroke-linejoin="round" />
  <path d="M 117.97,268.29 L 116.59,271.89 L 115.28,275.54 L 113.99,279.25 L 114.55,279.45 L 115.95,275.79 L 117.26,272.13 L 118.53,268.5 Z" fill="#1a1a1a" fill-opacity="0.55" stroke="#1a1a1a" stroke-width="0.4" stroke-opacity="0.55" stroke-linejoin="round" />
  <path d="M 112.87,262.4 L 111.48,266.08 L 110.15,269.76 L 108.62,273.42 L 109.16,273.65 L 110.78,270.01 L 112.11,266.31 L 113.41,262.6 Z" fill="#1a1a1a" fill-opacity="0.55" stroke="#1a1a1a" stroke-width="0.4" stroke-opacity="0.55" stroke-linejoin="round" />
  <path d="M 108.82,251.55 L 107.47,255.28 L 106.18,259.09 L 104.9,262.97 L 103.53,266.86 L 104.09,267.06 L 105.57,263.21 L 106.86,259.32 L 108.15,255.51 L 109.38,251.75 Z" fill="#1a1a1a" fill-opacity="0.55" stroke="#1a1a1a" stroke-width="0.4" stroke-opacity="0.55" stroke-linejoin="round" />
  <path d="M 103.2,248.42 L 101.84,252.11 L 100.53,255.85 L 99.13,259.7 L 99.68,259.91 L 101.2,256.1 L 102.52,252.34 L 103.77,248.61 Z" fill="#1a1a1a" fill-opacity="0.55" stroke="#1a1a1a" stroke-width="0.4" stroke-opacity="0.55" stroke-linejoin="round" />
  <path d="M 98.85,240.31 L 97.32,243.94 L 95.94,247.55 L 94.81,250.81 L 95.36,251.01 L 96.6,247.79 L 97.97,244.2 L 99.39,240.53 Z" fill="#1a1a1a" fill-opacity="0.55" stroke="#1a1a1a" stroke-width="0.4" stroke-opacity="0.55" stroke-linejoin="round" />
  <path d="M 94.64,230.65 L 93.21,234.41 L 91.81,238.17 L 90.52,241.7 L 91.08,241.91 L 92.48,238.42 L 93.87,234.66 L 95.2,230.85 Z" fill="#1a1a1a" fill-opacity="0.55" stroke="#1a1a1a" stroke-width="0.4" stroke-opacity="0.55" stroke-linejoin="round" />
  <path d="M 91.81,217.21 L 90.23,220.88 L 88.77,224.56 L 87.43,228.27 L 86.51,232.15 L 87.09,232.3 L 88.12,228.48 L 89.46,224.82 L 90.92,221.16 L 92.37,217.44 Z" fill="#1a1a1a" fill-opacity="0.55" stroke="#1a1a1a" stroke-width="0.4" stroke-opacity="0.55" stroke-linejoin="round" />
  <path d="M 88.49,206.26 L 87.1,209.9 L 85.74,213.53 L 84.44,217.13 L 83.27,220.7 L 83.83,220.89 L 85.08,217.36 L 86.37,213.76 L 87.72,210.13 L 89.03,206.46 Z" fill="#1a1a1a" fill-opacity="0.55" stroke="#1a1a1a" stroke-width="0.4" stroke-opacity="0.55" stroke-linejoin="round" />
  <path d="M 85.77,192.52 L 84.51,196.12 L 83.32,199.74 L 82.16,203.37 L 80.94,207.01 L 81.5,207.21 L 82.82,203.59 L 83.98,199.96 L 85.17,196.34 L 86.33,192.7 Z" fill="#1a1a1a" fill-opacity="0.55" stroke="#1a1a1a" stroke-width="0.4" stroke-opacity="0.55" stroke-linejoin="round" />
  <path d="M 111.08,102.57 L 109.83,106.3 L 108.58,109.97 L 109.15,110.17 L 110.53,106.53 L 111.66,102.76 Z" fill="#1a1a1a" fill-opacity="0.55" stroke="#1a1a1a" stroke-width="0.4" stroke-opacity="0.55" stroke-linejoin="round" />
  <path d="M 86.88,169.98 L 85.51,173.66 L 84.16,177.36 L 82.81,181.08 L 81.46,184.82 L 80.14,188.65 L 80.68,188.85 L 82.08,185.05 L 83.43,181.3 L 84.77,177.58 L 86.12,173.88 L 87.42,170.18 Z" fill="#1a1a1a" fill-opacity="0.55" stroke="#1a1a1a" stroke-width="0.4" stroke-opacity="0.55" stroke-linejoin="round" />
  <path d="M 93.56,130.98 L 92.26,134.36 L 90.97,137.75 L 89.7,141.16 L 88.43,144.6 L 87.17,148.04 L 85.96,151.5 L 84.79,154.97 L 83.61,158.45 L 82.42,161.94 L 82.96,162.13 L 84.22,158.66 L 85.42,155.19 L 86.6,151.72 L 87.81,148.27 L 89.08,144.83 L 90.35,141.4 L 91.62,137.99 L 92.88,134.59 L 94.11,131.19 Z" fill="#1a1a1a" fill-opacity="0.55" stroke="#1a1a1a" stroke-width="0.4" stroke-opacity="0.55" stroke-linejoin="round" />
  <path d="M 166.76,315.22 L 163.29,313.84 L 159.85,312.51 L 156.4,310.91 L 152.95,309.32 L 148.46,307.22 L 144.44,304.54 L 140.34,301.8 L 136.91,299.49 L 133.47,297.18 L 130.05,294.91 L 127.53,292.87 L 124.85,290.68 L 120.92,286.49 L 117.04,282.28 L 113.79,278.73 L 110.56,275.2 L 108.82,272.82 L 107.06,270.4 L 104.25,266.5 L 101.45,262.61 L 99.96,259.92 L 98.44,257.19 L 96.6,253.93 L 95.07,250.22 L 93.52,246.48 L 92,242.74 L 89.77,237.2 L 87.53,231.69 L 86.38,227.61 L 84.98,222.82 L 83.56,218.05 L 82.98,214.93 L 82.39,211.74 L 81.87,209.05 L 81.63,204.49 L 81.43,199.91 L 81.25,195.34 L 81.06,190.82 L 80.87,186.41 L 81.18,183 L 81.5,179.54 L 81.96,174.79 L 82.43,169.98 L 82.87,165.12 L 83.13,163.99 L 83.89,160.65 L 85.15,156.62 L 86.43,152.57 L 87.73,148.54 L 89.12,144.24 L 91.6,139.03 L 94.07,133.69 L 96.18,128.89 L 98.25,124.12 L 101.13,119.42 L 103.41,115.8 L 105.71,112.2 L 108.03,108.65 L 109.56,106.65 L 110.16,105.86 L 113.63,102.35 L 117.09,98.8 L 120.5,95.23 L 123.23,92.39 L 125.89,89.62 L 128.42,87.65 L 130.97,85.66 L 134.63,82.83 L 138.27,80 L 141.23,77.96 L 143.07,76.66 L 147.86,74.12 L 152.69,71.49 L 156.77,69.2 L 160.81,66.91 L 162.18,66.23 L 163.55,65.55 L 167.92,63.98 L 172.36,62.43 L 176.34,61.09 L 181.12,59.78 L 184.47,58.89 L 187.82,58.02 L 188.48,57.89 L 190.23,57.53 L 196,56.82 L 196.67,56.73 L 199.75,56.46 L 202.82,56.17 L 203.98,56.06 L 209.08,55.79 L 210.49,55.71 L 215.25,55.64 L 216.75,55.61 L 221.77,55.75 L 223.19,55.79 L 229.18,56.27 L 230.23,56.36 L 234.27,56.88 L 238.31,57.4 L 238.46,57.42 L 239.39,57.56 L 244.05,58.76 L 248.72,59.94 L 253.95,61.54 L 259.19,63.12 L 262.84,64.21 L 266.1,65.33 L 270.34,67.39 L 274.67,69.45 L 279.02,71.52 L 283.33,73.6 L 287.43,75.86 L 290.91,78.45 L 294.39,81.06 L 297.94,83.76 L 301.47,86.48 L 304.97,89.19 L 308.05,92.3 L 311.19,95.46 L 314.1,98.74 L 317.03,102.02 L 319.9,105.22 L 322.56,109.17 L 325.24,113.14 L 327.48,116.46 L 329.72,119.78 L 331.93,123.08 L 333.91,127.11 L 335.9,131.18 L 337.88,135.23 L 339.83,139.28 L 341.22,142.87 L 341.69,144.91 L 342.82,149.76 L 344,154.64 L 345.22,159.52 L 346.48,164.33 L 347.12,169.29 L 347.75,174.29 L 348.36,179.29 L 348.79,182.97 L 349.2,186.61 L 349.12,190.61 L 349.02,194.68 L 348.92,198.72 L 348.26,204.01 L 347.61,209.31 L 346.66,213.06 L 345.74,216.88 L 344.57,221.9 L 343.42,226.9 L 342.27,231.82 L 340.65,236.01 L 338.98,240.23 L 337.3,244.44 L 335.63,248.63 L 333.13,253.34 L 330.71,256.87 L 328.27,260.46 L 325.09,265.19 L 321.91,269.91 L 318.76,274.59 L 315.7,278.22 L 312.62,281.84 L 309.16,284.99 L 305.63,288.15 L 302.1,291.3 L 298.61,294.44 L 295.24,296.96 L 291.86,299.53 L 288.53,302.1 L 283.81,304.9 L 279.07,307.73 L 274.34,310.55 L 269.65,313.35 L 266.56,314.88 L 263.82,315.81 L 259.43,317.27 L 255.04,318.68 L 250.62,320.05 L 246.24,321.38 L 240.48,322.26 L 234.67,323.14 L 230.81,323.73 L 227,324.31 L 222.64,324.33 L 218.24,324.33 L 213.85,324.35 L 208.4,324.39 L 202.62,323.59 L 196.83,322.82 L 193.29,322.37 L 189.81,321.94 L 185.78,320.82 L 181.69,319.69 L 177.86,318.64 L 173.96,317.59 L 170.07,316.56 L 166.77,315.21 L 166.31,316.33 L 169.7,317.7 L 173.65,318.76 L 177.54,319.81 L 181.37,320.86 L 185.46,321.99 L 189.57,323.13 L 193.14,323.59 L 196.67,324.04 L 202.45,324.81 L 208.31,325.63 L 213.86,325.61 L 218.24,325.62 L 222.64,325.63 L 227.1,325.63 L 231.01,325.06 L 234.87,324.49 L 240.68,323.63 L 246.54,322.78 L 251.05,321.45 L 255.48,320.08 L 259.89,318.66 L 264.29,317.19 L 267.13,316.22 L 270.35,314.61 L 275.06,311.75 L 279.77,308.89 L 284.5,306.07 L 289.31,303.29 L 292.75,300.7 L 296.15,298.17 L 299.58,295.63 L 303.12,292.44 L 306.64,289.27 L 310.16,286.11 L 313.73,282.92 L 316.91,279.26 L 320.08,275.58 L 323.3,270.84 L 326.48,266.13 L 329.65,261.39 L 332.07,257.79 L 334.52,254.16 L 337.06,249.29 L 338.72,244.99 L 340.35,240.76 L 341.98,236.53 L 343.62,232.23 L 344.83,227.24 L 346.06,222.26 L 347.31,217.26 L 348.28,213.47 L 349.27,209.6 L 349.91,204.22 L 350.55,198.85 L 350.67,194.72 L 350.78,190.65 L 350.88,186.54 L 350.47,182.78 L 350.03,179.08 L 349.4,174.08 L 348.74,169.08 L 348.07,164.02 L 346.75,159.12 L 345.49,154.26 L 344.26,149.41 L 343.08,144.58 L 342.56,142.43 L 341.11,138.72 L 339.14,134.62 L 337.19,130.56 L 335.24,126.47 L 333.27,122.32 L 331.05,118.9 L 328.85,115.55 L 326.66,112.2 L 324,108.2 L 321.27,104.16 L 318.29,100.88 L 315.34,97.63 L 312.37,94.34 L 309.17,91.18 L 305.98,88.03 L 302.39,85.28 L 298.86,82.57 L 295.3,79.85 L 291.82,77.23 L 288.26,74.57 L 284.06,72.21 L 279.72,70.06 L 275.4,67.95 L 271.08,65.86 L 266.75,63.79 L 263.33,62.65 L 259.65,61.58 L 254.41,60.03 L 249.15,58.43 L 244.45,57.23 L 239.76,56.01 L 238.71,55.84 L 238.51,55.81 L 234.47,55.32 L 230.41,54.83 L 229.3,54.75 L 223.29,54.31 L 221.81,54.27 L 216.78,54.13 L 215.22,54.15 L 210.45,54.22 L 209,54.3 L 203.89,54.57 L 202.69,54.68 L 199.61,54.95 L 196.52,55.22 L 195.82,55.3 L 190.02,56.01 L 188.18,56.39 L 187.44,56.53 L 184.08,57.43 L 180.73,58.35 L 175.91,59.7 L 171.89,61.05 L 167.43,62.56 L 162.98,64.09 L 161.48,64.81 L 160.04,65.5 L 155.97,67.77 L 151.89,70.04 L 147.07,72.66 L 142.24,75.23 L 140.28,76.59 L 137.28,78.66 L 133.61,81.51 L 129.96,84.36 L 127.41,86.36 L 124.79,88.42 L 122.05,91.26 L 119.33,94.1 L 115.92,97.68 L 112.5,101.25 L 109.03,104.79 L 108.33,105.71 L 106.75,107.76 L 104.39,111.34 L 102.05,114.93 L 99.75,118.56 L 96.81,123.36 L 94.7,128.25 L 92.6,133.03 L 90.17,138.36 L 87.68,143.66 L 86.28,148.07 L 84.99,152.11 L 83.69,156.16 L 82.39,160.23 L 81.6,163.64 L 81.31,164.94 L 80.87,169.84 L 80.42,174.65 L 79.99,179.4 L 79.68,182.86 L 79.37,186.39 L 79.57,190.88 L 79.76,195.41 L 79.94,199.97 L 80.13,204.56 L 80.36,209.2 L 80.89,212.03 L 81.47,215.21 L 82.08,218.43 L 83.49,223.26 L 84.86,228.05 L 86.05,232.22 L 88.36,237.78 L 90.64,243.3 L 92.2,247.03 L 93.75,250.77 L 95.33,254.55 L 97.22,257.87 L 98.75,260.59 L 100.32,263.35 L 103.18,267.28 L 106.02,271.16 L 107.8,273.57 L 109.6,276.01 L 112.88,279.57 L 116.15,283.1 L 120.04,287.31 L 124.01,291.55 L 126.77,293.81 L 129.34,295.89 L 132.79,298.19 L 136.24,300.49 L 139.68,302.79 L 143.79,305.52 L 147.89,308.23 L 152.46,310.38 L 155.91,311.98 L 159.38,313.59 L 162.86,314.94 L 166.32,316.32 Z" fill="#1a1a1a" stroke="#1a1a1a" stroke-width="0.4" stroke-linejoin="round" />
</g></g>
<g clip-path="url(#clip-0-1)"><g transform="translate(452,0)">  <rect width="430" height="380" fill="#faf9f5" />
  <path d="M 150.66,197.83 L 146.19,195.92 L 142.49,194.41 L 138.8,192.88 L 137.55,192.17 L 134.94,190.46 L 131.29,189.04 L 130.7,188.91 L 127.28,187.12 L 126.5,186.82 L 126.05,187.99 L 126.66,188.23 L 129.9,190.41 L 130.71,190.63 L 134.19,191.98 L 136.65,193.6 L 138.1,194.41 L 141.85,195.96 L 145.58,197.48 L 150.23,198.98 Z" fill="#1a1a1a" stroke="#1a1a1a" stroke-width="0.4" stroke-linejoin="round" />
  <polyline points="126.27,187.4 126.15,187.36 125.63,186.58" fill="none" stroke="#1a1a1a" stroke-width="1.454" stroke-opacity="0.32" stroke-dasharray="4,3" stroke-linecap="round" stroke-linejoin="round" />
  <path d="M 125.54,187.17 L 126.05,187.25 L 126.22,186.07 L 125.71,185.99 Z" fill="#1a1a1a" stroke="#1a1a1a" stroke-width="0.4" stroke-linejoin="round" />
  <polyline points="126.14,186.66 126.4,186.69 126.1,186.91 126.18,187.37 126.9,188.11 128.7,190.52 128.7,190.54 128.7,190.56 129.36,193.5 130.06,196.64 130.23,196.95 130.42,197.37 130.02,200.41 129.7,202.7 129.82,203.35 130.01,204 129.19,205.36 128.88,205.64 128.93,206.18 129.44,206.2 129.15,206.12 129.2,205.78 129.78,204.79 131.09,203.04 132.04,202.41 135.99,199.65 136.13,199.59 136.82,199.24 141.11,196.32 142.69,195.27 143.21,195.01" fill="none" stroke="#1a1a1a" stroke-width="1.337" stroke-opacity="0.32" stroke-dasharray="4,3" stroke-linecap="round" stroke-linejoin="round" />
  <path d="M 143.43,195.47 L 147.78,193.35 L 151.26,191.8 L 155.6,190.4 L 161.02,188.52 L 164.81,187.51 L 168.48,186.5 L 172.16,185.49 L 175.38,184.87 L 179.81,184.02 L 184.17,183.22 L 186.83,182.95 L 191.76,182.43 L 196.6,181.87 L 198.83,181.74 L 204.03,181.38 L 209.31,180.93 L 211.45,180.88 L 216.98,180.75 L 222.48,180.6 L 224.67,180.68 L 230.01,180.98 L 235.28,181.38 L 237.77,181.76 L 242.79,182.48 L 247.79,183.13 L 250.88,183.74 L 255.29,184.62 L 259.62,185.48 L 263.47,186.58 L 267,187.53 L 270.54,188.4 L 275.52,190.07 L 280.46,191.84 L 283.44,193.4 L 286.37,195.04 L 286.97,195.38 L 287.45,194.53 L 286.85,194.19 L 283.91,192.54 L 280.86,190.9 L 275.88,189.06 L 270.88,187.29 L 267.32,186.33 L 263.82,185.34 L 259.94,184.19 L 255.56,183.27 L 251.16,182.36 L 248.02,181.71 L 242.98,181.04 L 237.98,180.34 L 235.42,179.97 L 230.1,179.58 L 224.75,179.27 L 222.47,179.17 L 216.95,179.29 L 211.42,179.4 L 209.21,179.44 L 203.91,179.89 L 198.73,180.26 L 196.46,180.39 L 191.6,180.97 L 186.68,181.51 L 183.95,181.82 L 179.55,182.64 L 175.12,183.49 L 171.83,184.12 L 168.11,185.15 L 164.44,186.19 L 160.62,187.27 L 155.21,189.28 L 150.87,190.78 L 147.34,192.41 L 142.99,194.56 Z" fill="#1a1a1a" stroke="#1a1a1a" stroke-width="0.4" stroke-linejoin="round" />
  <polyline points="287.21,194.95 288.73,195.81 293.13,199.11 294.88,199.99 295.4,200.31 299.46,203.27 300.63,205.27 300.92,205.71 300.75,205.91 301.12,205.44 299.99,204.04 300.45,202.16 299.62,198.07 300.38,196.54 301.44,191.5 302.12,190.92 302.92,189.66 304.09,187.81 303.85,187.42" fill="none" stroke="#1a1a1a" stroke-width="1.332" stroke-opacity="0.32" stroke-dasharray="4,3" stroke-linecap="round" stroke-linejoin="round" />
  <path d="M 303.26,187.39 L 303.25,187.69 L 304.43,187.74 L 304.45,187.44 Z" fill="#1a1a1a" stroke="#1a1a1a" stroke-width="0.4" stroke-linejoin="round" />
  <polyline points="303.84,187.71 303.74,188.24 303.6,188.3" fill="none" stroke="#1a1a1a" stroke-width="1.455" stroke-opacity="0.32" stroke-dasharray="4,3" stroke-linecap="round" stroke-linejoin="round" />
  <path d="M 303.34,187.73 L 299.7,189.37 L 298.91,189.67 L 295.73,190.61 L 293.09,191.99 L 290.55,193.37 L 287.79,194.33 L 283.06,196.03 L 278.35,197.69 L 274.83,198.47 L 271.22,199.27 L 266.81,200.23 L 262.42,201.17 L 257.07,201.88 L 251.71,202.63 L 247.8,203.2 L 243.92,203.77 L 239.67,204.12 L 235.38,204.47 L 231.09,204.84 L 227.51,205.15 L 223.96,205.46 L 219.47,205.53 L 214.97,205.58 L 210.47,205.61 L 207.03,205.62 L 203.63,205.63 L 199.41,205.34 L 195.16,205.04 L 190.91,204.72 L 187.39,204.45 L 183.91,204.18 L 178.57,203.34 L 173.22,202.51 L 169.56,201.97 L 165.94,201.46 L 162.06,200.56 L 158.16,199.65 L 154.39,198.74 L 150.6,197.8 L 150.3,199 L 154.09,199.96 L 157.85,200.91 L 161.75,201.87 L 165.66,202.84 L 169.34,203.42 L 172.99,204 L 178.32,204.89 L 183.7,205.8 L 187.25,206.12 L 190.77,206.43 L 195.02,206.79 L 199.28,207.13 L 203.56,207.45 L 207.04,207.43 L 210.48,207.4 L 214.98,207.35 L 219.49,207.29 L 224.04,207.24 L 227.66,206.96 L 231.24,206.68 L 235.54,206.33 L 239.82,205.98 L 244.13,205.63 L 248.07,205.04 L 251.98,204.48 L 257.33,203.7 L 262.73,202.93 L 267.19,201.95 L 271.6,200.99 L 275.21,200.2 L 278.86,199.37 L 283.64,197.62 L 288.33,195.8 L 291.17,194.73 L 293.77,193.23 L 296.24,191.86 L 299.31,190.91 L 300.22,190.55 L 303.86,188.88 Z" fill="#1a1a1a" stroke="#1a1a1a" stroke-width="0.4" stroke-linejoin="round" />
  <path d="M 102.33,322.68 L 98.78,320.74 L 95.19,318.8 L 90.2,316.21 L 85.22,313.68 L 80.26,311.19 L 75.34,308.74 L 74.73,308.3 L 72.96,307.12 L 69.36,304.27 L 65.75,301.39 L 62.14,298.47 L 58.52,295.55 L 55.5,293.09 L 52.52,290.67 L 48.62,286.4 L 44.69,282.11 L 40.76,277.83 L 36.86,273.54 L 33,269.27 L 32.61,268.63 L 31.91,267.58 L 29.67,262.98 L 27.36,258.38 L 25.04,253.77 L 22.61,248.81 L 20.28,243.89 L 18.98,239.14 L 18.13,236.21 L 17.26,233.36 L 16.64,228.8 L 16.02,224.19 L 15.56,220.24 L 15.17,216.33 L 15.47,212.93 L 15.81,209.46 L 16.18,205.59 L 16.54,201.78 L 17.38,198.51 L 18.21,195.19 L 19.51,189.67 L 21.01,185.82 L 22.48,181.89 L 24.2,177.16 L 25.85,172.44 L 27.51,169.35 L 28.64,167.19 L 31.92,162.77 L 35.27,158.35 L 38.42,154.19 L 41.54,149.99 L 43.34,148.11 L 46.86,144.49 L 50.1,141.83 L 53.39,139.2 L 55.99,137.12 L 60.27,134.5 L 64.6,131.89 L 67.96,129.88 L 71.33,127.85 L 76.57,125.24 L 82.04,122.38 L 87.5,119.46 L 89.57,118.57 L 94.83,116.29 L 100.1,114.03 L 103.56,112.7 L 104.06,112.49 L 108.85,111.02 L 113.56,109.64 L 118.25,108.31 L 120.59,107.6 L 124.85,106.54 L 129.11,105.46 L 133.34,104.41 L 137.16,103.44 L 141.04,102.68 L 145,101.91 L 149.04,101.14 L 154.33,100.22 L 160.03,99.66 L 165.75,99.13 L 168.92,98.82 L 172.07,98.49 L 177.55,98.11 L 183.02,97.64 L 186.51,97.31 L 189.95,96.98 L 195.12,96.74 L 200.29,96.6 L 203.93,96.54 L 207.58,96.47 L 212.8,96.57 L 217.98,96.6 L 221.64,96.58 L 225.27,96.55 L 230.53,96.69 L 235.89,96.83 L 239.54,96.94 L 243.19,97.07 L 248.81,97.54 L 254.38,98.02 L 257.7,98.3 L 261,98.58 L 266.85,99.33 L 272.75,100.06 L 278.57,100.74 L 282.91,101.47 L 287.25,102.22 L 291.56,103.04 L 295.99,103.97 L 300.62,105.26 L 305.17,106.55 L 309.7,107.8 L 312.23,108.51 L 317.46,110.27 L 322.78,112.03 L 328.14,113.78 L 328.42,113.87 L 330.11,114.55 L 334.83,116.65 L 339.6,118.73 L 344.42,120.74 L 348.54,122.79 L 352.55,124.8 L 356.52,126.85 L 360.4,128.93 L 363.94,131.33 L 367.51,133.7 L 371.13,136.02 L 375.93,139.05 L 379.45,141.91 L 382.86,144.83 L 386.39,148.71 L 389.95,152.56 L 393.14,157.03 L 396.42,161.54 L 399.73,165.99 L 402.96,170.36 L 404.26,172.74 L 406.08,177.91 L 407.93,183.13 L 409.81,188.35 L 411.69,193.53 L 412.52,197.79 L 413.31,202.05 L 413.36,206.64 L 413.4,211.27 L 413.44,215.88 L 413.48,220.41 L 412.79,224.68 L 412.12,229.01 L 411.51,233.28 L 410.09,238.06 L 408.7,242.93 L 407.33,247.75 L 404.92,252.72 L 402.48,257.71 L 400.02,262.68 L 397.57,267.65 L 395.88,270.19 L 394.16,272.76 L 391.5,275.62 L 388.78,278.52 L 385.12,282.42 L 381.48,286.31 L 377.87,290.16 L 374.3,293.91 L 369.91,297.24 L 365.49,300.59 L 361.09,303.95 L 356.72,307.3 L 353.82,309.21 L 350.94,311.11 L 348.12,312.48 L 343.27,314.81 L 338.41,317.15 L 333.53,319.5 L 328.64,321.86 L 323.79,324.22 L 319.59,325.66 L 315.34,327.13 L 311.09,328.61 L 306.84,330.1 L 302.6,331.6 L 298.35,333.1 L 294.16,334.56 L 289.29,335.61 L 284.35,336.62 L 279.4,337.59 L 274.45,338.55 L 270.39,339.35 L 266.32,340.16 L 262.3,340.99 L 256.36,341.6 L 250.41,342.29 L 244.5,343.03 L 238.62,343.77 L 233.89,344.36 L 229.21,344.93 L 224.39,344.95 L 219.53,344.93 L 214.66,344.87 L 209.79,344.77 L 204.9,344.65 L 200.38,344.52 L 195.87,344.38 L 190.14,343.63 L 184.4,342.94 L 178.66,342.3 L 172.95,341.69 L 167.86,341.15 L 162.79,340.62 L 158.08,339.6 L 153.32,338.57 L 148.54,337.54 L 143.77,336.5 L 139.52,335.55 L 135.28,334.6 L 131.11,333.65 L 126.69,332.04 L 122.29,330.41 L 117.93,328.76 L 112.75,326.76 L 107.54,324.71 L 102.27,322.65 L 101.85,323.72 L 107.11,325.79 L 112.33,327.84 L 117.52,329.85 L 121.88,331.5 L 126.29,333.14 L 130.77,334.77 L 135.02,335.75 L 139.26,336.71 L 143.51,337.66 L 148.28,338.72 L 153.06,339.77 L 157.82,340.8 L 162.6,341.82 L 167.73,342.36 L 172.82,342.91 L 178.52,343.56 L 184.25,344.22 L 189.98,344.92 L 195.76,345.68 L 200.34,345.83 L 204.86,345.97 L 209.76,346.1 L 214.64,346.19 L 219.52,346.25 L 224.39,346.26 L 229.29,346.22 L 234.05,345.64 L 238.78,345.07 L 244.66,344.37 L 250.58,343.69 L 256.52,343.03 L 262.5,342.44 L 266.61,341.63 L 270.68,340.86 L 274.74,340.11 L 279.71,339.19 L 284.67,338.22 L 289.62,337.19 L 294.59,336.09 L 298.88,334.59 L 303.12,333.09 L 307.36,331.57 L 311.6,330.06 L 315.84,328.57 L 320.09,327.1 L 324.38,325.61 L 329.3,323.21 L 334.18,320.85 L 339.07,318.52 L 343.93,316.19 L 348.78,313.85 L 351.69,312.41 L 354.64,310.45 L 357.58,308.49 L 361.98,305.11 L 366.38,301.77 L 370.81,298.42 L 375.29,295.04 L 378.98,291.21 L 382.61,287.37 L 386.25,283.48 L 389.88,279.55 L 392.58,276.62 L 395.31,273.69 L 397.12,271.03 L 398.91,268.4 L 401.46,263.39 L 403.95,258.43 L 406.41,253.44 L 408.87,248.34 L 410.28,243.38 L 411.64,238.51 L 413.06,233.62 L 413.67,229.23 L 414.33,224.92 L 415.05,220.53 L 415.04,215.87 L 415,211.26 L 414.95,206.62 L 414.87,201.9 L 414.04,197.5 L 413.18,193.1 L 411.29,187.82 L 409.42,182.6 L 407.56,177.38 L 405.69,172.14 L 404.23,169.5 L 400.94,165.09 L 397.66,160.63 L 394.42,156.11 L 391.18,151.55 L 387.54,147.65 L 383.92,143.75 L 380.4,140.77 L 376.78,137.85 L 371.92,134.78 L 368.31,132.48 L 364.76,130.11 L 361.18,127.66 L 357.23,125.51 L 353.26,123.42 L 349.26,121.37 L 345.11,119.23 L 340.28,117.16 L 335.52,115.08 L 330.77,113 L 329.01,112.32 L 328.65,112.2 L 323.28,110.5 L 317.95,108.79 L 312.68,107.06 L 310.1,106.35 L 305.58,105.1 L 301.01,103.84 L 296.32,102.58 L 291.83,101.68 L 287.5,100.86 L 283.15,100.07 L 278.77,99.31 L 272.93,98.6 L 267.03,97.89 L 261.16,97.14 L 257.83,96.86 L 254.51,96.58 L 248.93,96.08 L 243.29,95.6 L 239.59,95.47 L 235.93,95.35 L 230.57,95.2 L 225.29,95.05 L 221.62,95.09 L 217.98,95.12 L 212.82,95.11 L 207.59,95.02 L 203.91,95.07 L 200.26,95.1 L 195.07,95.19 L 189.85,95.39 L 186.37,95.7 L 182.88,96 L 177.42,96.44 L 171.94,96.83 L 168.75,97.18 L 165.59,97.51 L 159.87,98.08 L 154.12,98.68 L 148.76,99.63 L 144.71,100.4 L 140.74,101.17 L 136.82,101.95 L 132.96,102.94 L 128.74,104.01 L 124.48,105.09 L 120.21,106.17 L 117.84,106.89 L 113.16,108.24 L 108.43,109.62 L 103.62,111.11 L 103.03,111.35 L 99.55,112.7 L 94.27,114.99 L 89,117.24 L 86.84,118.15 L 81.33,121.04 L 75.89,123.91 L 70.64,126.59 L 67.23,128.65 L 63.86,130.65 L 59.51,133.23 L 55.14,135.86 L 52.43,138.01 L 49.14,140.64 L 45.81,143.36 L 42.23,147.04 L 40.34,149.02 L 37.21,153.3 L 34.12,157.49 L 30.81,161.94 L 27.49,166.42 L 26.29,168.7 L 24.58,171.9 L 22.88,176.69 L 21.15,181.39 L 19.66,185.3 L 18.12,189.25 L 16.78,194.84 L 15.96,198.15 L 15.1,201.54 L 14.74,205.45 L 14.38,209.32 L 14.07,212.81 L 13.79,216.36 L 14.22,220.39 L 14.7,224.36 L 15.33,228.98 L 15.95,233.62 L 16.82,236.6 L 17.65,239.5 L 18.97,244.38 L 21.33,249.43 L 23.75,254.41 L 26.08,259.02 L 28.42,263.6 L 30.71,268.22 L 31.47,269.36 L 31.98,270.16 L 35.87,274.44 L 39.77,278.73 L 43.7,283.02 L 47.64,287.3 L 51.61,291.61 L 54.69,294.09 L 57.72,296.54 L 61.36,299.44 L 64.99,302.34 L 68.62,305.22 L 72.25,308.08 L 74.06,309.28 L 74.79,309.78 L 79.74,312.24 L 84.7,314.71 L 89.67,317.23 L 94.66,319.81 L 98.23,321.73 L 101.78,323.68 Z" fill="#1a1a1a" stroke="#1a1a1a" stroke-width="0.4" stroke-linejoin="round" />
</g></g>
<text x="14" y="26" font-family="sans-serif" font-size="14" fill="#999"></text>
<line x1="441" y1="8" x2="441" y2="372" stroke="#ddd" stroke-width="1" />
<text x="215" y="20" text-anchor="middle" font-family="sans-serif" font-size="14" fill="#999">mesh sphere (shaded)</text>
<text x="667" y="20" text-anchor="middle" font-family="sans-serif" font-size="14" fill="#999">mesh torus (hidden-line)</text>
</svg>