<svg xmlns="http://www.w3.org/2000/svg" viewBox="0 0 882 380" width="882" height="380">
<defs><clipPath id="clip-0-0" clipPathUnits="userSpaceOnUse"><rect x="0" y="0" width="430" height="380" /></clipPath><clipPath id="clip-0-1" clipPathUnits="userSpaceOnUse"><rect x="452" y="0" width="430" height="380" /></clipPath></defs>
<g clip-path="url(#clip-0-0)"><g transform="translate(0,0)">  <rect width="430" height="380" fill="#faf9f5" />
  <path d="M 236.24,56.3 L 239.84,57.53 L 243.49,58.89 L 247.17,60.28 L 250.86,61.67 L 254.57,63.06 L 258.27,64.44 L 261.97,65.81 L 265.68,67.19 L 269.38,68.57 L 273.06,69.94 L 276.71,71.32 L 280.28,72.69 L 283.9,74.09 L 284.12,73.54 L 280.51,72.1 L 276.96,70.67 L 273.31,69.28 L 269.62,67.9 L 265.92,66.53 L 262.21,65.16 L 258.51,63.79 L 254.8,62.42 L 251.1,61.03 L 247.41,59.64 L 243.72,58.25 L 240.05,56.95 L 236.42,55.75 Z" fill="#1a1a1a" fill-opacity="0.55" stroke="#1a1a1a" stroke-width="0.4" stroke-opacity="0.55" stroke-linejoin="round" />
  <path d="M 211.89,54.86 L 215.39,56.25 L 219.05,57.66 L 222.75,59.06 L 226.48,60.45 L 230.24,61.82 L 234,63.18 L 237.75,64.52 L 241.51,65.86 L 245.29,67.2 L 249.07,68.55 L 252.85,69.9 L 256.6,71.27 L 260.33,72.64 L 264.04,74 L 267.74,75.35 L 271.42,76.7 L 275.1,78.04 L 278.78,79.39 L 282.46,80.75 L 286.14,82.12 L 289.82,83.49 L 293.49,84.87 L 297.19,86.28 L 300.94,87.73 L 304.65,89.07 L 304.84,88.52 L 301.15,87.17 L 297.42,85.7 L 293.72,84.26 L 290.05,82.86 L 286.38,81.5 L 282.69,80.14 L 279.01,78.78 L 275.33,77.43 L 271.65,76.08 L 267.97,74.73 L 264.27,73.37 L 260.56,72.01 L 256.83,70.65 L 253.08,69.28 L 249.29,67.93 L 245.51,66.58 L 241.73,65.24 L 237.97,63.89 L 234.23,62.54 L 230.47,61.18 L 226.72,59.8 L 222.99,58.43 L 219.27,57.05 L 215.62,55.68 L 212.11,54.3 Z" fill="#1a1a1a" fill-opacity="0.55" stroke="#1a1a1a" stroke-width="0.4" stroke-opacity="0.55" stroke-linejoin="round" />
  <path d="M 195.19,56.25 L 198.88,57.67 L 202.53,59.02 L 206.2,60.3 L 209.84,61.58 L 213.44,62.87 L 217.03,64.18 L 220.62,65.52 L 224.25,66.87 L 227.9,68.22 L 231.59,69.57 L 235.3,70.92 L 239.02,72.28 L 242.75,73.64 L 246.46,75.01 L 250.15,76.38 L 253.83,77.75 L 257.49,79.12 L 261.14,80.49 L 264.78,81.84 L 268.39,83.18 L 272,84.52 L 275.6,85.84 L 279.19,87.15 L 282.79,88.44 L 286.39,89.74 L 290.02,91.02 L 293.65,92.29 L 297.31,93.56 L 300.97,94.84 L 304.63,96.18 L 308.28,97.55 L 311.92,98.94 L 315.61,100.37 L 315.82,99.83 L 312.13,98.39 L 308.5,96.98 L 304.86,95.57 L 301.2,94.2 L 297.55,92.88 L 293.9,91.59 L 290.26,90.31 L 286.64,89.04 L 283.04,87.76 L 279.44,86.47 L 275.84,85.18 L 272.24,83.87 L 268.63,82.54 L 265.01,81.21 L 261.38,79.86 L 257.73,78.5 L 254.06,77.13 L 250.39,75.75 L 246.69,74.37 L 242.99,73 L 239.26,71.63 L 235.54,70.26 L 231.83,68.9 L 228.15,67.55 L 224.49,66.2 L 220.87,64.85 L 217.28,63.51 L 213.68,62.2 L 210.07,60.93 L 206.41,59.68 L 202.74,58.42 L 199.09,57.1 L 195.41,55.69 Z" fill="#1a1a1a" fill-opacity="0.55" stroke="#1a1a1a" stroke-width="0.4" stroke-opacity="0.55" stroke-linejoin="round" />
  <path d="M 181.79,59.25 L 185.63,60.59 L 189.37,62.06 L 193.06,63.5 L 196.78,64.89 L 200.52,66.25 L 204.24,67.6 L 207.96,68.93 L 211.67,70.25 L 215.39,71.58 L 219.11,72.9 L 222.86,74.24 L 226.63,75.57 L 230.41,76.9 L 234.19,78.22 L 237.97,79.54 L 241.73,80.86 L 245.47,82.18 L 249.19,83.49 L 252.89,84.8 L 256.59,86.12 L 260.29,87.44 L 263.99,88.78 L 267.7,90.14 L 271.42,91.51 L 275.16,92.89 L 278.91,94.28 L 282.67,95.66 L 286.43,97.03 L 290.18,98.4 L 293.94,99.76 L 297.7,101.11 L 301.47,102.44 L 305.25,103.77 L 309.02,105.09 L 312.77,106.44 L 316.48,107.82 L 320.19,109.24 L 323.81,110.72 L 324.04,110.18 L 320.41,108.69 L 316.71,107.24 L 313,105.83 L 309.26,104.44 L 305.49,103.09 L 301.72,101.75 L 297.95,100.42 L 294.19,99.08 L 290.42,97.72 L 286.67,96.36 L 282.91,95 L 279.16,93.62 L 275.41,92.24 L 271.67,90.86 L 267.94,89.48 L 264.23,88.13 L 260.52,86.79 L 256.82,85.46 L 253.12,84.13 L 249.42,82.82 L 245.71,81.5 L 241.97,80.19 L 238.2,78.87 L 234.42,77.55 L 230.64,76.23 L 226.86,74.91 L 223.09,73.58 L 219.34,72.26 L 215.62,70.93 L 211.9,69.61 L 208.19,68.29 L 204.47,66.96 L 200.74,65.63 L 197,64.28 L 193.29,62.91 L 189.59,61.49 L 185.84,60.03 L 181.98,58.69 Z" fill="#1a1a1a" fill-opacity="0.55" stroke="#1a1a1a" stroke-width="0.4" stroke-opacity="0.55" stroke-linejoin="round" />
  <path d="M 170.42,62.3 L 174.25,64 L 178.08,65.51 L 181.85,66.96 L 185.58,68.36 L 189.3,69.69 L 193.04,70.97 L 196.81,72.24 L 200.6,73.52 L 204.39,74.81 L 208.15,76.13 L 211.88,77.48 L 215.57,78.83 L 219.26,80.17 L 222.94,81.51 L 226.62,82.85 L 230.31,84.17 L 234,85.49 L 237.7,86.82 L 241.41,88.16 L 245.12,89.52 L 248.83,90.89 L 252.55,92.28 L 256.26,93.68 L 259.98,95.08 L 263.71,96.48 L 267.44,97.86 L 271.17,99.23 L 274.89,100.57 L 278.59,101.9 L 282.27,103.23 L 285.93,104.54 L 289.59,105.86 L 293.25,107.17 L 296.91,108.5 L 300.59,109.82 L 304.29,111.15 L 308.02,112.49 L 311.79,113.83 L 315.61,115.16 L 319.44,116.49 L 323.26,117.85 L 327.17,119.29 L 330.81,120.5 L 330.99,119.95 L 327.37,118.74 L 323.46,117.29 L 319.65,115.89 L 315.83,114.54 L 312.02,113.18 L 308.26,111.82 L 304.53,110.47 L 300.84,109.13 L 297.16,107.81 L 293.49,106.48 L 289.84,105.16 L 286.19,103.85 L 282.52,102.53 L 278.84,101.2 L 275.14,99.87 L 271.43,98.53 L 267.7,97.16 L 263.97,95.78 L 260.24,94.39 L 256.52,93 L 252.79,91.61 L 249.08,90.23 L 245.36,88.87 L 241.65,87.51 L 237.94,86.18 L 234.23,84.85 L 230.54,83.52 L 226.85,82.2 L 223.17,80.87 L 219.49,79.53 L 215.81,78.19 L 212.11,76.84 L 208.37,75.5 L 204.6,74.18 L 200.81,72.88 L 197.02,71.6 L 193.25,70.33 L 189.52,69.06 L 185.8,67.74 L 182.07,66.36 L 178.3,64.93 L 174.49,63.44 L 170.66,61.75 Z" fill="#1a1a1a" fill-opacity="0.55" stroke="#1a1a1a" stroke-width="0.4" stroke-opacity="0.55" stroke-linejoin="round" />
  <path d="M 160.21,66.4 L 164.21,67.68 L 168.02,69.03 L 171.79,70.42 L 175.51,71.82 L 179.22,73.21 L 182.94,74.58 L 186.67,75.92 L 190.42,77.25 L 194.16,78.59 L 197.9,79.94 L 201.62,81.3 L 205.33,82.67 L 209.01,84.04 L 212.69,85.41 L 216.37,86.78 L 220.05,88.15 L 223.74,89.51 L 227.44,90.87 L 231.15,92.21 L 234.86,93.55 L 238.59,94.87 L 242.32,96.19 L 246.06,97.5 L 249.8,98.81 L 253.55,100.13 L 257.29,101.45 L 261.04,102.78 L 264.79,104.12 L 268.53,105.48 L 272.28,106.85 L 276.02,108.23 L 279.75,109.61 L 283.49,110.97 L 287.22,112.33 L 290.97,113.68 L 294.73,115.02 L 298.5,116.36 L 302.27,117.69 L 306.02,119.04 L 309.74,120.39 L 313.43,121.74 L 317.08,123.1 L 320.7,124.48 L 324.27,125.89 L 327.89,127.35 L 331.54,128.87 L 335.26,130.31 L 335.48,129.76 L 331.76,128.32 L 328.12,126.79 L 324.51,125.31 L 320.94,123.87 L 317.32,122.48 L 313.67,121.09 L 309.99,119.72 L 306.27,118.36 L 302.51,117.01 L 298.74,115.67 L 294.97,114.34 L 291.21,113.01 L 287.47,111.66 L 283.73,110.3 L 280,108.93 L 276.27,107.55 L 272.53,106.17 L 268.78,104.8 L 265.04,103.44 L 261.29,102.09 L 257.54,100.76 L 253.79,99.44 L 250.04,98.12 L 246.3,96.8 L 242.56,95.49 L 238.83,94.18 L 235.11,92.86 L 231.39,91.53 L 227.68,90.19 L 223.99,88.83 L 220.3,87.47 L 216.62,86.1 L 212.94,84.73 L 209.27,83.36 L 205.58,81.98 L 201.88,80.61 L 198.15,79.24 L 194.41,77.89 L 190.66,76.56 L 186.91,75.23 L 183.18,73.91 L 179.46,72.56 L 175.75,71.19 L 172.01,69.82 L 168.23,68.45 L 164.4,67.11 L 160.39,65.83 Z" fill="#1a1a1a" fill-opacity="0.55" stroke="#1a1a1a" stroke-width="0.4" stroke-opacity="0.55" stroke-linejoin="round" />
  <path d="M 152.24,70.51 L 155.95,71.96 L 159.68,73.32 L 163.41,74.71 L 167.11,76.1 L 170.8,77.48 L 174.52,78.85 L 178.26,80.2 L 182.02,81.56 L 185.8,82.91 L 189.6,84.28 L 193.4,85.66 L 197.21,87.05 L 201.01,88.44 L 204.82,89.82 L 208.64,91.2 L 212.45,92.57 L 216.25,93.94 L 220.04,95.31 L 223.82,96.69 L 227.59,98.08 L 231.35,99.49 L 235.11,100.89 L 238.88,102.3 L 242.66,103.7 L 246.44,105.09 L 250.22,106.45 L 253.99,107.8 L 257.75,109.15 L 261.49,110.51 L 265.22,111.87 L 268.95,113.24 L 272.66,114.6 L 276.36,115.96 L 280.07,117.31 L 283.78,118.65 L 287.51,119.97 L 291.26,121.27 L 295.01,122.59 L 298.77,123.92 L 302.54,125.28 L 306.32,126.64 L 310.1,128.01 L 313.87,129.38 L 317.62,130.75 L 321.35,132.15 L 325.06,133.55 L 328.78,134.94 L 332.52,136.28 L 336.21,137.55 L 339.69,138.77 L 339.89,138.2 L 336.41,136.98 L 332.72,135.7 L 329,134.34 L 325.29,132.94 L 321.58,131.53 L 317.86,130.13 L 314.1,128.75 L 310.32,127.38 L 306.55,126.01 L 302.77,124.64 L 299,123.28 L 295.23,121.95 L 291.48,120.63 L 287.74,119.32 L 284.02,117.99 L 280.31,116.65 L 276.6,115.3 L 272.9,113.94 L 269.19,112.58 L 265.46,111.22 L 261.73,109.85 L 257.99,108.5 L 254.23,107.14 L 250.46,105.79 L 246.68,104.43 L 242.9,103.05 L 239.12,101.66 L 235.35,100.26 L 231.58,98.85 L 227.82,97.45 L 224.05,96.06 L 220.27,94.68 L 216.48,93.31 L 212.68,91.93 L 208.87,90.55 L 205.06,89.17 L 201.25,87.78 L 197.44,86.4 L 193.63,85.02 L 189.83,83.64 L 186.03,82.27 L 182.25,80.91 L 178.49,79.57 L 174.74,78.22 L 171.03,76.87 L 167.33,75.51 L 163.63,74.13 L 159.89,72.76 L 156.16,71.41 L 152.45,69.97 Z" fill="#1a1a1a" fill-opacity="0.55" stroke="#1a1a1a" stroke-width="0.4" stroke-opacity="0.55" stroke-linejoin="round" />
  <path d="M 143.89,75.16 L 147.52,76.54 L 151.44,77.93 L 155.31,79.23 L 159.1,80.51 L 162.88,81.81 L 166.65,83.14 L 170.42,84.5 L 174.17,85.89 L 177.91,87.27 L 181.62,88.66 L 185.33,90.04 L 189.04,91.41 L 192.76,92.78 L 196.48,94.14 L 200.21,95.5 L 203.93,96.85 L 207.66,98.21 L 211.4,99.57 L 215.14,100.93 L 218.88,102.29 L 222.64,103.65 L 226.4,104.99 L 230.18,106.33 L 233.97,107.67 L 237.77,109.04 L 237.97,108.47 L 234.18,107.09 L 230.41,105.71 L 226.64,104.33 L 222.89,102.96 L 219.14,101.6 L 215.39,100.24 L 211.65,98.88 L 207.92,97.51 L 204.19,96.15 L 200.46,94.79 L 196.73,93.44 L 193.01,92.08 L 189.3,90.72 L 185.59,89.35 L 181.88,87.97 L 178.16,86.59 L 174.42,85.21 L 170.66,83.82 L 166.89,82.46 L 163.11,81.14 L 159.32,79.85 L 155.52,78.61 L 151.64,77.35 L 147.73,75.98 L 144.09,74.62 Z" fill="#1a1a1a" fill-opacity="0.55" stroke="#1a1a1a" stroke-width="0.4" stroke-opacity="0.55" stroke-linejoin="round" />
  <path d="M 249.15,113.18 L 252.94,114.57 L 256.73,115.97 L 260.51,117.38 L 264.27,118.78 L 268.04,120.19 L 271.81,121.6 L 275.58,123.01 L 279.37,124.42 L 283.16,125.83 L 286.96,127.23 L 290.76,128.61 L 294.55,129.97 L 298.33,131.31 L 302.1,132.64 L 305.87,133.94 L 309.63,135.25 L 313.39,136.55 L 317.13,137.88 L 320.87,139.22 L 324.6,140.58 L 328.33,141.96 L 332.06,143.31 L 335.78,144.66 L 339.52,146.04 L 343.27,147.36 L 343.47,146.79 L 339.73,145.45 L 336.01,144.04 L 332.3,142.65 L 328.59,141.27 L 324.86,139.89 L 321.12,138.53 L 317.38,137.18 L 313.64,135.86 L 309.88,134.55 L 306.11,133.24 L 302.35,131.93 L 298.57,130.61 L 294.79,129.28 L 291.01,127.92 L 287.21,126.54 L 283.41,125.15 L 279.62,123.74 L 275.83,122.33 L 272.06,120.92 L 268.29,119.52 L 264.52,118.13 L 260.73,116.76 L 256.94,115.39 L 253.14,114.01 L 249.35,112.63 Z" fill="#1a1a1a" fill-opacity="0.55" stroke="#1a1a1a" stroke-width="0.4" stroke-opacity="0.55" stroke-linejoin="round" />
  <path d="M 136.5,80.01 L 140.52,81.53 L 144.14,82.97 L 147.85,84.28 L 151.61,85.52 L 155.35,86.78 L 159.09,88.09 L 162.83,89.45 L 166.56,90.83 L 170.3,92.23 L 174.06,93.64 L 177.85,95.05 L 181.65,96.43 L 185.43,97.8 L 189.19,99.15 L 192.93,100.49 L 196.63,101.82 L 200.32,103.15 L 204,104.47 L 207.68,105.79 L 211.37,107.13 L 211.57,106.59 L 207.88,105.23 L 204.21,103.88 L 200.54,102.54 L 196.85,101.2 L 193.15,99.86 L 189.42,98.52 L 185.66,97.16 L 181.87,95.8 L 178.08,94.42 L 174.3,93.02 L 170.53,91.62 L 166.79,90.21 L 163.06,88.81 L 159.32,87.45 L 155.58,86.13 L 151.82,84.86 L 148.07,83.63 L 144.37,82.36 L 140.74,80.96 L 136.71,79.46 Z" fill="#1a1a1a" fill-opacity="0.55" stroke="#1a1a1a" stroke-width="0.4" stroke-opacity="0.55" stroke-linejoin="round" />
  <path d="M 267.13,127.2 L 270.81,128.55 L 274.5,129.92 L 278.22,131.29 L 281.95,132.65 L 285.7,134.01 L 289.45,135.36 L 293.19,136.71 L 296.93,138.07 L 300.66,139.43 L 304.37,140.8 L 308.07,142.17 L 311.76,143.53 L 315.45,144.88 L 319.15,146.22 L 322.84,147.55 L 326.54,148.84 L 330.23,150.11 L 333.92,151.39 L 337.63,152.73 L 341.37,154.27 L 345.23,156.01 L 345.47,155.48 L 341.61,153.72 L 337.85,152.15 L 334.13,150.78 L 330.44,149.49 L 326.76,148.22 L 323.06,146.92 L 319.38,145.59 L 315.68,144.25 L 311.99,142.9 L 308.3,141.55 L 304.6,140.18 L 300.88,138.81 L 297.15,137.44 L 293.42,136.07 L 289.68,134.71 L 285.94,133.36 L 282.19,132 L 278.45,130.65 L 274.72,129.31 L 271.02,127.98 L 267.33,126.64 Z" fill="#1a1a1a" fill-opacity="0.55" stroke="#1a1a1a" stroke-width="0.4" stroke-opacity="0.55" stroke-linejoin="round" />
  <path d="M 130.28,85.08 L 134.37,86.51 L 138.01,87.77 L 141.66,89.02 L 145.3,90.29 L 148.91,91.62 L 152.5,92.98 L 156.1,94.35 L 159.75,95.72 L 163.45,97.09 L 167.22,98.44 L 171.02,99.79 L 174.84,101.14 L 178.66,102.5 L 182.47,103.87 L 186.27,105.25 L 190.07,106.63 L 193.88,107.99 L 197.7,109.34 L 201.51,110.69 L 201.72,110.12 L 197.91,108.75 L 194.11,107.35 L 190.32,105.96 L 186.52,104.57 L 182.72,103.2 L 178.9,101.83 L 175.07,100.48 L 171.25,99.13 L 167.45,97.78 L 163.69,96.43 L 159.98,95.08 L 156.34,93.72 L 152.73,92.35 L 149.15,90.99 L 145.53,89.65 L 141.88,88.38 L 138.22,87.17 L 134.57,85.94 L 130.47,84.53 Z" fill="#1a1a1a" fill-opacity="0.55" stroke="#1a1a1a" stroke-width="0.4" stroke-opacity="0.55" stroke-linejoin="round" />
  <path d="M 272.67,136.32 L 276.37,137.68 L 280.08,139.06 L 283.79,140.45 L 287.52,141.84 L 291.26,143.25 L 295,144.66 L 298.73,146.08 L 302.45,147.48 L 306.16,148.85 L 309.88,150.2 L 313.62,151.53 L 317.38,152.87 L 321.15,154.22 L 324.94,155.59 L 328.71,156.94 L 332.44,158.23 L 336.13,159.5 L 339.8,160.83 L 343.55,162.37 L 347.41,164.04 L 347.65,163.49 L 343.8,161.8 L 340.04,160.2 L 336.37,158.83 L 332.68,157.55 L 328.95,156.26 L 325.18,154.92 L 321.39,153.56 L 317.62,152.21 L 313.85,150.87 L 310.11,149.54 L 306.39,148.2 L 302.69,146.84 L 298.97,145.45 L 295.24,144.03 L 291.5,142.62 L 287.76,141.21 L 284.02,139.83 L 280.3,138.47 L 276.58,137.12 L 272.87,135.77 Z" fill="#1a1a1a" fill-opacity="0.55" stroke="#1a1a1a" stroke-width="0.4" stroke-opacity="0.55" stroke-linejoin="round" />
  <path d="M 124.22,90 L 127.89,91.44 L 131.61,92.89 L 135.44,94.32 L 139.24,95.71 L 142.94,97.12 L 146.63,98.53 L 150.32,99.93 L 154.03,101.31 L 157.75,102.69 L 161.48,104.06 L 165.2,105.42 L 168.92,106.76 L 172.63,108.09 L 176.34,109.4 L 180.06,110.69 L 183.79,111.95 L 187.52,113.19 L 191.24,114.46 L 191.44,113.9 L 187.72,112.6 L 184.01,111.31 L 180.29,110.02 L 176.58,108.73 L 172.87,107.41 L 169.17,106.08 L 165.46,104.73 L 161.74,103.37 L 158.01,101.99 L 154.28,100.61 L 150.58,99.24 L 146.89,97.86 L 143.2,96.45 L 139.49,95.04 L 135.69,93.64 L 131.85,92.25 L 128.12,90.85 L 124.44,89.44 Z" fill="#1a1a1a" fill-opacity="0.55" stroke="#1a1a1a" stroke-width="0.4" stroke-opacity="0.55" stroke-linejoin="round" />
  <path d="M 277.02,146.08 L 280.75,147.48 L 284.51,148.9 L 288.31,150.28 L 292.12,151.62 L 295.93,152.94 L 299.73,154.24 L 303.51,155.55 L 307.27,156.87 L 311,158.2 L 314.69,159.58 L 318.38,160.99 L 322.09,162.43 L 325.81,163.86 L 329.54,165.25 L 333.28,166.57 L 337.07,167.88 L 340.86,169.21 L 344.59,170.56 L 348.38,171.75 L 348.56,171.18 L 344.79,169.97 L 341.09,168.57 L 337.3,167.2 L 333.52,165.89 L 329.78,164.57 L 326.06,163.19 L 322.35,161.75 L 318.65,160.31 L 314.96,158.88 L 311.25,157.51 L 307.52,156.17 L 303.75,154.86 L 299.96,153.56 L 296.16,152.26 L 292.35,150.94 L 288.55,149.6 L 284.75,148.26 L 280.97,146.9 L 277.22,145.52 Z" fill="#1a1a1a" fill-opacity="0.55" stroke="#1a1a1a" stroke-width="0.4" stroke-opacity="0.55" stroke-linejoin="round" />
  <path d="M 118.47,95.88 L 122.24,97.29 L 125.94,98.56 L 129.53,99.76 L 133.15,101.01 L 136.87,102.35 L 140.67,103.71 L 144.49,105.06 L 148.29,106.37 L 152.06,107.7 L 155.77,109.04 L 159.49,110.4 L 163.23,111.77 L 166.97,113.14 L 170.71,114.53 L 174.47,115.91 L 178.23,117.26 L 181.98,118.6 L 185.71,119.96 L 185.91,119.4 L 182.19,118.02 L 178.46,116.63 L 174.71,115.24 L 170.96,113.86 L 167.21,112.48 L 163.47,111.11 L 159.74,109.74 L 156.01,108.38 L 152.29,107.04 L 148.52,105.71 L 144.72,104.39 L 140.9,103.05 L 137.11,101.68 L 133.39,100.34 L 129.76,99.08 L 126.15,97.91 L 122.45,96.7 L 118.68,95.32 Z" fill="#1a1a1a" fill-opacity="0.55" stroke="#1a1a1a" stroke-width="0.4" stroke-opacity="0.55" stroke-linejoin="round" />
  <path d="M 278.64,153.64 L 282.36,155.02 L 286.06,156.41 L 289.76,157.8 L 293.47,159.17 L 297.18,160.52 L 300.9,161.86 L 304.63,163.18 L 308.35,164.5 L 312.05,165.84 L 315.75,167.22 L 319.47,168.65 L 323.21,170.1 L 326.99,171.54 L 330.76,172.95 L 334.48,174.3 L 338.11,175.6 L 341.78,176.88 L 345.51,178.12 L 349.09,179.28 L 349.27,178.71 L 345.7,177.53 L 341.99,176.26 L 338.35,174.94 L 334.72,173.63 L 331.01,172.28 L 327.24,170.88 L 323.47,169.45 L 319.72,168 L 316,166.57 L 312.29,165.18 L 308.58,163.84 L 304.86,162.52 L 301.14,161.19 L 297.42,159.85 L 293.71,158.49 L 290.01,157.13 L 286.3,155.77 L 282.57,154.43 L 278.84,153.08 Z" fill="#1a1a1a" fill-opacity="0.55" stroke="#1a1a1a" stroke-width="0.4" stroke-opacity="0.55" stroke-linejoin="round" />
  <path d="M 113.59,101.31 L 117.24,102.61 L 120.89,103.93 L 124.56,105.27 L 128.3,106.67 L 132.12,108.12 L 135.94,109.58 L 139.74,111.01 L 143.53,112.4 L 147.31,113.75 L 151.09,115.06 L 154.86,116.35 L 158.62,117.64 L 162.39,118.94 L 166.14,120.27 L 169.88,121.62 L 173.63,122.96 L 177.37,124.29 L 181.09,125.65 L 181.3,125.09 L 177.58,123.71 L 173.87,122.31 L 170.13,120.93 L 166.39,119.58 L 162.63,118.25 L 158.87,116.94 L 155.1,115.64 L 151.33,114.35 L 147.56,113.05 L 143.78,111.71 L 140,110.33 L 136.19,108.9 L 132.37,107.45 L 128.56,106 L 124.81,104.6 L 121.12,103.29 L 117.45,102.02 L 113.79,100.75 Z" fill="#1a1a1a" fill-opacity="0.55" stroke="#1a1a1a" stroke-width="0.4" stroke-opacity="0.55" stroke-linejoin="round" />
  <path d="M 278.54,161.34 L 282.31,162.68 L 286.08,164.04 L 289.85,165.39 L 293.61,166.75 L 297.38,168.11 L 301.14,169.48 L 304.89,170.87 L 308.63,172.26 L 312.35,173.65 L 316.06,175 L 319.77,176.34 L 323.48,177.68 L 327.18,179.02 L 330.91,180.39 L 334.66,181.77 L 338.44,183.16 L 342.27,184.53 L 346.18,185.91 L 349.99,187.33 L 350.2,186.77 L 346.4,185.33 L 342.5,183.9 L 338.69,182.48 L 334.91,181.08 L 331.16,179.7 L 327.44,178.33 L 323.73,176.98 L 320.02,175.64 L 316.31,174.3 L 312.6,172.95 L 308.88,171.57 L 305.14,170.18 L 301.39,168.8 L 297.63,167.43 L 293.86,166.07 L 290.09,164.72 L 286.3,163.4 L 282.52,162.09 L 278.74,160.78 Z" fill="#1a1a1a" fill-opacity="0.55" stroke="#1a1a1a" stroke-width="0.4" stroke-opacity="0.55" stroke-linejoin="round" />
  <path d="M 108.26,106.62 L 111.93,108.19 L 115.65,109.61 L 119.43,111 L 123.22,112.37 L 126.99,113.74 L 130.73,115.11 L 134.43,116.46 L 138.1,117.81 L 141.78,119.16 L 145.48,120.53 L 149.21,121.89 L 152.96,123.26 L 156.72,124.62 L 160.48,125.96 L 164.24,127.3 L 167.98,128.63 L 171.69,129.97 L 175.39,131.31 L 175.6,130.76 L 171.9,129.4 L 168.2,128.02 L 164.47,126.65 L 160.72,125.31 L 156.96,123.96 L 153.19,122.61 L 149.44,121.25 L 145.71,119.89 L 142.02,118.53 L 138.34,117.17 L 134.66,115.82 L 130.97,114.46 L 127.23,113.09 L 123.46,111.71 L 119.66,110.34 L 115.88,108.99 L 112.16,107.62 L 108.49,106.07 Z" fill="#1a1a1a" fill-opacity="0.55" stroke="#1a1a1a" stroke-width="0.4" stroke-opacity="0.55" stroke-linejoin="round" />
  <path d="M 279.31,168.89 L 282.98,170.27 L 286.64,171.66 L 290.31,173.04 L 293.98,174.41 L 297.67,175.77 L 301.36,177.12 L 305.06,178.47 L 308.76,179.83 L 312.47,181.18 L 316.19,182.56 L 319.95,183.95 L 323.76,185.33 L 327.6,186.71 L 331.43,188.07 L 335.21,189.43 L 338.94,190.8 L 342.58,192.15 L 346.21,193.48 L 350.01,194.82 L 350.2,194.27 L 346.41,192.91 L 342.81,191.54 L 339.18,190.15 L 335.45,188.78 L 331.66,187.42 L 327.84,186.06 L 324,184.69 L 320.18,183.31 L 316.43,181.92 L 312.7,180.55 L 308.99,179.19 L 305.29,177.83 L 301.6,176.47 L 297.91,175.12 L 294.22,173.76 L 290.55,172.39 L 286.87,171.04 L 283.19,169.7 L 279.51,168.34 Z" fill="#1a1a1a" fill-opacity="0.55" stroke="#1a1a1a" stroke-width="0.4" stroke-opacity="0.55" stroke-linejoin="round" />
  <path d="M 104.41,112.87 L 108.05,114.34 L 111.68,115.66 L 115.28,116.96 L 118.9,118.27 L 122.58,119.56 L 126.28,120.82 L 129.99,122.07 L 133.71,123.36 L 137.43,124.67 L 141.15,126.02 L 144.86,127.39 L 148.58,128.79 L 152.31,130.19 L 156.05,131.6 L 159.8,133.01 L 163.56,134.42 L 167.33,135.83 L 171.1,137.23 L 174.85,138.64 L 175.05,138.09 L 171.31,136.66 L 167.55,135.22 L 163.8,133.78 L 160.04,132.36 L 156.3,130.94 L 152.56,129.52 L 148.83,128.12 L 145.11,126.72 L 141.4,125.34 L 137.68,123.99 L 133.95,122.67 L 130.22,121.39 L 126.51,120.13 L 122.82,118.87 L 119.14,117.59 L 115.52,116.3 L 111.9,115.03 L 108.27,113.77 L 104.63,112.33 Z" fill="#1a1a1a" fill-opacity="0.55" stroke="#1a1a1a" stroke-width="0.4" stroke-opacity="0.55" stroke-linejoin="round" />
  <path d="M 279.03,176.07 L 282.73,177.44 L 286.44,178.81 L 290.15,180.17 L 293.86,181.51 L 297.55,182.82 L 301.23,184.14 L 304.9,185.45 L 308.55,186.78 L 312.2,188.13 L 315.87,189.5 L 319.55,190.9 L 323.27,192.31 L 327,193.7 L 330.71,195.05 L 334.4,196.38 L 338.13,197.72 L 341.95,199.03 L 345.8,200.4 L 349.81,202.1 L 350.04,201.56 L 346.03,199.83 L 342.17,198.42 L 338.36,197.07 L 334.64,195.72 L 330.95,194.39 L 327.24,193.03 L 323.52,191.64 L 319.81,190.23 L 316.12,188.83 L 312.45,187.45 L 308.8,186.1 L 305.14,184.77 L 301.48,183.45 L 297.8,182.14 L 294.1,180.83 L 290.39,179.51 L 286.66,178.19 L 282.94,176.86 L 279.23,175.52 Z" fill="#1a1a1a" fill-opacity="0.55" stroke="#1a1a1a" stroke-width="0.4" stroke-opacity="0.55" stroke-linejoin="round" />
  <path d="M 100.44,118.77 L 104.32,120.23 L 108.06,121.44 L 111.71,122.81 L 115.32,124.23 L 118.96,125.64 L 122.64,127.06 L 126.37,128.47 L 130.13,129.87 L 133.88,131.25 L 137.61,132.6 L 141.32,133.95 L 145.02,135.31 L 148.71,136.66 L 152.4,138.01 L 156.1,139.35 L 159.79,140.68 L 163.5,141.99 L 167.21,143.29 L 170.91,144.6 L 171.1,144.05 L 167.41,142.73 L 163.71,141.4 L 160.02,140.06 L 156.33,138.72 L 152.64,137.36 L 148.95,136.01 L 145.26,134.65 L 141.56,133.3 L 137.85,131.95 L 134.12,130.59 L 130.37,129.21 L 126.62,127.82 L 122.89,126.4 L 119.21,124.99 L 115.57,123.59 L 111.95,122.18 L 108.27,120.84 L 104.51,119.66 L 100.64,118.23 Z" fill="#1a1a1a" fill-opacity="0.55" stroke="#1a1a1a" stroke-width="0.4" stroke-opacity="0.55" stroke-linejoin="round" />
  <path d="M 274.4,182.24 L 278.12,183.58 L 281.84,184.94 L 285.59,186.31 L 289.35,187.68 L 293.12,189.02 L 296.86,190.35 L 300.58,191.65 L 304.29,192.95 L 307.97,194.25 L 311.63,195.57 L 315.27,196.9 L 318.9,198.24 L 322.54,199.62 L 326.23,201.04 L 329.97,202.51 L 333.74,203.98 L 337.53,205.42 L 341.31,206.77 L 345.01,207.99 L 348.89,209.41 L 349.09,208.87 L 345.2,207.43 L 341.51,206.18 L 337.75,204.81 L 333.98,203.35 L 330.22,201.88 L 326.48,200.41 L 322.79,198.98 L 319.14,197.59 L 315.51,196.24 L 311.87,194.91 L 308.2,193.6 L 304.52,192.29 L 300.82,190.99 L 297.09,189.69 L 293.35,188.37 L 289.59,187.03 L 285.82,185.68 L 282.06,184.35 L 278.32,183.02 L 274.6,181.7 Z" fill="#1a1a1a" fill-opacity="0.55" stroke="#1a1a1a" stroke-width="0.4" stroke-opacity="0.55" stroke-linejoin="round" />
  <path d="M 96.68,124.73 L 100.39,126.22 L 104.3,127.72 L 108.01,129.19 L 111.67,130.58 L 115.37,131.88 L 119.1,133.11 L 122.81,134.34 L 126.5,135.62 L 130.19,136.94 L 133.89,138.31 L 137.62,139.69 L 141.35,141.08 L 145.07,142.46 L 148.79,143.84 L 152.51,145.22 L 156.23,146.59 L 159.95,147.98 L 163.69,149.36 L 167.46,150.74 L 171.26,152.12 L 171.47,151.57 L 167.68,150.16 L 163.92,148.74 L 160.19,147.32 L 156.48,145.92 L 152.76,144.53 L 149.05,143.16 L 145.33,141.78 L 141.6,140.4 L 137.87,139.02 L 134.14,137.64 L 130.43,136.28 L 126.73,134.95 L 123.03,133.68 L 119.32,132.45 L 115.59,131.21 L 111.91,129.92 L 108.26,128.54 L 104.53,127.1 L 100.61,125.65 L 96.9,124.18 Z" fill="#1a1a1a" fill-opacity="0.55" stroke="#1a1a1a" stroke-width="0.4" stroke-opacity="0.55" stroke-linejoin="round" />
  <path d="M 272.41,188.69 L 276.16,190.03 L 279.9,191.4 L 283.66,192.78 L 287.43,194.16 L 291.2,195.56 L 294.96,196.97 L 298.71,198.38 L 302.44,199.78 L 306.15,201.16 L 309.87,202.53 L 313.59,203.91 L 317.33,205.28 L 321.05,206.66 L 324.75,208.03 L 328.4,209.41 L 332.05,210.83 L 335.75,212.28 L 339.5,213.76 L 343.27,215.13 L 346.87,216.23 L 347.05,215.66 L 343.47,214.55 L 339.73,213.14 L 336.01,211.63 L 332.31,210.16 L 328.66,208.73 L 325.01,207.34 L 321.3,205.98 L 317.57,204.61 L 313.84,203.24 L 310.11,201.87 L 306.4,200.5 L 302.68,199.12 L 298.96,197.72 L 295.21,196.31 L 291.45,194.9 L 287.67,193.51 L 283.9,192.13 L 280.13,190.78 L 276.36,189.46 L 272.61,188.14 Z" fill="#1a1a1a" fill-opacity="0.55" stroke="#1a1a1a" stroke-width="0.4" stroke-opacity="0.55" stroke-linejoin="round" />
  <path d="M 93.66,131.24 L 97.54,132.7 L 101.39,134.07 L 105.19,135.37 L 108.97,136.69 L 112.72,138.11 L 116.46,139.59 L 120.2,141.07 L 123.95,142.51 L 127.69,143.9 L 131.44,145.28 L 135.19,146.67 L 138.97,148.05 L 142.77,149.42 L 146.58,150.78 L 150.39,152.13 L 154.19,153.46 L 157.98,154.77 L 161.75,156.06 L 165.52,157.34 L 169.29,158.65 L 169.48,158.09 L 165.73,156.76 L 161.97,155.43 L 158.21,154.1 L 154.43,152.79 L 150.62,151.47 L 146.82,150.12 L 143.01,148.76 L 139.21,147.39 L 135.44,146 L 131.68,144.61 L 127.94,143.23 L 124.2,141.83 L 120.47,140.39 L 116.73,138.92 L 112.98,137.44 L 109.21,136.02 L 105.41,134.7 L 101.6,133.45 L 97.75,132.12 L 93.87,130.68 Z" fill="#1a1a1a" fill-opacity="0.55" stroke="#1a1a1a" stroke-width="0.4" stroke-opacity="0.55" stroke-linejoin="round" />
  <path d="M 266.39,194.28 L 270.13,195.66 L 273.85,197.05 L 277.57,198.44 L 281.3,199.81 L 285.04,201.16 L 288.79,202.52 L 292.55,203.87 L 296.32,205.23 L 300.11,206.57 L 303.9,207.91 L 307.71,209.25 L 311.53,210.58 L 315.33,211.94 L 319.12,213.32 L 322.91,214.72 L 326.66,216.13 L 330.4,217.53 L 334.15,218.9 L 337.92,220.26 L 341.67,221.63 L 345.29,222.86 L 345.48,222.3 L 341.88,221.06 L 338.15,219.64 L 334.39,218.24 L 330.65,216.86 L 326.91,215.47 L 323.15,214.06 L 319.36,212.66 L 315.57,211.28 L 311.76,209.92 L 307.95,208.57 L 304.14,207.23 L 300.35,205.89 L 296.56,204.54 L 292.79,203.19 L 289.03,201.84 L 285.28,200.48 L 281.54,199.13 L 277.81,197.78 L 274.07,196.44 L 270.34,195.09 L 266.6,193.72 Z" fill="#1a1a1a" fill-opacity="0.55" stroke="#1a1a1a" stroke-width="0.4" stroke-opacity="0.55" stroke-linejoin="round" />
  <path d="M 90.79,137.93 L 94.32,139.08 L 97.91,140.38 L 101.62,141.77 L 105.39,143.16 L 109.19,144.5 L 112.99,145.79 L 116.81,147.07 L 120.62,148.37 L 124.42,149.7 L 128.19,151.06 L 131.93,152.41 L 135.66,153.76 L 139.38,155.12 L 143.09,156.49 L 146.8,157.86 L 150.49,159.25 L 154.17,160.66 L 157.85,162.07 L 161.52,163.47 L 165.19,164.86 L 168.87,166.25 L 169.08,165.68 L 165.42,164.27 L 161.76,162.85 L 158.1,161.41 L 154.43,159.99 L 150.75,158.57 L 147.05,157.19 L 143.34,155.82 L 139.62,154.46 L 135.9,153.1 L 132.17,151.75 L 128.42,150.4 L 124.65,149.05 L 120.85,147.72 L 117.04,146.41 L 113.22,145.13 L 109.42,143.84 L 105.63,142.5 L 101.85,141.12 L 98.13,139.77 L 94.52,138.5 L 90.98,137.36 Z" fill="#1a1a1a" fill-opacity="0.55" stroke="#1a1a1a" stroke-width="0.4" stroke-opacity="0.55" stroke-linejoin="round" />
  <path d="M 261.67,200.18 L 265.37,201.56 L 269.08,202.95 L 272.79,204.32 L 276.5,205.68 L 280.22,207.03 L 283.95,208.38 L 287.69,209.72 L 291.45,211.06 L 295.23,212.41 L 299.01,213.77 L 302.8,215.12 L 306.56,216.47 L 310.31,217.81 L 314.05,219.14 L 317.79,220.46 L 321.56,221.78 L 325.34,223.1 L 329.13,224.39 L 332.86,225.62 L 336.55,226.88 L 340.21,228.26 L 343.92,229.7 L 344.15,229.14 L 340.44,227.67 L 336.78,226.25 L 333.09,224.96 L 329.36,223.7 L 325.58,222.42 L 321.8,221.1 L 318.03,219.78 L 314.28,218.46 L 310.54,217.14 L 306.8,215.81 L 303.03,214.46 L 299.25,213.11 L 295.46,211.76 L 291.68,210.42 L 287.93,209.07 L 284.19,207.72 L 280.46,206.37 L 276.74,205.02 L 273.02,203.68 L 269.3,202.33 L 265.58,200.99 L 261.88,199.62 Z" fill="#1a1a1a" fill-opacity="0.55" stroke="#1a1a1a" stroke-width="0.4" stroke-opacity="0.55" stroke-linejoin="round" />
  <path d="M 88.19,144.04 L 91.89,145.22 L 95.66,146.59 L 99.34,148.03 L 102.98,149.45 L 106.64,150.82 L 110.34,152.17 L 114.08,153.51 L 117.82,154.85 L 121.58,156.2 L 125.33,157.57 L 129.07,158.94 L 132.78,160.32 L 136.46,161.71 L 140.14,163.1 L 143.81,164.49 L 147.49,165.88 L 151.19,167.28 L 154.92,168.68 L 158.66,170.07 L 162.41,171.45 L 166.16,172.81 L 169.91,174.16 L 173.65,175.51 L 173.86,174.94 L 170.13,173.57 L 166.39,172.18 L 162.66,170.77 L 158.92,169.37 L 155.18,167.98 L 151.45,166.58 L 147.75,165.19 L 144.07,163.81 L 140.39,162.43 L 136.71,161.04 L 133.03,159.66 L 129.31,158.27 L 125.57,156.9 L 121.82,155.53 L 118.06,154.18 L 114.31,152.85 L 110.58,151.52 L 106.88,150.17 L 103.23,148.8 L 99.58,147.41 L 95.88,145.99 L 92.09,144.66 L 88.37,143.48 Z" fill="#1a1a1a" fill-opacity="0.55" stroke="#1a1a1a" stroke-width="0.4" stroke-opacity="0.55" stroke-linejoin="round" />
  <path d="M 255.74,205.23 L 259.44,206.59 L 263.14,207.96 L 266.82,209.34 L 270.5,210.72 L 274.2,212.09 L 277.92,213.46 L 281.67,214.84 L 285.44,216.21 L 289.21,217.58 L 292.99,218.93 L 296.77,220.27 L 300.56,221.59 L 304.32,222.9 L 308.08,224.21 L 311.81,225.51 L 315.52,226.83 L 319.2,228.16 L 322.88,229.52 L 326.61,230.97 L 330.42,232.45 L 334.27,233.88 L 337.97,235.17 L 341.55,236.39 L 341.74,235.82 L 338.18,234.58 L 334.5,233.26 L 330.68,231.79 L 326.88,230.28 L 323.15,228.82 L 319.46,227.46 L 315.76,226.13 L 312.05,224.83 L 308.31,223.53 L 304.56,222.23 L 300.79,220.92 L 297.01,219.6 L 293.23,218.26 L 289.45,216.91 L 285.68,215.55 L 281.91,214.18 L 278.16,212.8 L 274.44,211.43 L 270.74,210.07 L 267.05,208.72 L 263.35,207.37 L 259.65,206.02 L 255.94,204.68 Z" fill="#1a1a1a" fill-opacity="0.55" stroke="#1a1a1a" stroke-width="0.4" stroke-opacity="0.55" stroke-linejoin="round" />
  <path d="M 85.73,150.6 L 89.34,152.49 L 93.07,153.82 L 96.8,155.01 L 100.56,156.3 L 104.33,157.61 L 108.1,158.9 L 111.85,160.18 L 115.6,161.48 L 119.35,162.8 L 123.09,164.15 L 126.83,165.52 L 130.56,166.9 L 134.29,168.28 L 138.01,169.66 L 141.74,171.03 L 145.46,172.39 L 149.16,173.76 L 152.86,175.12 L 156.56,176.49 L 160.25,177.85 L 163.96,179.2 L 167.66,180.54 L 171.37,181.87 L 175.07,183.2 L 175.28,182.64 L 171.58,181.29 L 167.88,179.93 L 164.19,178.56 L 160.49,177.19 L 156.8,175.83 L 153.1,174.47 L 149.41,173.1 L 145.7,171.73 L 141.98,170.36 L 138.26,168.99 L 134.53,167.62 L 130.8,166.25 L 127.06,164.88 L 123.32,163.51 L 119.57,162.17 L 115.82,160.84 L 112.07,159.55 L 108.31,158.26 L 104.55,156.97 L 100.78,155.66 L 97.01,154.39 L 93.27,153.22 L 89.58,151.94 L 86,150.09 Z" fill="#1a1a1a" fill-opacity="0.55" stroke="#1a1a1a" stroke-width="0.4" stroke-opacity="0.55" stroke-linejoin="round" />
  <path d="M 245.78,209.24 L 249.52,210.57 L 253.26,211.93 L 257,213.3 L 260.73,214.68 L 264.46,216.06 L 268.19,217.44 L 271.93,218.79 L 275.67,220.11 L 279.43,221.41 L 283.2,222.68 L 286.98,223.95 L 290.77,225.23 L 294.57,226.53 L 298.36,227.85 L 302.13,229.18 L 305.88,230.54 L 309.6,231.9 L 313.31,233.27 L 317,234.64 L 320.68,236.02 L 324.34,237.43 L 327.97,238.91 L 331.53,240.4 L 335.09,241.83 L 338.91,243.1 L 339.1,242.53 L 335.3,241.25 L 331.78,239.8 L 328.23,238.28 L 324.6,236.78 L 320.93,235.36 L 317.24,233.98 L 313.55,232.61 L 309.85,231.24 L 306.12,229.87 L 302.37,228.52 L 298.59,227.18 L 294.79,225.86 L 291,224.57 L 287.2,223.3 L 283.42,222.04 L 279.65,220.77 L 275.9,219.47 L 272.16,218.15 L 268.42,216.8 L 264.69,215.43 L 260.96,214.05 L 257.22,212.68 L 253.48,211.34 L 249.72,210.01 L 245.97,208.68 Z" fill="#1a1a1a" fill-opacity="0.55" stroke="#1a1a1a" stroke-width="0.4" stroke-opacity="0.55" stroke-linejoin="round" />
  <path d="M 83.48,157.28 L 87.47,159.12 L 91.3,160.56 L 94.99,161.93 L 98.63,163.25 L 102.28,164.55 L 105.95,165.82 L 109.61,167.08 L 113.26,168.36 L 116.92,169.66 L 120.59,171.02 L 124.29,172.41 L 128.02,173.82 L 131.78,175.22 L 135.55,176.6 L 139.32,177.96 L 143.08,179.29 L 146.82,180.6 L 150.53,181.91 L 154.22,183.22 L 157.9,184.53 L 161.58,185.84 L 165.26,187.17 L 168.94,188.51 L 172.63,189.85 L 176.32,191.19 L 180.02,192.55 L 183.71,193.94 L 183.92,193.38 L 180.23,191.98 L 176.55,190.58 L 172.86,189.2 L 169.18,187.84 L 165.5,186.5 L 161.82,185.17 L 158.14,183.86 L 154.45,182.56 L 150.76,181.25 L 147.05,179.95 L 143.31,178.63 L 139.56,177.29 L 135.79,175.93 L 132.03,174.55 L 128.27,173.15 L 124.54,171.75 L 120.83,170.35 L 117.16,169 L 113.5,167.69 L 109.84,166.4 L 106.18,165.15 L 102.51,163.89 L 98.87,162.6 L 95.22,161.31 L 91.52,159.97 L 87.7,158.57 L 83.72,156.75 Z" fill="#1a1a1a" fill-opacity="0.55" stroke="#1a1a1a" stroke-width="0.4" stroke-opacity="0.55" stroke-linejoin="round" />
  <path d="M 232.5,211.89 L 236.29,213.28 L 240.07,214.68 L 243.82,216.08 L 247.56,217.46 L 251.27,218.82 L 254.98,220.15 L 258.68,221.46 L 262.39,222.75 L 266.1,224.04 L 269.84,225.33 L 273.58,226.64 L 277.34,227.97 L 281.09,229.32 L 284.82,230.69 L 288.53,232.07 L 292.23,233.47 L 295.9,234.87 L 299.57,236.27 L 303.24,237.67 L 306.92,239.05 L 310.61,240.42 L 314.32,241.77 L 318.06,243.12 L 321.84,244.45 L 325.65,245.71 L 329.36,246.9 L 332.97,248.08 L 336.8,249.3 L 336.98,248.73 L 333.15,247.5 L 329.56,246.29 L 325.87,245.06 L 322.08,243.77 L 318.3,242.44 L 314.56,241.1 L 310.86,239.75 L 307.17,238.39 L 303.49,237.02 L 299.82,235.62 L 296.15,234.22 L 292.48,232.82 L 288.78,231.41 L 285.07,230.02 L 281.33,228.65 L 277.58,227.3 L 273.82,225.97 L 270.07,224.67 L 266.33,223.37 L 262.62,222.08 L 258.92,220.78 L 255.22,219.48 L 251.51,218.15 L 247.79,216.81 L 244.05,215.46 L 240.28,214.1 L 236.5,212.72 L 232.7,211.34 Z" fill="#1a1a1a" fill-opacity="0.55" stroke="#1a1a1a" stroke-width="0.4" stroke-opacity="0.55" stroke-linejoin="round" />
  <path d="M 82.01,164.23 L 85.47,165.72 L 89.14,167.17 L 92.94,168.64 L 96.77,170.09 L 100.61,171.5 L 104.42,172.85 L 108.19,174.17 L 111.95,175.51 L 115.7,176.86 L 119.44,178.21 L 123.2,179.55 L 126.95,180.88 L 130.7,182.22 L 134.45,183.56 L 138.18,184.92 L 141.91,186.3 L 145.63,187.71 L 149.34,189.13 L 153.06,190.55 L 156.78,191.96 L 160.5,193.37 L 164.22,194.75 L 167.94,196.12 L 171.66,197.47 L 175.39,198.81 L 179.12,200.15 L 182.85,201.48 L 186.6,202.82 L 190.37,204.16 L 194.16,205.5 L 197.96,206.85 L 201.78,208.2 L 205.6,209.55 L 209.42,210.9 L 213.23,212.25 L 217.03,213.59 L 220.83,214.93 L 224.63,216.27 L 228.43,217.61 L 232.23,218.95 L 236.02,220.3 L 239.8,221.65 L 243.56,223 L 247.29,224.35 L 251,225.71 L 254.69,227.06 L 258.37,228.4 L 262.07,229.76 L 265.79,231.11 L 269.52,232.47 L 273.27,233.84 L 277.02,235.21 L 280.77,236.59 L 284.52,237.97 L 288.27,239.36 L 292.03,240.75 L 295.82,242.13 L 299.62,243.51 L 303.42,244.87 L 307.18,246.23 L 310.89,247.6 L 314.59,248.97 L 318.29,250.35 L 322.04,251.73 L 325.91,253.07 L 329.84,254.42 L 333.57,255.84 L 333.78,255.3 L 330.04,253.88 L 326.11,252.52 L 322.25,251.16 L 318.5,249.77 L 314.81,248.38 L 311.12,246.99 L 307.41,245.61 L 303.65,244.24 L 299.85,242.87 L 296.05,241.48 L 292.27,240.1 L 288.5,238.72 L 284.75,237.33 L 281.01,235.94 L 277.26,234.56 L 273.51,233.18 L 269.76,231.81 L 266.03,230.46 L 262.31,229.11 L 258.6,227.77 L 254.92,226.42 L 251.23,225.07 L 247.52,223.72 L 243.79,222.37 L 240.03,221.02 L 236.25,219.66 L 232.46,218.3 L 228.66,216.95 L 224.87,215.6 L 221.07,214.26 L 217.27,212.92 L 213.47,211.57 L 209.66,210.22 L 205.84,208.87 L 202.02,207.52 L 198.21,206.16 L 194.4,204.81 L 190.61,203.47 L 186.84,202.13 L 183.09,200.8 L 179.36,199.47 L 175.63,198.13 L 171.91,196.79 L 168.19,195.44 L 164.47,194.08 L 160.75,192.69 L 157.03,191.29 L 153.32,189.87 L 149.6,188.45 L 145.89,187.03 L 142.17,185.62 L 138.43,184.24 L 134.69,182.88 L 130.95,181.53 L 127.19,180.19 L 123.44,178.87 L 119.68,177.54 L 115.93,176.2 L 112.18,174.86 L 108.41,173.54 L 104.63,172.23 L 100.82,170.9 L 96.99,169.51 L 93.16,168.07 L 89.36,166.62 L 85.7,165.18 L 82.24,163.69 Z" fill="#1a1a1a" fill-opacity="0.55" stroke="#1a1a1a" stroke-width="0.4" stroke-opacity="0.55" stroke-linejoin="round" />
  <path d="M 81.37,171.27 L 84.88,172.83 L 88.59,174.26 L 92.32,175.65 L 96.07,177.04 L 99.85,178.44 L 103.64,179.82 L 107.41,181.17 L 111.18,182.53 L 114.94,183.9 L 118.7,185.28 L 122.46,186.66 L 126.21,188.02 L 129.95,189.38 L 133.68,190.71 L 137.41,192.04 L 141.13,193.38 L 144.85,194.73 L 148.59,196.09 L 152.36,197.46 L 156.13,198.82 L 159.92,200.18 L 163.7,201.55 L 167.47,202.9 L 171.23,204.25 L 174.97,205.61 L 178.72,206.96 L 182.46,208.33 L 186.21,209.7 L 189.97,211.08 L 193.72,212.48 L 197.47,213.88 L 201.22,215.28 L 204.96,216.67 L 208.7,218.06 L 212.43,219.43 L 216.16,220.8 L 219.91,222.16 L 223.66,223.53 L 227.42,224.9 L 231.2,226.28 L 234.99,227.68 L 238.77,229.08 L 242.55,230.5 L 246.33,231.91 L 250.1,233.31 L 253.87,234.7 L 257.64,236.08 L 261.43,237.44 L 265.21,238.8 L 269,240.15 L 272.78,241.5 L 276.56,242.84 L 280.33,244.16 L 284.12,245.46 L 287.91,246.74 L 291.73,248.04 L 295.55,249.36 L 299.37,250.69 L 303.14,252.06 L 306.88,253.46 L 310.62,254.86 L 314.38,256.23 L 318.15,257.56 L 321.92,258.93 L 325.59,260.37 L 329.3,261.69 L 329.49,261.14 L 325.79,259.82 L 322.13,258.38 L 318.36,256.99 L 314.59,255.65 L 310.84,254.27 L 307.1,252.85 L 303.37,251.44 L 299.59,250.06 L 295.77,248.71 L 291.95,247.39 L 288.13,246.09 L 284.34,244.81 L 280.56,243.51 L 276.79,242.19 L 273.01,240.86 L 269.23,239.51 L 265.44,238.16 L 261.66,236.8 L 257.88,235.42 L 254.11,234.04 L 250.35,232.64 L 246.58,231.24 L 242.8,229.83 L 239.02,228.41 L 235.24,227 L 231.45,225.6 L 227.68,224.21 L 223.91,222.84 L 220.15,221.48 L 216.41,220.12 L 212.68,218.76 L 208.94,217.38 L 205.21,216 L 201.47,214.62 L 197.72,213.22 L 193.96,211.82 L 190.21,210.43 L 186.45,209.05 L 182.7,207.68 L 178.95,206.32 L 175.21,204.96 L 171.46,203.61 L 167.7,202.26 L 163.93,200.91 L 160.15,199.55 L 156.37,198.18 L 152.59,196.81 L 148.83,195.44 L 145.09,194.08 L 141.37,192.73 L 137.64,191.39 L 133.92,190.06 L 130.19,188.72 L 126.45,187.37 L 122.7,186.01 L 118.94,184.63 L 115.18,183.25 L 111.41,181.89 L 107.64,180.54 L 103.86,179.2 L 100.07,177.84 L 96.29,176.45 L 92.53,175.08 L 88.8,173.7 L 85.11,172.29 L 81.61,170.73 Z" fill="#1a1a1a" fill-opacity="0.55" stroke="#1a1a1a" stroke-width="0.4" stroke-opacity="0.55" stroke-linejoin="round" />
  <path d="M 80.97,178.61 L 84.71,179.77 L 88.42,181.16 L 92.01,182.62 L 95.62,184.08 L 99.27,185.54 L 102.95,186.98 L 106.68,188.39 L 110.41,189.79 L 114.15,191.17 L 117.88,192.51 L 121.58,193.82 L 125.27,195.13 L 128.94,196.44 L 132.61,197.76 L 136.27,199.09 L 139.93,200.44 L 143.61,201.81 L 147.29,203.17 L 150.98,204.52 L 154.67,205.86 L 158.37,207.2 L 162.07,208.52 L 165.77,209.85 L 169.48,211.17 L 173.18,212.51 L 176.9,213.84 L 180.62,215.17 L 184.34,216.51 L 188.07,217.84 L 191.8,219.18 L 195.53,220.52 L 199.27,221.86 L 203.01,223.21 L 206.74,224.57 L 210.46,225.94 L 214.19,227.33 L 217.9,228.74 L 221.62,230.15 L 225.33,231.56 L 229.03,232.96 L 232.74,234.34 L 236.45,235.69 L 240.16,237.03 L 243.88,238.36 L 247.6,239.68 L 251.32,241 L 255.03,242.32 L 258.72,243.66 L 262.42,245 L 266.1,246.34 L 269.78,247.69 L 273.45,249.01 L 277.12,250.32 L 280.8,251.59 L 284.49,252.86 L 288.19,254.13 L 291.9,255.43 L 295.62,256.75 L 299.37,258.09 L 303.11,259.45 L 306.84,260.79 L 310.55,262.14 L 314.23,263.48 L 317.86,264.85 L 321.44,266.22 L 324.97,267.63 L 325.19,267.08 L 321.65,265.67 L 318.07,264.29 L 314.44,262.92 L 310.75,261.57 L 307.04,260.23 L 303.32,258.88 L 299.58,257.51 L 295.84,256.15 L 292.12,254.81 L 288.41,253.49 L 284.72,252.2 L 281.03,250.93 L 277.36,249.65 L 273.69,248.34 L 270.02,247.02 L 266.34,245.68 L 262.66,244.34 L 258.96,243 L 255.26,241.67 L 251.55,240.34 L 247.83,239.03 L 244.11,237.71 L 240.4,236.39 L 236.69,235.05 L 232.98,233.69 L 229.28,232.31 L 225.57,230.91 L 221.87,229.5 L 218.15,228.08 L 214.43,226.67 L 210.71,225.28 L 206.98,223.9 L 203.25,222.54 L 199.51,221.19 L 195.77,219.85 L 192.04,218.51 L 188.3,217.19 L 184.57,215.86 L 180.84,214.53 L 177.12,213.2 L 173.41,211.87 L 169.71,210.54 L 166,209.21 L 162.3,207.88 L 158.61,206.54 L 154.92,205.19 L 151.23,203.83 L 147.55,202.47 L 143.87,201.11 L 140.19,199.75 L 136.52,198.41 L 132.85,197.07 L 129.19,195.76 L 125.51,194.44 L 121.82,193.13 L 118.12,191.83 L 114.4,190.5 L 110.66,189.14 L 106.91,187.76 L 103.19,186.37 L 99.5,184.95 L 95.85,183.5 L 92.24,182.06 L 88.64,180.61 L 84.9,179.21 L 81.14,178.05 Z" fill="#1a1a1a" fill-opacity="0.55" stroke="#1a1a1a" stroke-width="0.4" stroke-opacity="0.55" stroke-linejoin="round" />
  <path d="M 79.96,186.26 L 83.88,187.34 L 87.65,188.63 L 91.24,190.01 L 94.84,191.35 L 98.52,192.72 L 102.27,194.1 L 106.05,195.48 L 109.83,196.84 L 113.61,198.18 L 117.36,199.51 L 121.07,200.85 L 124.76,202.19 L 128.45,203.53 L 132.14,204.87 L 135.82,206.22 L 139.51,207.55 L 143.2,208.89 L 146.89,210.23 L 150.57,211.57 L 154.26,212.91 L 157.95,214.25 L 161.65,215.59 L 165.35,216.94 L 169.06,218.29 L 172.78,219.63 L 176.5,220.97 L 180.22,222.31 L 183.95,223.65 L 187.67,225 L 191.4,226.35 L 195.13,227.69 L 198.86,229.04 L 202.58,230.39 L 206.31,231.74 L 210.04,233.09 L 213.77,234.43 L 217.49,235.77 L 221.21,237.1 L 224.92,238.42 L 228.62,239.74 L 232.3,241.05 L 235.98,242.37 L 239.65,243.68 L 243.31,244.99 L 246.96,246.31 L 250.62,247.64 L 254.28,248.97 L 257.96,250.3 L 261.66,251.64 L 265.37,252.98 L 269.1,254.34 L 272.83,255.71 L 276.56,257.09 L 280.28,258.48 L 284.01,259.87 L 287.74,261.28 L 291.49,262.69 L 295.26,264.08 L 299.05,265.45 L 302.8,266.82 L 306.48,268.19 L 310.11,269.55 L 313.8,270.84 L 317.66,272.06 L 321.28,273.42 L 321.48,272.88 L 317.85,271.51 L 313.99,270.28 L 310.32,268.99 L 306.7,267.62 L 303.02,266.23 L 299.27,264.86 L 295.49,263.47 L 291.72,262.08 L 287.97,260.67 L 284.24,259.25 L 280.52,257.84 L 276.8,256.44 L 273.08,255.05 L 269.34,253.67 L 265.61,252.32 L 261.9,250.98 L 258.2,249.64 L 254.52,248.3 L 250.86,246.97 L 247.2,245.65 L 243.54,244.33 L 239.89,243.02 L 236.22,241.71 L 232.54,240.4 L 228.85,239.09 L 225.15,237.77 L 221.44,236.45 L 217.72,235.13 L 214,233.79 L 210.27,232.45 L 206.54,231.11 L 202.81,229.76 L 199.08,228.41 L 195.36,227.06 L 191.63,225.72 L 187.9,224.37 L 184.18,223.02 L 180.45,221.67 L 176.73,220.33 L 173.01,218.99 L 169.29,217.65 L 165.58,216.31 L 161.88,214.96 L 158.18,213.61 L 154.49,212.26 L 150.81,210.92 L 147.12,209.58 L 143.44,208.24 L 139.76,206.89 L 136.07,205.54 L 132.39,204.18 L 128.7,202.83 L 125.02,201.49 L 121.32,200.15 L 117.6,198.82 L 113.85,197.49 L 110.07,196.17 L 106.28,194.82 L 102.51,193.46 L 98.74,192.1 L 95.06,190.76 L 91.46,189.43 L 87.85,188.06 L 84.05,186.77 L 80.12,185.69 Z" fill="#1a1a1a" fill-opacity="0.55" stroke="#1a1a1a" stroke-width="0.4" stroke-opacity="0.55" stroke-linejoin="round" />
  <path d="M 80.49,193.27 L 84.36,194.7 L 88.12,196.01 L 91.73,197.28 L 95.34,198.62 L 99.02,200 L 102.75,201.38 L 106.48,202.76 L 110.22,204.13 L 113.97,205.5 L 117.71,206.88 L 121.47,208.26 L 125.24,209.63 L 129.01,211.01 L 132.79,212.39 L 136.56,213.77 L 140.33,215.14 L 144.09,216.51 L 147.85,217.88 L 151.62,219.26 L 155.38,220.63 L 159.14,222.01 L 162.91,223.39 L 166.67,224.78 L 170.42,226.17 L 174.18,227.56 L 177.93,228.94 L 181.68,230.32 L 185.43,231.69 L 189.18,233.05 L 192.92,234.4 L 196.66,235.75 L 200.4,237.1 L 204.14,238.47 L 207.87,239.83 L 211.61,241.2 L 215.34,242.57 L 219.08,243.94 L 222.82,245.31 L 226.56,246.68 L 230.3,248.04 L 234.05,249.38 L 237.79,250.71 L 241.54,252.03 L 245.29,253.36 L 249.03,254.71 L 252.77,256.08 L 256.5,257.47 L 260.23,258.88 L 263.96,260.3 L 267.68,261.71 L 271.41,263.1 L 275.12,264.46 L 278.82,265.81 L 282.54,267.15 L 286.29,268.49 L 290.07,269.82 L 293.86,271.16 L 297.67,272.5 L 301.45,273.87 L 305.21,275.24 L 308.96,276.6 L 312.72,277.97 L 316.36,279.45 L 316.58,278.9 L 312.94,277.41 L 309.17,276.03 L 305.42,274.66 L 301.67,273.28 L 297.88,271.9 L 294.08,270.54 L 290.29,269.19 L 286.52,267.85 L 282.77,266.51 L 279.05,265.17 L 275.35,263.83 L 271.64,262.47 L 267.92,261.08 L 264.2,259.67 L 260.47,258.24 L 256.74,256.83 L 253.01,255.43 L 249.26,254.07 L 245.51,252.73 L 241.76,251.4 L 238.02,250.08 L 234.27,248.75 L 230.53,247.41 L 226.79,246.05 L 223.05,244.68 L 219.32,243.3 L 215.59,241.91 L 211.85,240.53 L 208.12,239.16 L 204.38,237.8 L 200.64,236.44 L 196.9,235.09 L 193.16,233.74 L 189.42,232.39 L 185.67,231.02 L 181.93,229.65 L 178.18,228.27 L 174.43,226.88 L 170.67,225.49 L 166.92,224.1 L 163.16,222.71 L 159.4,221.32 L 155.63,219.94 L 151.87,218.57 L 148.11,217.19 L 144.34,215.82 L 140.58,214.46 L 136.8,213.09 L 133.03,211.72 L 129.25,210.35 L 125.48,208.97 L 121.71,207.59 L 117.96,206.22 L 114.2,204.85 L 110.46,203.5 L 106.71,202.14 L 102.97,200.78 L 99.24,199.41 L 95.55,198.04 L 91.94,196.71 L 88.31,195.45 L 84.55,194.14 L 80.69,192.72 Z" fill="#1a1a1a" fill-opacity="0.55" stroke="#1a1a1a" stroke-width="0.4" stroke-opacity="0.55" stroke-linejoin="round" />
  <path d="M 80.86,201.06 L 84.32,202.53 L 87.94,203.93 L 91.66,205.27 L 95.41,206.58 L 99.14,207.81 L 102.86,209.05 L 106.58,210.32 L 110.29,211.63 L 114,212.98 L 117.72,214.36 L 121.43,215.75 L 125.15,217.14 L 128.86,218.53 L 132.57,219.92 L 136.28,221.3 L 139.99,222.68 L 143.7,224.05 L 147.4,225.42 L 151.09,226.78 L 154.78,228.14 L 158.47,229.49 L 162.17,230.85 L 165.87,232.21 L 169.58,233.58 L 173.32,234.95 L 177.07,236.31 L 180.84,237.67 L 184.61,239.02 L 188.38,240.36 L 192.15,241.7 L 195.9,243.04 L 199.64,244.39 L 203.37,245.74 L 207.09,247.08 L 210.8,248.42 L 214.51,249.76 L 218.22,251.1 L 221.94,252.45 L 225.65,253.8 L 229.37,255.16 L 233.1,256.52 L 236.82,257.89 L 240.55,259.27 L 244.28,260.64 L 248.01,262.02 L 251.75,263.39 L 255.49,264.76 L 259.23,266.12 L 262.97,267.49 L 266.7,268.86 L 270.43,270.24 L 274.15,271.62 L 277.85,272.97 L 281.54,274.28 L 285.21,275.58 L 288.88,276.86 L 292.55,278.14 L 296.22,279.44 L 299.92,280.74 L 303.64,282.07 L 307.35,283.42 L 311.08,284.74 L 311.28,284.19 L 307.55,282.87 L 303.84,281.51 L 300.12,280.18 L 296.42,278.87 L 292.75,277.56 L 289.09,276.25 L 285.43,274.95 L 281.76,273.65 L 278.08,272.32 L 274.39,270.96 L 270.67,269.58 L 266.94,268.2 L 263.21,266.83 L 259.47,265.46 L 255.73,264.1 L 251.99,262.74 L 248.25,261.38 L 244.51,260.01 L 240.78,258.63 L 237.06,257.26 L 233.33,255.88 L 229.61,254.51 L 225.89,253.15 L 222.17,251.8 L 218.46,250.45 L 214.75,249.11 L 211.03,247.77 L 207.32,246.43 L 203.6,245.09 L 199.87,243.74 L 196.13,242.39 L 192.38,241.05 L 188.61,239.71 L 184.84,238.37 L 181.07,237.02 L 177.31,235.67 L 173.55,234.31 L 169.82,232.94 L 166.11,231.57 L 162.4,230.21 L 158.71,228.86 L 155.01,227.51 L 151.32,226.15 L 147.63,224.79 L 143.93,223.42 L 140.23,222.04 L 136.52,220.65 L 132.82,219.26 L 129.11,217.87 L 125.4,216.48 L 121.68,215.09 L 117.96,213.7 L 114.24,212.33 L 110.52,210.98 L 106.8,209.67 L 103.08,208.41 L 99.35,207.18 L 95.61,205.97 L 91.87,204.68 L 88.15,203.36 L 84.54,201.98 L 81.09,200.51 Z" fill="#1a1a1a" fill-opacity="0.55" stroke="#1a1a1a" stroke-width="0.4" stroke-opacity="0.55" stroke-linejoin="round" />
  <path d="M 80.94,208.41 L 84.58,209.88 L 88.37,211.08 L 92.05,212.37 L 95.73,213.71 L 99.45,215.06 L 103.16,216.42 L 106.86,217.79 L 110.57,219.16 L 114.28,220.56 L 118.03,221.99 L 121.8,223.42 L 125.58,224.85 L 129.37,226.26 L 133.16,227.66 L 136.94,229.06 L 140.7,230.45 L 144.46,231.85 L 148.21,233.25 L 151.97,234.65 L 155.73,236.05 L 159.48,237.44 L 163.24,238.81 L 166.99,240.16 L 170.74,241.5 L 174.49,242.83 L 178.24,244.17 L 182,245.51 L 185.76,246.85 L 189.52,248.2 L 193.27,249.55 L 197.01,250.91 L 200.74,252.27 L 204.46,253.63 L 208.18,254.98 L 211.89,256.33 L 215.61,257.68 L 219.33,259.02 L 223.05,260.38 L 226.78,261.75 L 230.5,263.13 L 234.23,264.53 L 237.97,265.93 L 241.7,267.33 L 245.45,268.74 L 249.21,270.15 L 252.98,271.54 L 256.74,272.93 L 260.51,274.29 L 264.28,275.65 L 268.04,276.98 L 271.81,278.3 L 275.57,279.57 L 279.31,280.82 L 283.05,282.07 L 286.76,283.38 L 290.44,284.74 L 294.08,286.15 L 297.81,287.68 L 301.66,289.15 L 305.42,290.18 L 305.58,289.59 L 301.85,288.57 L 298.03,287.11 L 294.31,285.57 L 290.67,284.14 L 286.98,282.76 L 283.26,281.45 L 279.53,280.18 L 275.79,278.92 L 272.04,277.64 L 268.28,276.32 L 264.51,274.99 L 260.75,273.64 L 256.98,272.27 L 253.22,270.89 L 249.45,269.5 L 245.69,268.09 L 241.95,266.68 L 238.21,265.27 L 234.47,263.88 L 230.74,262.5 L 227.01,261.12 L 223.28,259.75 L 219.56,258.4 L 215.84,257.04 L 212.12,255.7 L 208.41,254.35 L 204.69,253 L 200.97,251.64 L 197.24,250.28 L 193.51,248.92 L 189.76,247.55 L 186,246.19 L 182.25,244.83 L 178.49,243.49 L 174.73,242.15 L 170.99,240.81 L 167.24,239.47 L 163.49,238.12 L 159.73,236.76 L 155.97,235.38 L 152.21,233.99 L 148.46,232.6 L 144.7,231.2 L 140.95,229.8 L 137.18,228.4 L 133.4,227.01 L 129.61,225.61 L 125.82,224.2 L 122.04,222.78 L 118.27,221.36 L 114.52,219.94 L 110.79,218.54 L 107.08,217.18 L 103.37,215.83 L 99.66,214.49 L 95.94,213.14 L 92.25,211.81 L 88.55,210.52 L 84.77,209.34 L 81.16,207.87 Z" fill="#1a1a1a" fill-opacity="0.55" stroke="#1a1a1a" stroke-width="0.4" stroke-opacity="0.55" stroke-linejoin="round" />
  <path d="M 82.37,216.51 L 85.95,217.8 L 89.69,219.14 L 93.49,220.54 L 97.3,221.98 L 101.05,223.42 L 104.78,224.84 L 108.5,226.23 L 112.23,227.61 L 115.98,228.98 L 119.72,230.34 L 123.45,231.7 L 127.18,233.07 L 130.9,234.43 L 134.63,235.79 L 138.36,237.16 L 142.09,238.52 L 145.83,239.89 L 149.57,241.26 L 153.31,242.63 L 157.04,244 L 160.77,245.38 L 164.51,246.76 L 168.25,248.15 L 172.01,249.53 L 175.77,250.91 L 179.54,252.28 L 183.31,253.64 L 187.07,254.98 L 190.83,256.32 L 194.59,257.64 L 198.33,258.94 L 202.07,260.24 L 205.8,261.54 L 209.54,262.84 L 213.28,264.15 L 217.02,265.46 L 220.76,266.78 L 224.5,268.11 L 228.23,269.45 L 231.96,270.8 L 235.7,272.16 L 239.44,273.54 L 243.19,274.94 L 246.96,276.33 L 250.75,277.73 L 254.54,279.12 L 258.33,280.51 L 262.1,281.89 L 265.84,283.26 L 269.55,284.67 L 273.24,286.08 L 276.93,287.48 L 280.64,288.88 L 284.37,290.25 L 288.13,291.6 L 291.87,292.93 L 295.65,294.33 L 299.34,295.68 L 299.54,295.13 L 295.85,293.78 L 292.08,292.37 L 288.34,291.02 L 284.59,289.66 L 280.87,288.27 L 277.17,286.86 L 273.49,285.44 L 269.8,284.01 L 266.09,282.6 L 262.34,281.22 L 258.57,279.84 L 254.79,278.46 L 250.99,277.07 L 247.21,275.67 L 243.44,274.27 L 239.68,272.88 L 235.94,271.49 L 232.2,270.13 L 228.47,268.79 L 224.73,267.45 L 220.99,266.13 L 217.25,264.81 L 213.51,263.5 L 209.77,262.2 L 206.03,260.9 L 202.29,259.6 L 198.56,258.29 L 194.82,256.98 L 191.07,255.66 L 187.31,254.32 L 183.54,252.97 L 179.78,251.61 L 176.01,250.24 L 172.25,248.86 L 168.5,247.49 L 164.75,246.11 L 161.01,244.73 L 157.27,243.37 L 153.53,242.01 L 149.8,240.65 L 146.06,239.28 L 142.32,237.9 L 138.59,236.52 L 134.87,235.15 L 131.14,233.78 L 127.41,232.43 L 123.68,231.07 L 119.95,229.71 L 116.21,228.35 L 112.46,226.99 L 108.73,225.62 L 105.01,224.23 L 101.28,222.82 L 97.52,221.4 L 93.7,219.97 L 89.89,218.58 L 86.14,217.25 L 82.57,215.96 Z" fill="#1a1a1a" fill-opacity="0.55" stroke="#1a1a1a" stroke-width="0.4" stroke-opacity="0.55" stroke-linejoin="round" />
  <path d="M 84.48,224.97 L 88.41,226.46 L 92.06,227.81 L 95.7,229.18 L 99.37,230.52 L 103.04,231.87 L 106.71,233.22 L 110.37,234.57 L 114.05,235.88 L 117.76,237.17 L 121.5,238.48 L 125.23,239.79 L 128.97,241.12 L 132.69,242.48 L 136.42,243.85 L 140.15,245.23 L 143.86,246.61 L 147.56,247.98 L 151.26,249.35 L 154.95,250.71 L 158.63,252.06 L 162.32,253.4 L 166,254.73 L 169.7,256.06 L 173.42,257.37 L 177.15,258.68 L 180.9,259.99 L 184.66,261.31 L 188.43,262.62 L 192.21,263.94 L 195.97,265.26 L 199.73,266.6 L 203.47,267.95 L 207.2,269.3 L 210.94,270.66 L 214.68,272.03 L 218.42,273.39 L 222.17,274.76 L 225.91,276.12 L 229.64,277.48 L 233.36,278.82 L 237.08,280.15 L 240.78,281.47 L 244.48,282.79 L 248.17,284.13 L 251.86,285.49 L 255.56,286.87 L 259.28,288.26 L 263.01,289.65 L 266.77,291.03 L 270.54,292.39 L 274.33,293.72 L 278.12,295.03 L 281.88,296.35 L 285.61,297.75 L 289.29,299.16 L 292.99,300.48 L 293.19,299.92 L 289.49,298.6 L 285.82,297.18 L 282.1,295.77 L 278.33,294.42 L 274.54,293.1 L 270.77,291.75 L 267.01,290.37 L 263.26,288.97 L 259.53,287.57 L 255.82,286.18 L 252.12,284.81 L 248.42,283.45 L 244.72,282.12 L 241.03,280.79 L 237.32,279.47 L 233.61,278.14 L 229.88,276.81 L 226.15,275.46 L 222.41,274.1 L 218.66,272.74 L 214.92,271.38 L 211.17,270.02 L 207.43,268.67 L 203.7,267.32 L 199.95,265.98 L 196.19,264.64 L 192.42,263.31 L 188.65,261.99 L 184.88,260.67 L 181.12,259.36 L 177.37,258.05 L 173.64,256.75 L 169.92,255.43 L 166.23,254.11 L 162.54,252.78 L 158.86,251.44 L 155.18,250.09 L 151.49,248.72 L 147.8,247.36 L 144.09,245.98 L 140.38,244.6 L 136.65,243.22 L 132.93,241.85 L 129.19,240.49 L 125.46,239.16 L 121.72,237.84 L 117.98,236.53 L 114.27,235.25 L 110.6,233.95 L 106.93,232.61 L 103.26,231.28 L 99.58,229.93 L 95.91,228.6 L 92.27,227.25 L 88.62,225.91 L 84.68,224.42 Z" fill="#1a1a1a" fill-opacity="0.55" stroke="#1a1a1a" stroke-width="0.4" stroke-opacity="0.55" stroke-linejoin="round" />
  <path d="M 87.17,232.94 L 90.74,234.57 L 94.42,235.92 L 98.13,237.07 L 101.85,238.25 L 105.57,239.47 L 109.31,240.76 L 113.04,242.11 L 116.78,243.48 L 120.52,244.85 L 124.26,246.23 L 128.01,247.6 L 131.75,248.97 L 135.5,250.35 L 139.26,251.74 L 143.02,253.14 L 146.81,254.54 L 150.59,255.93 L 154.37,257.31 L 158.15,258.68 L 161.92,260.04 L 165.68,261.39 L 169.44,262.74 L 173.2,264.09 L 176.95,265.45 L 180.7,266.82 L 184.44,268.2 L 188.18,269.59 L 191.91,271 L 195.64,272.43 L 199.37,273.88 L 203.1,275.32 L 206.83,276.77 L 210.55,278.2 L 214.27,279.63 L 217.97,281.05 L 221.68,282.46 L 225.38,283.85 L 229.08,285.23 L 232.8,286.59 L 236.53,287.94 L 240.27,289.26 L 244.02,290.58 L 247.77,291.9 L 251.53,293.23 L 255.31,294.57 L 259.1,295.93 L 262.88,297.3 L 266.68,298.66 L 270.46,299.96 L 274.24,301.26 L 277.99,302.6 L 281.75,304.04 L 285.5,305.57 L 285.73,305.02 L 281.97,303.48 L 278.21,302.02 L 274.45,300.67 L 270.67,299.35 L 266.9,298.03 L 263.11,296.67 L 259.33,295.28 L 255.55,293.91 L 251.77,292.56 L 248.01,291.23 L 244.25,289.91 L 240.51,288.6 L 236.77,287.28 L 233.04,285.94 L 229.32,284.58 L 225.62,283.2 L 221.92,281.81 L 218.22,280.41 L 214.52,278.99 L 210.81,277.55 L 207.09,276.1 L 203.36,274.66 L 199.63,273.21 L 195.9,271.77 L 192.16,270.36 L 188.41,268.96 L 184.67,267.57 L 180.93,266.19 L 177.18,264.82 L 173.43,263.46 L 169.67,262.11 L 165.91,260.76 L 162.15,259.41 L 158.38,258.04 L 154.61,256.67 L 150.83,255.29 L 147.04,253.91 L 143.25,252.52 L 139.49,251.12 L 135.73,249.73 L 131.98,248.34 L 128.24,246.97 L 124.5,245.59 L 120.76,244.22 L 117.01,242.85 L 113.27,241.49 L 109.52,240.15 L 105.78,238.87 L 102.04,237.65 L 98.31,236.49 L 94.61,235.35 L 90.97,234.03 L 87.42,232.41 Z" fill="#1a1a1a" fill-opacity="0.55" stroke="#1a1a1a" stroke-width="0.4" stroke-opacity="0.55" stroke-linejoin="round" />
  <path d="M 90.82,241.74 L 94.35,243.19 L 98.07,244.55 L 101.81,245.83 L 105.53,247.11 L 109.24,248.42 L 112.93,249.78 L 116.63,251.14 L 120.37,252.5 L 124.12,253.86 L 127.86,255.21 L 131.6,256.57 L 135.31,257.94 L 139.01,259.32 L 142.7,260.71 L 146.39,262.09 L 150.07,263.47 L 153.77,264.83 L 157.47,266.19 L 161.19,267.54 L 164.91,268.88 L 168.64,270.22 L 172.38,271.56 L 176.12,272.92 L 179.86,274.3 L 183.6,275.68 L 187.34,277.08 L 191.08,278.48 L 194.81,279.88 L 198.55,281.28 L 202.29,282.68 L 206.05,284.08 L 209.82,285.48 L 213.59,286.87 L 217.37,288.25 L 221.14,289.61 L 224.91,290.96 L 228.66,292.29 L 232.42,293.61 L 236.18,294.92 L 239.94,296.21 L 243.7,297.5 L 247.47,298.79 L 251.24,300.11 L 255.01,301.46 L 258.78,302.84 L 262.56,304.26 L 266.33,305.71 L 270.05,307.15 L 273.7,308.52 L 277.59,309.62 L 277.76,309.04 L 273.89,307.94 L 270.27,306.58 L 266.55,305.13 L 262.78,303.67 L 259.01,302.24 L 255.24,300.84 L 251.46,299.49 L 247.69,298.16 L 243.92,296.86 L 240.16,295.57 L 236.4,294.28 L 232.65,292.97 L 228.9,291.64 L 225.14,290.3 L 221.38,288.95 L 217.61,287.58 L 213.84,286.2 L 210.06,284.81 L 206.29,283.42 L 202.54,282.01 L 198.8,280.61 L 195.06,279.22 L 191.32,277.82 L 187.59,276.42 L 183.85,275.03 L 180.11,273.64 L 176.36,272.26 L 172.62,270.9 L 168.88,269.55 L 165.15,268.2 L 161.44,266.86 L 157.72,265.5 L 154.02,264.15 L 150.33,262.78 L 146.65,261.4 L 142.96,260.01 L 139.28,258.63 L 135.57,257.25 L 131.85,255.88 L 128.11,254.52 L 124.37,253.17 L 120.61,251.82 L 116.87,250.47 L 113.17,249.13 L 109.47,247.79 L 105.75,246.49 L 102.02,245.22 L 98.28,243.96 L 94.58,242.61 L 91.05,241.18 Z" fill="#1a1a1a" fill-opacity="0.55" stroke="#1a1a1a" stroke-width="0.4" stroke-opacity="0.55" stroke-linejoin="round" />
  <path d="M 94.2,250.79 L 97.86,252.23 L 101.6,253.67 L 105.35,255.02 L 109.09,256.38 L 112.83,257.75 L 116.56,259.14 L 120.29,260.51 L 124.05,261.87 L 127.82,263.21 L 131.58,264.54 L 135.34,265.84 L 139.07,267.15 L 142.79,268.45 L 146.49,269.76 L 150.19,271.08 L 153.88,272.41 L 157.57,273.74 L 161.26,275.08 L 164.96,276.43 L 168.67,277.8 L 172.38,279.17 L 176.1,280.53 L 179.82,281.9 L 183.56,283.27 L 187.3,284.63 L 191.05,286 L 194.8,287.36 L 198.56,288.72 L 202.32,290.07 L 206.08,291.43 L 209.83,292.79 L 213.58,294.16 L 217.31,295.53 L 221.03,296.9 L 224.74,298.27 L 228.44,299.64 L 232.13,301.02 L 235.82,302.41 L 239.54,303.81 L 243.28,305.21 L 247.04,306.58 L 250.79,307.93 L 254.51,309.25 L 258.2,310.56 L 261.88,311.85 L 265.58,313.15 L 269.34,314.53 L 269.55,313.97 L 265.78,312.58 L 262.09,311.27 L 258.41,309.97 L 254.73,308.64 L 251.02,307.3 L 247.28,305.94 L 243.52,304.55 L 239.79,303.16 L 236.07,301.75 L 232.38,300.35 L 228.69,298.96 L 225,297.58 L 221.29,296.21 L 217.57,294.84 L 213.83,293.47 L 210.08,292.11 L 206.32,290.75 L 202.56,289.4 L 198.8,288.05 L 195.04,286.7 L 191.28,285.34 L 187.54,283.98 L 183.8,282.61 L 180.07,281.24 L 176.34,279.87 L 172.63,278.5 L 168.92,277.12 L 165.21,275.75 L 161.51,274.4 L 157.82,273.05 L 154.12,271.73 L 150.43,270.4 L 146.73,269.09 L 143.03,267.77 L 139.31,266.47 L 135.58,265.16 L 131.83,263.84 L 128.06,262.52 L 124.29,261.18 L 120.53,259.83 L 116.8,258.48 L 113.06,257.12 L 109.31,255.76 L 105.56,254.43 L 101.81,253.1 L 98.08,251.68 L 94.42,250.24 Z" fill="#1a1a1a" fill-opacity="0.55" stroke="#1a1a1a" stroke-width="0.4" stroke-opacity="0.55" stroke-linejoin="round" />
  <path d="M 99.45,259.77 L 102.96,261.23 L 106.49,262.64 L 110.12,263.98 L 113.76,265.33 L 117.41,266.7 L 121.1,268.07 L 124.84,269.44 L 128.6,270.79 L 132.37,272.13 L 136.14,273.45 L 139.88,274.75 L 143.6,276.04 L 147.31,277.34 L 151.02,278.64 L 154.73,279.95 L 158.44,281.27 L 162.15,282.61 L 165.86,283.96 L 169.58,285.31 L 173.31,286.66 L 177.04,288.03 L 180.76,289.41 L 184.49,290.8 L 188.22,292.21 L 191.94,293.6 L 195.68,294.99 L 199.41,296.36 L 203.15,297.7 L 206.89,299.04 L 210.63,300.35 L 214.38,301.66 L 218.12,302.95 L 221.87,304.26 L 225.6,305.58 L 229.32,306.92 L 233.02,308.27 L 236.67,309.62 L 240.3,310.97 L 243.9,312.31 L 247.51,313.67 L 251.16,315.1 L 254.86,316.6 L 258.8,318.28 L 259.03,317.72 L 255.09,316.04 L 251.39,314.52 L 247.74,313.07 L 244.13,311.69 L 240.54,310.34 L 236.91,308.98 L 233.25,307.63 L 229.55,306.28 L 225.83,304.94 L 222.09,303.62 L 218.35,302.31 L 214.6,301.01 L 210.86,299.7 L 207.12,298.38 L 203.39,297.04 L 199.65,295.69 L 195.92,294.32 L 192.19,292.95 L 188.46,291.56 L 184.73,290.17 L 181,288.78 L 177.26,287.4 L 173.53,286.04 L 169.81,284.69 L 166.09,283.34 L 162.37,282 L 158.66,280.66 L 154.95,279.34 L 151.24,278.02 L 147.53,276.71 L 143.82,275.41 L 140.1,274.11 L 136.36,272.8 L 132.6,271.48 L 128.83,270.15 L 125.07,268.8 L 121.33,267.44 L 117.64,266.09 L 113.98,264.73 L 110.34,263.39 L 106.71,262.07 L 103.18,260.67 L 99.68,259.23 Z" fill="#1a1a1a" fill-opacity="0.55" stroke="#1a1a1a" stroke-width="0.4" stroke-opacity="0.55" stroke-linejoin="round" />
  <path d="M 105.54,269.73 L 109.58,271.39 L 113.29,272.78 L 117,274.17 L 120.74,275.56 L 124.5,276.92 L 128.23,278.27 L 131.96,279.59 L 135.69,280.89 L 139.43,282.19 L 143.18,283.47 L 146.92,284.75 L 150.66,286.06 L 154.39,287.36 L 158.13,288.67 L 161.87,289.99 L 165.62,291.33 L 169.37,292.68 L 173.12,294.04 L 176.88,295.4 L 180.64,296.77 L 184.41,298.14 L 188.16,299.51 L 191.9,300.88 L 195.63,302.25 L 199.34,303.62 L 203.04,304.97 L 206.72,306.31 L 210.4,307.65 L 214.09,308.97 L 217.8,310.3 L 221.52,311.65 L 225.23,313 L 228.94,314.38 L 232.64,315.75 L 236.37,317.13 L 240.1,318.52 L 243.88,319.96 L 247.7,321.3 L 247.89,320.75 L 244.08,319.4 L 240.32,317.95 L 236.59,316.54 L 232.87,315.13 L 229.17,313.74 L 225.47,312.35 L 221.76,310.99 L 218.04,309.64 L 214.33,308.31 L 210.64,306.99 L 206.96,305.66 L 203.28,304.32 L 199.58,302.96 L 195.87,301.6 L 192.14,300.23 L 188.4,298.86 L 184.64,297.5 L 180.87,296.14 L 177.1,294.78 L 173.34,293.43 L 169.59,292.07 L 165.84,290.72 L 162.09,289.38 L 158.35,288.05 L 154.61,286.74 L 150.87,285.44 L 147.14,284.14 L 143.39,282.86 L 139.64,281.57 L 135.91,280.28 L 132.18,278.97 L 128.45,277.65 L 124.72,276.31 L 120.96,274.96 L 117.22,273.57 L 113.5,272.2 L 109.8,270.83 L 105.77,269.18 Z" fill="#1a1a1a" fill-opacity="0.55" stroke="#1a1a1a" stroke-width="0.4" stroke-opacity="0.55" stroke-linejoin="round" />
  <path d="M 114.87,280.69 L 118.51,282.19 L 122.25,283.64 L 125.99,284.96 L 129.72,286.2 L 133.43,287.44 L 137.15,288.71 L 140.87,290.01 L 144.59,291.33 L 148.31,292.66 L 152.04,293.99 L 155.77,295.33 L 159.49,296.68 L 163.22,298.03 L 166.95,299.37 L 170.68,300.72 L 174.41,302.07 L 178.13,303.44 L 181.84,304.8 L 185.54,306.17 L 189.25,307.53 L 192.95,308.89 L 196.66,310.25 L 200.37,311.6 L 204.08,312.96 L 207.79,314.29 L 211.51,315.63 L 215.24,316.98 L 218.99,318.35 L 222.76,319.73 L 226.57,321.13 L 230.41,322.56 L 234.21,323.89 L 234.4,323.34 L 230.61,322 L 226.78,320.55 L 222.98,319.13 L 219.22,317.73 L 215.48,316.34 L 211.74,314.99 L 208.02,313.66 L 204.31,312.33 L 200.6,310.97 L 196.89,309.61 L 193.19,308.25 L 189.49,306.88 L 185.79,305.5 L 182.09,304.13 L 178.38,302.76 L 174.66,301.39 L 170.93,300.03 L 167.2,298.69 L 163.47,297.35 L 159.74,296.01 L 156,294.67 L 152.27,293.34 L 148.54,292.01 L 144.82,290.67 L 141.1,289.34 L 137.38,288.03 L 133.66,286.77 L 129.93,285.54 L 126.21,284.33 L 122.47,283.04 L 118.73,281.62 L 115.09,280.14 Z" fill="#1a1a1a" fill-opacity="0.55" stroke="#1a1a1a" stroke-width="0.4" stroke-opacity="0.55" stroke-linejoin="round" />
  <path d="M 125.55,291.72 L 129.31,293.33 L 132.96,294.73 L 136.63,296.1 L 140.29,297.45 L 143.97,298.76 L 147.66,300.05 L 151.34,301.31 L 155.03,302.58 L 158.7,303.85 L 162.37,305.13 L 166.03,306.41 L 169.7,307.71 L 173.38,309.03 L 177.06,310.37 L 180.75,311.71 L 184.44,313.06 L 188.12,314.4 L 191.8,315.72 L 195.47,317.03 L 199.14,318.34 L 202.81,319.65 L 206.46,320.97 L 210.1,322.33 L 213.74,323.73 L 217.43,325.19 L 217.65,324.65 L 213.96,323.17 L 210.32,321.75 L 206.69,320.36 L 203.03,319.02 L 199.37,317.71 L 195.7,316.41 L 192.03,315.1 L 188.35,313.78 L 184.66,312.44 L 180.97,311.1 L 177.28,309.75 L 173.6,308.41 L 169.93,307.08 L 166.26,305.77 L 162.59,304.48 L 158.93,303.2 L 155.25,301.93 L 151.57,300.65 L 147.89,299.38 L 144.21,298.1 L 140.54,296.78 L 136.86,295.45 L 133.19,294.12 L 129.54,292.75 L 125.79,291.17 Z" fill="#1a1a1a" fill-opacity="0.55" stroke="#1a1a1a" stroke-width="0.4" stroke-opacity="0.55" stroke-linejoin="round" />
  <path d="M 146.53,306.8 L 150.27,308.22 L 154.08,309.61 L 157.93,310.99 L 161.74,312.36 L 165.52,313.73 L 169.31,315.1 L 173.1,316.46 L 176.89,317.8 L 180.68,319.12 L 184.47,320.42 L 188.26,321.67 L 192.06,322.93 L 192.25,322.37 L 188.47,321.06 L 184.7,319.76 L 180.91,318.46 L 177.12,317.15 L 173.33,315.81 L 169.54,314.45 L 165.76,313.08 L 161.97,311.71 L 158.16,310.34 L 154.31,308.97 L 150.48,307.63 L 146.73,306.25 Z" fill="#1a1a1a" fill-opacity="0.55" stroke="#1a1a1a" stroke-width="0.4" stroke-opacity="0.55" stroke-linejoin="round" />
  <path d="M 347.37,215.13 L 346.07,218.77 L 344.78,222.3 L 343.48,225.82 L 342.17,229.32 L 340.85,232.82 L 339.52,236.31 L 338.2,239.79 L 336.89,243.27 L 335.6,246.78 L 334.34,250.31 L 333.15,253.84 L 331.93,257.34 L 332.49,257.53 L 333.76,254.06 L 335.03,250.55 L 336.28,247.03 L 337.57,243.52 L 338.88,240.04 L 340.2,236.56 L 341.52,233.08 L 342.84,229.58 L 344.16,226.07 L 345.46,222.55 L 346.69,218.99 L 347.93,215.32 Z" fill="#1a1a1a" fill-opacity="0.55" stroke="#1a1a1a" stroke-width="0.4" stroke-opacity="0.55" stroke-linejoin="round" />
  <path d="M 349.61,186.88 L 348.23,190.7 L 346.94,194.49 L 347.49,194.68 L 348.85,190.92 L 350.16,187.07 Z" fill="#1a1a1a" fill-opacity="0.55" stroke="#1a1a1a" stroke-width="0.4" stroke-opacity="0.55" stroke-linejoin="round" />
  <path d="M 324.37,256.85 L 322.99,260.51 L 321.66,264.18 L 320.33,267.84 L 319.01,271.5 L 317.69,275.14 L 316.41,278.81 L 316.97,279.01 L 318.33,275.37 L 319.65,271.73 L 320.96,268.07 L 322.28,264.41 L 323.61,260.74 L 324.91,257.05 Z" fill="#1a1a1a" fill-opacity="0.55" stroke="#1a1a1a" stroke-width="0.4" stroke-opacity="0.55" stroke-linejoin="round" />
  <path d="M 310.05,275.52 L 308.61,279.26 L 307.25,283 L 305.99,286.61 L 304.82,290.14 L 305.39,290.33 L 306.67,286.85 L 307.94,283.24 L 309.3,279.51 L 310.62,275.73 Z" fill="#1a1a1a" fill-opacity="0.55" stroke="#1a1a1a" stroke-width="0.4" stroke-opacity="0.55" stroke-linejoin="round" />
  <path d="M 299.42,284.46 L 297.97,288.23 L 296.57,291.99 L 295.16,295.68 L 293.77,299.27 L 294.31,299.49 L 295.8,295.93 L 297.23,292.24 L 298.64,288.48 L 299.98,284.67 Z" fill="#1a1a1a" fill-opacity="0.55" stroke="#1a1a1a" stroke-width="0.4" stroke-opacity="0.55" stroke-linejoin="round" />
  <path d="M 290.11,290.32 L 288.73,294.01 L 287.36,297.76 L 285.94,301.6 L 284.44,305.63 L 284.99,305.84 L 286.59,301.84 L 287.99,297.99 L 289.36,294.24 L 290.66,290.52 Z" fill="#1a1a1a" fill-opacity="0.55" stroke="#1a1a1a" stroke-width="0.4" stroke-opacity="0.55" stroke-linejoin="round" />
  <path d="M 280.56,295.94 L 279.14,299.64 L 277.72,303.36 L 276.25,307.1 L 275.05,310.97 L 275.61,311.15 L 276.9,307.33 L 278.36,303.61 L 279.78,299.88 L 281.11,296.14 Z" fill="#1a1a1a" fill-opacity="0.55" stroke="#1a1a1a" stroke-width="0.4" stroke-opacity="0.55" stroke-linejoin="round" />
  <path d="M 271.41,300.2 L 269.95,303.91 L 268.51,307.64 L 267.11,311.44 L 265.79,315.36 L 266.36,315.56 L 267.8,311.69 L 269.2,307.9 L 270.65,304.17 L 271.98,300.41 Z" fill="#1a1a1a" fill-opacity="0.55" stroke="#1a1a1a" stroke-width="0.4" stroke-opacity="0.55" stroke-linejoin="round" />
  <path d="M 261.81,306.9 L 260.5,310.64 L 259.15,314.32 L 257.76,318.18 L 258.31,318.38 L 259.78,314.55 L 261.13,310.86 L 262.36,307.09 Z" fill="#1a1a1a" fill-opacity="0.55" stroke="#1a1a1a" stroke-width="0.4" stroke-opacity="0.55" stroke-linejoin="round" />
  <path d="M 254.64,305.69 L 253.19,309.3 L 251.78,312.91 L 250.45,316.58 L 249.21,320.3 L 249.78,320.5 L 251.13,316.83 L 252.45,313.16 L 253.86,309.56 L 255.2,305.91 Z" fill="#1a1a1a" fill-opacity="0.55" stroke="#1a1a1a" stroke-width="0.4" stroke-opacity="0.55" stroke-linejoin="round" />
  <path d="M 246.44,307.14 L 244.94,310.92 L 243.51,314.7 L 242.21,318.47 L 241.44,322.21 L 242.02,322.35 L 242.9,318.66 L 244.18,314.94 L 245.6,311.17 L 246.99,307.36 Z" fill="#1a1a1a" fill-opacity="0.55" stroke="#1a1a1a" stroke-width="0.4" stroke-opacity="0.55" stroke-linejoin="round" />
  <path d="M 237.43,312.3 L 235.98,315.96 L 234.62,319.76 L 233.07,323.58 L 233.62,323.81 L 235.26,320.01 L 236.63,316.2 L 237.97,312.51 Z" fill="#1a1a1a" fill-opacity="0.55" stroke="#1a1a1a" stroke-width="0.4" stroke-opacity="0.55" stroke-linejoin="round" />
  <path d="M 229.13,313.45 L 227.72,317.17 L 226.38,320.91 L 225.18,324.57 L 225.75,324.77 L 227.07,321.15 L 228.4,317.42 L 229.69,313.65 Z" fill="#1a1a1a" fill-opacity="0.55" stroke="#1a1a1a" stroke-width="0.4" stroke-opacity="0.55" stroke-linejoin="round" />
  <path d="M 221.56,313.59 L 220.08,317.39 L 218.76,321.11 L 217.5,324.83 L 218.05,325.03 L 219.42,321.35 L 220.75,317.63 L 222.12,313.79 Z" fill="#1a1a1a" fill-opacity="0.55" stroke="#1a1a1a" stroke-width="0.4" stroke-opacity="0.55" stroke-linejoin="round" />
  <path d="M 215.4,310.11 L 213.94,313.87 L 212.51,317.69 L 211.17,321.44 L 210.11,325.21 L 210.68,325.38 L 211.82,321.65 L 213.15,317.93 L 214.58,314.11 L 215.95,310.31 Z" fill="#1a1a1a" fill-opacity="0.55" stroke="#1a1a1a" stroke-width="0.4" stroke-opacity="0.55" stroke-linejoin="round" />
  <path d="M 207.05,313.04 L 205.72,316.62 L 204.36,320.34 L 203.22,324.15 L 203.78,324.33 L 205.03,320.57 L 206.39,316.85 L 207.6,313.23 Z" fill="#1a1a1a" fill-opacity="0.55" stroke="#1a1a1a" stroke-width="0.4" stroke-opacity="0.55" stroke-linejoin="round" />
  <path d="M 199.56,312.52 L 198.25,316.14 L 196.94,319.87 L 195.8,323.72 L 196.37,323.9 L 197.63,320.1 L 198.94,316.37 L 200.13,312.72 Z" fill="#1a1a1a" fill-opacity="0.55" stroke="#1a1a1a" stroke-width="0.4" stroke-opacity="0.55" stroke-linejoin="round" />
  <path d="M 192.78,311.54 L 191.39,315.33 L 189.99,319.14 L 188.65,322.87 L 189.19,323.08 L 190.62,319.37 L 192.02,315.56 L 193.32,311.73 Z" fill="#1a1a1a" fill-opacity="0.55" stroke="#1a1a1a" stroke-width="0.4" stroke-opacity="0.55" stroke-linejoin="round" />
  <path d="M 185.93,309.64 L 184.46,313.3 L 183.09,317.05 L 181.73,320.95 L 182.29,321.15 L 183.76,317.29 L 185.13,313.55 L 186.49,309.86 Z" fill="#1a1a1a" fill-opacity="0.55" stroke="#1a1a1a" stroke-width="0.4" stroke-opacity="0.55" stroke-linejoin="round" />
  <path d="M 179.37,307.78 L 178.03,311.46 L 176.62,315.07 L 175.17,318.57 L 175.71,318.8 L 177.26,315.33 L 178.68,311.7 L 179.92,307.97 Z" fill="#1a1a1a" fill-opacity="0.55" stroke="#1a1a1a" stroke-width="0.4" stroke-opacity="0.55" stroke-linejoin="round" />
  <path d="M 172.23,305.61 L 170.9,309.26 L 169.51,313.03 L 168.3,316.78 L 168.86,316.97 L 170.19,313.27 L 171.59,309.5 L 172.8,305.81 Z" fill="#1a1a1a" fill-opacity="0.55" stroke="#1a1a1a" stroke-width="0.4" stroke-opacity="0.55" stroke-linejoin="round" />
  <path d="M 166.16,302.94 L 164.81,306.74 L 163.49,310.49 L 161.87,314.21 L 162.41,314.46 L 164.14,310.75 L 165.47,306.97 L 166.73,303.13 Z" fill="#1a1a1a" fill-opacity="0.55" stroke="#1a1a1a" stroke-width="0.4" stroke-opacity="0.55" stroke-linejoin="round" />
  <path d="M 159.7,300.38 L 158.29,304.1 L 156.93,307.75 L 155.33,311.24 L 155.87,311.5 L 157.59,308.03 L 158.97,304.35 L 160.26,300.58 Z" fill="#1a1a1a" fill-opacity="0.55" stroke="#1a1a1a" stroke-width="0.4" stroke-opacity="0.55" stroke-linejoin="round" />
  <path d="M 153.57,296.74 L 152.14,300.63 L 150.73,304.54 L 149.12,308.17 L 149.66,308.42 L 151.39,304.81 L 152.81,300.87 L 154.13,296.94 Z" fill="#1a1a1a" fill-opacity="0.55" stroke="#1a1a1a" stroke-width="0.4" stroke-opacity="0.55" stroke-linejoin="round" />
  <path d="M 147.53,293.51 L 146.12,297.2 L 144.71,300.83 L 143.38,304.62 L 143.93,304.82 L 145.37,301.07 L 146.77,297.44 L 148.08,293.72 Z" fill="#1a1a1a" fill-opacity="0.55" stroke="#1a1a1a" stroke-width="0.4" stroke-opacity="0.55" stroke-linejoin="round" />
  <path d="M 141.58,289.08 L 140.25,292.75 L 138.85,296.5 L 137.38,300.25 L 137.93,300.47 L 139.49,296.75 L 140.9,292.98 L 142.13,289.27 Z" fill="#1a1a1a" fill-opacity="0.55" stroke="#1a1a1a" stroke-width="0.4" stroke-opacity="0.55" stroke-linejoin="round" />
  <path d="M 135.38,285.2 L 133.98,289.02 L 132.59,292.84 L 131.34,296.37 L 131.88,296.57 L 133.22,293.08 L 134.62,289.25 L 135.94,285.39 Z" fill="#1a1a1a" fill-opacity="0.55" stroke="#1a1a1a" stroke-width="0.4" stroke-opacity="0.55" stroke-linejoin="round" />
  <path d="M 130.91,276.85 L 129.4,280.59 L 127.96,284.33 L 126.51,288.09 L 125.4,291.91 L 125.97,292.08 L 127.18,288.33 L 128.62,284.58 L 130.07,280.85 L 131.47,277.07 Z" fill="#1a1a1a" fill-opacity="0.55" stroke="#1a1a1a" stroke-width="0.4" stroke-opacity="0.55" stroke-linejoin="round" />
  <path d="M 124.16,274.75 L 122.72,278.29 L 121.29,281.92 L 119.84,285.86 L 120.39,286.07 L 121.97,282.19 L 123.41,278.55 L 124.72,274.97 Z" fill="#1a1a1a" fill-opacity="0.55" stroke="#1a1a1a" stroke-width="0.4" stroke-opacity="0.55" stroke-linejoin="round" />
  <path d="M 118.69,268.88 L 117.36,272.47 L 116.05,276.21 L 114.69,280.27 L 115.24,280.47 L 116.71,276.44 L 118.02,272.71 L 119.25,269.07 Z" fill="#1a1a1a" fill-opacity="0.55" stroke="#1a1a1a" stroke-width="0.4" stroke-opacity="0.55" stroke-linejoin="round" />
  <path d="M 113.44,263.05 L 112.07,266.76 L 110.7,270.49 L 109.41,274.47 L 109.96,274.65 L 111.34,270.71 L 112.7,266.99 L 113.99,263.24 Z" fill="#1a1a1a" fill-opacity="0.55" stroke="#1a1a1a" stroke-width="0.4" stroke-opacity="0.55" stroke-linejoin="round" />
  <path d="M 109.72,253 L 108.34,256.77 L 107.03,260.53 L 105.76,264.3 L 104.55,268.05 L 105.12,268.24 L 106.43,264.52 L 107.7,260.76 L 109.01,257 L 110.28,253.2 Z" fill="#1a1a1a" fill-opacity="0.55" stroke="#1a1a1a" stroke-width="0.4" stroke-opacity="0.55" stroke-linejoin="round" />
  <path d="M 103.62,249.58 L 102.19,253.31 L 100.76,257.08 L 99.3,260.83 L 99.85,261.06 L 101.42,257.34 L 102.86,253.55 L 104.18,249.79 Z" fill="#1a1a1a" fill-opacity="0.55" stroke="#1a1a1a" stroke-width="0.4" stroke-opacity="0.55" stroke-linejoin="round" />
  <path d="M 98.95,241.28 L 97.64,244.94 L 96.35,248.73 L 95.14,252.72 L 95.7,252.9 L 97.03,248.95 L 98.32,245.18 L 99.52,241.47 Z" fill="#1a1a1a" fill-opacity="0.55" stroke="#1a1a1a" stroke-width="0.4" stroke-opacity="0.55" stroke-linejoin="round" />
  <path d="M 94.86,232.03 L 93.4,235.74 L 92.04,239.47 L 91.04,243.07 L 91.6,243.23 L 92.68,239.67 L 94.03,235.97 L 95.41,232.24 Z" fill="#1a1a1a" fill-opacity="0.55" stroke="#1a1a1a" stroke-width="0.4" stroke-opacity="0.55" stroke-linejoin="round" />
  <path d="M 92.28,219.01 L 90.9,222.77 L 89.58,226.47 L 88.26,230.14 L 86.95,233.78 L 87.51,233.99 L 88.91,230.38 L 90.23,226.7 L 91.55,222.99 L 92.83,219.21 Z" fill="#1a1a1a" fill-opacity="0.55" stroke="#1a1a1a" stroke-width="0.4" stroke-opacity="0.55" stroke-linejoin="round" />
  <path d="M 89.25,207.27 L 87.82,210.99 L 86.44,214.73 L 85.01,218.5 L 83.76,222.33 L 84.31,222.52 L 85.66,218.74 L 87.09,214.98 L 88.47,211.23 L 89.8,207.48 Z" fill="#1a1a1a" fill-opacity="0.55" stroke="#1a1a1a" stroke-width="0.4" stroke-opacity="0.55" stroke-linejoin="round" />
  <path d="M 124.97,88.45 L 123.66,92.15 L 124.22,92.35 L 125.53,88.65 Z" fill="#1a1a1a" fill-opacity="0.55" stroke="#1a1a1a" stroke-width="0.4" stroke-opacity="0.55" stroke-linejoin="round" />
  <path d="M 86.1,194.99 L 84.73,198.56 L 83.43,202.13 L 82.1,205.74 L 80.85,209.49 L 81.41,209.69 L 82.77,205.98 L 84.09,202.37 L 85.4,198.81 L 86.66,195.19 Z" fill="#1a1a1a" fill-opacity="0.55" stroke="#1a1a1a" stroke-width="0.4" stroke-opacity="0.55" stroke-linejoin="round" />
  <path d="M 112.65,100.84 L 111.4,104.47 L 111.96,104.66 L 113.2,101.04 Z" fill="#1a1a1a" fill-opacity="0.55" stroke="#1a1a1a" stroke-width="0.4" stroke-opacity="0.55" stroke-linejoin="round" />
  <path d="M 86.84,173.56 L 85.49,177.17 L 84.18,180.78 L 82.86,184.36 L 81.49,187.88 L 80.09,191.4 L 80.64,191.63 L 82.13,188.14 L 83.5,184.6 L 84.83,181.02 L 86.14,177.4 L 87.4,173.76 Z" fill="#1a1a1a" fill-opacity="0.55" stroke="#1a1a1a" stroke-width="0.4" stroke-opacity="0.55" stroke-linejoin="round" />
  <path d="M 98.04,122.04 L 96.54,125.72 L 95.12,129.42 L 93.76,133.14 L 92.41,136.88 L 91.07,140.63 L 89.73,144.38 L 88.39,148.13 L 87.04,151.9 L 85.7,155.72 L 84.35,159.56 L 83.03,163.4 L 81.67,167.24 L 82.21,167.43 L 83.62,163.61 L 85.01,159.79 L 86.35,155.95 L 87.69,152.13 L 89.02,148.36 L 90.36,144.6 L 91.7,140.85 L 93.04,137.11 L 94.39,133.37 L 95.76,129.65 L 97.13,125.95 L 98.58,122.25 Z" fill="#1a1a1a" fill-opacity="0.55" stroke="#1a1a1a" stroke-width="0.4" stroke-opacity="0.55" stroke-linejoin="round" />
  <path d="M 166.32,316.32 L 169.7,317.69 L 173.65,318.74 L 177.54,319.79 L 181.38,320.84 L 185.46,321.97 L 189.57,323.11 L 193.14,323.57 L 196.67,324.02 L 202.45,324.8 L 208.32,325.61 L 213.86,325.59 L 218.24,325.58 L 222.64,325.58 L 227.09,325.57 L 231,325 L 234.86,324.44 L 240.67,323.58 L 246.53,322.73 L 251.03,321.4 L 255.47,320.05 L 259.88,318.64 L 264.28,317.17 L 267.12,316.2 L 270.35,314.61 L 275.09,311.79 L 279.82,308.98 L 284.56,306.16 L 289.34,303.34 L 292.76,300.73 L 296.15,298.18 L 299.58,295.63 L 303.12,292.43 L 306.64,289.27 L 310.16,286.11 L 313.71,282.91 L 316.87,279.23 L 320.02,275.54 L 323.24,270.8 L 326.43,266.09 L 329.62,261.37 L 332.04,257.77 L 334.48,254.14 L 337.03,249.28 L 338.72,244.99 L 340.39,240.78 L 342.05,236.55 L 343.71,232.25 L 344.91,227.26 L 346.11,222.27 L 347.32,217.26 L 348.26,213.46 L 349.23,209.59 L 349.87,204.21 L 350.51,198.84 L 350.63,194.72 L 350.74,190.65 L 350.85,186.54 L 350.44,182.78 L 350.01,179.09 L 349.39,174.08 L 348.75,169.08 L 348.09,164.01 L 346.79,159.11 L 345.55,154.25 L 344.35,149.39 L 343.19,144.55 L 342.68,142.39 L 341.22,138.67 L 339.24,134.58 L 337.24,130.53 L 335.25,126.46 L 333.23,122.34 L 330.99,118.94 L 328.78,115.59 L 326.58,112.25 L 323.92,108.26 L 321.19,104.22 L 318.22,100.94 L 315.28,97.68 L 312.32,94.38 L 309.13,91.21 L 305.97,88.05 L 302.38,85.29 L 298.85,82.57 L 295.3,79.85 L 291.83,77.21 L 288.28,74.54 L 284.06,72.2 L 279.71,70.08 L 275.37,67.99 L 271.05,65.91 L 266.74,63.81 L 263.34,62.64 L 259.66,61.54 L 254.42,59.97 L 249.16,58.39 L 244.45,57.23 L 239.75,56.04 L 238.7,55.87 L 238.5,55.84 L 234.46,55.34 L 230.41,54.84 L 229.3,54.76 L 223.29,54.3 L 221.81,54.26 L 216.78,54.1 L 215.22,54.12 L 210.45,54.17 L 208.99,54.24 L 203.88,54.49 L 202.68,54.6 L 199.61,54.86 L 196.51,55.12 L 195.8,55.21 L 190,55.91 L 188.16,56.29 L 187.42,56.44 L 184.05,57.34 L 180.71,58.27 L 175.89,59.64 L 171.88,61.02 L 167.43,62.58 L 163.01,64.15 L 161.52,64.89 L 160.09,65.59 L 156.03,67.88 L 151.94,70.14 L 147.12,72.74 L 142.27,75.28 L 140.31,76.64 L 137.3,78.69 L 133.62,81.54 L 129.96,84.36 L 127.41,86.35 L 124.78,88.41 L 122.04,91.24 L 119.31,94.08 L 115.9,97.66 L 112.47,101.22 L 109,104.76 L 108.3,105.68 L 106.72,107.74 L 104.35,111.31 L 102.02,114.91 L 99.73,118.55 L 96.83,123.37 L 94.76,128.27 L 92.68,133.07 L 90.25,138.4 L 87.72,143.67 L 86.28,148.07 L 84.96,152.1 L 83.65,156.15 L 82.35,160.22 L 81.56,163.63 L 81.27,164.93 L 80.81,169.83 L 80.36,174.64 L 79.92,179.39 L 79.61,182.85 L 79.31,186.39 L 79.53,190.88 L 79.75,195.41 L 79.94,199.97 L 80.12,204.56 L 80.35,209.2 L 80.88,212.03 L 81.48,215.21 L 82.1,218.42 L 83.55,223.24 L 84.96,228.02 L 86.15,232.18 L 88.42,237.75 L 90.66,243.29 L 92.19,247.03 L 93.74,250.77 L 95.31,254.56 L 97.19,257.89 L 98.72,260.61 L 100.27,263.38 L 103.13,267.31 L 105.97,271.19 L 107.75,273.6 L 109.56,276.04 L 112.84,279.6 L 116.11,283.13 L 120.01,287.34 L 123.99,291.57 L 126.75,293.83 L 129.33,295.9 L 132.79,298.19 L 136.23,300.5 L 139.67,302.8 L 143.77,305.54 L 147.88,308.25 L 152.45,310.4 L 155.9,311.99 L 159.38,313.6 L 162.85,314.95 L 166.32,316.33 L 166.76,315.21 L 163.29,313.83 L 159.85,312.49 L 156.41,310.9 L 152.96,309.3 L 148.47,307.19 L 144.45,304.52 L 140.35,301.78 L 136.91,299.48 L 133.47,297.17 L 130.06,294.9 L 127.54,292.85 L 124.87,290.66 L 120.96,286.46 L 117.08,282.24 L 113.83,278.7 L 110.6,275.16 L 108.86,272.79 L 107.1,270.37 L 104.29,266.47 L 101.5,262.58 L 99.99,259.9 L 98.46,257.17 L 96.63,253.92 L 95.09,250.21 L 93.53,246.47 L 91.98,242.75 L 89.7,237.23 L 87.42,231.73 L 86.28,227.64 L 84.92,222.84 L 83.54,218.06 L 82.97,214.93 L 82.39,211.74 L 81.88,209.05 L 81.64,204.49 L 81.44,199.91 L 81.27,195.34 L 81.1,190.81 L 80.93,186.41 L 81.25,183 L 81.58,179.55 L 82.03,174.8 L 82.48,169.99 L 82.91,165.13 L 83.17,164 L 83.93,160.66 L 85.18,156.63 L 86.46,152.58 L 87.74,148.54 L 89.08,144.22 L 91.53,138.99 L 93.98,133.65 L 96.13,128.87 L 98.23,124.11 L 101.14,119.43 L 103.44,115.82 L 105.75,112.23 L 108.07,108.68 L 109.6,106.68 L 110.19,105.88 L 113.66,102.37 L 117.11,98.82 L 120.53,95.25 L 123.25,92.41 L 125.9,89.64 L 128.42,87.65 L 130.97,85.65 L 134.61,82.81 L 138.24,79.97 L 141.2,77.91 L 143.04,76.61 L 147.82,74.04 L 152.63,71.38 L 156.71,69.1 L 160.76,66.82 L 162.14,66.15 L 163.52,65.48 L 167.92,63.97 L 172.37,62.46 L 176.35,61.15 L 181.14,59.86 L 184.49,58.98 L 187.84,58.11 L 188.5,57.98 L 190.25,57.63 L 196.01,56.91 L 196.67,56.83 L 199.76,56.55 L 202.83,56.25 L 203.98,56.14 L 209.08,55.84 L 210.49,55.76 L 215.25,55.67 L 216.75,55.64 L 221.77,55.76 L 223.19,55.8 L 229.18,56.26 L 230.24,56.35 L 234.28,56.86 L 238.31,57.37 L 238.46,57.39 L 239.39,57.54 L 244.05,58.76 L 248.71,59.97 L 253.94,61.59 L 259.18,63.16 L 262.84,64.22 L 266.11,65.31 L 270.37,67.34 L 274.69,69.41 L 279.03,71.5 L 283.33,73.61 L 287.41,75.88 L 290.89,78.47 L 294.38,81.06 L 297.95,83.76 L 301.48,86.47 L 304.98,89.17 L 308.08,92.27 L 311.24,95.41 L 314.16,98.69 L 317.1,101.96 L 319.98,105.16 L 322.65,109.11 L 325.32,113.09 L 327.55,116.41 L 329.77,119.75 L 331.96,123.06 L 333.9,127.11 L 335.85,131.2 L 337.79,135.28 L 339.72,139.32 L 341.11,142.91 L 341.58,144.93 L 342.74,149.78 L 343.94,154.65 L 345.18,159.53 L 346.46,164.34 L 347.11,169.29 L 347.77,174.29 L 348.39,179.28 L 348.82,182.97 L 349.23,186.61 L 349.15,190.61 L 349.06,194.68 L 348.96,198.72 L 348.31,204.02 L 347.65,209.31 L 346.69,213.07 L 345.74,216.88 L 344.52,221.89 L 343.34,226.89 L 342.18,231.79 L 340.58,235.99 L 338.95,240.21 L 337.3,244.44 L 335.65,248.64 L 333.16,253.36 L 330.75,256.89 L 328.31,260.49 L 325.14,265.22 L 321.98,269.95 L 318.82,274.64 L 315.73,278.25 L 312.64,281.86 L 309.16,285 L 305.63,288.15 L 302.1,291.3 L 298.61,294.45 L 295.24,296.95 L 291.84,299.5 L 288.49,302.04 L 283.76,304.81 L 279.02,307.64 L 274.32,310.51 L 269.65,313.35 L 266.56,314.89 L 263.83,315.83 L 259.44,317.29 L 255.05,318.72 L 250.64,320.1 L 246.25,321.43 L 240.48,322.31 L 234.68,323.2 L 230.82,323.79 L 227.01,324.36 L 222.64,324.38 L 218.24,324.38 L 213.86,324.38 L 208.4,324.4 L 202.61,323.6 L 196.83,322.84 L 193.29,322.39 L 189.81,321.96 L 185.78,320.85 L 181.69,319.71 L 177.85,318.66 L 173.96,317.6 L 170.07,316.57 L 166.76,315.22 Z" fill="#1a1a1a" stroke="#1a1a1a" stroke-width="0.4" stroke-linejoin="round" />
</g></g>
<g clip-path="url(#clip-0-1)"><g transform="translate(452,0)">  <rect width="430" height="380" fill="#faf9f5" />
  <path d="M 138.75,193.11 L 137.5,192.24 L 134.94,190.48 L 131.29,189.05 L 130.69,188.92 L 127.3,187.1 L 126.5,186.83 L 126.05,187.98 L 126.65,188.25 L 129.9,190.39 L 130.71,190.62 L 134.19,191.96 L 136.7,193.53 L 138.15,194.18 Z" fill="#1a1a1a" stroke="#1a1a1a" stroke-width="0.4" stroke-linejoin="round" />
  <polyline points="126.27,187.4 126.15,187.36 125.63,186.58" fill="none" stroke="#1a1a1a" stroke-width="1.454" stroke-opacity="0.32" stroke-dasharray="4,3" stroke-linecap="round" stroke-linejoin="round" />
  <path d="M 125.54,187.17 L 126.05,187.25 L 126.22,186.07 L 125.71,185.99 Z" fill="#1a1a1a" stroke="#1a1a1a" stroke-width="0.4" stroke-linejoin="round" />
  <polyline points="126.14,186.66 126.4,186.69 126.1,186.91 126.18,187.37 126.9,188.11 128.7,190.52 128.7,190.54 128.7,190.56 129.36,193.5 130.06,196.64 130.23,196.95 130.42,197.37 130.02,200.41 129.7,202.7 129.82,203.35 130.01,204 129.19,205.36 128.88,205.64 128.93,206.18 129.44,206.2 129.15,206.12 129.2,205.78 129.78,204.79 131.09,203.04 132.04,202.41 135.99,199.65 136.13,199.59 136.82,199.24 141.11,196.32 142.69,195.27 143.21,195.01" fill="none" stroke="#1a1a1a" stroke-width="1.337" stroke-opacity="0.32" stroke-dasharray="4,3" stroke-linecap="round" stroke-linejoin="round" />
  <path d="M 143.43,195.47 L 147.78,193.35 L 151.26,191.8 L 155.6,190.4 L 161.02,188.52 L 164.81,187.51 L 168.48,186.5 L 172.16,185.49 L 175.38,184.87 L 179.81,184.02 L 184.17,183.22 L 186.83,182.95 L 191.76,182.43 L 196.6,181.87 L 198.83,181.74 L 204.03,181.38 L 209.31,180.93 L 211.45,180.88 L 216.98,180.75 L 222.48,180.6 L 224.67,180.68 L 230.01,180.98 L 235.28,181.38 L 237.77,181.76 L 242.79,182.48 L 247.79,183.13 L 250.88,183.74 L 255.29,184.62 L 259.62,185.48 L 263.47,186.58 L 267,187.53 L 270.54,188.4 L 275.52,190.07 L 280.46,191.84 L 283.44,193.4 L 286.37,195.04 L 286.97,195.38 L 287.45,194.53 L 286.85,194.19 L 283.91,192.54 L 280.86,190.9 L 275.88,189.06 L 270.88,187.29 L 267.32,186.33 L 263.82,185.34 L 259.94,184.19 L 255.56,183.27 L 251.16,182.36 L 248.02,181.71 L 242.98,181.04 L 237.98,180.34 L 235.42,179.97 L 230.1,179.58 L 224.75,179.27 L 222.47,179.17 L 216.95,179.29 L 211.42,179.4 L 209.21,179.44 L 203.91,179.89 L 198.73,180.26 L 196.46,180.39 L 191.6,180.97 L 186.68,181.51 L 183.95,181.82 L 179.55,182.64 L 175.12,183.49 L 171.83,184.12 L 168.11,185.15 L 164.44,186.19 L 160.62,187.27 L 155.21,189.28 L 150.87,190.78 L 147.34,192.41 L 142.99,194.56 Z" fill="#1a1a1a" stroke="#1a1a1a" stroke-width="0.4" stroke-linejoin="round" />
  <polyline points="287.21,194.95 288.73,195.81 293.13,199.11 294.88,199.99 295.4,200.31 299.46,203.27 300.63,205.27 300.92,205.71 300.75,205.91 301.12,205.44 299.99,204.04 300.45,202.16 299.62,198.07 300.38,196.54 301.44,191.5 302.12,190.92 302.92,189.66 304.09,187.81 303.85,187.42" fill="none" stroke="#1a1a1a" stroke-width="1.332" stroke-opacity="0.32" stroke-dasharray="4,3" stroke-linecap="round" stroke-linejoin="round" />
  <path d="M 303.26,187.39 L 303.25,187.69 L 304.43,187.74 L 304.45,187.44 Z" fill="#1a1a1a" stroke="#1a1a1a" stroke-width="0.4" stroke-linejoin="round" />
  <polyline points="303.84,187.71 303.74,188.24 303.6,188.3" fill="none" stroke="#1a1a1a" stroke-width="1.455" stroke-opacity="0.32" stroke-dasharray="4,3" stroke-linecap="round" stroke-linejoin="round" />
  <path d="M 303.34,187.73 L 299.7,189.37 L 298.91,189.67 L 295.73,190.61 L 293.09,192 L 290.56,193.39 L 287.8,194.34 L 283.06,196.05 L 278.36,197.7 L 274.83,198.48 L 271.22,199.27 L 266.81,200.23 L 262.42,201.17 L 257.07,201.88 L 251.71,202.64 L 247.8,203.2 L 243.92,203.78 L 239.67,204.12 L 235.38,204.48 L 231.09,204.84 L 227.51,205.15 L 223.96,205.46 L 219.47,205.53 L 214.97,205.58 L 210.47,205.61 L 207.03,205.62 L 203.63,205.63 L 199.41,205.34 L 195.16,205.04 L 190.91,204.72 L 187.39,204.45 L 183.91,204.18 L 178.57,203.34 L 173.22,202.5 L 169.57,201.94 L 165.95,201.39 L 162.09,200.47 L 158.18,199.54 L 154.41,198.65 L 150.66,197.74 L 146.12,196.09 L 142.41,194.61 L 138.68,193.08 L 138.21,194.22 L 141.93,195.77 L 145.65,197.31 L 150.24,199.06 L 154.06,200.06 L 157.83,201.01 L 161.73,201.96 L 165.65,202.91 L 169.34,203.45 L 172.98,204.01 L 178.32,204.89 L 183.7,205.8 L 187.25,206.12 L 190.77,206.42 L 195.02,206.79 L 199.28,207.13 L 203.56,207.45 L 207.04,207.43 L 210.48,207.4 L 214.98,207.35 L 219.49,207.29 L 224.04,207.24 L 227.66,206.96 L 231.24,206.68 L 235.54,206.33 L 239.82,205.98 L 244.13,205.63 L 248.07,205.04 L 251.98,204.48 L 257.33,203.7 L 262.73,202.93 L 267.19,201.95 L 271.6,200.99 L 275.21,200.19 L 278.86,199.36 L 283.63,197.6 L 288.33,195.79 L 291.17,194.72 L 293.77,193.22 L 296.24,191.86 L 299.31,190.9 L 300.22,190.55 L 303.86,188.88 Z" fill="#1a1a1a" stroke="#1a1a1a" stroke-width="0.4" stroke-linejoin="round" />
  <path d="M 74.81,309.77 L 79.75,312.22 L 84.7,314.71 L 89.67,317.23 L 94.65,319.82 L 98.22,321.75 L 101.81,323.72 L 107.11,325.8 L 112.32,327.86 L 117.5,329.88 L 121.87,331.55 L 126.26,333.2 L 130.75,334.83 L 135.01,335.82 L 139.24,336.78 L 143.49,337.74 L 148.27,338.79 L 153.05,339.82 L 157.81,340.86 L 162.59,341.9 L 167.72,342.46 L 172.81,343.02 L 178.51,343.64 L 184.24,344.28 L 189.98,344.96 L 195.75,345.7 L 200.34,345.84 L 204.86,345.97 L 209.76,346.11 L 214.64,346.22 L 219.52,346.3 L 224.39,346.33 L 229.3,346.3 L 234.06,345.73 L 238.79,345.15 L 244.67,344.42 L 250.58,343.69 L 256.51,343.01 L 262.5,342.4 L 266.6,341.57 L 270.66,340.79 L 274.73,340.03 L 279.7,339.11 L 284.66,338.16 L 289.61,337.15 L 294.59,336.07 L 298.87,334.57 L 303.11,333.06 L 307.35,331.55 L 311.59,330.03 L 315.83,328.53 L 320.07,327.06 L 324.37,325.58 L 329.29,323.2 L 334.19,320.85 L 339.06,318.5 L 343.91,316.15 L 348.76,313.8 L 351.67,312.38 L 354.63,310.43 L 357.58,308.48 L 361.98,305.11 L 366.38,301.77 L 370.81,298.42 L 375.29,295.03 L 378.97,291.21 L 382.61,287.36 L 386.25,283.47 L 389.89,279.56 L 392.6,276.65 L 395.34,273.71 L 397.15,271.06 L 398.94,268.42 L 401.47,263.4 L 403.96,258.44 L 406.42,253.45 L 408.87,248.34 L 410.26,243.37 L 411.61,238.5 L 413.02,233.61 L 413.62,229.23 L 414.28,224.91 L 414.99,220.53 L 414.98,215.87 L 414.95,211.26 L 414.9,206.62 L 414.83,201.91 L 414,197.51 L 413.14,193.11 L 411.24,187.84 L 409.36,182.62 L 407.5,177.41 L 405.64,172.16 L 404.2,169.53 L 400.92,165.1 L 397.63,160.65 L 394.36,156.16 L 391.1,151.62 L 387.48,147.7 L 383.89,143.77 L 380.4,140.77 L 376.79,137.83 L 371.93,134.76 L 368.34,132.44 L 364.79,130.06 L 361.21,127.61 L 357.26,125.45 L 353.29,123.36 L 349.29,121.32 L 345.13,119.21 L 340.26,117.19 L 335.49,115.15 L 330.74,113.07 L 328.98,112.39 L 328.62,112.27 L 323.26,110.55 L 317.94,108.83 L 312.68,107.09 L 310.09,106.37 L 305.57,105.12 L 301.01,103.84 L 296.34,102.53 L 291.85,101.59 L 287.52,100.76 L 283.16,99.99 L 278.78,99.26 L 272.93,98.58 L 267.04,97.85 L 261.17,97.09 L 257.83,96.8 L 254.51,96.51 L 248.94,96.02 L 243.29,95.56 L 239.59,95.43 L 235.93,95.32 L 230.57,95.16 L 225.29,95 L 221.62,95.03 L 217.98,95.06 L 212.82,95.06 L 207.59,94.97 L 203.91,95.02 L 200.26,95.06 L 195.07,95.16 L 189.85,95.37 L 186.36,95.69 L 182.88,96 L 177.42,96.45 L 171.94,96.85 L 168.75,97.2 L 165.59,97.54 L 159.88,98.12 L 154.13,98.72 L 148.76,99.65 L 144.71,100.4 L 140.74,101.16 L 136.82,101.94 L 132.96,102.93 L 128.74,104 L 124.48,105.09 L 120.21,106.17 L 117.84,106.89 L 113.16,108.23 L 108.43,109.62 L 103.62,111.1 L 103.03,111.33 L 99.54,112.67 L 94.25,114.94 L 88.98,117.2 L 86.83,118.13 L 81.34,121.05 L 75.88,123.91 L 70.63,126.55 L 67.21,128.61 L 63.83,130.61 L 59.49,133.2 L 55.13,135.84 L 52.42,137.99 L 49.12,140.62 L 45.8,143.34 L 42.21,147.02 L 40.31,148.99 L 37.16,153.26 L 34.06,157.44 L 30.74,161.89 L 27.45,166.4 L 26.25,168.68 L 24.54,171.89 L 22.86,176.68 L 21.16,181.4 L 19.7,185.32 L 18.18,189.27 L 16.87,194.87 L 16.04,198.17 L 15.18,201.55 L 14.81,205.46 L 14.44,209.33 L 14.11,212.81 L 13.82,216.35 L 14.23,220.39 L 14.7,224.36 L 15.33,228.98 L 15.97,233.62 L 16.85,236.59 L 17.69,239.49 L 19.02,244.36 L 21.4,249.39 L 23.84,254.37 L 26.18,258.98 L 28.5,263.56 L 30.77,268.18 L 31.53,269.33 L 32.03,270.12 L 35.91,274.4 L 39.82,278.69 L 43.76,282.97 L 47.7,287.25 L 51.65,291.56 L 54.73,294.05 L 57.75,296.5 L 61.39,299.41 L 65.01,302.32 L 68.63,305.2 L 72.26,308.06 L 74.07,309.27 L 74.74,309.73 L 75.39,308.79 L 74.72,308.32 L 72.95,307.14 L 69.35,304.29 L 65.74,301.41 L 62.11,298.51 L 58.48,295.59 L 55.46,293.14 L 52.47,290.72 L 48.56,286.45 L 44.64,282.16 L 40.71,277.87 L 36.82,273.58 L 32.96,269.31 L 32.55,268.66 L 31.85,267.62 L 29.58,263.02 L 27.27,258.43 L 24.95,253.82 L 22.54,248.84 L 20.23,243.91 L 18.94,239.15 L 18.1,236.22 L 17.25,233.37 L 16.63,228.8 L 16.02,224.19 L 15.55,220.24 L 15.14,216.33 L 15.43,212.93 L 15.75,209.45 L 16.11,205.58 L 16.46,201.77 L 17.29,198.49 L 18.12,195.17 L 19.45,189.65 L 20.97,185.81 L 22.47,181.89 L 24.21,177.17 L 25.88,172.46 L 27.56,169.38 L 28.69,167.22 L 31.98,162.82 L 35.34,158.4 L 38.47,154.23 L 41.57,150.01 L 43.37,148.14 L 46.88,144.51 L 50.12,141.85 L 53.4,139.22 L 56.01,137.14 L 60.29,134.52 L 64.62,131.93 L 67.99,129.92 L 71.35,127.89 L 76.57,125.24 L 82.03,122.37 L 87.51,119.49 L 89.59,118.61 L 94.86,116.34 L 100.11,114.06 L 103.56,112.71 L 104.07,112.51 L 108.85,111.02 L 113.56,109.64 L 118.25,108.31 L 120.59,107.6 L 124.85,106.54 L 129.11,105.46 L 133.34,104.42 L 137.16,103.45 L 141.04,102.69 L 145,101.91 L 149.03,101.12 L 154.33,100.18 L 160.03,99.62 L 165.75,99.11 L 168.92,98.8 L 172.07,98.47 L 177.55,98.1 L 183.02,97.65 L 186.51,97.33 L 189.95,97 L 195.12,96.77 L 200.29,96.64 L 203.93,96.58 L 207.58,96.53 L 212.8,96.63 L 217.98,96.66 L 221.64,96.64 L 225.27,96.59 L 230.53,96.73 L 235.89,96.86 L 239.54,96.99 L 243.19,97.12 L 248.8,97.6 L 254.38,98.09 L 257.7,98.37 L 260.99,98.63 L 266.85,99.37 L 272.75,100.08 L 278.56,100.8 L 282.89,101.55 L 287.23,102.32 L 291.55,103.13 L 295.98,104.02 L 300.62,105.27 L 305.18,106.54 L 309.7,107.78 L 312.24,108.48 L 317.48,110.23 L 322.8,111.97 L 328.16,113.71 L 328.44,113.81 L 330.14,114.48 L 334.86,116.59 L 339.61,118.7 L 344.41,120.76 L 348.51,122.85 L 352.52,124.86 L 356.48,126.91 L 360.37,128.99 L 363.91,131.38 L 367.49,133.74 L 371.12,136.04 L 375.92,139.06 L 379.45,141.91 L 382.89,144.81 L 386.45,148.65 L 390.03,152.49 L 393.2,156.99 L 396.45,161.52 L 399.75,165.97 L 402.99,170.33 L 404.31,172.72 L 406.14,177.89 L 407.99,183.11 L 409.86,188.34 L 411.73,193.52 L 412.55,197.79 L 413.35,202.05 L 413.41,206.64 L 413.45,211.27 L 413.5,215.88 L 413.54,220.42 L 412.85,224.69 L 412.17,229.01 L 411.55,233.29 L 410.12,238.07 L 408.72,242.94 L 407.34,247.75 L 404.92,252.71 L 402.46,257.7 L 400,262.67 L 397.54,267.64 L 395.84,270.17 L 394.13,272.73 L 391.47,275.59 L 388.77,278.51 L 385.12,282.42 L 381.49,286.32 L 377.88,290.17 L 374.3,293.91 L 369.91,297.24 L 365.49,300.59 L 361.09,303.95 L 356.72,307.3 L 353.83,309.23 L 350.96,311.14 L 348.14,312.52 L 343.29,314.86 L 338.42,317.17 L 333.53,319.49 L 328.64,321.86 L 323.8,324.25 L 319.6,325.71 L 315.36,327.17 L 311.1,328.64 L 306.85,330.12 L 302.6,331.62 L 298.36,333.12 L 294.17,334.58 L 289.29,335.64 L 284.36,336.67 L 279.42,337.67 L 274.46,338.64 L 270.4,339.42 L 266.33,340.21 L 262.3,341.03 L 256.37,341.63 L 250.41,342.28 L 244.49,342.98 L 238.61,343.69 L 233.88,344.28 L 229.2,344.84 L 224.39,344.88 L 219.53,344.88 L 214.66,344.84 L 209.79,344.76 L 204.9,344.65 L 200.38,344.51 L 195.87,344.36 L 190.15,343.59 L 184.4,342.88 L 178.67,342.22 L 172.96,341.58 L 167.87,341.05 L 162.8,340.54 L 158.1,339.54 L 153.33,338.51 L 148.56,337.47 L 143.79,336.42 L 139.54,335.48 L 135.3,334.53 L 131.13,333.58 L 126.71,331.98 L 122.31,330.36 L 117.95,328.72 L 112.76,326.73 L 107.54,324.69 L 102.3,322.64 L 98.78,320.72 L 95.19,318.79 L 90.2,316.21 L 85.21,313.69 L 80.25,311.21 L 75.32,308.75 Z" fill="#1a1a1a" stroke="#1a1a1a" stroke-width="0.4" stroke-linejoin="round" />
</g></g>
<text x="14" y="26" font-family="sans-serif" font-size="14" fill="#999"></text>
<line x1="441" y1="8" x2="441" y2="372" stroke="#ddd" stroke-width="1" />
<text x="215" y="20" text-anchor="middle" font-family="sans-serif" font-size="14" fill="#999">mesh sphere (shaded)</text>
<text x="667" y="20" text-anchor="middle" font-family="sans-serif" font-size="14" fill="#999">mesh torus (hidden-line)</text>
</svg>