<svg xmlns="http://www.w3.org/2000/svg" viewBox="0 0 882 360" width="882" height="360">
<defs><clipPath id="clip-0-0" clipPathUnits="userSpaceOnUse"><rect x="0" y="0" width="430" height="360" /></clipPath><clipPath id="clip-0-1" clipPathUnits="userSpaceOnUse"><rect x="452" y="0" width="430" height="360" /></clipPath></defs>
<g clip-path="url(#clip-0-0)"><g transform="translate(0,0)">  <rect width="430" height="360" fill="#faf9f5" />
  <path d="M 130.31,168.95 L 125.8,167.32 L 121.27,165.81 L 116.75,164.25 L 112.14,162.91 L 111.68,164.26 L 116.15,166 L 120.68,167.55 L 125.23,169.07 L 129.89,170.3 Z" fill="#1a1a1a" stroke="#1a1a1a" stroke-width="0.4" stroke-linejoin="round" />
  <polyline points="111.91,163.59 111.28,163.27" fill="none" stroke="#1a1a1a" stroke-width="1.508" stroke-opacity="0.32" stroke-dasharray="4,3" stroke-linecap="round" stroke-linejoin="round" />
  <path d="M 111.65,162.69 L 109.83,161.54 L 109.1,162.71 L 110.91,163.85 Z" fill="#1a1a1a" stroke="#1a1a1a" stroke-width="0.4" stroke-linejoin="round" />
  <polyline points="109.47,162.12 111.78,163.62 115.49,167.47 117.29,170.33 119.13,173.23 120.47,176.67 121.8,180.16 122.42,183.74 123.04,187.32 123,190.63 122.93,193.95 121.64,199.84 119.92,204.28 118.89,206.16 119.22,205.66 122.59,202.89 126.12,199.92 129.92,197.75 133.78,195.62 138.6,193.6 143.4,191.71 147.32,190.47 151.26,189.23 155.23,187.96 160.03,186.82 164.85,185.67 169.64,184.53 174.88,183.71 180.04,182.94 185.19,182.18 190.68,181.78 196.2,181.4 201.72,181.01 207.35,180.97 212.98,180.88 218.62,180.72 224.13,180.92 229.65,181.15 235.17,181.42 240.52,182.1 245.82,182.78 251.1,183.44 256.25,184.45 261.43,185.45 266.65,186.46 271.67,187.92 276.69,189.39 281.67,190.82 286.27,192.53 290.96,194.14 294.84,195.73 298.72,197.35 302.58,199.11 305.29,201.01 307.98,202.92 311.23,205.65 309.19,201.17 307.9,196.54 307.55,193.59 307.15,190.65 307.34,187.16 307.56,183.69 308.53,179.26 309.73,176.48 311.43,172.61 313.2,170.07 315.1,167.09 316.85,165.36 320.11,162.19" fill="none" stroke="#1a1a1a" stroke-width="1.308" stroke-opacity="0.32" stroke-dasharray="4,3" stroke-linecap="round" stroke-linejoin="round" />
  <path d="M 319.75,161.6 L 318.11,162.61 L 318.83,163.78 L 320.47,162.77 Z" fill="#1a1a1a" stroke="#1a1a1a" stroke-width="0.4" stroke-linejoin="round" />
  <polyline points="318.47,163.2 317.32,163.76" fill="none" stroke="#1a1a1a" stroke-width="1.506" stroke-opacity="0.32" stroke-dasharray="4,3" stroke-linecap="round" stroke-linejoin="round" />
  <path d="M 317.08,163.08 L 312.05,164.81 L 306.89,166.44 L 303.32,167.48 L 299.8,168.53 L 294.11,169.86 L 288.51,171.23 L 283.41,172.06 L 278.3,172.87 L 273.17,173.64 L 268.02,174.41 L 262.87,175.19 L 257.16,175.64 L 251.43,176.08 L 245.7,176.48 L 239.99,176.85 L 234.33,177.21 L 228.52,177.18 L 222.67,177.14 L 216.79,177.1 L 210.9,177.09 L 205.02,177.09 L 199.34,176.77 L 193.66,176.47 L 187.99,176.2 L 182.35,175.94 L 176.76,175.69 L 171.71,175.11 L 166.62,174.53 L 161.52,173.94 L 156.42,173.38 L 151.34,172.85 L 146.09,171.87 L 140.81,170.9 L 135.52,169.92 L 130.23,168.93 L 129.96,170.33 L 135.25,171.36 L 140.52,172.41 L 145.78,173.49 L 151.07,174.57 L 156.21,175.18 L 161.32,175.77 L 166.41,176.33 L 171.5,176.9 L 176.62,177.48 L 182.27,177.72 L 187.91,177.97 L 193.57,178.24 L 199.25,178.53 L 204.97,178.88 L 210.9,178.89 L 216.79,178.91 L 222.66,178.92 L 228.51,178.92 L 234.38,178.9 L 240.11,178.5 L 245.81,178.1 L 251.54,177.69 L 257.28,177.31 L 263.05,176.94 L 268.28,176.17 L 273.43,175.4 L 278.57,174.61 L 283.69,173.82 L 288.87,173 L 294.53,171.6 L 300.24,170.16 L 303.8,169.03 L 307.36,167.92 L 312.52,166.21 L 317.56,164.45 Z" fill="#1a1a1a" stroke="#1a1a1a" stroke-width="0.4" stroke-linejoin="round" />
  <path d="M 71.02,319.59 L 66.6,317.07 L 62.19,314.51 L 57.77,311.95 L 53.37,309.42 L 48.49,306.09 L 43.58,302.81 L 38.71,299.58 L 34.91,296.75 L 31.12,293.95 L 28.18,291.37 L 25.19,288.77 L 22.22,286.21 L 18.99,282.75 L 15.73,279.23 L 12.5,275.66 L 9.27,272.06 L 6.1,268.52 L 3.39,263.74 L 0.64,258.89 L -2.11,254.06 L -4.85,249.27 L -6.56,244.35 L -8.32,239.34 L -10.09,234.35 L -11.84,229.41 L -12.76,225.4 L -13.32,220.44 L -13.87,215.45 L -14.42,210.48 L -14.67,206.14 L -14.22,201.9 L -13.79,197.58 L -13.37,193.26 L -13.03,190.14 L -12.7,187.12 L -11.18,182.5 L -9.62,177.83 L -10.95,177.38 L -12.53,182.05 L -14.16,186.76 L -14.57,189.96 L -14.96,193.08 L -15.45,197.4 L -15.93,201.72 L -16.41,206.1 L -16.15,210.63 L -15.59,215.64 L -15.03,220.64 L -14.45,225.68 L -13.48,229.9 L -11.7,234.92 L -9.95,239.91 L -8.2,244.92 L -6.44,250 L -3.63,254.93 L -0.85,259.74 L 1.94,264.56 L 4.77,269.46 L 8.08,273.13 L 11.33,276.72 L 14.58,280.28 L 17.82,283.83 L 21.06,287.39 L 24.07,290.05 L 27.04,292.66 L 30.04,295.3 L 33.89,298.13 L 37.73,300.98 L 42.61,304.26 L 47.51,307.56 L 52.48,310.86 L 56.98,313.35 L 61.44,315.82 L 65.89,318.32 L 70.33,320.82 Z" fill="#1a1a1a" stroke="#1a1a1a" stroke-width="0.4" stroke-linejoin="round" />
  <polyline points="-10.29,177.61 -9.82,176.23" fill="none" stroke="#1a1a1a" stroke-width="1.448" stroke-opacity="0.32" stroke-dasharray="4,3" stroke-linecap="round" stroke-linejoin="round" />
  <path d="M -9.2,176.45 L -7.88,172.64 L -6.59,168.89 L -4.31,164.95 L -2.02,160.95 L 0.26,156.94 L 2.59,152.86 L 5.65,149.22 L 8.77,145.55 L 11.9,141.89 L 14.22,139.51 L 16.53,137.15 L 20.22,134.12 L 23.9,131.1 L 27.21,128.74 L 30.53,126.38 L 33.84,124.03 L 36.75,122.34 L 39.67,120.64 L 44.12,118.48 L 48.59,116.3 L 53.08,114.16 L 57.57,112.06 L 61.98,110.4 L 66.39,108.67 L 70.76,106.88 L 75.07,105.08 L 79.94,103.61 L 84.92,102.13 L 89.92,100.66 L 94.89,99.19 L 100.44,97.92 L 106.03,96.72 L 111.72,95.6 L 117.41,94.52 L 123.37,93.69 L 129.28,92.88 L 135.17,92.07 L 141.02,91.22 L 146.83,90.58 L 152.67,89.85 L 158.56,89.08 L 164.47,88.34 L 170.35,87.88 L 176.18,87.41 L 182.03,86.95 L 187.94,86.51 L 192.99,86.37 L 198.03,86.21 L 202.99,86.08 L 207.89,86.01 L 212.76,85.98 L 217.81,86.2 L 222.9,86.4 L 228.01,86.55 L 233.12,86.64 L 238.21,86.7 L 243.27,86.98 L 248.36,87.29 L 253.44,87.62 L 258.53,87.98 L 263.63,88.35 L 268.54,88.9 L 273.53,89.43 L 278.59,89.94 L 283.66,90.45 L 288.69,90.98 L 293.73,91.79 L 298.69,92.6 L 303.55,93.4 L 308.36,94.2 L 313.1,94.99 L 318.1,96.17 L 323.19,97.35 L 328.33,98.51 L 333.47,99.7 L 338.58,100.96 L 342.85,102.37 L 347.19,103.77 L 351.57,105.12 L 355.93,106.4 L 359.93,107.91 L 363.91,109.41 L 367.82,110.91 L 372.16,112.85 L 376.58,114.81 L 381.06,116.74 L 385.22,118.82 L 389.39,120.87 L 393.49,122.89 L 396.81,125.1 L 400.14,127.37 L 403.42,129.64 L 407.29,132.85 L 411.16,136.09 L 415.01,139.3 L 418.54,143.28 L 422.14,147.28 L 425.71,151.18 L 428.18,155.09 L 430.67,159.06 L 433.13,163.08 L 435.55,167.07 L 437.39,171.88 L 439.23,176.71 L 440.65,181.24 L 442.08,185.68 L 442.7,190.58 L 443.35,195.54 L 444.01,200.47 L 444.68,205.33 L 444.26,210.3 L 443.84,215.36 L 443.42,220.4 L 443.02,225.32 L 441.52,230.12 L 440.01,235.01 L 438.5,239.94 L 437.01,244.87 L 435.52,247.87 L 433.23,252.04 L 430.93,256.22 L 428.59,260.4 L 426.28,264.55 L 423.63,268.07 L 420.99,271.62 L 417.11,276.08 L 413.21,280.52 L 409.31,284.9 L 406.29,287.77 L 403.24,290.64 L 400.23,293.46 L 395.89,296.51 L 391.52,299.59 L 387.22,302.68 L 382.62,305.53 L 378.02,308.4 L 373.41,311.27 L 368.79,314.14 L 364.21,316.99 L 359.27,319.22 L 354.28,321.47 L 349.27,323.69 L 344.28,325.87 L 339.66,327.4 L 335.01,328.93 L 330.36,330.47 L 325.71,332 L 321.09,333.54 L 316.04,334.8 L 310.97,336.1 L 305.94,337.42 L 300.93,338.76 L 295.96,340.09 L 290.63,341.08 L 285.26,342.09 L 279.88,343.08 L 274.47,344.07 L 269.07,345.05 L 264.87,345.63 L 260.67,346.23 L 256.51,346.83 L 251.48,347.29 L 246.43,347.74 L 241.37,348.17 L 236.35,348.54 L 231.33,348.91 L 225.38,349 L 219.4,349.1 L 213.42,349.2 L 209.81,349.27 L 206.23,349.33 L 201.26,349.11 L 196.31,348.86 L 191.37,348.6 L 186.46,348.32 L 180.62,347.67 L 174.74,346.99 L 168.84,346.31 L 162.95,345.61 L 157.25,344.58 L 151.51,343.57 L 145.79,342.57 L 140.1,341.6 L 134.53,340.28 L 128.95,338.95 L 123.37,337.61 L 117.79,336.27 L 112.28,334.53 L 106.7,332.79 L 101.11,331.06 L 95.54,329.35 L 90.6,327.42 L 85.64,325.49 L 80.72,323.55 L 75.81,321.6 L 70.91,319.62 L 70.44,320.79 L 75.34,322.77 L 80.25,324.72 L 85.19,326.66 L 90.14,328.59 L 95.13,330.53 L 100.74,332.26 L 106.33,334 L 111.9,335.73 L 117.46,337.48 L 123.07,338.84 L 128.65,340.2 L 134.23,341.55 L 139.83,342.9 L 145.56,343.9 L 151.27,344.92 L 156.99,345.97 L 162.73,347.03 L 168.67,347.75 L 174.57,348.47 L 180.45,349.18 L 186.33,349.86 L 191.29,350.13 L 196.23,350.37 L 201.19,350.61 L 206.2,350.85 L 209.83,350.81 L 213.45,350.76 L 219.43,350.66 L 225.41,350.55 L 231.39,350.46 L 236.46,350.1 L 241.5,349.73 L 246.56,349.3 L 251.61,348.87 L 256.69,348.43 L 260.9,347.83 L 265.1,347.23 L 269.33,346.61 L 274.75,345.57 L 280.15,344.53 L 285.53,343.51 L 290.9,342.51 L 296.28,341.52 L 301.31,340.19 L 306.32,338.89 L 311.36,337.59 L 316.42,336.31 L 321.52,335.02 L 326.19,333.45 L 330.83,331.9 L 335.49,330.37 L 340.14,328.84 L 344.83,327.29 L 349.88,325.08 L 354.9,322.86 L 359.9,320.62 L 364.92,318.33 L 369.59,315.42 L 374.2,312.54 L 378.81,309.67 L 383.43,306.82 L 388.07,303.97 L 392.42,300.85 L 396.78,297.78 L 401.21,294.68 L 404.31,291.78 L 407.37,288.91 L 410.43,285.97 L 414.37,281.56 L 418.3,277.12 L 422.24,272.65 L 424.94,269.04 L 427.64,265.43 L 429.99,261.18 L 432.3,256.98 L 434.62,252.8 L 436.94,248.63 L 438.55,245.46 L 440.1,240.43 L 441.61,235.5 L 443.12,230.61 L 444.65,225.64 L 445.07,220.54 L 445.48,215.5 L 445.89,210.44 L 446.32,205.29 L 445.63,200.25 L 444.96,195.32 L 444.31,190.37 L 443.67,185.33 L 442.21,180.74 L 440.76,176.18 L 438.86,171.31 L 436.92,166.4 L 434.42,162.29 L 431.95,158.27 L 429.44,154.3 L 426.88,150.28 L 423.24,146.28 L 419.66,142.28 L 416.07,138.21 L 412.15,134.92 L 408.28,131.66 L 404.37,128.4 L 401.03,126.07 L 397.69,123.79 L 394.28,121.51 L 390.09,119.45 L 385.92,117.4 L 381.73,115.3 L 377.24,113.32 L 372.84,111.33 L 368.47,109.36 L 364.5,107.84 L 360.52,106.35 L 356.45,104.83 L 352.04,103.54 L 347.67,102.22 L 343.34,100.86 L 339,99.47 L 333.82,98.21 L 328.67,97.02 L 323.54,95.84 L 318.45,94.68 L 313.39,93.52 L 308.6,92.74 L 303.8,91.94 L 298.94,91.13 L 293.97,90.31 L 288.89,89.49 L 283.81,88.95 L 278.74,88.42 L 273.7,87.88 L 268.72,87.31 L 263.78,86.71 L 258.65,86.32 L 253.55,85.97 L 248.46,85.67 L 243.36,85.39 L 238.26,85.12 L 233.14,85.05 L 228.05,84.95 L 222.96,84.8 L 217.88,84.59 L 212.79,84.35 L 207.88,84.36 L 202.96,84.43 L 197.99,84.55 L 192.94,84.69 L 187.85,84.85 L 181.91,85.31 L 176.05,85.79 L 170.22,86.27 L 164.31,86.76 L 158.36,87.5 L 152.47,88.25 L 146.64,88.95 L 140.81,89.57 L 134.93,90.4 L 129.05,91.2 L 123.14,92.02 L 117.14,92.88 L 111.41,94.01 L 105.7,95.16 L 100.09,96.38 L 94.5,97.68 L 89.48,99.17 L 84.49,100.67 L 79.51,102.15 L 74.56,103.65 L 70.18,105.48 L 65.83,107.26 L 61.44,109 L 57,110.71 L 52.47,112.87 L 47.98,115.05 L 43.52,117.26 L 39.04,119.46 L 36.09,121.21 L 33.13,122.94 L 29.77,125.32 L 26.44,127.66 L 23.09,130.04 L 19.36,133.08 L 15.64,136.15 L 13.27,138.58 L 10.92,141 L 7.77,144.69 L 4.64,148.37 L 1.5,152.09 L -0.9,156.28 L -3.17,160.29 L -5.46,164.29 L -7.79,168.33 L -9.13,172.21 L -10.44,176.02 Z" fill="#1a1a1a" stroke="#1a1a1a" stroke-width="0.4" stroke-linejoin="round" />
</g></g>
<g clip-path="url(#clip-0-1)"><g transform="translate(452,0)">  <rect width="430" height="360" fill="#faf9f5" />
  <path d="M 130.46,168.59 L 126,166.97 L 121.5,165.49 L 117.03,163.97 L 112.51,162.6 L 112.07,163.88 L 116.48,165.56 L 120.95,167.12 L 125.46,168.63 L 130.04,169.91 Z" fill="#1a1a1a" stroke="#1a1a1a" stroke-width="0.4" stroke-linejoin="round" />
  <polyline points="112.29,163.24 111.68,162.93" fill="none" stroke="#1a1a1a" stroke-width="1.508" stroke-opacity="0.32" stroke-dasharray="4,3" stroke-linecap="round" stroke-linejoin="round" />
  <path d="M 112.03,162.35 L 110.41,161.39 L 109.72,162.54 L 111.34,163.51 Z" fill="#1a1a1a" stroke="#1a1a1a" stroke-width="0.4" stroke-linejoin="round" />
  <polyline points="110.07,161.96 112.36,163.65 115.93,167.71 117.66,170.69 119.37,173.67 120.58,177.13 121.82,180.61 122.41,184.18 123.03,187.76 122.99,191.08 122.92,194.38 121.59,200.08 119.78,204.15 118.72,205.71 119.16,205.1 123.02,202.43 126.89,199.78 130.85,197.8 134.77,195.82 139.54,193.94 144.24,192.15 148.1,190.98 151.96,189.77 155.84,188.51 160.55,187.38 165.25,186.26 169.94,185.16 175.12,184.37 180.21,183.57 185.21,182.76 190.55,182.28 195.92,181.75 201.32,181.19 206.9,180.99 212.48,180.83 218.07,180.71 223.52,180.98 229,181.25 234.52,181.54 240,182.17 245.56,182.77 251.14,183.32 256.57,184.21 261.94,185.09 267.27,186.01 272.36,187.41 277.43,188.87 282.47,190.37 287.09,192.23 291.64,194.06 295.28,195.87 298.91,197.64 302.59,199.38 305.24,201.13 307.97,202.88 311.18,205.53 309.23,201.12 307.9,196.45 307.52,193.51 307.13,190.58 307.34,187.09 307.57,183.6 308.5,179.11 309.64,176.28 311.24,172.36 312.91,169.8 314.68,166.83 316.35,165.13 319.52,162.01" fill="none" stroke="#1a1a1a" stroke-width="1.308" stroke-opacity="0.32" stroke-dasharray="4,3" stroke-linecap="round" stroke-linejoin="round" />
  <path d="M 319.16,161.44 L 317.52,162.48 L 318.25,163.62 L 319.88,162.57 Z" fill="#1a1a1a" stroke="#1a1a1a" stroke-width="0.4" stroke-linejoin="round" />
  <polyline points="317.88,163.05 316.76,163.63" fill="none" stroke="#1a1a1a" stroke-width="1.506" stroke-opacity="0.32" stroke-dasharray="4,3" stroke-linecap="round" stroke-linejoin="round" />
  <path d="M 316.52,162.97 L 311.74,164.74 L 307.05,166.33 L 303.68,167.33 L 300.32,168.33 L 294.73,169.64 L 289.1,171.02 L 283.92,171.88 L 278.7,172.75 L 273.47,173.62 L 268.25,174.49 L 263.06,175.33 L 257.35,175.77 L 251.6,176.2 L 245.85,176.64 L 240.09,177.07 L 234.35,177.5 L 228.45,177.51 L 222.52,177.5 L 216.61,177.48 L 210.69,177.46 L 204.79,177.43 L 199.1,177.03 L 193.39,176.66 L 187.7,176.31 L 182.03,175.97 L 176.41,175.64 L 171.37,175.01 L 166.32,174.4 L 161.27,173.82 L 156.24,173.25 L 151.24,172.68 L 146.08,171.65 L 140.87,170.61 L 135.63,169.58 L 130.39,168.54 L 130.11,169.95 L 135.35,171 L 140.57,172.08 L 145.77,173.18 L 150.98,174.3 L 156.04,174.93 L 161.07,175.56 L 166.1,176.17 L 171.16,176.78 L 176.26,177.4 L 181.92,177.73 L 187.59,178.08 L 193.28,178.46 L 198.98,178.83 L 204.73,179.17 L 210.68,179.14 L 216.61,179.13 L 222.52,179.13 L 228.45,179.13 L 234.41,179.12 L 240.21,178.73 L 245.98,178.33 L 251.73,177.9 L 257.48,177.45 L 263.26,176.99 L 268.52,176.13 L 273.75,175.26 L 278.98,174.38 L 284.2,173.51 L 289.43,172.62 L 295.11,171.19 L 300.71,169.83 L 304.12,168.78 L 307.51,167.75 L 312.23,166.1 L 317.01,164.3 Z" fill="#1a1a1a" stroke="#1a1a1a" stroke-width="0.4" stroke-linejoin="round" />
  <path d="M 71.23,319.37 L 66.87,316.89 L 62.49,314.4 L 58.1,311.92 L 53.71,309.45 L 48.81,306.16 L 43.88,302.86 L 38.94,299.57 L 35.05,296.68 L 31.16,293.8 L 28.14,291.14 L 25.09,288.45 L 22.09,285.78 L 18.85,282.23 L 15.61,278.65 L 12.38,275.07 L 9.15,271.5 L 5.97,268 L 3.16,263.28 L 0.32,258.51 L -2.52,253.74 L -5.3,249.04 L -6.99,244.2 L -8.69,239.26 L -10.38,234.31 L -12.08,229.39 L -12.98,225.38 L -13.53,220.41 L -14.08,215.39 L -14.64,210.4 L -14.94,206.04 L -14.56,201.79 L -14.17,197.49 L -13.78,193.19 L -13.46,190.08 L -13.15,187.05 L -11.63,182.4 L -10.05,177.68 L -11.35,177.24 L -12.94,181.96 L -14.54,186.71 L -14.93,189.92 L -15.29,193.03 L -15.75,197.33 L -16.21,201.63 L -16.66,206.02 L -16.36,210.56 L -15.78,215.58 L -15.22,220.59 L -14.68,225.65 L -13.75,229.87 L -12.03,234.88 L -10.31,239.82 L -8.56,244.75 L -6.76,249.73 L -3.89,254.56 L -1.04,259.32 L 1.82,264.08 L 4.69,268.93 L 7.96,272.57 L 11.17,276.16 L 14.39,279.75 L 17.64,283.33 L 20.94,286.94 L 24.02,289.66 L 27.07,292.35 L 30.15,295.06 L 34.1,297.97 L 38.02,300.88 L 42.99,304.19 L 47.94,307.47 L 52.91,310.75 L 57.37,313.22 L 61.79,315.66 L 66.18,318.11 L 70.55,320.57 Z" fill="#1a1a1a" stroke="#1a1a1a" stroke-width="0.4" stroke-linejoin="round" />
  <polyline points="-10.7,177.46 -10.22,176.07" fill="none" stroke="#1a1a1a" stroke-width="1.448" stroke-opacity="0.32" stroke-dasharray="4,3" stroke-linecap="round" stroke-linejoin="round" />
  <path d="M -9.62,176.29 L -8.26,172.44 L -6.92,168.69 L -4.59,164.79 L -2.24,160.87 L 0.11,156.97 L 2.54,153.02 L 5.68,149.5 L 8.86,145.92 L 12.02,142.36 L 14.35,140.07 L 16.67,137.78 L 20.34,134.85 L 24.01,131.89 L 27.31,129.52 L 30.61,127.1 L 33.87,124.69 L 36.73,122.96 L 39.59,121.23 L 44,119.05 L 48.48,116.86 L 53.03,114.68 L 57.6,112.51 L 62.07,110.79 L 66.49,109.03 L 70.87,107.25 L 75.19,105.45 L 80.07,103.97 L 85.03,102.45 L 89.96,100.9 L 94.84,99.37 L 100.34,98.05 L 105.95,96.77 L 111.67,95.55 L 117.39,94.38 L 123.37,93.55 L 129.3,92.74 L 135.2,91.92 L 141.06,91.06 L 146.84,90.47 L 152.66,89.82 L 158.53,89.14 L 164.4,88.5 L 170.24,88.14 L 176.07,87.71 L 181.89,87.19 L 187.68,86.63 L 192.6,86.44 L 197.54,86.35 L 202.49,86.3 L 207.45,86.26 L 212.41,86.18 L 217.58,86.3 L 222.79,86.41 L 228.01,86.5 L 233.25,86.58 L 238.46,86.67 L 243.64,86.99 L 248.83,87.3 L 253.98,87.59 L 259.09,87.88 L 264.14,88.17 L 268.89,88.73 L 273.64,89.33 L 278.39,89.95 L 283.19,90.58 L 288,91.17 L 292.88,91.99 L 297.79,92.77 L 302.73,93.51 L 307.7,94.23 L 312.7,94.93 L 318.05,95.97 L 323.46,97.01 L 328.86,98.1 L 334.19,99.27 L 339.41,100.54 L 343.71,101.94 L 348.04,103.3 L 352.37,104.6 L 356.65,105.82 L 360.58,107.26 L 364.55,108.73 L 368.5,110.21 L 372.87,112.14 L 377.28,114.07 L 381.7,116 L 385.74,118.1 L 389.76,120.25 L 393.71,122.41 L 396.94,124.77 L 400.26,127.15 L 403.56,129.48 L 407.49,132.69 L 411.45,135.89 L 415.35,139.07 L 418.85,143.03 L 422.33,147.07 L 425.76,151.08 L 428.12,155.09 L 430.55,159.14 L 432.99,163.18 L 435.42,167.14 L 437.32,171.9 L 439.27,176.69 L 440.79,181.19 L 442.31,185.62 L 443.01,190.51 L 443.72,195.48 L 444.43,200.44 L 445.13,205.33 L 444.73,210.33 L 444.33,215.41 L 443.93,220.49 L 443.54,225.47 L 442.03,230.33 L 440.48,235.3 L 438.9,240.32 L 437.31,245.31 L 435.72,248.33 L 433.33,252.5 L 430.95,256.67 L 428.58,260.82 L 426.23,264.91 L 423.56,268.35 L 420.87,271.81 L 416.93,276.12 L 413,280.43 L 409.12,284.71 L 406.16,287.54 L 403.18,290.38 L 400.25,293.18 L 395.98,296.23 L 391.66,299.32 L 387.35,302.42 L 382.73,305.26 L 378.1,308.11 L 373.47,310.94 L 368.86,313.75 L 364.27,316.54 L 359.33,318.72 L 354.32,320.92 L 349.27,323.12 L 344.25,325.35 L 339.61,326.95 L 334.94,328.58 L 330.27,330.21 L 325.62,331.84 L 321.01,333.48 L 315.95,334.82 L 310.89,336.17 L 305.86,337.5 L 300.85,338.83 L 295.88,340.15 L 290.58,341.12 L 285.24,342.11 L 279.89,343.11 L 274.53,344.11 L 269.17,345.12 L 264.99,345.72 L 260.78,346.33 L 256.6,346.94 L 251.52,347.39 L 246.42,347.84 L 241.32,348.26 L 236.26,348.62 L 231.23,348.99 L 225.3,349.08 L 219.34,349.17 L 213.39,349.24 L 209.79,349.25 L 206.22,349.26 L 201.25,348.96 L 196.25,348.67 L 191.25,348.37 L 186.27,348.08 L 180.35,347.42 L 174.4,346.73 L 168.46,346.04 L 162.54,345.37 L 156.83,344.36 L 151.09,343.36 L 145.35,342.38 L 139.64,341.41 L 134.03,340.11 L 128.41,338.82 L 122.81,337.54 L 117.24,336.27 L 111.78,334.6 L 106.3,332.9 L 100.83,331.18 L 95.39,329.43 L 90.56,327.42 L 85.7,325.39 L 80.84,323.37 L 75.98,321.37 L 71.13,319.39 L 70.66,320.55 L 75.5,322.54 L 80.34,324.56 L 85.19,326.6 L 90.05,328.64 L 94.94,330.67 L 100.43,332.45 L 105.9,334.18 L 111.38,335.89 L 116.89,337.59 L 122.5,338.89 L 128.1,340.18 L 133.72,341.47 L 139.36,342.78 L 145.12,343.74 L 150.86,344.71 L 156.59,345.71 L 162.33,346.75 L 168.29,347.47 L 174.23,348.19 L 180.17,348.9 L 186.13,349.6 L 191.16,349.93 L 196.16,350.26 L 201.15,350.58 L 206.16,350.9 L 209.79,350.9 L 213.4,350.9 L 219.36,350.85 L 225.32,350.8 L 231.3,350.71 L 236.39,350.32 L 241.45,349.91 L 246.56,349.43 L 251.66,348.96 L 256.78,348.5 L 261.01,347.89 L 265.21,347.29 L 269.43,346.69 L 274.82,345.68 L 280.18,344.69 L 285.53,343.7 L 290.87,342.72 L 296.24,341.73 L 301.26,340.38 L 306.26,339.03 L 311.29,337.67 L 316.34,336.3 L 321.45,334.92 L 326.12,333.27 L 330.77,331.64 L 335.43,330 L 340.1,328.38 L 344.8,326.75 L 349.88,324.49 L 354.9,322.25 L 359.91,320.04 L 364.95,317.85 L 369.65,315.07 L 374.3,312.3 L 378.94,309.5 L 383.59,306.66 L 388.26,303.78 L 392.6,300.63 L 396.89,297.49 L 401.2,294.35 L 404.21,291.45 L 407.17,288.59 L 410.16,285.7 L 414.06,281.4 L 418,277.09 L 421.97,272.75 L 424.71,269.25 L 427.46,265.73 L 429.89,261.57 L 432.28,257.44 L 434.67,253.27 L 437.08,249.09 L 438.76,245.89 L 440.41,240.8 L 442.02,235.79 L 443.59,230.82 L 445.16,225.78 L 445.57,220.62 L 445.94,215.54 L 446.32,210.45 L 446.72,205.28 L 446.01,200.21 L 445.31,195.25 L 444.6,190.29 L 443.88,185.25 L 442.32,180.66 L 440.78,176.12 L 438.82,171.3 L 436.87,166.42 L 434.38,162.33 L 431.94,158.3 L 429.52,154.26 L 427.07,150.13 L 423.56,146.01 L 420.05,141.97 L 416.45,137.92 L 412.46,134.66 L 408.51,131.45 L 404.55,128.2 L 401.21,125.81 L 397.91,123.43 L 394.59,121.01 L 390.54,118.8 L 386.5,116.65 L 382.4,114.51 L 377.95,112.56 L 373.54,110.61 L 369.13,108.67 L 365.12,107.19 L 361.14,105.74 L 357.14,104.29 L 352.81,103.06 L 348.51,101.78 L 344.19,100.44 L 339.82,99.04 L 334.54,97.76 L 329.18,96.59 L 323.76,95.5 L 318.34,94.45 L 312.96,93.4 L 307.93,92.68 L 302.97,91.92 L 298.06,91.11 L 293.17,90.29 L 288.25,89.46 L 283.39,88.9 L 278.6,88.33 L 273.85,87.72 L 269.09,87.11 L 264.28,86.52 L 259.19,86.21 L 254.07,85.93 L 248.93,85.64 L 243.74,85.32 L 238.52,85 L 233.27,84.9 L 228.04,84.81 L 222.82,84.72 L 217.62,84.63 L 212.41,84.55 L 207.43,84.66 L 202.47,84.72 L 197.51,84.77 L 192.55,84.87 L 187.57,85.06 L 181.74,85.62 L 175.94,86.12 L 170.14,86.53 L 164.26,86.87 L 158.34,87.51 L 152.47,88.17 L 146.66,88.83 L 140.86,89.45 L 134.97,90.34 L 129.09,91.19 L 123.16,92 L 117.12,92.83 L 111.35,94 L 105.61,95.22 L 99.98,96.53 L 94.43,97.89 L 89.5,99.42 L 84.57,100.96 L 79.62,102.5 L 74.68,104.05 L 70.31,105.92 L 65.96,107.72 L 61.56,109.5 L 57.06,111.26 L 52.45,113.47 L 47.89,115.66 L 43.41,117.84 L 38.95,120.04 L 36.03,121.8 L 33.11,123.58 L 29.82,126.03 L 26.53,128.45 L 23.22,130.85 L 19.53,133.84 L 15.82,136.81 L 13.45,139.15 L 11.09,141.49 L 7.91,145.08 L 4.74,148.66 L 1.53,152.27 L -0.96,156.32 L -3.32,160.21 L -5.68,164.13 L -8.08,168.13 L -9.47,172.01 L -10.83,175.86 Z" fill="#1a1a1a" stroke="#1a1a1a" stroke-width="0.4" stroke-linejoin="round" />
  <path d="M 321.11,161.31 L 326.4,158.72 L 331.67,156.14 L 336.9,153.54 L 340.79,152.27 L 344.72,150.99 L 348.63,149.7 L 353.78,148.6 L 358.96,147.47 L 364.12,146.33 L 369.28,145.18 L 372.59,143.89 L 375.89,142.59 L 379.35,139.88 L 378.91,139.31 L 375.51,141.92 L 372.29,143.11 L 369.05,144.34 L 363.93,145.49 L 358.77,146.63 L 353.6,147.76 L 348.42,148.87 L 344.45,150.17 L 340.52,151.45 L 336.56,152.73 L 331.27,155.33 L 326.02,157.97 L 320.78,160.65 Z" fill="#1a1a1a" stroke="#1a1a1a" stroke-width="0.4" stroke-linejoin="round" />
  <path d="M 52.49,141.41 L 56.34,142.79 L 60.17,144.21 L 64.03,145.64 L 68.18,146.48 L 72.29,147.32 L 76.36,148.17 L 80.66,149.57 L 84.98,150.98 L 89.29,152.38 L 93.57,153.76 L 98.02,155.96 L 102.53,158.11 L 107.05,160.24 L 107.36,159.59 L 102.87,157.4 L 98.4,155.18 L 93.9,152.96 L 89.55,151.56 L 85.24,150.16 L 80.93,148.76 L 76.59,147.34 L 72.47,146.47 L 68.36,145.61 L 64.28,144.76 L 60.48,143.36 L 56.61,142.03 L 52.74,140.72 Z" fill="#1a1a1a" stroke="#1a1a1a" stroke-width="0.4" stroke-linejoin="round" />
</g></g>
<text x="14" y="26" font-family="sans-serif" font-size="14" fill="#999"></text>
<line x1="441" y1="8" x2="441" y2="352" stroke="#ddd" stroke-width="1" />
<text x="215" y="20" text-anchor="middle" font-family="sans-serif" font-size="14" fill="#999">silhouette only</text>
<text x="667" y="20" text-anchor="middle" font-family="sans-serif" font-size="14" fill="#999">+ suggestive contours</text>
</svg>