<svg xmlns="http://www.w3.org/2000/svg" viewBox="0 0 882 360" width="882" height="360">
<defs><clipPath id="clip-0-0" clipPathUnits="userSpaceOnUse"><rect x="0" y="0" width="430" height="360" /></clipPath><clipPath id="clip-0-1" clipPathUnits="userSpaceOnUse"><rect x="452" y="0" width="430" height="360" /></clipPath></defs>
<g clip-path="url(#clip-0-0)"><g transform="translate(0,0)">  <rect width="430" height="360" fill="#faf9f5" />
  <path d="M 130.31,168.97 L 125.69,167.28 L 121.05,165.63 L 116.35,164.03 L 111.72,162.58 L 111.25,163.89 L 115.75,165.73 L 120.45,167.33 L 125.12,168.99 L 129.89,170.29 Z" fill="#1a1a1a" stroke="#1a1a1a" stroke-width="0.4" stroke-linejoin="round" />
  <polyline points="111.48,163.24 115.02,166.74 116.62,169.17 118.25,171.63 119.61,174.69 120.98,177.8 121.81,181.39 122.64,185 122.78,188.64 122.89,192.28 122.36,195.38 121.81,198.51 120.47,201.9 119.2,205.32 123.66,202.32 127.9,198.73 133.42,196.1 138.98,193.61 144.53,191.28 148.52,190.07 152.54,188.84 156.6,187.59 161.06,186.54 165.54,185.5 169.98,184.46 174.99,183.68 179.93,182.94 184.85,182.21 190.06,181.82 195.29,181.44 200.52,181.06 205.59,181 210.65,180.9 215.71,180.76 220.83,180.88 225.96,180.99 231.1,181.14 236.46,181.69 241.75,182.27 247.01,182.84 252.12,183.75 257.25,184.64 262.41,185.52 267,186.68 271.62,187.86 276.23,189.05 280.44,190.55 284.65,192 288.9,193.38 293.29,195.02 297.68,196.65 302.88,199.28 307.66,202.62 310.94,204.89 308.58,199.7 307.96,196.72 307.29,193.77 307.22,190.09 307.12,186.41 307.85,182.71 308.64,179.04 310.04,175.82 311.45,172.59 313.2,169.94 314.94,167.23 318.45,163.35" fill="none" stroke="#1a1a1a" stroke-width="1.293" stroke-opacity="0.32" stroke-dasharray="4,3" stroke-linecap="round" stroke-linejoin="round" />
  <path d="M 318.86,163.94 L 320.02,163.12 L 319.72,161.5 L 318.83,162.03 L 315.28,163.93 L 312.01,164.96 L 308.64,165.99 L 304.46,167.17 L 300.32,168.37 L 296.24,169.34 L 292.17,170.33 L 288.17,171.32 L 283.22,172.21 L 278.25,173.07 L 273.29,173.91 L 267.96,174.54 L 262.58,175.19 L 257.2,175.86 L 251.69,176.27 L 246.18,176.65 L 240.7,177.02 L 234.95,177.15 L 229.2,177.28 L 223.45,177.4 L 218.76,177.31 L 214.04,177.23 L 209.31,177.16 L 204.58,177.09 L 200.02,176.87 L 195.45,176.67 L 190.89,176.48 L 186.37,176.31 L 180.87,175.9 L 175.37,175.48 L 169.88,175.05 L 165.13,174.49 L 160.36,173.93 L 155.59,173.4 L 151.16,172.73 L 146.71,172.07 L 142.28,171.4 L 138.29,170.59 L 134.26,169.78 L 130.24,168.94 L 129.95,170.32 L 133.97,171.17 L 137.98,172.04 L 142,172.92 L 146.46,173.67 L 150.89,174.42 L 155.35,175.17 L 160.15,175.75 L 164.92,176.3 L 169.71,176.85 L 175.24,177.26 L 180.74,177.66 L 186.27,178.07 L 190.82,178.24 L 195.38,178.42 L 199.94,178.61 L 204.53,178.84 L 209.28,178.92 L 214.01,179.01 L 218.73,179.1 L 223.46,179.19 L 229.24,179.03 L 235,178.85 L 240.78,178.68 L 246.29,178.27 L 251.81,177.86 L 257.35,177.45 L 262.77,176.85 L 268.16,176.26 L 273.54,175.65 L 278.54,174.8 L 283.52,173.93 L 288.53,173.05 L 292.59,172.06 L 296.66,171.06 L 300.77,170.05 L 304.93,168.77 L 309.1,167.51 L 312.48,166.42 L 315.87,165.29 L 319.53,163.29 L 320.07,162.9 L 319.12,162 L 318.03,162.76 Z" fill="#1a1a1a" stroke="#1a1a1a" stroke-width="0.4" stroke-linejoin="round" />
  <path d="M 71,319.63 L 65.9,316.73 L 60.79,313.82 L 55.68,310.93 L 51.56,308.3 L 47.43,305.7 L 43.51,302.93 L 39.59,300.17 L 35.68,297.44 L 31.82,294.75 L 27.94,291.33 L 24.02,287.9 L 20.1,284.49 L 16.57,280.58 L 13.02,276.6 L 9.48,272.59 L 6,268.6 L 3.6,264.29 L 1.18,259.92 L -1.24,255.55 L -3.68,251.18 L -6.1,246.83 L -7.57,242.38 L -9.07,237.85 L -10.57,233.34 L -12.06,228.9 L -12.63,224.99 L -13.21,221.01 L -13.79,217.07 L -14.28,211.53 L -14.74,206.04 L -14.22,201.42 L -13.7,196.71 L -13.17,192 L -12.67,187.38 L -11.1,182.81 L -9.52,178.15 L -7.95,173.48 L -6.41,168.89 L -4.18,165.03 L -1.93,161.09 L 0.31,157.14 L 2.51,153.24 L 4.76,150.53 L 7.07,147.78 L 9.77,144.76 L 12.49,141.73 L 15.17,138.74 L 19.19,135.27 L 23.22,131.82 L 26.88,129.21 L 30.57,126.6 L 34.24,124 L 38.43,121.61 L 42.64,119.18 L 46.32,117.35 L 50.03,115.53 L 53.75,113.74 L 57.68,112.13 L 61.64,110.5 L 65.57,108.85 L 70.33,107.03 L 75.06,105.17 L 80.02,103.59 L 85.05,101.99 L 90.67,100.54 L 96.3,99.1 L 101.91,97.7 L 107.58,96.4 L 113.31,95.17 L 118.98,94.35 L 124.59,93.52 L 130.14,92.73 L 135.69,91.96 L 141.2,91.15 L 146.9,90.56 L 152.63,89.88 L 158.42,89.18 L 164.24,88.5 L 170.01,87.85 L 175.73,87.47 L 181.49,87.09 L 187.31,86.74 L 193.17,86.4 L 198.96,86.04 L 204.27,86.03 L 209.53,86.09 L 214.79,86.22 L 220.06,86.35 L 225.35,86.43 L 230.63,86.45 L 236.17,86.72 L 241.74,86.97 L 247.31,87.22 L 252.87,87.48 L 258.42,87.81 L 263.54,88.42 L 268.73,89.01 L 273.99,89.57 L 279.32,90.11 L 284.66,90.66 L 289.94,91.22 L 295.94,92.25 L 301.82,93.27 L 307.59,94.28 L 313.31,95.27 L 319.02,96.26 L 323.95,97.4 L 328.95,98.56 L 333.92,99.74 L 338.27,101.04 L 342.65,102.36 L 347.06,103.67 L 351.47,104.92 L 356.01,106.65 L 360.55,108.34 L 365.02,110.02 L 369.46,111.72 L 373.89,113.45 L 378.22,115.61 L 382.65,117.75 L 387.12,119.85 L 391.54,121.87 L 395.38,124.27 L 399.19,126.71 L 403.16,129.84 L 407.15,133.03 L 411.12,136.24 L 415.06,139.4 L 418.91,143.81 L 422.86,148.24 L 426.77,152.56 L 429.41,156.73 L 432.06,160.98 L 434.65,165.24 L 436.61,169.96 L 438.57,174.69 L 439.78,178.48 L 441,182.29 L 442.21,186 L 442.99,191.79 L 443.81,197.61 L 444.65,203.33 L 444.26,208.75 L 443.86,214.24 L 443.47,219.72 L 443.11,225.08 L 441.72,229.62 L 440.31,234.26 L 438.9,238.93 L 437.49,243.6 L 435.93,246.87 L 434.34,250.19 L 432.07,254.18 L 429.77,258.19 L 427.46,262.19 L 425.18,266.16 L 421.84,270.34 L 418.47,274.58 L 415.14,278.78 L 411.64,282.35 L 408.08,285.91 L 404.49,289.42 L 400.92,292.88 L 397.59,295.46 L 393.2,298.47 L 388.82,301.51 L 384.51,304.57 L 379.91,307.38 L 375.28,310.21 L 370.64,313.04 L 366.02,315.84 L 361.41,318.01 L 356.76,320.19 L 352.09,322.37 L 347.44,324.5 L 342.65,326.11 L 337.81,327.73 L 332.96,329.35 L 328.12,330.97 L 323.28,332.61 L 318.48,334.24 L 313.65,335.54 L 308.83,336.86 L 304.04,338.18 L 299.4,339.2 L 294.74,340.22 L 290.07,341.25 L 285.42,342.27 L 279.59,343.19 L 273.72,344.12 L 267.84,345.05 L 261.97,345.99 L 256.16,346.91 L 251.03,347.28 L 245.86,347.64 L 240.69,347.98 L 235.49,348.33 L 230.28,348.69 L 225.08,349.05 L 219.22,349.14 L 213.34,349.23 L 207.48,349.32 L 202.74,349.12 L 198,348.92 L 193.28,348.71 L 188.59,348.48 L 183.11,347.88 L 177.6,347.25 L 172.07,346.6 L 166.53,345.96 L 160.99,345.34 L 155.48,344.29 L 149.95,343.25 L 144.43,342.23 L 138.92,341.23 L 133.45,340.24 L 128.06,338.77 L 122.64,337.28 L 117.21,335.79 L 111.76,334.29 L 106.29,332.8 L 101.17,331.12 L 96.02,329.46 L 90.91,327.82 L 85.92,325.81 L 80.95,323.78 L 75.93,321.71 L 70.92,319.61 L 70.42,320.8 L 75.44,322.89 L 80.46,324.96 L 85.44,326.99 L 90.47,329.02 L 95.62,330.7 L 100.75,332.38 L 105.91,334.09 L 111.41,335.58 L 116.86,337.07 L 122.29,338.56 L 127.7,340.07 L 133.14,341.57 L 138.67,342.59 L 144.17,343.6 L 149.69,344.63 L 155.21,345.7 L 160.76,346.79 L 166.35,347.46 L 171.9,348.11 L 177.43,348.74 L 182.94,349.35 L 188.47,349.94 L 193.21,350.19 L 197.93,350.41 L 202.68,350.62 L 207.47,350.82 L 213.36,350.74 L 219.24,350.66 L 225.14,350.6 L 230.39,350.26 L 235.6,349.92 L 240.79,349.56 L 245.97,349.2 L 251.14,348.83 L 256.34,348.45 L 262.21,347.5 L 268.08,346.55 L 273.96,345.61 L 279.82,344.67 L 285.69,343.73 L 290.39,342.68 L 295.05,341.64 L 299.71,340.61 L 304.39,339.59 L 309.21,338.27 L 314.04,336.98 L 318.92,335.69 L 323.77,334.05 L 328.61,332.44 L 333.46,330.83 L 338.31,329.23 L 343.15,327.63 L 348.03,325.99 L 352.77,323.84 L 357.45,321.69 L 362.12,319.5 L 366.8,317.28 L 371.47,314.4 L 376.1,311.55 L 380.73,308.73 L 385.39,305.91 L 389.74,302.83 L 394.1,299.78 L 398.51,296.73 L 401.96,294.07 L 405.6,290.56 L 409.19,287.04 L 412.77,283.48 L 416.35,279.85 L 419.75,275.6 L 423.12,271.36 L 426.51,267.07 L 428.82,262.97 L 431.09,258.94 L 433.36,254.91 L 435.63,250.87 L 437.25,247.5 L 438.88,244.12 L 440.32,239.36 L 441.76,234.7 L 443.2,230.07 L 444.66,225.35 L 445.04,219.82 L 445.41,214.35 L 445.78,208.85 L 446.18,203.27 L 445.34,197.39 L 444.52,191.58 L 443.71,185.68 L 442.47,181.82 L 441.25,178.01 L 440.02,174.15 L 438.03,169.37 L 436,164.55 L 433.35,160.19 L 430.7,155.92 L 427.99,151.62 L 424.02,147.2 L 420.09,142.78 L 416.16,138.27 L 412.12,135 L 408.14,131.79 L 404.15,128.6 L 400.1,125.43 L 396.23,122.94 L 392.3,120.46 L 387.82,118.36 L 383.36,116.26 L 378.94,114.14 L 374.54,111.98 L 370.03,110.24 L 365.59,108.52 L 361.13,106.8 L 356.61,105.07 L 352,103.31 L 347.53,102.04 L 343.14,100.74 L 338.75,99.42 L 334.36,98.12 L 329.33,96.94 L 324.33,95.79 L 319.35,94.63 L 313.59,93.63 L 307.87,92.65 L 302.11,91.64 L 296.22,90.62 L 290.16,89.6 L 284.82,89.08 L 279.47,88.57 L 274.15,88.05 L 268.9,87.5 L 263.71,86.93 L 258.55,86.32 L 252.96,85.98 L 247.38,85.68 L 241.81,85.42 L 236.24,85.16 L 230.67,84.87 L 225.37,84.84 L 220.09,84.75 L 214.83,84.61 L 209.56,84.49 L 204.28,84.42 L 198.92,84.39 L 193.07,84.7 L 187.2,85.04 L 181.38,85.41 L 175.62,85.8 L 169.85,86.2 L 164.05,86.9 L 158.23,87.63 L 152.45,88.35 L 146.73,89.01 L 141.01,89.6 L 135.47,90.44 L 129.93,91.24 L 124.37,92.03 L 118.76,92.85 L 113.05,93.67 L 107.25,94.91 L 101.56,96.21 L 95.92,97.59 L 90.28,98.98 L 84.6,100.39 L 79.51,101.98 L 74.49,103.59 L 69.73,105.49 L 64.97,107.35 L 61.02,109.03 L 57.07,110.65 L 53.09,112.27 L 49.33,114.08 L 45.6,115.9 L 41.86,117.74 L 37.61,120.18 L 33.34,122.59 L 29.6,125.23 L 25.9,127.84 L 22.17,130.49 L 18.08,133.99 L 14.01,137.53 L 11.25,140.63 L 8.54,143.67 L 5.83,146.72 L 3.51,149.49 L 1.16,152.33 L -1.09,156.34 L -3.33,160.29 L -5.6,164.22 L -7.92,168.22 L -9.53,172.95 L -11.11,177.61 L -12.69,182.27 L -14.3,187.01 L -14.83,191.82 L -15.33,196.53 L -15.82,201.24 L -16.33,206.03 L -15.83,211.67 L -15.33,217.25 L -14.73,221.24 L -14.13,225.21 L -13.52,229.27 L -11.99,233.81 L -10.48,238.32 L -8.98,242.84 L -7.46,247.43 L -4.97,251.9 L -2.52,256.26 L -0.06,260.61 L 2.39,264.97 L 4.89,269.39 L 8.48,273.47 L 12.04,277.47 L 15.6,281.45 L 19.17,285.42 L 23.13,288.91 L 27.05,292.34 L 30.99,295.8 L 34.93,298.53 L 38.83,301.25 L 42.75,304.01 L 46.69,306.81 L 50.84,309.44 L 54.99,312.08 L 60.13,314.98 L 65.24,317.89 L 70.34,320.78 Z" fill="#1a1a1a" stroke="#1a1a1a" stroke-width="0.4" stroke-linejoin="round" />
</g></g>
<g clip-path="url(#clip-0-1)"><g transform="translate(452,0)">  <rect width="430" height="360" fill="#faf9f5" />
  <path d="M 130.47,168.6 L 125.95,166.91 L 121.37,165.32 L 116.85,163.9 L 112.28,162.6 L 111.88,163.86 L 116.35,165.47 L 120.83,166.92 L 125.4,168.53 L 130.04,169.89 Z" fill="#1a1a1a" stroke="#1a1a1a" stroke-width="0.4" stroke-linejoin="round" />
  <polyline points="112.08,163.23 115.48,166.94 117.02,169.48 118.55,172.03 119.79,175.15 121.05,178.27 121.82,181.84 122.63,185.45 122.77,189.09 122.89,192.72 122.34,195.78 121.77,198.82 120.36,201.94 119.05,205.05 123.87,201.76 128.75,198.68 134.41,196.27 139.93,193.94 145.34,191.74 149.27,190.59 153.21,189.39 157.18,188.14 161.55,187.11 165.93,186.09 170.28,185.1 175.23,184.34 180.1,183.57 184.88,182.8 189.94,182.33 195.03,181.82 200.15,181.28 205.16,181.07 210.17,180.87 215.18,180.71 220.25,180.89 225.34,181.07 230.45,181.25 235.83,181.79 241.29,182.31 246.81,182.8 252.23,183.6 257.61,184.37 262.94,185.14 267.63,186.21 272.3,187.35 276.96,188.53 281.23,190.08 285.47,191.65 289.66,193.18 293.83,195.07 297.94,196.91 302.87,199.54 307.64,202.62 310.92,204.9 308.61,199.62 307.96,196.63 307.27,193.69 307.2,190.02 307.13,186.34 307.85,182.61 308.6,178.88 309.94,175.61 311.26,172.34 312.9,169.67 314.53,166.97 317.87,163.15" fill="none" stroke="#1a1a1a" stroke-width="1.293" stroke-opacity="0.32" stroke-dasharray="4,3" stroke-linecap="round" stroke-linejoin="round" />
  <path d="M 318.27,163.73 L 319.43,162.93 L 319.1,161.35 L 318.21,161.89 L 314.84,163.85 L 311.79,164.91 L 308.7,165.92 L 304.77,167.06 L 300.83,168.2 L 296.84,169.13 L 292.79,170.1 L 288.75,171.09 L 283.71,172.02 L 278.64,172.97 L 273.58,173.9 L 268.19,174.6 L 262.77,175.29 L 257.38,175.96 L 251.87,176.39 L 246.33,176.83 L 240.8,177.27 L 234.98,177.46 L 229.14,177.62 L 223.31,177.77 L 218.59,177.69 L 213.84,177.59 L 209.09,177.49 L 204.35,177.39 L 199.78,177.14 L 195.19,176.89 L 190.61,176.65 L 186.07,176.41 L 180.54,175.9 L 175.03,175.41 L 169.55,174.96 L 164.84,174.39 L 160.12,173.83 L 155.42,173.27 L 151.07,172.56 L 146.69,171.84 L 142.31,171.13 L 138.36,170.27 L 134.39,169.41 L 130.4,168.55 L 130.1,169.94 L 134.08,170.81 L 138.05,171.7 L 142.03,172.61 L 146.43,173.38 L 150.8,174.15 L 155.18,174.92 L 159.91,175.52 L 164.63,176.11 L 169.37,176.7 L 174.88,177.17 L 180.39,177.64 L 185.94,178.14 L 190.52,178.4 L 195.1,178.66 L 199.68,178.92 L 204.29,179.16 L 209.06,179.22 L 213.81,179.27 L 218.56,179.33 L 223.33,179.4 L 229.18,179.23 L 235.03,179.05 L 240.89,178.88 L 246.45,178.48 L 252,178.07 L 257.55,177.63 L 262.98,176.94 L 268.4,176.24 L 273.84,175.53 L 278.94,174.58 L 284.01,173.63 L 289.09,172.69 L 293.18,171.66 L 297.21,170.67 L 301.23,169.71 L 305.2,168.53 L 309.15,167.35 L 312.27,166.3 L 315.46,165.15 L 318.94,163.1 L 319.49,162.7 L 318.55,161.83 L 317.47,162.57 Z" fill="#1a1a1a" stroke="#1a1a1a" stroke-width="0.4" stroke-linejoin="round" />
  <path d="M 71.21,319.4 L 66.17,316.56 L 61.11,313.72 L 56.03,310.89 L 51.92,308.31 L 47.79,305.72 L 43.83,302.94 L 39.86,300.14 L 35.87,297.35 L 31.9,294.59 L 27.91,291.07 L 23.91,287.53 L 19.95,284 L 16.43,280.02 L 12.89,276.02 L 9.37,272.02 L 5.87,268.08 L 3.41,263.82 L 0.9,259.5 L -1.61,255.2 L -4.1,250.9 L -6.53,246.63 L -7.96,242.25 L -9.41,237.78 L -10.86,233.3 L -12.3,228.88 L -12.85,224.96 L -13.43,220.98 L -14,217.02 L -14.5,211.45 L -15.02,205.94 L -14.56,201.32 L -14.09,196.63 L -13.61,191.93 L -13.14,187.31 L -11.58,182.7 L -9.97,178 L -8.33,173.29 L -6.72,168.7 L -4.42,164.9 L -2.1,161.04 L 0.22,157.21 L 2.49,153.43 L 4.8,150.81 L 7.15,148.12 L 9.87,145.17 L 12.61,142.22 L 15.3,139.31 L 19.3,135.96 L 23.31,132.58 L 26.96,129.96 L 30.62,127.28 L 34.24,124.62 L 38.38,122.2 L 42.54,119.79 L 46.22,117.99 L 49.97,116.16 L 53.75,114.34 L 57.75,112.67 L 61.76,110.99 L 65.7,109.29 L 70.46,107.44 L 75.19,105.56 L 80.15,103.93 L 85.15,102.29 L 90.7,100.8 L 96.25,99.33 L 101.83,97.91 L 107.54,96.54 L 113.3,95.22 L 118.98,94.35 L 124.61,93.51 L 130.18,92.69 L 135.73,91.87 L 141.24,91.01 L 146.91,90.45 L 152.62,89.84 L 158.38,89.23 L 164.17,88.64 L 169.9,88.08 L 175.62,87.76 L 181.35,87.36 L 187.07,86.91 L 192.78,86.52 L 198.46,86.24 L 203.78,86.32 L 209.13,86.39 L 214.5,86.41 L 219.89,86.41 L 225.29,86.4 L 230.69,86.37 L 236.37,86.65 L 242.07,86.94 L 247.75,87.25 L 253.4,87.52 L 258.98,87.78 L 264.04,88.31 L 269.06,88.89 L 274.07,89.51 L 279.08,90.13 L 284.14,90.73 L 289.22,91.31 L 295.08,92.33 L 300.97,93.32 L 306.91,94.26 L 312.94,95.16 L 319.02,96 L 324.26,97.03 L 329.51,98.12 L 334.67,99.29 L 339.1,100.61 L 343.51,101.92 L 347.92,103.2 L 352.29,104.39 L 356.72,106.04 L 361.19,107.68 L 365.66,109.33 L 370.15,111.01 L 374.62,112.7 L 378.94,114.79 L 383.3,116.91 L 387.63,119.06 L 391.88,121.23 L 395.6,123.8 L 399.37,126.39 L 403.37,129.61 L 407.41,132.81 L 411.45,135.99 L 415.43,139.14 L 419.23,143.55 L 423.03,148.04 L 426.78,152.49 L 429.32,156.76 L 431.93,161.08 L 434.53,165.32 L 436.55,169.98 L 438.6,174.66 L 439.89,178.43 L 441.18,182.22 L 442.45,185.93 L 443.31,191.72 L 444.19,197.56 L 445.07,203.32 L 444.7,208.76 L 444.34,214.28 L 443.99,219.8 L 443.63,225.22 L 442.19,229.81 L 440.71,234.51 L 439.21,239.25 L 437.7,243.98 L 436.05,247.27 L 434.38,250.61 L 432.05,254.6 L 429.71,258.58 L 427.37,262.54 L 425.06,266.45 L 421.68,270.52 L 418.27,274.64 L 414.91,278.71 L 411.38,282.17 L 407.84,285.64 L 404.32,289.09 L 400.84,292.52 L 397.59,295.1 L 393.29,298.16 L 388.95,301.24 L 384.62,304.3 L 379.99,307.1 L 375.34,309.89 L 370.69,312.66 L 366.08,315.4 L 361.47,317.51 L 356.8,319.64 L 352.11,321.79 L 347.43,323.95 L 342.61,325.63 L 337.75,327.34 L 332.89,329.05 L 328.03,330.76 L 323.18,332.46 L 318.37,334.16 L 313.54,335.5 L 308.72,336.85 L 303.94,338.19 L 299.3,339.22 L 294.66,340.24 L 290.01,341.26 L 285.38,342.28 L 279.6,343.19 L 273.77,344.1 L 267.93,345.03 L 262.08,345.99 L 256.25,346.97 L 251.07,347.38 L 245.86,347.77 L 240.64,348.16 L 235.42,348.53 L 230.19,348.88 L 224.99,349.21 L 219.15,349.24 L 213.3,349.26 L 207.47,349.28 L 202.73,349.02 L 197.96,348.75 L 193.19,348.49 L 188.43,348.23 L 182.87,347.62 L 177.29,346.98 L 171.71,346.34 L 166.13,345.71 L 160.58,345.09 L 155.07,344.07 L 149.52,343.06 L 143.98,342.06 L 138.44,341.09 L 132.93,340.13 L 127.5,338.7 L 122.07,337.28 L 116.65,335.85 L 111.25,334.42 L 105.88,332.97 L 100.87,331.3 L 95.85,329.58 L 90.85,327.85 L 85.96,325.73 L 81.06,323.61 L 76.1,321.48 L 71.14,319.38 L 70.64,320.55 L 75.59,322.66 L 80.55,324.79 L 85.45,326.92 L 90.37,329.06 L 95.42,330.81 L 100.45,332.53 L 105.5,334.22 L 110.91,335.69 L 116.31,337.14 L 121.72,338.58 L 127.16,340.01 L 132.64,341.45 L 138.2,342.43 L 143.74,343.42 L 149.27,344.43 L 154.81,345.46 L 160.36,346.52 L 165.96,347.17 L 171.54,347.82 L 177.12,348.47 L 182.7,349.1 L 188.3,349.73 L 193.1,350.02 L 197.87,350.31 L 202.64,350.59 L 207.43,350.88 L 213.31,350.87 L 219.16,350.84 L 225.05,350.77 L 230.3,350.39 L 235.52,350.02 L 240.74,349.66 L 245.97,349.29 L 251.18,348.93 L 256.44,348.56 L 262.34,347.64 L 268.2,346.72 L 274.04,345.78 L 279.86,344.85 L 285.69,343.93 L 290.37,342.91 L 295.02,341.89 L 299.67,340.87 L 304.35,339.83 L 309.17,338.47 L 313.99,337.09 L 318.87,335.71 L 323.71,333.95 L 328.55,332.21 L 333.39,330.49 L 338.25,328.79 L 343.12,327.1 L 348.02,325.41 L 352.77,323.24 L 357.47,321.11 L 362.14,318.99 L 366.85,316.87 L 371.55,314.11 L 376.21,311.36 L 380.87,308.57 L 385.56,305.74 L 389.95,302.64 L 394.29,299.58 L 398.64,296.51 L 402.01,293.82 L 405.53,290.31 L 409.01,286.82 L 412.51,283.31 L 416.08,279.78 L 419.5,275.65 L 422.91,271.55 L 426.37,267.39 L 428.76,263.37 L 431.11,259.41 L 433.45,255.42 L 435.82,251.4 L 437.52,248.01 L 439.23,244.58 L 440.77,239.75 L 442.25,235 L 443.71,230.29 L 445.17,225.49 L 445.52,219.9 L 445.87,214.38 L 446.23,208.86 L 446.6,203.25 L 445.71,197.33 L 444.83,191.5 L 443.92,185.6 L 442.59,181.74 L 441.27,177.96 L 439.96,174.12 L 437.94,169.38 L 435.93,164.6 L 433.31,160.24 L 430.73,155.92 L 428.13,151.52 L 424.3,146.96 L 420.46,142.49 L 416.51,138.01 L 412.39,134.79 L 408.32,131.64 L 404.28,128.47 L 400.24,125.22 L 396.43,122.6 L 392.62,119.97 L 388.29,117.74 L 383.95,115.58 L 379.6,113.43 L 375.23,111.28 L 370.7,109.55 L 366.21,107.86 L 361.74,106.2 L 357.28,104.55 L 352.79,102.85 L 348.37,101.62 L 343.98,100.33 L 339.57,99 L 335.08,97.68 L 329.85,96.52 L 324.58,95.45 L 319.29,94.41 L 313.17,93.55 L 307.16,92.66 L 301.23,91.71 L 295.35,90.72 L 289.46,89.69 L 284.33,89.11 L 279.28,88.5 L 274.27,87.88 L 269.26,87.26 L 264.21,86.67 L 259.11,86.14 L 253.48,85.89 L 247.84,85.63 L 242.15,85.34 L 236.46,85.04 L 230.73,84.73 L 225.29,84.73 L 219.88,84.73 L 214.5,84.74 L 209.14,84.73 L 203.8,84.66 L 198.43,84.56 L 192.68,84.84 L 186.94,85.25 L 181.22,85.72 L 175.51,86.14 L 169.78,86.47 L 164.01,87.06 L 158.22,87.66 L 152.45,88.29 L 146.75,88.9 L 141.04,89.46 L 135.5,90.32 L 129.95,91.14 L 124.38,91.91 L 118.73,92.69 L 112.97,93.51 L 107.13,94.84 L 101.42,96.26 L 95.83,97.73 L 90.27,99.21 L 84.68,100.69 L 79.62,102.33 L 74.61,103.97 L 69.84,105.87 L 65.07,107.73 L 61.1,109.43 L 57.1,111.1 L 53.05,112.77 L 49.22,114.61 L 45.46,116.44 L 41.74,118.3 L 37.54,120.77 L 33.34,123.26 L 29.67,125.98 L 26.02,128.66 L 22.32,131.32 L 18.28,134.74 L 14.21,138.14 L 11.44,141.13 L 8.69,144.07 L 5.93,147.02 L 3.56,149.72 L 1.14,152.47 L -1.2,156.35 L -3.53,160.18 L -5.86,164.03 L -8.23,168 L -9.88,172.76 L -11.49,177.48 L -13.08,182.2 L -14.66,186.98 L -15.16,191.78 L -15.63,196.47 L -16.11,201.16 L -16.59,205.95 L -16.04,211.59 L -15.51,217.19 L -14.93,221.19 L -14.36,225.17 L -13.78,229.23 L -12.3,233.77 L -10.83,238.25 L -9.35,242.71 L -7.82,247.22 L -5.3,251.59 L -2.79,255.89 L -0.26,260.18 L 2.26,264.49 L 4.8,268.86 L 8.36,272.91 L 11.88,276.91 L 15.42,280.91 L 19.01,284.94 L 23.04,288.51 L 27.05,292.05 L 31.1,295.61 L 35.13,298.41 L 39.12,301.19 L 43.1,303.98 L 47.08,306.78 L 51.24,309.38 L 55.38,311.99 L 60.48,314.85 L 65.53,317.69 L 70.57,320.53 Z" fill="#1a1a1a" stroke="#1a1a1a" stroke-width="0.4" stroke-linejoin="round" />
  <path d="M 321.11,161.31 L 326.4,158.72 L 331.67,156.14 L 336.9,153.54 L 340.79,152.27 L 344.72,150.99 L 348.63,149.7 L 353.78,148.6 L 358.96,147.47 L 364.12,146.33 L 369.28,145.18 L 372.59,143.89 L 375.89,142.59 L 379.35,139.88 L 378.91,139.31 L 375.51,141.92 L 372.29,143.11 L 369.05,144.34 L 363.93,145.49 L 358.77,146.63 L 353.6,147.76 L 348.42,148.87 L 344.45,150.17 L 340.52,151.45 L 336.56,152.73 L 331.27,155.33 L 326.02,157.97 L 320.78,160.65 Z" fill="#1a1a1a" stroke="#1a1a1a" stroke-width="0.4" stroke-linejoin="round" />
  <path d="M 52.49,141.41 L 56.34,142.79 L 60.17,144.21 L 64.03,145.64 L 68.18,146.48 L 72.29,147.32 L 76.36,148.17 L 80.66,149.57 L 84.98,150.98 L 89.29,152.38 L 93.57,153.76 L 98.02,155.96 L 102.53,158.11 L 107.05,160.24 L 107.36,159.59 L 102.87,157.4 L 98.4,155.18 L 93.9,152.96 L 89.55,151.56 L 85.24,150.16 L 80.93,148.76 L 76.59,147.34 L 72.47,146.47 L 68.36,145.61 L 64.28,144.76 L 60.48,143.36 L 56.61,142.03 L 52.74,140.72 Z" fill="#1a1a1a" stroke="#1a1a1a" stroke-width="0.4" stroke-linejoin="round" />
</g></g>
<text x="14" y="26" font-family="sans-serif" font-size="14" fill="#999"></text>
<line x1="441" y1="8" x2="441" y2="352" stroke="#ddd" stroke-width="1" />
<text x="215" y="20" text-anchor="middle" font-family="sans-serif" font-size="14" fill="#999">silhouette only</text>
<text x="667" y="20" text-anchor="middle" font-family="sans-serif" font-size="14" fill="#999">+ suggestive contours</text>
</svg>