<svg xmlns="http://www.w3.org/2000/svg" viewBox="0 0 882 360" width="882" height="360">
<defs><clipPath id="clip-0-0" clipPathUnits="userSpaceOnUse"><rect x="0" y="0" width="430" height="360" /></clipPath><clipPath id="clip-0-1" clipPathUnits="userSpaceOnUse"><rect x="452" y="0" width="430" height="360" /></clipPath></defs>
<g clip-path="url(#clip-0-0)"><g transform="translate(0,0)">  <rect width="430" height="360" fill="#faf9f5" />
  <path d="M 129.16,168.01 L 126.28,166.88 L 123.33,165.94 L 122.77,165.8 L 122.74,165.79 L 117.42,164.15 L 116.45,163.9 L 113.66,162.92 L 112.73,162.62 L 112.26,163.91 L 113.12,164.27 L 115.85,165.53 L 116.91,165.82 L 122.21,167.48 L 122.35,167.51 L 122.81,167.63 L 125.74,168.56 L 128.73,169.33 Z" fill="#1a1a1a" stroke="#1a1a1a" stroke-width="0.4" stroke-linejoin="round" />
  <polyline points="112.5,163.26 112.11,163.12 111.89,162.99" fill="none" stroke="#1a1a1a" stroke-width="1.507" stroke-opacity="0.32" stroke-dasharray="4,3" stroke-linecap="round" stroke-linejoin="round" />
  <path d="M 112.24,162.41 L 111.75,161.9 L 111.23,161.43 L 110.45,161.24 L 110.46,161.31 L 110.28,161.44 L 110.04,162.77 L 110.46,163.01 L 110.5,162.96 L 110.3,162.87 L 110.72,163.28 L 111.54,163.57 Z" fill="#1a1a1a" stroke="#1a1a1a" stroke-width="0.4" stroke-linejoin="round" />
  <polyline points="110.16,162.1 110.16,162.1 110.8,162.66 111.03,162.7 111.93,163.21 112.36,163.9 113.03,164.77 113.94,165.64 115.44,167.18 115.83,168.05 116.36,169.11 117.52,170.88 118.88,172.99 119.26,174.23 119.76,175.76 120.64,177.8 121.49,179.79 121.74,181.61 122.04,183.8 122.41,185.45 122.74,186.93 122.63,189.3 122.52,191.87 122.57,192.96 122.63,193.93 122.06,196.36 121.53,198.52 121.44,199.28 121.36,199.96 120.51,201.69 119.95,202.79 119.76,203.47 119.66,204.07 119.12,204.73 118.92,204.91 118.74,205.41 118.89,205.63 118.87,205.63 118.87,205.62 119.03,205.41 119.5,204.93 119.98,204.68 121.67,203.54 121.78,203.49 122.23,203.24 123.96,201.92 124.78,201.32 126.77,200.14 128.77,198.97 130.28,198.26 133.64,196.63 134.5,196.28 139.31,194.25 139.42,194.21 140.16,193.95 144.78,192.09 145.64,191.75 150.71,190.08 152.53,189.5 157.14,188.24 159.85,187.5 164.06,186.56 167.61,185.77 171.43,185.09 175.66,184.32 179.05,183.82 183.78,183.07 186.86,182.68 192.12,181.99 195.04,181.71 200.73,181.21 203.5,181.07 209.34,180.81 212.01,180.8 214.97,180.8 217.94,180.8 220.67,180.89 226.68,181.11 229.55,181.31 235.36,181.75 238.4,182.1 243.84,182.73 247.2,183.25 252.25,183.99 256.13,184.68 260.66,185.47 265.12,186.42 268.82,187.21 273.81,188.51 276.41,189.18 281.86,190.89 283.29,191.33 286.32,192.46 289.34,193.54 289.51,193.6 290.18,193.88 295.2,195.64 296.18,196.03 300.22,197.77 302.28,198.94 304.37,200.16 307.37,202.39 307.53,202.5 307.71,202.68 309.99,204.1 310.73,204.79 311.13,205.2 311.07,205.4 311.17,205.19 310.13,204.17 310.03,203.65 308.34,199.91 308.33,199.85 307.68,196.83 307.08,193.84 307.09,193.69 307.11,190.31 307.16,186.97 307.45,185.95 308.01,182.92 308.52,179.87 309.46,177.76 311.06,173.01 312.72,170.56 314.61,167.09 316.35,165.49 318.47,162.99 319.11,162.71 319.4,162.56 320.27,162.06" fill="none" stroke="#1a1a1a" stroke-width="1.29" stroke-opacity="0.32" stroke-dasharray="4,3" stroke-linecap="round" stroke-linejoin="round" />
  <path d="M 320.2,161.38 L 319.29,161.42 L 318.55,162.28 L 318.44,162.51 L 319.07,163.71 L 319.74,163.53 L 320.32,162.8 L 320.34,162.74 Z" fill="#1a1a1a" stroke="#1a1a1a" stroke-width="0.4" stroke-linejoin="round" />
  <polyline points="318.76,163.11 317.62,163.69" fill="none" stroke="#1a1a1a" stroke-width="1.506" stroke-opacity="0.32" stroke-dasharray="4,3" stroke-linecap="round" stroke-linejoin="round" />
  <path d="M 317.3,163.05 L 315.41,164 L 310.25,165.71 L 309.67,165.89 L 307.13,166.53 L 301.89,168.23 L 300.17,168.65 L 296.25,169.61 L 292.35,170.56 L 288.11,171.35 L 284.61,172.01 L 281.12,172.67 L 277.89,173.14 L 274.63,173.61 L 271.54,174.05 L 268.46,174.49 L 264.26,174.94 L 260.05,175.38 L 254.6,175.94 L 249.71,176.26 L 244.81,176.59 L 239.96,176.9 L 234.63,177.08 L 229.3,177.26 L 224.8,177.42 L 219.29,177.46 L 213.75,177.51 L 209.34,177.54 L 203.9,177.4 L 198.44,177.28 L 193.94,177.2 L 188.87,176.95 L 183.81,176.69 L 179.07,176.44 L 174.64,176.03 L 170.21,175.61 L 165.1,175.11 L 161.46,174.59 L 157.81,174.06 L 152.25,173.25 L 146.73,172.18 L 143.72,171.59 L 140.73,171 L 137.13,170.1 L 133.97,169.31 L 130.82,168.51 L 129.15,168 L 128.73,169.35 L 130.44,169.88 L 133.61,170.7 L 136.77,171.52 L 140.39,172.46 L 143.42,173.09 L 146.42,173.72 L 151.97,174.86 L 157.56,175.73 L 161.22,176.27 L 164.9,176.8 L 170.04,177.32 L 174.48,177.75 L 178.94,178.17 L 183.72,178.43 L 188.78,178.71 L 193.87,179 L 198.4,179.09 L 203.86,179.2 L 209.33,179.29 L 213.76,179.24 L 219.3,179.2 L 224.83,179.16 L 229.36,178.99 L 234.69,178.79 L 240.04,178.59 L 244.92,178.25 L 249.82,177.92 L 254.75,177.57 L 260.21,177 L 264.43,176.57 L 268.65,176.15 L 271.77,175.73 L 274.87,175.31 L 278.13,174.86 L 281.41,174.4 L 284.93,173.74 L 288.44,173.06 L 292.71,172.22 L 296.65,171.21 L 300.56,170.19 L 302.36,169.73 L 307.58,167.98 L 310.06,167.33 L 310.72,167.12 L 315.93,165.35 L 317.94,164.33 Z" fill="#1a1a1a" stroke="#1a1a1a" stroke-width="0.4" stroke-linejoin="round" />
  <path d="M 51.66,310.24 L 56.45,312.93 L 61.07,315.48 L 65.68,318.02 L 70.29,320.54 L 70.41,320.6 L 70.69,320.72 L 75.89,322.8 L 81.09,324.86 L 86.28,326.91 L 90.59,328.61 L 94.88,329.96 L 99.16,331.32 L 103.44,332.7 L 107.67,334.13 L 111.93,335.6 L 116.95,336.97 L 121.95,338.36 L 126.04,339.48 L 130.13,340.6 L 134.25,341.71 L 138.07,342.45 L 141.87,343.16 L 147.09,344.1 L 152.32,345.03 L 157.57,345.95 L 163.27,346.6 L 167.85,347.11 L 172.43,347.62 L 177.02,348.14 L 181.63,348.68 L 186.03,348.94 L 191.05,349.24 L 196.05,349.55 L 201.04,349.87 L 206.04,350.19 L 209.81,350.2 L 214.93,350.2 L 220.05,350.2 L 225.18,350.18 L 230.34,350.14 L 234.41,349.83 L 239.46,349.44 L 244.52,349.06 L 249.58,348.68 L 254.66,348.33 L 260.01,347.62 L 264.61,347.01 L 269.21,346.39 L 273.8,345.78 L 278.43,345.16 L 282.3,344.38 L 286.15,343.6 L 291.3,342.55 L 296.46,341.51 L 301.66,340.47 L 307.33,338.95 L 312.95,337.42 L 318.37,335.94 L 323.79,334.46 L 329.07,332.6 L 334.31,330.75 L 339.56,328.88 L 344.65,327.07 L 349.44,324.97 L 354.22,322.89 L 359,320.8 L 361.7,319.48 L 364.41,318.16 L 367.14,316.52 L 370.96,314.24 L 374.79,311.97 L 378.63,309.72 L 382.53,307.46 L 387.41,304.05 L 392.31,300.65 L 397.22,297.24 L 399.73,295.51 L 402.42,293.28 L 406.64,289.24 L 410.84,285.21 L 415.04,281.13 L 418.4,277.13 L 421.72,273.13 L 425.04,269.1 L 428.15,264.55 L 430.61,260.1 L 433.08,255.72 L 435.55,251.36 L 438.03,247 L 438.51,245.86 L 440.04,240.94 L 441.54,236.02 L 443.02,231.1 L 444.5,226.15 L 444.67,225.17 L 445.02,220.38 L 445.38,215.55 L 445.74,210.7 L 446.14,205.83 L 446.03,203.11 L 445.32,197.69 L 444.62,192.33 L 443.95,186.93 L 442.83,182.43 L 441.34,177.98 L 439.86,173.54 L 438.34,169.03 L 435.98,164.13 L 433.6,160.16 L 431.21,156.27 L 428.77,152.37 L 426.48,149.47 L 422.84,145.48 L 419.23,141.42 L 416.05,137.81 L 414.68,136.48 L 411.48,133.89 L 408.29,131.36 L 405.07,128.83 L 400.11,125.5 L 395.19,122.2 L 394.45,121.7 L 393.48,121.14 L 388.62,118.65 L 383.79,116.14 L 379.33,114.05 L 376.4,112.66 L 373.43,111.26 L 369.34,109.58 L 365.22,107.91 L 362.89,106.95 L 358.52,105.38 L 354.16,103.78 L 352.22,103.13 L 351.82,103.01 L 346.63,101.49 L 341.48,99.96 L 339.4,99.41 L 335.12,98.28 L 330.85,97.15 L 327.44,96.37 L 323.85,95.56 L 320.25,94.77 L 315.72,93.91 L 312.66,93.33 L 309.56,92.74 L 304.03,91.87 L 298.63,91.03 L 295.43,90.61 L 292.26,90.17 L 287.64,89.47 L 284.17,89 L 280.69,88.5 L 276.59,87.89 L 272.77,87.42 L 268.92,86.95 L 265.19,86.53 L 261.11,86.21 L 257.05,85.93 L 253.7,85.71 L 249.53,85.5 L 245.4,85.27 L 242.39,85.1 L 238.19,84.94 L 233.98,84.82 L 231.12,84.76 L 226.79,84.74 L 222.43,84.71 L 219.6,84.67 L 215.21,84.67 L 210.83,84.64 L 208.02,84.63 L 203.71,84.7 L 199.41,84.79 L 196.57,84.85 L 192.4,85.01 L 188.23,85.17 L 185.24,85.27 L 181.11,85.49 L 176.96,85.71 L 173.69,85.89 L 169.74,86.21 L 165.82,86.55 L 162.32,86.88 L 158.66,87.34 L 155.02,87.8 L 151.19,88.29 L 147.81,88.79 L 144.43,89.27 L 140.11,89.85 L 137.01,90.31 L 133.91,90.76 L 128.98,91.48 L 123.5,92.42 L 117.96,93.41 L 113.42,94.34 L 110.32,94.97 L 107.2,95.6 L 103.61,96.4 L 100.03,97.2 L 96.38,98 L 93.79,98.67 L 89.58,99.76 L 85.34,100.86 L 83.99,101.25 L 79.58,102.52 L 75.24,103.76 L 74.63,103.95 L 74.5,103.99 L 70.23,105.51 L 65.95,107.06 L 64.01,107.76 L 60.71,109.12 L 57.42,110.48 L 53.43,112.13 L 49.16,114.15 L 46.06,115.63 L 42.98,117.11 L 41.23,118.1 L 36.25,120.9 L 33.75,122.52 L 32.66,123.23 L 29.78,125.38 L 26.89,127.54 L 22.29,130.96 L 19.9,133.01 L 15.61,136.62 L 13.2,139.02 L 11.55,140.68 L 9.4,143.18 L 7.25,145.67 L 4.28,149.14 L 1.33,152.63 L 1.14,152.9 L 0.98,153.13 L -1.2,157.01 L -3.39,160.86 L -5.72,164.89 L -8.08,168.88 L -8.26,169.23 L -8.43,169.6 L -9.69,173.16 L -10.96,176.69 L -9.81,177.1 L -8.56,173.56 L -7.31,170 L -7.18,169.76 L -7.05,169.48 L -4.69,165.49 L -2.36,161.46 L -0.16,157.6 L 2.03,153.73 L 2.13,153.58 L 2.25,153.41 L 5.2,149.93 L 8.17,146.47 L 10.32,143.98 L 12.45,141.51 L 14.07,139.9 L 16.44,137.55 L 20.72,133.99 L 23.08,131.98 L 27.66,128.58 L 30.56,126.42 L 33.43,124.28 L 34.46,123.61 L 36.92,122.03 L 41.88,119.26 L 43.58,118.3 L 46.64,116.83 L 49.74,115.37 L 53.98,113.37 L 57.94,111.73 L 61.23,110.37 L 64.51,109.02 L 66.41,108.34 L 70.69,106.82 L 74.97,105.34 L 75.05,105.31 L 75.63,105.14 L 79.98,103.94 L 84.41,102.7 L 85.72,102.32 L 89.95,101.24 L 94.18,100.17 L 96.74,99.52 L 100.36,98.74 L 103.96,97.96 L 107.54,97.16 L 110.64,96.54 L 113.74,95.91 L 118.26,94.99 L 123.78,94.01 L 129.24,93.07 L 134.14,92.36 L 137.25,91.9 L 140.33,91.44 L 144.65,90.85 L 148.04,90.36 L 151.4,89.86 L 155.22,89.35 L 158.85,88.87 L 162.49,88.41 L 165.96,88.08 L 169.86,87.74 L 173.8,87.43 L 177.05,87.25 L 181.19,87.04 L 185.31,86.82 L 188.28,86.72 L 192.46,86.57 L 196.62,86.4 L 199.44,86.35 L 203.73,86.28 L 208.04,86.22 L 210.82,86.22 L 215.2,86.23 L 219.59,86.22 L 222.42,86.24 L 226.79,86.25 L 231.11,86.23 L 233.95,86.27 L 238.14,86.35 L 242.32,86.48 L 245.32,86.67 L 249.45,86.92 L 253.61,87.16 L 256.94,87.41 L 261,87.71 L 265.05,88.03 L 268.75,88.44 L 272.59,88.89 L 276.39,89.36 L 280.47,89.98 L 283.95,90.51 L 287.41,91.01 L 292.03,91.74 L 295.21,92.19 L 298.4,92.62 L 303.78,93.45 L 309.3,94.31 L 312.36,94.88 L 315.43,95.45 L 319.94,96.28 L 323.52,97.05 L 327.12,97.83 L 330.51,98.57 L 334.76,99.65 L 339.05,100.77 L 341.08,101.32 L 346.21,102.88 L 351.39,104.47 L 351.73,104.58 L 353.63,105.24 L 357.97,106.87 L 362.33,108.46 L 364.62,109.39 L 368.74,111.04 L 372.8,112.7 L 375.72,114.09 L 378.65,115.49 L 383.08,117.58 L 387.88,120.08 L 392.74,122.55 L 393.61,123.06 L 394.3,123.52 L 399.24,126.81 L 404.17,130.09 L 407.35,132.56 L 410.55,135.07 L 413.73,137.59 L 414.99,138.8 L 418.17,142.37 L 421.8,146.41 L 425.41,150.39 L 427.6,153.18 L 429.96,157.03 L 432.31,160.94 L 434.61,164.86 L 436.86,169.63 L 438.3,174.05 L 439.78,178.5 L 441.27,182.89 L 442.37,187.22 L 443.06,192.54 L 443.8,197.89 L 444.54,203.27 L 444.65,205.78 L 444.27,210.59 L 443.9,215.44 L 443.53,220.27 L 443.17,225.04 L 443.05,225.73 L 441.54,230.65 L 440.02,235.55 L 438.5,240.46 L 436.99,245.36 L 436.61,246.24 L 434.19,250.59 L 431.74,254.97 L 429.28,259.36 L 426.85,263.74 L 423.81,268.17 L 420.53,272.15 L 417.24,276.16 L 413.96,280.12 L 409.83,284.15 L 405.63,288.18 L 401.43,292.19 L 398.84,294.34 L 396.38,296.03 L 391.46,299.42 L 386.55,302.82 L 381.72,306.22 L 377.9,308.46 L 374.06,310.73 L 370.23,313 L 366.39,315.25 L 363.7,316.84 L 361.04,318.1 L 358.36,319.38 L 353.59,321.44 L 348.81,323.52 L 344.06,325.59 L 339.03,327.37 L 333.78,329.24 L 328.54,331.1 L 323.32,332.95 L 317.96,334.43 L 312.53,335.91 L 306.92,337.45 L 301.3,338.99 L 296.16,340.02 L 291,341.05 L 285.85,342.07 L 281.99,342.84 L 278.17,343.61 L 273.59,344.23 L 269,344.85 L 264.4,345.47 L 259.8,346.1 L 254.5,346.83 L 249.47,347.2 L 244.41,347.57 L 239.35,347.94 L 234.3,348.31 L 230.28,348.61 L 225.16,348.66 L 220.04,348.71 L 214.92,348.73 L 209.81,348.73 L 206.09,348.73 L 201.14,348.41 L 196.14,348.09 L 191.13,347.78 L 186.11,347.48 L 181.76,347.23 L 177.19,346.69 L 172.6,346.15 L 168.01,345.63 L 163.43,345.14 L 157.77,344.54 L 152.55,343.65 L 147.33,342.75 L 142.12,341.82 L 138.32,341.11 L 134.56,340.4 L 130.48,339.32 L 126.38,338.22 L 122.29,337.11 L 117.28,335.75 L 112.29,334.39 L 108.07,332.95 L 103.82,331.53 L 99.54,330.14 L 95.26,328.77 L 91.01,327.43 L 86.74,325.74 L 81.55,323.7 L 76.35,321.66 L 71.15,319.58 L 70.91,319.48 L 70.88,319.46 L 66.27,316.94 L 61.66,314.39 L 57.06,311.84 L 52.26,309.16 Z" fill="#1a1a1a" stroke="#1a1a1a" stroke-width="0.4" stroke-linejoin="round" />
  <polyline points="-10.39,176.9 -10.87,178.24" fill="none" stroke="#1a1a1a" stroke-width="1.448" stroke-opacity="0.32" stroke-dasharray="4,3" stroke-linecap="round" stroke-linejoin="round" />
  <path d="M -11.52,178.01 L -13.12,182.46 L -14.74,186.92 L -14.82,187.25 L -14.9,187.59 L -15.48,192.25 L -16.05,196.91 L -16.55,201.22 L -17.03,205.56 L -17,206.99 L -16.97,208.51 L -16.44,212.86 L -15.88,217.21 L -15.36,221.31 L -14.84,225.48 L -14.27,227.8 L -13.71,230.14 L -12.3,234.26 L -10.92,238.34 L -9.47,242.54 L -8,246.74 L -6.98,248.86 L -6.09,250.73 L -3.58,254.82 L -1.1,258.91 L 1.95,263.98 L 4.96,269.06 L 5.02,269.14 L 5.08,269.22 L 7.82,272.35 L 10.54,275.47 L 13.25,278.59 L 15.97,281.75 L 18.71,284.93 L 21.91,287.96 L 24.73,290.59 L 27.57,293.23 L 31.98,296.78 L 34.24,298.62 L 38.98,301.78 L 43.7,304.94 L 47.64,307.59 L 51.58,310.25 L 52.34,309.14 L 48.41,306.46 L 44.5,303.76 L 39.84,300.52 L 35.2,297.31 L 33.02,295.49 L 28.69,291.94 L 25.91,289.32 L 23.1,286.69 L 19.96,283.72 L 17.26,280.63 L 14.51,277.49 L 11.79,274.38 L 9.07,271.25 L 6.34,268.12 L 6.37,268.15 L 6.4,268.2 L 3.38,263.12 L 0.31,258.06 L -2.2,253.98 L -4.69,249.93 L -5.54,248.16 L -6.52,246.16 L -7.98,242.02 L -9.43,237.83 L -10.81,233.75 L -12.19,229.68 L -12.71,227.42 L -13.23,225.21 L -13.72,221.11 L -14.22,217 L -14.76,212.65 L -15.29,208.35 L -15.32,206.95 L -15.35,205.69 L -14.91,201.4 L -14.46,197.09 L -13.95,192.43 L -13.43,187.77 L -13.38,187.57 L -13.35,187.4 L -11.8,182.94 L -10.21,178.47 Z" fill="#1a1a1a" stroke="#1a1a1a" stroke-width="0.4" stroke-linejoin="round" />
</g></g>
<g clip-path="url(#clip-0-1)"><g transform="translate(452,0)">  <rect width="430" height="360" fill="#faf9f5" />
  <path d="M 129.16,168.01 L 126.28,166.88 L 123.33,165.94 L 122.77,165.8 L 122.74,165.79 L 117.42,164.15 L 116.45,163.9 L 113.66,162.92 L 112.73,162.62 L 112.26,163.91 L 113.12,164.27 L 115.85,165.53 L 116.91,165.82 L 122.21,167.48 L 122.35,167.51 L 122.81,167.63 L 125.74,168.56 L 128.73,169.33 Z" fill="#1a1a1a" stroke="#1a1a1a" stroke-width="0.4" stroke-linejoin="round" />
  <polyline points="112.5,163.26 112.11,163.12 111.89,162.99" fill="none" stroke="#1a1a1a" stroke-width="1.507" stroke-opacity="0.32" stroke-dasharray="4,3" stroke-linecap="round" stroke-linejoin="round" />
  <path d="M 112.24,162.41 L 111.75,161.9 L 111.23,161.43 L 110.45,161.24 L 110.46,161.31 L 110.28,161.44 L 110.04,162.77 L 110.46,163.01 L 110.5,162.96 L 110.3,162.87 L 110.72,163.28 L 111.54,163.57 Z" fill="#1a1a1a" stroke="#1a1a1a" stroke-width="0.4" stroke-linejoin="round" />
  <polyline points="110.16,162.1 110.16,162.1 110.8,162.66 111.03,162.7 111.93,163.21 112.36,163.9 113.03,164.77 113.94,165.64 115.44,167.18 115.83,168.05 116.36,169.11 117.52,170.88 118.88,172.99 119.26,174.23 119.76,175.76 120.64,177.8 121.49,179.79 121.74,181.61 122.04,183.8 122.41,185.45 122.74,186.93 122.63,189.3 122.52,191.87 122.57,192.96 122.63,193.93 122.06,196.36 121.53,198.52 121.44,199.28 121.36,199.96 120.51,201.69 119.95,202.79 119.76,203.47 119.66,204.07 119.12,204.73 118.92,204.91 118.74,205.41 118.89,205.63 118.87,205.63 118.87,205.62 119.03,205.41 119.5,204.93 119.98,204.68 121.67,203.54 121.78,203.49 122.23,203.24 123.96,201.92 124.78,201.32 126.77,200.14 128.77,198.97 130.28,198.26 133.64,196.63 134.5,196.28 139.31,194.25 139.42,194.21 140.16,193.95 144.78,192.09 145.64,191.75 150.71,190.08 152.53,189.5 157.14,188.24 159.85,187.5 164.06,186.56 167.61,185.77 171.43,185.09 175.66,184.32 179.05,183.82 183.78,183.07 186.86,182.68 192.12,181.99 195.04,181.71 200.73,181.21 203.5,181.07 209.34,180.81 212.01,180.8 214.97,180.8 217.94,180.8 220.67,180.89 226.68,181.11 229.55,181.31 235.36,181.75 238.4,182.1 243.84,182.73 247.2,183.25 252.25,183.99 256.13,184.68 260.66,185.47 265.12,186.42 268.82,187.21 273.81,188.51 276.41,189.18 281.86,190.89 283.29,191.33 286.32,192.46 289.34,193.54 289.51,193.6 290.18,193.88 295.2,195.64 296.18,196.03 300.22,197.77 302.28,198.94 304.37,200.16 307.37,202.39 307.53,202.5 307.71,202.68 309.99,204.1 310.73,204.79 311.13,205.2 311.07,205.4 311.17,205.19 310.13,204.17 310.03,203.65 308.34,199.91 308.33,199.85 307.68,196.83 307.08,193.84 307.09,193.69 307.11,190.31 307.16,186.97 307.45,185.95 308.01,182.92 308.52,179.87 309.46,177.76 311.06,173.01 312.72,170.56 314.61,167.09 316.35,165.49 318.47,162.99 319.11,162.71 319.4,162.56 320.27,162.06" fill="none" stroke="#1a1a1a" stroke-width="1.29" stroke-opacity="0.32" stroke-dasharray="4,3" stroke-linecap="round" stroke-linejoin="round" />
  <path d="M 320.2,161.38 L 319.29,161.42 L 318.55,162.28 L 318.44,162.51 L 319.07,163.71 L 319.74,163.53 L 320.32,162.8 L 320.34,162.74 Z" fill="#1a1a1a" stroke="#1a1a1a" stroke-width="0.4" stroke-linejoin="round" />
  <polyline points="318.76,163.11 317.62,163.69" fill="none" stroke="#1a1a1a" stroke-width="1.506" stroke-opacity="0.32" stroke-dasharray="4,3" stroke-linecap="round" stroke-linejoin="round" />
  <path d="M 317.3,163.05 L 315.41,164 L 310.25,165.71 L 309.67,165.89 L 307.13,166.53 L 301.89,168.23 L 300.17,168.65 L 296.25,169.61 L 292.35,170.56 L 288.11,171.35 L 284.61,172.01 L 281.12,172.67 L 277.89,173.14 L 274.63,173.61 L 271.54,174.05 L 268.46,174.49 L 264.26,174.94 L 260.05,175.38 L 254.6,175.94 L 249.71,176.26 L 244.81,176.59 L 239.96,176.9 L 234.63,177.08 L 229.3,177.26 L 224.8,177.42 L 219.29,177.46 L 213.75,177.51 L 209.34,177.54 L 203.9,177.4 L 198.44,177.28 L 193.94,177.2 L 188.87,176.95 L 183.81,176.69 L 179.07,176.44 L 174.64,176.03 L 170.21,175.61 L 165.1,175.11 L 161.46,174.59 L 157.81,174.06 L 152.25,173.25 L 146.73,172.18 L 143.72,171.59 L 140.73,171 L 137.13,170.1 L 133.97,169.31 L 130.82,168.51 L 129.15,168 L 128.73,169.35 L 130.44,169.88 L 133.61,170.7 L 136.77,171.52 L 140.39,172.46 L 143.42,173.09 L 146.42,173.72 L 151.97,174.86 L 157.56,175.73 L 161.22,176.27 L 164.9,176.8 L 170.04,177.32 L 174.48,177.75 L 178.94,178.17 L 183.72,178.43 L 188.78,178.71 L 193.87,179 L 198.4,179.09 L 203.86,179.2 L 209.33,179.29 L 213.76,179.24 L 219.3,179.2 L 224.83,179.16 L 229.36,178.99 L 234.69,178.79 L 240.04,178.59 L 244.92,178.25 L 249.82,177.92 L 254.75,177.57 L 260.21,177 L 264.43,176.57 L 268.65,176.15 L 271.77,175.73 L 274.87,175.31 L 278.13,174.86 L 281.41,174.4 L 284.93,173.74 L 288.44,173.06 L 292.71,172.22 L 296.65,171.21 L 300.56,170.19 L 302.36,169.73 L 307.58,167.98 L 310.06,167.33 L 310.72,167.12 L 315.93,165.35 L 317.94,164.33 Z" fill="#1a1a1a" stroke="#1a1a1a" stroke-width="0.4" stroke-linejoin="round" />
  <path d="M 51.66,310.24 L 56.45,312.93 L 61.07,315.48 L 65.68,318.02 L 70.29,320.54 L 70.41,320.6 L 70.69,320.72 L 75.89,322.8 L 81.09,324.86 L 86.28,326.91 L 90.59,328.61 L 94.88,329.96 L 99.16,331.32 L 103.44,332.7 L 107.67,334.13 L 111.93,335.6 L 116.95,336.97 L 121.95,338.36 L 126.04,339.48 L 130.13,340.6 L 134.25,341.71 L 138.07,342.45 L 141.87,343.16 L 147.09,344.1 L 152.32,345.03 L 157.57,345.95 L 163.27,346.6 L 167.85,347.11 L 172.43,347.62 L 177.02,348.14 L 181.63,348.68 L 186.03,348.94 L 191.05,349.24 L 196.05,349.55 L 201.04,349.87 L 206.04,350.19 L 209.81,350.2 L 214.93,350.2 L 220.05,350.2 L 225.18,350.18 L 230.34,350.14 L 234.41,349.83 L 239.46,349.44 L 244.52,349.06 L 249.58,348.68 L 254.66,348.33 L 260.01,347.62 L 264.61,347.01 L 269.21,346.39 L 273.8,345.78 L 278.43,345.16 L 282.3,344.38 L 286.15,343.6 L 291.3,342.55 L 296.46,341.51 L 301.66,340.47 L 307.33,338.95 L 312.95,337.42 L 318.37,335.94 L 323.79,334.46 L 329.07,332.6 L 334.31,330.75 L 339.56,328.88 L 344.65,327.07 L 349.44,324.97 L 354.22,322.89 L 359,320.8 L 361.7,319.48 L 364.41,318.16 L 367.14,316.52 L 370.96,314.24 L 374.79,311.97 L 378.63,309.72 L 382.53,307.46 L 387.41,304.05 L 392.31,300.65 L 397.22,297.24 L 399.73,295.51 L 402.42,293.28 L 406.64,289.24 L 410.84,285.21 L 415.04,281.13 L 418.4,277.13 L 421.72,273.13 L 425.04,269.1 L 428.15,264.55 L 430.61,260.1 L 433.08,255.72 L 435.55,251.36 L 438.03,247 L 438.51,245.86 L 440.04,240.94 L 441.54,236.02 L 443.02,231.1 L 444.5,226.15 L 444.67,225.17 L 445.02,220.38 L 445.38,215.55 L 445.74,210.7 L 446.14,205.83 L 446.03,203.11 L 445.32,197.69 L 444.62,192.33 L 443.95,186.93 L 442.83,182.43 L 441.34,177.98 L 439.86,173.54 L 438.34,169.03 L 435.98,164.13 L 433.6,160.16 L 431.21,156.27 L 428.77,152.37 L 426.48,149.47 L 422.84,145.48 L 419.23,141.42 L 416.05,137.81 L 414.68,136.48 L 411.48,133.89 L 408.29,131.36 L 405.07,128.83 L 400.11,125.5 L 395.19,122.2 L 394.45,121.7 L 393.48,121.14 L 388.62,118.65 L 383.79,116.14 L 379.33,114.05 L 376.4,112.66 L 373.43,111.26 L 369.34,109.58 L 365.22,107.91 L 362.89,106.95 L 358.52,105.38 L 354.16,103.78 L 352.22,103.13 L 351.82,103.01 L 346.63,101.49 L 341.48,99.96 L 339.4,99.41 L 335.12,98.28 L 330.85,97.15 L 327.44,96.37 L 323.85,95.56 L 320.25,94.77 L 315.72,93.91 L 312.66,93.33 L 309.56,92.74 L 304.03,91.87 L 298.63,91.03 L 295.43,90.61 L 292.26,90.17 L 287.64,89.47 L 284.17,89 L 280.69,88.5 L 276.59,87.89 L 272.77,87.42 L 268.92,86.95 L 265.19,86.53 L 261.11,86.21 L 257.05,85.93 L 253.7,85.71 L 249.53,85.5 L 245.4,85.27 L 242.39,85.1 L 238.19,84.94 L 233.98,84.82 L 231.12,84.76 L 226.79,84.74 L 222.43,84.71 L 219.6,84.67 L 215.21,84.67 L 210.83,84.64 L 208.02,84.63 L 203.71,84.7 L 199.41,84.79 L 196.57,84.85 L 192.4,85.01 L 188.23,85.17 L 185.24,85.27 L 181.11,85.49 L 176.96,85.71 L 173.69,85.89 L 169.74,86.21 L 165.82,86.55 L 162.32,86.88 L 158.66,87.34 L 155.02,87.8 L 151.19,88.29 L 147.81,88.79 L 144.43,89.27 L 140.11,89.85 L 137.01,90.31 L 133.91,90.76 L 128.98,91.48 L 123.5,92.42 L 117.96,93.41 L 113.42,94.34 L 110.32,94.97 L 107.2,95.6 L 103.61,96.4 L 100.03,97.2 L 96.38,98 L 93.79,98.67 L 89.58,99.76 L 85.34,100.86 L 83.99,101.25 L 79.58,102.52 L 75.24,103.76 L 74.63,103.95 L 74.5,103.99 L 70.23,105.51 L 65.95,107.06 L 64.01,107.76 L 60.71,109.12 L 57.42,110.48 L 53.43,112.13 L 49.16,114.15 L 46.06,115.63 L 42.98,117.11 L 41.23,118.1 L 36.25,120.9 L 33.75,122.52 L 32.66,123.23 L 29.78,125.38 L 26.89,127.54 L 22.29,130.96 L 19.9,133.01 L 15.61,136.62 L 13.2,139.02 L 11.55,140.68 L 9.4,143.18 L 7.25,145.67 L 4.28,149.14 L 1.33,152.63 L 1.14,152.9 L 0.98,153.13 L -1.2,157.01 L -3.39,160.86 L -5.72,164.89 L -8.08,168.88 L -8.26,169.23 L -8.43,169.6 L -9.69,173.16 L -10.96,176.69 L -9.81,177.1 L -8.56,173.56 L -7.31,170 L -7.18,169.76 L -7.05,169.48 L -4.69,165.49 L -2.36,161.46 L -0.16,157.6 L 2.03,153.73 L 2.13,153.58 L 2.25,153.41 L 5.2,149.93 L 8.17,146.47 L 10.32,143.98 L 12.45,141.51 L 14.07,139.9 L 16.44,137.55 L 20.72,133.99 L 23.08,131.98 L 27.66,128.58 L 30.56,126.42 L 33.43,124.28 L 34.46,123.61 L 36.92,122.03 L 41.88,119.26 L 43.58,118.3 L 46.64,116.83 L 49.74,115.37 L 53.98,113.37 L 57.94,111.73 L 61.23,110.37 L 64.51,109.02 L 66.41,108.34 L 70.69,106.82 L 74.97,105.34 L 75.05,105.31 L 75.63,105.14 L 79.98,103.94 L 84.41,102.7 L 85.72,102.32 L 89.95,101.24 L 94.18,100.17 L 96.74,99.52 L 100.36,98.74 L 103.96,97.96 L 107.54,97.16 L 110.64,96.54 L 113.74,95.91 L 118.26,94.99 L 123.78,94.01 L 129.24,93.07 L 134.14,92.36 L 137.25,91.9 L 140.33,91.44 L 144.65,90.85 L 148.04,90.36 L 151.4,89.86 L 155.22,89.35 L 158.85,88.87 L 162.49,88.41 L 165.96,88.08 L 169.86,87.74 L 173.8,87.43 L 177.05,87.25 L 181.19,87.04 L 185.31,86.82 L 188.28,86.72 L 192.46,86.57 L 196.62,86.4 L 199.44,86.35 L 203.73,86.28 L 208.04,86.22 L 210.82,86.22 L 215.2,86.23 L 219.59,86.22 L 222.42,86.24 L 226.79,86.25 L 231.11,86.23 L 233.95,86.27 L 238.14,86.35 L 242.32,86.48 L 245.32,86.67 L 249.45,86.92 L 253.61,87.16 L 256.94,87.41 L 261,87.71 L 265.05,88.03 L 268.75,88.44 L 272.59,88.89 L 276.39,89.36 L 280.47,89.98 L 283.95,90.51 L 287.41,91.01 L 292.03,91.74 L 295.21,92.19 L 298.4,92.62 L 303.78,93.45 L 309.3,94.31 L 312.36,94.88 L 315.43,95.45 L 319.94,96.28 L 323.52,97.05 L 327.12,97.83 L 330.51,98.57 L 334.76,99.65 L 339.05,100.77 L 341.08,101.32 L 346.21,102.88 L 351.39,104.47 L 351.73,104.58 L 353.63,105.24 L 357.97,106.87 L 362.33,108.46 L 364.62,109.39 L 368.74,111.04 L 372.8,112.7 L 375.72,114.09 L 378.65,115.49 L 383.08,117.58 L 387.88,120.08 L 392.74,122.55 L 393.61,123.06 L 394.3,123.52 L 399.24,126.81 L 404.17,130.09 L 407.35,132.56 L 410.55,135.07 L 413.73,137.59 L 414.99,138.8 L 418.17,142.37 L 421.8,146.41 L 425.41,150.39 L 427.6,153.18 L 429.96,157.03 L 432.31,160.94 L 434.61,164.86 L 436.86,169.63 L 438.3,174.05 L 439.78,178.5 L 441.27,182.89 L 442.37,187.22 L 443.06,192.54 L 443.8,197.89 L 444.54,203.27 L 444.65,205.78 L 444.27,210.59 L 443.9,215.44 L 443.53,220.27 L 443.17,225.04 L 443.05,225.73 L 441.54,230.65 L 440.02,235.55 L 438.5,240.46 L 436.99,245.36 L 436.61,246.24 L 434.19,250.59 L 431.74,254.97 L 429.28,259.36 L 426.85,263.74 L 423.81,268.17 L 420.53,272.15 L 417.24,276.16 L 413.96,280.12 L 409.83,284.15 L 405.63,288.18 L 401.43,292.19 L 398.84,294.34 L 396.38,296.03 L 391.46,299.42 L 386.55,302.82 L 381.72,306.22 L 377.9,308.46 L 374.06,310.73 L 370.23,313 L 366.39,315.25 L 363.7,316.84 L 361.04,318.1 L 358.36,319.38 L 353.59,321.44 L 348.81,323.52 L 344.06,325.59 L 339.03,327.37 L 333.78,329.24 L 328.54,331.1 L 323.32,332.95 L 317.96,334.43 L 312.53,335.91 L 306.92,337.45 L 301.3,338.99 L 296.16,340.02 L 291,341.05 L 285.85,342.07 L 281.99,342.84 L 278.17,343.61 L 273.59,344.23 L 269,344.85 L 264.4,345.47 L 259.8,346.1 L 254.5,346.83 L 249.47,347.2 L 244.41,347.57 L 239.35,347.94 L 234.3,348.31 L 230.28,348.61 L 225.16,348.66 L 220.04,348.71 L 214.92,348.73 L 209.81,348.73 L 206.09,348.73 L 201.14,348.41 L 196.14,348.09 L 191.13,347.78 L 186.11,347.48 L 181.76,347.23 L 177.19,346.69 L 172.6,346.15 L 168.01,345.63 L 163.43,345.14 L 157.77,344.54 L 152.55,343.65 L 147.33,342.75 L 142.12,341.82 L 138.32,341.11 L 134.56,340.4 L 130.48,339.32 L 126.38,338.22 L 122.29,337.11 L 117.28,335.75 L 112.29,334.39 L 108.07,332.95 L 103.82,331.53 L 99.54,330.14 L 95.26,328.77 L 91.01,327.43 L 86.74,325.74 L 81.55,323.7 L 76.35,321.66 L 71.15,319.58 L 70.91,319.48 L 70.88,319.46 L 66.27,316.94 L 61.66,314.39 L 57.06,311.84 L 52.26,309.16 Z" fill="#1a1a1a" stroke="#1a1a1a" stroke-width="0.4" stroke-linejoin="round" />
  <polyline points="-10.39,176.9 -10.87,178.24" fill="none" stroke="#1a1a1a" stroke-width="1.448" stroke-opacity="0.32" stroke-dasharray="4,3" stroke-linecap="round" stroke-linejoin="round" />
  <path d="M -11.52,178.01 L -13.12,182.46 L -14.74,186.92 L -14.82,187.25 L -14.9,187.59 L -15.48,192.25 L -16.05,196.91 L -16.55,201.22 L -17.03,205.56 L -17,206.99 L -16.97,208.51 L -16.44,212.86 L -15.88,217.21 L -15.36,221.31 L -14.84,225.48 L -14.27,227.8 L -13.71,230.14 L -12.3,234.26 L -10.92,238.34 L -9.47,242.54 L -8,246.74 L -6.98,248.86 L -6.09,250.73 L -3.58,254.82 L -1.1,258.91 L 1.95,263.98 L 4.96,269.06 L 5.02,269.14 L 5.08,269.22 L 7.82,272.35 L 10.54,275.47 L 13.25,278.59 L 15.97,281.75 L 18.71,284.93 L 21.91,287.96 L 24.73,290.59 L 27.57,293.23 L 31.98,296.78 L 34.24,298.62 L 38.98,301.78 L 43.7,304.94 L 47.64,307.59 L 51.58,310.25 L 52.34,309.14 L 48.41,306.46 L 44.5,303.76 L 39.84,300.52 L 35.2,297.31 L 33.02,295.49 L 28.69,291.94 L 25.91,289.32 L 23.1,286.69 L 19.96,283.72 L 17.26,280.63 L 14.51,277.49 L 11.79,274.38 L 9.07,271.25 L 6.34,268.12 L 6.37,268.15 L 6.4,268.2 L 3.38,263.12 L 0.31,258.06 L -2.2,253.98 L -4.69,249.93 L -5.54,248.16 L -6.52,246.16 L -7.98,242.02 L -9.43,237.83 L -10.81,233.75 L -12.19,229.68 L -12.71,227.42 L -13.23,225.21 L -13.72,221.11 L -14.22,217 L -14.76,212.65 L -15.29,208.35 L -15.32,206.95 L -15.35,205.69 L -14.91,201.4 L -14.46,197.09 L -13.95,192.43 L -13.43,187.77 L -13.38,187.57 L -13.35,187.4 L -11.8,182.94 L -10.21,178.47 Z" fill="#1a1a1a" stroke="#1a1a1a" stroke-width="0.4" stroke-linejoin="round" />
  <path d="M 379.4,139.8 L 379.12,140.11 L 374.95,143.16 L 371.36,144.18 L 367.66,145.19 L 363.72,145.44 L 358.54,147 L 353.81,147.88 L 349.06,148.77 L 348.75,148.89 L 348.26,149.06 L 343.67,150.6 L 339.07,152.14 L 335.57,153.17 L 332.69,154.66 L 329.85,156.12 L 326.5,157.82 L 323.13,159.53 L 321.47,160.73 L 321.89,161.31 L 323.48,160.16 L 326.85,158.52 L 330.23,156.88 L 333.09,155.43 L 335.89,154 L 339.34,152.99 L 343.95,151.46 L 348.55,149.93 L 349.06,149.75 L 349.24,149.66 L 353.98,148.77 L 358.75,147.87 L 363.9,146.33 L 367.81,146.1 L 371.62,145.07 L 375.35,143.91 L 379.58,140.7 L 379.95,140.31 Z" fill="#1a1a1a" stroke="#1a1a1a" stroke-width="0.4" stroke-linejoin="round" />
  <path d="M 107.5,159.65 L 102.51,157.06 L 97.52,154.5 L 95.06,153.28 L 90.5,151.87 L 86.06,150.31 L 81.58,148.75 L 76.38,147.58 L 71.2,146.42 L 66.8,145.57 L 63.09,145.11 L 58.15,143.05 L 52.69,141.26 L 52.46,141.94 L 57.87,143.79 L 62.84,145.95 L 66.65,146.46 L 71.02,147.31 L 76.18,148.47 L 81.33,149.62 L 85.76,151.16 L 90.21,152.73 L 94.74,154.14 L 97.1,155.33 L 102.13,157.83 L 107.16,160.32 Z" fill="#1a1a1a" stroke="#1a1a1a" stroke-width="0.4" stroke-linejoin="round" />
</g></g>
<text x="14" y="26" font-family="sans-serif" font-size="14" fill="#999"></text>
<line x1="441" y1="8" x2="441" y2="352" stroke="#ddd" stroke-width="1" />
<text x="215" y="20" text-anchor="middle" font-family="sans-serif" font-size="14" fill="#999">silhouette only</text>
<text x="667" y="20" text-anchor="middle" font-family="sans-serif" font-size="14" fill="#999">+ suggestive contours</text>
</svg>