<svg xmlns="http://www.w3.org/2000/svg" viewBox="0 0 882 360" width="882" height="360">
<defs><clipPath id="clip-0-0" clipPathUnits="userSpaceOnUse"><rect x="0" y="0" width="430" height="360" /></clipPath><clipPath id="clip-0-1" clipPathUnits="userSpaceOnUse"><rect x="452" y="0" width="430" height="360" /></clipPath></defs>
<g clip-path="url(#clip-0-0)"><g transform="translate(0,0)">  <rect width="430" height="360" fill="#faf9f5" />
  <path d="M 130.29,168.95 L 128.61,168.36 L 125.68,167.38 L 122.72,166.48 L 122.16,166.34 L 122.15,166.34 L 116.88,164.63 L 115.94,164.35 L 113.12,163.29 L 112.19,162.93 L 111.62,164.24 L 112.52,164.67 L 115.25,166.06 L 116.32,166.39 L 121.58,168.09 L 121.74,168.13 L 122.19,168.24 L 125.15,169.14 L 128.15,169.93 L 129.91,170.31 Z" fill="#1a1a1a" stroke="#1a1a1a" stroke-width="0.4" stroke-linejoin="round" />
  <polyline points="111.91,163.59 111.51,163.41 111.28,163.27" fill="none" stroke="#1a1a1a" stroke-width="1.507" stroke-opacity="0.32" stroke-dasharray="4,3" stroke-linecap="round" stroke-linejoin="round" />
  <path d="M 111.65,162.69 L 111.17,162.15 L 110.62,161.59 L 109.86,161.35 L 110.06,161.45 L 109.78,161.51 L 109.15,162.74 L 109.48,163.12 L 109.73,163.13 L 109.57,163.03 L 110.05,163.53 L 110.91,163.85 Z" fill="#1a1a1a" stroke="#1a1a1a" stroke-width="0.4" stroke-linejoin="round" />
  <polyline points="109.47,162.12 109.47,162.12 110.14,162.6 110.41,162.61 111.35,163.07 111.86,163.72 112.59,164.56 113.59,165.4 115.18,166.89 115.63,167.74 116.21,168.76 117.46,170.5 118.91,172.58 119.33,173.81 119.87,175.34 120.81,177.42 121.7,179.45 121.97,181.33 122.3,183.58 122.71,185.28 123.06,186.79 122.98,189.18 122.87,191.75 122.92,192.84 122.96,193.8 122.37,196.22 121.82,198.41 121.72,199.19 121.63,199.91 120.78,201.76 120.22,203 120.01,203.75 119.9,204.45 119.3,205.22 119.06,205.47 118.83,206.04 118.93,206.23 118.91,206.23 118.91,206.22 119.03,205.9 119.44,205.35 119.83,205.05 121.2,203.81 121.3,203.76 121.68,203.49 123.16,202.09 123.92,201.43 125.87,200.09 127.9,198.73 129.45,197.88 132.91,196 133.81,195.61 138.75,193.47 138.85,193.44 139.6,193.17 144.27,191.38 145.14,191.05 150.27,189.41 152.12,188.82 156.86,187.51 159.68,186.74 164.04,185.73 167.69,184.89 171.57,184.17 175.85,183.4 179.29,182.93 184.11,182.29 187.25,181.99 192.57,181.5 195.51,181.34 201.2,181.02 203.97,180.96 209.85,180.79 212.55,180.78 215.54,180.76 218.54,180.72 221.27,180.77 227.24,180.9 230.1,181.07 235.89,181.48 238.93,181.82 244.31,182.43 247.6,182.92 252.48,183.64 256.16,184.31 260.45,185.08 264.67,186.02 268.2,186.8 273.04,188.14 275.61,188.85 281.08,190.63 282.53,191.09 285.64,192.23 288.77,193.33 288.94,193.39 289.65,193.68 294.95,195.51 295.98,195.93 300.21,197.76 302.38,198.99 304.56,200.26 307.65,202.62 307.81,202.73 308,202.93 310.22,204.42 310.91,205.13 311.29,205.51 311.21,205.68 311.29,205.3 310.27,204.09 310.18,203.53 308.59,199.76 308.58,199.7 307.96,196.78 307.29,193.89 307.3,193.75 307.14,190.4 306.97,187.06 307.21,186.03 307.67,183 308.19,179.98 309.18,177.92 310.95,173.25 312.73,170.86 314.75,167.4 316.53,165.77 318.59,163.16 319.2,162.87 319.4,162.69 320.11,162.19" fill="none" stroke="#1a1a1a" stroke-width="1.29" stroke-opacity="0.32" stroke-dasharray="4,3" stroke-linecap="round" stroke-linejoin="round" />
  <path d="M 320.06,161.5 L 319.09,161.48 L 318.27,162.33 L 318.16,162.58 L 318.78,163.82 L 319.46,163.67 L 320.06,162.97 L 320.16,162.87 Z" fill="#1a1a1a" stroke="#1a1a1a" stroke-width="0.4" stroke-linejoin="round" />
  <polyline points="318.47,163.2 317.32,163.76" fill="none" stroke="#1a1a1a" stroke-width="1.506" stroke-opacity="0.32" stroke-dasharray="4,3" stroke-linecap="round" stroke-linejoin="round" />
  <path d="M 316.8,163.25 L 317,163.11 L 315.08,164.03 L 309.78,165.71 L 309.19,165.88 L 306.58,166.51 L 301.21,168.18 L 299.47,168.6 L 295.52,169.59 L 291.64,170.59 L 287.45,171.44 L 284,172.14 L 280.58,172.83 L 277.39,173.3 L 274.18,173.77 L 271.13,174.21 L 268.08,174.64 L 263.91,175.08 L 259.71,175.54 L 254.27,176.14 L 249.38,176.48 L 244.48,176.79 L 239.64,177.08 L 234.33,177.21 L 229.01,177.33 L 224.53,177.42 L 219.03,177.34 L 213.5,177.28 L 209.1,177.25 L 203.67,177.04 L 198.23,176.86 L 193.75,176.74 L 188.71,176.44 L 183.68,176.15 L 178.98,175.89 L 174.56,175.49 L 170.13,175.07 L 165.01,174.6 L 161.34,174.12 L 157.66,173.64 L 152.04,172.96 L 146.45,172.06 L 143.4,171.57 L 140.37,171.08 L 136.71,170.31 L 133.48,169.63 L 130.25,168.93 L 129.95,170.33 L 133.17,171.05 L 136.39,171.77 L 140.07,172.59 L 143.13,173.14 L 146.17,173.69 L 151.78,174.7 L 157.42,175.46 L 161.11,175.94 L 164.81,176.42 L 169.97,176.88 L 174.4,177.28 L 178.85,177.68 L 183.59,177.94 L 188.61,178.22 L 193.67,178.51 L 198.17,178.63 L 203.6,178.83 L 209.06,179.05 L 213.48,179.1 L 219.02,179.15 L 224.54,179.19 L 229.05,179.06 L 234.37,178.91 L 239.71,178.74 L 244.58,178.42 L 249.48,178.09 L 254.42,177.78 L 259.89,177.25 L 264.09,176.84 L 268.29,176.41 L 271.38,175.97 L 274.44,175.53 L 277.65,175.06 L 280.89,174.58 L 284.36,173.9 L 287.81,173.21 L 292.05,172.35 L 295.97,171.31 L 299.9,170.26 L 301.7,169.78 L 307.03,168.01 L 309.57,167.36 L 310.25,167.16 L 315.58,165.41 L 317.63,164.42 L 317.83,164.28 Z" fill="#1a1a1a" stroke="#1a1a1a" stroke-width="0.4" stroke-linejoin="round" />
  <path d="M 71.02,319.59 L 66.43,316.97 L 61.83,314.32 L 57.24,311.66 L 52.48,308.9 L 48.56,306.21 L 44.61,303.53 L 39.89,300.37 L 35.22,297.25 L 33.04,295.48 L 28.68,292.02 L 25.86,289.47 L 23.01,286.92 L 19.81,284.02 L 17.04,280.97 L 14.26,277.84 L 11.52,274.74 L 8.79,271.61 L 6.06,268.47 L 6.1,268.51 L 6.13,268.56 L 3.2,263.47 L 0.28,258.39 L -2.08,254.27 L -4.46,250.15 L -5.26,248.35 L -6.2,246.3 L -7.61,242.09 L -9.03,237.85 L -10.41,233.75 L -11.77,229.7 L -12.28,227.46 L -12.79,225.27 L -13.24,221.18 L -13.7,217.06 L -14.18,212.68 L -14.65,208.31 L -14.65,206.88 L -14.67,205.6 L -14.2,201.24 L -13.74,196.85 L -13.25,192.1 L -12.75,187.35 L -12.71,187.14 L -12.68,186.97 L -11.16,182.4 L -9.62,177.83 L -10.95,177.38 L -12.51,181.94 L -14.1,186.49 L -14.17,186.83 L -14.25,187.18 L -14.82,191.92 L -15.39,196.66 L -15.9,201.05 L -16.41,205.45 L -16.4,206.9 L -16.39,208.45 L -15.91,212.87 L -15.42,217.25 L -14.96,221.37 L -14.49,225.53 L -13.95,227.85 L -13.41,230.19 L -12.03,234.3 L -10.66,238.39 L -9.25,242.64 L -7.84,246.91 L -6.86,249.07 L -6.01,250.98 L -3.6,255.14 L -1.21,259.25 L 1.75,264.31 L 4.72,269.38 L 4.77,269.47 L 4.84,269.54 L 7.58,272.67 L 10.34,275.78 L 13.09,278.88 L 15.87,282.01 L 18.66,285.15 L 21.88,288.15 L 24.72,290.74 L 27.57,293.34 L 31.96,296.82 L 34.22,298.64 L 38.93,301.8 L 43.63,304.99 L 47.57,307.66 L 51.57,310.36 L 56.44,313.06 L 61.09,315.64 L 65.71,318.22 L 70.33,320.82 Z" fill="#1a1a1a" stroke="#1a1a1a" stroke-width="0.4" stroke-linejoin="round" />
  <polyline points="-10.29,177.61 -9.82,176.23" fill="none" stroke="#1a1a1a" stroke-width="1.448" stroke-opacity="0.32" stroke-dasharray="4,3" stroke-linecap="round" stroke-linejoin="round" />
  <path d="M -9.23,176.44 L -8.01,172.83 L -6.79,169.23 L -6.67,168.99 L -6.54,168.71 L -4.23,164.73 L -1.93,160.73 L 0.23,156.93 L 2.37,153.12 L 2.47,152.98 L 2.58,152.81 L 5.47,149.39 L 8.37,145.97 L 10.47,143.51 L 12.56,141.07 L 14.15,139.47 L 16.49,137.15 L 20.73,133.63 L 23.08,131.67 L 27.63,128.38 L 30.55,126.31 L 33.47,124.23 L 34.53,123.57 L 37.05,122.02 L 42.12,119.27 L 43.86,118.31 L 46.93,116.83 L 50.02,115.36 L 54.22,113.39 L 58.13,111.8 L 61.37,110.48 L 64.6,109.13 L 66.47,108.41 L 70.68,106.78 L 74.87,105.12 L 74.94,105.09 L 75.5,104.89 L 79.76,103.54 L 84.07,102.19 L 85.35,101.79 L 89.45,100.66 L 93.55,99.53 L 96.06,98.83 L 99.64,97.97 L 103.22,97.14 L 106.87,96.34 L 110.08,95.76 L 113.32,95.19 L 118.02,94.38 L 123.63,93.53 L 129.07,92.71 L 133.95,92.1 L 137.04,91.7 L 140.12,91.29 L 144.43,90.78 L 147.83,90.33 L 151.22,89.86 L 155.1,89.38 L 158.81,88.93 L 162.53,88.49 L 166.07,88.16 L 169.99,87.8 L 173.88,87.43 L 177.07,87.19 L 181.15,86.89 L 185.26,86.61 L 188.28,86.46 L 192.57,86.27 L 196.83,86.07 L 199.67,86 L 203.93,85.91 L 208.15,85.86 L 210.86,85.91 L 215.1,86 L 219.35,86.1 L 222.1,86.2 L 226.36,86.33 L 230.63,86.42 L 233.47,86.52 L 237.69,86.65 L 241.91,86.77 L 244.92,86.93 L 249.04,87.15 L 253.16,87.39 L 256.43,87.68 L 260.42,88.04 L 264.43,88.38 L 268.13,88.76 L 272.01,89.12 L 275.91,89.48 L 280.2,89.96 L 283.87,90.37 L 287.53,90.79 L 292.37,91.47 L 295.63,91.94 L 298.83,92.4 L 304.17,93.32 L 309.61,94.26 L 312.64,94.87 L 315.67,95.48 L 320.17,96.39 L 323.76,97.21 L 327.38,98.02 L 330.79,98.79 L 335.04,99.93 L 339.3,101.13 L 341.31,101.71 L 346.38,103.32 L 351.51,104.87 L 351.86,104.98 L 353.75,105.59 L 358.05,107.12 L 362.29,108.61 L 364.49,109.51 L 368.46,111.13 L 372.44,112.77 L 375.38,114.13 L 378.37,115.5 L 382.94,117.54 L 387.9,120.02 L 392.83,122.47 L 393.7,122.97 L 394.39,123.43 L 399.28,126.73 L 404.1,130.08 L 407.2,132.6 L 410.32,135.15 L 413.43,137.68 L 414.68,138.89 L 417.85,142.43 L 421.5,146.45 L 425.15,150.42 L 427.37,153.22 L 429.77,157.08 L 432.17,161 L 434.54,164.94 L 436.88,169.74 L 438.4,174.17 L 439.92,178.63 L 441.44,183.02 L 442.55,187.37 L 443.22,192.71 L 443.92,198.06 L 444.63,203.39 L 444.74,205.84 L 444.35,210.53 L 443.95,215.25 L 443.57,219.96 L 443.19,224.62 L 443.06,225.3 L 441.56,230.15 L 440.04,235.02 L 438.54,239.93 L 437.05,244.89 L 436.68,245.79 L 434.27,250.24 L 431.84,254.73 L 429.39,259.2 L 426.93,263.65 L 423.85,268.16 L 420.54,272.22 L 417.22,276.31 L 413.93,280.36 L 409.81,284.45 L 405.62,288.51 L 401.43,292.51 L 398.84,294.65 L 396.39,296.33 L 391.47,299.73 L 386.6,303.16 L 381.8,306.59 L 377.97,308.86 L 374.12,311.16 L 370.26,313.45 L 366.38,315.73 L 363.66,317.34 L 360.98,318.64 L 358.28,319.94 L 353.47,322.02 L 348.64,324.08 L 343.81,326.1 L 338.68,327.82 L 333.31,329.61 L 327.93,331.39 L 322.59,333.18 L 317.12,334.61 L 311.66,336.08 L 306.09,337.62 L 300.57,339.16 L 295.54,340.2 L 290.48,341.26 L 285.41,342.32 L 281.6,343.11 L 277.8,343.89 L 273.22,344.51 L 268.62,345.15 L 264.02,345.79 L 259.44,346.44 L 254.19,347.2 L 249.24,347.6 L 244.26,347.98 L 239.26,348.35 L 234.25,348.72 L 230.24,349.02 L 225.1,349.09 L 219.93,349.15 L 214.75,349.22 L 209.58,349.3 L 205.85,349.37 L 200.9,349.14 L 195.96,348.88 L 191.03,348.61 L 186.12,348.33 L 181.86,348.07 L 177.38,347.51 L 172.86,346.93 L 168.34,346.34 L 163.8,345.75 L 158.15,345.03 L 152.95,344.03 L 147.74,343.04 L 142.53,342.07 L 138.74,341.38 L 134.97,340.69 L 130.9,339.65 L 126.81,338.61 L 122.72,337.56 L 117.7,336.27 L 112.7,334.99 L 108.44,333.58 L 104.15,332.17 L 99.81,330.75 L 95.47,329.35 L 91.17,327.96 L 86.85,326.21 L 81.62,324.09 L 76.42,321.96 L 71.24,319.8 L 71,319.69 L 70.93,319.66 L 70.42,320.75 L 70.49,320.79 L 70.77,320.92 L 75.96,323.07 L 81.17,325.21 L 86.4,327.33 L 90.75,329.09 L 95.1,330.5 L 99.44,331.9 L 103.77,333.31 L 108.06,334.73 L 112.36,336.15 L 117.4,337.44 L 122.41,338.73 L 126.51,339.79 L 130.59,340.85 L 134.7,341.91 L 138.51,342.63 L 142.3,343.34 L 147.49,344.33 L 152.7,345.33 L 157.94,346.37 L 163.62,347.12 L 168.15,347.73 L 172.68,348.34 L 177.19,348.94 L 181.72,349.54 L 186.03,349.81 L 190.95,350.09 L 195.88,350.34 L 200.83,350.58 L 205.82,350.83 L 209.61,350.78 L 214.77,350.71 L 219.95,350.64 L 225.12,350.57 L 230.3,350.51 L 234.36,350.22 L 239.37,349.85 L 244.37,349.48 L 249.36,349.11 L 254.36,348.73 L 259.66,347.98 L 264.24,347.32 L 268.83,346.65 L 273.43,345.98 L 278.04,345.31 L 281.89,344.49 L 285.7,343.68 L 290.77,342.62 L 295.83,341.58 L 300.91,340.54 L 306.47,339.01 L 312.05,337.51 L 317.51,336.05 L 323.01,334.59 L 328.39,332.77 L 333.76,330.98 L 339.14,329.2 L 344.32,327.47 L 349.2,325.42 L 354.04,323.36 L 358.88,321.27 L 361.61,319.96 L 364.35,318.63 L 367.12,316.98 L 370.99,314.68 L 374.85,312.38 L 378.71,310.1 L 382.6,307.81 L 387.46,304.36 L 392.32,300.95 L 397.23,297.56 L 399.74,295.84 L 402.43,293.63 L 406.66,289.59 L 410.85,285.52 L 415.03,281.36 L 418.39,277.27 L 421.74,273.2 L 425.11,269.09 L 428.25,264.47 L 430.72,259.93 L 433.16,255.45 L 435.61,250.97 L 438.07,246.51 L 438.55,245.37 L 440.08,240.4 L 441.58,235.5 L 443.09,230.63 L 444.6,225.75 L 444.77,224.78 L 445.15,220.08 L 445.53,215.38 L 445.91,210.66 L 446.31,205.9 L 446.19,203.22 L 445.47,197.86 L 444.77,192.51 L 444.08,187.09 L 442.94,182.57 L 441.4,178.12 L 439.85,173.67 L 438.26,169.16 L 435.82,164.25 L 433.41,160.25 L 430.99,156.32 L 428.54,152.4 L 426.22,149.49 L 422.55,145.5 L 418.92,141.47 L 415.75,137.89 L 414.39,136.57 L 411.26,134.01 L 408.14,131.45 L 404.99,128.88 L 400.13,125.49 L 395.24,122.17 L 394.5,121.68 L 393.52,121.11 L 388.57,118.66 L 383.59,116.17 L 379.01,114.09 L 376.04,112.7 L 373.08,111.3 L 369.08,109.64 L 365.1,108.02 L 362.84,107.11 L 358.58,105.61 L 354.26,104.1 L 352.34,103.47 L 351.96,103.36 L 346.84,101.84 L 341.75,100.27 L 339.7,99.7 L 335.43,98.52 L 331.15,97.37 L 327.71,96.59 L 324.09,95.77 L 320.47,94.95 L 315.96,94.06 L 312.92,93.46 L 309.87,92.85 L 304.41,91.92 L 299.06,90.99 L 295.83,90.52 L 292.57,90.05 L 287.72,89.36 L 284.04,88.93 L 280.36,88.51 L 276.07,88.01 L 272.15,87.62 L 268.28,87.22 L 264.58,86.82 L 260.56,86.45 L 256.57,86.09 L 253.27,85.81 L 249.13,85.59 L 245,85.39 L 241.96,85.25 L 237.73,85.13 L 233.52,85 L 230.67,84.89 L 226.4,84.8 L 222.15,84.67 L 219.4,84.56 L 215.14,84.44 L 210.89,84.33 L 208.15,84.28 L 203.91,84.32 L 199.63,84.4 L 196.77,84.47 L 192.49,84.66 L 188.2,84.86 L 185.16,85.02 L 181.04,85.33 L 176.95,85.64 L 173.75,85.89 L 169.85,86.26 L 165.92,86.63 L 162.37,86.98 L 158.63,87.42 L 154.92,87.86 L 151.02,88.32 L 147.62,88.77 L 144.24,89.2 L 139.92,89.7 L 136.84,90.11 L 133.75,90.49 L 128.85,91.11 L 123.38,91.93 L 117.76,92.81 L 113.04,93.65 L 109.81,94.23 L 106.57,94.83 L 102.89,95.65 L 99.29,96.5 L 95.69,97.38 L 93.15,98.09 L 89.05,99.23 L 84.94,100.38 L 83.63,100.8 L 79.32,102.15 L 75.06,103.51 L 74.46,103.72 L 74.33,103.77 L 70.15,105.43 L 65.95,107.06 L 64.06,107.79 L 60.82,109.16 L 57.59,110.49 L 53.66,112.13 L 49.44,114.14 L 46.36,115.64 L 43.27,117.15 L 41.5,118.14 L 36.42,120.92 L 33.87,122.51 L 32.76,123.2 L 29.82,125.29 L 26.9,127.35 L 22.3,130.64 L 19.91,132.63 L 15.64,136.19 L 13.25,138.57 L 11.63,140.22 L 9.51,142.69 L 7.41,145.15 L 4.5,148.57 L 1.6,151.99 L 1.42,152.26 L 1.26,152.49 L -0.88,156.3 L -3.04,160.1 L -5.33,164.1 L -7.64,168.09 L -7.81,168.44 L -7.99,168.82 L -9.2,172.43 L -10.42,176.03 Z" fill="#1a1a1a" stroke="#1a1a1a" stroke-width="0.4" stroke-linejoin="round" />
</g></g>
<g clip-path="url(#clip-0-1)"><g transform="translate(452,0)">  <rect width="430" height="360" fill="#faf9f5" />
  <path d="M 130.44,168.58 L 128.77,168 L 125.86,167.04 L 122.92,166.15 L 122.37,166.02 L 122.35,166.02 L 117.13,164.36 L 116.2,164.08 L 113.46,162.99 L 112.56,162.62 L 112.01,163.85 L 112.88,164.27 L 115.56,165.63 L 116.61,165.97 L 121.82,167.67 L 121.97,167.71 L 122.43,167.82 L 125.36,168.72 L 128.33,169.52 L 130.06,169.91 Z" fill="#1a1a1a" stroke="#1a1a1a" stroke-width="0.4" stroke-linejoin="round" />
  <polyline points="112.29,163.24 111.9,163.07 111.68,162.93" fill="none" stroke="#1a1a1a" stroke-width="1.507" stroke-opacity="0.32" stroke-dasharray="4,3" stroke-linecap="round" stroke-linejoin="round" />
  <path d="M 112.04,162.36 L 111.57,161.86 L 111.08,161.35 L 110.29,161.15 L 110.37,161.24 L 110.28,161.33 L 109.85,162.6 L 110.21,162.84 L 110.31,162.82 L 110.09,162.73 L 110.5,163.17 L 111.32,163.5 Z" fill="#1a1a1a" stroke="#1a1a1a" stroke-width="0.4" stroke-linejoin="round" />
  <polyline points="110.07,161.96 110.07,161.96 110.76,162.5 111.03,162.54 111.96,163.05 112.43,163.76 113.12,164.65 114.08,165.54 115.64,167.1 116.06,167.99 116.62,169.06 117.81,170.87 119.18,173 119.55,174.26 120.03,175.8 120.9,177.88 121.73,179.91 121.98,181.78 122.29,184.03 122.69,185.73 123.05,187.24 122.97,189.63 122.86,192.2 122.91,193.28 122.96,194.23 122.35,196.61 121.78,198.73 121.67,199.47 121.58,200.15 120.7,201.87 120.1,203 119.88,203.69 119.75,204.3 119.15,204.97 118.91,205.16 118.66,205.65 118.76,205.76 118.74,205.76 118.74,205.74 118.94,205.36 119.44,204.78 119.92,204.48 121.54,203.32 121.65,203.27 122.08,203.03 123.75,201.76 124.57,201.15 126.63,199.94 128.75,198.69 130.36,197.91 133.9,196.17 134.8,195.81 139.68,193.82 139.79,193.78 140.52,193.54 145.09,191.83 145.94,191.52 150.97,189.94 152.79,189.36 157.44,188.07 160.19,187.3 164.45,186.32 168.02,185.51 171.85,184.82 176.08,184.05 179.46,183.57 184.16,182.88 187.21,182.54 192.37,181.95 195.23,181.71 200.81,181.22 203.55,181.07 209.38,180.76 212.05,180.73 215.01,180.71 217.98,180.71 220.69,180.8 226.61,180.99 229.45,181.18 235.25,181.59 238.35,181.9 243.96,182.44 247.44,182.88 252.59,183.49 256.47,184.07 260.92,184.75 265.25,185.6 268.84,186.34 273.73,187.62 276.34,188.33 281.88,190.17 283.34,190.66 286.45,191.9 289.54,193.13 289.7,193.2 290.39,193.53 295.39,195.65 296.35,196.12 300.33,198.08 302.39,199.27 304.51,200.46 307.63,202.61 307.79,202.72 307.98,202.9 310.2,204.26 310.87,204.96 311.25,205.37 311.17,205.57 311.26,205.28 310.29,204.11 310.21,203.54 308.62,199.69 308.61,199.62 307.96,196.69 307.27,193.81 307.27,193.66 307.12,190.33 306.97,187 307.22,185.96 307.68,182.91 308.17,179.85 309.12,177.74 310.78,173.02 312.47,170.6 314.35,167.14 316.05,165.52 318.02,162.97 318.62,162.67 318.82,162.5 319.52,162.01" fill="none" stroke="#1a1a1a" stroke-width="1.29" stroke-opacity="0.32" stroke-dasharray="4,3" stroke-linecap="round" stroke-linejoin="round" />
  <path d="M 319.46,161.33 L 318.49,161.35 L 317.7,162.22 L 317.57,162.45 L 318.19,163.65 L 318.85,163.48 L 319.44,162.76 L 319.58,162.68 Z" fill="#1a1a1a" stroke="#1a1a1a" stroke-width="0.4" stroke-linejoin="round" />
  <polyline points="317.88,163.05 316.76,163.63" fill="none" stroke="#1a1a1a" stroke-width="1.506" stroke-opacity="0.32" stroke-dasharray="4,3" stroke-linecap="round" stroke-linejoin="round" />
  <path d="M 316.05,163.63 L 316.43,163 L 314.66,163.96 L 309.74,165.64 L 309.21,165.81 L 306.77,166.4 L 301.69,168 L 300,168.41 L 296.13,169.37 L 292.26,170.38 L 288.03,171.24 L 284.51,171.97 L 281.01,172.7 L 277.76,173.22 L 274.49,173.75 L 271.39,174.24 L 268.3,174.73 L 264.11,175.21 L 259.9,175.68 L 254.46,176.27 L 249.55,176.62 L 244.62,176.97 L 239.73,177.31 L 234.35,177.5 L 228.95,177.66 L 224.41,177.78 L 218.86,177.72 L 213.3,177.67 L 208.88,177.61 L 203.44,177.36 L 197.98,177.12 L 193.48,176.93 L 188.42,176.56 L 183.37,176.2 L 178.64,175.87 L 174.22,175.41 L 169.8,174.97 L 164.71,174.48 L 161.09,174 L 157.45,173.52 L 151.93,172.8 L 146.43,171.84 L 143.42,171.32 L 140.42,170.8 L 136.8,169.99 L 133.61,169.27 L 130.41,168.54 L 130.09,169.95 L 133.28,170.68 L 136.47,171.42 L 140.12,172.27 L 143.15,172.83 L 146.15,173.39 L 151.67,174.43 L 157.22,175.22 L 160.85,175.74 L 164.51,176.25 L 169.62,176.75 L 174.04,177.18 L 178.49,177.63 L 183.24,177.96 L 188.29,178.35 L 193.38,178.74 L 197.91,178.92 L 203.36,179.12 L 208.84,179.32 L 213.29,179.34 L 218.85,179.37 L 224.42,179.41 L 228.99,179.28 L 234.39,179.13 L 239.81,178.98 L 244.73,178.66 L 249.67,178.32 L 254.61,177.96 L 260.08,177.35 L 264.29,176.87 L 268.52,176.38 L 271.65,175.89 L 274.75,175.39 L 278.02,174.86 L 281.31,174.33 L 284.85,173.59 L 288.36,172.85 L 292.63,171.95 L 296.53,170.91 L 300.38,169.92 L 302.13,169.48 L 307.19,167.83 L 309.58,167.23 L 310.22,167.03 L 315.19,165.29 L 317.1,164.26 L 317.48,163.63 Z" fill="#1a1a1a" stroke="#1a1a1a" stroke-width="0.4" stroke-linejoin="round" />
  <path d="M 71.23,319.37 L 66.69,316.79 L 62.15,314.21 L 57.58,311.63 L 52.81,308.94 L 48.88,306.27 L 44.92,303.59 L 40.14,300.38 L 35.37,297.18 L 33.13,295.37 L 28.65,291.8 L 25.77,289.17 L 22.88,286.52 L 19.67,283.52 L 16.92,280.4 L 14.15,277.25 L 11.42,274.15 L 8.68,271.05 L 5.93,267.96 L 5.96,267.99 L 5.99,268.04 L 2.97,263.02 L -0.05,258 L -2.49,253.94 L -4.9,249.9 L -5.71,248.13 L -6.64,246.12 L -8.01,241.97 L -9.37,237.78 L -10.69,233.71 L -12.01,229.68 L -12.51,227.44 L -13.01,225.24 L -13.46,221.15 L -13.91,217.01 L -14.39,212.6 L -14.9,208.21 L -14.92,206.78 L -14.96,205.49 L -14.54,201.13 L -14.12,196.76 L -13.67,192.04 L -13.2,187.29 L -13.15,187.08 L -13.12,186.9 L -11.61,182.3 L -10.05,177.68 L -11.35,177.24 L -12.92,181.86 L -14.48,186.45 L -14.56,186.79 L -14.63,187.13 L -15.17,191.88 L -15.7,196.6 L -16.19,200.97 L -16.67,205.37 L -16.65,206.82 L -16.62,208.37 L -16.1,212.8 L -15.6,217.2 L -15.15,221.33 L -14.72,225.5 L -14.2,227.81 L -13.69,230.16 L -12.36,234.26 L -11.02,238.32 L -9.61,242.51 L -8.18,246.7 L -7.19,248.81 L -6.31,250.68 L -3.86,254.77 L -1.4,258.82 L 1.63,263.83 L 4.64,268.85 L 4.69,268.93 L 4.75,269 L 7.48,272.11 L 10.19,275.22 L 12.92,278.34 L 15.68,281.49 L 18.49,284.67 L 21.78,287.72 L 24.68,290.37 L 27.61,293.04 L 32.13,296.63 L 34.44,298.49 L 39.25,301.71 L 44.03,304.91 L 48,307.58 L 52.01,310.26 L 56.84,312.94 L 61.44,315.48 L 66.01,318.02 L 70.55,320.57 Z" fill="#1a1a1a" stroke="#1a1a1a" stroke-width="0.4" stroke-linejoin="round" />
  <polyline points="-10.7,177.46 -10.22,176.07" fill="none" stroke="#1a1a1a" stroke-width="1.448" stroke-opacity="0.32" stroke-dasharray="4,3" stroke-linecap="round" stroke-linejoin="round" />
  <path d="M -9.64,176.27 L -8.38,172.63 L -7.13,169.03 L -7,168.79 L -6.87,168.51 L -4.51,164.56 L -2.15,160.65 L 0.09,156.96 L 2.31,153.28 L 2.42,153.14 L 2.53,152.98 L 5.5,149.66 L 8.46,146.33 L 10.58,143.94 L 12.69,141.57 L 14.29,140.02 L 16.63,137.78 L 20.86,134.36 L 23.19,132.45 L 27.74,129.16 L 30.63,127.03 L 33.5,124.9 L 34.54,124.23 L 37.02,122.64 L 42.02,119.86 L 43.74,118.89 L 46.81,117.4 L 49.93,115.92 L 54.2,113.9 L 58.17,112.25 L 61.46,110.88 L 64.7,109.5 L 66.57,108.78 L 70.79,107.15 L 74.99,105.49 L 75.06,105.47 L 75.63,105.27 L 79.89,103.9 L 84.19,102.52 L 85.45,102.1 L 89.49,100.91 L 93.53,99.73 L 96,99 L 99.54,98.11 L 103.13,97.23 L 106.8,96.36 L 110.02,95.73 L 113.27,95.11 L 118,94.23 L 123.63,93.37 L 129.1,92.56 L 133.99,91.95 L 137.08,91.54 L 140.16,91.13 L 144.46,90.64 L 147.84,90.22 L 151.22,89.79 L 155.08,89.38 L 158.77,88.99 L 162.47,88.61 L 165.99,88.35 L 169.89,88.05 L 173.77,87.72 L 176.96,87.48 L 181.01,87.14 L 185.06,86.77 L 188.01,86.58 L 192.19,86.34 L 196.35,86.18 L 199.16,86.16 L 203.43,86.14 L 207.7,86.11 L 210.47,86.13 L 214.81,86.15 L 219.15,86.16 L 221.96,86.22 L 226.32,86.29 L 230.69,86.36 L 233.6,86.46 L 237.93,86.62 L 242.24,86.77 L 245.32,86.95 L 249.53,87.18 L 253.7,87.38 L 257,87.62 L 260.98,87.9 L 264.92,88.2 L 268.49,88.58 L 272.2,88.99 L 275.89,89.43 L 279.92,90 L 283.4,90.49 L 286.89,90.96 L 291.57,91.67 L 294.76,92.13 L 297.95,92.57 L 303.36,93.42 L 309.02,94.27 L 312.21,94.82 L 315.44,95.35 L 320.24,96.13 L 324.05,96.86 L 327.86,97.61 L 331.42,98.36 L 335.81,99.51 L 340.13,100.71 L 342.17,101.28 L 347.25,102.87 L 352.32,104.36 L 352.67,104.46 L 354.51,105.05 L 358.73,106.49 L 362.93,107.94 L 365.14,108.82 L 369.15,110.43 L 373.15,112.05 L 376.09,113.4 L 379.05,114.75 L 383.53,116.8 L 388.32,119.35 L 393.07,121.97 L 393.91,122.5 L 394.59,123 L 399.4,126.49 L 404.25,129.92 L 407.41,132.44 L 410.6,134.95 L 413.76,137.47 L 415.02,138.66 L 418.17,142.18 L 421.72,146.23 L 425.22,150.29 L 427.35,153.17 L 429.67,157.13 L 432.04,161.1 L 434.4,165.03 L 436.78,169.78 L 438.38,174.17 L 440,178.59 L 441.62,182.97 L 442.81,187.31 L 443.56,192.64 L 444.32,198.01 L 445.07,203.37 L 445.19,205.84 L 444.82,210.56 L 444.45,215.3 L 444.08,220.04 L 443.71,224.76 L 443.59,225.45 L 442.06,230.36 L 440.52,235.31 L 438.94,240.31 L 437.34,245.33 L 436.94,246.24 L 434.41,250.71 L 431.89,255.18 L 429.38,259.63 L 426.89,264.03 L 423.77,268.45 L 420.41,272.39 L 417.04,276.35 L 413.72,280.27 L 409.61,284.27 L 405.5,288.27 L 401.41,292.23 L 398.88,294.37 L 396.47,296.05 L 391.61,299.46 L 386.73,302.89 L 381.89,306.33 L 378.05,308.58 L 374.18,310.83 L 370.32,313.07 L 366.45,315.31 L 363.73,316.89 L 361.04,318.15 L 358.33,319.42 L 353.5,321.46 L 348.63,323.51 L 343.78,325.58 L 338.62,327.39 L 333.22,329.29 L 327.84,331.19 L 322.5,333.09 L 317.04,334.62 L 311.57,336.15 L 306.01,337.7 L 300.49,339.24 L 295.47,340.27 L 290.43,341.31 L 285.38,342.35 L 281.59,343.14 L 277.83,343.93 L 273.29,344.56 L 268.72,345.21 L 264.14,345.87 L 259.55,346.54 L 254.26,347.31 L 249.26,347.7 L 244.23,348.08 L 239.19,348.45 L 234.15,348.81 L 230.14,349.11 L 225.01,349.17 L 219.86,349.22 L 214.71,349.26 L 209.56,349.28 L 205.84,349.29 L 200.88,348.99 L 195.9,348.69 L 190.91,348.39 L 185.92,348.09 L 181.6,347.82 L 177.06,347.25 L 172.51,346.66 L 167.95,346.08 L 163.39,345.5 L 157.74,344.8 L 152.53,343.82 L 147.31,342.84 L 142.08,341.89 L 138.27,341.19 L 134.48,340.52 L 130.38,339.51 L 126.26,338.5 L 122.15,337.5 L 117.15,336.28 L 112.19,335.05 L 108.01,333.68 L 103.8,332.29 L 99.56,330.88 L 95.32,329.43 L 91.11,327.98 L 86.88,326.14 L 81.73,323.93 L 76.59,321.73 L 71.45,319.56 L 71.22,319.46 L 71.15,319.42 L 70.64,320.51 L 70.71,320.55 L 70.98,320.67 L 76.11,322.85 L 81.24,325.06 L 86.38,327.29 L 90.65,329.16 L 94.91,330.64 L 99.15,332.08 L 103.4,333.51 L 107.6,334.9 L 111.84,336.3 L 116.84,337.55 L 121.84,338.79 L 125.94,339.8 L 130.06,340.81 L 134.2,341.83 L 138.03,342.51 L 141.84,343.2 L 147.07,344.14 L 152.29,345.11 L 157.54,346.1 L 163.22,346.84 L 167.77,347.44 L 172.33,348.05 L 176.88,348.66 L 181.46,349.26 L 185.83,349.55 L 190.82,349.88 L 195.8,350.21 L 200.78,350.54 L 205.78,350.86 L 209.56,350.87 L 214.71,350.86 L 219.87,350.84 L 225.02,350.81 L 230.2,350.76 L 234.28,350.45 L 239.32,350.05 L 244.35,349.63 L 249.38,349.21 L 254.43,348.8 L 259.76,348.03 L 264.35,347.38 L 268.93,346.73 L 273.5,346.08 L 278.09,345.44 L 281.91,344.65 L 285.69,343.87 L 290.74,342.83 L 295.79,341.79 L 300.86,340.73 L 306.42,339.16 L 311.98,337.58 L 317.43,336.02 L 322.94,334.47 L 328.33,332.56 L 333.71,330.65 L 339.1,328.76 L 344.3,326.94 L 349.2,324.83 L 354.05,322.75 L 358.89,320.68 L 361.63,319.41 L 364.38,318.14 L 367.17,316.56 L 371.06,314.36 L 374.94,312.15 L 378.83,309.92 L 382.75,307.65 L 387.64,304.18 L 392.5,300.73 L 397.34,297.27 L 399.78,295.53 L 402.39,293.29 L 406.48,289.27 L 410.57,285.25 L 414.72,281.21 L 418.1,277.24 L 421.47,273.29 L 424.88,269.31 L 428.09,264.8 L 430.65,260.35 L 433.18,255.91 L 435.71,251.44 L 438.26,246.96 L 438.76,245.81 L 440.39,240.77 L 441.99,235.78 L 443.56,230.83 L 445.1,225.89 L 445.28,224.91 L 445.64,220.16 L 445.99,215.42 L 446.34,210.68 L 446.72,205.89 L 446.59,203.2 L 445.84,197.8 L 445.08,192.43 L 444.32,187 L 443.09,182.49 L 441.46,178.06 L 439.83,173.64 L 438.2,169.16 L 435.76,164.29 L 433.37,160.3 L 431.02,156.34 L 428.65,152.32 L 426.43,149.31 L 422.89,145.22 L 419.32,141.16 L 416.13,137.61 L 414.74,136.3 L 411.54,133.76 L 408.37,131.23 L 405.18,128.68 L 400.32,125.21 L 395.52,121.71 L 394.81,121.19 L 393.85,120.58 L 389.07,117.97 L 384.23,115.4 L 379.71,113.31 L 376.75,111.95 L 373.78,110.58 L 369.74,108.95 L 365.73,107.36 L 363.46,106.47 L 359.23,105.03 L 355,103.59 L 353.13,102.99 L 352.75,102.89 L 347.69,101.41 L 342.6,99.85 L 340.53,99.27 L 336.19,98.07 L 331.76,96.92 L 328.16,96.17 L 324.33,95.41 L 320.49,94.67 L 315.68,93.89 L 312.46,93.35 L 309.26,92.79 L 303.6,91.9 L 298.2,90.98 L 295,90.5 L 291.81,90.02 L 287.12,89.33 L 283.61,88.89 L 280.13,88.43 L 276.09,87.88 L 272.38,87.45 L 268.67,87.02 L 265.06,86.62 L 261.1,86.31 L 257.11,86.02 L 253.8,85.79 L 249.61,85.58 L 245.41,85.35 L 242.31,85.17 L 237.98,85.01 L 233.66,84.85 L 230.73,84.74 L 226.35,84.67 L 221.98,84.6 L 219.16,84.55 L 214.81,84.58 L 210.48,84.59 L 207.7,84.58 L 203.42,84.62 L 199.15,84.64 L 196.31,84.67 L 192.11,84.84 L 187.92,85.07 L 184.94,85.27 L 180.88,85.63 L 176.84,85.96 L 173.65,86.18 L 169.77,86.5 L 165.87,86.79 L 162.33,87.05 L 158.61,87.42 L 154.91,87.8 L 151.03,88.21 L 147.64,88.65 L 144.27,89.08 L 139.96,89.59 L 136.88,90.02 L 133.8,90.44 L 128.9,91.07 L 123.41,91.89 L 117.75,92.75 L 113,93.62 L 109.73,94.23 L 106.48,94.87 L 102.78,95.76 L 99.18,96.66 L 95.61,97.57 L 93.11,98.31 L 89.07,99.48 L 85.02,100.67 L 83.72,101.1 L 79.43,102.5 L 75.18,103.9 L 74.59,104.12 L 74.46,104.16 L 70.28,105.86 L 66.08,107.51 L 64.18,108.26 L 60.94,109.66 L 57.67,111.03 L 53.67,112.71 L 49.37,114.75 L 46.25,116.25 L 43.15,117.74 L 41.39,118.73 L 36.36,121.52 L 33.84,123.14 L 32.75,123.85 L 29.87,126 L 26.99,128.13 L 22.44,131.45 L 20.07,133.4 L 15.82,136.84 L 13.44,139.14 L 11.8,140.73 L 9.67,143.13 L 7.55,145.52 L 4.59,148.86 L 1.63,152.18 L 1.44,152.44 L 1.29,152.66 L -0.94,156.34 L -3.18,160.02 L -5.55,163.94 L -7.93,167.88 L -8.1,168.24 L -8.29,168.61 L -9.55,172.23 L -10.8,175.87 Z" fill="#1a1a1a" stroke="#1a1a1a" stroke-width="0.4" stroke-linejoin="round" />
  <path d="M 321.16,161.28 L 322.76,160.14 L 326.12,158.53 L 329.49,156.91 L 332.34,155.47 L 335.15,154.05 L 338.61,153.05 L 343.26,151.52 L 347.91,149.97 L 348.43,149.79 L 348.61,149.7 L 353.41,148.74 L 358.24,147.75 L 363.44,146.09 L 367.37,145.74 L 371.15,144.62 L 374.84,143.39 L 379.02,140.22 L 379.38,139.85 L 378.87,139.35 L 378.58,139.65 L 374.45,142.7 L 370.9,143.8 L 367.21,144.89 L 363.26,145.25 L 358.02,146.91 L 353.24,147.9 L 348.44,148.86 L 348.13,148.98 L 347.64,149.16 L 342.99,150.7 L 338.35,152.21 L 334.83,153.22 L 331.94,154.66 L 329.09,156.1 L 325.75,157.78 L 322.38,159.49 L 320.73,160.68 Z" fill="#1a1a1a" stroke="#1a1a1a" stroke-width="0.4" stroke-linejoin="round" />
  <path d="M 52.5,141.42 L 58.02,143.31 L 63.08,145.5 L 66.9,146.04 L 71.25,146.93 L 76.37,148.18 L 81.46,149.43 L 85.82,151.05 L 90.22,152.68 L 94.7,154.13 L 97.05,155.32 L 102.04,157.79 L 107.05,160.23 L 107.37,159.59 L 102.39,157.08 L 97.44,154.54 L 95.01,153.32 L 90.5,151.86 L 86.12,150.24 L 81.71,148.61 L 76.58,147.34 L 71.44,146.08 L 67.06,145.16 L 63.35,144.63 L 58.32,142.51 L 52.73,140.71 Z" fill="#1a1a1a" stroke="#1a1a1a" stroke-width="0.4" stroke-linejoin="round" />
</g></g>
<text x="14" y="26" font-family="sans-serif" font-size="14" fill="#999"></text>
<line x1="441" y1="8" x2="441" y2="352" stroke="#ddd" stroke-width="1" />
<text x="215" y="20" text-anchor="middle" font-family="sans-serif" font-size="14" fill="#999">silhouette only</text>
<text x="667" y="20" text-anchor="middle" font-family="sans-serif" font-size="14" fill="#999">+ suggestive contours</text>
</svg>