<svg xmlns="http://www.w3.org/2000/svg" viewBox="0 0 882 360" width="882" height="360">
<defs><clipPath id="clip-0-0" clipPathUnits="userSpaceOnUse"><rect x="0" y="0" width="430" height="360" /></clipPath><clipPath id="clip-0-1" clipPathUnits="userSpaceOnUse"><rect x="452" y="0" width="430" height="360" /></clipPath></defs>
<g clip-path="url(#clip-0-0)"><g transform="translate(0,0)">  <rect width="430" height="360" fill="#faf9f5" />
  <path d="M 128.59,168.47 L 125.68,167.38 L 122.72,166.48 L 122.16,166.34 L 122.15,166.34 L 116.88,164.63 L 115.94,164.35 L 113.12,163.29 L 112.19,162.93 L 111.62,164.24 L 112.51,164.68 L 115.25,166.06 L 116.32,166.38 L 121.58,168.09 L 121.74,168.13 L 122.19,168.24 L 125.15,169.14 L 128.18,169.83 Z" fill="#1a1a1a" stroke="#1a1a1a" stroke-width="0.4" stroke-linejoin="round" />
  <polyline points="111.91,163.59 111.51,163.41 111.28,163.27" fill="none" stroke="#1a1a1a" stroke-width="1.507" stroke-opacity="0.32" stroke-dasharray="4,3" stroke-linecap="round" stroke-linejoin="round" />
  <path d="M 111.65,162.69 L 111.17,162.15 L 110.62,161.59 L 109.86,161.35 L 110.06,161.45 L 109.78,161.51 L 109.15,162.74 L 109.48,163.12 L 109.73,163.13 L 109.57,163.03 L 110.05,163.53 L 110.91,163.85 Z" fill="#1a1a1a" stroke="#1a1a1a" stroke-width="0.4" stroke-linejoin="round" />
  <polyline points="109.47,162.12 109.47,162.12 110.14,162.6 110.41,162.61 111.35,163.07 111.86,163.72 112.59,164.56 113.59,165.4 115.18,166.89 115.63,167.74 116.21,168.76 117.46,170.5 118.91,172.58 119.33,173.81 119.87,175.34 120.81,177.42 121.7,179.45 121.97,181.33 122.3,183.58 122.71,185.28 123.06,186.79 122.98,189.18 122.87,191.75 122.92,192.84 122.96,193.8 122.37,196.22 121.82,198.41 121.72,199.19 121.63,199.91 120.78,201.76 120.22,203 120.01,203.75 119.9,204.45 119.3,205.22 119.06,205.47 118.83,206.04 118.93,206.23 118.91,206.23 118.91,206.22 119.03,205.9 119.44,205.35 119.83,205.05 121.2,203.81 121.3,203.76 121.68,203.49 123.16,202.09 123.92,201.43 125.87,200.09 127.9,198.73 129.45,197.88 132.91,196 133.81,195.61 138.75,193.47 138.85,193.44 139.6,193.17 144.27,191.38 145.14,191.05 150.27,189.41 152.12,188.82 156.86,187.51 159.68,186.74 164.04,185.73 167.69,184.89 171.57,184.17 175.85,183.4 179.29,182.93 184.11,182.29 187.25,181.99 192.57,181.5 195.51,181.34 201.2,181.02 203.97,180.96 209.85,180.79 212.55,180.78 215.54,180.76 218.54,180.72 221.27,180.77 227.24,180.9 230.1,181.07 235.89,181.48 238.93,181.82 244.31,182.43 247.6,182.92 252.48,183.64 256.16,184.31 260.45,185.08 264.67,186.02 268.2,186.8 273.04,188.14 275.61,188.85 281.08,190.63 282.53,191.09 285.64,192.23 288.77,193.33 288.94,193.39 289.65,193.68 294.95,195.51 295.98,195.93 300.21,197.76 302.38,198.99 304.56,200.26 307.65,202.62 307.81,202.73 308,202.93 310.22,204.42 310.91,205.13 311.29,205.51 311.21,205.68 311.29,205.3 310.27,204.09 310.18,203.53 308.59,199.76 308.58,199.7 307.96,196.78 307.29,193.89 307.3,193.75 307.14,190.4 306.97,187.06 307.21,186.03 307.67,183 308.19,179.98 309.18,177.92 310.95,173.25 312.73,170.86 314.75,167.4 316.53,165.77 318.59,163.16 319.2,162.87 319.4,162.69 320.11,162.19" fill="none" stroke="#1a1a1a" stroke-width="1.29" stroke-opacity="0.32" stroke-dasharray="4,3" stroke-linecap="round" stroke-linejoin="round" />
  <path d="M 320.06,161.5 L 319.09,161.48 L 318.27,162.33 L 318.16,162.58 L 318.78,163.82 L 319.46,163.67 L 320.06,162.97 L 320.16,162.87 Z" fill="#1a1a1a" stroke="#1a1a1a" stroke-width="0.4" stroke-linejoin="round" />
  <polyline points="318.47,163.2 317.32,163.76" fill="none" stroke="#1a1a1a" stroke-width="1.506" stroke-opacity="0.32" stroke-dasharray="4,3" stroke-linecap="round" stroke-linejoin="round" />
  <path d="M 317,163.11 L 315.08,164.03 L 309.78,165.71 L 309.19,165.88 L 306.58,166.51 L 301.21,168.18 L 299.47,168.6 L 295.52,169.59 L 291.64,170.59 L 287.45,171.44 L 284,172.14 L 280.58,172.83 L 277.39,173.3 L 274.18,173.77 L 271.13,174.2 L 268.08,174.64 L 263.91,175.08 L 259.71,175.54 L 254.27,176.14 L 249.38,176.48 L 244.48,176.79 L 239.64,177.08 L 234.33,177.21 L 229.01,177.33 L 224.53,177.41 L 219.03,177.34 L 213.5,177.28 L 209.1,177.25 L 203.67,177.04 L 198.23,176.86 L 193.75,176.74 L 188.71,176.44 L 183.68,176.15 L 178.98,175.89 L 174.56,175.48 L 170.13,175.07 L 165.01,174.6 L 161.34,174.11 L 157.66,173.64 L 152.04,172.95 L 146.45,172.04 L 143.4,171.55 L 140.37,171.07 L 136.71,170.3 L 133.48,169.62 L 130.27,168.93 L 128.58,168.46 L 128.19,169.84 L 129.93,170.33 L 133.17,171.06 L 136.39,171.78 L 140.07,172.61 L 143.13,173.16 L 146.17,173.7 L 151.78,174.72 L 157.42,175.47 L 161.11,175.95 L 164.81,176.42 L 169.96,176.88 L 174.4,177.28 L 178.85,177.68 L 183.59,177.94 L 188.61,178.22 L 193.67,178.51 L 198.17,178.64 L 203.6,178.83 L 209.06,179.05 L 213.48,179.1 L 219.02,179.15 L 224.54,179.19 L 229.05,179.07 L 234.37,178.91 L 239.71,178.74 L 244.58,178.42 L 249.49,178.09 L 254.42,177.78 L 259.89,177.25 L 264.09,176.84 L 268.29,176.41 L 271.38,175.97 L 274.44,175.53 L 277.65,175.06 L 280.89,174.58 L 284.36,173.9 L 287.81,173.21 L 292.05,172.35 L 295.97,171.31 L 299.89,170.26 L 301.7,169.78 L 307.03,168.01 L 309.57,167.36 L 310.25,167.16 L 315.58,165.41 L 317.63,164.42 Z" fill="#1a1a1a" stroke="#1a1a1a" stroke-width="0.4" stroke-linejoin="round" />
  <path d="M 51.71,310.18 L 56.53,312.91 L 61.15,315.53 L 65.76,318.15 L 70.36,320.76 L 70.48,320.82 L 70.76,320.95 L 75.95,323.1 L 81.16,325.24 L 86.38,327.35 L 90.74,329.13 L 95.09,330.53 L 99.43,331.94 L 103.76,333.35 L 108.05,334.76 L 112.35,336.17 L 117.4,337.46 L 122.41,338.76 L 126.5,339.83 L 130.58,340.89 L 134.69,341.96 L 138.5,342.68 L 142.29,343.4 L 147.48,344.39 L 152.69,345.39 L 157.93,346.41 L 163.61,347.16 L 168.15,347.76 L 172.67,348.36 L 177.19,348.96 L 181.72,349.55 L 186.03,349.82 L 190.95,350.11 L 195.88,350.38 L 200.83,350.64 L 205.81,350.89 L 209.61,350.85 L 214.77,350.78 L 219.95,350.7 L 225.12,350.63 L 230.3,350.56 L 234.36,350.26 L 239.38,349.88 L 244.37,349.5 L 249.36,349.12 L 254.36,348.73 L 259.66,347.97 L 264.24,347.32 L 268.84,346.68 L 273.44,346.04 L 278.06,345.39 L 281.91,344.58 L 285.72,343.78 L 290.79,342.72 L 295.85,341.66 L 300.93,340.61 L 306.49,339.06 L 312.05,337.54 L 317.51,336.07 L 323.02,334.61 L 328.41,332.81 L 333.78,331.03 L 339.16,329.26 L 344.35,327.53 L 349.22,325.47 L 354.06,323.39 L 358.88,321.28 L 361.61,319.96 L 364.35,318.63 L 367.12,316.98 L 370.99,314.68 L 374.85,312.39 L 378.71,310.1 L 382.59,307.8 L 387.44,304.34 L 392.31,300.93 L 397.23,297.56 L 399.74,295.84 L 402.43,293.62 L 406.65,289.58 L 410.85,285.51 L 415.04,281.37 L 418.41,277.29 L 421.76,273.21 L 425.12,269.1 L 428.28,264.48 L 430.76,259.96 L 433.21,255.47 L 435.63,250.98 L 438.05,246.51 L 438.52,245.37 L 440.03,240.39 L 441.54,235.48 L 443.05,230.61 L 444.55,225.74 L 444.73,224.77 L 445.1,220.08 L 445.48,215.38 L 445.86,210.66 L 446.25,205.9 L 446.13,203.23 L 445.4,197.87 L 444.7,192.52 L 444.02,187.1 L 442.88,182.59 L 441.35,178.14 L 439.81,173.68 L 438.26,169.16 L 435.86,164.23 L 433.46,160.22 L 431.05,156.29 L 428.59,152.36 L 426.27,149.44 L 422.6,145.45 L 418.97,141.42 L 415.79,137.85 L 414.43,136.53 L 411.29,133.97 L 408.17,131.41 L 405.02,128.84 L 400.16,125.45 L 395.27,122.13 L 394.52,121.64 L 393.54,121.07 L 388.59,118.62 L 383.61,116.14 L 379.01,114.09 L 376.03,112.72 L 373.06,111.34 L 369.06,109.69 L 365.09,108.05 L 362.83,107.13 L 358.57,105.62 L 354.26,104.11 L 352.34,103.49 L 351.96,103.38 L 346.83,101.86 L 341.75,100.28 L 339.7,99.7 L 335.43,98.5 L 331.15,97.35 L 327.71,96.57 L 324.09,95.75 L 320.47,94.94 L 315.96,94.04 L 312.93,93.43 L 309.88,92.83 L 304.41,91.89 L 299.06,90.98 L 295.83,90.52 L 292.57,90.05 L 287.72,89.36 L 284.04,88.93 L 280.36,88.5 L 276.07,88.01 L 272.15,87.64 L 268.28,87.26 L 264.57,86.87 L 260.56,86.51 L 256.57,86.16 L 253.27,85.87 L 249.13,85.64 L 245,85.43 L 241.96,85.28 L 237.73,85.15 L 233.52,85.01 L 230.67,84.91 L 226.4,84.82 L 222.15,84.7 L 219.4,84.6 L 215.14,84.51 L 210.89,84.42 L 208.15,84.37 L 203.91,84.42 L 199.64,84.51 L 196.77,84.58 L 192.5,84.76 L 188.21,84.93 L 185.16,85.07 L 181.04,85.35 L 176.95,85.64 L 173.75,85.88 L 169.85,86.26 L 165.92,86.64 L 162.37,86.98 L 158.63,87.43 L 154.92,87.87 L 151.03,88.34 L 147.63,88.81 L 144.24,89.25 L 139.93,89.76 L 136.84,90.16 L 133.76,90.55 L 128.86,91.16 L 123.39,91.98 L 117.77,92.86 L 113.05,93.69 L 109.81,94.26 L 106.57,94.85 L 102.89,95.66 L 99.29,96.49 L 95.69,97.37 L 93.15,98.08 L 89.05,99.23 L 84.94,100.38 L 83.64,100.8 L 79.33,102.16 L 75.06,103.53 L 74.47,103.74 L 74.34,103.78 L 70.16,105.46 L 65.96,107.1 L 64.07,107.83 L 60.84,109.2 L 57.61,110.53 L 53.68,112.16 L 49.46,114.17 L 46.37,115.66 L 43.28,117.17 L 41.51,118.16 L 36.43,120.93 L 33.87,122.52 L 32.76,123.21 L 29.83,125.29 L 26.91,127.37 L 22.32,130.66 L 19.92,132.65 L 15.65,136.21 L 13.27,138.59 L 11.64,140.23 L 9.52,142.71 L 7.42,145.17 L 4.52,148.58 L 1.62,152.01 L 1.44,152.28 L 1.29,152.51 L -0.86,156.31 L -3.02,160.11 L -5.31,164.1 L -7.62,168.09 L -7.8,168.45 L -7.97,168.82 L -9.19,172.43 L -10.4,176.04 L -9.24,176.43 L -8.02,172.82 L -6.81,169.23 L -6.69,168.98 L -6.55,168.7 L -4.24,164.72 L -1.95,160.72 L 0.21,156.92 L 2.35,153.11 L 2.45,152.96 L 2.56,152.79 L 5.45,149.37 L 8.36,145.96 L 10.46,143.5 L 12.55,141.06 L 14.14,139.46 L 16.47,137.13 L 20.71,133.6 L 23.06,131.65 L 27.63,128.37 L 30.55,126.3 L 33.46,124.23 L 34.52,123.57 L 37.04,122.01 L 42.11,119.26 L 43.85,118.29 L 46.92,116.81 L 50.01,115.33 L 54.21,113.36 L 58.11,111.76 L 61.36,110.44 L 64.58,109.09 L 66.46,108.38 L 70.67,106.75 L 74.86,105.1 L 74.94,105.07 L 75.5,104.88 L 79.76,103.53 L 84.07,102.19 L 85.35,101.78 L 89.45,100.66 L 93.56,99.53 L 96.07,98.84 L 99.64,97.97 L 103.22,97.14 L 106.87,96.32 L 110.08,95.73 L 113.31,95.15 L 118.01,94.32 L 123.62,93.47 L 129.07,92.66 L 133.95,92.04 L 137.04,91.65 L 140.11,91.24 L 144.43,90.73 L 147.82,90.3 L 151.22,89.83 L 155.1,89.37 L 158.81,88.92 L 162.53,88.49 L 166.07,88.16 L 169.99,87.8 L 173.88,87.43 L 177.07,87.19 L 181.15,86.87 L 185.26,86.56 L 188.28,86.39 L 192.56,86.18 L 196.82,85.97 L 199.67,85.89 L 203.93,85.81 L 208.15,85.77 L 210.86,85.83 L 215.11,85.94 L 219.36,86.05 L 222.1,86.17 L 226.36,86.31 L 230.63,86.4 L 233.47,86.5 L 237.69,86.63 L 241.91,86.74 L 244.92,86.88 L 249.05,87.09 L 253.17,87.33 L 256.44,87.61 L 260.43,87.97 L 264.43,88.32 L 268.13,88.71 L 272.01,89.1 L 275.92,89.47 L 280.19,89.96 L 283.87,90.37 L 287.53,90.79 L 292.37,91.47 L 295.63,91.94 L 298.83,92.41 L 304.16,93.34 L 309.61,94.29 L 312.64,94.89 L 315.67,95.5 L 320.16,96.4 L 323.76,97.22 L 327.38,98.04 L 330.79,98.81 L 335.04,99.95 L 339.3,101.13 L 341.32,101.7 L 346.39,103.3 L 351.51,104.86 L 351.86,104.96 L 353.75,105.58 L 358.05,107.11 L 362.29,108.59 L 364.51,109.48 L 368.48,111.09 L 372.46,112.73 L 375.39,114.1 L 378.37,115.5 L 382.93,117.57 L 387.87,120.06 L 392.81,122.51 L 393.68,123.01 L 394.37,123.47 L 399.25,126.77 L 404.07,130.12 L 407.17,132.64 L 410.29,135.19 L 413.4,137.72 L 414.64,138.92 L 417.8,142.47 L 421.44,146.5 L 425.09,150.47 L 427.31,153.25 L 429.71,157.12 L 432.12,161.04 L 434.5,164.96 L 436.88,169.74 L 438.44,174.16 L 439.98,178.61 L 441.5,183 L 442.61,187.36 L 443.29,192.7 L 443.99,198.05 L 444.69,203.38 L 444.79,205.84 L 444.39,210.53 L 444,215.26 L 443.61,219.96 L 443.23,224.63 L 443.11,225.31 L 441.59,230.16 L 440.08,235.03 L 438.58,239.95 L 437.07,244.9 L 436.7,245.8 L 434.26,250.23 L 431.8,254.7 L 429.35,259.18 L 426.91,263.64 L 423.84,268.15 L 420.53,272.21 L 417.21,276.3 L 413.92,280.35 L 409.81,284.46 L 405.63,288.52 L 401.44,292.52 L 398.84,294.66 L 396.39,296.34 L 391.48,299.75 L 386.62,303.18 L 381.8,306.61 L 377.97,308.87 L 374.12,311.15 L 370.25,313.44 L 366.38,315.74 L 363.66,317.35 L 360.98,318.64 L 358.27,319.93 L 353.45,321.99 L 348.61,324.02 L 343.79,326.03 L 338.66,327.75 L 333.29,329.55 L 327.92,331.36 L 322.58,333.16 L 317.12,334.59 L 311.65,336.06 L 306.08,337.57 L 300.56,339.09 L 295.52,340.12 L 290.46,341.16 L 285.39,342.22 L 281.58,343.01 L 277.78,343.8 L 273.21,344.46 L 268.62,345.12 L 264.02,345.78 L 259.44,346.44 L 254.19,347.2 L 249.24,347.59 L 244.26,347.97 L 239.26,348.33 L 234.25,348.68 L 230.24,348.97 L 225.1,349.02 L 219.93,349.08 L 214.75,349.15 L 209.58,349.23 L 205.85,349.3 L 200.9,349.08 L 195.96,348.84 L 191.04,348.59 L 186.12,348.32 L 181.86,348.06 L 177.38,347.49 L 172.87,346.91 L 168.34,346.32 L 163.8,345.72 L 158.16,344.98 L 152.96,343.97 L 147.75,342.98 L 142.54,342.01 L 138.75,341.33 L 134.98,340.64 L 130.91,339.61 L 126.82,338.57 L 122.72,337.53 L 117.71,336.25 L 112.7,334.97 L 108.45,333.55 L 104.16,332.13 L 99.82,330.71 L 95.49,329.31 L 91.18,327.93 L 86.86,326.18 L 81.63,324.07 L 76.44,321.93 L 71.25,319.77 L 71.01,319.66 L 70.99,319.65 L 66.38,317.04 L 61.77,314.43 L 57.15,311.81 L 52.33,309.08 Z" fill="#1a1a1a" stroke="#1a1a1a" stroke-width="0.4" stroke-linejoin="round" />
  <polyline points="-9.82,176.23 -10.29,177.61" fill="none" stroke="#1a1a1a" stroke-width="1.448" stroke-opacity="0.32" stroke-dasharray="4,3" stroke-linecap="round" stroke-linejoin="round" />
  <path d="M -10.95,177.38 L -12.52,181.94 L -14.11,186.49 L -14.19,186.83 L -14.26,187.18 L -14.85,191.92 L -15.42,196.66 L -15.94,201.04 L -16.43,205.45 L -16.41,206.9 L -16.39,208.45 L -15.9,212.86 L -15.41,217.25 L -14.95,221.37 L -14.49,225.53 L -13.95,227.85 L -13.41,230.19 L -12.01,234.29 L -10.61,238.38 L -9.17,242.61 L -7.75,246.88 L -6.78,249.03 L -5.93,250.94 L -3.54,255.1 L -1.17,259.23 L 1.75,264.31 L 4.68,269.41 L 4.74,269.49 L 4.8,269.58 L 7.53,272.71 L 10.27,275.84 L 13.02,278.94 L 15.81,282.06 L 18.62,285.19 L 21.87,288.16 L 24.72,290.74 L 27.57,293.33 L 31.97,296.81 L 34.24,298.62 L 38.98,301.74 L 43.71,304.87 L 47.67,307.52 L 51.63,310.21 L 52.42,309.05 L 48.46,306.35 L 44.53,303.65 L 39.85,300.43 L 35.2,297.27 L 33.03,295.49 L 28.67,292.02 L 25.86,289.47 L 23.02,286.9 L 19.84,283.98 L 17.1,280.91 L 14.33,277.79 L 11.59,274.68 L 8.85,271.56 L 6.1,268.44 L 6.13,268.48 L 6.17,268.54 L 3.2,263.47 L 0.24,258.41 L -2.15,254.3 L -4.54,250.19 L -5.35,248.39 L -6.29,246.34 L -7.69,242.12 L -9.08,237.86 L -10.43,233.76 L -11.77,229.7 L -12.28,227.46 L -12.79,225.27 L -13.25,221.18 L -13.71,217.07 L -14.19,212.68 L -14.64,208.31 L -14.65,206.88 L -14.66,205.6 L -14.16,201.24 L -13.7,196.85 L -13.22,192.1 L -12.74,187.35 L -12.7,187.14 L -12.67,186.97 L -11.15,182.4 L -9.62,177.83 Z" fill="#1a1a1a" stroke="#1a1a1a" stroke-width="0.4" stroke-linejoin="round" />
</g></g>
<g clip-path="url(#clip-0-1)"><g transform="translate(452,0)">  <rect width="430" height="360" fill="#faf9f5" />
  <path d="M 128.75,168.1 L 125.86,167.04 L 122.92,166.15 L 122.37,166.02 L 122.35,166.02 L 117.13,164.35 L 116.21,164.08 L 113.46,162.98 L 112.56,162.62 L 112.01,163.86 L 112.87,164.28 L 115.56,165.64 L 116.61,165.97 L 121.82,167.67 L 121.97,167.71 L 122.43,167.82 L 125.36,168.72 L 128.35,169.43 Z" fill="#1a1a1a" stroke="#1a1a1a" stroke-width="0.4" stroke-linejoin="round" />
  <polyline points="112.29,163.24 111.9,163.07 111.68,162.93" fill="none" stroke="#1a1a1a" stroke-width="1.507" stroke-opacity="0.32" stroke-dasharray="4,3" stroke-linecap="round" stroke-linejoin="round" />
  <path d="M 112.04,162.36 L 111.57,161.86 L 111.08,161.35 L 110.29,161.15 L 110.37,161.24 L 110.28,161.33 L 109.85,162.6 L 110.21,162.84 L 110.31,162.82 L 110.09,162.73 L 110.5,163.17 L 111.32,163.5 Z" fill="#1a1a1a" stroke="#1a1a1a" stroke-width="0.4" stroke-linejoin="round" />
  <polyline points="110.07,161.96 110.07,161.96 110.76,162.5 111.03,162.54 111.96,163.05 112.43,163.76 113.12,164.65 114.08,165.54 115.64,167.1 116.06,167.99 116.62,169.06 117.81,170.87 119.18,173 119.55,174.26 120.03,175.8 120.9,177.88 121.73,179.91 121.98,181.78 122.29,184.03 122.69,185.73 123.05,187.24 122.97,189.63 122.86,192.2 122.91,193.28 122.96,194.23 122.35,196.61 121.78,198.73 121.67,199.47 121.58,200.15 120.7,201.87 120.1,203 119.88,203.69 119.75,204.3 119.15,204.97 118.91,205.16 118.66,205.65 118.76,205.76 118.74,205.76 118.74,205.74 118.94,205.36 119.44,204.78 119.92,204.48 121.54,203.32 121.65,203.27 122.08,203.03 123.75,201.76 124.57,201.15 126.63,199.94 128.75,198.69 130.36,197.91 133.9,196.17 134.8,195.81 139.68,193.82 139.79,193.78 140.52,193.54 145.09,191.83 145.94,191.52 150.97,189.94 152.79,189.36 157.44,188.07 160.19,187.3 164.45,186.32 168.02,185.51 171.85,184.82 176.08,184.05 179.46,183.57 184.16,182.88 187.21,182.54 192.37,181.95 195.23,181.71 200.81,181.22 203.55,181.07 209.38,180.76 212.05,180.73 215.01,180.71 217.98,180.71 220.69,180.8 226.61,180.99 229.45,181.18 235.25,181.59 238.35,181.9 243.96,182.44 247.44,182.88 252.59,183.49 256.47,184.07 260.92,184.75 265.25,185.6 268.84,186.34 273.73,187.62 276.34,188.33 281.88,190.17 283.34,190.66 286.45,191.9 289.54,193.13 289.7,193.2 290.39,193.53 295.39,195.65 296.35,196.12 300.33,198.08 302.39,199.27 304.51,200.46 307.63,202.61 307.79,202.72 307.98,202.9 310.2,204.26 310.87,204.96 311.25,205.37 311.17,205.57 311.26,205.28 310.29,204.11 310.21,203.54 308.62,199.69 308.61,199.62 307.96,196.69 307.27,193.81 307.27,193.66 307.12,190.33 306.97,187 307.22,185.96 307.68,182.91 308.17,179.85 309.12,177.74 310.78,173.02 312.47,170.6 314.35,167.14 316.05,165.52 318.02,162.97 318.62,162.67 318.82,162.5 319.52,162.01" fill="none" stroke="#1a1a1a" stroke-width="1.29" stroke-opacity="0.32" stroke-dasharray="4,3" stroke-linecap="round" stroke-linejoin="round" />
  <path d="M 319.46,161.33 L 318.49,161.35 L 317.7,162.22 L 317.57,162.45 L 318.19,163.65 L 318.85,163.48 L 319.44,162.76 L 319.58,162.68 Z" fill="#1a1a1a" stroke="#1a1a1a" stroke-width="0.4" stroke-linejoin="round" />
  <polyline points="317.88,163.05 316.76,163.63" fill="none" stroke="#1a1a1a" stroke-width="1.506" stroke-opacity="0.32" stroke-dasharray="4,3" stroke-linecap="round" stroke-linejoin="round" />
  <path d="M 316.43,163 L 314.66,163.95 L 309.74,165.64 L 309.21,165.81 L 306.77,166.4 L 301.69,168 L 300,168.41 L 296.13,169.38 L 292.26,170.38 L 288.03,171.24 L 284.51,171.97 L 281.01,172.7 L 277.76,173.22 L 274.49,173.75 L 271.39,174.24 L 268.3,174.73 L 264.11,175.21 L 259.9,175.68 L 254.46,176.27 L 249.55,176.62 L 244.62,176.97 L 239.73,177.31 L 234.35,177.5 L 228.95,177.66 L 224.41,177.78 L 218.86,177.72 L 213.3,177.67 L 208.88,177.61 L 203.44,177.36 L 197.98,177.11 L 193.48,176.93 L 188.42,176.56 L 183.37,176.2 L 178.64,175.87 L 174.22,175.41 L 169.8,174.96 L 164.71,174.48 L 161.09,174 L 157.45,173.51 L 151.93,172.79 L 146.43,171.83 L 143.42,171.31 L 140.42,170.79 L 136.8,169.98 L 133.61,169.26 L 130.43,168.54 L 128.75,168.07 L 128.35,169.46 L 130.08,169.95 L 133.28,170.68 L 136.47,171.43 L 140.12,172.28 L 143.15,172.84 L 146.15,173.4 L 151.67,174.44 L 157.22,175.23 L 160.85,175.74 L 164.51,176.25 L 169.62,176.75 L 174.04,177.18 L 178.49,177.63 L 183.24,177.97 L 188.29,178.35 L 193.38,178.74 L 197.91,178.92 L 203.36,179.12 L 208.84,179.32 L 213.29,179.34 L 218.85,179.37 L 224.42,179.41 L 228.99,179.28 L 234.39,179.13 L 239.81,178.98 L 244.73,178.66 L 249.67,178.32 L 254.61,177.96 L 260.08,177.35 L 264.29,176.87 L 268.52,176.39 L 271.65,175.89 L 274.75,175.39 L 278.02,174.87 L 281.31,174.34 L 284.85,173.59 L 288.37,172.85 L 292.63,171.95 L 296.53,170.91 L 300.38,169.92 L 302.13,169.48 L 307.19,167.83 L 309.58,167.23 L 310.22,167.03 L 315.19,165.29 L 317.1,164.26 Z" fill="#1a1a1a" stroke="#1a1a1a" stroke-width="0.4" stroke-linejoin="round" />
  <path d="M 52.11,310.14 L 56.91,312.82 L 61.49,315.38 L 66.05,317.93 L 70.6,320.49 L 70.71,320.55 L 70.98,320.67 L 76.11,322.85 L 81.25,325.05 L 86.38,327.28 L 90.65,329.14 L 94.91,330.62 L 99.16,332.07 L 103.4,333.49 L 107.61,334.89 L 111.84,336.29 L 116.84,337.54 L 121.84,338.78 L 125.95,339.78 L 130.06,340.78 L 134.2,341.8 L 138.03,342.49 L 141.84,343.19 L 147.07,344.15 L 152.29,345.13 L 157.53,346.14 L 163.21,346.89 L 167.76,347.5 L 172.32,348.1 L 176.88,348.69 L 181.46,349.28 L 185.83,349.56 L 190.82,349.89 L 195.8,350.21 L 200.79,350.52 L 205.78,350.83 L 209.56,350.83 L 214.71,350.81 L 219.87,350.79 L 225.02,350.76 L 230.2,350.72 L 234.28,350.42 L 239.31,350.04 L 244.35,349.65 L 249.38,349.24 L 254.44,348.84 L 259.77,348.05 L 264.35,347.38 L 268.93,346.72 L 273.5,346.07 L 278.08,345.43 L 281.9,344.63 L 285.69,343.85 L 290.74,342.82 L 295.78,341.78 L 300.86,340.75 L 306.43,339.2 L 312,337.65 L 317.46,336.1 L 322.96,334.55 L 328.35,332.63 L 333.73,330.72 L 339.12,328.83 L 344.33,327.01 L 349.22,324.9 L 354.08,322.82 L 358.92,320.77 L 361.67,319.5 L 364.42,318.22 L 367.21,316.64 L 371.1,314.44 L 374.98,312.21 L 378.85,309.95 L 382.75,307.64 L 387.62,304.15 L 392.49,300.7 L 397.33,297.27 L 399.79,295.53 L 402.41,293.31 L 406.51,289.3 L 410.61,285.29 L 414.77,281.25 L 418.15,277.29 L 421.53,273.34 L 424.93,269.35 L 428.15,264.83 L 430.71,260.38 L 433.23,255.94 L 435.75,251.47 L 438.29,246.98 L 438.79,245.82 L 440.42,240.78 L 442.01,235.79 L 443.57,230.84 L 445.1,225.89 L 445.28,224.91 L 445.63,220.16 L 445.98,215.42 L 446.34,210.68 L 446.72,205.89 L 446.59,203.2 L 445.84,197.8 L 445.09,192.42 L 444.33,187 L 443.1,182.49 L 441.46,178.05 L 439.84,173.64 L 438.2,169.16 L 435.76,164.29 L 433.37,160.3 L 431.01,156.34 L 428.65,152.32 L 426.42,149.32 L 422.88,145.22 L 419.32,141.16 L 416.13,137.61 L 414.74,136.3 L 411.55,133.75 L 408.37,131.23 L 405.19,128.67 L 400.32,125.2 L 395.51,121.72 L 394.8,121.2 L 393.84,120.6 L 389.06,117.99 L 384.22,115.42 L 379.69,113.35 L 376.73,112 L 373.76,110.64 L 369.72,109.01 L 365.7,107.42 L 363.44,106.53 L 359.21,105.1 L 354.98,103.65 L 353.11,103.06 L 352.73,102.95 L 347.67,101.48 L 342.58,99.91 L 340.52,99.33 L 336.18,98.12 L 331.75,96.96 L 328.15,96.19 L 324.33,95.42 L 320.49,94.67 L 315.69,93.86 L 312.47,93.31 L 309.26,92.75 L 303.61,91.88 L 298.2,91 L 294.99,90.55 L 291.8,90.09 L 287.11,89.42 L 283.6,88.98 L 280.12,88.52 L 276.08,87.97 L 272.37,87.53 L 268.66,87.09 L 265.06,86.69 L 261.09,86.38 L 257.11,86.09 L 253.79,85.86 L 249.61,85.65 L 245.41,85.43 L 242.31,85.25 L 237.98,85.09 L 233.65,84.93 L 230.73,84.82 L 226.35,84.74 L 221.98,84.65 L 219.16,84.59 L 214.81,84.59 L 210.48,84.58 L 207.7,84.56 L 203.42,84.6 L 199.15,84.62 L 196.31,84.65 L 192.11,84.82 L 187.92,85.06 L 184.94,85.26 L 180.88,85.62 L 176.84,85.96 L 173.65,86.19 L 169.77,86.52 L 165.87,86.82 L 162.34,87.08 L 158.61,87.44 L 154.91,87.81 L 151.03,88.2 L 147.64,88.62 L 144.27,89.03 L 139.96,89.54 L 136.87,89.96 L 133.79,90.38 L 128.89,91.01 L 123.4,91.83 L 117.74,92.7 L 112.99,93.58 L 109.73,94.21 L 106.47,94.86 L 102.77,95.75 L 99.18,96.65 L 95.61,97.57 L 93.11,98.31 L 89.08,99.5 L 85.03,100.69 L 83.73,101.13 L 79.44,102.53 L 75.19,103.93 L 74.59,104.14 L 74.47,104.19 L 70.28,105.87 L 66.08,107.51 L 64.18,108.25 L 60.93,109.64 L 57.65,111 L 53.65,112.67 L 49.35,114.7 L 46.23,116.2 L 43.13,117.7 L 41.36,118.68 L 36.34,121.48 L 33.82,123.11 L 32.73,123.82 L 29.85,125.97 L 26.97,128.1 L 22.41,131.42 L 20.05,133.37 L 15.79,136.81 L 13.41,139.11 L 11.77,140.7 L 9.64,143.11 L 7.52,145.5 L 4.58,148.84 L 1.62,152.17 L 1.43,152.43 L 1.27,152.65 L -0.95,156.34 L -3.18,160.02 L -5.54,163.94 L -7.91,167.89 L -8.09,168.25 L -8.27,168.62 L -9.53,172.23 L -10.8,175.87 L -9.65,176.27 L -8.4,172.63 L -7.14,169.03 L -7.02,168.78 L -6.88,168.5 L -4.52,164.56 L -2.15,160.65 L 0.09,156.97 L 2.32,153.29 L 2.43,153.15 L 2.55,152.99 L 5.51,149.67 L 8.48,146.35 L 10.61,143.97 L 12.72,141.6 L 14.32,140.05 L 16.65,137.81 L 20.88,134.39 L 23.21,132.47 L 27.76,129.19 L 30.65,127.06 L 33.52,124.93 L 34.56,124.26 L 37.03,122.67 L 42.04,119.9 L 43.76,118.94 L 46.83,117.45 L 49.95,115.97 L 54.22,113.94 L 58.19,112.28 L 61.47,110.9 L 64.7,109.5 L 66.57,108.78 L 70.78,107.14 L 74.98,105.47 L 75.06,105.44 L 75.62,105.24 L 79.88,103.87 L 84.18,102.49 L 85.44,102.07 L 89.49,100.9 L 93.53,99.73 L 96,99 L 99.54,98.11 L 103.13,97.24 L 106.8,96.37 L 110.03,95.75 L 113.28,95.15 L 118.01,94.28 L 123.64,93.43 L 129.11,92.62 L 134,92.01 L 137.09,91.6 L 140.16,91.18 L 144.46,90.68 L 147.84,90.26 L 151.22,89.81 L 155.08,89.38 L 158.77,88.97 L 162.47,88.58 L 165.98,88.32 L 169.89,88.02 L 173.77,87.7 L 176.96,87.48 L 181.01,87.15 L 185.06,86.79 L 188.01,86.59 L 192.19,86.36 L 196.35,86.2 L 199.16,86.17 L 203.43,86.16 L 207.7,86.12 L 210.47,86.14 L 214.81,86.13 L 219.15,86.12 L 221.96,86.16 L 226.32,86.22 L 230.69,86.28 L 233.6,86.39 L 237.93,86.54 L 242.24,86.7 L 245.33,86.88 L 249.53,87.1 L 253.71,87.31 L 257.01,87.55 L 260.98,87.83 L 264.92,88.13 L 268.5,88.5 L 272.21,88.91 L 275.9,89.34 L 279.93,89.91 L 283.41,90.4 L 286.91,90.87 L 291.58,91.6 L 294.77,92.08 L 297.96,92.55 L 303.36,93.44 L 309.01,94.31 L 312.21,94.85 L 315.44,95.38 L 320.23,96.13 L 324.05,96.85 L 327.87,97.59 L 331.43,98.32 L 335.82,99.46 L 340.15,100.65 L 342.18,101.23 L 347.27,102.8 L 352.34,104.29 L 352.69,104.39 L 354.53,104.98 L 358.75,106.43 L 362.95,107.88 L 365.17,108.76 L 369.17,110.37 L 373.18,112 L 376.11,113.35 L 379.07,114.71 L 383.55,116.77 L 388.33,119.33 L 393.08,121.95 L 393.92,122.49 L 394.59,122.99 L 399.4,126.49 L 404.24,129.93 L 407.4,132.44 L 410.59,134.96 L 413.76,137.47 L 415.02,138.66 L 418.17,142.18 L 421.72,146.23 L 425.22,150.29 L 427.36,153.17 L 429.68,157.13 L 432.04,161.1 L 434.4,165.03 L 436.78,169.78 L 438.37,174.17 L 440,178.59 L 441.61,182.97 L 442.8,187.31 L 443.55,192.64 L 444.31,198.01 L 445.07,203.37 L 445.19,205.84 L 444.82,210.56 L 444.45,215.3 L 444.08,220.04 L 443.71,224.76 L 443.59,225.45 L 442.05,230.36 L 440.5,235.31 L 438.92,240.3 L 437.3,245.31 L 436.9,246.22 L 434.36,250.68 L 431.83,255.15 L 429.33,259.6 L 426.84,263.99 L 423.71,268.4 L 420.35,272.34 L 416.99,276.3 L 413.67,280.22 L 409.57,284.23 L 405.48,288.24 L 401.4,292.22 L 398.87,294.36 L 396.48,296.06 L 391.63,299.49 L 386.75,302.92 L 381.89,306.33 L 378.03,308.55 L 374.15,310.77 L 370.27,313 L 366.4,315.23 L 363.69,316.8 L 361,318.07 L 358.3,319.34 L 353.47,321.38 L 348.6,323.44 L 343.75,325.52 L 338.59,327.32 L 333.2,329.22 L 327.82,331.12 L 322.48,333.01 L 317.02,334.54 L 311.55,336.08 L 305.99,337.65 L 300.49,339.22 L 295.47,340.27 L 290.43,341.32 L 285.38,342.37 L 281.6,343.15 L 277.83,343.94 L 273.29,344.58 L 268.72,345.22 L 264.14,345.87 L 259.55,346.52 L 254.26,347.28 L 249.26,347.67 L 244.23,348.07 L 239.19,348.46 L 234.16,348.84 L 230.14,349.15 L 225.01,349.22 L 219.86,349.27 L 214.71,349.31 L 209.56,349.33 L 205.84,349.33 L 200.88,349.01 L 195.9,348.69 L 190.91,348.38 L 185.92,348.08 L 181.6,347.81 L 177.07,347.22 L 172.51,346.62 L 167.96,346.03 L 163.4,345.45 L 157.75,344.76 L 152.54,343.8 L 147.31,342.84 L 142.08,341.9 L 138.26,341.21 L 134.47,340.54 L 130.37,339.54 L 126.26,338.53 L 122.15,337.52 L 117.15,336.29 L 112.19,335.06 L 108,333.69 L 103.8,332.3 L 99.55,330.89 L 95.32,329.45 L 91.1,328 L 86.87,326.16 L 81.73,323.94 L 76.59,321.74 L 71.46,319.56 L 71.22,319.45 L 71.19,319.44 L 66.65,316.87 L 62.09,314.31 L 57.51,311.75 L 52.71,309.06 Z" fill="#1a1a1a" stroke="#1a1a1a" stroke-width="0.4" stroke-linejoin="round" />
  <polyline points="-10.22,176.07 -10.7,177.46" fill="none" stroke="#1a1a1a" stroke-width="1.448" stroke-opacity="0.32" stroke-dasharray="4,3" stroke-linecap="round" stroke-linejoin="round" />
  <path d="M -11.35,177.24 L -12.93,181.85 L -14.49,186.45 L -14.57,186.79 L -14.64,187.13 L -15.17,191.88 L -15.69,196.6 L -16.15,200.97 L -16.61,205.37 L -16.58,206.82 L -16.55,208.36 L -16.04,212.79 L -15.55,217.2 L -15.1,221.32 L -14.66,225.49 L -14.14,227.8 L -13.63,230.14 L -12.29,234.24 L -10.97,238.31 L -9.59,242.5 L -8.18,246.7 L -7.19,248.82 L -6.32,250.69 L -3.86,254.77 L -1.4,258.82 L 1.63,263.83 L 4.64,268.85 L 4.69,268.93 L 4.75,269 L 7.48,272.11 L 10.2,275.22 L 12.92,278.33 L 15.67,281.5 L 18.47,284.69 L 21.74,287.76 L 24.64,290.41 L 27.57,293.08 L 32.11,296.65 L 34.43,298.51 L 39.26,301.69 L 44.06,304.86 L 48.06,307.5 L 52.03,310.16 L 52.79,309.03 L 48.83,306.35 L 44.88,303.65 L 40.13,300.4 L 35.38,297.17 L 33.15,295.34 L 28.69,291.76 L 25.81,289.13 L 22.92,286.48 L 19.69,283.5 L 16.93,280.39 L 14.15,277.26 L 11.41,274.16 L 8.67,271.06 L 5.93,267.96 L 5.96,267.99 L 5.99,268.04 L 2.97,263.02 L -0.06,258.01 L -2.49,253.94 L -4.9,249.9 L -5.71,248.13 L -6.65,246.12 L -8.03,241.98 L -9.42,237.8 L -10.76,233.74 L -12.08,229.69 L -12.57,227.45 L -13.07,225.25 L -13.51,221.15 L -13.96,217.02 L -14.45,212.61 L -14.96,208.22 L -14.99,206.79 L -15.02,205.49 L -14.58,201.13 L -14.14,196.76 L -13.66,192.04 L -13.19,187.29 L -13.14,187.08 L -13.11,186.9 L -11.6,182.3 L -10.05,177.68 Z" fill="#1a1a1a" stroke="#1a1a1a" stroke-width="0.4" stroke-linejoin="round" />
  <path d="M 378.86,139.34 L 378.57,139.64 L 374.44,142.68 L 370.89,143.78 L 367.21,144.87 L 363.25,145.24 L 358.02,146.91 L 353.24,147.9 L 348.44,148.86 L 348.13,148.98 L 347.64,149.16 L 342.99,150.7 L 338.35,152.22 L 334.83,153.23 L 331.95,154.68 L 329.1,156.12 L 325.76,157.8 L 322.39,159.5 L 320.74,160.68 L 321.16,161.27 L 322.75,160.13 L 326.11,158.51 L 329.48,156.89 L 332.34,155.46 L 335.14,154.04 L 338.61,153.04 L 343.26,151.52 L 347.91,149.97 L 348.43,149.79 L 348.61,149.7 L 353.41,148.74 L 358.25,147.75 L 363.44,146.1 L 367.38,145.76 L 371.16,144.64 L 374.85,143.41 L 379.02,140.23 L 379.39,139.86 Z" fill="#1a1a1a" stroke="#1a1a1a" stroke-width="0.4" stroke-linejoin="round" />
  <path d="M 107.37,159.58 L 102.4,157.06 L 97.45,154.52 L 95.02,153.3 L 90.5,151.85 L 86.12,150.24 L 81.71,148.61 L 76.58,147.34 L 71.44,146.08 L 67.06,145.17 L 63.34,144.65 L 58.31,142.53 L 52.73,140.72 L 52.5,141.41 L 58.02,143.28 L 63.09,145.48 L 66.91,146.02 L 71.25,146.92 L 76.37,148.18 L 81.46,149.43 L 85.82,151.05 L 90.22,152.68 L 94.69,154.14 L 97.04,155.34 L 102.03,157.81 L 107.04,160.24 Z" fill="#1a1a1a" stroke="#1a1a1a" stroke-width="0.4" stroke-linejoin="round" />
</g></g>
<text x="14" y="26" font-family="sans-serif" font-size="14" fill="#999"></text>
<line x1="441" y1="8" x2="441" y2="352" stroke="#ddd" stroke-width="1" />
<text x="215" y="20" text-anchor="middle" font-family="sans-serif" font-size="14" fill="#999">silhouette only</text>
<text x="667" y="20" text-anchor="middle" font-family="sans-serif" font-size="14" fill="#999">+ suggestive contours</text>
</svg>