<svg xmlns="http://www.w3.org/2000/svg" viewBox="0 0 1184 360" width="1184" height="360">
<defs><clipPath id="clip-0-0" clipPathUnits="userSpaceOnUse"><rect x="0" y="0" width="380" height="360" /></clipPath><clipPath id="clip-0-1" clipPathUnits="userSpaceOnUse"><rect x="402" y="0" width="380" height="360" /></clipPath><clipPath id="clip-0-2" clipPathUnits="userSpaceOnUse"><rect x="804" y="0" width="380" height="360" /></clipPath></defs>
<g clip-path="url(#clip-0-0)"><g transform="translate(0,0)">  <rect width="380" height="360" fill="#faf9f5" />
  <path d="M 253.35,293.56 L 253.76,287.66 L 254.11,281.73 L 254.42,275.76 L 254.71,269.76 L 255.01,263.75 L 255.29,257.77 L 255.6,251.81 L 255.96,245.85 L 256.34,239.89 L 256.74,233.9 L 257.14,227.9 L 257.53,221.9 L 257.91,215.91 L 258.28,209.92 L 258.66,203.96 L 259.01,198 L 259.32,192.04 L 259.67,186.09 L 260.11,180.1 L 260.58,174.06 L 261.02,168.01 L 261.41,162.03 L 261.79,156.09 L 262.16,150.15 L 262.54,144.2 L 262.93,138.29 L 263.33,132.4 L 263.71,126.48 L 264.03,120.53 L 264.3,114.59 L 264.62,108.66 L 265.05,102.72 L 265.55,96.73 L 266,90.72 L 266.29,84.75 L 266.45,78.82 L 266.58,72.92 L 266.8,66.98 L 267.09,61.02 L 267.43,55.05 L 267.81,49.1 L 266.94,49.04 L 266.56,55 L 266.2,60.97 L 265.89,66.94 L 265.63,72.89 L 265.47,78.8 L 265.29,84.71 L 265,90.66 L 264.54,96.65 L 264.03,102.64 L 263.59,108.59 L 263.26,114.54 L 262.99,120.48 L 262.67,126.42 L 262.29,132.33 L 261.9,138.23 L 261.51,144.14 L 261.13,150.08 L 260.74,156.02 L 260.36,161.97 L 259.99,167.94 L 259.57,173.98 L 259.11,180.03 L 258.68,186.02 L 258.34,191.99 L 258.03,197.94 L 257.67,203.9 L 257.27,209.86 L 256.89,215.84 L 256.5,221.83 L 256.09,227.83 L 255.67,233.83 L 255.26,239.82 L 254.89,245.79 L 254.54,251.75 L 254.24,257.72 L 253.99,263.71 L 253.75,269.71 L 253.48,275.71 L 253.2,281.68 L 252.86,287.6 L 252.47,293.5 Z" fill="#1a1a1a" stroke="#1a1a1a" stroke-width="0.4" stroke-linejoin="round" />
  <path d="M 128.02,293.4 L 127.71,287.44 L 127.35,281.48 L 126.9,275.52 L 126.43,269.52 L 125.96,263.52 L 125.49,257.58 L 125.01,251.7 L 124.58,245.82 L 124.22,239.88 L 123.91,233.93 L 123.62,227.98 L 123.28,221.99 L 122.89,215.93 L 122.47,209.85 L 122.09,203.83 L 121.76,197.86 L 121.46,191.87 L 121.17,185.89 L 120.88,179.9 L 120.59,173.93 L 120.26,167.98 L 119.91,162.05 L 119.53,156.14 L 119.15,150.26 L 118.79,144.39 L 118.47,138.47 L 118.16,132.48 L 117.82,126.48 L 117.46,120.54 L 117.11,114.65 L 116.76,108.75 L 116.4,102.78 L 116.04,96.79 L 115.66,90.81 L 115.23,84.85 L 114.74,78.89 L 114.23,72.93 L 113.72,66.98 L 113.21,61.02 L 112.75,55.07 L 112.38,49.12 L 111.5,49.17 L 111.88,55.13 L 112.32,61.09 L 112.81,67.05 L 113.28,73.01 L 113.76,78.97 L 114.23,84.92 L 114.66,90.88 L 115.03,96.86 L 115.38,102.84 L 115.73,108.81 L 116.07,114.72 L 116.42,120.6 L 116.77,126.54 L 117.12,132.54 L 117.44,138.52 L 117.76,144.45 L 118.11,150.33 L 118.49,156.21 L 118.87,162.11 L 119.23,168.04 L 119.57,173.99 L 119.88,179.95 L 120.18,185.93 L 120.48,191.92 L 120.78,197.91 L 121.09,203.89 L 121.46,209.92 L 121.86,216 L 122.25,222.05 L 122.57,228.04 L 122.85,233.98 L 123.14,239.94 L 123.51,245.89 L 123.94,251.78 L 124.44,257.66 L 124.95,263.6 L 125.46,269.59 L 125.97,275.6 L 126.44,281.55 L 126.82,287.5 L 127.13,293.45 Z" fill="#1a1a1a" stroke="#1a1a1a" stroke-width="0.4" stroke-linejoin="round" />
  <path d="M 244.8,311.1 L 248.31,306.94 L 250.91,302.55 L 252.6,298.07 L 253.33,293.61 L 252.49,293.46 L 251.65,297.81 L 250.02,302.11 L 247.5,306.37 L 244.14,310.56 Z" fill="#1a1a1a" stroke="#1a1a1a" stroke-width="0.4" stroke-linejoin="round" />
  <polyline points="252.91,293.53 252.81,289.46 251.99,285.47 250.49,281.65 248.32,277.99 245.22,274.59 242.06,271.11 237.96,268.08 233.92,265.05 229.16,262.64 224.39,260.21 218.98,258.45 213.52,256.79 207.67,255.89 201.85,255 195.84,254.74 189.82,254.43 183.81,254.71 177.86,254.98 172.14,255.97 166.4,257.02 161.01,258.79 155.58,260.5 150.7,262.79 145.86,265.05 141.87,267.93 137.93,270.78 134.97,274.14 131.97,277.55 129.85,281.31 128.4,285.25 127.63,289.3 127.57,293.43" fill="none" stroke="#1a1a1a" stroke-width="0.829" stroke-opacity="0.2" stroke-dasharray="4,3" stroke-linecap="round" stroke-linejoin="round" />
  <path d="M 127.15,293.51 L 128.25,299.23 L 129.5,302.1 L 130.72,304.94 L 132.69,307.65 L 134.67,310.33 L 137.38,312.81 L 140.07,315.3 L 143.43,317.53 L 146.81,319.78 L 150.83,321.69 L 154.86,323.59 L 159.38,325.09 L 163.89,326.62 L 168.77,327.69 L 173.67,328.75 L 178.83,329.3 L 184,329.86 L 189.24,329.92 L 194.46,330 L 199.6,329.57 L 204.74,329.15 L 209.64,328.24 L 214.57,327.31 L 219.16,325.89 L 223.78,324.45 L 227.92,322.56 L 232.07,320.67 L 235.61,318.43 L 239.12,316.18 L 241.96,313.66 L 244.76,311.16 L 244.17,310.5 L 241.37,312.99 L 238.58,315.45 L 235.11,317.64 L 231.61,319.82 L 227.52,321.66 L 223.43,323.53 L 218.87,324.96 L 214.34,326.37 L 209.47,327.29 L 204.61,328.19 L 199.52,328.59 L 194.43,328.99 L 189.25,328.91 L 184.06,328.84 L 178.94,328.28 L 173.83,327.72 L 168.99,326.66 L 164.18,325.6 L 159.72,324.09 L 155.25,322.61 L 151.27,320.74 L 147.32,318.87 L 144,316.67 L 140.7,314.49 L 138.06,312.07 L 135.4,309.66 L 133.47,307.07 L 131.54,304.47 L 130.34,301.73 L 129.12,299 L 128,293.34 Z" fill="#1a1a1a" stroke="#1a1a1a" stroke-width="0.4" stroke-linejoin="round" />
  <path d="M 258.52,54.59 L 261.58,53.52 L 264.66,52.38 L 267.46,50.17 L 267.86,48.74 L 267.29,47.26 L 264.14,44.95 L 258.45,43.06 L 254.5,42.27 L 250.51,41.49 L 245.28,40.84 L 240.13,40.23 L 235.05,39.69 L 229.96,39.19 L 224.99,39 L 219.99,38.77 L 214.99,38.46 L 210.02,38.12 L 205.07,37.81 L 199.87,37.82 L 194.66,37.91 L 189.43,37.97 L 184.2,37.94 L 178.98,37.86 L 173.97,38.03 L 168.93,38.24 L 163.84,38.44 L 158.74,38.62 L 153.65,38.78 L 148.3,39.28 L 143.01,39.79 L 137.68,40.33 L 132.26,40.91 L 127.97,41.84 L 123.68,42.77 L 120.41,43.71 L 117.06,44.52 L 112.89,46.42 L 111.72,47.79 L 111.39,49.31 L 111.98,50.83 L 113.51,52.16 L 118.78,54.29 L 123.08,55.23 L 127.39,56.17 L 133.24,56.99 L 139.04,57.78 L 143.83,58.17 L 148.6,58.55 L 153.38,58.96 L 158.81,59.27 L 164.22,59.59 L 169.65,59.93 L 175.5,59.99 L 181.35,60.01 L 187.21,60.01 L 193.08,60 L 198.94,60.01 L 204.81,60.05 L 210.42,59.84 L 216.02,59.63 L 221.61,59.42 L 226.6,59.03 L 231.57,58.64 L 236.56,58.21 L 240.74,57.63 L 244.91,57.06 L 249.07,56.5 L 253.77,55.55 L 258.45,54.61 L 258.27,53.69 L 253.59,54.63 L 248.91,55.56 L 244.78,56.11 L 240.61,56.67 L 236.46,57.23 L 231.49,57.63 L 226.52,58.01 L 221.55,58.38 L 215.98,58.59 L 210.38,58.79 L 204.79,59 L 198.94,58.96 L 193.08,58.95 L 187.21,58.95 L 181.36,58.96 L 175.51,58.94 L 169.68,58.88 L 164.29,58.53 L 158.87,58.19 L 153.45,57.89 L 148.69,57.48 L 143.92,57.1 L 139.16,56.72 L 133.39,55.92 L 127.58,55.09 L 123.32,54.16 L 119.12,53.24 L 114,51.17 L 112.86,50.16 L 112.5,49.22 L 112.71,48.3 L 113.46,47.37 L 117.43,45.57 L 120.69,44.77 L 123.95,43.84 L 128.2,42.91 L 132.43,42 L 137.79,41.43 L 143.11,40.9 L 148.41,40.38 L 153.72,39.87 L 158.78,39.71 L 163.88,39.52 L 168.97,39.3 L 174.01,39.07 L 178.99,38.9 L 184.19,38.99 L 189.43,39.03 L 194.67,38.98 L 199.87,38.91 L 205.04,38.9 L 209.94,39.22 L 214.92,39.57 L 219.93,39.9 L 224.94,40.14 L 229.88,40.32 L 234.94,40.8 L 240.01,41.32 L 245.15,41.91 L 250.36,42.52 L 254.31,43.27 L 258.19,44.02 L 263.73,45.83 L 266.61,47.94 L 266.9,48.81 L 266.75,49.52 L 264.19,51.55 L 261.26,52.62 L 258.21,53.7 Z" fill="#1a1a1a" stroke="#1a1a1a" stroke-width="0.4" stroke-linejoin="round" />
  <path d="M 148.92,322.49 L 152.38,323.59 L 155.84,324.67 L 159.68,325.43 L 163.56,326.19 L 167.78,326.63 L 172.03,327.07 L 176.49,327.18 L 180.92,327.32 L 185.42,327.13 L 189.9,326.95 L 194.36,326.41 L 198.81,325.89 L 203.16,325.04 L 207.52,324.2 L 211.71,322.99 L 215.91,321.74 L 219.87,320.11 L 223.85,318.47 L 227.5,316.54 L 231.17,314.61 L 234.47,312.44 L 237.79,310.27 L 240.64,307.91 L 243.47,305.56 L 245.79,303.05 L 248.08,300.53 L 249.84,297.86 L 251.61,295.14 L 254.09,289.54 L 255.54,283.86 L 255.93,278.24 L 255.35,272.81 L 254.85,270.99 L 253.76,271.28 L 254.23,272.97 L 254.74,278.26 L 254.28,283.65 L 252.82,289.09 L 250.39,294.51 L 248.7,297.11 L 247.02,299.7 L 244.79,302.15 L 242.55,304.59 L 239.78,306.87 L 236.98,309.17 L 233.72,311.29 L 230.47,313.41 L 226.85,315.3 L 223.26,317.21 L 219.34,318.82 L 215.44,320.42 L 211.31,321.65 L 207.19,322.85 L 202.9,323.68 L 198.6,324.53 L 194.2,325.04 L 189.79,325.56 L 185.36,325.73 L 180.91,325.94 L 176.52,325.82 L 172.12,325.72 L 167.92,325.29 L 163.75,324.88 L 159.92,324.17 L 156.14,323.48 L 152.73,322.46 L 149.27,321.39 Z" fill="#1a1a1a" stroke="#1a1a1a" stroke-width="0.4" stroke-linejoin="round" />
  <polyline points="254.31,271.14 253.34,267.53 250.96,262.38 247.72,257.71 243.69,253.39 241.34,251.35 238.98,249.32 236.33,247.46 233.71,245.63 229.76,243.58 225.85,241.52 221.92,239.44 217.43,237.92 212.89,236.37 208.4,234.8 203.78,233.81 199.25,232.86 194.7,231.96 189.94,231.64 185.13,231.26 180.34,230.86 175.72,231 171.17,231.13 166.65,231.24 162.42,231.86 158.12,232.46 153.76,233.07 147.93,234.8 142.22,236.63 137.64,239.26 133.06,241.96 129.39,244.98 126.47,248.21 124.69,251.38" fill="none" stroke="#1a1a1a" stroke-width="1.165" stroke-opacity="0.32" stroke-dasharray="4,3" stroke-linecap="round" stroke-linejoin="round" />
  <path d="M 124.17,251.1 L 124,251.45 L 123.1,255.1 L 123.03,258.96 L 124.02,262.84 L 126.23,266.62 L 129.64,270.16 L 134.06,273.34 L 136.77,274.78 L 139.45,276.22 L 142.62,277.5 L 145.8,278.79 L 149.43,279.83 L 153.08,280.83 L 157.11,281.48 L 161.13,282.09 L 165.41,282.39 L 169.62,282.73 L 174.01,282.81 L 178.39,282.91 L 182.93,282.69 L 187.53,282.45 L 192.22,281.86 L 196.91,281.27 L 201.53,280.36 L 206.13,279.49 L 210.53,278.34 L 214.94,277.22 L 219.11,275.81 L 223.32,274.38 L 227.26,272.62 L 231.23,270.81 L 234.8,268.76 L 238.35,266.74 L 241.38,264.58 L 244.38,262.45 L 246.86,260.18 L 249.34,257.89 L 251.3,255.45 L 253.3,252.93 L 256.12,247.73 L 257.84,242.51 L 258.5,237.33 L 258.04,232.14 L 257.26,229.44 L 256.18,229.75 L 256.92,232.31 L 257.33,237.3 L 256.64,242.23 L 254.92,247.19 L 252.11,252.18 L 250.18,254.55 L 248.28,256.9 L 245.89,259.12 L 243.48,261.33 L 240.55,263.42 L 237.58,265.54 L 234.09,267.51 L 230.58,269.53 L 226.67,271.32 L 222.8,273.07 L 218.66,274.5 L 214.55,275.9 L 210.19,277.02 L 205.83,278.16 L 201.27,279.01 L 196.69,279.89 L 192.04,280.46 L 187.41,281.04 L 182.86,281.28 L 178.37,281.5 L 174.04,281.39 L 169.69,281.32 L 165.52,280.99 L 161.28,280.7 L 157.33,280.1 L 153.38,279.46 L 149.81,278.48 L 146.25,277.46 L 143.14,276.19 L 140.03,274.96 L 137.41,273.57 L 134.79,272.2 L 130.49,269.16 L 127.24,265.84 L 125.17,262.36 L 124.24,258.82 L 124.28,255.25 L 125.14,251.75 L 125.2,251.65 Z" fill="#1a1a1a" stroke="#1a1a1a" stroke-width="0.4" stroke-linejoin="round" />
  <polyline points="256.72,229.6 256.03,227.22 253.6,222.5 250.3,218.08 246.27,214.03 243.95,212.22 241.64,210.46 237.93,208.44 234.21,206.36 230.53,204.18 226.25,202.44 221.95,200.68 217.58,198.9 212.81,197.54 208.11,196.16 203.5,194.78 198.69,193.95 193.8,193.11 188.85,192.31 183.86,192.07 178.89,191.91 173.96,191.82 169.25,192.21 164.53,192.55 159.84,192.83 155.63,193.52 151.47,194.22 147.33,194.99 141.97,196.83 136.41,198.43 131.98,200.48 127.63,202.64 124.53,205.33 122.27,208.09 122.06,208.52" fill="none" stroke="#1a1a1a" stroke-width="1.192" stroke-opacity="0.32" stroke-dasharray="4,3" stroke-linecap="round" stroke-linejoin="round" />
  <path d="M 121.52,208.25 L 120.31,210.74 L 120.12,213.86 L 121.1,217.1 L 123.05,220.3 L 126.11,223.22 L 130.4,225.82 L 135.98,228.12 L 139.31,229.14 L 142.57,230.2 L 146.23,231.13 L 149.81,232.09 L 153.76,232.85 L 157.73,233.6 L 162.21,233.95 L 166.7,234.26 L 171.2,234.53 L 175.74,234.76 L 180.61,234.38 L 185.44,234 L 190.3,233.62 L 195.2,233.23 L 200.1,232.4 L 205.02,231.56 L 209.83,230.43 L 214.66,229.27 L 219.23,227.82 L 223.73,226.37 L 227.82,224.71 L 231.88,223.07 L 235.51,221.23 L 239.15,219.38 L 242.33,217.36 L 245.55,215.35 L 248.28,213.21 L 251.02,211.07 L 253.2,208.83 L 255.39,206.59 L 258.56,202.06 L 260.49,197.47 L 261.25,192.9 L 260.9,188.38 L 259.86,185.08 L 258.76,185.42 L 259.75,188.58 L 260.05,192.85 L 259.29,197.11 L 257.39,201.4 L 254.28,205.69 L 252.16,207.8 L 250.04,209.96 L 247.37,212.05 L 244.72,214.15 L 241.56,216.13 L 238.43,218.11 L 234.84,219.92 L 231.27,221.73 L 227.27,223.36 L 223.24,225.02 L 218.79,226.47 L 214.28,227.92 L 209.51,229.08 L 204.75,230.19 L 199.87,231 L 195.03,231.81 L 190.18,232.18 L 185.32,232.56 L 180.49,232.94 L 175.72,233.31 L 171.28,233.08 L 166.79,232.82 L 162.31,232.52 L 157.91,232.19 L 154.03,231.44 L 150.13,230.69 L 146.59,229.73 L 142.97,228.82 L 139.73,227.79 L 136.46,226.81 L 130.99,224.6 L 126.9,222.16 L 124.05,219.47 L 122.24,216.57 L 121.34,213.7 L 121.49,211.04 L 122.6,208.78 Z" fill="#1a1a1a" stroke="#1a1a1a" stroke-width="0.4" stroke-linejoin="round" />
  <polyline points="259.31,185.25 258.95,184.09 256.61,179.71 253.39,175.62 249.36,171.95 246.01,169.69 242.69,167.36 239.35,165.03 235.25,163.14 231.16,161.35 227.06,159.59 222.39,158.26 217.63,156.89 212.85,155.52 207.81,154.59 202.8,153.64 197.81,152.67 192.71,152.06 187.61,151.46 182.53,150.92 177.56,150.77 172.62,150.57 167.66,150.31 162.95,150.47 158.25,150.65 153.58,150.86 149.46,151.52 145.33,152.24 141.14,152.95 135.81,154.44 130.42,155.85 126.41,157.69 122.44,159.55 119.78,161.64 119.13,162.45" fill="none" stroke="#1a1a1a" stroke-width="1.217" stroke-opacity="0.32" stroke-dasharray="4,3" stroke-linecap="round" stroke-linejoin="round" />
  <path d="M 118.66,162.06 L 117.5,163.45 L 116.79,165.75 L 117.4,168.11 L 119.22,170.44 L 122.23,172.65 L 126.39,174.7 L 131.83,176.58 L 136.59,177.55 L 141.23,178.49 L 145.84,179.46 L 151.68,179.97 L 157.49,180.5 L 163.39,181.08 L 168.43,181.07 L 173.46,181.02 L 178.49,180.92 L 183.54,180.75 L 188.69,180.03 L 193.76,179.26 L 198.83,178.49 L 203.94,177.72 L 208.77,176.51 L 213.58,175.34 L 218.41,174.19 L 223.27,173.07 L 227.69,171.68 L 232.11,170.28 L 236.1,168.68 L 240.09,167.05 L 243.57,165.28 L 247.04,163.52 L 249.95,161.67 L 252.86,159.83 L 255.19,157.89 L 257.53,155.89 L 260.87,151.76 L 262.89,147.55 L 263.81,143.48 L 263.71,139.52 L 262.58,135.81 L 261.44,136.15 L 262.53,139.71 L 262.59,143.35 L 261.69,147.12 L 259.73,151.02 L 256.48,154.9 L 254.24,156.75 L 251.98,158.61 L 249.15,160.4 L 246.3,162.22 L 242.89,163.95 L 239.47,165.69 L 235.54,167.29 L 231.6,168.87 L 227.24,170.27 L 222.89,171.67 L 218.08,172.79 L 213.25,173.95 L 208.43,175.13 L 203.66,176.32 L 198.61,177.05 L 193.54,177.81 L 188.47,178.56 L 183.41,179.28 L 178.45,179.44 L 173.43,179.54 L 168.42,179.6 L 163.47,179.63 L 157.63,179.05 L 151.81,178.5 L 146.04,178 L 141.53,177.06 L 136.87,176.15 L 132.2,175.24 L 126.9,173.44 L 122.9,171.51 L 120.1,169.49 L 118.52,167.51 L 118.03,165.78 L 118.6,164.02 L 119.6,162.85 Z" fill="#1a1a1a" stroke="#1a1a1a" stroke-width="0.4" stroke-linejoin="round" />
  <polyline points="262.01,135.98 261.99,135.93 259.83,132.39 256.79,129 252.86,125.72 248.13,122.66 244.3,120.92 240.46,119.16 236.54,117.32 231.92,115.78 227.33,114.19 222.78,112.64 217.77,111.52 212.78,110.43 207.83,109.34 202.64,108.59 197.42,107.81 192.12,107.02 186.72,106.52 181.35,106 176.01,105.48 170.88,105.31 165.82,105.14 160.78,104.92 156.08,104.98 151.31,105.09 146.53,105.23 142.38,105.61 138.23,105.96 134.02,106.31 129.01,107.28 124.08,108.24 120.81,109.31 117.42,110.42 116.19,111.22" fill="none" stroke="#1a1a1a" stroke-width="1.243" stroke-opacity="0.32" stroke-dasharray="4,3" stroke-linecap="round" stroke-linejoin="round" />
  <path d="M 115.85,110.68 L 114.83,111.34 L 113.53,112.99 L 113.72,114.92 L 115.53,116.44 L 119.06,117.76 L 122.45,119.3 L 128.28,120.62 L 134.18,121.8 L 139.59,122.16 L 144.95,122.49 L 150.36,122.79 L 155.28,122.63 L 160.16,122.45 L 165.03,122.29 L 169.9,122.15 L 175.22,121.69 L 180.51,121.23 L 185.82,120.81 L 191.2,120.39 L 196.61,119.56 L 202.04,118.71 L 207.46,117.85 L 212.89,117 L 217.81,115.87 L 222.69,114.82 L 227.57,113.8 L 232.51,112.77 L 237.86,110.97 L 243.18,109.15 L 248.56,107.29 L 251.82,105.67 L 255.05,104.02 L 260.15,100.69 L 263.95,97.45 L 266.48,94.08 L 267.74,90.52 L 267.6,87.07 L 266.25,83.91 L 265.83,83.34 L 264.87,84.08 L 265.16,84.43 L 266.4,87.34 L 266.51,90.31 L 265.35,93.45 L 262.97,96.5 L 259.3,99.51 L 254.27,102.71 L 251.13,104.29 L 247.99,105.87 L 242.68,107.72 L 237.37,109.52 L 232.1,111.29 L 227.26,112.32 L 222.37,113.36 L 217.49,114.43 L 212.62,115.57 L 207.24,116.41 L 201.81,117.26 L 196.39,118.09 L 191.03,118.89 L 185.7,119.31 L 180.38,119.72 L 175.08,120.17 L 169.81,120.65 L 164.98,120.79 L 160.11,120.96 L 155.23,121.13 L 150.38,121.28 L 145.04,120.98 L 139.68,120.68 L 134.37,120.37 L 128.57,119.25 L 122.85,118 L 119.57,116.53 L 116.12,115.28 L 114.8,114.23 L 114.72,113.42 L 115.7,112.25 L 116.52,111.75 Z" fill="#1a1a1a" stroke="#1a1a1a" stroke-width="0.4" stroke-linejoin="round" />
  <polyline points="265.35,83.71 263.52,81.22 260.45,78.33 256.45,75.58 251.28,73.1 246.04,70.53 241.63,69.04 237.16,67.59 232.7,66.19 227.73,65.1 222.85,63.99 218.02,62.8 212.78,61.77 207.47,60.67 202.09,59.61 196.48,58.89 190.86,58.23 185.28,57.62 179.85,57.29 174.44,56.91 169.07,56.49 163.77,56.07 158.5,55.71 153.21,55.41 148,55.4 142.82,55.24 137.6,55.05 132.3,55 127,55 122.21,55.43 117.59,55.92 113,56.26" fill="none" stroke="#1a1a1a" stroke-width="1.268" stroke-opacity="0.32" stroke-dasharray="4,3" stroke-linecap="round" stroke-linejoin="round" />
  <path d="M 112.97,55.63 L 112.28,55.67 L 111.06,57.51 L 114.74,58.08 L 119.15,58.05 L 123.5,57.82 L 123.49,56.58 L 119.14,56.45 L 114.84,56.45 L 111.66,56.08 L 112.68,56.9 L 113.03,56.89 Z" fill="#1a1a1a" stroke="#1a1a1a" stroke-width="0.4" stroke-linejoin="round" />
  <polyline points="123.5,57.2 126,57.18" fill="none" stroke="#1a1a1a" stroke-width="1.41" stroke-opacity="0.32" stroke-dasharray="4,3" stroke-linecap="round" stroke-linejoin="round" />
  <path d="M 126,57.84 L 131.84,58.05 L 137.75,57.85 L 137.75,56.55 L 131.84,56.35 L 126.01,56.53 Z" fill="#1a1a1a" stroke="#1a1a1a" stroke-width="0.4" stroke-linejoin="round" />
</g></g>
<g clip-path="url(#clip-0-1)"><g transform="translate(402,0)">  <rect width="380" height="360" fill="#faf9f5" />
  <polyline points="70,265 320,255" fill="none" stroke="#1a1a1a" stroke-width="0.5" stroke-linecap="round" stroke-linejoin="round" />
  <polyline points="320,255 60,105" fill="none" stroke="#1a1a1a" stroke-width="0.5" stroke-linecap="round" stroke-linejoin="round" />
  <polyline points="60,105 310,95" fill="none" stroke="#1a1a1a" stroke-width="0.5" stroke-linecap="round" stroke-linejoin="round" />
  <polyline points="73.5,265 72.47,262.53 70,261.5 67.53,262.53 66.5,265 67.53,267.47 70,268.5 72.47,267.47 73.5,265" fill="none" stroke="#1a1a1a" stroke-width="1.5" stroke-linecap="round" stroke-linejoin="round" />
  <polyline points="323.5,255 322.47,252.53 320,251.5 317.53,252.53 316.5,255 317.53,257.47 320,258.5 322.47,257.47 323.5,255" fill="none" stroke="#1a1a1a" stroke-width="1.5" stroke-linecap="round" stroke-linejoin="round" />
  <polyline points="63.5,105 62.47,102.53 60,101.5 57.53,102.53 56.5,105 57.53,107.47 60,108.5 62.47,107.47 63.5,105" fill="none" stroke="#1a1a1a" stroke-width="1.5" stroke-linecap="round" stroke-linejoin="round" />
  <polyline points="313.5,95 312.47,92.53 310,91.5 307.53,92.53 306.5,95 307.53,97.47 310,98.5 312.47,97.47 313.5,95" fill="none" stroke="#1a1a1a" stroke-width="1.5" stroke-linecap="round" stroke-linejoin="round" />
  <path d="M 70.15,265.8 L 75.57,265.49 L 81.09,265.17 L 86.79,264.91 L 92.46,264.56 L 97.27,263.91 L 102,263.21 L 106.7,262.5 L 111.33,261.84 L 116.76,260.81 L 122.42,259.89 L 128.09,259.06 L 132.79,257.85 L 137.41,256.68 L 142.14,255.6 L 146.17,254.29 L 150.19,252.97 L 154.25,251.67 L 159.23,249.4 L 164.15,246.99 L 168.07,244.25 L 171.94,241.52 L 174.98,238.52 L 178.08,235.56 L 180.56,232.48 L 183.14,229.48 L 184.98,226.26 L 186.7,223.04 L 187.82,219.69 L 189.04,216.44 L 189.91,213.08 L 190.78,209.63 L 191.16,204.72 L 191.42,199.83 L 191.65,195.01 L 191.34,190.04 L 191.08,185.1 L 190.84,180.14 L 190.58,175.05 L 190.37,169.87 L 190.29,164.72 L 190.73,159.78 L 191.04,154.96 L 191.27,150.23 L 191.93,146.81 L 192.59,143.35 L 193.72,140.03 L 194.9,136.74 L 196.64,133.6 L 198.3,130.45 L 200.53,127.48 L 202.72,124.52 L 205.66,121.79 L 208.65,119.09 L 212.55,116.65 L 216.43,114.19 L 221.3,112.01 L 226.37,109.85 L 230.47,108.56 L 234.56,107.17 L 238.57,105.68 L 243.23,104.23 L 247.81,102.87 L 252.43,101.7 L 257.88,100.84 L 263.21,99.94 L 268.54,99 L 273.4,98.58 L 278.37,98.25 L 283.21,97.78 L 287.96,97.13 L 293.42,96.6 L 298.79,96.1 L 304.18,95.66 L 309.65,95.39 L 309.59,94.25 L 304.11,94.5 L 298.69,94.93 L 293.31,95.4 L 287.82,95.88 L 283.06,96.48 L 278.27,96.91 L 273.3,97.21 L 268.36,97.61 L 262.97,98.52 L 257.64,99.39 L 252.13,100.25 L 247.42,101.44 L 242.8,102.83 L 238.1,104.31 L 234.08,105.82 L 230.03,107.2 L 225.87,108.51 L 220.73,110.7 L 215.77,112.94 L 211.8,115.48 L 207.83,117.99 L 204.73,120.79 L 201.71,123.61 L 199.45,126.67 L 197.17,129.73 L 195.47,132.96 L 193.68,136.19 L 192.44,139.58 L 191.25,142.99 L 190.55,146.55 L 189.86,150.08 L 189.61,154.88 L 189.3,159.67 L 188.84,164.67 L 188.92,169.91 L 189.14,175.12 L 189.41,180.21 L 189.65,185.17 L 189.91,190.12 L 190.22,195.02 L 189.99,199.76 L 189.74,204.62 L 189.38,209.43 L 188.55,212.73 L 187.71,216.02 L 186.49,219.22 L 185.4,222.47 L 183.73,225.57 L 181.98,228.65 L 179.48,231.59 L 177.07,234.63 L 174.05,237.57 L 171.1,240.51 L 167.32,243.19 L 163.5,245.87 L 158.68,248.22 L 153.77,250.47 L 149.79,251.74 L 145.77,253.05 L 141.8,254.35 L 137.11,255.42 L 132.47,256.6 L 127.84,257.78 L 122.22,258.59 L 116.54,259.5 L 111.11,260.53 L 106.51,261.2 L 101.81,261.93 L 97.09,262.66 L 92.34,263.33 L 86.72,263.7 L 81.03,263.98 L 75.5,264.33 L 70.09,264.65 Z" fill="#1a1a1a" stroke="#1a1a1a" stroke-width="0.4" stroke-linejoin="round" />
</g></g>
<g clip-path="url(#clip-0-2)"><g transform="translate(804,0)">  <rect width="380" height="360" fill="#faf9f5" />
  <polyline points="20,180 360,180" fill="none" stroke="#1a1a1a" stroke-width="0.5" stroke-linecap="round" stroke-linejoin="round" />
  <polyline points="190,290 190,70" fill="none" stroke="#1a1a1a" stroke-width="0.5" stroke-linecap="round" stroke-linejoin="round" />
  <path d="M 24.9,172.9 L 27.44,175.17 L 29.94,177.42 L 32.46,180.29 L 35,183.11 L 38.45,187.89 L 41.92,192.86 L 45.28,197.82 L 47.76,201.23 L 50.26,204.56 L 52.81,207.23 L 55.46,209.95 L 58.19,211.86 L 60.93,213.04 L 63.68,213.39 L 66.43,212.8 L 69.11,211.22 L 71.78,208.74 L 74.48,205.01 L 77.14,201.2 L 78.69,197.34 L 80.19,193.57 L 81.84,189.81 L 83.58,185.11 L 85.3,180.43 L 87.11,175.84 L 89.05,170.77 L 91.05,165.69 L 93.06,160.51 L 94.86,155.08 L 96.5,149.61 L 98.05,144.24 L 99.53,139.61 L 101.06,135.09 L 102.84,130.64 L 105.7,125.65 L 108.4,120.77 L 110.94,117.76 L 113.3,116.18 L 115.5,116.05 L 117.82,117.45 L 120.28,120.62 L 122.75,125.56 L 124.43,130.41 L 126.15,135.22 L 127.77,140.05 L 128.96,144.91 L 130.16,149.83 L 131.4,154.91 L 132.74,160.02 L 133.67,164.77 L 134.6,169.57 L 135.68,174.31 L 136.79,178.9 L 137.83,183.51 L 138.97,189.06 L 140.2,194.74 L 141.55,200.38 L 142.75,205.99 L 143.74,211.36 L 144.71,216.6 L 145.69,221.89 L 146.78,227.26 L 147.92,232.71 L 149.15,237.63 L 150.53,242.58 L 152.02,247.68 L 153.4,252.76 L 154.69,256.58 L 155.96,260.34 L 157.26,263.21 L 158.64,266.13 L 161.53,269.99 L 164.6,271.75 L 167.7,271.03 L 170.42,267.94 L 173.02,262.51 L 174.23,258.64 L 175.39,254.86 L 176.64,249.76 L 177.98,244.68 L 179.2,239.63 L 180.39,234.61 L 181.36,229.12 L 182.42,223.75 L 183.52,218.53 L 184.69,213.35 L 185.93,208.01 L 186.98,202.36 L 187.84,196.66 L 188.69,191.19 L 189.55,185.76 L 190.52,180.23 L 191.67,174.78 L 192.92,169.43 L 194.04,164.09 L 195.06,158.65 L 196.07,153.04 L 196.98,147.39 L 197.83,141.67 L 198.68,136.08 L 199.64,130.65 L 200.62,125.25 L 201.98,120.36 L 203.46,115.42 L 204.88,110.34 L 206.24,105.23 L 207.61,101.57 L 208.96,97.96 L 211.56,92.91 L 213.98,90.19 L 216.01,89.68 L 218.17,91.15 L 220.61,94.86 L 221.84,97.74 L 223.1,100.63 L 224.35,104.42 L 225.56,108.11 L 226.77,112.9 L 228.02,117.68 L 229.23,122.38 L 230.33,127.04 L 231.32,132.36 L 232.56,137.89 L 233.91,143.43 L 235.2,148.97 L 236.36,154.37 L 237.51,159.72 L 238.69,165.17 L 239.76,170.62 L 240.82,176.13 L 241.85,181.05 L 242.99,185.94 L 244.21,190.83 L 245.3,195.69 L 246.22,200.54 L 247.4,205.63 L 248.63,210.68 L 249.91,215.79 L 251.34,220.88 L 253.34,225.7 L 255.16,230.49 L 256.63,235.42 L 258.95,240.57 L 261.6,244.01 L 264.5,245.72 L 267.52,245.61 L 270.4,243.8 L 273.16,240.56 L 275.81,235.51 L 278.43,230.4 L 280.12,225.8 L 281.7,221.24 L 283.36,216.56 L 285.25,211.19 L 287.09,205.94 L 288.76,200.72 L 290.3,195.38 L 291.91,189.94 L 293.63,184.64 L 295.34,180.04 L 297.11,175.43 L 298.87,170.74 L 300.55,166.94 L 302.17,163.09 L 303.78,159.33 L 306.3,155.5 L 308.91,151.71 L 311.45,149.49 L 313.97,148.23 L 316.44,147.85 L 318.92,148.25 L 321.44,149.44 L 323.99,151.37 L 326.56,154.13 L 329.16,156.78 L 331.75,160 L 334.22,163.22 L 337.36,167.77 L 340.68,172.47 L 344.24,177.13 L 346.93,180.1 L 349.6,183.17 L 352.27,185.53 L 354.92,187.75 L 355.63,186.9 L 352.99,184.69 L 350.39,182.4 L 347.77,179.36 L 345.12,176.42 L 341.61,171.79 L 338.33,167.1 L 335.18,162.53 L 332.68,159.27 L 330.05,155.99 L 327.42,153.31 L 324.8,150.48 L 322.08,148.4 L 319.29,147.07 L 316.45,146.6 L 313.58,147.03 L 310.73,148.44 L 307.93,150.87 L 305.22,154.76 L 302.62,158.7 L 300.96,162.58 L 299.33,166.42 L 297.65,170.25 L 295.88,174.97 L 294.13,179.58 L 292.42,184.22 L 290.69,189.56 L 289.06,195.01 L 287.49,200.33 L 285.83,205.51 L 283.95,210.73 L 282.03,216.09 L 280.35,220.77 L 278.79,225.33 L 277.16,229.85 L 274.61,234.89 L 272.04,239.84 L 269.51,242.82 L 267.1,244.35 L 264.85,244.44 L 262.51,243.04 L 260.1,239.91 L 257.85,234.96 L 256.38,230.07 L 254.54,225.23 L 252.54,220.46 L 251.14,215.46 L 249.88,210.37 L 248.67,205.33 L 247.51,200.27 L 246.61,195.42 L 245.54,190.51 L 244.34,185.62 L 243.2,180.75 L 242.16,175.86 L 241.07,170.36 L 239.98,164.9 L 238.81,159.45 L 237.68,154.09 L 236.53,148.67 L 235.24,143.12 L 233.9,137.57 L 232.69,132.08 L 231.73,126.75 L 230.64,122.04 L 229.43,117.32 L 228.16,112.54 L 226.92,107.72 L 225.67,103.98 L 224.41,100.14 L 223.12,97.18 L 221.82,94.18 L 219.2,90.21 L 216.29,88.32 L 213.19,89.04 L 210.4,92.15 L 207.69,97.39 L 206.32,101.09 L 204.94,104.82 L 203.57,109.98 L 202.15,115.04 L 200.67,119.99 L 199.3,124.95 L 198.31,130.41 L 197.35,135.86 L 196.51,141.47 L 195.66,147.18 L 194.75,152.81 L 193.73,158.4 L 192.69,163.81 L 191.56,169.13 L 190.3,174.47 L 189.14,179.96 L 188.17,185.53 L 187.29,190.97 L 186.45,196.45 L 185.57,202.12 L 184.51,207.72 L 183.27,213.03 L 182.11,218.22 L 181.02,223.47 L 179.99,228.87 L 179.07,234.35 L 177.93,239.33 L 176.74,244.36 L 175.4,249.44 L 174.12,254.51 L 172.95,258.24 L 171.76,262 L 169.27,267.22 L 166.94,269.92 L 164.84,270.43 L 162.46,269.02 L 159.77,265.42 L 158.48,262.65 L 157.21,259.86 L 155.96,256.15 L 154.69,252.37 L 153.29,247.32 L 151.76,242.22 L 150.38,237.3 L 149.19,232.42 L 148.1,227 L 147.03,221.63 L 146.05,216.35 L 145.09,211.11 L 144.09,205.72 L 142.88,200.08 L 141.5,194.44 L 140.26,188.79 L 139.12,183.23 L 138.09,178.6 L 136.98,174 L 135.9,169.29 L 134.97,164.51 L 134.04,159.73 L 132.72,154.58 L 131.52,149.5 L 130.34,144.58 L 129.15,139.65 L 127.5,134.76 L 125.75,129.94 L 124.03,125.02 L 121.45,119.91 L 118.76,116.45 L 115.85,114.74 L 112.84,114.9 L 110.01,116.76 L 107.26,120 L 104.5,124.97 L 101.61,130.03 L 99.78,134.61 L 98.23,139.18 L 96.76,143.85 L 95.22,149.24 L 93.62,154.69 L 91.84,160.07 L 89.82,165.2 L 87.79,170.27 L 85.84,175.35 L 84.04,179.96 L 82.35,184.66 L 80.65,189.34 L 79.02,193.08 L 77.53,196.88 L 76.06,200.61 L 73.49,204.31 L 70.87,207.96 L 68.39,210.28 L 65.99,211.7 L 63.63,212.21 L 61.25,211.9 L 58.78,210.82 L 56.24,209.04 L 53.68,206.39 L 51.19,203.78 L 48.74,200.5 L 46.26,197.13 L 42.89,192.2 L 39.38,187.22 L 35.87,182.42 L 33.29,179.55 L 30.73,176.65 L 28.17,174.36 L 25.62,172.08 Z" fill="#1a1a1a" stroke="#1a1a1a" stroke-width="0.4" stroke-linejoin="round" />
</g></g>
<text x="14" y="26" font-family="sans-serif" font-size="14" fill="#999"></text>
<line x1="391" y1="8" x2="391" y2="352" stroke="#ddd" stroke-width="1" />
<line x1="793" y1="8" x2="793" y2="352" stroke="#ddd" stroke-width="1" />
<text x="190" y="20" text-anchor="middle" font-family="sans-serif" font-size="14" fill="#999">helix (hidden-line)</text>
<text x="592" y="20" text-anchor="middle" font-family="sans-serif" font-size="14" fill="#999">Bézier (exact carrier)</text>
<text x="994" y="20" text-anchor="middle" font-family="sans-serif" font-size="14" fill="#999">function plot</text>
</svg>