<svg xmlns="http://www.w3.org/2000/svg" viewBox="0 0 1184 360" width="1184" height="360">
<defs><clipPath id="clip-0-0" clipPathUnits="userSpaceOnUse"><rect x="0" y="0" width="380" height="360" /></clipPath><clipPath id="clip-0-1" clipPathUnits="userSpaceOnUse"><rect x="402" y="0" width="380" height="360" /></clipPath><clipPath id="clip-0-2" clipPathUnits="userSpaceOnUse"><rect x="804" y="0" width="380" height="360" /></clipPath></defs>
<g clip-path="url(#clip-0-0)"><g transform="translate(0,0)">  <rect width="380" height="360" fill="#faf9f5" />
  <path d="M 252.99,293.38 L 253.27,287.35 L 253.59,281.34 L 253.97,275.38 L 254.36,269.45 L 254.73,263.52 L 255.09,257.54 L 255.42,251.56 L 255.77,245.6 L 256.15,239.66 L 256.54,233.75 L 256.94,227.85 L 257.33,221.97 L 257.75,216.07 L 258.21,210.16 L 258.64,204.2 L 259.05,198.22 L 259.49,192.2 L 259.93,186.18 L 260.34,180.17 L 260.7,174.22 L 261.03,168.29 L 261.4,162.35 L 261.79,156.36 L 262.17,150.35 L 262.54,144.35 L 262.86,138.36 L 263.16,132.36 L 263.49,126.38 L 263.87,120.43 L 264.26,114.46 L 264.63,108.51 L 264.98,102.58 L 265.32,96.69 L 265.66,90.8 L 266.03,84.85 L 266.4,78.88 L 266.76,72.91 L 267.11,66.95 L 267.52,61 L 267.96,55.05 L 268.34,49.09 L 267.46,49.03 L 267.08,54.98 L 266.62,60.93 L 266.18,66.89 L 265.79,72.85 L 265.42,78.82 L 265.06,84.79 L 264.71,90.74 L 264.36,96.63 L 264.01,102.52 L 263.64,108.44 L 263.24,114.4 L 262.84,120.36 L 262.45,126.32 L 262.12,132.3 L 261.82,138.3 L 261.5,144.29 L 261.12,150.28 L 260.73,156.29 L 260.34,162.28 L 259.96,168.23 L 259.62,174.16 L 259.27,180.11 L 258.88,186.1 L 258.44,192.12 L 258,198.14 L 257.58,204.13 L 257.15,210.08 L 256.7,216 L 256.27,221.9 L 255.89,227.79 L 255.51,233.68 L 255.13,239.59 L 254.77,245.54 L 254.45,251.51 L 254.13,257.49 L 253.78,263.46 L 253.4,269.39 L 253.03,275.32 L 252.67,281.29 L 252.36,287.3 L 252.1,293.34 Z" fill="#1a1a1a" stroke="#1a1a1a" stroke-width="0.4" stroke-linejoin="round" />
  <path d="M 127.72,293.23 L 127.4,287.32 L 127.08,281.4 L 126.78,275.44 L 126.49,269.49 L 126.19,263.54 L 125.87,257.56 L 125.5,251.58 L 125.1,245.61 L 124.73,239.65 L 124.36,233.69 L 124,227.74 L 123.62,221.78 L 123.29,215.76 L 123,209.68 L 122.65,203.63 L 122.17,197.66 L 121.61,191.7 L 121.08,185.75 L 120.62,179.78 L 120.18,173.8 L 119.79,167.84 L 119.48,161.92 L 119.22,156.07 L 118.97,150.26 L 118.71,144.45 L 118.46,138.6 L 118.18,132.7 L 117.82,126.73 L 117.4,120.75 L 116.94,114.77 L 116.49,108.78 L 116.06,102.78 L 115.65,96.85 L 115.27,90.94 L 114.9,84.98 L 114.53,78.9 L 114.15,72.78 L 113.74,66.75 L 113.3,60.81 L 112.87,54.9 L 112.5,48.97 L 111.61,49.03 L 111.99,54.95 L 112.4,60.87 L 112.81,66.81 L 113.18,72.85 L 113.55,78.96 L 113.93,85.04 L 114.31,91 L 114.69,96.91 L 115.09,102.85 L 115.5,108.85 L 115.93,114.85 L 116.36,120.83 L 116.78,126.8 L 117.14,132.75 L 117.42,138.65 L 117.67,144.5 L 117.92,150.31 L 118.16,156.11 L 118.42,161.97 L 118.72,167.9 L 119.1,173.88 L 119.55,179.86 L 120.03,185.84 L 120.56,191.8 L 121.11,197.75 L 121.59,203.7 L 121.94,209.73 L 122.23,215.81 L 122.56,221.84 L 122.94,227.81 L 123.33,233.76 L 123.71,239.71 L 124.11,245.68 L 124.53,251.64 L 124.91,257.61 L 125.24,263.59 L 125.53,269.54 L 125.84,275.49 L 126.16,281.45 L 126.49,287.36 L 126.82,293.28 Z" fill="#1a1a1a" stroke="#1a1a1a" stroke-width="0.4" stroke-linejoin="round" />
  <path d="M 244.68,310.97 L 248.14,306.89 L 250.68,302.51 L 252.32,297.97 L 252.96,293.42 L 252.12,293.29 L 251.35,297.72 L 249.77,302.08 L 247.31,306.31 L 244.02,310.42 Z" fill="#1a1a1a" stroke="#1a1a1a" stroke-width="0.4" stroke-linejoin="round" />
  <polyline points="252.54,293.36 252.48,289.27 251.71,285.32 250.23,281.45 248.07,277.76 245.01,274.45 241.96,271.09 237.93,268.16 233.92,265.24 229.06,262.89 224.19,260.48 218.8,258.69 213.47,256.96 207.78,255.97 202.09,254.96 196.2,254.57 190.29,254.16 184.36,254.48 178.31,254.84 172.47,255.9 166.67,256.97 161.26,258.73 155.75,260.43 150.8,262.73 145.92,265.02 141.88,267.9 137.89,270.73 134.9,274.09 131.95,277.51 129.87,281.26 128.35,285.16 127.46,289.17 127.27,293.26" fill="none" stroke="#1a1a1a" stroke-width="0.829" stroke-opacity="0.2" stroke-dasharray="4,3" stroke-linecap="round" stroke-linejoin="round" />
  <path d="M 126.83,293.33 L 127.84,299.05 L 129.13,301.94 L 130.45,304.82 L 132.5,307.58 L 134.53,310.33 L 137.29,312.88 L 140.06,315.39 L 143.51,317.64 L 146.95,319.91 L 150.98,321.87 L 155.02,323.8 L 159.57,325.29 L 164.1,326.74 L 168.97,327.74 L 173.83,328.74 L 178.91,329.27 L 183.98,329.83 L 189.16,329.87 L 194.37,329.91 L 199.55,329.43 L 204.75,328.95 L 209.75,327.98 L 214.76,327 L 219.4,325.56 L 224.04,324.12 L 228.16,322.24 L 232.24,320.35 L 235.7,318.14 L 239.14,315.93 L 241.89,313.46 L 244.64,311.03 L 244.06,310.37 L 241.3,312.79 L 238.58,315.19 L 235.19,317.33 L 231.77,319.47 L 227.73,321.3 L 223.67,323.14 L 219.09,324.57 L 214.51,325.99 L 209.55,326.96 L 204.61,327.92 L 199.45,328.39 L 194.33,328.86 L 189.16,328.83 L 184.05,328.79 L 179.02,328.24 L 173.99,327.72 L 169.18,326.74 L 164.35,325.77 L 159.87,324.35 L 155.38,322.9 L 151.39,321.01 L 147.42,319.09 L 144.04,316.84 L 140.66,314.61 L 137.96,312.14 L 135.27,309.67 L 133.28,307 L 131.26,304.33 L 129.98,301.56 L 128.71,298.81 L 127.7,293.18 Z" fill="#1a1a1a" stroke="#1a1a1a" stroke-width="0.4" stroke-linejoin="round" />
  <path d="M 258.64,54.88 L 261.77,53.8 L 264.96,52.6 L 268.03,50.22 L 268.34,48.66 L 267.54,47.24 L 264.13,45.25 L 258.37,43.51 L 254.44,42.65 L 250.57,41.76 L 245.44,41.07 L 240.31,40.37 L 235.22,39.66 L 230.09,38.93 L 225.09,38.62 L 220.05,38.36 L 214.98,38.2 L 209.94,38.09 L 204.95,37.96 L 199.69,38.01 L 194.45,38.01 L 189.19,37.97 L 183.92,37.92 L 178.64,37.86 L 173.57,38.05 L 168.53,38.27 L 163.52,38.49 L 158.55,38.69 L 153.56,38.88 L 148.28,39.42 L 143.04,39.96 L 137.76,40.49 L 132.36,41.06 L 128.05,41.85 L 123.74,42.63 L 120.48,43.58 L 117.26,44.61 L 113.15,46.69 L 111.94,47.81 L 111.5,49.13 L 112.1,50.45 L 113.63,51.63 L 119.06,53.95 L 123.42,55.12 L 127.77,56.24 L 133.68,57.16 L 139.51,58.02 L 144.22,58.48 L 148.91,58.94 L 153.61,59.4 L 159.02,59.69 L 164.45,59.96 L 169.92,60.23 L 175.82,60.23 L 181.71,60.24 L 187.59,60.26 L 193.41,60.28 L 199.17,60.32 L 204.92,60.38 L 210.44,60.17 L 215.98,59.94 L 221.54,59.67 L 226.51,59.2 L 231.45,58.75 L 236.41,58.33 L 240.57,57.79 L 244.72,57.25 L 248.91,56.71 L 253.74,55.8 L 258.57,54.89 L 258.4,53.97 L 253.57,54.89 L 248.77,55.79 L 244.6,56.32 L 240.45,56.85 L 236.31,57.38 L 231.37,57.78 L 226.42,58.21 L 221.47,58.65 L 215.93,58.9 L 210.4,59.11 L 204.9,59.31 L 199.18,59.24 L 193.42,59.19 L 187.59,59.16 L 181.71,59.16 L 175.82,59.15 L 169.95,59.15 L 164.51,58.87 L 159.08,58.6 L 153.69,58.32 L 149,57.89 L 144.32,57.46 L 139.63,57.01 L 133.83,56.15 L 127.98,55.22 L 123.69,54.1 L 119.43,52.94 L 114.12,50.65 L 112.93,49.71 L 112.61,49.06 L 112.84,48.45 L 113.72,47.65 L 117.69,45.63 L 120.81,44.64 L 123.99,43.7 L 128.24,42.94 L 132.51,42.16 L 137.87,41.61 L 143.16,41.08 L 148.4,40.55 L 153.64,40.01 L 158.59,39.83 L 163.57,39.63 L 168.58,39.41 L 173.62,39.18 L 178.65,38.98 L 183.91,39.04 L 189.18,39.1 L 194.44,39.14 L 199.7,39.14 L 204.94,39.09 L 209.92,39.21 L 214.95,39.32 L 220,39.47 L 225.03,39.7 L 229.98,39.99 L 235.07,40.69 L 240.18,41.37 L 245.31,42.05 L 250.4,42.74 L 254.23,43.62 L 258.11,44.46 L 263.77,46.16 L 266.95,48.01 L 267.39,48.84 L 267.31,49.57 L 264.49,51.77 L 261.44,52.9 L 258.33,53.98 Z" fill="#1a1a1a" stroke="#1a1a1a" stroke-width="0.4" stroke-linejoin="round" />
  <path d="M 148.92,322.49 L 152.38,323.59 L 155.84,324.67 L 159.68,325.43 L 163.56,326.19 L 167.78,326.63 L 172.03,327.07 L 176.49,327.18 L 180.92,327.32 L 185.42,327.13 L 189.9,326.95 L 194.36,326.41 L 198.81,325.89 L 203.16,325.04 L 207.52,324.2 L 211.71,322.99 L 215.91,321.74 L 219.87,320.11 L 223.85,318.47 L 227.5,316.54 L 231.17,314.61 L 234.47,312.44 L 237.79,310.27 L 240.64,307.91 L 243.47,305.56 L 245.79,303.05 L 248.08,300.53 L 249.84,297.86 L 251.61,295.14 L 254.09,289.54 L 255.54,283.86 L 255.93,278.24 L 255.35,272.81 L 254.85,270.99 L 253.76,271.28 L 254.23,272.97 L 254.74,278.26 L 254.28,283.65 L 252.82,289.09 L 250.39,294.51 L 248.7,297.11 L 247.02,299.7 L 244.79,302.15 L 242.55,304.59 L 239.78,306.87 L 236.98,309.17 L 233.72,311.29 L 230.47,313.41 L 226.85,315.3 L 223.26,317.21 L 219.34,318.82 L 215.44,320.42 L 211.31,321.65 L 207.19,322.85 L 202.9,323.68 L 198.6,324.53 L 194.2,325.04 L 189.79,325.56 L 185.36,325.73 L 180.91,325.94 L 176.52,325.82 L 172.12,325.72 L 167.92,325.29 L 163.75,324.88 L 159.92,324.17 L 156.14,323.48 L 152.73,322.46 L 149.27,321.39 Z" fill="#1a1a1a" stroke="#1a1a1a" stroke-width="0.4" stroke-linejoin="round" />
  <polyline points="254.31,271.14 253.34,267.53 250.96,262.38 247.72,257.71 243.69,253.39 241.34,251.35 238.98,249.32 236.33,247.46 233.71,245.63 229.76,243.58 225.85,241.52 221.92,239.44 217.43,237.92 212.89,236.37 208.4,234.8 203.78,233.81 199.25,232.86 194.7,231.96 189.94,231.64 185.13,231.26 180.34,230.86 175.72,231 171.17,231.13 166.65,231.24 162.42,231.86 158.12,232.46 153.76,233.07 147.93,234.8 142.22,236.63 137.64,239.26 133.06,241.96 129.39,244.98 126.47,248.21 124.69,251.38" fill="none" stroke="#1a1a1a" stroke-width="1.165" stroke-opacity="0.32" stroke-dasharray="4,3" stroke-linecap="round" stroke-linejoin="round" />
  <path d="M 124.17,251.1 L 124,251.45 L 123.1,255.1 L 123.03,258.96 L 124.02,262.84 L 126.23,266.62 L 129.64,270.16 L 134.06,273.34 L 136.77,274.78 L 139.45,276.22 L 142.62,277.5 L 145.8,278.79 L 149.43,279.83 L 153.08,280.83 L 157.11,281.48 L 161.13,282.09 L 165.41,282.39 L 169.62,282.73 L 174.01,282.81 L 178.39,282.91 L 182.93,282.69 L 187.53,282.45 L 192.22,281.86 L 196.91,281.27 L 201.53,280.36 L 206.13,279.49 L 210.53,278.34 L 214.94,277.22 L 219.11,275.81 L 223.32,274.38 L 227.26,272.62 L 231.23,270.81 L 234.8,268.76 L 238.35,266.74 L 241.38,264.58 L 244.38,262.45 L 246.86,260.18 L 249.34,257.89 L 251.3,255.45 L 253.3,252.93 L 256.12,247.73 L 257.84,242.51 L 258.5,237.33 L 258.04,232.14 L 257.26,229.44 L 256.18,229.75 L 256.92,232.31 L 257.33,237.3 L 256.64,242.23 L 254.92,247.19 L 252.11,252.18 L 250.18,254.55 L 248.28,256.9 L 245.89,259.12 L 243.48,261.33 L 240.55,263.42 L 237.58,265.54 L 234.09,267.51 L 230.58,269.53 L 226.67,271.32 L 222.8,273.07 L 218.66,274.5 L 214.55,275.9 L 210.19,277.02 L 205.83,278.16 L 201.27,279.01 L 196.69,279.89 L 192.04,280.46 L 187.41,281.04 L 182.86,281.28 L 178.37,281.5 L 174.04,281.39 L 169.69,281.32 L 165.52,280.99 L 161.28,280.7 L 157.33,280.1 L 153.38,279.46 L 149.81,278.48 L 146.25,277.46 L 143.14,276.19 L 140.03,274.96 L 137.41,273.57 L 134.79,272.2 L 130.49,269.16 L 127.24,265.84 L 125.17,262.36 L 124.24,258.82 L 124.28,255.25 L 125.14,251.75 L 125.2,251.65 Z" fill="#1a1a1a" stroke="#1a1a1a" stroke-width="0.4" stroke-linejoin="round" />
  <polyline points="256.72,229.6 256.03,227.22 253.6,222.5 250.3,218.08 246.27,214.03 243.95,212.22 241.64,210.46 237.93,208.44 234.21,206.36 230.53,204.18 226.25,202.44 221.95,200.68 217.58,198.9 212.81,197.54 208.11,196.16 203.5,194.78 198.69,193.95 193.8,193.11 188.85,192.31 183.86,192.07 178.89,191.91 173.96,191.82 169.25,192.21 164.53,192.55 159.84,192.83 155.63,193.52 151.47,194.22 147.33,194.99 141.97,196.83 136.41,198.43 131.98,200.48 127.63,202.64 124.53,205.33 122.27,208.09 122.06,208.52" fill="none" stroke="#1a1a1a" stroke-width="1.192" stroke-opacity="0.32" stroke-dasharray="4,3" stroke-linecap="round" stroke-linejoin="round" />
  <path d="M 121.52,208.25 L 120.31,210.74 L 120.12,213.86 L 121.1,217.1 L 123.05,220.3 L 126.11,223.22 L 130.4,225.82 L 135.98,228.12 L 139.31,229.14 L 142.57,230.2 L 146.23,231.13 L 149.81,232.09 L 153.76,232.85 L 157.73,233.6 L 162.21,233.95 L 166.7,234.26 L 171.2,234.53 L 175.74,234.76 L 180.61,234.38 L 185.44,234 L 190.3,233.62 L 195.2,233.23 L 200.1,232.4 L 205.02,231.56 L 209.83,230.43 L 214.66,229.27 L 219.23,227.82 L 223.73,226.37 L 227.82,224.71 L 231.88,223.07 L 235.51,221.23 L 239.15,219.38 L 242.33,217.36 L 245.55,215.35 L 248.28,213.21 L 251.02,211.07 L 253.2,208.83 L 255.39,206.59 L 258.56,202.06 L 260.49,197.47 L 261.25,192.9 L 260.9,188.38 L 259.86,185.08 L 258.76,185.42 L 259.75,188.58 L 260.05,192.85 L 259.29,197.11 L 257.39,201.4 L 254.28,205.69 L 252.16,207.8 L 250.04,209.96 L 247.37,212.05 L 244.72,214.15 L 241.56,216.13 L 238.43,218.11 L 234.84,219.92 L 231.27,221.73 L 227.27,223.36 L 223.24,225.02 L 218.79,226.47 L 214.28,227.92 L 209.51,229.08 L 204.75,230.19 L 199.87,231 L 195.03,231.81 L 190.18,232.18 L 185.32,232.56 L 180.49,232.94 L 175.72,233.31 L 171.28,233.08 L 166.79,232.82 L 162.31,232.52 L 157.91,232.19 L 154.03,231.44 L 150.13,230.69 L 146.59,229.73 L 142.97,228.82 L 139.73,227.79 L 136.46,226.81 L 130.99,224.6 L 126.9,222.16 L 124.05,219.47 L 122.24,216.57 L 121.34,213.7 L 121.49,211.04 L 122.6,208.78 Z" fill="#1a1a1a" stroke="#1a1a1a" stroke-width="0.4" stroke-linejoin="round" />
  <polyline points="259.31,185.25 258.95,184.09 256.61,179.71 253.39,175.62 249.36,171.95 246.01,169.69 242.69,167.36 239.35,165.03 235.25,163.14 231.16,161.35 227.06,159.59 222.39,158.26 217.63,156.89 212.85,155.52 207.81,154.59 202.8,153.64 197.81,152.67 192.71,152.06 187.61,151.46 182.53,150.92 177.56,150.77 172.62,150.57 167.66,150.31 162.95,150.47 158.25,150.65 153.58,150.86 149.46,151.52 145.33,152.24 141.14,152.95 135.81,154.44 130.42,155.85 126.41,157.69 122.44,159.55 119.78,161.64 119.13,162.45" fill="none" stroke="#1a1a1a" stroke-width="1.217" stroke-opacity="0.32" stroke-dasharray="4,3" stroke-linecap="round" stroke-linejoin="round" />
  <path d="M 118.66,162.06 L 117.5,163.45 L 116.79,165.75 L 117.4,168.11 L 119.22,170.44 L 122.23,172.65 L 126.39,174.7 L 131.83,176.58 L 136.59,177.55 L 141.23,178.49 L 145.84,179.46 L 151.68,179.97 L 157.49,180.5 L 163.39,181.08 L 168.43,181.07 L 173.46,181.02 L 178.49,180.92 L 183.54,180.75 L 188.69,180.03 L 193.76,179.26 L 198.83,178.49 L 203.94,177.72 L 208.77,176.51 L 213.58,175.34 L 218.41,174.19 L 223.27,173.07 L 227.69,171.68 L 232.11,170.28 L 236.1,168.68 L 240.09,167.05 L 243.57,165.28 L 247.04,163.52 L 249.95,161.67 L 252.86,159.83 L 255.19,157.89 L 257.53,155.89 L 260.87,151.76 L 262.89,147.55 L 263.81,143.48 L 263.71,139.52 L 262.58,135.81 L 261.44,136.15 L 262.53,139.71 L 262.59,143.35 L 261.69,147.12 L 259.73,151.02 L 256.48,154.9 L 254.24,156.75 L 251.98,158.61 L 249.15,160.4 L 246.3,162.22 L 242.89,163.95 L 239.47,165.69 L 235.54,167.29 L 231.6,168.87 L 227.24,170.27 L 222.89,171.67 L 218.08,172.79 L 213.25,173.95 L 208.43,175.13 L 203.66,176.32 L 198.61,177.05 L 193.54,177.81 L 188.47,178.56 L 183.41,179.28 L 178.45,179.44 L 173.43,179.54 L 168.42,179.6 L 163.47,179.63 L 157.63,179.05 L 151.81,178.5 L 146.04,178 L 141.53,177.06 L 136.87,176.15 L 132.2,175.24 L 126.9,173.44 L 122.9,171.51 L 120.1,169.49 L 118.52,167.51 L 118.03,165.78 L 118.6,164.02 L 119.6,162.85 Z" fill="#1a1a1a" stroke="#1a1a1a" stroke-width="0.4" stroke-linejoin="round" />
  <polyline points="262.01,135.98 261.99,135.93 259.83,132.39 256.79,129 252.86,125.72 248.13,122.66 244.3,120.92 240.46,119.16 236.54,117.32 231.92,115.78 227.33,114.19 222.78,112.64 217.77,111.52 212.78,110.43 207.83,109.34 202.64,108.59 197.42,107.81 192.12,107.02 186.72,106.52 181.35,106 176.01,105.48 170.88,105.31 165.82,105.14 160.78,104.92 156.08,104.98 151.31,105.09 146.53,105.23 142.38,105.61 138.23,105.96 134.02,106.31 129.01,107.28 124.08,108.24 120.81,109.31 117.42,110.42 116.19,111.22" fill="none" stroke="#1a1a1a" stroke-width="1.243" stroke-opacity="0.32" stroke-dasharray="4,3" stroke-linecap="round" stroke-linejoin="round" />
  <path d="M 115.85,110.68 L 114.83,111.34 L 113.53,112.99 L 113.72,114.92 L 115.53,116.44 L 119.06,117.76 L 122.45,119.3 L 128.28,120.62 L 134.18,121.8 L 139.59,122.16 L 144.95,122.49 L 150.36,122.79 L 155.28,122.63 L 160.16,122.45 L 165.03,122.29 L 169.9,122.15 L 175.22,121.69 L 180.51,121.23 L 185.82,120.81 L 191.2,120.39 L 196.61,119.56 L 202.04,118.71 L 207.46,117.85 L 212.89,117 L 217.81,115.87 L 222.69,114.82 L 227.57,113.8 L 232.51,112.77 L 237.86,110.97 L 243.18,109.15 L 248.56,107.29 L 251.82,105.67 L 255.05,104.02 L 260.15,100.69 L 263.95,97.45 L 266.48,94.08 L 267.74,90.52 L 267.6,87.07 L 266.25,83.91 L 265.83,83.34 L 264.87,84.08 L 265.16,84.43 L 266.4,87.34 L 266.51,90.31 L 265.35,93.45 L 262.97,96.5 L 259.3,99.51 L 254.27,102.71 L 251.13,104.29 L 247.99,105.87 L 242.68,107.72 L 237.37,109.52 L 232.1,111.29 L 227.26,112.32 L 222.37,113.36 L 217.49,114.43 L 212.62,115.57 L 207.24,116.41 L 201.81,117.26 L 196.39,118.09 L 191.03,118.89 L 185.7,119.31 L 180.38,119.72 L 175.08,120.17 L 169.81,120.65 L 164.98,120.79 L 160.11,120.96 L 155.23,121.13 L 150.38,121.28 L 145.04,120.98 L 139.68,120.68 L 134.37,120.37 L 128.57,119.25 L 122.85,118 L 119.57,116.53 L 116.12,115.28 L 114.8,114.23 L 114.72,113.42 L 115.7,112.25 L 116.52,111.75 Z" fill="#1a1a1a" stroke="#1a1a1a" stroke-width="0.4" stroke-linejoin="round" />
  <polyline points="265.35,83.71 263.52,81.22 260.45,78.33 256.45,75.58 251.28,73.1 246.04,70.53 241.63,69.04 237.16,67.59 232.7,66.19 227.73,65.1 222.85,63.99 218.02,62.8 212.78,61.77 207.47,60.67 202.09,59.61 196.48,58.89 190.86,58.23 185.28,57.62 179.85,57.29 174.44,56.91 169.07,56.49 163.77,56.07 158.5,55.71 153.21,55.41 148,55.4 142.82,55.24 137.6,55.05 132.3,55 127,55 122.21,55.43 117.59,55.92 113,56.26" fill="none" stroke="#1a1a1a" stroke-width="1.268" stroke-opacity="0.32" stroke-dasharray="4,3" stroke-linecap="round" stroke-linejoin="round" />
  <path d="M 112.97,55.63 L 112.28,55.67 L 111.06,57.51 L 114.74,58.08 L 119.15,58.05 L 123.5,57.82 L 123.49,56.58 L 119.14,56.45 L 114.84,56.45 L 111.66,56.08 L 112.68,56.9 L 113.03,56.89 Z" fill="#1a1a1a" stroke="#1a1a1a" stroke-width="0.4" stroke-linejoin="round" />
  <polyline points="123.5,57.2 126,57.18" fill="none" stroke="#1a1a1a" stroke-width="1.41" stroke-opacity="0.32" stroke-dasharray="4,3" stroke-linecap="round" stroke-linejoin="round" />
  <path d="M 126,57.84 L 131.84,58.05 L 137.75,57.85 L 137.75,56.55 L 131.84,56.35 L 126.01,56.53 Z" fill="#1a1a1a" stroke="#1a1a1a" stroke-width="0.4" stroke-linejoin="round" />
</g></g>
<g clip-path="url(#clip-0-1)"><g transform="translate(402,0)">  <rect width="380" height="360" fill="#faf9f5" />
  <polyline points="70,265 320,255" fill="none" stroke="#1a1a1a" stroke-width="0.5" stroke-linecap="round" stroke-linejoin="round" />
  <polyline points="320,255 60,105" fill="none" stroke="#1a1a1a" stroke-width="0.5" stroke-linecap="round" stroke-linejoin="round" />
  <polyline points="60,105 310,95" fill="none" stroke="#1a1a1a" stroke-width="0.5" stroke-linecap="round" stroke-linejoin="round" />
  <polyline points="73.5,265 72.47,262.53 70,261.5 67.53,262.53 66.5,265 67.53,267.47 70,268.5 72.47,267.47 73.5,265" fill="none" stroke="#1a1a1a" stroke-width="1.5" stroke-linecap="round" stroke-linejoin="round" />
  <polyline points="323.5,255 322.47,252.53 320,251.5 317.53,252.53 316.5,255 317.53,257.47 320,258.5 322.47,257.47 323.5,255" fill="none" stroke="#1a1a1a" stroke-width="1.5" stroke-linecap="round" stroke-linejoin="round" />
  <polyline points="63.5,105 62.47,102.53 60,101.5 57.53,102.53 56.5,105 57.53,107.47 60,108.5 62.47,107.47 63.5,105" fill="none" stroke="#1a1a1a" stroke-width="1.5" stroke-linecap="round" stroke-linejoin="round" />
  <polyline points="313.5,95 312.47,92.53 310,91.5 307.53,92.53 306.5,95 307.53,97.47 310,98.5 312.47,97.47 313.5,95" fill="none" stroke="#1a1a1a" stroke-width="1.5" stroke-linecap="round" stroke-linejoin="round" />
  <path d="M 70.38,265.74 L 75.83,265.35 L 81.29,264.93 L 86.69,264.55 L 92.11,264.15 L 96.92,263.66 L 101.7,263.23 L 106.39,262.78 L 110.98,262.32 L 116.37,261.41 L 121.99,260.44 L 127.65,259.41 L 132.49,258.21 L 137.39,257.18 L 142.22,256.14 L 146.14,254.83 L 149.96,253.54 L 153.83,252.22 L 158.53,249.79 L 163.42,247.27 L 167.52,244.63 L 171.56,242.05 L 174.77,239.08 L 177.95,236.03 L 180.37,232.84 L 182.78,229.78 L 184.57,226.65 L 186.37,223.54 L 187.61,220.16 L 188.81,216.68 L 189.44,213.04 L 190.02,209.43 L 190.19,204.57 L 190.55,199.8 L 191.09,195.03 L 191.21,190.16 L 191.38,185.26 L 191.31,180.29 L 190.94,175.31 L 190.5,170.28 L 190.09,165.2 L 190.21,160.34 L 190.42,155.55 L 190.58,150.74 L 191.2,147.23 L 191.83,143.68 L 192.98,140.27 L 194.18,136.95 L 195.94,133.84 L 197.66,130.8 L 199.99,127.9 L 202.26,124.9 L 205.25,122.06 L 208.32,119.25 L 212.37,116.66 L 216.46,114.07 L 221.48,111.69 L 226.37,109.23 L 230.24,107.78 L 234.23,106.38 L 238.21,105.05 L 242.87,103.99 L 247.54,102.91 L 252.19,101.79 L 257.66,100.84 L 263.17,99.79 L 268.68,98.75 L 273.58,98.16 L 278.56,97.63 L 283.37,97.1 L 288.06,96.55 L 293.43,96.19 L 298.75,95.85 L 304.1,95.49 L 309.64,95.25 L 309.59,94.14 L 304.04,94.38 L 298.68,94.72 L 293.36,95.04 L 287.96,95.37 L 283.24,95.9 L 278.43,96.4 L 273.44,96.9 L 268.48,97.46 L 262.93,98.49 L 257.42,99.53 L 251.92,100.48 L 247.24,101.6 L 242.57,102.66 L 237.84,103.71 L 233.78,105.05 L 229.76,106.46 L 225.8,107.94 L 220.86,110.42 L 215.78,112.81 L 211.59,115.43 L 207.44,118.08 L 204.25,120.99 L 201.17,123.92 L 198.84,127.02 L 196.49,130.01 L 194.73,133.16 L 192.93,136.38 L 191.71,139.84 L 190.54,143.35 L 189.9,147 L 189.27,150.62 L 189.11,155.49 L 188.89,160.3 L 188.76,165.24 L 189.15,170.39 L 189.55,175.42 L 189.89,180.35 L 189.95,185.24 L 189.8,190.12 L 189.7,194.94 L 189.18,199.67 L 188.79,204.49 L 188.6,209.3 L 188.01,212.8 L 187.4,216.32 L 186.26,219.69 L 185.09,222.94 L 183.37,225.97 L 181.66,229.02 L 179.31,232.02 L 176.96,235.14 L 173.87,238.13 L 170.77,241.02 L 166.82,243.54 L 162.76,246.12 L 157.91,248.57 L 153.27,250.94 L 149.51,252.21 L 145.69,253.49 L 141.85,254.78 L 137.1,255.8 L 132.18,256.84 L 127.36,258.04 L 121.75,259.06 L 116.14,260.04 L 110.79,260.95 L 106.26,261.44 L 101.57,261.93 L 96.79,262.4 L 92,262.93 L 86.61,263.35 L 81.2,263.75 L 75.74,264.19 L 70.29,264.59 Z" fill="#1a1a1a" stroke="#1a1a1a" stroke-width="0.4" stroke-linejoin="round" />
</g></g>
<g clip-path="url(#clip-0-2)"><g transform="translate(804,0)">  <rect width="380" height="360" fill="#faf9f5" />
  <polyline points="20,180 360,180" fill="none" stroke="#1a1a1a" stroke-width="0.5" stroke-linecap="round" stroke-linejoin="round" />
  <polyline points="190,290 190,70" fill="none" stroke="#1a1a1a" stroke-width="0.5" stroke-linecap="round" stroke-linejoin="round" />
  <path d="M 24.39,172.59 L 26.9,174.92 L 29.52,177.2 L 32.22,180.12 L 34.9,183.01 L 38.39,187.73 L 41.76,192.6 L 44.94,197.53 L 47.34,201.01 L 49.89,204.46 L 52.58,207.17 L 55.38,209.88 L 58.24,211.75 L 61.1,212.92 L 63.95,213.28 L 66.79,212.76 L 69.56,211.29 L 72.26,208.86 L 74.84,205.03 L 77.41,201.23 L 79.2,197.5 L 80.94,193.84 L 82.57,190.16 L 84.13,185.5 L 85.81,180.69 L 87.61,175.73 L 89.44,170.29 L 91.22,164.9 L 92.94,159.64 L 94.68,154.46 L 96.27,149.26 L 97.77,144.17 L 99.31,139.66 L 100.87,135.1 L 102.54,130.62 L 105.15,125.75 L 107.85,120.87 L 110.48,117.88 L 112.89,116.35 L 115.08,116.24 L 117.38,117.59 L 119.76,120.62 L 122.17,125.36 L 123.89,130.08 L 125.68,134.88 L 127.49,139.78 L 128.87,144.94 L 130.05,150.15 L 131.14,155.38 L 132.37,160.49 L 133.39,165.18 L 134.42,169.83 L 135.53,174.56 L 136.68,179.31 L 137.68,184.08 L 138.57,189.57 L 139.61,195.06 L 140.89,200.46 L 142.11,205.7 L 143.12,211.07 L 144.13,216.71 L 145.37,222.3 L 146.71,227.8 L 147.94,233.22 L 149.31,238.01 L 150.67,242.72 L 151.94,247.42 L 153.17,252.16 L 154.39,255.96 L 155.61,259.93 L 156.87,262.99 L 158.14,266.04 L 160.7,269.95 L 163.6,271.71 L 166.74,270.93 L 169.59,267.75 L 172.32,262.31 L 173.77,258.48 L 175.22,254.72 L 176.57,249.76 L 177.85,244.96 L 179.12,240.06 L 180.35,235.05 L 181.3,229.62 L 182.34,224.12 L 183.36,218.45 L 184.27,212.77 L 185.19,207.21 L 186.22,201.81 L 187.33,196.44 L 188.31,191.01 L 189.2,185.55 L 190.2,180.05 L 191.36,174.5 L 192.52,168.98 L 193.48,163.51 L 194.38,158.08 L 195.49,152.6 L 196.67,147.09 L 197.8,141.43 L 198.92,135.83 L 199.97,130.37 L 200.96,125 L 202.29,120.07 L 203.65,115.1 L 205,110.11 L 206.28,105.17 L 207.5,101.6 L 208.75,98.09 L 211.32,93.19 L 213.78,90.46 L 215.93,89.9 L 218.18,91.28 L 220.57,94.82 L 221.77,97.56 L 223.05,100.34 L 224.43,104 L 225.8,107.63 L 227.03,112.39 L 228.07,117.26 L 229.11,122.25 L 230.25,127.21 L 231.35,132.63 L 232.52,138.12 L 233.76,143.65 L 235.01,149.22 L 236.28,154.84 L 237.45,160.35 L 238.49,165.66 L 239.52,170.91 L 240.57,176.21 L 241.54,180.89 L 242.63,185.67 L 243.81,190.55 L 245.03,195.47 L 246.3,200.4 L 247.64,205.5 L 248.77,210.52 L 249.95,215.56 L 251.21,220.55 L 252.9,225.34 L 254.61,230.18 L 256.21,235.2 L 258.74,240.39 L 261.51,243.85 L 264.45,245.51 L 267.47,245.26 L 270.3,243.32 L 273.01,240.03 L 275.74,235.06 L 278.45,230.04 L 280.21,225.36 L 281.9,220.67 L 283.67,216 L 285.58,210.7 L 287.35,205.5 L 288.97,200.33 L 290.58,195.17 L 292.17,190.09 L 293.79,185.03 L 295.44,180.33 L 296.98,175.5 L 298.6,170.67 L 300.38,166.81 L 302.27,162.92 L 304.14,159.13 L 306.82,155.34 L 309.38,151.59 L 311.74,149.36 L 314.04,148.1 L 316.37,147.69 L 318.79,148.08 L 321.29,149.21 L 323.89,151.02 L 326.61,153.63 L 329.27,156.2 L 331.7,159.52 L 334,163.03 L 337.11,167.85 L 340.44,172.47 L 344.05,177.14 L 346.83,180.09 L 349.55,183.03 L 352.22,185.29 L 354.84,187.63 L 355.56,186.82 L 352.94,184.47 L 350.31,182.24 L 347.63,179.35 L 344.89,176.43 L 341.34,171.8 L 338.05,167.21 L 334.95,162.41 L 332.64,158.87 L 330.14,155.45 L 327.42,152.79 L 324.63,150.13 L 321.87,148.2 L 319.13,146.96 L 316.37,146.52 L 313.64,146.98 L 311.03,148.41 L 308.45,150.82 L 305.81,154.64 L 303.09,158.5 L 301.15,162.37 L 299.25,166.27 L 297.42,170.21 L 295.77,175.1 L 294.23,179.93 L 292.58,184.63 L 290.94,189.7 L 289.31,194.77 L 287.67,199.91 L 286.02,205.06 L 284.23,210.23 L 282.33,215.5 L 280.57,220.18 L 278.87,224.86 L 277.15,229.44 L 274.48,234.37 L 271.81,239.24 L 269.3,242.27 L 266.95,243.9 L 264.8,244.09 L 262.49,242.77 L 259.98,239.63 L 257.56,234.66 L 255.99,229.71 L 254.27,224.86 L 252.6,220.13 L 251.36,215.21 L 250.18,210.19 L 249.04,205.15 L 247.69,200.04 L 246.42,195.12 L 245.22,190.21 L 244.06,185.33 L 242.96,180.57 L 241.96,175.92 L 240.85,170.64 L 239.78,165.4 L 238.75,160.09 L 237.6,154.55 L 236.34,148.92 L 235.1,143.35 L 233.87,137.83 L 232.72,132.35 L 231.63,126.91 L 230.49,121.95 L 229.45,116.97 L 228.4,112.07 L 227.14,107.21 L 225.74,103.5 L 224.34,99.8 L 223.03,96.99 L 221.77,94.13 L 219.16,90.32 L 216.16,88.55 L 213.02,89.34 L 210.19,92.44 L 207.53,97.54 L 206.25,101.16 L 205.02,104.8 L 203.74,109.78 L 202.4,114.76 L 201.03,119.73 L 199.68,124.7 L 198.63,130.11 L 197.55,135.56 L 196.38,141.14 L 195.21,146.79 L 194.03,152.3 L 192.91,157.81 L 192,163.26 L 191.07,168.7 L 189.93,174.2 L 188.8,179.77 L 187.78,185.3 L 186.87,190.76 L 185.87,196.16 L 184.76,201.53 L 183.74,206.95 L 182.82,212.54 L 181.91,218.21 L 180.9,223.85 L 179.87,229.36 L 178.93,234.75 L 177.75,239.72 L 176.49,244.61 L 175.22,249.39 L 173.89,254.29 L 172.46,257.99 L 171.05,261.74 L 168.42,267 L 165.95,269.78 L 163.84,270.33 L 161.73,268.99 L 159.37,265.36 L 158.16,262.45 L 156.92,259.46 L 155.72,255.55 L 154.51,251.78 L 153.28,247.06 L 152,242.35 L 150.63,237.63 L 149.28,232.88 L 148.08,227.48 L 146.76,221.98 L 145.54,216.43 L 144.55,210.81 L 143.53,205.4 L 142.32,200.13 L 141.05,194.75 L 140.02,189.32 L 139.1,183.82 L 138.06,179 L 136.89,174.23 L 135.79,169.52 L 134.79,164.87 L 133.77,160.17 L 132.51,155.07 L 131.37,149.86 L 130.13,144.62 L 128.72,139.39 L 126.89,134.43 L 125.11,129.63 L 123.37,124.84 L 120.87,119.93 L 118.27,116.63 L 115.43,114.97 L 112.46,115.1 L 109.61,116.89 L 106.77,120.13 L 104.02,125.14 L 101.38,130.09 L 99.66,134.67 L 98.08,139.24 L 96.53,143.77 L 95.02,148.89 L 93.45,154.06 L 91.71,159.23 L 89.99,164.5 L 88.2,169.87 L 86.37,175.3 L 84.59,180.26 L 82.93,185.09 L 81.39,189.71 L 79.8,193.32 L 78.07,196.96 L 76.34,200.61 L 73.82,204.34 L 71.32,208.07 L 68.85,210.29 L 66.38,211.61 L 63.92,212.07 L 61.41,211.75 L 58.8,210.7 L 56.12,208.96 L 53.4,206.34 L 50.77,203.71 L 48.27,200.35 L 45.89,196.91 L 42.7,191.97 L 39.32,187.07 L 35.79,182.29 L 33.07,179.33 L 30.33,176.36 L 27.69,174.05 L 25.19,171.73 Z" fill="#1a1a1a" stroke="#1a1a1a" stroke-width="0.4" stroke-linejoin="round" />
</g></g>
<text x="14" y="26" font-family="sans-serif" font-size="14" fill="#999"></text>
<line x1="391" y1="8" x2="391" y2="352" stroke="#ddd" stroke-width="1" />
<line x1="793" y1="8" x2="793" y2="352" stroke="#ddd" stroke-width="1" />
<text x="190" y="20" text-anchor="middle" font-family="sans-serif" font-size="14" fill="#999">helix (hidden-line)</text>
<text x="592" y="20" text-anchor="middle" font-family="sans-serif" font-size="14" fill="#999">Bézier (exact carrier)</text>
<text x="994" y="20" text-anchor="middle" font-family="sans-serif" font-size="14" fill="#999">function plot</text>
</svg>