<svg xmlns="http://www.w3.org/2000/svg" viewBox="0 0 882 380" width="882" height="380">
<defs><clipPath id="clip-0-0" clipPathUnits="userSpaceOnUse"><rect x="0" y="0" width="430" height="380" /></clipPath><clipPath id="clip-0-1" clipPathUnits="userSpaceOnUse"><rect x="452" y="0" width="430" height="380" /></clipPath></defs>
<g clip-path="url(#clip-0-0)"><g transform="translate(0,0)">  <rect width="430" height="380" fill="#faf9f5" />
  <polyline points="226,164.02 224.01,169.21 221.92,174.27 219.74,179.37 217.46,184.38 215.03,189.2 212.51,194.19 210.1,199.23 207.87,204.31 205.7,209.48 203.63,214.71 201.58,219.89" fill="none" stroke="#1a1a1a" stroke-width="1.192" stroke-opacity="0.32" stroke-dasharray="4,3" stroke-linecap="round" stroke-linejoin="round" />
  <polyline points="226,164.02 231.83,164.49 237.6,164.97 243.34,165.52 249.03,166.07 254.72,166.57 260.43,167.01 266.16,167.43 271.93,167.85 277.72,168.3 283.54,168.77 289.33,169.24 295.1,169.7 300.91,170.17 306.77,170.68 312.66,171.2 318.55,171.7 324.43,172.17 330.24,172.59 335.96,172.98 341.65,173.37" fill="none" stroke="#1a1a1a" stroke-width="1.146" stroke-opacity="0.32" stroke-dasharray="4,3" stroke-linecap="round" stroke-linejoin="round" />
  <polyline points="226,164.02 226.09,158.1 226.13,152.13 226.13,146.16 226.14,140.18 226.15,134.15 226.14,128.07 226.13,122 226.16,116 226.2,110.03 226.24,104.05 226.27,98.08 226.27,92.14 226.26,86.22 226.28,80.29 226.38,74.33 226.5,68.34 226.62,62.34 226.76,56.37 226.96,50.39" fill="none" stroke="#1a1a1a" stroke-width="1.164" stroke-opacity="0.32" stroke-dasharray="4,3" stroke-linecap="round" stroke-linejoin="round" />
  <path d="M 227.51,50.41 L 227.51,50.22 L 226.41,50.18 L 226.41,50.38 Z" fill="#1a1a1a" stroke="#1a1a1a" stroke-width="0.4" stroke-linejoin="round" />
  <polyline points="201.58,219.89 207,220.48 212.42,221.06 217.82,221.6 223.22,222.11 228.65,222.59 234.11,223.08" fill="none" stroke="#1a1a1a" stroke-width="1.261" stroke-opacity="0.32" stroke-dasharray="4,3" stroke-linecap="round" stroke-linejoin="round" />
  <path d="M 234.05,223.66 L 239.99,224.24 L 245.91,224.87 L 251.82,225.5 L 257.76,226.08 L 263.7,226.63 L 269.66,227.17 L 275.63,227.73 L 281.61,228.32 L 287.58,228.9 L 293.54,229.47 L 299.48,230.01 L 305.41,230.54 L 311.31,231.11 L 317.19,231.69 L 323.04,232.26 L 328.91,232.74 L 334.78,233.19 L 340.64,233.69 L 340.75,232.5 L 334.89,231.93 L 329.04,231.36 L 323.18,230.78 L 317.33,230.2 L 311.46,229.62 L 305.55,229.06 L 299.62,228.54 L 293.67,228.02 L 287.72,227.46 L 281.75,226.87 L 275.77,226.29 L 269.79,225.72 L 263.84,225.15 L 257.9,224.6 L 251.96,224.05 L 246.04,223.53 L 240.11,223.02 L 234.16,222.49 Z" fill="#1a1a1a" stroke="#1a1a1a" stroke-width="0.4" stroke-linejoin="round" />
  <polyline points="201.58,219.89 201.58,214.16 201.51,208.4 201.44,202.57 201.37,196.68 201.29,190.81 201.19,185.01 201.08,179.3 200.96,173.63 200.88,167.94 200.84,162.14 200.8,156.28 200.76,150.4 200.71,144.57" fill="none" stroke="#1a1a1a" stroke-width="1.28" stroke-opacity="0.32" stroke-dasharray="4,3" stroke-linecap="round" stroke-linejoin="round" />
  <path d="M 201.32,144.56 L 201.31,138.77 L 201.27,132.99 L 201.18,127.22 L 201.1,121.45 L 201,115.69 L 200.88,109.92 L 200.76,104.17 L 200.64,98.42 L 200.46,92.7 L 200.27,87.01 L 199.03,87.04 L 199.07,92.73 L 199.14,98.46 L 199.26,104.2 L 199.36,109.95 L 199.46,115.71 L 199.56,121.48 L 199.67,127.25 L 199.8,133.02 L 199.96,138.79 L 200.11,144.58 Z" fill="#1a1a1a" stroke="#1a1a1a" stroke-width="0.4" stroke-linejoin="round" />
  <path d="M 341.29,233.11 L 341.3,232.71 L 340.12,232.68 L 340.11,233.08 Z" fill="#1a1a1a" stroke="#1a1a1a" stroke-width="0.4" stroke-linejoin="round" />
  <polyline points="340.71,232.7 340.87,226.89 340.97,221.02 341.13,215.02 341.3,209.06 341.41,203.08 341.45,197.09 341.39,191.11 341.42,185.25 341.52,179.29 341.65,173.37" fill="none" stroke="#1a1a1a" stroke-width="1.217" stroke-opacity="0.32" stroke-dasharray="4,3" stroke-linecap="round" stroke-linejoin="round" />
  <path d="M 341.31,233.15 L 341.89,227.44 L 342.56,221.76 L 343.27,216.07 L 343.99,210.4 L 344.65,204.73 L 345.29,199.06 L 345.98,193.37 L 346.71,187.66 L 347.42,181.94 L 348.09,176.21 L 348.71,170.5 L 349.31,164.81 L 349.9,159.12 L 350.52,153.43 L 351.2,147.73 L 351.89,142.04 L 352.59,136.33 L 353.27,130.63 L 353.95,124.92 L 354.65,119.22 L 355.32,113.52 L 355.97,107.81 L 356.61,102.08 L 357.26,96.3 L 356.04,96.16 L 355.36,101.93 L 354.64,107.65 L 353.9,113.35 L 353.16,119.04 L 352.45,124.73 L 351.75,130.44 L 351.06,136.15 L 350.35,141.85 L 349.65,147.54 L 348.98,153.25 L 348.36,158.96 L 347.77,164.65 L 347.19,170.34 L 346.59,176.04 L 345.93,181.76 L 345.2,187.47 L 344.48,193.18 L 343.78,198.88 L 343.12,204.55 L 342.45,210.22 L 341.83,215.9 L 341.22,221.61 L 340.64,227.31 L 340.09,233.03 Z" fill="#1a1a1a" stroke="#1a1a1a" stroke-width="0.4" stroke-linejoin="round" />
  <polyline points="341.65,173.37 342.32,167.64 342.96,161.83 343.59,155.98 344.23,150.13 344.87,144.28 345.48,138.45 346.08,132.64 346.66,126.83 347.26,121 347.91,115.16 348.53,109.31 349.07,103.46 349.54,97.68 350.06,91.92 350.68,86.13 351.37,80.28 352.07,74.39 352.78,68.5 353.51,62.61 354.25,56.7" fill="none" stroke="#1a1a1a" stroke-width="1.187" stroke-opacity="0.32" stroke-dasharray="4,3" stroke-linecap="round" stroke-linejoin="round" />
  <path d="M 354.81,56.76 L 354.83,56.56 L 353.72,56.43 L 353.69,56.63 Z" fill="#1a1a1a" stroke="#1a1a1a" stroke-width="0.4" stroke-linejoin="round" />
  <path d="M 226.49,49.86 L 223.01,54.44 L 219.55,59.13 L 216.24,63.92 L 212.98,68.46 L 209.79,72.9 L 206.52,77.45 L 202.94,82.03 L 199.19,86.64 L 200.1,87.41 L 204.02,82.91 L 207.67,78.32 L 210.99,73.76 L 214.18,69.31 L 217.42,64.75 L 220.7,59.94 L 224.09,55.23 L 227.43,50.54 Z" fill="#1a1a1a" stroke="#1a1a1a" stroke-width="0.4" stroke-linejoin="round" />
  <path d="M 226.94,50.76 L 232.69,51.01 L 238.45,51.33 L 244.22,51.68 L 249.97,52.03 L 255.7,52.37 L 261.45,52.7 L 267.23,53.07 L 273.04,53.44 L 278.87,53.78 L 284.73,54.07 L 290.61,54.3 L 296.46,54.52 L 302.26,54.74 L 308.05,55.02 L 313.86,55.29 L 319.67,55.56 L 325.48,55.82 L 331.26,56.1 L 337.02,56.35 L 342.77,56.58 L 348.51,56.81 L 354.25,57.05 L 354.3,55.94 L 348.56,55.65 L 342.83,55.34 L 337.08,55.02 L 331.32,54.71 L 325.55,54.43 L 319.74,54.15 L 313.92,53.88 L 308.12,53.61 L 302.33,53.33 L 296.51,53.11 L 290.66,52.91 L 284.79,52.7 L 278.94,52.41 L 273.12,52.06 L 267.32,51.69 L 261.54,51.32 L 255.79,50.96 L 250.05,50.62 L 244.29,50.34 L 238.51,50.09 L 232.74,49.87 L 226.99,49.65 Z" fill="#1a1a1a" stroke="#1a1a1a" stroke-width="0.4" stroke-linejoin="round" />
  <path d="M 199.62,87.65 L 205.53,87.97 L 211.45,88.29 L 217.35,88.62 L 223.22,88.95 L 229.04,89.25 L 234.82,89.56 L 240.58,89.92 L 246.33,90.3 L 252.08,90.73 L 257.83,91.19 L 263.58,91.65 L 269.33,92.08 L 275.1,92.47 L 280.87,92.83 L 286.66,93.19 L 292.48,93.53 L 298.31,93.87 L 304.15,94.22 L 309.98,94.57 L 315.78,94.89 L 321.59,95.17 L 327.43,95.42 L 333.3,95.68 L 339.17,95.94 L 345,96.22 L 350.82,96.53 L 356.61,96.86 L 356.69,95.6 L 350.89,95.25 L 345.08,94.89 L 339.24,94.54 L 333.37,94.22 L 327.5,93.94 L 321.66,93.67 L 315.86,93.37 L 310.07,93.03 L 304.25,92.67 L 298.41,92.3 L 292.57,91.95 L 286.76,91.6 L 280.97,91.25 L 275.2,90.89 L 269.44,90.5 L 263.69,90.09 L 257.95,89.65 L 252.19,89.2 L 246.44,88.77 L 240.68,88.37 L 234.91,88.01 L 229.12,87.68 L 223.29,87.39 L 217.42,87.16 L 211.51,86.94 L 205.59,86.7 L 199.68,86.4 Z" fill="#1a1a1a" stroke="#1a1a1a" stroke-width="0.4" stroke-linejoin="round" />
  <path d="M 357.24,96.19 L 357.01,90.46 L 356.71,84.85 L 356.5,79.21 L 356.13,73.47 L 355.7,67.91 L 355.35,62.21 L 354.88,56.46 L 353.67,56.53 L 353.89,62.29 L 354.2,68.01 L 354.63,73.58 L 355.03,79.29 L 355.27,84.92 L 355.63,90.54 L 356.06,96.26 Z" fill="#1a1a1a" stroke="#1a1a1a" stroke-width="0.4" stroke-linejoin="round" />
  <path d="M 64.42,200.39 L 61.7,205.59 L 58.99,210.62 L 56.51,215.66 L 54.22,220.87 L 51.73,226.14 L 49.26,231.43 L 46.73,236.54 L 44.07,241.76 L 41.4,246.95 L 38.84,251.99 L 36.31,257.12 L 33.79,262.38 L 31.34,267.67 L 28.93,272.9 L 26.42,278.08 L 23.95,283.29 L 21.49,288.62 L 22.84,289.26 L 25.36,283.96 L 27.96,278.84 L 30.58,273.7 L 33.05,268.46 L 35.52,263.19 L 38.03,257.96 L 40.55,252.84 L 43.1,247.82 L 45.76,242.62 L 48.41,237.38 L 50.96,232.25 L 53.45,226.95 L 55.95,221.65 L 58.21,216.44 L 60.55,211.4 L 63.09,206.31 L 65.75,201.08 Z" fill="#1a1a1a" stroke="#1a1a1a" stroke-width="0.4" stroke-linejoin="round" />
  <path d="M 64.69,201.4 L 69.91,204.45 L 75.12,207.48 L 80.32,210.51 L 85.53,213.53 L 90.73,216.53 L 95.94,219.53 L 101.15,222.53 L 106.35,225.53 L 111.53,228.53 L 116.71,231.54 L 121.87,234.54 L 127.04,237.55 L 132.22,240.55 L 137.42,243.53 L 142.62,246.52 L 147.79,249.5 L 152.94,252.5 L 158.11,255.51 L 163.29,258.53 L 168.49,261.55 L 173.7,264.57 L 178.91,267.57 L 184.09,270.55 L 189.25,273.53 L 194.41,276.52 L 199.56,279.53 L 204.7,282.54 L 209.85,285.56 L 215.01,288.56 L 220.19,291.55 L 225.39,294.55 L 230.57,297.57 L 235.73,300.59 L 240.87,303.59 L 246.01,306.58 L 251.16,309.56 L 256.34,312.53 L 261.52,315.5 L 266.71,318.48 L 271.89,321.49 L 277.07,324.51 L 277.87,323.14 L 272.69,320.11 L 267.53,317.07 L 262.39,314.02 L 257.25,310.97 L 252.1,307.95 L 246.96,304.94 L 241.83,301.95 L 236.68,298.95 L 231.51,295.96 L 226.32,292.95 L 221.14,289.93 L 215.97,286.91 L 210.82,283.9 L 205.66,280.89 L 200.51,277.89 L 195.36,274.89 L 190.2,271.89 L 185.04,268.9 L 179.85,265.92 L 174.64,262.94 L 169.41,259.95 L 164.21,256.95 L 159.02,253.94 L 153.85,250.94 L 148.69,247.94 L 143.53,244.94 L 138.35,241.92 L 133.18,238.89 L 128.02,235.86 L 122.86,232.85 L 117.7,229.83 L 112.52,226.83 L 107.32,223.84 L 102.11,220.85 L 96.89,217.87 L 91.66,214.91 L 86.42,211.97 L 81.17,209.02 L 75.92,206.08 L 70.69,203.1 L 65.47,200.07 Z" fill="#1a1a1a" stroke="#1a1a1a" stroke-width="0.4" stroke-linejoin="round" />
  <path d="M 65.63,201.24 L 69.64,196.91 L 73.67,192.61 L 77.74,188.35 L 81.83,184.12 L 85.93,179.89 L 90,175.61 L 94.04,171.28 L 98.09,166.93 L 102.19,162.59 L 106.3,158.28 L 110.35,153.96 L 114.37,149.62 L 118.43,145.29 L 122.53,140.97 L 126.61,136.6 L 130.67,132.13 L 134.7,127.63 L 138.7,123.2 L 142.65,118.78 L 146.57,114.4 L 150.52,110.05 L 154.59,105.73 L 158.72,101.38 L 162.87,96.96 L 167.03,92.59 L 171.18,88.25 L 175.31,83.91 L 174.21,82.86 L 170.07,87.18 L 165.86,91.45 L 161.62,95.76 L 157.4,100.12 L 153.25,104.47 L 149.19,108.83 L 145.25,113.21 L 141.33,117.6 L 137.38,122.02 L 133.4,126.46 L 129.37,130.96 L 125.31,135.39 L 121.21,139.73 L 117.08,144.01 L 112.99,148.33 L 108.96,152.66 L 104.91,156.97 L 100.8,161.28 L 96.7,165.64 L 92.66,170 L 88.64,174.32 L 84.56,178.57 L 80.48,182.84 L 76.46,187.15 L 72.48,191.5 L 68.52,195.87 L 64.53,200.23 Z" fill="#1a1a1a" stroke="#1a1a1a" stroke-width="0.4" stroke-linejoin="round" />
  <path d="M 22.07,289.62 L 27.94,290.43 L 33.83,291.25 L 39.75,292.06 L 45.68,292.86 L 51.61,293.67 L 57.55,294.46 L 63.51,295.25 L 69.49,296 L 75.48,296.73 L 81.47,297.45 L 87.47,298.19 L 93.45,298.98 L 99.43,299.81 L 105.38,300.67 L 111.31,301.55 L 117.23,302.45 L 123.13,303.34 L 129.03,304.21 L 134.92,305.02 L 140.82,305.77 L 146.73,306.49 L 152.64,307.21 L 158.57,307.97 L 164.5,308.78 L 170.44,309.63 L 176.38,310.51 L 182.31,311.42 L 188.25,312.32 L 194.21,313.2 L 200.19,314.03 L 206.15,314.83 L 212.1,315.63 L 218.02,316.44 L 223.93,317.26 L 229.83,318.13 L 235.75,319.03 L 241.7,319.9 L 247.67,320.72 L 253.64,321.51 L 259.58,322.27 L 265.51,323.01 L 271.43,323.76 L 277.38,324.52 L 277.56,323.14 L 271.61,322.35 L 265.69,321.57 L 259.78,320.78 L 253.85,319.96 L 247.9,319.11 L 241.95,318.21 L 236.01,317.32 L 230.08,316.44 L 224.16,315.59 L 218.25,314.77 L 212.32,313.99 L 206.37,313.2 L 200.42,312.38 L 194.45,311.52 L 188.5,310.64 L 182.56,309.74 L 176.63,308.85 L 170.68,307.97 L 164.73,307.11 L 158.79,306.29 L 152.85,305.54 L 146.93,304.84 L 141.02,304.15 L 135.13,303.41 L 129.25,302.61 L 123.37,301.75 L 117.47,300.86 L 111.56,299.95 L 105.62,299.03 L 99.67,298.13 L 93.69,297.27 L 87.69,296.46 L 81.68,295.71 L 75.69,294.99 L 69.7,294.27 L 63.73,293.54 L 57.77,292.8 L 51.82,292.04 L 45.88,291.3 L 39.95,290.57 L 34.02,289.83 L 28.13,289.06 L 22.26,288.26 Z" fill="#1a1a1a" stroke="#1a1a1a" stroke-width="0.4" stroke-linejoin="round" />
  <path d="M 22.7,289.33 L 22.89,289.07 L 21.82,288.28 L 21.62,288.54 Z" fill="#1a1a1a" stroke="#1a1a1a" stroke-width="0.4" stroke-linejoin="round" />
  <polyline points="22.36,288.68 25.9,283.85 29.47,279.04 33.03,274.27 36.6,269.57 40.16,264.9 43.73,260.21 47.31,255.48 50.89,250.72 54.45,245.94 57.99,241.16 61.52,236.38 65.03,231.59 68.54,226.8 72.04,221.99 75.54,217.16 79.05,212.32 82.57,207.49 86.1,202.7 89.64,197.96 93.17,193.25 96.69,188.54 100.18,183.8 103.67,179.04 107.16,174.26 110.65,169.49 114.17,164.72 117.71,159.98 121.24,155.24 124.77,150.51 128.29,145.78 131.79,141.04 135.28,136.28 138.79,131.5 142.31,126.72 145.85,121.94 149.44,117.16 153.06,112.38 156.7,107.59 160.3,102.81 163.86,98.05 167.4,93.29 170.92,88.54 174.44,83.81" fill="none" stroke="#1a1a1a" stroke-width="1.441" stroke-opacity="0.32" stroke-dasharray="4,3" stroke-linecap="round" stroke-linejoin="round" />
  <path d="M 174.98,84.2 L 175.29,83.78 L 174.22,82.99 L 173.91,83.41 Z" fill="#1a1a1a" stroke="#1a1a1a" stroke-width="0.4" stroke-linejoin="round" />
  <path d="M 278.09,323.55 L 275.71,318.09 L 273.37,312.62 L 271.07,307.13 L 268.8,301.64 L 266.54,296.14 L 264.28,290.65 L 262,285.15 L 259.7,279.66 L 257.35,274.16 L 254.99,268.67 L 252.64,263.19 L 250.3,257.7 L 247.95,252.21 L 245.59,246.7 L 243.25,241.2 L 240.91,235.71 L 238.56,230.24 L 236.2,224.79 L 233.83,219.34 L 231.44,213.89 L 229.07,208.45 L 226.74,203.04 L 224.43,197.64 L 222.13,192.24 L 219.81,186.83 L 217.48,181.42 L 215.14,175.99 L 212.79,170.55 L 210.45,165.11 L 208.1,159.67 L 205.77,154.21 L 203.45,148.74 L 201.13,143.26 L 198.81,137.77 L 196.49,132.28 L 194.16,126.79 L 191.83,121.29 L 189.45,115.8 L 187.05,110.32 L 184.67,104.86 L 182.34,99.41 L 180.03,93.99 L 177.71,88.56 L 175.39,83.11 L 174.12,83.65 L 176.42,89.11 L 178.68,94.55 L 180.95,100 L 183.25,105.47 L 185.57,110.96 L 187.9,116.47 L 190.23,121.97 L 192.58,127.46 L 194.92,132.94 L 197.26,138.43 L 199.6,143.91 L 201.93,149.38 L 204.26,154.85 L 206.57,160.32 L 208.89,165.78 L 211.23,171.23 L 213.59,176.66 L 215.94,182.09 L 218.27,187.5 L 220.58,192.9 L 222.88,198.3 L 225.2,203.7 L 227.56,209.12 L 229.95,214.54 L 232.35,219.99 L 234.72,225.43 L 237.09,230.88 L 239.43,236.34 L 241.76,241.84 L 244.07,247.35 L 246.38,252.87 L 248.7,258.38 L 251.04,263.87 L 253.39,269.36 L 255.75,274.85 L 258.1,280.33 L 260.43,285.81 L 262.74,291.29 L 265.03,296.77 L 267.35,302.24 L 269.69,307.72 L 272.06,313.18 L 274.45,318.64 L 276.84,324.1 Z" fill="#1a1a1a" stroke="#1a1a1a" stroke-width="0.4" stroke-linejoin="round" />
</g></g>
<g clip-path="url(#clip-0-1)"><g transform="translate(452,0)">  <rect width="430" height="380" fill="#faf9f5" />
  <path d="M 322.35,55.18 L 325.9,56.34 L 329.45,57.49 L 333.01,58.64 L 336.6,59.79 L 340.2,60.95 L 343.81,62.13 L 347.43,63.33 L 351.05,64.54 L 354.69,65.74 L 354.89,65.14 L 351.27,63.91 L 347.65,62.68 L 344.03,61.47 L 340.42,60.29 L 336.81,59.12 L 333.23,57.96 L 329.67,56.81 L 326.11,55.68 L 322.55,54.57 Z" fill="#1a1a1a" fill-opacity="0.55" stroke="#1a1a1a" stroke-width="0.4" stroke-opacity="0.55" stroke-linejoin="round" />
  <path d="M 288.24,53.76 L 291.97,55 L 295.7,56.21 L 299.41,57.37 L 303.1,58.49 L 306.77,59.61 L 310.43,60.76 L 314.08,61.94 L 317.75,63.17 L 321.46,64.43 L 325.23,65.71 L 329.03,66.97 L 332.83,68.21 L 336.62,69.43 L 340.39,70.64 L 344.15,71.84 L 347.9,73.05 L 351.63,74.26 L 351.83,73.66 L 348.1,72.42 L 344.36,71.19 L 340.61,69.97 L 336.84,68.77 L 333.05,67.55 L 329.25,66.31 L 325.45,65.05 L 321.69,63.78 L 317.97,62.52 L 314.29,61.3 L 310.64,60.11 L 306.98,58.96 L 303.3,57.83 L 299.61,56.71 L 295.9,55.56 L 292.17,54.38 L 288.44,53.16 Z" fill="#1a1a1a" fill-opacity="0.55" stroke="#1a1a1a" stroke-width="0.4" stroke-opacity="0.55" stroke-linejoin="round" />
  <path d="M 254.28,52.03 L 258.05,53.23 L 261.81,54.46 L 265.55,55.7 L 269.3,56.93 L 273.05,58.12 L 276.8,59.32 L 280.55,60.55 L 284.27,61.79 L 288,63.05 L 291.74,64.31 L 295.51,65.57 L 299.3,66.82 L 303.08,68.06 L 306.84,69.28 L 310.62,70.49 L 314.4,71.69 L 318.17,72.89 L 321.92,74.08 L 325.65,75.28 L 329.37,76.47 L 333.1,77.67 L 336.83,78.87 L 340.58,80.08 L 344.34,81.3 L 348.09,82.54 L 351.83,83.78 L 352.03,83.18 L 348.29,81.94 L 344.54,80.68 L 340.79,79.44 L 337.05,78.21 L 333.31,77 L 329.59,75.79 L 325.87,74.59 L 322.14,73.39 L 318.39,72.2 L 314.62,71 L 310.84,69.81 L 307.06,68.6 L 303.3,67.39 L 299.52,66.15 L 295.73,64.9 L 291.96,63.65 L 288.22,62.39 L 284.5,61.13 L 280.76,59.88 L 277.02,58.66 L 273.26,57.46 L 269.51,56.27 L 265.76,55.06 L 262.01,53.85 L 258.25,52.63 L 254.47,51.43 Z" fill="#1a1a1a" fill-opacity="0.55" stroke="#1a1a1a" stroke-width="0.4" stroke-opacity="0.55" stroke-linejoin="round" />
  <path d="M 225.67,52.18 L 229.38,53.39 L 233.13,54.63 L 236.9,55.89 L 240.66,57.16 L 244.39,58.44 L 248.08,59.72 L 251.76,60.99 L 255.45,62.23 L 259.14,63.46 L 262.84,64.66 L 266.53,65.85 L 270.25,67.04 L 273.99,68.24 L 277.76,69.45 L 281.55,70.66 L 285.34,71.88 L 289.11,73.09 L 292.86,74.31 L 296.58,75.52 L 300.31,76.71 L 304.05,77.9 L 307.8,79.07 L 311.56,80.22 L 315.32,81.37 L 319.08,82.54 L 322.82,83.74 L 326.56,84.96 L 330.29,86.19 L 334.02,87.42 L 337.75,88.64 L 341.49,89.84 L 345.22,91.02 L 348.94,92.18 L 352.66,93.34 L 352.85,92.74 L 349.13,91.57 L 345.41,90.4 L 341.69,89.2 L 337.96,87.99 L 334.24,86.76 L 330.51,85.54 L 326.78,84.3 L 323.04,83.08 L 319.28,81.88 L 315.53,80.71 L 311.76,79.55 L 308.01,78.39 L 304.26,77.22 L 300.53,76.03 L 296.81,74.83 L 293.08,73.62 L 289.34,72.4 L 285.56,71.18 L 281.77,69.97 L 277.98,68.76 L 274.21,67.55 L 270.47,66.36 L 266.75,65.18 L 263.05,63.99 L 259.36,62.79 L 255.67,61.57 L 251.99,60.32 L 248.31,59.05 L 244.62,57.77 L 240.88,56.51 L 237.11,55.27 L 233.33,54.02 L 229.58,52.79 L 225.86,51.58 Z" fill="#1a1a1a" fill-opacity="0.55" stroke="#1a1a1a" stroke-width="0.4" stroke-opacity="0.55" stroke-linejoin="round" />
  <path d="M 219.9,60.08 L 223.66,61.3 L 227.42,62.51 L 231.2,63.75 L 234.99,64.98 L 238.8,66.2 L 242.61,67.4 L 246.39,68.6 L 250.15,69.78 L 253.92,70.96 L 257.7,72.15 L 261.49,73.34 L 265.28,74.54 L 269.07,75.75 L 272.86,76.96 L 276.64,78.17 L 280.42,79.38 L 284.21,80.59 L 288,81.81 L 291.79,83.04 L 295.56,84.29 L 299.3,85.56 L 303.03,86.83 L 306.76,88.09 L 310.49,89.33 L 314.24,90.55 L 318,91.75 L 321.77,92.95 L 325.52,94.15 L 329.27,95.36 L 333.02,96.56 L 336.77,97.76 L 340.52,98.95 L 344.27,100.14 L 348.03,101.33 L 351.78,102.53 L 351.98,101.94 L 348.22,100.73 L 344.47,99.53 L 340.72,98.32 L 336.97,97.12 L 333.23,95.91 L 329.48,94.69 L 325.74,93.48 L 321.98,92.28 L 318.22,91.08 L 314.46,89.87 L 310.71,88.66 L 306.98,87.43 L 303.25,86.17 L 299.52,84.9 L 295.78,83.63 L 292,82.38 L 288.21,81.15 L 284.42,79.93 L 280.63,78.72 L 276.86,77.5 L 273.08,76.28 L 269.29,75.07 L 265.5,73.86 L 261.7,72.67 L 257.91,71.48 L 254.14,70.29 L 250.37,69.1 L 246.6,67.91 L 242.82,66.72 L 239.02,65.52 L 235.2,64.32 L 231.4,63.11 L 227.62,61.9 L 223.85,60.69 L 220.1,59.48 Z" fill="#1a1a1a" fill-opacity="0.55" stroke="#1a1a1a" stroke-width="0.4" stroke-opacity="0.55" stroke-linejoin="round" />
  <path d="M 214.38,67.46 L 218.19,68.66 L 222,69.87 L 225.83,71.09 L 229.65,72.35 L 233.45,73.6 L 237.24,74.85 L 241.02,76.07 L 244.8,77.28 L 248.57,78.49 L 252.36,79.7 L 256.14,80.93 L 259.93,82.16 L 263.71,83.39 L 267.5,84.63 L 271.28,85.89 L 275.07,87.16 L 278.85,88.44 L 282.64,89.74 L 286.44,91.04 L 290.23,92.34 L 294.03,93.62 L 297.83,94.87 L 301.63,96.1 L 305.43,97.32 L 309.22,98.53 L 313.01,99.73 L 316.79,100.93 L 320.56,102.13 L 324.33,103.33 L 328.11,104.53 L 331.89,105.73 L 335.67,106.93 L 339.46,108.15 L 343.24,109.38 L 347.01,110.62 L 350.77,111.86 L 354.52,113.11 L 354.72,112.5 L 350.97,111.26 L 347.21,110.01 L 343.44,108.75 L 339.67,107.51 L 335.89,106.27 L 332.1,105.06 L 328.32,103.86 L 324.54,102.67 L 320.77,101.48 L 316.99,100.29 L 313.21,99.09 L 309.43,97.89 L 305.64,96.68 L 301.84,95.45 L 298.05,94.22 L 294.25,92.96 L 290.46,91.68 L 286.67,90.37 L 282.88,89.06 L 279.09,87.76 L 275.3,86.48 L 271.51,85.21 L 267.72,83.96 L 263.93,82.73 L 260.14,81.5 L 256.35,80.28 L 252.56,79.06 L 248.78,77.85 L 245,76.63 L 241.23,75.42 L 237.45,74.19 L 233.66,72.96 L 229.86,71.71 L 226.03,70.47 L 222.2,69.26 L 218.38,68.06 L 214.57,66.86 Z" fill="#1a1a1a" fill-opacity="0.55" stroke="#1a1a1a" stroke-width="0.4" stroke-opacity="0.55" stroke-linejoin="round" />
  <path d="M 208.78,75.18 L 212.43,76.39 L 216.12,77.62 L 219.83,78.86 L 223.56,80.08 L 227.3,81.28 L 231.05,82.45 L 234.79,83.61 L 238.53,84.77 L 242.27,85.92 L 246.01,87.09 L 249.75,88.27 L 253.47,89.46 L 257.18,90.66 L 260.87,91.87 L 264.57,93.07 L 268.28,94.27 L 272,95.47 L 275.73,96.69 L 279.44,97.91 L 283.14,99.14 L 286.83,100.38 L 290.51,101.61 L 294.17,102.84 L 297.84,104.05 L 301.51,105.25 L 305.19,106.43 L 308.9,107.61 L 312.62,108.8 L 316.34,110.01 L 320.07,111.24 L 323.8,112.49 L 327.53,113.74 L 331.26,114.98 L 334.98,116.2 L 338.69,117.42 L 342.38,118.62 L 346.06,119.82 L 349.73,121.03 L 349.93,120.43 L 346.26,119.22 L 342.58,118 L 338.89,116.78 L 335.19,115.56 L 331.48,114.32 L 327.75,113.07 L 324.02,111.82 L 320.29,110.58 L 316.56,109.34 L 312.84,108.12 L 309.12,106.92 L 305.41,105.74 L 301.73,104.57 L 298.06,103.38 L 294.4,102.17 L 290.73,100.95 L 287.06,99.71 L 283.37,98.47 L 279.67,97.23 L 275.95,96.01 L 272.23,94.79 L 268.5,93.59 L 264.79,92.39 L 261.09,91.19 L 257.39,89.99 L 253.68,88.79 L 249.96,87.61 L 246.22,86.43 L 242.48,85.26 L 238.73,84.1 L 234.99,82.95 L 231.25,81.79 L 227.51,80.63 L 223.77,79.45 L 220.03,78.24 L 216.32,77.02 L 212.63,75.79 L 208.97,74.58 Z" fill="#1a1a1a" fill-opacity="0.55" stroke="#1a1a1a" stroke-width="0.4" stroke-opacity="0.55" stroke-linejoin="round" />
  <path d="M 203.22,82.77 L 206.94,83.94 L 210.65,85.1 L 214.36,86.28 L 218.06,87.48 L 221.75,88.68 L 225.45,89.9 L 229.16,91.11 L 232.86,92.33 L 236.58,93.54 L 240.3,94.76 L 244.03,95.98 L 247.76,97.21 L 251.5,98.45 L 255.24,99.7 L 258.98,100.96 L 262.72,102.21 L 266.46,103.47 L 270.2,104.72 L 273.94,105.97 L 277.68,107.22 L 281.41,108.45 L 285.13,109.67 L 288.85,110.89 L 292.56,112.11 L 296.28,113.33 L 299.99,114.55 L 303.73,115.77 L 307.47,116.98 L 311.22,118.19 L 314.97,119.4 L 318.72,120.62 L 322.46,121.83 L 326.2,123.04 L 329.93,124.25 L 333.66,125.44 L 337.39,126.62 L 341.11,127.79 L 344.83,128.96 L 348.54,130.15 L 348.73,129.55 L 345.02,128.36 L 341.3,127.18 L 337.59,125.99 L 333.86,124.79 L 330.14,123.59 L 326.41,122.38 L 322.68,121.17 L 318.94,119.95 L 315.19,118.74 L 311.44,117.52 L 307.69,116.31 L 303.95,115.09 L 300.22,113.88 L 296.5,112.66 L 292.78,111.44 L 289.07,110.22 L 285.35,109 L 281.63,107.78 L 277.9,106.54 L 274.16,105.3 L 270.43,104.05 L 266.69,102.8 L 262.95,101.54 L 259.21,100.28 L 255.47,99.02 L 251.72,97.77 L 247.98,96.53 L 244.25,95.31 L 240.52,94.09 L 236.8,92.87 L 233.08,91.66 L 229.37,90.45 L 225.67,89.24 L 221.97,88.03 L 218.26,86.83 L 214.56,85.65 L 210.85,84.48 L 207.13,83.33 L 203.41,82.16 Z" fill="#1a1a1a" fill-opacity="0.55" stroke="#1a1a1a" stroke-width="0.4" stroke-opacity="0.55" stroke-linejoin="round" />
  <path d="M 199.74,91.31 L 203.53,92.53 L 207.33,93.74 L 211.12,94.95 L 214.91,96.16 L 218.71,97.36 L 222.52,98.56 L 226.34,99.77 L 230.16,100.97 L 233.99,102.18 L 237.81,103.4 L 241.63,104.61 L 245.44,105.85 L 249.24,107.09 L 253.04,108.34 L 256.83,109.6 L 260.61,110.86 L 264.39,112.12 L 268.16,113.37 L 271.92,114.61 L 275.69,115.86 L 279.46,117.1 L 283.23,118.36 L 287.02,119.63 L 290.81,120.9 L 294.6,122.17 L 298.39,123.42 L 302.18,124.65 L 305.98,125.87 L 309.76,127.08 L 313.54,128.3 L 317.32,129.52 L 321.1,130.74 L 324.88,131.96 L 328.68,133.17 L 332.48,134.36 L 336.28,135.54 L 340.09,136.72 L 343.9,137.91 L 347.71,139.1 L 347.9,138.5 L 344.09,137.3 L 340.28,136.11 L 336.48,134.92 L 332.68,133.72 L 328.89,132.51 L 325.1,131.29 L 321.32,130.07 L 317.54,128.84 L 313.76,127.62 L 309.98,126.41 L 306.19,125.2 L 302.4,123.98 L 298.61,122.76 L 294.82,121.51 L 291.02,120.25 L 287.24,118.98 L 283.45,117.71 L 279.67,116.45 L 275.9,115.2 L 272.14,113.95 L 268.38,112.71 L 264.61,111.45 L 260.84,110.2 L 257.05,108.93 L 253.26,107.67 L 249.46,106.42 L 245.66,105.17 L 241.85,103.93 L 238.03,102.71 L 234.21,101.49 L 230.38,100.28 L 226.56,99.08 L 222.73,97.89 L 218.92,96.7 L 215.12,95.51 L 211.32,94.32 L 207.52,93.13 L 203.73,91.92 L 199.93,90.71 Z" fill="#1a1a1a" fill-opacity="0.55" stroke="#1a1a1a" stroke-width="0.4" stroke-opacity="0.55" stroke-linejoin="round" />
  <path d="M 199.98,100.72 L 203.77,101.96 L 207.55,103.21 L 211.32,104.45 L 215.07,105.7 L 218.81,106.93 L 222.56,108.15 L 226.3,109.35 L 230.04,110.55 L 233.79,111.76 L 237.53,112.97 L 241.28,114.19 L 245.03,115.41 L 248.77,116.62 L 252.52,117.84 L 256.29,119.06 L 260.06,120.28 L 263.84,121.5 L 267.6,122.71 L 271.35,123.92 L 275.1,125.13 L 278.85,126.34 L 282.61,127.56 L 286.39,128.78 L 290.19,129.99 L 294,131.19 L 297.81,132.38 L 301.61,133.56 L 305.39,134.75 L 309.14,135.95 L 312.89,137.17 L 316.62,138.43 L 320.36,139.69 L 324.11,140.96 L 327.86,142.22 L 331.62,143.48 L 335.38,144.72 L 339.15,145.95 L 342.92,147.17 L 346.68,148.39 L 350.44,149.6 L 350.63,149 L 346.87,147.79 L 343.12,146.56 L 339.36,145.32 L 335.6,144.07 L 331.84,142.81 L 328.08,141.55 L 324.33,140.29 L 320.59,139.02 L 316.85,137.75 L 313.11,136.5 L 309.36,135.28 L 305.6,134.08 L 301.82,132.9 L 298.02,131.72 L 294.21,130.53 L 290.4,129.34 L 286.6,128.13 L 282.82,126.91 L 279.06,125.69 L 275.32,124.47 L 271.57,123.25 L 267.82,122.04 L 264.05,120.83 L 260.28,119.61 L 256.51,118.4 L 252.74,117.18 L 248.99,115.97 L 245.24,114.75 L 241.49,113.54 L 237.74,112.32 L 233.99,111.11 L 230.25,109.9 L 226.51,108.7 L 222.77,107.49 L 219.03,106.28 L 215.28,105.06 L 211.52,103.83 L 207.75,102.6 L 203.97,101.36 L 200.18,100.12 Z" fill="#1a1a1a" fill-opacity="0.55" stroke="#1a1a1a" stroke-width="0.4" stroke-opacity="0.55" stroke-linejoin="round" />
  <path d="M 200.16,110.13 L 203.91,111.34 L 207.66,112.55 L 211.4,113.76 L 215.13,114.97 L 218.85,116.19 L 222.56,117.42 L 226.28,118.65 L 230,119.9 L 233.72,121.14 L 237.44,122.36 L 241.16,123.58 L 244.87,124.78 L 248.57,125.97 L 252.27,127.16 L 255.96,128.35 L 259.64,129.55 L 263.33,130.75 L 267.04,131.95 L 270.75,133.16 L 274.49,134.36 L 278.24,135.56 L 282.01,136.76 L 285.78,137.97 L 289.55,139.18 L 293.32,140.4 L 297.08,141.62 L 300.83,142.83 L 304.57,144.04 L 308.3,145.26 L 312.03,146.48 L 315.76,147.7 L 319.5,148.93 L 323.24,150.17 L 326.98,151.4 L 330.72,152.64 L 334.45,153.88 L 338.19,155.13 L 341.9,156.37 L 345.61,157.6 L 345.81,157.01 L 342.1,155.77 L 338.39,154.52 L 334.66,153.26 L 330.93,152.01 L 327.2,150.75 L 323.46,149.51 L 319.72,148.27 L 315.98,147.04 L 312.25,145.82 L 308.51,144.6 L 304.78,143.39 L 301.04,142.18 L 297.29,140.97 L 293.53,139.75 L 289.76,138.54 L 285.99,137.33 L 282.21,136.12 L 278.45,134.91 L 274.7,133.71 L 270.97,132.5 L 267.25,131.29 L 263.55,130.09 L 259.86,128.89 L 256.17,127.69 L 252.48,126.5 L 248.78,125.31 L 245.08,124.11 L 241.37,122.91 L 237.66,121.69 L 233.94,120.46 L 230.22,119.22 L 226.5,117.98 L 222.78,116.75 L 219.06,115.54 L 215.34,114.33 L 211.6,113.13 L 207.86,111.94 L 204.11,110.74 L 200.36,109.53 Z" fill="#1a1a1a" fill-opacity="0.55" stroke="#1a1a1a" stroke-width="0.4" stroke-opacity="0.55" stroke-linejoin="round" />
  <path d="M 200.2,119.5 L 204,120.75 L 207.81,122 L 211.61,123.26 L 215.41,124.52 L 219.2,125.78 L 222.98,127.03 L 226.77,128.27 L 230.56,129.51 L 234.35,130.75 L 238.14,132 L 241.93,133.25 L 245.71,134.5 L 249.48,135.76 L 253.26,137 L 257.03,138.25 L 260.82,139.5 L 264.61,140.74 L 268.4,141.98 L 272.21,143.23 L 276.01,144.49 L 279.82,145.75 L 283.62,147.02 L 287.42,148.29 L 291.21,149.55 L 294.99,150.8 L 298.77,152.04 L 302.56,153.27 L 306.36,154.5 L 310.18,155.74 L 314.01,156.98 L 317.83,158.21 L 321.63,159.45 L 325.43,160.66 L 329.2,161.86 L 332.98,163.04 L 336.76,164.22 L 340.55,165.39 L 344.36,166.57 L 344.55,165.96 L 340.74,164.77 L 336.95,163.59 L 333.18,162.41 L 329.41,161.21 L 325.64,159.99 L 321.86,158.76 L 318.05,157.52 L 314.23,156.28 L 310.4,155.05 L 306.58,153.81 L 302.78,152.58 L 298.99,151.35 L 295.21,150.11 L 291.43,148.86 L 287.65,147.6 L 283.85,146.34 L 280.05,145.07 L 276.23,143.82 L 272.43,142.56 L 268.62,141.32 L 264.82,140.08 L 261.04,138.83 L 257.25,137.58 L 253.48,136.34 L 249.7,135.09 L 245.92,133.85 L 242.14,132.6 L 238.35,131.36 L 234.56,130.11 L 230.77,128.87 L 226.98,127.63 L 223.2,126.38 L 219.41,125.14 L 215.61,123.9 L 211.81,122.65 L 208,121.4 L 204.2,120.16 L 200.39,118.91 Z" fill="#1a1a1a" fill-opacity="0.55" stroke="#1a1a1a" stroke-width="0.4" stroke-opacity="0.55" stroke-linejoin="round" />
  <path d="M 200.29,129.05 L 204.07,130.26 L 207.86,131.49 L 211.64,132.72 L 215.41,133.95 L 219.19,135.19 L 222.97,136.42 L 226.75,137.65 L 230.52,138.88 L 234.3,140.11 L 238.07,141.35 L 241.85,142.58 L 245.63,143.8 L 249.41,145.01 L 253.19,146.22 L 256.97,147.44 L 260.76,148.66 L 264.55,149.9 L 268.34,151.13 L 272.12,152.38 L 275.89,153.62 L 279.65,154.86 L 283.41,156.09 L 287.17,157.32 L 290.92,158.54 L 294.68,159.76 L 298.44,160.97 L 302.19,162.18 L 305.94,163.39 L 309.68,164.62 L 313.41,165.85 L 317.15,167.08 L 320.9,168.32 L 324.67,169.56 L 328.45,170.8 L 332.24,172.04 L 336.03,173.28 L 339.81,174.52 L 343.57,175.77 L 347.32,177.01 L 347.52,176.41 L 343.78,175.16 L 340.02,173.9 L 336.25,172.64 L 332.46,171.38 L 328.67,170.12 L 324.89,168.87 L 321.13,167.63 L 317.38,166.4 L 313.64,165.17 L 309.9,163.95 L 306.16,162.73 L 302.4,161.53 L 298.65,160.32 L 294.89,159.11 L 291.14,157.89 L 287.38,156.66 L 283.63,155.43 L 279.87,154.19 L 276.11,152.95 L 272.34,151.7 L 268.56,150.46 L 264.77,149.22 L 260.98,147.99 L 257.19,146.76 L 253.4,145.55 L 249.62,144.34 L 245.85,143.13 L 242.07,141.92 L 238.29,140.69 L 234.51,139.45 L 230.73,138.22 L 226.96,136.99 L 223.18,135.77 L 219.4,134.54 L 215.62,133.32 L 211.84,132.09 L 208.06,130.86 L 204.27,129.65 L 200.48,128.45 Z" fill="#1a1a1a" fill-opacity="0.55" stroke="#1a1a1a" stroke-width="0.4" stroke-opacity="0.55" stroke-linejoin="round" />
  <path d="M 200.41,138.78 L 204.15,139.96 L 207.91,141.14 L 211.68,142.34 L 215.45,143.53 L 219.22,144.73 L 222.97,145.91 L 226.72,147.09 L 230.44,148.26 L 234.16,149.45 L 237.88,150.65 L 241.59,151.87 L 245.31,153.1 L 249.04,154.34 L 252.78,155.57 L 256.54,156.81 L 260.3,158.05 L 264.06,159.28 L 267.82,160.5 L 271.57,161.71 L 275.31,162.92 L 279.04,164.1 L 282.76,165.28 L 286.49,166.45 L 290.22,167.63 L 293.95,168.81 L 297.69,170 L 301.42,171.2 L 305.15,172.41 L 308.86,173.62 L 312.56,174.84 L 316.25,176.06 L 319.96,177.29 L 323.67,178.52 L 327.41,179.76 L 331.15,181.01 L 334.9,182.27 L 338.64,183.52 L 342.39,184.76 L 346.13,185.99 L 346.32,185.39 L 342.59,184.16 L 338.85,182.91 L 335.1,181.65 L 331.36,180.39 L 327.62,179.13 L 323.89,177.87 L 320.17,176.63 L 316.47,175.4 L 312.77,174.18 L 309.08,172.97 L 305.37,171.75 L 301.64,170.54 L 297.9,169.34 L 294.17,168.14 L 290.43,166.96 L 286.7,165.78 L 282.98,164.6 L 279.25,163.42 L 275.53,162.23 L 271.79,161.03 L 268.04,159.82 L 264.29,158.59 L 260.52,157.37 L 256.76,156.14 L 253,154.9 L 249.26,153.67 L 245.53,152.43 L 241.81,151.2 L 238.1,149.98 L 234.38,148.77 L 230.66,147.59 L 226.93,146.42 L 223.18,145.25 L 219.42,144.08 L 215.65,142.9 L 211.88,141.72 L 208.11,140.53 L 204.34,139.36 L 200.59,138.18 Z" fill="#1a1a1a" fill-opacity="0.55" stroke="#1a1a1a" stroke-width="0.4" stroke-opacity="0.55" stroke-linejoin="round" />
  <path d="M 204.48,149.45 L 208.28,150.71 L 212.09,151.97 L 215.91,153.23 L 219.72,154.5 L 223.54,155.75 L 227.36,157.01 L 231.18,158.25 L 234.99,159.48 L 238.8,160.72 L 242.59,161.95 L 246.38,163.17 L 250.16,164.39 L 253.95,165.61 L 257.74,166.83 L 261.55,168.05 L 265.36,169.27 L 269.16,170.5 L 272.97,171.74 L 276.77,172.99 L 280.58,174.24 L 284.4,175.5 L 288.23,176.74 L 292.06,177.98 L 295.89,179.2 L 299.71,180.41 L 303.51,181.63 L 307.3,182.85 L 311.09,184.07 L 314.89,185.29 L 318.69,186.51 L 322.49,187.74 L 326.29,188.97 L 330.1,190.22 L 333.91,191.48 L 337.71,192.75 L 341.51,194.01 L 345.32,195.27 L 345.52,194.67 L 341.72,193.41 L 337.92,192.13 L 334.12,190.85 L 330.31,189.58 L 326.5,188.33 L 322.7,187.09 L 318.89,185.87 L 315.1,184.65 L 311.3,183.42 L 307.51,182.19 L 303.72,180.97 L 299.92,179.76 L 296.1,178.54 L 292.27,177.32 L 288.44,176.08 L 284.61,174.83 L 280.8,173.58 L 276.99,172.33 L 273.19,171.08 L 269.38,169.84 L 265.57,168.6 L 261.76,167.38 L 257.96,166.16 L 254.17,164.94 L 250.38,163.72 L 246.6,162.5 L 242.81,161.28 L 239.01,160.05 L 235.21,158.82 L 231.39,157.58 L 227.57,156.34 L 223.75,155.1 L 219.93,153.86 L 216.11,152.61 L 212.29,151.36 L 208.48,150.11 L 204.67,148.85 Z" fill="#1a1a1a" fill-opacity="0.55" stroke="#1a1a1a" stroke-width="0.4" stroke-opacity="0.55" stroke-linejoin="round" />
  <path d="M 208.24,160.31 L 212.03,161.54 L 215.82,162.77 L 219.61,164 L 223.4,165.24 L 227.2,166.49 L 231,167.73 L 234.81,168.96 L 238.62,170.18 L 242.42,171.37 L 246.22,172.56 L 250,173.75 L 253.76,174.94 L 257.52,176.14 L 261.27,177.35 L 265.02,178.56 L 268.77,179.77 L 272.5,180.97 L 276.23,182.16 L 279.96,183.34 L 283.69,184.53 L 287.43,185.72 L 291.18,186.93 L 294.93,188.15 L 298.69,189.37 L 302.46,190.6 L 306.24,191.84 L 310.02,193.1 L 313.81,194.38 L 317.6,195.67 L 321.4,196.95 L 325.2,198.22 L 329,199.48 L 332.79,200.71 L 336.57,201.93 L 340.34,203.15 L 344.11,204.36 L 344.31,203.75 L 340.54,202.54 L 336.77,201.32 L 332.99,200.08 L 329.21,198.83 L 325.42,197.57 L 321.62,196.29 L 317.82,195.01 L 314.03,193.73 L 310.24,192.45 L 306.46,191.2 L 302.68,189.95 L 298.91,188.72 L 295.14,187.49 L 291.39,186.27 L 287.64,185.06 L 283.9,183.87 L 280.17,182.68 L 276.45,181.49 L 272.72,180.3 L 268.98,179.1 L 265.24,177.89 L 261.49,176.67 L 257.74,175.46 L 253.98,174.26 L 250.21,173.07 L 246.43,171.89 L 242.63,170.71 L 238.83,169.51 L 235.02,168.29 L 231.22,167.06 L 227.41,165.83 L 223.61,164.6 L 219.81,163.38 L 216.02,162.16 L 212.23,160.94 L 208.44,159.71 Z" fill="#1a1a1a" fill-opacity="0.55" stroke="#1a1a1a" stroke-width="0.4" stroke-opacity="0.55" stroke-linejoin="round" />
  <path d="M 211.93,170.78 L 215.68,172.02 L 219.43,173.27 L 223.18,174.53 L 226.92,175.8 L 230.65,177.06 L 234.38,178.3 L 238.11,179.52 L 241.83,180.73 L 245.56,181.93 L 249.3,183.13 L 253.04,184.33 L 256.8,185.52 L 260.56,186.71 L 264.32,187.9 L 268.08,189.1 L 271.85,190.31 L 275.61,191.52 L 279.36,192.74 L 283.11,193.97 L 286.84,195.2 L 290.58,196.43 L 294.31,197.66 L 298.04,198.88 L 301.78,200.09 L 305.53,201.29 L 309.28,202.5 L 313.03,203.7 L 316.77,204.9 L 320.51,206.11 L 324.24,207.31 L 327.98,208.52 L 331.74,209.73 L 335.51,210.94 L 339.31,212.15 L 343.11,213.37 L 343.31,212.77 L 339.5,211.55 L 335.71,210.32 L 331.94,209.1 L 328.19,207.87 L 324.46,206.65 L 320.73,205.43 L 316.99,204.22 L 313.25,203.01 L 309.5,201.81 L 305.75,200.61 L 302,199.4 L 298.26,198.19 L 294.53,196.98 L 290.8,195.76 L 287.06,194.54 L 283.32,193.32 L 279.57,192.1 L 275.81,190.88 L 272.05,189.67 L 268.29,188.46 L 264.53,187.25 L 260.76,186.06 L 257,184.87 L 253.25,183.67 L 249.51,182.48 L 245.77,181.27 L 242.05,180.07 L 238.32,178.86 L 234.6,177.64 L 230.87,176.4 L 227.13,175.16 L 223.39,173.9 L 219.64,172.65 L 215.88,171.41 L 212.13,170.18 Z" fill="#1a1a1a" fill-opacity="0.55" stroke="#1a1a1a" stroke-width="0.4" stroke-opacity="0.55" stroke-linejoin="round" />
  <path d="M 219.68,182.74 L 223.39,183.95 L 227.1,185.16 L 230.81,186.37 L 234.52,187.59 L 238.23,188.81 L 241.95,190.03 L 245.68,191.26 L 249.4,192.48 L 253.12,193.7 L 256.84,194.92 L 260.55,196.14 L 264.25,197.35 L 267.93,198.57 L 271.61,199.77 L 275.29,200.96 L 278.97,202.14 L 282.66,203.31 L 286.36,204.48 L 290.06,205.67 L 293.78,206.86 L 297.49,208.06 L 301.2,209.26 L 304.91,210.47 L 308.6,211.67 L 312.29,212.86 L 315.97,214.05 L 319.66,215.24 L 323.35,216.43 L 327.05,217.61 L 330.76,218.79 L 334.47,219.98 L 338.19,221.18 L 341.91,222.4 L 342.1,221.8 L 338.39,220.57 L 334.67,219.36 L 330.96,218.15 L 327.26,216.95 L 323.57,215.76 L 319.88,214.57 L 316.19,213.38 L 312.51,212.18 L 308.82,210.99 L 305.13,209.79 L 301.42,208.59 L 297.71,207.38 L 294,206.18 L 290.28,204.99 L 286.57,203.81 L 282.87,202.63 L 279.18,201.46 L 275.51,200.29 L 271.83,199.1 L 268.15,197.9 L 264.47,196.69 L 260.77,195.47 L 257.06,194.25 L 253.34,193.03 L 249.62,191.81 L 245.9,190.58 L 242.18,189.36 L 238.45,188.14 L 234.73,186.92 L 231.02,185.72 L 227.3,184.53 L 223.59,183.33 L 219.88,182.13 Z" fill="#1a1a1a" fill-opacity="0.55" stroke="#1a1a1a" stroke-width="0.4" stroke-opacity="0.55" stroke-linejoin="round" />
  <path d="M 223.9,193.64 L 227.68,194.85 L 231.46,196.08 L 235.23,197.31 L 239.01,198.55 L 242.78,199.79 L 246.57,201.02 L 250.36,202.24 L 254.15,203.46 L 257.94,204.68 L 261.73,205.91 L 265.54,207.14 L 269.35,208.37 L 273.16,209.58 L 276.96,210.8 L 280.76,212.01 L 284.55,213.22 L 288.33,214.44 L 292.1,215.67 L 295.87,216.92 L 299.65,218.18 L 303.42,219.44 L 307.18,220.68 L 310.95,221.9 L 314.72,223.1 L 318.5,224.3 L 322.29,225.49 L 326.09,226.68 L 329.87,227.87 L 333.64,229.06 L 337.38,230.28 L 337.58,229.68 L 333.83,228.46 L 330.07,227.25 L 326.29,226.05 L 322.49,224.85 L 318.71,223.65 L 314.93,222.45 L 311.16,221.24 L 307.4,220.01 L 303.64,218.77 L 299.87,217.52 L 296.09,216.26 L 292.32,215.01 L 288.54,213.78 L 284.76,212.57 L 280.97,211.36 L 277.17,210.15 L 273.36,208.94 L 269.55,207.72 L 265.74,206.49 L 261.94,205.26 L 258.15,204.04 L 254.36,202.82 L 250.57,201.59 L 246.78,200.37 L 243,199.14 L 239.22,197.91 L 235.44,196.68 L 231.66,195.46 L 227.88,194.25 L 224.09,193.04 Z" fill="#1a1a1a" fill-opacity="0.55" stroke="#1a1a1a" stroke-width="0.4" stroke-opacity="0.55" stroke-linejoin="round" />
  <path d="M 227.15,204.02 L 230.79,205.21 L 234.44,206.41 L 238.09,207.62 L 241.74,208.83 L 245.42,210.06 L 249.11,211.29 L 252.82,212.51 L 256.54,213.71 L 260.26,214.91 L 263.98,216.09 L 267.7,217.27 L 271.41,218.45 L 275.13,219.62 L 278.86,220.79 L 282.58,221.96 L 286.3,223.14 L 290.01,224.33 L 293.72,225.53 L 297.42,226.75 L 301.12,227.97 L 304.82,229.2 L 305.02,228.6 L 301.33,227.36 L 297.63,226.12 L 293.93,224.89 L 290.22,223.68 L 286.5,222.49 L 282.79,221.3 L 279.07,220.12 L 275.34,218.95 L 271.63,217.78 L 267.91,216.6 L 264.19,215.42 L 260.48,214.23 L 256.76,213.03 L 253.05,211.82 L 249.34,210.6 L 245.65,209.38 L 241.97,208.16 L 238.3,206.96 L 234.64,205.78 L 230.99,204.6 L 227.34,203.42 Z" fill="#1a1a1a" fill-opacity="0.55" stroke="#1a1a1a" stroke-width="0.4" stroke-opacity="0.55" stroke-linejoin="round" />
  <path d="M 234.15,215.92 L 237.81,217.11 L 241.47,218.29 L 245.12,219.46 L 248.74,220.65 L 252.34,221.84 L 255.94,223.05 L 259.53,224.26 L 263.12,225.45 L 266.71,226.63 L 266.91,226.04 L 263.33,224.82 L 259.75,223.6 L 256.16,222.39 L 252.56,221.19 L 248.95,219.99 L 245.33,218.81 L 241.68,217.64 L 238.02,216.48 L 234.34,215.32 Z" fill="#1a1a1a" fill-opacity="0.55" stroke="#1a1a1a" stroke-width="0.4" stroke-opacity="0.55" stroke-linejoin="round" />
  <path d="M 173.83,84.32 L 174.13,84.42 L 174.33,83.81 L 174.03,83.71 Z" fill="#1a1a1a" fill-opacity="0.55" stroke="#1a1a1a" stroke-width="0.4" stroke-opacity="0.55" stroke-linejoin="round" />
  <path d="M 167.15,91.58 L 170.21,92.58 L 173.28,93.53 L 176.34,94.47 L 179.39,95.37 L 179.58,94.77 L 176.55,93.79 L 173.49,92.84 L 170.43,91.89 L 167.34,90.97 Z" fill="#1a1a1a" fill-opacity="0.55" stroke="#1a1a1a" stroke-width="0.4" stroke-opacity="0.55" stroke-linejoin="round" />
  <path d="M 160.44,98.93 L 163.79,100.08 L 167.14,101.21 L 170.48,102.34 L 173.83,103.45 L 177.19,104.57 L 180.58,105.69 L 184,106.78 L 184.2,106.19 L 180.79,105.05 L 177.4,103.93 L 174.04,102.81 L 170.69,101.7 L 167.35,100.57 L 164,99.45 L 160.64,98.34 Z" fill="#1a1a1a" fill-opacity="0.55" stroke="#1a1a1a" stroke-width="0.4" stroke-opacity="0.55" stroke-linejoin="round" />
  <path d="M 153.56,105.98 L 157.07,107.12 L 160.58,108.25 L 164.09,109.36 L 167.6,110.46 L 171.13,111.56 L 174.66,112.69 L 178.18,113.84 L 181.7,115.02 L 185.2,116.18 L 188.69,117.34 L 188.89,116.74 L 185.41,115.55 L 181.92,114.36 L 178.4,113.19 L 174.87,112.04 L 171.33,110.92 L 167.8,109.81 L 164.29,108.71 L 160.79,107.59 L 157.27,106.49 L 153.75,105.38 Z" fill="#1a1a1a" fill-opacity="0.55" stroke="#1a1a1a" stroke-width="0.4" stroke-opacity="0.55" stroke-linejoin="round" />
  <path d="M 146.62,113.39 L 150.18,114.55 L 153.75,115.71 L 157.35,116.84 L 160.96,117.97 L 164.58,119.11 L 168.18,120.28 L 171.77,121.47 L 175.34,122.66 L 178.92,123.83 L 182.51,124.98 L 186.11,126.12 L 189.72,127.25 L 193.31,128.41 L 193.51,127.81 L 189.92,126.62 L 186.32,125.45 L 182.72,124.31 L 179.14,123.16 L 175.56,121.99 L 171.99,120.81 L 168.4,119.62 L 164.79,118.45 L 161.17,117.3 L 157.56,116.17 L 153.96,115.05 L 150.38,113.93 L 146.81,112.78 Z" fill="#1a1a1a" fill-opacity="0.55" stroke="#1a1a1a" stroke-width="0.4" stroke-opacity="0.55" stroke-linejoin="round" />
  <path d="M 140.02,120.81 L 143.67,121.98 L 147.32,123.14 L 150.98,124.3 L 154.64,125.45 L 158.3,126.6 L 161.95,127.75 L 165.59,128.89 L 169.22,130.03 L 172.84,131.18 L 176.44,132.33 L 180.05,133.48 L 183.66,134.64 L 187.3,135.81 L 190.95,136.98 L 194.6,138.16 L 198.22,139.35 L 198.42,138.74 L 194.81,137.53 L 191.16,136.32 L 187.51,135.14 L 183.87,133.97 L 180.26,132.81 L 176.66,131.66 L 173.05,130.51 L 169.43,129.36 L 165.8,128.22 L 162.16,127.07 L 158.51,125.93 L 154.85,124.79 L 151.19,123.64 L 147.53,122.5 L 143.86,121.36 L 140.21,120.21 Z" fill="#1a1a1a" fill-opacity="0.55" stroke="#1a1a1a" stroke-width="0.4" stroke-opacity="0.55" stroke-linejoin="round" />
  <path d="M 133.14,127.98 L 136.8,129.21 L 140.46,130.43 L 144.14,131.64 L 147.84,132.81 L 151.54,133.99 L 155.23,135.15 L 158.9,136.32 L 162.54,137.47 L 166.17,138.61 L 169.79,139.74 L 173.43,140.89 L 177.09,142.05 L 180.76,143.24 L 184.45,144.44 L 188.13,145.65 L 191.82,146.85 L 195.51,148.05 L 199.19,149.25 L 199.39,148.66 L 195.71,147.44 L 192.03,146.22 L 188.35,145 L 184.66,143.78 L 180.98,142.58 L 177.3,141.39 L 173.64,140.22 L 170,139.07 L 166.38,137.93 L 162.76,136.79 L 159.12,135.64 L 155.45,134.47 L 151.75,133.3 L 148.05,132.13 L 144.36,130.95 L 140.68,129.77 L 137.01,128.58 L 133.35,127.38 Z" fill="#1a1a1a" fill-opacity="0.55" stroke="#1a1a1a" stroke-width="0.4" stroke-opacity="0.55" stroke-linejoin="round" />
  <path d="M 126.51,135.12 L 130.19,136.34 L 133.88,137.55 L 137.56,138.77 L 141.24,139.99 L 144.93,141.2 L 148.62,142.42 L 152.31,143.64 L 156.01,144.84 L 159.71,146.03 L 163.41,147.2 L 167.11,148.37 L 170.8,149.56 L 174.48,150.77 L 178.16,151.99 L 181.83,153.21 L 185.51,154.42 L 189.2,155.61 L 192.9,156.8 L 196.61,157.96 L 200.32,159.11 L 204.02,160.26 L 207.7,161.45 L 207.9,160.85 L 204.22,159.64 L 200.52,158.46 L 196.82,157.29 L 193.12,156.11 L 189.42,154.93 L 185.73,153.74 L 182.06,152.53 L 178.38,151.31 L 174.71,150.08 L 171.02,148.87 L 167.33,147.68 L 163.63,146.5 L 159.93,145.33 L 156.24,144.15 L 152.54,142.95 L 148.84,141.74 L 145.15,140.53 L 141.46,139.32 L 137.77,138.11 L 134.08,136.92 L 130.39,135.73 L 126.7,134.53 Z" fill="#1a1a1a" fill-opacity="0.55" stroke="#1a1a1a" stroke-width="0.4" stroke-opacity="0.55" stroke-linejoin="round" />
  <path d="M 119.84,142.16 L 123.56,143.39 L 127.26,144.64 L 130.97,145.9 L 134.67,147.16 L 138.37,148.42 L 142.07,149.67 L 145.77,150.9 L 149.46,152.12 L 153.15,153.34 L 156.84,154.55 L 160.53,155.76 L 164.22,156.97 L 167.92,158.18 L 171.62,159.38 L 175.32,160.58 L 179.02,161.77 L 182.71,162.95 L 186.41,164.12 L 190.11,165.3 L 193.83,166.46 L 197.55,167.62 L 201.28,168.77 L 205,169.94 L 208.7,171.14 L 212.41,172.37 L 212.61,171.77 L 208.9,170.53 L 205.2,169.32 L 201.48,168.13 L 197.76,166.96 L 194.03,165.8 L 190.32,164.63 L 186.62,163.46 L 182.92,162.29 L 179.23,161.1 L 175.53,159.91 L 171.83,158.72 L 168.13,157.52 L 164.44,156.31 L 160.74,155.1 L 157.06,153.88 L 153.37,152.67 L 149.68,151.46 L 145.99,150.24 L 142.29,149.01 L 138.59,147.76 L 134.89,146.51 L 131.18,145.26 L 127.47,144.02 L 123.76,142.79 L 120.04,141.56 Z" fill="#1a1a1a" fill-opacity="0.55" stroke="#1a1a1a" stroke-width="0.4" stroke-opacity="0.55" stroke-linejoin="round" />
  <path d="M 112.9,149.55 L 116.6,150.76 L 120.29,151.97 L 123.98,153.18 L 127.67,154.4 L 131.36,155.62 L 135.06,156.84 L 138.78,158.07 L 142.49,159.31 L 146.22,160.54 L 149.95,161.77 L 153.69,162.98 L 157.44,164.19 L 161.19,165.38 L 164.96,166.55 L 168.73,167.73 L 172.5,168.92 L 176.27,170.13 L 180.02,171.36 L 183.75,172.59 L 187.49,173.82 L 191.22,175.05 L 194.96,176.27 L 198.69,177.48 L 202.4,178.67 L 206.08,179.87 L 209.72,181.06 L 213.34,182.25 L 216.98,183.43 L 217.18,182.83 L 213.54,181.65 L 209.92,180.45 L 206.28,179.24 L 202.61,178.03 L 198.9,176.82 L 195.17,175.62 L 191.43,174.4 L 187.7,173.17 L 183.97,171.93 L 180.23,170.7 L 176.48,169.47 L 172.71,168.26 L 168.94,167.07 L 165.17,165.89 L 161.4,164.71 L 157.65,163.53 L 153.91,162.32 L 150.17,161.11 L 146.44,159.88 L 142.72,158.64 L 139,157.4 L 135.29,156.17 L 131.59,154.94 L 127.89,153.72 L 124.19,152.53 L 120.5,151.34 L 116.8,150.15 L 113.1,148.95 Z" fill="#1a1a1a" fill-opacity="0.55" stroke="#1a1a1a" stroke-width="0.4" stroke-opacity="0.55" stroke-linejoin="round" />
  <path d="M 106.31,157.04 L 110.01,158.27 L 113.71,159.51 L 117.42,160.76 L 121.13,162.01 L 124.86,163.25 L 128.59,164.48 L 132.32,165.69 L 136.05,166.9 L 139.78,168.11 L 143.51,169.31 L 147.25,170.5 L 150.99,171.69 L 154.73,172.88 L 158.47,174.08 L 162.2,175.28 L 165.92,176.49 L 169.63,177.71 L 173.32,178.92 L 177.03,180.14 L 180.75,181.34 L 184.5,182.54 L 188.28,183.72 L 192.05,184.9 L 195.82,186.08 L 199.58,187.27 L 203.33,188.47 L 207.07,189.7 L 210.81,190.93 L 214.55,192.18 L 218.28,193.4 L 221.98,194.61 L 222.17,194 L 218.48,192.79 L 214.76,191.56 L 211.02,190.31 L 207.28,189.06 L 203.54,187.83 L 199.79,186.62 L 196.03,185.42 L 192.26,184.22 L 188.49,183.04 L 184.72,181.85 L 180.97,180.65 L 177.25,179.45 L 173.55,178.23 L 169.85,177.02 L 166.15,175.8 L 162.42,174.59 L 158.69,173.39 L 154.95,172.2 L 151.2,171.02 L 147.46,169.83 L 143.72,168.64 L 139.99,167.45 L 136.26,166.24 L 132.53,165.03 L 128.8,163.82 L 125.08,162.59 L 121.35,161.35 L 117.63,160.12 L 113.92,158.88 L 110.21,157.65 L 106.51,156.43 Z" fill="#1a1a1a" fill-opacity="0.55" stroke="#1a1a1a" stroke-width="0.4" stroke-opacity="0.55" stroke-linejoin="round" />
  <path d="M 99.55,164.08 L 103.28,165.29 L 107.01,166.5 L 110.74,167.72 L 114.45,168.95 L 118.16,170.18 L 121.85,171.41 L 125.54,172.63 L 129.23,173.85 L 132.92,175.07 L 136.62,176.28 L 140.34,177.48 L 144.07,178.68 L 147.81,179.88 L 151.56,181.08 L 155.32,182.28 L 159.09,183.48 L 162.86,184.69 L 166.63,185.91 L 170.4,187.14 L 174.15,188.37 L 177.9,189.6 L 181.65,190.84 L 185.4,192.09 L 189.14,193.34 L 192.88,194.6 L 196.62,195.88 L 200.37,197.16 L 204.11,198.44 L 207.86,199.7 L 211.59,200.94 L 215.31,202.16 L 219.02,203.34 L 222.75,204.5 L 226.51,205.65 L 226.69,205.04 L 222.94,203.89 L 219.22,202.72 L 215.52,201.52 L 211.81,200.29 L 208.08,199.04 L 204.34,197.77 L 200.59,196.5 L 196.85,195.22 L 193.11,193.95 L 189.36,192.69 L 185.61,191.44 L 181.86,190.2 L 178.12,188.95 L 174.37,187.72 L 170.61,186.49 L 166.84,185.27 L 163.07,184.05 L 159.3,182.83 L 155.53,181.63 L 151.77,180.42 L 148.02,179.22 L 144.28,178.02 L 140.56,176.82 L 136.84,175.61 L 133.14,174.4 L 129.45,173.19 L 125.76,171.97 L 122.07,170.75 L 118.37,169.53 L 114.66,168.31 L 110.94,167.1 L 107.21,165.9 L 103.48,164.69 L 99.74,163.48 Z" fill="#1a1a1a" fill-opacity="0.55" stroke="#1a1a1a" stroke-width="0.4" stroke-opacity="0.55" stroke-linejoin="round" />
  <path d="M 92.52,171.38 L 96.27,172.63 L 100.02,173.9 L 103.77,175.16 L 107.53,176.41 L 111.28,177.66 L 115.05,178.9 L 118.81,180.12 L 122.58,181.32 L 126.36,182.53 L 130.15,183.73 L 133.94,184.94 L 137.73,186.15 L 141.51,187.37 L 145.29,188.58 L 149.05,189.78 L 152.79,190.97 L 156.5,192.15 L 160.19,193.33 L 163.88,194.51 L 167.57,195.7 L 171.28,196.9 L 175.02,198.12 L 178.77,199.35 L 182.51,200.56 L 186.25,201.77 L 189.98,202.97 L 193.71,204.18 L 197.46,205.42 L 201.23,206.69 L 205,207.97 L 208.79,209.24 L 212.59,210.48 L 216.39,211.69 L 220.19,212.9 L 223.97,214.13 L 227.73,215.39 L 227.93,214.79 L 224.18,213.53 L 220.39,212.28 L 216.59,211.05 L 212.8,209.82 L 209.01,208.57 L 205.23,207.3 L 201.45,206.02 L 197.68,204.75 L 193.93,203.52 L 190.2,202.31 L 186.47,201.11 L 182.73,199.91 L 178.98,198.69 L 175.23,197.46 L 171.5,196.24 L 167.79,195.03 L 164.1,193.83 L 160.41,192.65 L 156.72,191.47 L 153,190.29 L 149.26,189.11 L 145.51,187.91 L 141.73,186.69 L 137.95,185.48 L 134.16,184.26 L 130.36,183.05 L 126.58,181.85 L 122.8,180.64 L 119.03,179.43 L 115.27,178.21 L 111.51,176.99 L 107.74,175.76 L 103.98,174.52 L 100.22,173.28 L 96.47,172.03 L 92.72,170.78 Z" fill="#1a1a1a" fill-opacity="0.55" stroke="#1a1a1a" stroke-width="0.4" stroke-opacity="0.55" stroke-linejoin="round" />
  <path d="M 85.85,178.71 L 89.6,179.95 L 93.35,181.19 L 97.11,182.42 L 100.86,183.66 L 104.62,184.89 L 108.38,186.12 L 112.14,187.35 L 115.9,188.59 L 119.66,189.83 L 123.42,191.06 L 127.17,192.29 L 130.92,193.52 L 134.67,194.74 L 138.4,195.96 L 142.13,197.17 L 145.86,198.38 L 149.59,199.57 L 153.33,200.77 L 157.09,201.95 L 160.88,203.14 L 164.67,204.32 L 168.47,205.51 L 172.26,206.71 L 176.04,207.91 L 179.8,209.11 L 183.57,210.32 L 187.34,211.53 L 191.13,212.75 L 194.93,213.97 L 198.71,215.2 L 202.48,216.43 L 206.22,217.68 L 209.95,218.92 L 213.68,220.16 L 217.43,221.38 L 221.17,222.59 L 224.92,223.82 L 228.67,225.04 L 232.41,226.27 L 232.61,225.67 L 228.87,224.44 L 225.13,223.21 L 221.38,221.97 L 217.63,220.74 L 213.9,219.51 L 210.17,218.27 L 206.44,217.02 L 202.7,215.78 L 198.93,214.54 L 195.14,213.31 L 191.34,212.09 L 187.55,210.88 L 183.78,209.67 L 180.02,208.46 L 176.25,207.25 L 172.48,206.04 L 168.69,204.84 L 164.89,203.64 L 161.09,202.46 L 157.3,201.27 L 153.55,200.09 L 149.81,198.89 L 146.08,197.7 L 142.35,196.49 L 138.62,195.29 L 134.89,194.07 L 131.14,192.85 L 127.39,191.62 L 123.64,190.39 L 119.88,189.16 L 116.12,187.92 L 112.36,186.69 L 108.6,185.46 L 104.83,184.24 L 101.07,183.01 L 97.31,181.79 L 93.56,180.56 L 89.8,179.34 L 86.05,178.1 Z" fill="#1a1a1a" fill-opacity="0.55" stroke="#1a1a1a" stroke-width="0.4" stroke-opacity="0.55" stroke-linejoin="round" />
  <path d="M 79.09,186 L 82.84,187.22 L 86.59,188.44 L 90.35,189.66 L 94.11,190.88 L 97.87,192.11 L 101.63,193.33 L 105.39,194.55 L 109.15,195.77 L 112.91,196.99 L 116.66,198.2 L 120.41,199.41 L 124.16,200.62 L 127.91,201.82 L 131.66,203.04 L 135.42,204.25 L 139.19,205.48 L 142.97,206.7 L 146.75,207.93 L 150.53,209.15 L 154.31,210.38 L 158.09,211.6 L 161.86,212.81 L 165.62,214.03 L 169.38,215.25 L 173.14,216.47 L 176.9,217.69 L 180.66,218.91 L 184.42,220.13 L 188.18,221.35 L 191.92,222.57 L 195.65,223.78 L 199.37,225 L 203.1,226.21 L 206.83,227.42 L 210.57,228.65 L 214.32,229.89 L 218.08,231.14 L 221.83,232.38 L 225.58,233.62 L 229.35,234.85 L 233.11,236.08 L 236.89,237.29 L 237.08,236.7 L 233.31,235.48 L 229.54,234.25 L 225.78,233.01 L 222.03,231.76 L 218.29,230.51 L 214.54,229.26 L 210.78,228.01 L 207.04,226.78 L 203.31,225.56 L 199.59,224.35 L 195.86,223.13 L 192.13,221.91 L 188.39,220.69 L 184.64,219.47 L 180.88,218.25 L 177.11,217.03 L 173.35,215.81 L 169.59,214.59 L 165.83,213.38 L 162.07,212.16 L 158.3,210.94 L 154.53,209.72 L 150.74,208.5 L 146.96,207.27 L 143.18,206.05 L 139.41,204.82 L 135.64,203.59 L 131.88,202.36 L 128.13,201.15 L 124.38,199.93 L 120.63,198.72 L 116.88,197.5 L 113.13,196.29 L 109.37,195.08 L 105.61,193.86 L 101.85,192.65 L 98.08,191.44 L 94.32,190.24 L 90.55,189.03 L 86.79,187.82 L 83.04,186.61 L 79.28,185.39 Z" fill="#1a1a1a" fill-opacity="0.55" stroke="#1a1a1a" stroke-width="0.4" stroke-opacity="0.55" stroke-linejoin="round" />
  <path d="M 72.4,193.46 L 76.15,194.67 L 79.91,195.88 L 83.67,197.1 L 87.43,198.31 L 91.2,199.53 L 94.97,200.75 L 98.73,201.96 L 102.47,203.17 L 106.2,204.37 L 109.92,205.57 L 113.65,206.77 L 117.38,207.97 L 121.13,209.17 L 124.89,210.37 L 128.67,211.58 L 132.46,212.8 L 136.24,214.02 L 140.02,215.24 L 143.8,216.47 L 147.57,217.71 L 151.34,218.94 L 155.1,220.17 L 158.85,221.4 L 162.58,222.63 L 166.31,223.85 L 170.04,225.08 L 173.78,226.29 L 177.53,227.51 L 181.29,228.71 L 185.07,229.93 L 188.84,231.14 L 192.63,232.36 L 196.41,233.59 L 200.21,234.83 L 204.02,236.07 L 207.82,237.31 L 211.62,238.54 L 215.41,239.76 L 219.19,240.96 L 222.96,242.15 L 226.72,243.35 L 230.46,244.55 L 234.19,245.76 L 237.93,246.97 L 241.66,248.19 L 241.86,247.6 L 238.12,246.37 L 234.39,245.15 L 230.66,243.93 L 226.92,242.72 L 223.16,241.51 L 219.4,240.31 L 215.62,239.1 L 211.84,237.88 L 208.04,236.64 L 204.24,235.39 L 200.43,234.15 L 196.63,232.91 L 192.85,231.69 L 189.06,230.47 L 185.28,229.25 L 181.51,228.04 L 177.74,226.84 L 173.99,225.63 L 170.26,224.42 L 166.53,223.2 L 162.8,221.97 L 159.07,220.74 L 155.32,219.51 L 151.56,218.27 L 147.8,217.03 L 144.03,215.78 L 140.25,214.55 L 136.47,213.32 L 132.68,212.1 L 128.89,210.89 L 125.11,209.69 L 121.34,208.49 L 117.59,207.3 L 113.86,206.11 L 110.14,204.91 L 106.41,203.72 L 102.68,202.52 L 98.94,201.31 L 95.18,200.1 L 91.41,198.89 L 87.64,197.68 L 83.87,196.48 L 80.11,195.27 L 76.35,194.06 L 72.6,192.85 Z" fill="#1a1a1a" fill-opacity="0.55" stroke="#1a1a1a" stroke-width="0.4" stroke-opacity="0.55" stroke-linejoin="round" />
  <path d="M 65.52,200.53 L 69.28,201.76 L 73.03,202.99 L 76.78,204.21 L 80.53,205.42 L 84.28,206.63 L 88.03,207.83 L 91.78,209.03 L 95.53,210.23 L 99.28,211.43 L 103.03,212.64 L 106.79,213.85 L 110.55,215.07 L 114.32,216.29 L 118.08,217.51 L 121.85,218.74 L 125.61,219.98 L 129.39,221.21 L 133.16,222.45 L 136.94,223.69 L 140.73,224.92 L 144.52,226.15 L 148.31,227.39 L 152.1,228.63 L 155.89,229.87 L 159.68,231.09 L 163.47,232.32 L 167.26,233.54 L 171.05,234.76 L 174.83,235.99 L 178.61,237.21 L 182.37,238.43 L 186.14,239.65 L 189.9,240.89 L 193.66,242.13 L 197.42,243.37 L 201.18,244.61 L 204.95,245.83 L 208.72,247.04 L 212.5,248.24 L 216.28,249.44 L 220.06,250.66 L 223.84,251.89 L 227.61,253.13 L 231.38,254.37 L 235.15,255.63 L 238.91,256.9 L 242.67,258.16 L 246.43,259.41 L 246.63,258.82 L 242.87,257.56 L 239.11,256.29 L 235.35,255.02 L 231.59,253.76 L 227.82,252.5 L 224.05,251.25 L 220.27,250.01 L 216.49,248.78 L 212.71,247.57 L 208.93,246.37 L 205.16,245.17 L 201.4,243.95 L 197.64,242.72 L 193.87,241.48 L 190.11,240.23 L 186.35,239 L 182.59,237.77 L 178.82,236.54 L 175.05,235.32 L 171.26,234.09 L 167.47,232.87 L 163.68,231.64 L 159.89,230.42 L 156.1,229.2 L 152.32,227.97 L 148.53,226.73 L 144.74,225.49 L 140.94,224.26 L 137.16,223.02 L 133.38,221.79 L 129.6,220.55 L 125.83,219.32 L 122.06,218.08 L 118.3,216.85 L 114.53,215.62 L 110.77,214.4 L 107.01,213.18 L 103.25,211.97 L 99.49,210.76 L 95.74,209.55 L 91.99,208.36 L 88.24,207.16 L 84.49,205.97 L 80.74,204.78 L 76.99,203.58 L 73.23,202.37 L 69.48,201.15 L 65.72,199.93 Z" fill="#1a1a1a" fill-opacity="0.55" stroke="#1a1a1a" stroke-width="0.4" stroke-opacity="0.55" stroke-linejoin="round" />
  <path d="M 61.24,208.62 L 65.03,209.86 L 68.81,211.1 L 72.59,212.33 L 76.37,213.56 L 80.15,214.79 L 83.93,216.01 L 87.72,217.24 L 91.51,218.46 L 95.31,219.68 L 99.12,220.9 L 102.93,222.12 L 106.75,223.33 L 110.56,224.56 L 114.37,225.78 L 118.17,227 L 121.97,228.23 L 125.75,229.45 L 129.53,230.68 L 133.3,231.91 L 137.07,233.15 L 140.84,234.41 L 144.62,235.68 L 148.4,236.96 L 152.2,238.23 L 156,239.5 L 159.81,240.75 L 163.62,241.99 L 167.44,243.22 L 171.26,244.45 L 175.08,245.69 L 178.9,246.93 L 182.72,248.17 L 186.52,249.41 L 190.32,250.66 L 194.11,251.93 L 197.91,253.21 L 201.71,254.48 L 205.5,255.73 L 209.3,256.96 L 213.11,258.17 L 216.92,259.38 L 220.74,260.59 L 224.55,261.81 L 228.35,263.06 L 232.14,264.3 L 235.94,265.53 L 239.75,266.76 L 243.58,267.98 L 247.4,269.22 L 251.21,270.48 L 251.41,269.88 L 247.6,268.62 L 243.78,267.37 L 239.96,266.13 L 236.14,264.9 L 232.35,263.66 L 228.56,262.42 L 224.76,261.17 L 220.94,259.94 L 217.13,258.72 L 213.32,257.52 L 209.51,256.3 L 205.72,255.07 L 201.93,253.81 L 198.14,252.53 L 194.34,251.25 L 190.54,249.98 L 186.74,248.73 L 182.94,247.49 L 179.12,246.25 L 175.3,245.01 L 171.48,243.77 L 167.66,242.54 L 163.84,241.31 L 160.03,240.07 L 156.22,238.82 L 152.42,237.57 L 148.62,236.3 L 144.84,235.03 L 141.06,233.76 L 137.29,232.5 L 133.51,231.26 L 129.74,230.03 L 125.96,228.8 L 122.17,227.58 L 118.38,226.35 L 114.58,225.13 L 110.77,223.91 L 106.96,222.68 L 103.14,221.46 L 99.33,220.24 L 95.52,219.02 L 91.72,217.81 L 87.93,216.59 L 84.14,215.38 L 80.35,214.16 L 76.57,212.94 L 72.79,211.72 L 69.01,210.5 L 65.22,209.27 L 61.43,208.03 Z" fill="#1a1a1a" fill-opacity="0.55" stroke="#1a1a1a" stroke-width="0.4" stroke-opacity="0.55" stroke-linejoin="round" />
  <path d="M 57.47,216.75 L 61.21,217.99 L 64.95,219.22 L 68.68,220.46 L 72.42,221.69 L 76.15,222.93 L 79.89,224.16 L 83.63,225.39 L 87.37,226.62 L 91.11,227.84 L 94.85,229.06 L 98.6,230.27 L 102.35,231.49 L 106.1,232.7 L 109.85,233.91 L 113.6,235.12 L 117.34,236.33 L 121.09,237.54 L 124.83,238.75 L 128.56,239.96 L 132.3,241.17 L 136.04,242.39 L 139.76,243.59 L 143.47,244.8 L 147.19,246.01 L 150.91,247.21 L 154.64,248.42 L 158.38,249.61 L 162.13,250.81 L 165.88,252.01 L 169.63,253.21 L 173.39,254.41 L 177.15,255.62 L 180.92,256.83 L 184.68,258.06 L 188.44,259.28 L 192.2,260.5 L 195.96,261.73 L 199.72,262.95 L 203.48,264.17 L 207.23,265.38 L 210.97,266.59 L 214.7,267.79 L 218.43,269 L 222.14,270.21 L 225.84,271.43 L 229.54,272.66 L 233.25,273.89 L 236.98,275.13 L 240.73,276.37 L 244.5,277.61 L 248.28,278.86 L 252.05,280.11 L 255.82,281.33 L 256.02,280.72 L 252.25,279.49 L 248.48,278.24 L 244.71,276.98 L 240.94,275.72 L 237.2,274.47 L 233.47,273.23 L 229.76,272 L 226.06,270.77 L 222.35,269.55 L 218.64,268.34 L 214.92,267.14 L 211.18,265.93 L 207.44,264.72 L 203.69,263.51 L 199.94,262.28 L 196.18,261.05 L 192.42,259.82 L 188.67,258.6 L 184.9,257.37 L 181.14,256.15 L 177.38,254.93 L 173.61,253.72 L 169.85,252.52 L 166.1,251.32 L 162.35,250.12 L 158.6,248.92 L 154.87,247.72 L 151.14,246.52 L 147.41,245.32 L 143.69,244.12 L 139.98,242.92 L 136.25,241.72 L 132.52,240.51 L 128.78,239.29 L 125.04,238.08 L 121.3,236.87 L 117.56,235.66 L 113.82,234.44 L 110.07,233.23 L 106.32,232.02 L 102.57,230.8 L 98.82,229.59 L 95.08,228.37 L 91.33,227.15 L 87.59,225.93 L 83.85,224.72 L 80.1,223.5 L 76.36,222.28 L 72.62,221.06 L 68.88,219.84 L 65.15,218.62 L 61.41,217.39 L 57.67,216.16 Z" fill="#1a1a1a" fill-opacity="0.55" stroke="#1a1a1a" stroke-width="0.4" stroke-opacity="0.55" stroke-linejoin="round" />
  <path d="M 53.45,224.83 L 57.21,226.05 L 60.97,227.28 L 64.74,228.5 L 68.5,229.72 L 72.26,230.95 L 76.02,232.18 L 79.78,233.41 L 83.54,234.63 L 87.3,235.86 L 91.06,237.09 L 94.83,238.31 L 98.6,239.54 L 102.37,240.76 L 106.15,241.98 L 109.93,243.2 L 113.71,244.42 L 117.49,245.63 L 121.27,246.84 L 125.05,248.06 L 128.83,249.27 L 132.6,250.48 L 136.37,251.7 L 140.14,252.92 L 143.91,254.14 L 147.68,255.36 L 151.45,256.59 L 155.21,257.81 L 158.98,259.04 L 162.74,260.27 L 166.5,261.5 L 170.27,262.74 L 174.03,263.97 L 177.78,265.22 L 181.54,266.46 L 185.31,267.7 L 189.08,268.94 L 192.87,270.18 L 196.65,271.43 L 200.43,272.67 L 204.22,273.93 L 208,275.18 L 211.78,276.43 L 215.56,277.68 L 219.34,278.92 L 223.11,280.16 L 226.88,281.4 L 230.65,282.64 L 234.41,283.87 L 238.17,285.08 L 241.92,286.26 L 245.67,287.43 L 249.43,288.61 L 253.18,289.81 L 256.94,291.04 L 260.69,292.27 L 264.44,293.5 L 264.64,292.9 L 260.89,291.67 L 257.14,290.43 L 253.38,289.2 L 249.62,288 L 245.87,286.81 L 242.12,285.64 L 238.37,284.44 L 234.62,283.22 L 230.86,281.99 L 227.1,280.74 L 223.33,279.49 L 219.56,278.25 L 215.78,277 L 212,275.75 L 208.22,274.5 L 204.44,273.24 L 200.66,271.99 L 196.88,270.74 L 193.09,269.5 L 189.31,268.26 L 185.53,267.02 L 181.77,265.78 L 178.01,264.53 L 174.25,263.29 L 170.49,262.05 L 166.73,260.82 L 162.96,259.59 L 159.2,258.36 L 155.43,257.13 L 151.67,255.91 L 147.9,254.69 L 144.13,253.47 L 140.36,252.25 L 136.59,251.03 L 132.82,249.8 L 129.05,248.59 L 125.27,247.37 L 121.49,246.15 L 117.71,244.94 L 113.93,243.73 L 110.14,242.52 L 106.36,241.31 L 102.59,240.09 L 98.81,238.87 L 95.04,237.65 L 91.28,236.43 L 87.51,235.2 L 83.75,233.98 L 79.99,232.76 L 76.23,231.54 L 72.47,230.32 L 68.7,229.11 L 64.94,227.89 L 61.17,226.67 L 57.41,225.46 L 53.64,224.24 Z" fill="#1a1a1a" fill-opacity="0.55" stroke="#1a1a1a" stroke-width="0.4" stroke-opacity="0.55" stroke-linejoin="round" />
  <path d="M 49.34,232.88 L 53.12,234.13 L 56.9,235.38 L 60.68,236.63 L 64.46,237.89 L 68.24,239.15 L 72.02,240.4 L 75.8,241.65 L 79.58,242.9 L 83.37,244.15 L 87.16,245.39 L 90.95,246.63 L 94.74,247.87 L 98.53,249.1 L 102.33,250.34 L 106.12,251.57 L 109.93,252.8 L 113.73,254.03 L 117.53,255.26 L 121.34,256.49 L 125.15,257.72 L 128.96,258.96 L 132.77,260.2 L 136.57,261.44 L 140.38,262.69 L 144.18,263.94 L 147.99,265.18 L 151.79,266.43 L 155.59,267.67 L 159.39,268.91 L 163.19,270.15 L 166.99,271.39 L 170.79,272.63 L 174.59,273.86 L 178.39,275.09 L 182.19,276.3 L 185.98,277.52 L 189.77,278.74 L 193.56,279.97 L 197.36,281.2 L 201.15,282.43 L 204.94,283.67 L 208.72,284.91 L 212.5,286.15 L 216.28,287.37 L 220.05,288.57 L 223.81,289.77 L 227.57,290.97 L 231.35,292.2 L 235.14,293.43 L 238.93,294.67 L 242.73,295.9 L 246.51,297.14 L 250.28,298.37 L 254.04,299.61 L 257.8,300.84 L 261.55,302.09 L 265.3,303.34 L 269.06,304.6 L 269.26,304 L 265.5,302.74 L 261.75,301.48 L 258,300.23 L 254.25,298.98 L 250.49,297.74 L 246.72,296.49 L 242.94,295.25 L 239.15,294 L 235.35,292.76 L 231.57,291.53 L 227.79,290.31 L 224.02,289.1 L 220.26,287.9 L 216.5,286.7 L 212.72,285.47 L 208.94,284.23 L 205.16,283 L 201.37,281.76 L 197.58,280.52 L 193.78,279.29 L 189.99,278.07 L 186.2,276.85 L 182.4,275.63 L 178.6,274.42 L 174.8,273.19 L 171,271.97 L 167.2,270.73 L 163.4,269.49 L 159.61,268.25 L 155.81,267.01 L 152.01,265.76 L 148.21,264.51 L 144.4,263.27 L 140.6,262.02 L 136.79,260.78 L 132.98,259.53 L 129.17,258.29 L 125.37,257.05 L 121.56,255.81 L 117.76,254.58 L 113.95,253.35 L 110.15,252.11 L 106.35,250.88 L 102.55,249.65 L 98.75,248.42 L 94.96,247.19 L 91.16,245.96 L 87.37,244.73 L 83.58,243.49 L 79.8,242.25 L 76.01,241 L 72.23,239.76 L 68.44,238.51 L 64.66,237.27 L 60.88,236.02 L 57.1,234.78 L 53.32,233.53 L 49.54,232.29 Z" fill="#1a1a1a" fill-opacity="0.55" stroke="#1a1a1a" stroke-width="0.4" stroke-opacity="0.55" stroke-linejoin="round" />
  <path d="M 45.41,241.38 L 49.18,242.59 L 52.95,243.8 L 56.72,245.02 L 60.48,246.23 L 64.25,247.45 L 68.02,248.67 L 71.78,249.9 L 75.54,251.13 L 79.29,252.36 L 83.03,253.59 L 86.76,254.82 L 90.49,256.05 L 94.23,257.29 L 97.96,258.52 L 101.7,259.75 L 105.44,260.97 L 109.18,262.2 L 112.93,263.42 L 116.68,264.64 L 120.43,265.86 L 124.18,267.08 L 127.93,268.29 L 131.67,269.5 L 135.42,270.71 L 139.17,271.91 L 142.91,273.11 L 146.66,274.31 L 150.41,275.5 L 154.16,276.68 L 157.9,277.86 L 161.65,279.04 L 165.4,280.21 L 169.15,281.39 L 172.91,282.58 L 176.66,283.76 L 180.42,284.96 L 184.18,286.17 L 187.94,287.38 L 191.7,288.59 L 195.46,289.81 L 199.21,291.02 L 202.97,292.23 L 206.72,293.45 L 210.46,294.67 L 214.21,295.88 L 217.95,297.1 L 221.69,298.31 L 225.42,299.53 L 229.15,300.76 L 232.87,301.99 L 236.59,303.22 L 240.3,304.46 L 244.01,305.69 L 247.71,306.93 L 251.4,308.15 L 255.09,309.36 L 258.81,310.56 L 262.57,311.76 L 266.35,312.95 L 270.15,314.16 L 273.94,315.37 L 274.13,314.77 L 270.34,313.56 L 266.54,312.35 L 262.76,311.15 L 259.01,309.95 L 255.3,308.74 L 251.61,307.52 L 247.93,306.29 L 244.22,305.05 L 240.51,303.81 L 236.8,302.58 L 233.09,301.34 L 229.36,300.11 L 225.64,298.88 L 221.9,297.66 L 218.16,296.44 L 214.42,295.23 L 210.67,294.02 L 206.92,292.81 L 203.18,291.59 L 199.42,290.37 L 195.67,289.15 L 191.92,287.93 L 188.16,286.71 L 184.39,285.5 L 180.63,284.29 L 176.87,283.09 L 173.12,281.91 L 169.36,280.72 L 165.61,279.55 L 161.86,278.38 L 158.11,277.2 L 154.36,276.03 L 150.61,274.85 L 146.87,273.66 L 143.12,272.47 L 139.37,271.27 L 135.63,270.06 L 131.88,268.85 L 128.14,267.63 L 124.39,266.41 L 120.65,265.19 L 116.9,263.97 L 113.15,262.75 L 109.4,261.52 L 105.66,260.3 L 101.92,259.07 L 98.18,257.84 L 94.45,256.62 L 90.71,255.39 L 86.98,254.17 L 83.24,252.94 L 79.5,251.72 L 75.75,250.49 L 71.99,249.27 L 68.22,248.04 L 64.45,246.82 L 60.68,245.61 L 56.91,244.4 L 53.14,243.19 L 49.38,241.98 L 45.61,240.77 Z" fill="#1a1a1a" fill-opacity="0.55" stroke="#1a1a1a" stroke-width="0.4" stroke-opacity="0.55" stroke-linejoin="round" />
  <path d="M 41.44,249.65 L 45.2,250.87 L 48.95,252.08 L 52.69,253.3 L 56.43,254.51 L 60.17,255.71 L 63.91,256.92 L 67.66,258.13 L 71.41,259.34 L 75.16,260.55 L 78.91,261.76 L 82.65,262.98 L 86.38,264.2 L 90.11,265.43 L 93.83,266.65 L 97.55,267.87 L 101.27,269.09 L 105,270.32 L 108.74,271.55 L 112.5,272.78 L 116.26,274 L 120.03,275.22 L 123.8,276.43 L 127.57,277.63 L 131.33,278.82 L 135.09,280.01 L 138.83,281.19 L 142.57,282.37 L 146.31,283.56 L 150.04,284.76 L 153.77,285.96 L 157.51,287.16 L 161.24,288.37 L 164.98,289.58 L 168.72,290.79 L 172.47,292.01 L 176.21,293.23 L 179.95,294.45 L 183.7,295.67 L 187.44,296.89 L 191.18,298.11 L 194.91,299.33 L 198.65,300.55 L 202.4,301.76 L 206.15,302.97 L 209.9,304.18 L 213.67,305.38 L 217.44,306.59 L 221.22,307.79 L 225,309 L 228.77,310.22 L 232.52,311.44 L 236.26,312.67 L 239.99,313.9 L 243.71,315.13 L 247.42,316.36 L 251.15,317.58 L 254.87,318.81 L 258.61,320.02 L 262.35,321.24 L 266.09,322.44 L 266.28,321.84 L 262.54,320.63 L 258.81,319.42 L 255.08,318.19 L 251.35,316.96 L 247.63,315.72 L 243.92,314.49 L 240.2,313.26 L 236.47,312.03 L 232.73,310.8 L 228.98,309.57 L 225.21,308.35 L 221.43,307.13 L 217.65,305.92 L 213.88,304.72 L 210.12,303.52 L 206.36,302.31 L 202.61,301.11 L 198.87,299.89 L 195.13,298.67 L 191.39,297.45 L 187.65,296.23 L 183.91,295.01 L 180.17,293.79 L 176.42,292.57 L 172.68,291.35 L 168.94,290.13 L 165.2,288.92 L 161.46,287.71 L 157.72,286.5 L 153.99,285.29 L 150.26,284.09 L 146.52,282.89 L 142.79,281.7 L 139.05,280.52 L 135.3,279.33 L 131.54,278.15 L 127.78,276.96 L 124.02,275.76 L 120.25,274.55 L 116.48,273.33 L 112.71,272.11 L 108.96,270.88 L 105.22,269.65 L 101.49,268.42 L 97.77,267.2 L 94.05,265.98 L 90.33,264.76 L 86.6,263.54 L 82.87,262.32 L 79.12,261.11 L 75.37,259.89 L 71.62,258.68 L 67.87,257.48 L 64.12,256.27 L 60.38,255.07 L 56.63,253.88 L 52.89,252.68 L 49.14,251.47 L 45.39,250.26 L 41.64,249.04 Z" fill="#1a1a1a" fill-opacity="0.55" stroke="#1a1a1a" stroke-width="0.4" stroke-opacity="0.55" stroke-linejoin="round" />
  <path d="M 37.26,257.74 L 41.06,258.97 L 44.86,260.2 L 48.65,261.43 L 52.44,262.66 L 56.22,263.9 L 60.01,265.14 L 63.79,266.37 L 67.57,267.59 L 71.36,268.81 L 75.14,270.02 L 78.93,271.22 L 82.73,272.42 L 86.52,273.61 L 90.32,274.81 L 94.13,276 L 97.93,277.21 L 101.73,278.41 L 105.53,279.63 L 109.32,280.86 L 113.11,282.09 L 116.88,283.32 L 120.66,284.57 L 124.42,285.82 L 128.2,287.07 L 131.97,288.32 L 135.76,289.57 L 139.55,290.82 L 143.36,292.07 L 147.17,293.32 L 150.98,294.56 L 154.79,295.81 L 158.59,297.04 L 162.4,298.28 L 166.21,299.52 L 170.03,300.75 L 173.85,302 L 177.68,303.25 L 181.5,304.51 L 185.32,305.76 L 189.14,307.02 L 192.95,308.27 L 196.77,309.52 L 200.57,310.77 L 204.37,312.01 L 208.16,313.26 L 211.95,314.5 L 215.72,315.73 L 215.92,315.13 L 212.15,313.89 L 208.37,312.64 L 204.58,311.39 L 200.78,310.13 L 196.98,308.87 L 193.17,307.61 L 189.36,306.35 L 185.54,305.09 L 181.72,303.83 L 177.9,302.58 L 174.07,301.33 L 170.24,300.09 L 166.43,298.85 L 162.62,297.61 L 158.81,296.38 L 155.01,295.14 L 151.2,293.9 L 147.39,292.65 L 143.58,291.4 L 139.78,290.14 L 135.98,288.89 L 132.2,287.64 L 128.42,286.39 L 124.65,285.14 L 120.88,283.9 L 117.1,282.66 L 113.32,281.42 L 109.54,280.19 L 105.74,278.97 L 101.94,277.75 L 98.14,276.55 L 94.33,275.35 L 90.53,274.15 L 86.73,272.95 L 82.94,271.75 L 79.14,270.55 L 75.36,269.34 L 71.57,268.13 L 67.79,266.92 L 64.01,265.7 L 60.22,264.47 L 56.44,263.25 L 52.65,262.02 L 48.85,260.8 L 45.06,259.58 L 41.26,258.36 L 37.45,257.14 Z" fill="#1a1a1a" fill-opacity="0.55" stroke="#1a1a1a" stroke-width="0.4" stroke-opacity="0.55" stroke-linejoin="round" />
  <path d="M 33.6,265.93 L 37.37,267.13 L 41.13,268.33 L 44.89,269.52 L 48.66,270.71 L 52.42,271.9 L 56.19,273.07 L 59.96,274.24 L 63.73,275.42 L 67.49,276.6 L 71.25,277.79 L 75.01,278.99 L 78.77,280.21 L 82.52,281.43 L 86.27,282.66 L 90.01,283.9 L 93.76,285.15 L 97.5,286.4 L 101.25,287.64 L 105.01,288.89 L 108.76,290.14 L 112.53,291.38 L 116.29,292.63 L 120.06,293.89 L 123.81,295.15 L 127.56,296.42 L 131.31,297.68 L 135.07,298.93 L 138.84,300.18 L 142.62,301.42 L 146.42,302.65 L 150.21,303.88 L 154.01,305.1 L 157.8,306.32 L 161.58,307.56 L 165.35,308.79 L 165.55,308.19 L 161.78,306.95 L 158,305.71 L 154.21,304.47 L 150.42,303.24 L 146.63,302.01 L 142.83,300.78 L 139.05,299.54 L 135.28,298.3 L 131.53,297.04 L 127.78,295.78 L 124.03,294.52 L 120.27,293.25 L 116.51,291.99 L 112.74,290.73 L 108.98,289.48 L 105.23,288.23 L 101.47,286.98 L 97.72,285.73 L 93.98,284.49 L 90.23,283.24 L 86.49,282 L 82.74,280.77 L 78.98,279.54 L 75.23,278.33 L 71.47,277.13 L 67.7,275.94 L 63.94,274.76 L 60.17,273.58 L 56.4,272.41 L 52.63,271.24 L 48.86,270.08 L 45.09,268.9 L 41.32,267.72 L 37.56,266.53 L 33.79,265.33 Z" fill="#1a1a1a" fill-opacity="0.55" stroke="#1a1a1a" stroke-width="0.4" stroke-opacity="0.55" stroke-linejoin="round" />
  <path d="M 29.49,273.88 L 33.2,275.13 L 36.9,276.38 L 40.59,277.63 L 44.27,278.86 L 47.96,280.07 L 51.64,281.28 L 55.33,282.49 L 59.03,283.71 L 62.74,284.92 L 66.45,286.14 L 70.17,287.36 L 73.9,288.57 L 77.63,289.79 L 81.35,291 L 85.08,292.2 L 88.79,293.41 L 92.51,294.61 L 96.22,295.8 L 99.94,296.98 L 103.65,298.16 L 107.35,299.33 L 111.06,300.5 L 114.76,301.66 L 114.96,301.05 L 111.26,299.87 L 107.56,298.69 L 103.86,297.49 L 100.15,296.3 L 96.44,295.11 L 92.73,293.92 L 89.01,292.73 L 85.29,291.54 L 81.57,290.33 L 77.84,289.12 L 74.12,287.9 L 70.39,286.68 L 66.68,285.46 L 62.96,284.24 L 59.25,283.03 L 55.56,281.81 L 51.87,280.61 L 48.18,279.4 L 44.5,278.18 L 40.81,276.97 L 37.11,275.75 L 33.4,274.52 L 29.69,273.28 Z" fill="#1a1a1a" fill-opacity="0.55" stroke="#1a1a1a" stroke-width="0.4" stroke-opacity="0.55" stroke-linejoin="round" />
  <path d="M 25.48,282.15 L 29.01,283.32 L 32.53,284.49 L 36.06,285.65 L 39.59,286.81 L 43.13,287.96 L 46.66,289.12 L 50.19,290.27 L 53.73,291.42 L 57.27,292.57 L 60.81,293.7 L 64.36,294.83 L 64.56,294.23 L 61.02,293.07 L 57.48,291.9 L 53.94,290.76 L 50.41,289.61 L 46.87,288.45 L 43.34,287.3 L 39.81,286.14 L 36.28,284.99 L 32.75,283.83 L 29.21,282.69 L 25.67,281.55 Z" fill="#1a1a1a" fill-opacity="0.55" stroke="#1a1a1a" stroke-width="0.4" stroke-opacity="0.55" stroke-linejoin="round" />
  <path d="M 268.6,319.2 L 267.61,322.29 L 268.21,322.48 L 269.21,319.39 Z" fill="#1a1a1a" fill-opacity="0.55" stroke="#1a1a1a" stroke-width="0.4" stroke-opacity="0.55" stroke-linejoin="round" />
  <path d="M 260.99,314.35 L 259.84,317.74 L 258.76,321.12 L 259.35,321.32 L 260.49,317.95 L 261.59,314.54 Z" fill="#1a1a1a" fill-opacity="0.55" stroke="#1a1a1a" stroke-width="0.4" stroke-opacity="0.55" stroke-linejoin="round" />
  <path d="M 251.66,312.86 L 250.54,316.35 L 249.52,319.8 L 250.12,319.99 L 251.22,316.56 L 252.26,313.05 Z" fill="#1a1a1a" fill-opacity="0.55" stroke="#1a1a1a" stroke-width="0.4" stroke-opacity="0.55" stroke-linejoin="round" />
  <path d="M 243.78,307.84 L 242.59,311.41 L 241.44,315.02 L 240.37,318.65 L 240.98,318.83 L 242.13,315.24 L 243.27,311.63 L 244.39,308.03 Z" fill="#1a1a1a" fill-opacity="0.55" stroke="#1a1a1a" stroke-width="0.4" stroke-opacity="0.55" stroke-linejoin="round" />
  <path d="M 235.91,303.14 L 234.74,306.73 L 233.63,310.29 L 232.53,313.78 L 231.45,317.27 L 232.06,317.46 L 233.21,313.99 L 234.31,310.51 L 235.43,306.94 L 236.52,303.33 Z" fill="#1a1a1a" fill-opacity="0.55" stroke="#1a1a1a" stroke-width="0.4" stroke-opacity="0.55" stroke-linejoin="round" />
  <path d="M 228.18,298.11 L 226.99,301.62 L 225.79,305.19 L 224.59,308.9 L 223.4,312.64 L 222.24,316.33 L 222.85,316.53 L 224.1,312.87 L 225.28,309.12 L 226.49,305.42 L 227.69,301.85 L 228.79,298.31 Z" fill="#1a1a1a" fill-opacity="0.55" stroke="#1a1a1a" stroke-width="0.4" stroke-opacity="0.55" stroke-linejoin="round" />
  <path d="M 220.27,293.19 L 219.05,296.84 L 217.85,300.47 L 216.65,304.13 L 215.5,307.79 L 214.36,311.42 L 213.26,315.05 L 213.86,315.23 L 215.01,311.62 L 216.14,308 L 217.29,304.34 L 218.49,300.68 L 219.69,297.05 L 220.87,293.38 Z" fill="#1a1a1a" fill-opacity="0.55" stroke="#1a1a1a" stroke-width="0.4" stroke-opacity="0.55" stroke-linejoin="round" />
  <path d="M 212.92,287.05 L 211.63,290.91 L 210.33,294.77 L 209.09,298.59 L 207.91,302.39 L 206.66,306.13 L 205.41,309.89 L 206,310.09 L 207.32,306.35 L 208.57,302.6 L 209.76,298.81 L 211,294.99 L 212.3,291.13 L 213.53,287.25 Z" fill="#1a1a1a" fill-opacity="0.55" stroke="#1a1a1a" stroke-width="0.4" stroke-opacity="0.55" stroke-linejoin="round" />
  <path d="M 205.2,281.98 L 203.83,285.83 L 202.5,289.67 L 201.19,293.49 L 199.94,297.31 L 198.71,301.11 L 197.45,304.86 L 196.22,308.59 L 195.02,312.32 L 195.63,312.52 L 196.88,308.81 L 198.13,305.09 L 199.39,301.34 L 200.62,297.53 L 201.87,293.71 L 203.17,289.9 L 204.49,286.06 L 205.8,282.19 Z" fill="#1a1a1a" fill-opacity="0.55" stroke="#1a1a1a" stroke-width="0.4" stroke-opacity="0.55" stroke-linejoin="round" />
  <path d="M 196.05,280.91 L 194.73,284.71 L 193.39,288.48 L 192.06,292.26 L 190.82,296.02 L 189.68,299.75 L 188.55,303.51 L 187.41,307.34 L 186.25,311.25 L 186.85,311.43 L 188.07,307.54 L 189.22,303.71 L 190.35,299.96 L 191.49,296.24 L 192.72,292.49 L 194.05,288.72 L 195.38,284.93 L 196.65,281.12 Z" fill="#1a1a1a" fill-opacity="0.55" stroke="#1a1a1a" stroke-width="0.4" stroke-opacity="0.55" stroke-linejoin="round" />
  <path d="M 187.92,275.65 L 186.64,279.43 L 185.39,283.24 L 184.17,287.07 L 183,290.89 L 181.86,294.71 L 180.75,298.51 L 179.62,302.28 L 178.41,306 L 177.19,309.72 L 177.79,309.92 L 179.06,306.21 L 180.29,302.49 L 181.42,298.71 L 182.53,294.91 L 183.66,291.09 L 184.83,287.27 L 186.05,283.45 L 187.27,279.64 L 188.51,275.85 Z" fill="#1a1a1a" fill-opacity="0.55" stroke="#1a1a1a" stroke-width="0.4" stroke-opacity="0.55" stroke-linejoin="round" />
  <path d="M 180.32,270.68 L 179.05,274.49 L 177.82,278.27 L 176.59,282.06 L 175.35,285.83 L 174.08,289.58 L 172.79,293.33 L 171.49,297.12 L 170.27,300.98 L 169.14,304.94 L 168,308.88 L 168.6,309.06 L 169.78,305.12 L 170.93,301.18 L 172.14,297.33 L 173.43,293.55 L 174.72,289.8 L 176,286.04 L 177.25,282.27 L 178.48,278.49 L 179.69,274.7 L 180.92,270.87 Z" fill="#1a1a1a" fill-opacity="0.55" stroke="#1a1a1a" stroke-width="0.4" stroke-opacity="0.55" stroke-linejoin="round" />
  <path d="M 172.3,265.67 L 171.13,269.41 L 169.93,273.14 L 168.69,276.92 L 167.43,280.78 L 166.21,284.62 L 165.04,288.41 L 163.91,292.22 L 162.74,295.98 L 161.53,299.77 L 160.31,303.62 L 160.91,303.82 L 162.18,299.98 L 163.42,296.19 L 164.59,292.42 L 165.71,288.61 L 166.88,284.83 L 168.09,281 L 169.36,277.14 L 170.61,273.36 L 171.78,269.61 L 172.9,265.86 Z" fill="#1a1a1a" fill-opacity="0.55" stroke="#1a1a1a" stroke-width="0.4" stroke-opacity="0.55" stroke-linejoin="round" />
  <path d="M 164.44,260.61 L 163.19,264.35 L 161.94,268.08 L 160.71,271.84 L 159.5,275.68 L 158.31,279.54 L 157.12,283.39 L 155.95,287.2 L 154.8,291.02 L 153.62,294.83 L 152.35,298.54 L 151.04,302.24 L 149.74,305.97 L 150.34,306.18 L 151.67,302.46 L 153.03,298.78 L 154.3,295.05 L 155.49,291.23 L 156.64,287.41 L 157.8,283.6 L 158.99,279.75 L 160.18,275.89 L 161.37,272.06 L 162.59,268.29 L 163.81,264.55 L 165.03,260.81 Z" fill="#1a1a1a" fill-opacity="0.55" stroke="#1a1a1a" stroke-width="0.4" stroke-opacity="0.55" stroke-linejoin="round" />
  <path d="M 156.54,255.58 L 155.3,259.34 L 154.08,263.14 L 152.87,266.96 L 151.66,270.75 L 150.47,274.51 L 149.31,278.25 L 148.15,282.01 L 146.97,285.8 L 145.79,289.64 L 144.61,293.48 L 143.38,297.27 L 142.15,301.03 L 140.95,304.8 L 141.55,304.99 L 142.78,301.23 L 144.05,297.49 L 145.28,293.69 L 146.46,289.85 L 147.64,286.01 L 148.81,282.21 L 149.98,278.46 L 151.14,274.72 L 152.34,270.97 L 153.55,267.18 L 154.76,263.36 L 155.94,259.54 L 157.15,255.78 Z" fill="#1a1a1a" fill-opacity="0.55" stroke="#1a1a1a" stroke-width="0.4" stroke-opacity="0.55" stroke-linejoin="round" />
  <path d="M 148.78,250.54 L 147.54,254.29 L 146.32,258.07 L 145.12,261.88 L 143.86,265.71 L 142.6,269.55 L 141.39,273.39 L 140.22,277.2 L 139.09,280.98 L 137.98,284.75 L 136.79,288.53 L 135.52,292.28 L 134.31,295.99 L 133.14,299.7 L 131.9,303.49 L 132.51,303.69 L 133.78,299.91 L 134.99,296.21 L 136.21,292.51 L 137.48,288.76 L 138.68,284.97 L 139.78,281.19 L 140.91,277.4 L 142.06,273.6 L 143.27,269.77 L 144.53,265.93 L 145.78,262.09 L 146.98,258.28 L 148.16,254.5 L 149.38,250.74 Z" fill="#1a1a1a" fill-opacity="0.55" stroke="#1a1a1a" stroke-width="0.4" stroke-opacity="0.55" stroke-linejoin="round" />
  <path d="M 140.93,245.76 L 139.73,249.53 L 138.51,253.3 L 137.3,257.08 L 136.07,260.87 L 134.85,264.67 L 133.64,268.47 L 132.44,272.26 L 131.24,276.05 L 130.04,279.86 L 128.84,283.67 L 127.58,287.46 L 126.31,291.26 L 125.05,295.02 L 123.79,298.77 L 124.39,298.97 L 125.68,295.23 L 126.97,291.48 L 128.25,287.68 L 129.5,283.89 L 130.7,280.07 L 131.9,276.26 L 133.1,272.47 L 134.3,268.67 L 135.51,264.88 L 136.73,261.08 L 137.96,257.29 L 139.16,253.51 L 140.35,249.73 L 141.53,245.95 Z" fill="#1a1a1a" fill-opacity="0.55" stroke="#1a1a1a" stroke-width="0.4" stroke-opacity="0.55" stroke-linejoin="round" />
  <path d="M 133.05,240.73 L 131.84,244.51 L 130.63,248.28 L 129.41,252.07 L 128.18,255.85 L 126.94,259.61 L 125.68,263.38 L 124.42,267.15 L 123.19,270.92 L 121.98,274.66 L 120.8,278.43 L 119.66,282.2 L 118.46,285.99 L 117.27,289.79 L 116.16,293.6 L 115.03,297.38 L 113.89,301.18 L 114.49,301.36 L 115.64,297.57 L 116.79,293.79 L 117.91,289.99 L 119.11,286.19 L 120.32,282.41 L 121.47,278.64 L 122.64,274.87 L 123.84,271.13 L 125.07,267.37 L 126.33,263.6 L 127.59,259.82 L 128.83,256.06 L 130.06,252.28 L 131.27,248.49 L 132.46,244.71 L 133.65,240.92 Z" fill="#1a1a1a" fill-opacity="0.55" stroke="#1a1a1a" stroke-width="0.4" stroke-opacity="0.55" stroke-linejoin="round" />
  <path d="M 124.2,239.43 L 122.99,243.18 L 121.72,246.93 L 120.43,250.7 L 119.16,254.51 L 117.9,258.31 L 116.64,262.1 L 115.36,265.88 L 114.1,269.7 L 112.9,273.57 L 111.74,277.45 L 110.59,281.24 L 109.39,284.9 L 108.18,288.62 L 106.97,292.44 L 105.73,296.13 L 106.33,296.34 L 107.6,292.64 L 108.83,288.83 L 110.05,285.11 L 111.25,281.45 L 112.39,277.65 L 113.55,273.77 L 114.75,269.91 L 116.02,266.1 L 117.3,262.32 L 118.56,258.53 L 119.81,254.73 L 121.08,250.92 L 122.35,247.14 L 123.6,243.38 L 124.8,239.63 Z" fill="#1a1a1a" fill-opacity="0.55" stroke="#1a1a1a" stroke-width="0.4" stroke-opacity="0.55" stroke-linejoin="round" />
  <path d="M 116.62,234.22 L 115.32,238 L 114,241.79 L 112.71,245.6 L 111.47,249.44 L 110.26,253.31 L 109.05,257.14 L 107.81,260.93 L 106.5,264.72 L 105.19,268.54 L 103.95,272.32 L 102.72,276.08 L 101.46,279.82 L 100.21,283.53 L 99.02,287.23 L 97.86,290.99 L 96.69,294.78 L 95.54,298.61 L 96.15,298.79 L 97.33,294.97 L 98.54,291.2 L 99.71,287.45 L 100.89,283.76 L 102.13,280.05 L 103.38,276.3 L 104.61,272.54 L 105.85,268.76 L 107.15,264.94 L 108.46,261.14 L 109.7,257.35 L 110.92,253.51 L 112.13,249.65 L 113.38,245.82 L 114.65,242.01 L 115.94,238.22 L 117.23,234.42 Z" fill="#1a1a1a" fill-opacity="0.55" stroke="#1a1a1a" stroke-width="0.4" stroke-opacity="0.55" stroke-linejoin="round" />
  <path d="M 108.57,229.76 L 107.34,233.54 L 106.09,237.34 L 104.84,241.13 L 103.6,244.86 L 102.37,248.55 L 101.15,252.25 L 99.94,255.98 L 98.75,259.73 L 97.57,263.47 L 96.39,267.21 L 95.15,270.96 L 93.81,274.7 L 92.46,278.46 L 91.22,282.24 L 90.05,286.03 L 88.86,289.84 L 87.67,293.64 L 86.52,297.45 L 87.12,297.64 L 88.29,293.83 L 89.49,290.04 L 90.7,286.23 L 91.88,282.44 L 93.11,278.68 L 94.47,274.94 L 95.82,271.19 L 97.06,267.43 L 98.25,263.68 L 99.43,259.95 L 100.62,256.2 L 101.82,252.46 L 103.03,248.77 L 104.26,245.08 L 105.5,241.34 L 106.74,237.55 L 107.95,233.74 L 109.17,229.96 Z" fill="#1a1a1a" fill-opacity="0.55" stroke="#1a1a1a" stroke-width="0.4" stroke-opacity="0.55" stroke-linejoin="round" />
  <path d="M 100.81,223.85 L 99.54,227.64 L 98.26,231.41 L 97.01,235.18 L 95.82,238.98 L 94.66,242.81 L 93.5,246.66 L 92.29,250.49 L 91.06,254.31 L 89.82,258.15 L 88.56,262.02 L 87.28,265.85 L 85.99,269.64 L 84.68,273.37 L 83.39,277.09 L 82.14,280.89 L 80.91,284.7 L 79.69,288.49 L 78.49,292.27 L 79.1,292.47 L 80.31,288.69 L 81.56,284.91 L 82.82,281.12 L 84.07,277.32 L 85.37,273.61 L 86.67,269.88 L 87.96,266.08 L 89.24,262.24 L 90.5,258.37 L 91.74,254.53 L 92.97,250.71 L 94.18,246.87 L 95.35,243.02 L 96.5,239.19 L 97.68,235.4 L 98.9,231.62 L 100.14,227.85 L 101.4,224.04 Z" fill="#1a1a1a" fill-opacity="0.55" stroke="#1a1a1a" stroke-width="0.4" stroke-opacity="0.55" stroke-linejoin="round" />
  <path d="M 92.65,219.58 L 91.47,223.41 L 90.32,227.26 L 89.17,231.11 L 87.99,234.92 L 86.76,238.66 L 85.52,242.37 L 84.32,246.07 L 83.14,249.81 L 81.91,253.58 L 80.62,257.36 L 79.31,261.15 L 78,264.88 L 76.71,268.58 L 75.44,272.25 L 74.19,275.95 L 72.94,279.71 L 71.71,283.51 L 70.57,287.34 L 69.47,291.17 L 68.25,294.96 L 68.85,295.15 L 70.09,291.36 L 71.23,287.53 L 72.4,283.72 L 73.62,279.93 L 74.86,276.18 L 76.11,272.48 L 77.36,268.81 L 78.65,265.11 L 79.96,261.37 L 81.25,257.58 L 82.54,253.79 L 83.78,250.02 L 84.97,246.28 L 86.18,242.58 L 87.42,238.88 L 88.66,235.13 L 89.84,231.31 L 90.97,227.45 L 92.1,223.6 L 93.26,219.77 Z" fill="#1a1a1a" fill-opacity="0.55" stroke="#1a1a1a" stroke-width="0.4" stroke-opacity="0.55" stroke-linejoin="round" />
  <path d="M 84.55,215.64 L 83.35,219.37 L 82.17,223.08 L 80.99,226.77 L 79.8,230.47 L 78.6,234.2 L 77.4,237.98 L 76.19,241.73 L 74.98,245.41 L 73.76,249.08 L 72.51,252.8 L 71.27,256.56 L 70.05,260.31 L 68.86,264.08 L 67.69,267.83 L 66.53,271.52 L 65.4,275.22 L 64.25,278.9 L 63.02,282.5 L 61.65,286.12 L 60.33,289.83 L 59.08,293.51 L 59.68,293.71 L 60.94,290.04 L 62.29,286.35 L 63.67,282.73 L 64.92,279.12 L 66.08,275.43 L 67.21,271.73 L 68.37,268.04 L 69.53,264.29 L 70.72,260.52 L 71.93,256.77 L 73.17,253.02 L 74.41,249.3 L 75.64,245.63 L 76.85,241.95 L 78.05,238.19 L 79.26,234.41 L 80.47,230.68 L 81.65,226.98 L 82.81,223.28 L 83.97,219.56 L 85.16,215.83 Z" fill="#1a1a1a" fill-opacity="0.55" stroke="#1a1a1a" stroke-width="0.4" stroke-opacity="0.55" stroke-linejoin="round" />
  <path d="M 77.35,209.41 L 76.13,213.17 L 74.88,216.91 L 73.59,220.65 L 72.29,224.4 L 71.01,228.17 L 69.77,231.96 L 68.55,235.75 L 67.34,239.54 L 66.13,243.34 L 64.92,247.14 L 63.69,250.95 L 62.44,254.78 L 61.18,258.61 L 59.93,262.39 L 58.67,266.14 L 57.35,269.91 L 56.04,273.71 L 54.83,277.52 L 53.71,281.29 L 52.63,284.92 L 51.46,288.59 L 50.18,292.43 L 50.78,292.63 L 52.07,288.79 L 53.26,285.11 L 54.37,281.49 L 55.5,277.73 L 56.71,273.93 L 58.01,270.14 L 59.33,266.37 L 60.6,262.62 L 61.85,258.83 L 63.11,255 L 64.36,251.17 L 65.59,247.36 L 66.81,243.55 L 68.02,239.75 L 69.22,235.97 L 70.44,232.18 L 71.68,228.4 L 72.95,224.62 L 74.25,220.87 L 75.51,217.12 L 76.74,213.37 L 77.95,209.6 Z" fill="#1a1a1a" fill-opacity="0.55" stroke="#1a1a1a" stroke-width="0.4" stroke-opacity="0.55" stroke-linejoin="round" />
  <path d="M 68.9,206.05 L 67.72,209.75 L 66.51,213.45 L 65.29,217.15 L 64.06,220.85 L 62.85,224.56 L 61.66,228.25 L 60.45,231.91 L 59.22,235.59 L 57.98,239.33 L 56.75,243.1 L 55.54,246.85 L 54.36,250.56 L 53.22,254.22 L 52.06,257.86 L 50.79,261.54 L 49.46,265.2 L 48.16,268.85 L 46.9,272.52 L 45.69,276.24 L 44.53,280.05 L 43.41,283.92 L 42.29,287.57 L 41.11,291.16 L 41.71,291.35 L 42.9,287.77 L 44.05,284.11 L 45.2,280.26 L 46.38,276.46 L 47.59,272.75 L 48.85,269.09 L 50.14,265.45 L 51.46,261.77 L 52.73,258.08 L 53.9,254.43 L 55.04,250.77 L 56.23,247.07 L 57.44,243.33 L 58.67,239.55 L 59.9,235.82 L 61.13,232.13 L 62.34,228.47 L 63.54,224.78 L 64.75,221.07 L 65.96,217.37 L 67.16,213.66 L 68.34,209.95 L 69.52,206.25 Z" fill="#1a1a1a" fill-opacity="0.55" stroke="#1a1a1a" stroke-width="0.4" stroke-opacity="0.55" stroke-linejoin="round" />
  <path d="M 53.72,223.28 L 52.51,227.02 L 51.28,230.76 L 50.04,234.51 L 48.8,238.25 L 47.58,241.98 L 46.39,245.68 L 45.2,249.36 L 44.02,253.02 L 42.88,256.69 L 41.75,260.34 L 40.55,263.99 L 39.3,267.65 L 38.11,271.34 L 36.97,275.08 L 35.78,278.84 L 34.56,282.58 L 33.29,286.23 L 33.88,286.44 L 35.17,282.79 L 36.43,279.05 L 37.65,275.29 L 38.79,271.56 L 39.97,267.88 L 41.23,264.22 L 42.44,260.55 L 43.57,256.9 L 44.71,253.24 L 45.89,249.58 L 47.08,245.9 L 48.26,242.2 L 49.48,238.48 L 50.72,234.73 L 51.94,230.98 L 53.13,227.22 L 54.33,223.48 Z" fill="#1a1a1a" fill-opacity="0.55" stroke="#1a1a1a" stroke-width="0.4" stroke-opacity="0.55" stroke-linejoin="round" />
  <path d="M 25.17,281.79 L 24.05,285.2 L 22.96,288.59 L 23.56,288.79 L 24.72,285.42 L 25.77,281.98 Z" fill="#1a1a1a" fill-opacity="0.55" stroke="#1a1a1a" stroke-width="0.4" stroke-opacity="0.55" stroke-linejoin="round" />
  <polyline points="226.03,163.72 223.91,168.59 221.64,173.65 219.34,178.79 217.11,184.04 214.83,189.3 212.38,194.42 210,199.47 207.84,204.42 205.61,209.29 203.57,214.31 201.56,219.44" fill="none" stroke="#1a1a1a" stroke-width="1.192" stroke-opacity="0.32" stroke-dasharray="4,3" stroke-linecap="round" stroke-linejoin="round" />
  <polyline points="226.03,163.72 232,164.23 237.9,164.72 243.7,165.2 249.47,165.69 255.21,166.24 260.93,166.85 266.6,167.45 272.29,168.01 278,168.49 283.76,168.91 289.54,169.27 295.33,169.64 301.11,170.07 306.89,170.54 312.66,171.04 318.39,171.55 324.1,172.06 329.84,172.56 335.61,173.01 341.39,173.42" fill="none" stroke="#1a1a1a" stroke-width="1.146" stroke-opacity="0.32" stroke-dasharray="4,3" stroke-linecap="round" stroke-linejoin="round" />
  <polyline points="226.03,163.72 226.11,157.73 226.18,151.78 226.24,145.84 226.3,139.9 226.36,133.97 226.39,128.03 226.4,122.08 226.39,116.12 226.35,110.18 226.28,104.24 226.21,98.31 226.18,92.38 226.22,86.45 226.29,80.51 226.35,74.54 226.42,68.57 226.48,62.59 226.55,56.61 226.66,50.67" fill="none" stroke="#1a1a1a" stroke-width="1.164" stroke-opacity="0.32" stroke-dasharray="4,3" stroke-linecap="round" stroke-linejoin="round" />
  <path d="M 227.21,50.68 L 227.21,50.49 L 226.11,50.47 L 226.11,50.66 Z" fill="#1a1a1a" stroke="#1a1a1a" stroke-width="0.4" stroke-linejoin="round" />
  <polyline points="201.56,219.44 206.99,220 212.45,220.58 217.95,221.19 223.45,221.79 228.91,222.38 234.33,222.94" fill="none" stroke="#1a1a1a" stroke-width="1.261" stroke-opacity="0.32" stroke-dasharray="4,3" stroke-linecap="round" stroke-linejoin="round" />
  <path d="M 234.27,223.53 L 240.13,224.14 L 246.02,224.73 L 251.94,225.31 L 257.88,225.88 L 263.84,226.46 L 269.81,227.02 L 275.78,227.57 L 281.75,228.09 L 287.71,228.62 L 293.64,229.17 L 299.56,229.75 L 305.44,230.35 L 311.31,230.97 L 317.19,231.62 L 323.07,232.3 L 328.94,232.99 L 334.79,233.67 L 340.63,234.31 L 340.77,233.11 L 334.94,232.41 L 329.1,231.64 L 323.24,230.9 L 317.35,230.2 L 311.47,229.54 L 305.6,228.91 L 299.7,228.3 L 293.78,227.73 L 287.84,227.18 L 281.88,226.65 L 275.91,226.12 L 269.94,225.58 L 263.98,225.02 L 258.02,224.45 L 252.07,223.9 L 246.14,223.41 L 240.25,222.92 L 234.39,222.35 Z" fill="#1a1a1a" stroke="#1a1a1a" stroke-width="0.4" stroke-linejoin="round" />
  <polyline points="201.56,219.44 201.43,213.63 201.34,207.87 201.25,202.17 201.15,196.49 201.06,190.83 201,185.2 200.98,179.6 200.96,173.97 200.92,168.26 200.86,162.49 200.79,156.69 200.72,150.89 200.68,145.1" fill="none" stroke="#1a1a1a" stroke-width="1.28" stroke-opacity="0.32" stroke-dasharray="4,3" stroke-linecap="round" stroke-linejoin="round" />
  <path d="M 201.29,145.1 L 201.33,139.3 L 201.38,133.51 L 201.36,127.72 L 201.28,121.93 L 201.15,116.14 L 201,110.35 L 200.84,104.56 L 200.69,98.76 L 200.53,92.94 L 200.37,87.1 L 199.13,87.11 L 199.14,92.96 L 199.2,98.79 L 199.34,104.6 L 199.5,110.39 L 199.66,116.17 L 199.79,121.96 L 199.88,127.73 L 199.92,133.51 L 199.98,139.3 L 200.07,145.1 Z" fill="#1a1a1a" stroke="#1a1a1a" stroke-width="0.4" stroke-linejoin="round" />
  <path d="M 341.3,233.72 L 341.3,233.29 L 340.11,233.29 L 340.11,233.71 Z" fill="#1a1a1a" stroke="#1a1a1a" stroke-width="0.4" stroke-linejoin="round" />
  <polyline points="340.7,233.29 340.76,227.1 340.95,221.13 341.04,215.2 341.23,209.22 341.39,203.24 341.42,197.31 341.42,191.31 341.44,185.23 341.38,179.32 341.39,173.42" fill="none" stroke="#1a1a1a" stroke-width="1.217" stroke-opacity="0.32" stroke-dasharray="4,3" stroke-linecap="round" stroke-linejoin="round" />
  <path d="M 341.31,233.78 L 342.01,228.03 L 342.74,222.28 L 343.47,216.55 L 344.2,210.79 L 344.9,205.03 L 345.61,199.26 L 346.26,193.52 L 346.85,187.8 L 347.43,182.1 L 348.06,176.41 L 348.79,170.69 L 349.57,164.96 L 350.35,159.21 L 351.03,153.46 L 351.65,147.75 L 352.25,142.08 L 352.87,136.43 L 353.5,130.75 L 354.1,125.01 L 354.68,119.26 L 355.23,113.49 L 355.78,107.74 L 356.36,101.98 L 356.99,96.2 L 355.74,96.06 L 355.07,101.84 L 354.4,107.59 L 353.76,113.34 L 353.16,119.1 L 352.57,124.85 L 351.97,130.58 L 351.36,136.26 L 350.77,141.93 L 350.18,147.59 L 349.56,153.29 L 348.86,159.02 L 348.08,164.75 L 347.29,170.5 L 346.56,176.23 L 345.93,181.95 L 345.35,187.65 L 344.76,193.36 L 344.12,199.09 L 343.41,204.84 L 342.72,210.61 L 342.06,216.38 L 341.41,222.13 L 340.76,227.88 L 340.09,233.64 Z" fill="#1a1a1a" stroke="#1a1a1a" stroke-width="0.4" stroke-linejoin="round" />
  <polyline points="341.39,173.42 342.02,167.53 342.63,161.69 343.21,155.89 343.79,150.1 344.38,144.3 345.04,138.44 345.75,132.55 346.45,126.67 347.09,120.83 347.72,115 348.36,109.17 349.01,103.33 349.65,97.53 350.28,91.76 350.93,85.99 351.55,80.18 352.16,74.39 352.8,68.6 353.47,62.79 354.15,56.97" fill="none" stroke="#1a1a1a" stroke-width="1.187" stroke-opacity="0.32" stroke-dasharray="4,3" stroke-linecap="round" stroke-linejoin="round" />
  <path d="M 354.71,57.04 L 354.73,56.84 L 353.61,56.71 L 353.59,56.91 Z" fill="#1a1a1a" stroke="#1a1a1a" stroke-width="0.4" stroke-linejoin="round" />
  <path d="M 226.19,50.14 L 223.05,54.34 L 219.89,58.87 L 216.52,63.71 L 212.98,68.28 L 209.38,72.77 L 205.99,77.33 L 202.5,82.03 L 199.27,86.76 L 200.24,87.45 L 203.61,82.84 L 207.14,78.18 L 210.51,73.64 L 214.1,69.16 L 217.65,64.54 L 221.03,59.66 L 224.13,55.1 L 227.13,50.83 Z" fill="#1a1a1a" stroke="#1a1a1a" stroke-width="0.4" stroke-linejoin="round" />
  <path d="M 226.62,51.04 L 232.34,51.44 L 238.07,51.85 L 243.82,52.22 L 249.61,52.52 L 255.45,52.75 L 261.3,52.93 L 267.15,53.03 L 273.05,53.12 L 278.97,53.25 L 284.88,53.49 L 290.74,53.83 L 296.5,54.23 L 302.21,54.63 L 307.91,55 L 313.68,55.36 L 319.5,55.71 L 325.3,56.03 L 331.05,56.32 L 336.78,56.61 L 342.54,56.89 L 348.34,57.14 L 354.15,57.35 L 354.19,56.2 L 348.39,55.95 L 342.61,55.62 L 336.85,55.26 L 331.12,54.93 L 325.37,54.65 L 319.58,54.36 L 313.76,54.02 L 308,53.65 L 302.3,53.28 L 296.6,52.87 L 290.83,52.46 L 284.95,52.12 L 279.01,51.88 L 273.07,51.75 L 267.18,51.66 L 261.33,51.56 L 255.49,51.39 L 249.67,51.16 L 243.89,50.91 L 238.14,50.63 L 232.42,50.3 L 226.7,49.93 Z" fill="#1a1a1a" stroke="#1a1a1a" stroke-width="0.4" stroke-linejoin="round" />
  <path d="M 199.72,87.73 L 205.54,88.03 L 211.39,88.35 L 217.29,88.68 L 223.19,89.02 L 229.05,89.35 L 234.87,89.69 L 240.64,90.02 L 246.4,90.34 L 252.18,90.64 L 257.96,90.95 L 263.74,91.27 L 269.52,91.61 L 275.29,91.97 L 281.08,92.36 L 286.89,92.75 L 292.71,93.15 L 298.53,93.55 L 304.34,93.91 L 310.13,94.24 L 315.9,94.57 L 321.69,94.89 L 327.5,95.21 L 333.31,95.52 L 339.11,95.81 L 344.88,96.11 L 350.61,96.43 L 356.33,96.77 L 356.41,95.49 L 350.69,95.11 L 344.97,94.72 L 339.2,94.33 L 333.4,93.96 L 327.58,93.63 L 321.77,93.32 L 315.98,93 L 310.22,92.68 L 304.44,92.34 L 298.63,92 L 292.81,91.63 L 286.99,91.25 L 281.18,90.85 L 275.39,90.45 L 269.61,90.07 L 263.83,89.73 L 258.04,89.42 L 252.26,89.11 L 246.48,88.8 L 240.73,88.48 L 234.95,88.15 L 229.14,87.82 L 223.27,87.52 L 217.36,87.25 L 211.46,87.01 L 205.6,86.75 L 199.79,86.48 Z" fill="#1a1a1a" stroke="#1a1a1a" stroke-width="0.4" stroke-linejoin="round" />
  <path d="M 356.96,96.07 L 356.55,90.73 L 356.27,85.22 L 356.11,79.43 L 355.67,73.56 L 355.63,67.79 L 355.42,62.29 L 354.77,56.72 L 353.57,56.83 L 353.99,62.39 L 354.17,67.82 L 354.23,73.63 L 354.68,79.51 L 354.85,85.28 L 355.18,90.83 L 355.77,96.19 Z" fill="#1a1a1a" stroke="#1a1a1a" stroke-width="0.4" stroke-linejoin="round" />
  <path d="M 64.57,200.21 L 62.21,205.61 L 59.58,210.85 L 56.83,215.92 L 54.19,220.94 L 51.69,226.04 L 49.26,231.34 L 46.78,236.67 L 44.15,241.85 L 41.53,246.97 L 39.03,252.13 L 36.61,257.23 L 34.15,262.39 L 31.7,267.66 L 29.22,272.98 L 26.58,278.3 L 23.93,283.55 L 21.34,288.72 L 22.67,289.4 L 25.32,284.27 L 28.11,279.08 L 30.85,273.77 L 33.34,268.42 L 35.79,263.16 L 38.26,258.01 L 40.67,252.92 L 43.16,247.78 L 45.77,242.67 L 48.42,237.47 L 50.92,232.1 L 53.34,226.82 L 55.83,221.77 L 58.47,216.79 L 61.14,211.64 L 63.66,206.27 L 65.96,200.81 Z" fill="#1a1a1a" stroke="#1a1a1a" stroke-width="0.4" stroke-linejoin="round" />
  <path d="M 64.87,201.18 L 70.1,204.23 L 75.28,207.27 L 80.41,210.31 L 85.53,213.35 L 90.65,216.4 L 95.75,219.44 L 100.85,222.47 L 105.98,225.47 L 111.14,228.46 L 116.31,231.44 L 121.51,234.43 L 126.7,237.43 L 131.89,240.46 L 137.06,243.51 L 142.22,246.53 L 147.34,249.52 L 152.45,252.5 L 157.57,255.49 L 162.75,258.51 L 167.98,261.55 L 173.23,264.59 L 178.46,267.61 L 183.66,270.62 L 188.84,273.62 L 194.04,276.63 L 199.27,279.66 L 204.51,282.7 L 209.76,285.74 L 214.99,288.75 L 220.19,291.75 L 225.35,294.71 L 230.49,297.65 L 235.63,300.58 L 240.78,303.53 L 245.95,306.47 L 251.14,309.43 L 256.33,312.39 L 261.53,315.34 L 266.73,318.28 L 271.96,321.22 L 277.19,324.16 L 277.95,322.82 L 272.72,319.86 L 267.52,316.9 L 262.35,313.91 L 257.18,310.91 L 252.01,307.91 L 246.83,304.94 L 241.66,301.99 L 236.51,299.04 L 231.38,296.1 L 226.24,293.15 L 221.07,290.2 L 215.88,287.21 L 210.64,284.2 L 205.4,281.18 L 200.16,278.13 L 194.96,275.06 L 189.79,272 L 184.62,268.97 L 179.42,265.95 L 174.19,262.94 L 168.92,259.92 L 163.67,256.91 L 158.48,253.93 L 153.35,250.95 L 148.26,247.96 L 143.15,244.95 L 138.01,241.91 L 132.83,238.86 L 127.64,235.82 L 122.44,232.81 L 117.25,229.82 L 112.07,226.84 L 106.92,223.86 L 101.8,220.86 L 96.69,217.85 L 91.56,214.85 L 86.42,211.85 L 81.27,208.86 L 76.09,205.87 L 70.89,202.87 L 65.66,199.83 Z" fill="#1a1a1a" stroke="#1a1a1a" stroke-width="0.4" stroke-linejoin="round" />
  <path d="M 65.81,201.03 L 69.85,196.82 L 73.91,192.64 L 77.98,188.44 L 82.02,184.19 L 86.02,179.91 L 90.02,175.62 L 94.1,171.35 L 98.2,167.06 L 102.29,162.74 L 106.36,158.41 L 110.43,154.06 L 114.48,149.69 L 118.48,145.32 L 122.46,140.96 L 126.49,136.61 L 130.61,132.22 L 134.74,127.81 L 138.81,123.41 L 142.81,119.03 L 146.82,114.7 L 150.86,110.39 L 154.9,106.1 L 158.86,101.8 L 162.79,97.47 L 166.76,93.11 L 170.79,88.71 L 174.85,84.29 L 173.77,83.29 L 169.68,87.68 L 165.58,92.02 L 161.52,96.29 L 157.52,100.56 L 153.54,104.83 L 149.52,109.13 L 145.49,113.46 L 141.49,117.83 L 137.52,122.22 L 133.47,126.62 L 129.33,131.01 L 125.18,135.38 L 121.13,139.74 L 117.15,144.1 L 113.15,148.47 L 109.11,152.82 L 105.03,157.17 L 100.97,161.5 L 96.89,165.81 L 92.78,170.1 L 88.7,174.38 L 84.69,178.67 L 80.7,182.96 L 76.72,187.25 L 72.74,191.52 L 68.74,195.76 L 64.72,199.99 Z" fill="#1a1a1a" stroke="#1a1a1a" stroke-width="0.4" stroke-linejoin="round" />
  <path d="M 21.91,289.75 L 27.8,290.61 L 33.7,291.43 L 39.65,292.22 L 45.66,292.95 L 51.68,293.66 L 57.69,294.37 L 63.66,295.08 L 69.61,295.79 L 75.54,296.5 L 81.5,297.23 L 87.49,297.98 L 93.5,298.75 L 99.5,299.6 L 105.49,300.49 L 111.46,301.4 L 117.43,302.31 L 123.37,303.21 L 129.3,304.11 L 135.22,305.02 L 141.14,305.92 L 147.06,306.8 L 152.99,307.67 L 158.91,308.53 L 164.84,309.34 L 170.78,310.1 L 176.69,310.84 L 182.59,311.58 L 188.49,312.35 L 194.4,313.13 L 200.34,313.93 L 206.29,314.71 L 212.22,315.49 L 218.13,316.26 L 224.02,317.06 L 229.91,317.89 L 235.83,318.76 L 241.77,319.61 L 247.71,320.42 L 253.66,321.2 L 259.61,321.96 L 265.56,322.7 L 271.52,323.43 L 277.48,324.16 L 277.65,322.81 L 271.69,322.06 L 265.74,321.3 L 259.8,320.52 L 253.86,319.72 L 247.92,318.88 L 241.99,318.03 L 236.06,317.16 L 230.14,316.31 L 224.24,315.5 L 218.34,314.7 L 212.43,313.91 L 206.5,313.14 L 200.55,312.36 L 194.61,311.57 L 188.69,310.79 L 182.79,310.03 L 176.89,309.28 L 170.98,308.51 L 165.07,307.7 L 159.15,306.85 L 153.23,305.99 L 147.31,305.12 L 141.38,304.26 L 135.46,303.39 L 129.54,302.52 L 123.61,301.63 L 117.67,300.72 L 111.71,299.79 L 105.74,298.86 L 99.74,297.96 L 93.72,297.12 L 87.7,296.33 L 81.71,295.58 L 75.74,294.85 L 69.8,294.14 L 63.86,293.44 L 57.88,292.75 L 51.86,292.08 L 45.84,291.42 L 39.83,290.74 L 33.89,290.01 L 27.99,289.23 L 22.11,288.37 Z" fill="#1a1a1a" stroke="#1a1a1a" stroke-width="0.4" stroke-linejoin="round" />
  <path d="M 22.55,289.47 L 22.74,289.21 L 21.66,288.4 L 21.46,288.65 Z" fill="#1a1a1a" stroke="#1a1a1a" stroke-width="0.4" stroke-linejoin="round" />
  <polyline points="22.2,288.8 25.74,284.08 29.29,279.36 32.85,274.63 36.44,269.89 40.03,265.13 43.59,260.34 47.11,255.54 50.57,250.72 53.99,245.88 57.42,241.03 60.86,236.19 64.33,231.36 67.84,226.57 71.39,221.81 74.98,217.08 78.59,212.34 82.18,207.58 85.75,202.8 89.28,198.01 92.81,193.22 96.33,188.44 99.87,183.71 103.42,179 106.99,174.29 110.57,169.57 114.14,164.84 117.71,160.09 121.28,155.36 124.85,150.62 128.43,145.89 132.01,141.14 135.58,136.38 139.14,131.61 142.67,126.84 146.15,122.08 149.6,117.34 153.01,112.62 156.42,107.91 159.87,103.19 163.38,98.48 166.93,93.76 170.48,89.01 174,84.22" fill="none" stroke="#1a1a1a" stroke-width="1.441" stroke-opacity="0.32" stroke-dasharray="4,3" stroke-linecap="round" stroke-linejoin="round" />
  <path d="M 174.54,84.62 L 174.86,84.18 L 173.77,83.39 L 173.45,83.82 Z" fill="#1a1a1a" stroke="#1a1a1a" stroke-width="0.4" stroke-linejoin="round" />
  <path d="M 278.2,323.2 L 275.8,317.82 L 273.43,312.41 L 271.09,306.99 L 268.78,301.53 L 266.49,296.04 L 264.22,290.51 L 261.95,284.98 L 259.66,279.45 L 257.36,273.94 L 255.03,268.45 L 252.68,262.98 L 250.3,257.55 L 247.91,252.13 L 245.53,246.74 L 243.16,241.35 L 240.79,235.95 L 238.44,230.54 L 236.09,225.11 L 233.76,219.64 L 231.42,214.17 L 229.03,208.71 L 226.63,203.25 L 224.2,197.78 L 221.77,192.28 L 219.37,186.78 L 217.03,181.29 L 214.76,175.83 L 212.52,170.42 L 210.27,165.04 L 208,159.66 L 205.69,154.27 L 203.35,148.85 L 200.98,143.42 L 198.6,137.99 L 196.23,132.56 L 193.86,127.12 L 191.48,121.69 L 189.1,116.29 L 186.72,110.91 L 184.35,105.53 L 181.99,100.13 L 179.63,94.66 L 177.29,89.12 L 174.94,83.53 L 173.68,84.05 L 176.02,89.65 L 178.34,95.21 L 180.66,100.7 L 182.98,106.13 L 185.3,111.53 L 187.64,116.93 L 190.01,122.34 L 192.39,127.76 L 194.78,133.19 L 197.16,138.62 L 199.54,144.05 L 201.9,149.48 L 204.24,154.89 L 206.55,160.28 L 208.82,165.65 L 211.07,171.02 L 213.32,176.43 L 215.57,181.89 L 217.88,187.42 L 220.25,192.95 L 222.65,198.46 L 225.07,203.94 L 227.49,209.39 L 229.89,214.83 L 232.26,220.29 L 234.63,225.74 L 236.98,231.17 L 239.32,236.59 L 241.67,242 L 244.03,247.4 L 246.41,252.8 L 248.79,258.21 L 251.16,263.64 L 253.5,269.1 L 255.83,274.58 L 258.13,280.09 L 260.42,285.61 L 262.73,291.13 L 265.04,296.64 L 267.37,302.13 L 269.73,307.57 L 272.12,312.99 L 274.53,318.38 L 276.94,323.77 Z" fill="#1a1a1a" stroke="#1a1a1a" stroke-width="0.4" stroke-linejoin="round" />
</g></g>
<text x="14" y="26" font-family="sans-serif" font-size="14" fill="#999"></text>
<line x1="441" y1="8" x2="441" y2="372" stroke="#ddd" stroke-width="1" />
<text x="215" y="20" text-anchor="middle" font-family="sans-serif" font-size="14" fill="#999">creases (hidden-line)</text>
<text x="667" y="20" text-anchor="middle" font-family="sans-serif" font-size="14" fill="#999">faceted shading</text>
</svg>