<svg xmlns="http://www.w3.org/2000/svg" viewBox="0 0 882 380" width="882" height="380">
<defs><clipPath id="clip-0-0" clipPathUnits="userSpaceOnUse"><rect x="0" y="0" width="430" height="380" /></clipPath><clipPath id="clip-0-1" clipPathUnits="userSpaceOnUse"><rect x="452" y="0" width="430" height="380" /></clipPath></defs>
<g clip-path="url(#clip-0-0)"><g transform="translate(0,0)">  <rect width="430" height="380" fill="#faf9f5" />
  <polyline points="226,164.02 231.83,164.49 237.6,164.97 243.34,165.52 249.03,166.07 254.72,166.57 260.43,167.01 266.16,167.43 271.93,167.85 277.72,168.3 283.54,168.77 289.33,169.24 295.1,169.7 300.91,170.17 306.77,170.68 312.66,171.2 318.55,171.7 324.43,172.17 330.24,172.59 335.96,172.98 341.65,173.37" fill="none" stroke="#1a1a1a" stroke-width="1.146" stroke-opacity="0.32" stroke-dasharray="4,3" stroke-linecap="round" stroke-linejoin="round" />
  <polyline points="226,164.02 224.01,169.21 221.92,174.27 219.74,179.37 217.46,184.38 215.03,189.2 212.51,194.19 210.1,199.23 207.87,204.31 205.7,209.48 203.63,214.71 201.58,219.89" fill="none" stroke="#1a1a1a" stroke-width="1.192" stroke-opacity="0.32" stroke-dasharray="4,3" stroke-linecap="round" stroke-linejoin="round" />
  <polyline points="226,164.02 226.09,158.1 226.13,152.13 226.13,146.16 226.14,140.18 226.15,134.15 226.14,128.07 226.13,122 226.16,116 226.2,110.03 226.24,104.05 226.27,98.08 226.27,92.14 226.26,86.22 226.28,80.29 226.38,74.33 226.5,68.34 226.62,62.34 226.76,56.37 226.96,50.39" fill="none" stroke="#1a1a1a" stroke-width="1.164" stroke-opacity="0.32" stroke-dasharray="4,3" stroke-linecap="round" stroke-linejoin="round" />
  <path d="M 227.51,50.41 L 227.51,50.22 L 226.41,50.18 L 226.41,50.38 Z" fill="#1a1a1a" stroke="#1a1a1a" stroke-width="0.4" stroke-linejoin="round" />
  <polyline points="341.65,173.37 341.52,179.29 341.42,185.25 341.39,191.11 341.45,197.09 341.41,203.08 341.3,209.06 341.13,215.02 340.97,221.02 340.87,226.89 340.71,232.7" fill="none" stroke="#1a1a1a" stroke-width="1.217" stroke-opacity="0.32" stroke-dasharray="4,3" stroke-linecap="round" stroke-linejoin="round" />
  <path d="M 340.12,232.68 L 340.11,233.08 L 341.29,233.11 L 341.3,232.71 Z" fill="#1a1a1a" stroke="#1a1a1a" stroke-width="0.4" stroke-linejoin="round" />
  <polyline points="341.65,173.37 342.32,167.64 342.96,161.83 343.59,155.98 344.23,150.13 344.87,144.28 345.48,138.45 346.08,132.64 346.66,126.83 347.26,121 347.91,115.16 348.53,109.31 349.07,103.46 349.54,97.68 350.06,91.92 350.68,86.13 351.37,80.28 352.07,74.39 352.78,68.5 353.51,62.61 354.25,56.7" fill="none" stroke="#1a1a1a" stroke-width="1.187" stroke-opacity="0.32" stroke-dasharray="4,3" stroke-linecap="round" stroke-linejoin="round" />
  <path d="M 354.81,56.76 L 354.83,56.56 L 353.72,56.43 L 353.69,56.63 Z" fill="#1a1a1a" stroke="#1a1a1a" stroke-width="0.4" stroke-linejoin="round" />
  <path d="M 340.75,232.51 L 334.89,231.95 L 329.04,231.38 L 323.18,230.8 L 317.33,230.21 L 311.46,229.62 L 305.55,229.08 L 299.62,228.55 L 293.67,228.02 L 287.72,227.46 L 281.75,226.87 L 275.77,226.28 L 269.79,225.7 L 263.84,225.15 L 257.9,224.6 L 251.96,224.03 L 246.04,223.51 L 240.11,223 L 234.16,222.48 L 234.05,223.68 L 239.99,224.26 L 245.91,224.9 L 251.82,225.52 L 257.76,226.09 L 263.7,226.64 L 269.65,227.18 L 275.63,227.74 L 281.61,228.32 L 287.58,228.9 L 293.54,229.47 L 299.49,230 L 305.42,230.53 L 311.31,231.1 L 317.19,231.69 L 323.05,232.24 L 328.92,232.72 L 334.78,233.17 L 340.65,233.68 Z" fill="#1a1a1a" stroke="#1a1a1a" stroke-width="0.4" stroke-linejoin="round" />
  <polyline points="234.11,223.08 228.65,222.59 223.22,222.11 217.82,221.6 212.42,221.06 207,220.48 201.58,219.89" fill="none" stroke="#1a1a1a" stroke-width="1.261" stroke-opacity="0.32" stroke-dasharray="4,3" stroke-linecap="round" stroke-linejoin="round" />
  <path d="M 341.31,233.15 L 341.89,227.44 L 342.56,221.76 L 343.27,216.07 L 343.99,210.4 L 344.65,204.73 L 345.29,199.06 L 345.98,193.37 L 346.71,187.66 L 347.42,181.94 L 348.09,176.21 L 348.71,170.5 L 349.31,164.81 L 349.9,159.12 L 350.52,153.43 L 351.2,147.73 L 351.89,142.04 L 352.59,136.33 L 353.27,130.63 L 353.95,124.92 L 354.65,119.22 L 355.32,113.52 L 355.97,107.81 L 356.61,102.08 L 357.26,96.3 L 356.04,96.16 L 355.36,101.93 L 354.64,107.65 L 353.9,113.35 L 353.16,119.04 L 352.45,124.73 L 351.75,130.44 L 351.06,136.15 L 350.35,141.85 L 349.65,147.54 L 348.98,153.25 L 348.36,158.96 L 347.77,164.65 L 347.19,170.34 L 346.59,176.04 L 345.93,181.76 L 345.2,187.47 L 344.48,193.18 L 343.78,198.88 L 343.12,204.55 L 342.45,210.22 L 341.83,215.9 L 341.22,221.61 L 340.64,227.31 L 340.09,233.03 Z" fill="#1a1a1a" stroke="#1a1a1a" stroke-width="0.4" stroke-linejoin="round" />
  <polyline points="201.58,219.89 201.58,214.16 201.51,208.4 201.44,202.57 201.37,196.68 201.29,190.81 201.19,185.01 201.08,179.3 200.96,173.63 200.88,167.94 200.84,162.14 200.8,156.28 200.76,150.4 200.71,144.57" fill="none" stroke="#1a1a1a" stroke-width="1.28" stroke-opacity="0.32" stroke-dasharray="4,3" stroke-linecap="round" stroke-linejoin="round" />
  <path d="M 201.32,144.56 L 201.31,138.77 L 201.27,132.99 L 201.18,127.22 L 201.1,121.45 L 201,115.69 L 200.88,109.92 L 200.76,104.17 L 200.64,98.42 L 200.46,92.7 L 200.27,87.01 L 199.03,87.04 L 199.07,92.73 L 199.14,98.46 L 199.26,104.2 L 199.36,109.95 L 199.46,115.71 L 199.56,121.48 L 199.67,127.25 L 199.8,133.02 L 199.96,138.79 L 200.11,144.58 Z" fill="#1a1a1a" stroke="#1a1a1a" stroke-width="0.4" stroke-linejoin="round" />
  <path d="M 226.49,49.86 L 223.01,54.44 L 219.55,59.13 L 216.24,63.92 L 212.98,68.46 L 209.79,72.9 L 206.52,77.45 L 202.94,82.03 L 199.19,86.64 L 200.1,87.41 L 204.02,82.91 L 207.67,78.32 L 210.99,73.76 L 214.18,69.31 L 217.42,64.75 L 220.7,59.94 L 224.09,55.23 L 227.43,50.54 Z" fill="#1a1a1a" stroke="#1a1a1a" stroke-width="0.4" stroke-linejoin="round" />
  <path d="M 226.94,50.76 L 232.69,51.01 L 238.45,51.33 L 244.22,51.68 L 249.97,52.03 L 255.7,52.37 L 261.45,52.7 L 267.23,53.07 L 273.04,53.44 L 278.87,53.78 L 284.73,54.07 L 290.61,54.3 L 296.46,54.52 L 302.26,54.74 L 308.05,55.02 L 313.86,55.29 L 319.67,55.56 L 325.48,55.82 L 331.26,56.1 L 337.02,56.35 L 342.77,56.58 L 348.51,56.81 L 354.25,57.05 L 354.3,55.94 L 348.56,55.65 L 342.83,55.34 L 337.08,55.02 L 331.32,54.71 L 325.55,54.43 L 319.74,54.15 L 313.92,53.88 L 308.12,53.61 L 302.33,53.33 L 296.51,53.11 L 290.66,52.91 L 284.79,52.7 L 278.94,52.41 L 273.12,52.06 L 267.32,51.69 L 261.54,51.32 L 255.79,50.96 L 250.05,50.62 L 244.29,50.34 L 238.51,50.09 L 232.74,49.87 L 226.99,49.65 Z" fill="#1a1a1a" stroke="#1a1a1a" stroke-width="0.4" stroke-linejoin="round" />
  <path d="M 199.62,87.65 L 205.53,87.97 L 211.45,88.29 L 217.35,88.62 L 223.22,88.95 L 229.04,89.25 L 234.82,89.56 L 240.58,89.92 L 246.33,90.3 L 252.08,90.73 L 257.83,91.19 L 263.58,91.65 L 269.33,92.08 L 275.1,92.47 L 280.87,92.83 L 286.66,93.19 L 292.48,93.53 L 298.31,93.87 L 304.15,94.22 L 309.98,94.57 L 315.78,94.89 L 321.59,95.17 L 327.43,95.42 L 333.3,95.68 L 339.17,95.94 L 345,96.22 L 350.82,96.53 L 356.61,96.86 L 356.69,95.6 L 350.89,95.25 L 345.08,94.89 L 339.24,94.54 L 333.37,94.22 L 327.5,93.94 L 321.66,93.67 L 315.86,93.37 L 310.07,93.03 L 304.25,92.67 L 298.41,92.3 L 292.57,91.95 L 286.76,91.6 L 280.97,91.25 L 275.2,90.89 L 269.44,90.5 L 263.69,90.09 L 257.95,89.65 L 252.19,89.2 L 246.44,88.77 L 240.68,88.37 L 234.91,88.01 L 229.12,87.68 L 223.29,87.39 L 217.42,87.16 L 211.51,86.94 L 205.59,86.7 L 199.68,86.4 Z" fill="#1a1a1a" stroke="#1a1a1a" stroke-width="0.4" stroke-linejoin="round" />
  <path d="M 357.24,96.19 L 357.01,90.46 L 356.71,84.85 L 356.5,79.21 L 356.13,73.47 L 355.7,67.91 L 355.35,62.21 L 354.88,56.46 L 353.67,56.53 L 353.89,62.29 L 354.2,68.01 L 354.63,73.58 L 355.03,79.29 L 355.27,84.92 L 355.63,90.54 L 356.06,96.26 Z" fill="#1a1a1a" stroke="#1a1a1a" stroke-width="0.4" stroke-linejoin="round" />
  <path d="M 64.42,200.39 L 61.7,205.59 L 58.99,210.62 L 56.51,215.66 L 54.22,220.87 L 51.73,226.14 L 49.26,231.43 L 46.73,236.54 L 44.07,241.76 L 41.4,246.95 L 38.84,251.99 L 36.31,257.12 L 33.79,262.38 L 31.34,267.67 L 28.93,272.9 L 26.42,278.08 L 23.95,283.29 L 21.49,288.62 L 22.84,289.26 L 25.36,283.96 L 27.96,278.84 L 30.58,273.7 L 33.05,268.46 L 35.52,263.19 L 38.03,257.96 L 40.55,252.84 L 43.1,247.82 L 45.76,242.62 L 48.41,237.38 L 50.96,232.25 L 53.45,226.95 L 55.95,221.65 L 58.21,216.44 L 60.55,211.4 L 63.09,206.31 L 65.75,201.08 Z" fill="#1a1a1a" stroke="#1a1a1a" stroke-width="0.4" stroke-linejoin="round" />
  <path d="M 64.69,201.4 L 69.91,204.45 L 75.12,207.48 L 80.32,210.51 L 85.53,213.53 L 90.73,216.53 L 95.94,219.53 L 101.15,222.53 L 106.35,225.53 L 111.53,228.53 L 116.71,231.54 L 121.87,234.54 L 127.04,237.55 L 132.22,240.55 L 137.42,243.53 L 142.62,246.52 L 147.79,249.5 L 152.94,252.5 L 158.11,255.51 L 163.29,258.53 L 168.49,261.55 L 173.7,264.57 L 178.91,267.57 L 184.09,270.55 L 189.25,273.53 L 194.41,276.52 L 199.56,279.53 L 204.7,282.54 L 209.85,285.56 L 215.01,288.56 L 220.19,291.55 L 225.39,294.55 L 230.57,297.57 L 235.73,300.59 L 240.87,303.59 L 246.01,306.58 L 251.16,309.56 L 256.34,312.53 L 261.52,315.5 L 266.71,318.48 L 271.89,321.49 L 277.07,324.51 L 277.87,323.14 L 272.69,320.11 L 267.53,317.07 L 262.39,314.02 L 257.25,310.97 L 252.1,307.95 L 246.96,304.94 L 241.83,301.95 L 236.68,298.95 L 231.51,295.96 L 226.32,292.95 L 221.14,289.93 L 215.97,286.91 L 210.82,283.9 L 205.66,280.89 L 200.51,277.89 L 195.36,274.89 L 190.2,271.89 L 185.04,268.9 L 179.85,265.92 L 174.64,262.94 L 169.41,259.95 L 164.21,256.95 L 159.02,253.94 L 153.85,250.94 L 148.69,247.94 L 143.53,244.94 L 138.35,241.92 L 133.18,238.89 L 128.02,235.86 L 122.86,232.85 L 117.7,229.83 L 112.52,226.83 L 107.32,223.84 L 102.11,220.85 L 96.89,217.87 L 91.66,214.91 L 86.42,211.97 L 81.17,209.02 L 75.92,206.08 L 70.69,203.1 L 65.47,200.07 Z" fill="#1a1a1a" stroke="#1a1a1a" stroke-width="0.4" stroke-linejoin="round" />
  <path d="M 65.63,201.24 L 69.64,196.91 L 73.67,192.61 L 77.74,188.35 L 81.83,184.12 L 85.93,179.89 L 90,175.61 L 94.04,171.28 L 98.09,166.93 L 102.19,162.59 L 106.3,158.28 L 110.35,153.96 L 114.37,149.62 L 118.43,145.29 L 122.53,140.97 L 126.61,136.6 L 130.67,132.13 L 134.7,127.63 L 138.7,123.2 L 142.65,118.78 L 146.57,114.4 L 150.52,110.05 L 154.59,105.73 L 158.72,101.38 L 162.87,96.96 L 167.03,92.59 L 171.18,88.25 L 175.31,83.91 L 174.21,82.86 L 170.07,87.18 L 165.86,91.45 L 161.62,95.76 L 157.4,100.12 L 153.25,104.47 L 149.19,108.83 L 145.25,113.21 L 141.33,117.6 L 137.38,122.02 L 133.4,126.46 L 129.37,130.96 L 125.31,135.39 L 121.21,139.73 L 117.08,144.01 L 112.99,148.33 L 108.96,152.66 L 104.91,156.97 L 100.8,161.28 L 96.7,165.64 L 92.66,170 L 88.64,174.32 L 84.56,178.57 L 80.48,182.84 L 76.46,187.15 L 72.48,191.5 L 68.52,195.87 L 64.53,200.23 Z" fill="#1a1a1a" stroke="#1a1a1a" stroke-width="0.4" stroke-linejoin="round" />
  <path d="M 22.07,289.62 L 27.94,290.43 L 33.83,291.25 L 39.75,292.06 L 45.68,292.86 L 51.61,293.67 L 57.55,294.46 L 63.51,295.25 L 69.49,296 L 75.48,296.73 L 81.47,297.45 L 87.47,298.19 L 93.45,298.98 L 99.43,299.81 L 105.38,300.67 L 111.31,301.55 L 117.23,302.45 L 123.13,303.34 L 129.03,304.21 L 134.92,305.02 L 140.82,305.77 L 146.73,306.49 L 152.64,307.21 L 158.57,307.97 L 164.5,308.78 L 170.44,309.63 L 176.38,310.51 L 182.31,311.42 L 188.25,312.32 L 194.21,313.2 L 200.19,314.03 L 206.15,314.83 L 212.1,315.63 L 218.02,316.44 L 223.93,317.26 L 229.83,318.13 L 235.75,319.03 L 241.7,319.9 L 247.67,320.72 L 253.64,321.51 L 259.58,322.27 L 265.51,323.01 L 271.43,323.76 L 277.38,324.52 L 277.56,323.14 L 271.61,322.35 L 265.69,321.57 L 259.78,320.78 L 253.85,319.96 L 247.9,319.11 L 241.95,318.21 L 236.01,317.32 L 230.08,316.44 L 224.16,315.59 L 218.25,314.77 L 212.32,313.99 L 206.37,313.2 L 200.42,312.38 L 194.45,311.52 L 188.5,310.64 L 182.56,309.74 L 176.63,308.85 L 170.68,307.97 L 164.73,307.11 L 158.79,306.29 L 152.85,305.54 L 146.93,304.84 L 141.02,304.15 L 135.13,303.41 L 129.25,302.61 L 123.37,301.75 L 117.47,300.86 L 111.56,299.95 L 105.62,299.03 L 99.67,298.13 L 93.69,297.27 L 87.69,296.46 L 81.68,295.71 L 75.69,294.99 L 69.7,294.27 L 63.73,293.54 L 57.77,292.8 L 51.82,292.04 L 45.88,291.3 L 39.95,290.57 L 34.02,289.83 L 28.13,289.06 L 22.26,288.26 Z" fill="#1a1a1a" stroke="#1a1a1a" stroke-width="0.4" stroke-linejoin="round" />
  <path d="M 22.7,289.33 L 22.89,289.07 L 21.82,288.28 L 21.62,288.54 Z" fill="#1a1a1a" stroke="#1a1a1a" stroke-width="0.4" stroke-linejoin="round" />
  <polyline points="22.36,288.68 25.9,283.85 29.47,279.04 33.03,274.27 36.6,269.57 40.16,264.9 43.73,260.21 47.31,255.48 50.89,250.72 54.45,245.94 57.99,241.16 61.52,236.38 65.03,231.59 68.54,226.8 72.04,221.99 75.54,217.16 79.05,212.32 82.57,207.49 86.1,202.7 89.64,197.96 93.17,193.25 96.69,188.54 100.18,183.8 103.67,179.04 107.16,174.26 110.65,169.49 114.17,164.72 117.71,159.98 121.24,155.24 124.77,150.51 128.29,145.78 131.79,141.04 135.28,136.28 138.79,131.5 142.31,126.72 145.85,121.94 149.44,117.16 153.06,112.38 156.7,107.59 160.3,102.81 163.86,98.05 167.4,93.29 170.92,88.54 174.44,83.81" fill="none" stroke="#1a1a1a" stroke-width="1.441" stroke-opacity="0.32" stroke-dasharray="4,3" stroke-linecap="round" stroke-linejoin="round" />
  <path d="M 174.98,84.2 L 175.29,83.78 L 174.22,82.99 L 173.91,83.41 Z" fill="#1a1a1a" stroke="#1a1a1a" stroke-width="0.4" stroke-linejoin="round" />
  <path d="M 278.09,323.55 L 275.71,318.09 L 273.37,312.62 L 271.07,307.13 L 268.8,301.64 L 266.54,296.14 L 264.28,290.65 L 262,285.15 L 259.7,279.66 L 257.35,274.16 L 254.99,268.67 L 252.64,263.19 L 250.3,257.7 L 247.95,252.21 L 245.59,246.7 L 243.25,241.2 L 240.91,235.71 L 238.56,230.24 L 236.2,224.79 L 233.83,219.34 L 231.44,213.89 L 229.07,208.45 L 226.74,203.04 L 224.43,197.64 L 222.13,192.24 L 219.81,186.83 L 217.48,181.42 L 215.14,175.99 L 212.79,170.55 L 210.45,165.11 L 208.1,159.67 L 205.77,154.21 L 203.45,148.74 L 201.13,143.26 L 198.81,137.77 L 196.49,132.28 L 194.16,126.79 L 191.83,121.29 L 189.45,115.8 L 187.05,110.32 L 184.67,104.86 L 182.34,99.41 L 180.03,93.99 L 177.71,88.56 L 175.39,83.11 L 174.12,83.65 L 176.42,89.11 L 178.68,94.55 L 180.95,100 L 183.25,105.47 L 185.57,110.96 L 187.9,116.47 L 190.23,121.97 L 192.58,127.46 L 194.92,132.94 L 197.26,138.43 L 199.6,143.91 L 201.93,149.38 L 204.26,154.85 L 206.57,160.32 L 208.89,165.78 L 211.23,171.23 L 213.59,176.66 L 215.94,182.09 L 218.27,187.5 L 220.58,192.9 L 222.88,198.3 L 225.2,203.7 L 227.56,209.12 L 229.95,214.54 L 232.35,219.99 L 234.72,225.43 L 237.09,230.88 L 239.43,236.34 L 241.76,241.84 L 244.07,247.35 L 246.38,252.87 L 248.7,258.38 L 251.04,263.87 L 253.39,269.36 L 255.75,274.85 L 258.1,280.33 L 260.43,285.81 L 262.74,291.29 L 265.03,296.77 L 267.35,302.24 L 269.69,307.72 L 272.06,313.18 L 274.45,318.64 L 276.84,324.1 Z" fill="#1a1a1a" stroke="#1a1a1a" stroke-width="0.4" stroke-linejoin="round" />
</g></g>
<g clip-path="url(#clip-0-1)"><g transform="translate(452,0)">  <rect width="430" height="380" fill="#faf9f5" />
  <path d="M 347.72,56.71 L 350.97,57.78 L 354.24,58.77 L 354.43,58.17 L 351.18,57.12 L 347.91,56.11 Z" fill="#1a1a1a" fill-opacity="0.55" stroke="#1a1a1a" stroke-width="0.4" stroke-opacity="0.55" stroke-linejoin="round" />
  <path d="M 313.63,54.84 L 317.36,56.07 L 321.08,57.33 L 324.8,58.57 L 328.53,59.79 L 332.26,61.01 L 336.01,62.23 L 339.77,63.47 L 343.53,64.72 L 347.3,65.95 L 351.06,67.19 L 351.26,66.6 L 347.5,65.33 L 343.75,64.07 L 339.98,62.82 L 336.22,61.58 L 332.48,60.35 L 328.75,59.13 L 325.02,57.91 L 321.3,56.67 L 317.56,55.44 L 313.82,54.24 Z" fill="#1a1a1a" fill-opacity="0.55" stroke="#1a1a1a" stroke-width="0.4" stroke-opacity="0.55" stroke-linejoin="round" />
  <path d="M 279.49,53.21 L 283.28,54.4 L 287.04,55.6 L 290.78,56.83 L 294.52,58.1 L 298.28,59.4 L 302.08,60.7 L 305.91,61.98 L 309.75,63.24 L 313.57,64.5 L 317.37,65.79 L 321.16,67.06 L 324.97,68.3 L 328.79,69.5 L 332.62,70.69 L 336.44,71.9 L 340.26,73.12 L 344.08,74.36 L 347.89,75.59 L 351.68,76.82 L 355.45,78.04 L 355.65,77.43 L 351.88,76.19 L 348.1,74.94 L 344.3,73.67 L 340.48,72.43 L 336.66,71.21 L 332.83,70 L 329.01,68.82 L 325.19,67.63 L 321.38,66.4 L 317.58,65.14 L 313.79,63.86 L 309.96,62.59 L 306.13,61.33 L 302.3,60.04 L 298.51,58.75 L 294.75,57.45 L 291,56.17 L 287.24,54.96 L 283.47,53.79 L 279.68,52.6 Z" fill="#1a1a1a" fill-opacity="0.55" stroke="#1a1a1a" stroke-width="0.4" stroke-opacity="0.55" stroke-linejoin="round" />
  <path d="M 245.17,51.65 L 248.85,52.79 L 252.53,53.98 L 256.21,55.2 L 259.9,56.43 L 263.59,57.64 L 267.29,58.85 L 270.97,60.07 L 274.67,61.29 L 278.39,62.5 L 282.12,63.7 L 285.87,64.87 L 289.61,66.02 L 293.34,67.19 L 297.06,68.38 L 300.76,69.6 L 304.46,70.84 L 308.16,72.08 L 311.87,73.31 L 315.58,74.51 L 319.28,75.71 L 322.97,76.9 L 326.63,78.1 L 330.28,79.29 L 333.94,80.49 L 337.61,81.7 L 341.31,82.92 L 345.05,84.12 L 348.79,85.31 L 352.54,86.49 L 356.25,87.65 L 356.44,87.05 L 352.73,85.88 L 348.99,84.7 L 345.25,83.5 L 341.52,82.28 L 337.82,81.06 L 334.15,79.84 L 330.5,78.64 L 326.84,77.44 L 323.18,76.24 L 319.5,75.04 L 315.8,73.84 L 312.09,72.63 L 308.38,71.41 L 304.68,70.17 L 300.98,68.93 L 297.27,67.71 L 293.55,66.52 L 289.82,65.35 L 286.08,64.19 L 282.34,63.02 L 278.61,61.83 L 274.89,60.62 L 271.2,59.4 L 267.51,58.18 L 263.81,56.97 L 260.12,55.76 L 256.42,54.55 L 252.74,53.35 L 249.05,52.18 L 245.36,51.04 Z" fill="#1a1a1a" fill-opacity="0.55" stroke="#1a1a1a" stroke-width="0.4" stroke-opacity="0.55" stroke-linejoin="round" />
  <path d="M 224.22,54.42 L 227.99,55.66 L 231.77,56.9 L 235.54,58.12 L 239.31,59.34 L 243.08,60.56 L 246.86,61.79 L 250.67,63.01 L 254.48,64.22 L 258.26,65.41 L 262.03,66.6 L 265.78,67.82 L 269.53,69.05 L 273.28,70.29 L 277.02,71.52 L 280.76,72.75 L 284.5,73.98 L 288.26,75.24 L 292.04,76.51 L 295.83,77.76 L 299.62,78.97 L 303.4,80.15 L 307.17,81.31 L 310.92,82.46 L 314.69,83.63 L 318.45,84.83 L 322.23,86.04 L 326.01,87.28 L 329.79,88.52 L 333.59,89.77 L 337.39,91.02 L 341.2,92.27 L 345,93.53 L 348.81,94.78 L 352.63,96.03 L 352.83,95.44 L 349.01,94.18 L 345.2,92.92 L 341.4,91.65 L 337.6,90.39 L 333.8,89.13 L 330,87.88 L 326.22,86.63 L 322.44,85.4 L 318.66,84.18 L 314.89,82.99 L 311.13,81.82 L 307.37,80.66 L 303.61,79.5 L 299.83,78.31 L 296.05,77.08 L 292.27,75.83 L 288.48,74.56 L 284.72,73.31 L 280.98,72.07 L 277.25,70.84 L 273.5,69.61 L 269.75,68.38 L 266,67.14 L 262.25,65.93 L 258.48,64.73 L 254.69,63.55 L 250.88,62.34 L 247.08,61.13 L 243.29,59.91 L 239.51,58.7 L 235.74,57.5 L 231.97,56.29 L 228.19,55.06 L 224.42,53.83 Z" fill="#1a1a1a" fill-opacity="0.55" stroke="#1a1a1a" stroke-width="0.4" stroke-opacity="0.55" stroke-linejoin="round" />
  <path d="M 218.5,61.97 L 222.36,63.19 L 226.21,64.39 L 230.06,65.59 L 233.87,66.8 L 237.68,68.03 L 241.48,69.28 L 245.28,70.53 L 249.08,71.79 L 252.87,73.05 L 256.65,74.31 L 260.43,75.59 L 264.22,76.87 L 268.01,78.14 L 271.8,79.38 L 275.6,80.63 L 279.39,81.86 L 283.18,83.09 L 286.97,84.3 L 290.77,85.5 L 294.56,86.69 L 298.36,87.87 L 302.16,89.07 L 305.96,90.29 L 309.76,91.51 L 313.55,92.73 L 317.35,93.95 L 321.14,95.18 L 324.94,96.42 L 328.74,97.68 L 332.54,98.94 L 336.34,100.2 L 340.15,101.45 L 343.95,102.69 L 347.76,103.92 L 351.57,105.15 L 355.37,106.37 L 355.57,105.76 L 351.76,104.54 L 347.96,103.3 L 344.16,102.05 L 340.36,100.8 L 336.56,99.55 L 332.76,98.29 L 328.95,97.03 L 325.15,95.78 L 321.35,94.54 L 317.55,93.31 L 313.76,92.08 L 309.97,90.86 L 306.17,89.64 L 302.37,88.42 L 298.57,87.22 L 294.77,86.04 L 290.97,84.85 L 287.18,83.65 L 283.39,82.44 L 279.6,81.22 L 275.81,79.99 L 272.01,78.75 L 268.22,77.49 L 264.43,76.22 L 260.65,74.94 L 256.88,73.66 L 253.09,72.39 L 249.3,71.13 L 245.5,69.87 L 241.7,68.61 L 237.89,67.37 L 234.08,66.16 L 230.25,64.97 L 226.4,63.78 L 222.54,62.59 L 218.69,61.37 Z" fill="#1a1a1a" fill-opacity="0.55" stroke="#1a1a1a" stroke-width="0.4" stroke-opacity="0.55" stroke-linejoin="round" />
  <path d="M 213.08,69.74 L 216.76,70.96 L 220.42,72.16 L 224.08,73.37 L 227.76,74.57 L 231.47,75.74 L 235.19,76.9 L 238.93,78.05 L 242.67,79.21 L 246.41,80.36 L 250.16,81.52 L 253.91,82.69 L 257.65,83.88 L 261.38,85.09 L 265.1,86.32 L 268.81,87.55 L 272.52,88.76 L 276.23,89.97 L 279.95,91.15 L 283.67,92.34 L 287.36,93.53 L 291.06,94.72 L 294.77,95.92 L 298.48,97.13 L 302.2,98.36 L 305.92,99.6 L 309.64,100.85 L 313.37,102.1 L 317.1,103.35 L 320.83,104.6 L 324.53,105.83 L 328.23,107.06 L 331.92,108.29 L 335.6,109.51 L 339.29,110.73 L 343,111.95 L 346.73,113.16 L 350.47,114.37 L 354.22,115.57 L 354.41,114.98 L 350.66,113.77 L 346.93,112.56 L 343.2,111.34 L 339.5,110.11 L 335.81,108.88 L 332.13,107.65 L 328.45,106.42 L 324.75,105.18 L 321.05,103.93 L 317.33,102.68 L 313.6,101.42 L 309.87,100.16 L 306.15,98.92 L 302.42,97.68 L 298.7,96.46 L 294.98,95.25 L 291.28,94.06 L 287.58,92.87 L 283.88,91.68 L 280.16,90.5 L 276.44,89.31 L 272.73,88.1 L 269.03,86.88 L 265.32,85.66 L 261.6,84.43 L 257.87,83.21 L 254.12,82.02 L 250.37,80.84 L 246.62,79.68 L 242.88,78.53 L 239.14,77.38 L 235.4,76.23 L 231.67,75.08 L 227.97,73.93 L 224.28,72.75 L 220.62,71.55 L 216.95,70.35 L 213.28,69.14 Z" fill="#1a1a1a" fill-opacity="0.55" stroke="#1a1a1a" stroke-width="0.4" stroke-opacity="0.55" stroke-linejoin="round" />
  <path d="M 207.2,77.1 L 210.91,78.3 L 214.64,79.52 L 218.4,80.74 L 222.17,81.97 L 225.94,83.21 L 229.71,84.44 L 233.45,85.67 L 237.18,86.9 L 240.9,88.13 L 244.62,89.37 L 248.35,90.6 L 252.09,91.83 L 255.83,93.06 L 259.57,94.28 L 263.32,95.49 L 267.06,96.7 L 270.81,97.89 L 274.57,99.07 L 278.34,100.26 L 282.12,101.45 L 285.9,102.65 L 289.68,103.85 L 293.45,105.06 L 297.21,106.28 L 300.96,107.5 L 304.7,108.72 L 308.44,109.94 L 312.18,111.17 L 315.91,112.4 L 319.65,113.63 L 323.38,114.87 L 327.12,116.11 L 330.85,117.34 L 334.58,118.58 L 338.31,119.8 L 342.03,121.03 L 345.75,122.25 L 349.46,123.47 L 349.66,122.86 L 345.95,121.64 L 342.23,120.41 L 338.51,119.17 L 334.79,117.93 L 331.07,116.69 L 327.34,115.44 L 323.6,114.2 L 319.87,112.96 L 316.13,111.74 L 312.39,110.51 L 308.65,109.3 L 304.91,108.08 L 301.17,106.86 L 297.42,105.63 L 293.66,104.42 L 289.89,103.2 L 286.11,102 L 282.33,100.79 L 278.55,99.6 L 274.78,98.41 L 271.03,97.22 L 267.28,96.03 L 263.53,94.82 L 259.79,93.61 L 256.05,92.39 L 252.3,91.17 L 248.56,89.95 L 244.83,88.71 L 241.11,87.48 L 237.39,86.26 L 233.66,85.03 L 229.92,83.8 L 226.15,82.57 L 222.37,81.34 L 218.6,80.12 L 214.84,78.91 L 211.11,77.7 L 207.4,76.5 Z" fill="#1a1a1a" fill-opacity="0.55" stroke="#1a1a1a" stroke-width="0.4" stroke-opacity="0.55" stroke-linejoin="round" />
  <path d="M 201.93,84.63 L 205.68,85.89 L 209.42,87.17 L 213.16,88.43 L 216.87,89.69 L 220.6,90.95 L 224.33,92.22 L 228.07,93.48 L 231.82,94.75 L 235.57,96.01 L 239.33,97.25 L 243.09,98.48 L 246.85,99.7 L 250.6,100.9 L 254.36,102.1 L 258.13,103.28 L 261.91,104.46 L 265.69,105.64 L 269.47,106.82 L 273.25,108.01 L 277.03,109.21 L 280.81,110.42 L 284.59,111.63 L 288.36,112.83 L 292.12,114.04 L 295.89,115.23 L 299.66,116.43 L 303.42,117.63 L 307.19,118.84 L 310.95,120.07 L 314.71,121.31 L 318.47,122.56 L 322.23,123.83 L 325.99,125.1 L 329.75,126.36 L 333.51,127.62 L 337.27,128.87 L 341.02,130.1 L 344.76,131.33 L 348.48,132.55 L 352.2,133.77 L 352.39,133.17 L 348.68,131.95 L 344.96,130.72 L 341.23,129.48 L 337.48,128.22 L 333.73,126.96 L 329.97,125.69 L 326.21,124.43 L 322.45,123.16 L 318.69,121.9 L 314.93,120.65 L 311.17,119.41 L 307.4,118.19 L 303.63,116.97 L 299.87,115.77 L 296.1,114.58 L 292.33,113.38 L 288.57,112.18 L 284.8,110.97 L 281.02,109.75 L 277.24,108.54 L 273.46,107.34 L 269.68,106.15 L 265.9,104.97 L 262.12,103.8 L 258.34,102.62 L 254.57,101.44 L 250.81,100.25 L 247.06,99.04 L 243.3,97.83 L 239.55,96.6 L 235.79,95.35 L 232.04,94.1 L 228.29,92.83 L 224.55,91.57 L 220.81,90.31 L 217.09,89.06 L 213.36,87.81 L 209.63,86.56 L 205.89,85.29 L 202.13,84.03 Z" fill="#1a1a1a" fill-opacity="0.55" stroke="#1a1a1a" stroke-width="0.4" stroke-opacity="0.55" stroke-linejoin="round" />
  <path d="M 199.92,93.71 L 203.7,94.93 L 207.49,96.15 L 211.29,97.37 L 215.09,98.58 L 218.9,99.79 L 222.7,101.01 L 226.5,102.22 L 230.3,103.44 L 234.08,104.66 L 237.85,105.87 L 241.61,107.08 L 245.36,108.31 L 249.13,109.54 L 252.9,110.78 L 256.67,112.03 L 260.45,113.27 L 264.22,114.51 L 267.99,115.73 L 271.74,116.95 L 275.49,118.17 L 279.24,119.4 L 282.99,120.64 L 286.75,121.89 L 290.51,123.14 L 294.28,124.39 L 298.06,125.63 L 301.83,126.86 L 305.61,128.1 L 309.39,129.34 L 313.17,130.57 L 316.96,131.79 L 320.74,133.01 L 324.54,134.22 L 328.34,135.43 L 332.16,136.62 L 335.97,137.8 L 339.78,138.98 L 343.59,140.16 L 347.39,141.34 L 351.18,142.55 L 351.37,141.94 L 347.58,140.73 L 343.79,139.53 L 339.98,138.34 L 336.17,137.15 L 332.36,135.96 L 328.55,134.77 L 324.75,133.56 L 320.96,132.34 L 317.17,131.12 L 313.39,129.89 L 309.61,128.66 L 305.83,127.43 L 302.05,126.19 L 298.28,124.95 L 294.51,123.71 L 290.74,122.46 L 286.98,121.21 L 283.22,119.97 L 279.46,118.73 L 275.71,117.51 L 271.96,116.29 L 268.2,115.08 L 264.43,113.86 L 260.66,112.62 L 256.89,111.38 L 253.11,110.13 L 249.34,108.89 L 245.58,107.65 L 241.82,106.43 L 238.06,105.22 L 234.29,104 L 230.51,102.79 L 226.71,101.57 L 222.91,100.36 L 219.1,99.15 L 215.29,97.94 L 211.49,96.74 L 207.69,95.53 L 203.9,94.32 L 200.12,93.1 Z" fill="#1a1a1a" fill-opacity="0.55" stroke="#1a1a1a" stroke-width="0.4" stroke-opacity="0.55" stroke-linejoin="round" />
  <path d="M 199.95,103.43 L 203.73,104.63 L 207.5,105.83 L 211.28,107.02 L 215.05,108.22 L 218.82,109.41 L 222.58,110.6 L 226.33,111.79 L 230.07,112.99 L 233.8,114.2 L 237.52,115.42 L 241.24,116.64 L 244.97,117.87 L 248.71,119.1 L 252.45,120.34 L 256.2,121.57 L 259.94,122.81 L 263.69,124.04 L 267.44,125.26 L 271.19,126.47 L 274.94,127.68 L 278.69,128.89 L 282.45,130.09 L 286.21,131.3 L 289.97,132.52 L 293.73,133.73 L 297.49,134.96 L 301.26,136.18 L 305.03,137.41 L 308.8,138.62 L 312.58,139.84 L 316.36,141.05 L 320.14,142.26 L 323.91,143.46 L 327.68,144.67 L 331.44,145.88 L 335.18,147.09 L 338.92,148.29 L 342.65,149.48 L 346.38,150.68 L 350.12,151.89 L 350.32,151.28 L 346.58,150.07 L 342.85,148.87 L 339.12,147.66 L 335.39,146.45 L 331.64,145.24 L 327.89,144.02 L 324.12,142.8 L 320.35,141.59 L 316.57,140.37 L 312.79,139.16 L 309.02,137.94 L 305.25,136.72 L 301.48,135.5 L 297.71,134.27 L 293.95,133.05 L 290.19,131.83 L 286.43,130.62 L 282.67,129.41 L 278.91,128.21 L 275.16,127 L 271.41,125.79 L 267.66,124.58 L 263.91,123.36 L 260.16,122.13 L 256.42,120.9 L 252.67,119.67 L 248.93,118.44 L 245.19,117.2 L 241.46,115.97 L 237.74,114.76 L 234.01,113.54 L 230.28,112.33 L 226.54,111.13 L 222.79,109.93 L 219.02,108.75 L 215.25,107.57 L 211.48,106.39 L 207.7,105.2 L 203.92,104.01 L 200.15,102.81 Z" fill="#1a1a1a" fill-opacity="0.55" stroke="#1a1a1a" stroke-width="0.4" stroke-opacity="0.55" stroke-linejoin="round" />
  <path d="M 200.27,112.87 L 204,114.09 L 207.74,115.31 L 211.46,116.51 L 215.19,117.72 L 218.9,118.91 L 222.61,120.1 L 226.32,121.29 L 230.02,122.47 L 233.72,123.65 L 237.4,124.84 L 241.09,126.04 L 244.78,127.25 L 248.48,128.47 L 252.19,129.7 L 255.91,130.91 L 259.63,132.13 L 263.36,133.34 L 267.1,134.54 L 270.84,135.74 L 274.59,136.95 L 278.34,138.17 L 282.09,139.4 L 285.85,140.63 L 289.61,141.86 L 293.36,143.09 L 297.1,144.3 L 300.83,145.51 L 304.54,146.7 L 308.25,147.9 L 311.95,149.1 L 315.64,150.3 L 319.35,151.51 L 323.06,152.71 L 326.77,153.91 L 330.49,155.11 L 334.21,156.3 L 337.91,157.49 L 341.61,158.69 L 345.31,159.88 L 349.01,161.09 L 349.21,160.49 L 345.51,159.28 L 341.81,158.07 L 338.11,156.87 L 334.41,155.67 L 330.7,154.46 L 326.98,153.26 L 323.27,152.05 L 319.56,150.84 L 315.86,149.64 L 312.16,148.43 L 308.47,147.23 L 304.76,146.03 L 301.04,144.83 L 297.32,143.63 L 293.57,142.41 L 289.83,141.19 L 286.07,139.96 L 282.31,138.73 L 278.56,137.5 L 274.81,136.28 L 271.06,135.07 L 267.32,133.86 L 263.58,132.66 L 259.85,131.45 L 256.12,130.25 L 252.4,129.04 L 248.69,127.82 L 244.99,126.6 L 241.3,125.39 L 237.62,124.19 L 233.93,123.01 L 230.23,121.82 L 226.53,120.63 L 222.82,119.45 L 219.11,118.26 L 215.39,117.08 L 211.67,115.89 L 207.94,114.69 L 204.2,113.48 L 200.46,112.27 Z" fill="#1a1a1a" fill-opacity="0.55" stroke="#1a1a1a" stroke-width="0.4" stroke-opacity="0.55" stroke-linejoin="round" />
  <path d="M 200.29,122 L 204.09,123.22 L 207.89,124.44 L 211.69,125.67 L 215.46,126.91 L 219.24,128.16 L 223.01,129.41 L 226.77,130.67 L 230.54,131.93 L 234.32,133.2 L 238.1,134.47 L 241.88,135.73 L 245.66,136.99 L 249.44,138.25 L 253.22,139.5 L 257,140.74 L 260.78,141.97 L 264.56,143.2 L 268.34,144.41 L 272.13,145.62 L 275.92,146.83 L 279.71,148.03 L 283.5,149.23 L 287.3,150.43 L 291.1,151.63 L 294.9,152.84 L 298.7,154.05 L 302.49,155.26 L 306.27,156.48 L 310.06,157.7 L 313.85,158.93 L 317.64,160.16 L 321.43,161.4 L 325.21,162.65 L 328.99,163.89 L 332.76,165.14 L 336.54,166.39 L 340.33,167.65 L 344.12,168.9 L 347.91,170.16 L 348.11,169.57 L 344.31,168.31 L 340.53,167.04 L 336.74,165.78 L 332.97,164.52 L 329.2,163.26 L 325.42,162 L 321.64,160.75 L 317.85,159.51 L 314.06,158.27 L 310.27,157.03 L 306.49,155.81 L 302.7,154.59 L 298.91,153.37 L 295.12,152.16 L 291.32,150.95 L 287.52,149.75 L 283.72,148.55 L 279.92,147.35 L 276.13,146.15 L 272.35,144.94 L 268.56,143.73 L 264.78,142.52 L 261,141.3 L 257.22,140.07 L 253.44,138.83 L 249.66,137.58 L 245.88,136.32 L 242.11,135.06 L 238.33,133.79 L 234.55,132.53 L 230.77,131.26 L 227,130 L 223.23,128.74 L 219.45,127.5 L 215.68,126.26 L 211.89,125.03 L 208.09,123.81 L 204.29,122.61 L 200.48,121.4 Z" fill="#1a1a1a" fill-opacity="0.55" stroke="#1a1a1a" stroke-width="0.4" stroke-opacity="0.55" stroke-linejoin="round" />
  <path d="M 200.45,131.81 L 204.19,133.01 L 207.92,134.22 L 211.66,135.44 L 215.4,136.66 L 219.14,137.87 L 222.89,139.08 L 226.65,140.28 L 230.42,141.48 L 234.19,142.68 L 237.98,143.9 L 241.76,145.12 L 245.55,146.36 L 249.33,147.6 L 253.1,148.85 L 256.87,150.09 L 260.63,151.31 L 264.38,152.52 L 268.13,153.73 L 271.88,154.94 L 275.63,156.16 L 279.37,157.4 L 283.11,158.65 L 286.85,159.9 L 290.6,161.15 L 294.34,162.38 L 298.1,163.6 L 301.86,164.81 L 305.63,166.03 L 309.41,167.24 L 313.2,168.45 L 316.98,169.67 L 320.76,170.88 L 324.54,172.08 L 328.32,173.28 L 332.1,174.49 L 335.88,175.7 L 339.65,176.92 L 343.4,178.13 L 343.6,177.53 L 339.84,176.3 L 336.08,175.08 L 332.31,173.85 L 328.53,172.63 L 324.76,171.41 L 320.98,170.2 L 317.2,168.99 L 313.41,167.79 L 309.62,166.58 L 305.84,165.37 L 302.07,164.16 L 298.3,162.95 L 294.55,161.74 L 290.81,160.51 L 287.07,159.26 L 283.33,158.01 L 279.59,156.76 L 275.84,155.52 L 272.09,154.29 L 268.34,153.08 L 264.59,151.87 L 260.84,150.66 L 257.08,149.43 L 253.32,148.2 L 249.55,146.95 L 245.77,145.7 L 241.98,144.45 L 238.19,143.22 L 234.41,142.01 L 230.63,140.81 L 226.86,139.61 L 223.1,138.41 L 219.35,137.22 L 215.61,136.02 L 211.86,134.82 L 208.12,133.61 L 204.38,132.41 L 200.64,131.21 Z" fill="#1a1a1a" fill-opacity="0.55" stroke="#1a1a1a" stroke-width="0.4" stroke-opacity="0.55" stroke-linejoin="round" />
  <path d="M 200.41,141.13 L 204.15,142.37 L 207.9,143.62 L 211.66,144.88 L 215.42,146.13 L 219.19,147.37 L 222.95,148.58 L 226.71,149.77 L 230.45,150.96 L 234.18,152.15 L 237.9,153.36 L 241.62,154.59 L 245.34,155.83 L 249.07,157.06 L 252.82,158.28 L 256.57,159.49 L 260.32,160.7 L 264.06,161.91 L 267.78,163.12 L 271.5,164.33 L 275.2,165.52 L 278.89,166.7 L 282.58,167.87 L 286.27,169.03 L 289.97,170.2 L 293.69,171.38 L 297.41,172.58 L 301.13,173.8 L 304.85,175.02 L 308.58,176.25 L 312.32,177.47 L 316.06,178.68 L 319.81,179.89 L 323.57,181.09 L 327.32,182.3 L 331.07,183.51 L 334.82,184.74 L 338.57,185.97 L 342.31,187.19 L 346.04,188.41 L 346.23,187.81 L 342.51,186.59 L 338.77,185.35 L 335.03,184.11 L 331.29,182.86 L 327.54,181.63 L 323.78,180.42 L 320.03,179.22 L 316.28,178.02 L 312.53,176.81 L 308.79,175.59 L 305.07,174.37 L 301.34,173.15 L 297.62,171.93 L 293.9,170.73 L 290.18,169.54 L 286.48,168.37 L 282.79,167.2 L 279.1,166.03 L 275.41,164.84 L 271.72,163.65 L 268,162.44 L 264.28,161.23 L 260.54,160.02 L 256.79,158.82 L 253.04,157.61 L 249.29,156.39 L 245.56,155.17 L 241.83,153.94 L 238.11,152.71 L 234.39,151.5 L 230.65,150.31 L 226.91,149.13 L 223.15,147.94 L 219.39,146.74 L 215.62,145.51 L 211.86,144.27 L 208.1,143.02 L 204.35,141.77 L 200.6,140.54 Z" fill="#1a1a1a" fill-opacity="0.55" stroke="#1a1a1a" stroke-width="0.4" stroke-opacity="0.55" stroke-linejoin="round" />
  <path d="M 204.48,151.76 L 208.25,153 L 212.02,154.23 L 215.79,155.47 L 219.56,156.72 L 223.33,157.98 L 227.11,159.25 L 230.88,160.51 L 234.66,161.78 L 238.45,163.03 L 242.23,164.29 L 246.01,165.56 L 249.8,166.82 L 253.6,168.08 L 257.42,169.32 L 261.24,170.54 L 265.06,171.76 L 268.88,172.97 L 272.69,174.18 L 276.49,175.39 L 280.3,176.6 L 284.12,177.82 L 287.94,179.03 L 291.76,180.25 L 295.57,181.47 L 299.38,182.69 L 303.19,183.93 L 306.98,185.16 L 310.76,186.4 L 314.54,187.63 L 318.32,188.86 L 322.1,190.08 L 325.88,191.31 L 329.68,192.54 L 333.48,193.79 L 337.29,195.04 L 341.11,196.31 L 341.31,195.71 L 337.49,194.44 L 333.68,193.17 L 329.88,191.91 L 326.1,190.66 L 322.32,189.42 L 318.54,188.19 L 314.76,186.96 L 310.98,185.72 L 307.2,184.48 L 303.41,183.24 L 299.6,182.01 L 295.79,180.79 L 291.97,179.57 L 288.15,178.36 L 284.33,177.15 L 280.52,175.94 L 276.7,174.73 L 272.9,173.52 L 269.09,172.31 L 265.27,171.1 L 261.45,169.88 L 257.64,168.65 L 253.82,167.4 L 250.03,166.15 L 246.24,164.88 L 242.46,163.61 L 238.67,162.35 L 234.89,161.09 L 231.11,159.83 L 227.33,158.57 L 223.55,157.32 L 219.77,156.08 L 215.99,154.85 L 212.21,153.63 L 208.44,152.4 L 204.67,151.17 Z" fill="#1a1a1a" fill-opacity="0.55" stroke="#1a1a1a" stroke-width="0.4" stroke-opacity="0.55" stroke-linejoin="round" />
  <path d="M 208.47,162.7 L 212.26,163.95 L 216.05,165.2 L 219.84,166.43 L 223.61,167.65 L 227.38,168.84 L 231.13,170.02 L 234.86,171.21 L 238.59,172.41 L 242.32,173.63 L 246.07,174.85 L 249.84,176.08 L 253.6,177.3 L 257.37,178.53 L 261.12,179.77 L 264.87,181.01 L 268.62,182.26 L 272.37,183.5 L 276.12,184.73 L 279.89,185.97 L 283.67,187.22 L 287.45,188.47 L 291.24,189.72 L 295.03,190.98 L 298.81,192.21 L 302.57,193.42 L 306.33,194.62 L 310.06,195.82 L 313.78,197.03 L 317.49,198.25 L 321.2,199.47 L 324.91,200.69 L 328.64,201.91 L 332.39,203.12 L 336.15,204.34 L 339.92,205.55 L 343.7,206.77 L 343.9,206.18 L 340.12,204.95 L 336.35,203.73 L 332.59,202.5 L 328.85,201.27 L 325.13,200.04 L 321.42,198.8 L 317.71,197.57 L 314,196.36 L 310.28,195.15 L 306.54,193.95 L 302.79,192.74 L 299.03,191.52 L 295.26,190.29 L 291.47,189.03 L 287.68,187.78 L 283.89,186.54 L 280.11,185.3 L 276.34,184.07 L 272.59,182.83 L 268.84,181.6 L 265.09,180.36 L 261.34,179.12 L 257.58,177.89 L 253.81,176.66 L 250.05,175.43 L 246.28,174.21 L 242.54,172.98 L 238.8,171.76 L 235.07,170.55 L 231.33,169.37 L 227.58,168.19 L 223.82,167 L 220.04,165.81 L 216.25,164.59 L 212.46,163.35 L 208.67,162.1 Z" fill="#1a1a1a" fill-opacity="0.55" stroke="#1a1a1a" stroke-width="0.4" stroke-opacity="0.55" stroke-linejoin="round" />
  <path d="M 215.89,174.55 L 219.64,175.76 L 223.37,176.97 L 227.11,178.18 L 230.83,179.4 L 234.56,180.61 L 238.28,181.81 L 242.01,183.02 L 245.74,184.24 L 249.46,185.47 L 253.18,186.71 L 256.9,187.94 L 260.62,189.17 L 264.35,190.38 L 268.07,191.58 L 271.8,192.77 L 275.53,193.95 L 279.26,195.14 L 282.99,196.32 L 286.71,197.52 L 290.42,198.73 L 294.14,199.94 L 297.87,201.17 L 301.6,202.4 L 305.34,203.63 L 309.09,204.87 L 312.83,206.13 L 316.56,207.38 L 320.27,208.63 L 323.99,209.87 L 327.7,211.09 L 331.43,212.3 L 335.17,213.5 L 338.94,214.69 L 342.71,215.89 L 342.9,215.28 L 339.13,214.08 L 335.38,212.87 L 331.64,211.66 L 327.92,210.43 L 324.21,209.2 L 320.5,207.96 L 316.78,206.71 L 313.05,205.46 L 309.31,204.2 L 305.56,202.96 L 301.82,201.72 L 298.09,200.49 L 294.36,199.27 L 290.64,198.05 L 286.92,196.85 L 283.2,195.65 L 279.48,194.47 L 275.74,193.29 L 272.01,192.11 L 268.28,190.92 L 264.56,189.73 L 260.84,188.51 L 257.12,187.29 L 253.4,186.06 L 249.68,184.82 L 245.95,183.59 L 242.22,182.37 L 238.5,181.15 L 234.77,179.95 L 231.04,178.75 L 227.31,177.54 L 223.58,176.34 L 219.84,175.14 L 216.09,173.95 Z" fill="#1a1a1a" fill-opacity="0.55" stroke="#1a1a1a" stroke-width="0.4" stroke-opacity="0.55" stroke-linejoin="round" />
  <path d="M 219.93,185.41 L 223.73,186.65 L 227.52,187.88 L 231.3,189.13 L 235.08,190.37 L 238.87,191.62 L 242.66,192.86 L 246.46,194.09 L 250.28,195.33 L 254.09,196.56 L 257.91,197.81 L 261.72,199.05 L 265.52,200.29 L 269.32,201.53 L 273.12,202.77 L 276.92,204.01 L 280.73,205.25 L 284.54,206.5 L 288.35,207.75 L 292.16,209 L 295.96,210.24 L 299.76,211.48 L 303.57,212.71 L 307.38,213.94 L 311.21,215.16 L 315.04,216.37 L 318.87,217.59 L 322.7,218.81 L 326.53,220.01 L 330.36,221.2 L 334.19,222.4 L 338,223.6 L 341.81,224.8 L 342,224.2 L 338.19,222.99 L 334.38,221.78 L 330.56,220.57 L 326.74,219.36 L 322.91,218.15 L 319.08,216.93 L 315.25,215.71 L 311.42,214.49 L 307.59,213.27 L 303.78,212.04 L 299.98,210.81 L 296.18,209.57 L 292.38,208.32 L 288.57,207.08 L 284.76,205.83 L 280.95,204.58 L 277.14,203.33 L 273.34,202.09 L 269.54,200.86 L 265.74,199.62 L 261.94,198.37 L 258.13,197.13 L 254.32,195.88 L 250.5,194.64 L 246.68,193.41 L 242.88,192.18 L 239.09,190.94 L 235.3,189.72 L 231.51,188.49 L 227.72,187.27 L 223.92,186.05 L 220.12,184.82 Z" fill="#1a1a1a" fill-opacity="0.55" stroke="#1a1a1a" stroke-width="0.4" stroke-opacity="0.55" stroke-linejoin="round" />
  <path d="M 223.76,196.02 L 227.5,197.22 L 231.23,198.43 L 234.96,199.65 L 238.7,200.89 L 242.44,202.13 L 246.18,203.38 L 249.93,204.63 L 253.68,205.86 L 257.42,207.09 L 261.16,208.3 L 264.91,209.5 L 268.65,210.69 L 272.39,211.89 L 276.12,213.09 L 279.83,214.31 L 283.53,215.53 L 287.21,216.73 L 290.89,217.93 L 294.59,219.12 L 298.29,220.3 L 302.02,221.49 L 305.77,222.69 L 309.53,223.9 L 313.3,225.11 L 317.06,226.34 L 320.83,227.58 L 324.58,228.82 L 328.32,230.07 L 332.06,231.31 L 335.8,232.56 L 336,231.95 L 332.27,230.7 L 328.53,229.44 L 324.8,228.17 L 321.05,226.92 L 317.28,225.67 L 313.52,224.44 L 309.75,223.22 L 305.99,222.02 L 302.24,220.82 L 298.51,219.62 L 294.8,218.44 L 291.11,217.25 L 287.43,216.06 L 283.75,214.85 L 280.05,213.64 L 276.33,212.43 L 272.6,211.23 L 268.86,210.03 L 265.12,208.83 L 261.37,207.64 L 257.63,206.43 L 253.89,205.21 L 250.15,203.98 L 246.4,202.73 L 242.65,201.49 L 238.91,200.25 L 235.17,199.03 L 231.43,197.82 L 227.69,196.62 L 223.95,195.42 Z" fill="#1a1a1a" fill-opacity="0.55" stroke="#1a1a1a" stroke-width="0.4" stroke-opacity="0.55" stroke-linejoin="round" />
  <path d="M 227.14,206.66 L 230.85,207.87 L 234.58,209.1 L 238.3,210.32 L 242.02,211.54 L 245.73,212.75 L 249.44,213.97 L 253.15,215.19 L 256.86,216.41 L 260.57,217.63 L 264.27,218.83 L 267.96,220.01 L 271.65,221.18 L 275.33,222.33 L 279.01,223.47 L 282.69,224.61 L 286.38,225.74 L 290.08,226.88 L 293.77,228.05 L 293.96,227.45 L 290.27,226.26 L 286.59,225.08 L 282.9,223.92 L 279.22,222.78 L 275.54,221.65 L 271.86,220.5 L 268.17,219.35 L 264.48,218.17 L 260.78,216.97 L 257.08,215.76 L 253.36,214.54 L 249.65,213.32 L 245.94,212.1 L 242.23,210.89 L 238.51,209.67 L 234.78,208.47 L 231.05,207.27 L 227.33,206.06 Z" fill="#1a1a1a" fill-opacity="0.55" stroke="#1a1a1a" stroke-width="0.4" stroke-opacity="0.55" stroke-linejoin="round" />
  <path d="M 233.83,218.09 L 237.45,219.31 L 241.07,220.53 L 244.68,221.75 L 248.29,222.97 L 251.9,224.16 L 252.1,223.56 L 248.51,222.32 L 244.9,221.11 L 241.28,219.89 L 237.66,218.68 L 234.02,217.5 Z" fill="#1a1a1a" fill-opacity="0.55" stroke="#1a1a1a" stroke-width="0.4" stroke-opacity="0.55" stroke-linejoin="round" />
  <path d="M 173.21,85.13 L 174.08,85.42 L 174.28,84.82 L 173.41,84.53 Z" fill="#1a1a1a" fill-opacity="0.55" stroke="#1a1a1a" stroke-width="0.4" stroke-opacity="0.55" stroke-linejoin="round" />
  <path d="M 166.44,92.45 L 169.77,93.55 L 173.09,94.61 L 176.42,95.63 L 176.61,95.03 L 173.31,93.94 L 169.98,92.87 L 166.63,91.85 Z" fill="#1a1a1a" fill-opacity="0.55" stroke="#1a1a1a" stroke-width="0.4" stroke-opacity="0.55" stroke-linejoin="round" />
  <path d="M 159.51,99.35 L 163.03,100.52 L 166.56,101.67 L 170.09,102.82 L 173.63,103.97 L 177.16,105.11 L 180.69,106.24 L 180.88,105.64 L 177.37,104.46 L 173.84,103.32 L 170.3,102.18 L 166.77,101.03 L 163.24,99.88 L 159.71,98.76 Z" fill="#1a1a1a" fill-opacity="0.55" stroke="#1a1a1a" stroke-width="0.4" stroke-opacity="0.55" stroke-linejoin="round" />
  <path d="M 152.79,106.68 L 156.4,107.86 L 160.04,109.04 L 163.68,110.21 L 167.33,111.38 L 170.98,112.56 L 174.62,113.75 L 178.26,114.96 L 181.9,116.17 L 185.54,117.38 L 185.74,116.78 L 182.11,115.54 L 178.48,114.31 L 174.83,113.1 L 171.19,111.91 L 167.54,110.73 L 163.89,109.55 L 160.25,108.38 L 156.61,107.22 L 152.98,106.09 Z" fill="#1a1a1a" fill-opacity="0.55" stroke="#1a1a1a" stroke-width="0.4" stroke-opacity="0.55" stroke-linejoin="round" />
  <path d="M 146.22,114.24 L 149.88,115.43 L 153.54,116.61 L 157.2,117.78 L 160.86,118.95 L 164.51,120.12 L 168.17,121.3 L 171.85,122.48 L 175.52,123.68 L 179.19,124.89 L 182.84,126.12 L 186.49,127.32 L 190.15,128.5 L 190.34,127.9 L 186.7,126.7 L 183.06,125.46 L 179.41,124.24 L 175.73,123.03 L 172.05,121.83 L 168.38,120.65 L 164.72,119.47 L 161.06,118.3 L 157.41,117.13 L 153.75,115.96 L 150.08,114.8 L 146.41,113.64 Z" fill="#1a1a1a" fill-opacity="0.55" stroke="#1a1a1a" stroke-width="0.4" stroke-opacity="0.55" stroke-linejoin="round" />
  <path d="M 139.33,121.46 L 143.02,122.67 L 146.7,123.89 L 150.37,125.09 L 154.04,126.29 L 157.73,127.49 L 161.45,128.7 L 165.19,129.91 L 168.93,131.13 L 172.66,132.35 L 176.38,133.55 L 180.1,134.72 L 183.82,135.85 L 187.55,136.97 L 191.27,138.09 L 194.99,139.26 L 195.18,138.66 L 191.47,137.47 L 187.75,136.31 L 184.03,135.18 L 180.31,134.04 L 176.6,132.87 L 172.88,131.67 L 169.15,130.45 L 165.41,129.24 L 161.67,128.02 L 157.95,126.82 L 154.26,125.61 L 150.59,124.42 L 146.92,123.23 L 143.23,122.05 L 139.53,120.86 Z" fill="#1a1a1a" fill-opacity="0.55" stroke="#1a1a1a" stroke-width="0.4" stroke-opacity="0.55" stroke-linejoin="round" />
  <path d="M 132.64,128.82 L 136.35,130.05 L 140.06,131.28 L 143.76,132.5 L 147.47,133.7 L 151.17,134.89 L 154.87,136.06 L 158.58,137.24 L 162.29,138.4 L 165.99,139.57 L 169.68,140.74 L 173.38,141.91 L 177.1,143.1 L 180.83,144.29 L 184.57,145.48 L 188.34,146.68 L 192.12,147.89 L 195.92,149.1 L 199.71,150.31 L 203.47,151.55 L 203.67,150.95 L 199.91,149.71 L 196.12,148.47 L 192.33,147.23 L 188.55,146.02 L 184.78,144.82 L 181.04,143.63 L 177.31,142.44 L 173.59,141.25 L 169.89,140.08 L 166.2,138.91 L 162.49,137.75 L 158.79,136.58 L 155.09,135.4 L 151.38,134.22 L 147.68,133.04 L 143.98,131.84 L 140.27,130.65 L 136.55,129.44 L 132.83,128.22 Z" fill="#1a1a1a" fill-opacity="0.55" stroke="#1a1a1a" stroke-width="0.4" stroke-opacity="0.55" stroke-linejoin="round" />
  <path d="M 125.96,135.71 L 129.71,136.94 L 133.47,138.18 L 137.23,139.42 L 140.99,140.64 L 144.74,141.85 L 148.48,143.05 L 152.21,144.24 L 155.93,145.44 L 159.65,146.66 L 163.37,147.9 L 167.1,149.15 L 170.84,150.39 L 174.58,151.62 L 178.33,152.84 L 182.07,154.04 L 185.8,155.25 L 189.53,156.44 L 193.26,157.64 L 196.99,158.84 L 200.72,160.04 L 204.43,161.26 L 204.63,160.66 L 200.92,159.43 L 197.2,158.2 L 193.48,156.98 L 189.75,155.77 L 186.02,154.57 L 182.28,153.37 L 178.54,152.17 L 174.8,150.95 L 171.06,149.72 L 167.33,148.48 L 163.6,147.23 L 159.87,145.99 L 156.15,144.77 L 152.42,143.57 L 148.69,142.38 L 144.95,141.18 L 141.2,139.97 L 137.44,138.75 L 133.68,137.54 L 129.91,136.33 L 126.16,135.11 Z" fill="#1a1a1a" fill-opacity="0.55" stroke="#1a1a1a" stroke-width="0.4" stroke-opacity="0.55" stroke-linejoin="round" />
  <path d="M 119.06,142.95 L 122.85,144.2 L 126.63,145.46 L 130.41,146.74 L 134.2,148.01 L 137.99,149.28 L 141.77,150.54 L 145.53,151.79 L 149.28,153.03 L 153.02,154.26 L 156.75,155.48 L 160.48,156.7 L 164.22,157.93 L 167.98,159.14 L 171.74,160.35 L 175.5,161.54 L 179.25,162.72 L 182.98,163.89 L 186.72,165.07 L 190.46,166.25 L 194.22,167.43 L 197.99,168.61 L 201.74,169.8 L 205.46,170.99 L 209.14,172.19 L 212.83,173.42 L 213.03,172.82 L 209.34,171.58 L 205.66,170.36 L 201.95,169.15 L 198.2,167.95 L 194.43,166.77 L 190.68,165.58 L 186.93,164.4 L 183.19,163.22 L 179.46,162.04 L 175.71,160.87 L 171.95,159.68 L 168.19,158.47 L 164.44,157.26 L 160.7,156.04 L 156.97,154.82 L 153.24,153.59 L 149.5,152.36 L 145.75,151.13 L 141.99,149.87 L 138.22,148.61 L 134.43,147.34 L 130.63,146.08 L 126.84,144.82 L 123.05,143.58 L 119.26,142.34 Z" fill="#1a1a1a" fill-opacity="0.55" stroke="#1a1a1a" stroke-width="0.4" stroke-opacity="0.55" stroke-linejoin="round" />
  <path d="M 112.33,150.35 L 116.09,151.58 L 119.84,152.82 L 123.58,154.06 L 127.32,155.3 L 131.07,156.55 L 134.82,157.79 L 138.58,159.03 L 142.34,160.27 L 146.1,161.5 L 149.86,162.72 L 153.63,163.94 L 157.41,165.17 L 161.18,166.39 L 164.95,167.6 L 168.69,168.82 L 172.43,170.03 L 176.17,171.25 L 179.91,172.47 L 183.67,173.71 L 187.44,174.96 L 191.23,176.2 L 195.01,177.44 L 198.79,178.67 L 202.55,179.9 L 206.3,181.12 L 210.05,182.32 L 213.81,183.53 L 217.58,184.75 L 217.78,184.15 L 214,182.93 L 210.25,181.71 L 206.51,180.49 L 202.76,179.26 L 199.01,178.01 L 195.23,176.77 L 191.45,175.53 L 187.67,174.28 L 183.89,173.03 L 180.14,171.79 L 176.39,170.56 L 172.66,169.35 L 168.91,168.14 L 165.16,166.93 L 161.4,165.71 L 157.63,164.49 L 153.85,163.26 L 150.08,162.04 L 146.32,160.82 L 142.56,159.59 L 138.8,158.36 L 135.05,157.12 L 131.29,155.88 L 127.54,154.65 L 123.79,153.42 L 120.05,152.2 L 116.29,150.98 L 112.52,149.76 Z" fill="#1a1a1a" fill-opacity="0.55" stroke="#1a1a1a" stroke-width="0.4" stroke-opacity="0.55" stroke-linejoin="round" />
  <path d="M 105.65,157.62 L 109.42,158.85 L 113.17,160.07 L 116.92,161.29 L 120.65,162.5 L 124.37,163.72 L 128.09,164.94 L 131.81,166.16 L 135.54,167.38 L 139.28,168.59 L 143.02,169.81 L 146.78,171.03 L 150.54,172.25 L 154.32,173.47 L 158.12,174.7 L 161.91,175.94 L 165.71,177.19 L 169.49,178.45 L 173.26,179.71 L 177.04,180.96 L 180.83,182.2 L 184.63,183.42 L 188.45,184.61 L 192.26,185.79 L 196.06,186.96 L 199.84,188.12 L 203.6,189.28 L 207.37,190.46 L 211.13,191.67 L 214.9,192.9 L 218.66,194.13 L 218.86,193.53 L 215.1,192.29 L 211.33,191.04 L 207.57,189.81 L 203.82,188.61 L 200.05,187.43 L 196.27,186.28 L 192.46,185.12 L 188.65,183.95 L 184.84,182.76 L 181.04,181.55 L 177.25,180.31 L 173.48,179.07 L 169.7,177.81 L 165.92,176.55 L 162.13,175.29 L 158.33,174.05 L 154.54,172.81 L 150.76,171.58 L 146.99,170.36 L 143.24,169.14 L 139.49,167.93 L 135.76,166.71 L 132.03,165.49 L 128.31,164.26 L 124.59,163.05 L 120.86,161.85 L 117.12,160.65 L 113.37,159.45 L 109.61,158.24 L 105.84,157.02 Z" fill="#1a1a1a" fill-opacity="0.55" stroke="#1a1a1a" stroke-width="0.4" stroke-opacity="0.55" stroke-linejoin="round" />
  <path d="M 98.91,165.07 L 102.69,166.32 L 106.48,167.56 L 110.27,168.8 L 114.04,170.05 L 117.81,171.29 L 121.57,172.53 L 125.33,173.75 L 129.09,174.97 L 132.84,176.18 L 136.59,177.38 L 140.34,178.58 L 144.1,179.79 L 147.86,181 L 151.63,182.22 L 155.41,183.44 L 159.2,184.68 L 162.99,185.92 L 166.77,187.15 L 170.53,188.39 L 174.26,189.62 L 177.99,190.85 L 181.71,192.06 L 185.44,193.27 L 189.16,194.47 L 192.9,195.68 L 196.65,196.89 L 200.4,198.09 L 204.17,199.28 L 207.95,200.48 L 211.73,201.69 L 215.51,202.92 L 219.3,204.16 L 223.09,205.4 L 223.29,204.81 L 219.49,203.57 L 215.71,202.32 L 211.93,201.08 L 208.15,199.85 L 204.38,198.63 L 200.61,197.43 L 196.86,196.23 L 193.11,195.03 L 189.37,193.82 L 185.65,192.62 L 181.92,191.42 L 178.2,190.2 L 174.48,188.98 L 170.74,187.74 L 166.98,186.51 L 163.21,185.27 L 159.42,184.02 L 155.63,182.79 L 151.85,181.56 L 148.08,180.33 L 144.31,179.12 L 140.56,177.92 L 136.81,176.71 L 133.06,175.51 L 129.31,174.3 L 125.55,173.08 L 121.8,171.85 L 118.03,170.62 L 114.25,169.4 L 110.47,168.17 L 106.68,166.95 L 102.89,165.72 L 99.1,164.48 Z" fill="#1a1a1a" fill-opacity="0.55" stroke="#1a1a1a" stroke-width="0.4" stroke-opacity="0.55" stroke-linejoin="round" />
  <path d="M 91.75,172.22 L 95.53,173.45 L 99.32,174.69 L 103.12,175.92 L 106.93,177.16 L 110.73,178.39 L 114.53,179.61 L 118.32,180.83 L 122.09,182.04 L 125.85,183.25 L 129.61,184.47 L 133.36,185.68 L 137.11,186.9 L 140.87,188.13 L 144.64,189.35 L 148.42,190.59 L 152.2,191.83 L 155.99,193.09 L 159.77,194.34 L 163.56,195.6 L 167.35,196.85 L 171.14,198.1 L 174.94,199.33 L 178.74,200.56 L 182.55,201.8 L 186.37,203.05 L 190.19,204.3 L 194.01,205.55 L 197.83,206.78 L 201.64,207.99 L 205.43,209.19 L 209.21,210.37 L 212.97,211.55 L 216.73,212.73 L 220.49,213.92 L 224.26,215.13 L 228.07,216.35 L 231.91,217.56 L 232.1,216.96 L 228.27,215.74 L 224.46,214.51 L 220.69,213.3 L 216.93,212.09 L 213.18,210.9 L 209.42,209.71 L 205.64,208.53 L 201.85,207.33 L 198.05,206.11 L 194.23,204.87 L 190.41,203.62 L 186.59,202.37 L 182.77,201.12 L 178.96,199.89 L 175.16,198.65 L 171.37,197.42 L 167.57,196.17 L 163.78,194.92 L 160,193.66 L 156.21,192.41 L 152.42,191.16 L 148.64,189.92 L 144.86,188.69 L 141.09,187.46 L 137.33,186.24 L 133.57,185.02 L 129.82,183.81 L 126.06,182.6 L 122.3,181.38 L 118.53,180.17 L 114.74,178.96 L 110.94,177.74 L 107.13,176.52 L 103.33,175.29 L 99.52,174.07 L 95.73,172.84 L 91.95,171.62 Z" fill="#1a1a1a" fill-opacity="0.55" stroke="#1a1a1a" stroke-width="0.4" stroke-opacity="0.55" stroke-linejoin="round" />
  <path d="M 85.04,179.42 L 88.79,180.65 L 92.54,181.87 L 96.3,183.1 L 100.07,184.33 L 103.86,185.56 L 107.65,186.79 L 111.45,188.02 L 115.25,189.25 L 119.05,190.49 L 122.84,191.74 L 126.62,192.99 L 130.41,194.24 L 134.21,195.49 L 138.01,196.72 L 141.82,197.95 L 145.64,199.18 L 149.45,200.41 L 153.26,201.64 L 157.06,202.87 L 160.86,204.1 L 164.67,205.33 L 168.47,206.55 L 172.27,207.77 L 176.07,208.99 L 179.86,210.22 L 183.65,211.47 L 187.41,212.74 L 191.17,214.01 L 194.91,215.28 L 198.66,216.51 L 202.41,217.72 L 206.17,218.89 L 209.95,220.06 L 213.74,221.24 L 217.55,222.43 L 221.36,223.63 L 225.16,224.83 L 228.96,226.04 L 232.73,227.26 L 232.93,226.67 L 229.15,225.44 L 225.36,224.23 L 221.55,223.01 L 217.75,221.8 L 213.94,220.6 L 210.15,219.42 L 206.38,218.25 L 202.62,217.07 L 198.87,215.87 L 195.13,214.63 L 191.39,213.36 L 187.63,212.08 L 183.86,210.81 L 180.08,209.56 L 176.29,208.32 L 172.49,207.1 L 168.69,205.88 L 164.89,204.65 L 161.08,203.43 L 157.28,202.2 L 153.47,200.97 L 149.66,199.74 L 145.85,198.51 L 142.04,197.28 L 138.23,196.05 L 134.43,194.81 L 130.64,193.57 L 126.85,192.32 L 123.06,191.07 L 119.27,189.82 L 115.47,188.57 L 111.67,187.34 L 107.87,186.11 L 104.07,184.89 L 100.28,183.68 L 96.51,182.47 L 92.74,181.25 L 88.99,180.04 L 85.24,178.81 Z" fill="#1a1a1a" fill-opacity="0.55" stroke="#1a1a1a" stroke-width="0.4" stroke-opacity="0.55" stroke-linejoin="round" />
  <path d="M 78.37,186.75 L 82.14,187.98 L 85.92,189.21 L 89.7,190.45 L 93.48,191.68 L 97.26,192.91 L 101.05,194.14 L 104.83,195.36 L 108.62,196.59 L 112.41,197.81 L 116.19,199.03 L 119.98,200.26 L 123.77,201.49 L 127.55,202.72 L 131.34,203.95 L 135.14,205.19 L 138.93,206.42 L 142.72,207.66 L 146.51,208.89 L 150.3,210.13 L 154.1,211.36 L 157.91,212.59 L 161.73,213.82 L 165.56,215.04 L 169.38,216.25 L 173.2,217.45 L 176.99,218.64 L 180.77,219.84 L 184.53,221.05 L 188.29,222.29 L 192.07,223.54 L 195.86,224.79 L 199.65,226.04 L 203.43,227.27 L 207.21,228.5 L 210.97,229.73 L 214.73,230.98 L 218.49,232.25 L 222.25,233.53 L 226.01,234.81 L 229.78,236.08 L 233.57,237.32 L 237.38,238.54 L 241.21,239.73 L 241.4,239.13 L 237.57,237.93 L 233.77,236.7 L 229.99,235.45 L 226.23,234.18 L 222.47,232.89 L 218.72,231.6 L 214.96,230.32 L 211.19,229.06 L 207.43,227.83 L 203.65,226.6 L 199.87,225.36 L 196.08,224.11 L 192.29,222.85 L 188.52,221.6 L 184.75,220.37 L 180.98,219.16 L 177.21,217.96 L 173.41,216.76 L 169.6,215.57 L 165.77,214.36 L 161.95,213.14 L 158.13,211.91 L 154.32,210.68 L 150.52,209.45 L 146.73,208.21 L 142.94,206.98 L 139.15,205.74 L 135.36,204.51 L 131.56,203.28 L 127.77,202.05 L 123.98,200.82 L 120.2,199.59 L 116.41,198.37 L 112.62,197.14 L 108.83,195.92 L 105.05,194.7 L 101.26,193.48 L 97.47,192.26 L 93.69,191.04 L 89.9,189.81 L 86.12,188.59 L 82.34,187.36 L 78.57,186.14 Z" fill="#1a1a1a" fill-opacity="0.55" stroke="#1a1a1a" stroke-width="0.4" stroke-opacity="0.55" stroke-linejoin="round" />
  <path d="M 71.69,193.74 L 75.5,194.98 L 79.31,196.22 L 83.12,197.47 L 86.91,198.72 L 90.7,199.97 L 94.49,201.22 L 98.27,202.46 L 102.06,203.69 L 105.84,204.92 L 109.62,206.14 L 113.4,207.37 L 117.17,208.59 L 120.94,209.83 L 124.71,211.07 L 128.49,212.32 L 132.26,213.57 L 136.02,214.82 L 139.79,216.07 L 143.56,217.32 L 147.33,218.57 L 151.1,219.81 L 154.88,221.06 L 158.68,222.31 L 162.48,223.56 L 166.29,224.81 L 170.1,226.06 L 173.9,227.32 L 177.69,228.59 L 181.46,229.85 L 185.23,231.1 L 188.99,232.34 L 192.77,233.57 L 196.57,234.79 L 200.37,236 L 204.18,237.19 L 207.98,238.39 L 211.77,239.6 L 215.55,240.81 L 219.33,242.05 L 223.12,243.31 L 226.91,244.57 L 230.69,245.82 L 234.48,247.06 L 238.27,248.28 L 242.05,249.51 L 242.25,248.92 L 238.46,247.68 L 234.68,246.46 L 230.9,245.21 L 227.12,243.94 L 223.33,242.67 L 219.55,241.4 L 215.76,240.16 L 211.98,238.94 L 208.19,237.73 L 204.39,236.54 L 200.58,235.34 L 196.78,234.13 L 192.98,232.92 L 189.21,231.69 L 185.44,230.44 L 181.68,229.19 L 177.91,227.93 L 174.13,226.66 L 170.32,225.39 L 166.51,224.14 L 162.7,222.89 L 158.89,221.64 L 155.1,220.4 L 151.32,219.15 L 147.54,217.91 L 143.77,216.67 L 140,215.42 L 136.24,214.17 L 132.47,212.92 L 128.7,211.67 L 124.93,210.42 L 121.16,209.18 L 117.38,207.94 L 113.61,206.71 L 109.83,205.48 L 106.05,204.26 L 102.27,203.03 L 98.49,201.81 L 94.7,200.57 L 90.91,199.33 L 87.12,198.09 L 83.32,196.84 L 79.52,195.6 L 75.7,194.37 L 71.88,193.13 Z" fill="#1a1a1a" fill-opacity="0.55" stroke="#1a1a1a" stroke-width="0.4" stroke-opacity="0.55" stroke-linejoin="round" />
  <path d="M 64.84,201.34 L 68.63,202.58 L 72.42,203.83 L 76.22,205.08 L 80.01,206.34 L 83.81,207.6 L 87.61,208.86 L 91.41,210.1 L 95.21,211.33 L 99.01,212.55 L 102.81,213.75 L 106.6,214.94 L 110.4,216.14 L 114.2,217.33 L 117.99,218.53 L 121.79,219.73 L 125.6,220.94 L 129.4,222.15 L 133.2,223.37 L 137,224.58 L 140.8,225.79 L 144.59,226.99 L 148.38,228.2 L 152.15,229.42 L 155.92,230.65 L 159.69,231.89 L 163.46,233.15 L 167.23,234.41 L 170.99,235.67 L 174.76,236.94 L 178.53,238.22 L 182.3,239.49 L 186.07,240.77 L 189.85,242.05 L 193.64,243.33 L 197.43,244.6 L 201.22,245.85 L 205.02,247.09 L 208.81,248.33 L 212.6,249.56 L 216.39,250.78 L 220.18,251.98 L 223.98,253.16 L 227.77,254.31 L 231.57,255.46 L 235.39,256.61 L 239.2,257.78 L 243.02,258.97 L 246.85,260.19 L 247.04,259.6 L 243.21,258.36 L 239.39,257.16 L 235.58,255.99 L 231.77,254.82 L 227.97,253.66 L 224.18,252.5 L 220.39,251.31 L 216.6,250.11 L 212.81,248.9 L 209.02,247.67 L 205.23,246.43 L 201.44,245.18 L 197.66,243.93 L 193.87,242.66 L 190.08,241.38 L 186.3,240.1 L 182.52,238.82 L 178.76,237.54 L 174.99,236.26 L 171.22,235 L 167.45,233.73 L 163.69,232.47 L 159.92,231.22 L 156.15,229.97 L 152.37,228.74 L 148.59,227.52 L 144.81,226.31 L 141.02,225.1 L 137.22,223.89 L 133.42,222.67 L 129.62,221.46 L 125.82,220.25 L 122.01,219.05 L 118.21,217.85 L 114.41,216.66 L 110.61,215.48 L 106.81,214.29 L 103.01,213.1 L 99.21,211.91 L 95.42,210.69 L 91.62,209.46 L 87.82,208.22 L 84.02,206.97 L 80.22,205.71 L 76.42,204.46 L 72.63,203.21 L 68.83,201.97 L 65.04,200.74 Z" fill="#1a1a1a" fill-opacity="0.55" stroke="#1a1a1a" stroke-width="0.4" stroke-opacity="0.55" stroke-linejoin="round" />
  <path d="M 61.11,209.31 L 64.85,210.53 L 68.58,211.75 L 72.32,212.98 L 76.05,214.2 L 79.78,215.42 L 83.51,216.64 L 87.24,217.86 L 90.96,219.07 L 94.69,220.29 L 98.41,221.5 L 102.14,222.71 L 105.86,223.93 L 109.59,225.15 L 113.32,226.37 L 117.05,227.58 L 120.78,228.79 L 124.52,230 L 128.26,231.21 L 132,232.42 L 135.74,233.63 L 139.48,234.84 L 143.22,236.04 L 146.95,237.25 L 150.67,238.45 L 154.38,239.66 L 158.08,240.85 L 161.78,242.05 L 165.49,243.25 L 169.2,244.45 L 172.91,245.65 L 176.63,246.87 L 180.35,248.11 L 184.08,249.36 L 187.81,250.6 L 191.55,251.83 L 195.3,253.05 L 199.05,254.25 L 202.82,255.46 L 206.6,256.68 L 210.37,257.93 L 214.13,259.18 L 217.9,260.44 L 221.68,261.69 L 225.48,262.93 L 229.3,264.15 L 233.13,265.36 L 236.94,266.56 L 240.71,267.75 L 244.45,268.96 L 248.17,270.19 L 251.89,271.43 L 255.59,272.68 L 255.79,272.09 L 252.09,270.84 L 248.37,269.59 L 244.65,268.35 L 240.91,267.13 L 237.14,265.93 L 233.33,264.72 L 229.51,263.51 L 225.69,262.28 L 221.89,261.04 L 218.11,259.79 L 214.35,258.53 L 210.59,257.27 L 206.81,256.03 L 203.03,254.8 L 199.27,253.59 L 195.51,252.38 L 191.77,251.16 L 188.03,249.93 L 184.3,248.68 L 180.58,247.44 L 176.85,246.2 L 173.13,244.98 L 169.42,243.77 L 165.71,242.56 L 162.01,241.36 L 158.31,240.16 L 154.6,238.96 L 150.89,237.76 L 147.17,236.56 L 143.44,235.36 L 139.7,234.15 L 135.96,232.95 L 132.22,231.75 L 128.48,230.54 L 124.74,229.33 L 121,228.12 L 117.27,226.9 L 113.54,225.69 L 109.81,224.48 L 106.08,223.27 L 102.35,222.06 L 98.62,220.85 L 94.9,219.64 L 91.17,218.42 L 87.45,217.21 L 83.72,215.99 L 79.99,214.78 L 76.26,213.57 L 72.52,212.35 L 68.79,211.13 L 65.05,209.92 L 61.31,208.7 Z" fill="#1a1a1a" fill-opacity="0.55" stroke="#1a1a1a" stroke-width="0.4" stroke-opacity="0.55" stroke-linejoin="round" />
  <path d="M 56.7,217.49 L 60.46,218.72 L 64.22,219.95 L 67.98,221.18 L 71.74,222.4 L 75.51,223.63 L 79.27,224.86 L 83.04,226.08 L 86.81,227.3 L 90.58,228.52 L 94.35,229.74 L 98.12,230.96 L 101.89,232.18 L 105.66,233.41 L 109.43,234.63 L 113.2,235.87 L 116.98,237.1 L 120.75,238.33 L 124.53,239.57 L 128.3,240.8 L 132.07,242.04 L 135.84,243.27 L 139.61,244.49 L 143.39,245.72 L 147.18,246.95 L 150.96,248.17 L 154.74,249.4 L 158.52,250.63 L 162.29,251.87 L 166.06,253.11 L 169.82,254.36 L 173.58,255.61 L 177.32,256.84 L 181.06,258.06 L 184.78,259.26 L 188.5,260.47 L 192.23,261.68 L 195.97,262.89 L 199.74,264.11 L 203.52,265.34 L 207.32,266.58 L 211.11,267.82 L 214.88,269.05 L 218.64,270.28 L 222.4,271.52 L 226.17,272.76 L 229.95,274.01 L 233.74,275.23 L 237.53,276.44 L 241.29,277.65 L 245.01,278.86 L 248.72,280.07 L 252.44,281.29 L 256.19,282.49 L 256.38,281.89 L 252.64,280.69 L 248.92,279.47 L 245.21,278.25 L 241.49,277.03 L 237.73,275.81 L 233.95,274.59 L 230.16,273.35 L 226.38,272.11 L 222.62,270.87 L 218.86,269.63 L 215.1,268.4 L 211.32,267.17 L 207.53,265.93 L 203.73,264.69 L 199.95,263.46 L 196.18,262.23 L 192.45,261.01 L 188.72,259.8 L 185,258.59 L 181.27,257.39 L 177.54,256.17 L 173.79,254.94 L 170.04,253.7 L 166.28,252.46 L 162.51,251.21 L 158.73,249.98 L 154.95,248.74 L 151.17,247.52 L 147.39,246.3 L 143.61,245.07 L 139.83,243.84 L 136.06,242.61 L 132.29,241.38 L 128.52,240.14 L 124.74,238.9 L 120.97,237.67 L 117.2,236.43 L 113.42,235.2 L 109.65,233.96 L 105.88,232.73 L 102.11,231.5 L 98.34,230.28 L 94.57,229.06 L 90.8,227.84 L 87.03,226.62 L 83.26,225.41 L 79.49,224.19 L 75.72,222.98 L 71.95,221.77 L 68.19,220.55 L 64.42,219.33 L 60.66,218.1 L 56.9,216.88 Z" fill="#1a1a1a" fill-opacity="0.55" stroke="#1a1a1a" stroke-width="0.4" stroke-opacity="0.55" stroke-linejoin="round" />
  <path d="M 52.83,225.93 L 56.63,227.14 L 60.43,228.36 L 64.23,229.57 L 68.02,230.79 L 71.81,232 L 75.6,233.22 L 79.39,234.44 L 83.17,235.66 L 86.96,236.89 L 90.74,238.12 L 94.53,239.35 L 98.32,240.58 L 102.1,241.82 L 105.89,243.06 L 109.67,244.3 L 113.45,245.54 L 117.22,246.77 L 121,248.01 L 124.77,249.24 L 128.54,250.48 L 132.31,251.71 L 136.09,252.94 L 139.86,254.18 L 143.63,255.42 L 147.4,256.66 L 151.18,257.9 L 154.95,259.14 L 158.73,260.39 L 162.5,261.63 L 166.28,262.86 L 170.06,264.09 L 173.84,265.31 L 177.63,266.53 L 181.42,267.73 L 185.21,268.93 L 189.01,270.12 L 192.81,271.31 L 196.6,272.5 L 200.39,273.7 L 204.16,274.89 L 207.93,276.1 L 211.71,277.31 L 215.51,278.53 L 219.32,279.76 L 223.14,281 L 226.96,282.24 L 230.77,283.48 L 234.56,284.73 L 238.35,285.98 L 242.14,287.22 L 245.91,288.45 L 249.68,289.67 L 253.46,290.89 L 257.27,292.1 L 261.09,293.32 L 261.28,292.72 L 257.46,291.5 L 253.65,290.28 L 249.88,289.06 L 246.11,287.84 L 242.34,286.6 L 238.56,285.34 L 234.78,284.08 L 230.98,282.83 L 227.17,281.58 L 223.35,280.33 L 219.53,279.1 L 215.72,277.87 L 211.93,276.64 L 208.15,275.43 L 204.38,274.22 L 200.6,273.02 L 196.82,271.82 L 193.02,270.63 L 189.22,269.44 L 185.42,268.25 L 181.63,267.06 L 177.85,265.84 L 174.06,264.62 L 170.28,263.4 L 166.5,262.17 L 162.73,260.94 L 158.95,259.7 L 155.17,258.47 L 151.4,257.23 L 147.62,255.99 L 143.85,254.75 L 140.08,253.51 L 136.3,252.28 L 132.53,251.04 L 128.76,249.81 L 124.99,248.58 L 121.22,247.35 L 117.44,246.11 L 113.66,244.88 L 109.88,243.64 L 106.1,242.4 L 102.32,241.17 L 98.53,239.93 L 94.74,238.7 L 90.95,237.47 L 87.17,236.24 L 83.38,235.01 L 79.59,233.8 L 75.81,232.58 L 72.01,231.38 L 68.22,230.17 L 64.42,228.97 L 60.62,227.76 L 56.82,226.55 L 53.02,225.33 Z" fill="#1a1a1a" fill-opacity="0.55" stroke="#1a1a1a" stroke-width="0.4" stroke-opacity="0.55" stroke-linejoin="round" />
  <path d="M 48.9,233.93 L 52.63,235.16 L 56.37,236.39 L 60.11,237.62 L 63.86,238.84 L 67.6,240.06 L 71.34,241.27 L 75.08,242.48 L 78.82,243.69 L 82.55,244.9 L 86.27,246.11 L 89.99,247.32 L 93.7,248.54 L 97.42,249.76 L 101.15,250.98 L 104.89,252.21 L 108.63,253.43 L 112.39,254.64 L 116.16,255.86 L 119.92,257.06 L 123.69,258.27 L 127.45,259.47 L 131.21,260.68 L 134.95,261.88 L 138.69,263.09 L 142.42,264.3 L 146.14,265.51 L 149.87,266.72 L 153.6,267.94 L 157.33,269.15 L 161.07,270.37 L 164.8,271.59 L 168.54,272.81 L 172.28,274.03 L 176.01,275.25 L 179.75,276.46 L 183.49,277.68 L 187.23,278.89 L 190.97,280.11 L 194.72,281.33 L 198.47,282.56 L 202.23,283.79 L 205.99,285.02 L 209.75,286.26 L 213.5,287.48 L 217.24,288.71 L 220.97,289.92 L 224.7,291.13 L 228.42,292.35 L 232.13,293.58 L 235.85,294.82 L 239.57,296.04 L 243.31,297.25 L 247.07,298.45 L 250.84,299.66 L 254.6,300.86 L 258.34,302.07 L 262.06,303.29 L 265.78,304.5 L 269.51,305.72 L 269.7,305.12 L 265.98,303.9 L 262.26,302.68 L 258.54,301.46 L 254.8,300.24 L 251.04,299.02 L 247.27,297.8 L 243.52,296.59 L 239.79,295.37 L 236.07,294.15 L 232.35,292.92 L 228.63,291.69 L 224.91,290.47 L 221.19,289.26 L 217.46,288.05 L 213.71,286.84 L 209.96,285.61 L 206.2,284.38 L 202.44,283.15 L 198.69,281.91 L 194.93,280.68 L 191.18,279.46 L 187.44,278.24 L 183.7,277.02 L 179.97,275.8 L 176.23,274.58 L 172.49,273.37 L 168.75,272.15 L 165.02,270.93 L 161.28,269.71 L 157.55,268.5 L 153.81,267.28 L 150.09,266.07 L 146.36,264.86 L 142.63,263.65 L 138.9,262.44 L 135.16,261.23 L 131.42,260.02 L 127.67,258.81 L 123.91,257.6 L 120.14,256.39 L 116.37,255.17 L 112.61,253.96 L 108.85,252.74 L 105.11,251.53 L 101.37,250.31 L 97.64,249.09 L 93.92,247.87 L 90.2,246.66 L 86.48,245.45 L 82.76,244.25 L 79.03,243.05 L 75.29,241.84 L 71.55,240.64 L 67.8,239.43 L 64.06,238.22 L 60.31,237 L 56.57,235.78 L 52.83,234.56 L 49.09,233.33 Z" fill="#1a1a1a" fill-opacity="0.55" stroke="#1a1a1a" stroke-width="0.4" stroke-opacity="0.55" stroke-linejoin="round" />
  <path d="M 44.96,242.3 L 48.72,243.55 L 52.49,244.8 L 56.26,246.04 L 60.03,247.27 L 63.8,248.5 L 67.57,249.71 L 71.34,250.91 L 75.1,252.11 L 78.85,253.31 L 82.59,254.51 L 86.34,255.72 L 90.08,256.93 L 93.82,258.16 L 97.57,259.38 L 101.33,260.61 L 105.09,261.84 L 108.86,263.07 L 112.63,264.29 L 116.4,265.51 L 120.18,266.72 L 123.95,267.92 L 127.72,269.13 L 131.49,270.34 L 135.25,271.54 L 139.02,272.74 L 142.79,273.94 L 146.56,275.14 L 150.33,276.35 L 154.09,277.55 L 157.86,278.75 L 161.63,279.95 L 165.4,281.16 L 169.17,282.36 L 172.94,283.57 L 176.7,284.79 L 180.46,286.01 L 184.22,287.23 L 187.97,288.46 L 191.73,289.69 L 195.49,290.93 L 199.26,292.16 L 203.02,293.39 L 206.78,294.61 L 210.54,295.82 L 214.3,297.04 L 218.04,298.25 L 221.79,299.46 L 225.53,300.67 L 229.28,301.89 L 233.04,303.12 L 236.81,304.34 L 240.59,305.57 L 244.38,306.8 L 248.17,308.03 L 251.96,309.26 L 255.75,310.5 L 259.51,311.73 L 263.23,312.95 L 266.93,314.16 L 270.63,315.37 L 274.32,316.6 L 274.52,315.99 L 270.83,314.77 L 267.13,313.55 L 263.43,312.33 L 259.71,311.11 L 255.96,309.86 L 252.17,308.61 L 248.38,307.37 L 244.6,306.13 L 240.81,304.89 L 237.03,303.65 L 233.26,302.42 L 229.51,301.2 L 225.76,299.98 L 222.01,298.77 L 218.27,297.56 L 214.52,296.35 L 210.77,295.14 L 207.01,293.92 L 203.24,292.7 L 199.48,291.48 L 195.72,290.25 L 191.95,289.02 L 188.19,287.79 L 184.43,286.56 L 180.67,285.34 L 176.91,284.12 L 173.15,282.91 L 169.38,281.7 L 165.62,280.49 L 161.85,279.28 L 158.08,278.07 L 154.31,276.87 L 150.54,275.67 L 146.77,274.47 L 143.01,273.27 L 139.24,272.07 L 135.47,270.87 L 131.7,269.67 L 127.93,268.46 L 124.16,267.26 L 120.39,266.05 L 116.62,264.84 L 112.84,263.63 L 109.07,262.41 L 105.31,261.18 L 101.54,259.96 L 97.79,258.73 L 94.04,257.5 L 90.3,256.27 L 86.56,255.05 L 82.81,253.84 L 79.06,252.64 L 75.31,251.44 L 71.55,250.25 L 67.78,249.06 L 64,247.86 L 60.23,246.64 L 56.46,245.42 L 52.69,244.18 L 48.92,242.94 L 45.16,241.7 Z" fill="#1a1a1a" fill-opacity="0.55" stroke="#1a1a1a" stroke-width="0.4" stroke-opacity="0.55" stroke-linejoin="round" />
  <path d="M 40.88,250.14 L 44.71,251.38 L 48.54,252.62 L 52.37,253.86 L 56.2,255.1 L 60.03,256.34 L 63.85,257.58 L 67.67,258.82 L 71.48,260.06 L 75.28,261.3 L 79.08,262.53 L 82.87,263.77 L 86.66,265.01 L 90.45,266.24 L 94.23,267.48 L 98.02,268.71 L 101.8,269.94 L 105.59,271.16 L 109.39,272.38 L 113.19,273.6 L 116.99,274.82 L 120.79,276.05 L 124.58,277.29 L 128.37,278.53 L 132.15,279.78 L 135.93,281.03 L 139.71,282.28 L 143.5,283.53 L 147.29,284.78 L 151.09,286.03 L 154.9,287.28 L 158.72,288.52 L 162.54,289.76 L 166.35,291.01 L 170.16,292.26 L 173.97,293.51 L 177.79,294.76 L 181.6,296.01 L 185.41,297.25 L 189.22,298.5 L 193.01,299.74 L 196.8,300.97 L 200.59,302.2 L 204.36,303.42 L 208.13,304.65 L 211.91,305.87 L 215.68,307.1 L 219.46,308.33 L 223.24,309.56 L 227.03,310.79 L 230.82,312.02 L 234.62,313.25 L 238.42,314.47 L 242.22,315.68 L 246.03,316.88 L 249.83,318.08 L 253.63,319.28 L 257.43,320.49 L 257.63,319.88 L 253.82,318.67 L 250.02,317.47 L 246.22,316.27 L 242.42,315.06 L 238.62,313.84 L 234.83,312.62 L 231.03,311.39 L 227.24,310.15 L 223.45,308.9 L 219.67,307.66 L 215.9,306.43 L 212.12,305.2 L 208.35,303.98 L 204.58,302.75 L 200.8,301.53 L 197.02,300.3 L 193.23,299.06 L 189.43,297.83 L 185.63,296.58 L 181.82,295.33 L 178.01,294.08 L 174.19,292.83 L 170.38,291.58 L 166.57,290.34 L 162.75,289.1 L 158.94,287.86 L 155.12,286.62 L 151.31,285.37 L 147.51,284.12 L 143.72,282.87 L 139.93,281.62 L 136.15,280.37 L 132.37,279.11 L 128.59,277.86 L 124.8,276.62 L 121.01,275.38 L 117.21,274.15 L 113.41,272.92 L 109.61,271.7 L 105.81,270.48 L 102.02,269.26 L 98.24,268.04 L 94.45,266.8 L 90.67,265.57 L 86.88,264.33 L 83.09,263.1 L 79.3,261.86 L 75.5,260.62 L 71.7,259.39 L 67.88,258.16 L 64.06,256.93 L 60.23,255.7 L 56.4,254.47 L 52.57,253.24 L 48.73,252.01 L 44.9,250.78 L 41.07,249.55 Z" fill="#1a1a1a" fill-opacity="0.55" stroke="#1a1a1a" stroke-width="0.4" stroke-opacity="0.55" stroke-linejoin="round" />
  <path d="M 37.05,258.29 L 40.83,259.53 L 44.6,260.78 L 48.37,262.04 L 52.15,263.3 L 55.93,264.56 L 59.71,265.82 L 63.49,267.09 L 67.27,268.35 L 71.05,269.6 L 74.83,270.85 L 78.61,272.1 L 82.39,273.34 L 86.16,274.58 L 89.92,275.81 L 93.68,277.04 L 97.44,278.26 L 101.19,279.49 L 104.95,280.72 L 108.7,281.95 L 112.46,283.19 L 116.22,284.43 L 119.98,285.66 L 123.75,286.89 L 127.52,288.11 L 131.3,289.33 L 135.07,290.54 L 138.85,291.76 L 142.64,292.98 L 146.44,294.2 L 150.24,295.43 L 154.04,296.67 L 157.84,297.91 L 161.64,299.15 L 165.44,300.38 L 169.23,301.62 L 173.01,302.84 L 176.79,304.05 L 180.56,305.26 L 184.33,306.46 L 188.1,307.66 L 191.87,308.86 L 195.64,310.07 L 199.41,311.28 L 203.18,312.49 L 206.95,313.72 L 210.71,314.95 L 210.91,314.34 L 207.15,313.11 L 203.38,311.89 L 199.61,310.66 L 195.85,309.44 L 192.08,308.22 L 188.31,307.01 L 184.54,305.8 L 180.77,304.59 L 177,303.38 L 173.23,302.17 L 169.45,300.95 L 165.66,299.72 L 161.86,298.48 L 158.06,297.23 L 154.26,295.99 L 150.46,294.75 L 146.66,293.51 L 142.87,292.29 L 139.08,291.06 L 135.3,289.85 L 131.52,288.63 L 127.74,287.42 L 123.97,286.2 L 120.21,284.98 L 116.44,283.75 L 112.68,282.51 L 108.92,281.27 L 105.17,280.04 L 101.41,278.81 L 97.66,277.58 L 93.9,276.36 L 90.14,275.14 L 86.37,273.91 L 82.6,272.69 L 78.83,271.45 L 75.05,270.21 L 71.27,268.96 L 67.49,267.71 L 63.71,266.45 L 59.92,265.19 L 56.14,263.93 L 52.36,262.67 L 48.58,261.42 L 44.8,260.17 L 41.02,258.93 L 37.25,257.69 Z" fill="#1a1a1a" fill-opacity="0.55" stroke="#1a1a1a" stroke-width="0.4" stroke-opacity="0.55" stroke-linejoin="round" />
  <path d="M 33.01,266.44 L 36.74,267.66 L 40.46,268.89 L 44.18,270.13 L 47.88,271.37 L 51.59,272.61 L 55.3,273.85 L 59.01,275.09 L 62.73,276.32 L 66.46,277.55 L 70.21,278.76 L 73.96,279.96 L 77.72,281.17 L 81.5,282.37 L 85.28,283.58 L 89.07,284.79 L 92.87,286.01 L 96.66,287.23 L 100.45,288.46 L 104.24,289.69 L 108.01,290.93 L 111.77,292.16 L 115.52,293.39 L 119.26,294.61 L 123,295.84 L 126.74,297.06 L 130.47,298.28 L 134.19,299.51 L 137.91,300.73 L 141.62,301.95 L 145.34,303.17 L 149.06,304.39 L 152.81,305.61 L 156.57,306.83 L 160.34,308.06 L 160.54,307.45 L 156.77,306.23 L 153.01,304.99 L 149.27,303.76 L 145.55,302.52 L 141.84,301.29 L 138.13,300.06 L 134.41,298.83 L 130.69,297.61 L 126.96,296.39 L 123.22,295.17 L 119.48,293.95 L 115.74,292.72 L 111.98,291.5 L 108.22,290.27 L 104.45,289.04 L 100.67,287.81 L 96.87,286.58 L 93.08,285.35 L 89.28,284.14 L 85.49,282.92 L 81.7,281.72 L 77.93,280.51 L 74.17,279.3 L 70.42,278.1 L 66.68,276.88 L 62.95,275.67 L 59.23,274.44 L 55.51,273.21 L 51.8,271.97 L 48.09,270.74 L 44.38,269.51 L 40.66,268.29 L 36.94,267.07 L 33.21,265.85 Z" fill="#1a1a1a" fill-opacity="0.55" stroke="#1a1a1a" stroke-width="0.4" stroke-opacity="0.55" stroke-linejoin="round" />
  <path d="M 32.78,276 L 36.44,277.2 L 40.1,278.41 L 43.76,279.61 L 47.44,280.81 L 51.11,282 L 54.79,283.2 L 58.48,284.41 L 62.16,285.61 L 65.84,286.81 L 69.52,288.01 L 73.2,289.22 L 76.87,290.42 L 80.53,291.62 L 84.2,292.82 L 87.87,294.02 L 91.53,295.22 L 95.2,296.41 L 98.88,297.6 L 102.57,298.78 L 106.26,299.96 L 109.96,301.14 L 110.16,300.53 L 106.47,299.34 L 102.78,298.13 L 99.1,296.92 L 95.43,295.72 L 91.76,294.53 L 88.09,293.33 L 84.42,292.14 L 80.76,290.94 L 77.09,289.74 L 73.42,288.54 L 69.74,287.34 L 66.06,286.14 L 62.38,284.94 L 58.7,283.73 L 55.01,282.52 L 51.33,281.32 L 47.66,280.12 L 43.98,278.93 L 40.31,277.76 L 36.64,276.58 L 32.98,275.4 Z" fill="#1a1a1a" fill-opacity="0.55" stroke="#1a1a1a" stroke-width="0.4" stroke-opacity="0.55" stroke-linejoin="round" />
  <path d="M 25.03,282.87 L 28.48,283.97 L 31.93,285.07 L 35.38,286.16 L 38.82,287.26 L 42.27,288.36 L 45.71,289.48 L 49.15,290.6 L 52.59,291.73 L 56.04,292.84 L 59.49,293.96 L 59.69,293.35 L 56.26,292.19 L 52.82,291.04 L 49.38,289.91 L 45.93,288.8 L 42.49,287.69 L 39.04,286.59 L 35.59,285.5 L 32.13,284.41 L 28.68,283.34 L 25.22,282.27 Z" fill="#1a1a1a" fill-opacity="0.55" stroke="#1a1a1a" stroke-width="0.4" stroke-opacity="0.55" stroke-linejoin="round" />
  <path d="M 265.11,318.51 L 264.03,321.76 L 264.62,321.96 L 265.71,318.7 Z" fill="#1a1a1a" fill-opacity="0.55" stroke="#1a1a1a" stroke-width="0.4" stroke-opacity="0.55" stroke-linejoin="round" />
  <path d="M 257.32,313.51 L 256.16,316.98 L 255.08,320.52 L 255.68,320.71 L 256.84,317.2 L 257.93,313.7 Z" fill="#1a1a1a" fill-opacity="0.55" stroke="#1a1a1a" stroke-width="0.4" stroke-opacity="0.55" stroke-linejoin="round" />
  <path d="M 249.65,308.78 L 248.48,312.36 L 247.37,315.85 L 246.27,319.39 L 246.87,319.58 L 248.03,316.06 L 249.14,312.56 L 250.25,308.97 Z" fill="#1a1a1a" fill-opacity="0.55" stroke="#1a1a1a" stroke-width="0.4" stroke-opacity="0.55" stroke-linejoin="round" />
  <path d="M 241.66,303.83 L 240.48,307.4 L 239.27,310.92 L 238,314.43 L 236.75,317.91 L 237.34,318.13 L 238.65,314.66 L 239.93,311.16 L 241.14,307.62 L 242.26,304.02 Z" fill="#1a1a1a" fill-opacity="0.55" stroke="#1a1a1a" stroke-width="0.4" stroke-opacity="0.55" stroke-linejoin="round" />
  <path d="M 233.63,298.79 L 232.48,302.39 L 231.34,306.02 L 230.19,309.67 L 229.05,313.32 L 227.92,316.98 L 228.52,317.17 L 229.72,313.53 L 230.86,309.88 L 232,306.23 L 233.15,302.59 L 234.24,298.97 Z" fill="#1a1a1a" fill-opacity="0.55" stroke="#1a1a1a" stroke-width="0.4" stroke-opacity="0.55" stroke-linejoin="round" />
  <path d="M 224.71,297.19 L 223.49,300.88 L 222.28,304.6 L 221.05,308.31 L 219.9,312.01 L 218.83,315.71 L 219.43,315.89 L 220.57,312.21 L 221.71,308.52 L 222.93,304.81 L 224.14,301.1 L 225.31,297.38 Z" fill="#1a1a1a" fill-opacity="0.55" stroke="#1a1a1a" stroke-width="0.4" stroke-opacity="0.55" stroke-linejoin="round" />
  <path d="M 216.72,292.35 L 215.49,295.98 L 214.34,299.66 L 213.27,303.35 L 212.16,307 L 210.96,310.66 L 209.78,314.36 L 210.38,314.56 L 211.64,310.88 L 212.84,307.22 L 213.95,303.55 L 215.03,299.87 L 216.17,296.2 L 217.33,292.55 Z" fill="#1a1a1a" fill-opacity="0.55" stroke="#1a1a1a" stroke-width="0.4" stroke-opacity="0.55" stroke-linejoin="round" />
  <path d="M 209.07,287.48 L 207.87,291.16 L 206.69,294.84 L 205.49,298.5 L 204.28,302.11 L 203.09,305.71 L 201.89,309.36 L 200.71,313.07 L 201.31,313.27 L 202.56,309.58 L 203.77,305.94 L 204.95,302.33 L 206.16,298.72 L 207.36,295.06 L 208.54,291.38 L 209.68,287.67 Z" fill="#1a1a1a" fill-opacity="0.55" stroke="#1a1a1a" stroke-width="0.4" stroke-opacity="0.55" stroke-linejoin="round" />
  <path d="M 201.21,282.29 L 199.98,286 L 198.77,289.69 L 197.57,293.36 L 196.39,297.03 L 195.21,300.71 L 194.02,304.4 L 192.89,308.06 L 191.8,311.73 L 192.4,311.92 L 193.53,308.26 L 194.67,304.6 L 195.86,300.92 L 197.04,297.24 L 198.23,293.58 L 199.43,289.91 L 200.63,286.2 L 201.81,282.48 Z" fill="#1a1a1a" fill-opacity="0.55" stroke="#1a1a1a" stroke-width="0.4" stroke-opacity="0.55" stroke-linejoin="round" />
  <path d="M 193.31,277.34 L 192.03,281 L 190.81,284.71 L 189.62,288.44 L 188.43,292.15 L 187.24,295.8 L 186.03,299.44 L 184.85,303.12 L 183.74,306.81 L 184.35,306.99 L 185.51,303.33 L 186.7,299.66 L 187.9,296.02 L 189.09,292.36 L 190.27,288.64 L 191.46,284.92 L 192.66,281.21 L 193.9,277.54 Z" fill="#1a1a1a" fill-opacity="0.55" stroke="#1a1a1a" stroke-width="0.4" stroke-opacity="0.55" stroke-linejoin="round" />
  <path d="M 185.91,271.4 L 184.62,275.2 L 183.35,279.02 L 182.11,282.86 L 180.87,286.68 L 179.63,290.48 L 178.38,294.2 L 177.1,297.91 L 175.85,301.69 L 174.68,305.56 L 173.57,309.46 L 174.17,309.64 L 175.32,305.75 L 176.51,301.9 L 177.75,298.13 L 179.03,294.42 L 180.28,290.7 L 181.54,286.9 L 182.78,283.07 L 184.02,279.24 L 185.27,275.42 L 186.51,271.6 Z" fill="#1a1a1a" fill-opacity="0.55" stroke="#1a1a1a" stroke-width="0.4" stroke-opacity="0.55" stroke-linejoin="round" />
  <path d="M 177.97,266.57 L 176.74,270.31 L 175.51,273.99 L 174.32,277.7 L 173.13,281.45 L 171.93,285.26 L 170.69,289.14 L 169.42,293.04 L 168.14,296.92 L 166.84,300.74 L 165.61,304.43 L 164.51,308.11 L 165.11,308.3 L 166.24,304.64 L 167.5,300.97 L 168.81,297.15 L 170.08,293.26 L 171.35,289.36 L 172.6,285.47 L 173.8,281.66 L 174.99,277.91 L 176.18,274.21 L 177.37,270.52 L 178.57,266.77 Z" fill="#1a1a1a" fill-opacity="0.55" stroke="#1a1a1a" stroke-width="0.4" stroke-opacity="0.55" stroke-linejoin="round" />
  <path d="M 168.87,264.85 L 167.67,268.66 L 166.43,272.52 L 165.17,276.37 L 163.91,280.18 L 162.65,284.01 L 161.4,287.85 L 160.21,291.66 L 159.02,295.47 L 157.77,299.31 L 156.54,303.19 L 155.34,307.08 L 155.94,307.27 L 157.17,303.39 L 158.44,299.53 L 159.69,295.68 L 160.89,291.87 L 162.08,288.06 L 163.33,284.24 L 164.59,280.41 L 165.85,276.59 L 167.11,272.74 L 168.32,268.86 L 169.48,265.03 Z" fill="#1a1a1a" fill-opacity="0.55" stroke="#1a1a1a" stroke-width="0.4" stroke-opacity="0.55" stroke-linejoin="round" />
  <path d="M 161.26,260.06 L 160.04,263.81 L 158.82,267.55 L 157.62,271.34 L 156.41,275.2 L 155.12,279.11 L 153.74,282.97 L 152.39,286.79 L 151.14,290.61 L 149.95,294.36 L 148.76,298.06 L 147.58,301.83 L 146.47,305.64 L 147.08,305.82 L 148.22,302.03 L 149.44,298.28 L 150.64,294.58 L 151.82,290.83 L 153.06,287.02 L 154.4,283.2 L 155.78,279.33 L 157.06,275.41 L 158.27,271.54 L 159.46,267.75 L 160.66,264 L 161.85,260.25 Z" fill="#1a1a1a" fill-opacity="0.55" stroke="#1a1a1a" stroke-width="0.4" stroke-opacity="0.55" stroke-linejoin="round" />
  <path d="M 153.38,255.14 L 152.13,258.92 L 150.86,262.7 L 149.61,266.48 L 148.38,270.26 L 147.2,274 L 145.98,277.7 L 144.7,281.41 L 143.42,285.17 L 142.18,289.01 L 140.95,292.86 L 139.73,296.66 L 138.54,300.51 L 137.3,304.39 L 137.91,304.58 L 139.17,300.72 L 140.4,296.87 L 141.63,293.07 L 142.86,289.23 L 144.1,285.4 L 145.38,281.64 L 146.66,277.93 L 147.88,274.22 L 149.06,270.47 L 150.28,266.7 L 151.53,262.92 L 152.75,259.13 L 153.98,255.33 Z" fill="#1a1a1a" fill-opacity="0.55" stroke="#1a1a1a" stroke-width="0.4" stroke-opacity="0.55" stroke-linejoin="round" />
  <path d="M 145.5,249.96 L 144.26,253.72 L 143.02,257.49 L 141.78,261.28 L 140.54,265.07 L 139.32,268.86 L 138.11,272.69 L 136.9,276.48 L 135.68,280.22 L 134.49,283.99 L 133.29,287.82 L 132.05,291.65 L 130.76,295.46 L 129.49,299.29 L 128.26,303.11 L 128.86,303.31 L 130.1,299.5 L 131.4,295.68 L 132.69,291.86 L 133.94,288.02 L 135.14,284.2 L 136.33,280.43 L 137.55,276.69 L 138.77,272.89 L 139.98,269.07 L 141.21,265.28 L 142.45,261.5 L 143.68,257.7 L 144.89,253.93 L 146.11,250.16 Z" fill="#1a1a1a" fill-opacity="0.55" stroke="#1a1a1a" stroke-width="0.4" stroke-opacity="0.55" stroke-linejoin="round" />
  <path d="M 137.71,245.04 L 136.45,248.83 L 135.18,252.6 L 133.92,256.37 L 132.66,260.13 L 131.36,263.9 L 130.09,267.73 L 128.9,271.59 L 127.76,275.38 L 126.6,279.12 L 125.38,282.91 L 124.16,286.74 L 122.96,290.6 L 121.74,294.41 L 120.46,298.16 L 119.1,301.96 L 119.7,302.18 L 121.08,298.38 L 122.39,294.63 L 123.63,290.81 L 124.83,286.95 L 126.05,283.12 L 127.27,279.33 L 128.43,275.58 L 129.57,271.79 L 130.76,267.94 L 132.03,264.13 L 133.33,260.35 L 134.59,256.6 L 135.84,252.82 L 137.08,249.03 L 138.32,245.24 Z" fill="#1a1a1a" fill-opacity="0.55" stroke="#1a1a1a" stroke-width="0.4" stroke-opacity="0.55" stroke-linejoin="round" />
  <path d="M 129.75,240.29 L 128.51,244.04 L 127.26,247.79 L 126.06,251.55 L 124.9,255.32 L 123.71,259.11 L 122.49,262.93 L 121.25,266.73 L 119.98,270.46 L 118.71,274.11 L 117.44,277.73 L 116.2,281.44 L 114.98,285.29 L 113.76,289.21 L 112.55,293.11 L 111.3,296.89 L 109.99,300.63 L 110.58,300.84 L 111.91,297.1 L 113.19,293.32 L 114.43,289.42 L 115.65,285.5 L 116.87,281.66 L 118.11,277.96 L 119.38,274.34 L 120.65,270.69 L 121.92,266.96 L 123.17,263.15 L 124.39,259.32 L 125.58,255.53 L 126.74,251.76 L 127.91,248 L 129.13,244.24 L 130.35,240.49 Z" fill="#1a1a1a" fill-opacity="0.55" stroke="#1a1a1a" stroke-width="0.4" stroke-opacity="0.55" stroke-linejoin="round" />
  <path d="M 121.98,235.29 L 120.77,239.06 L 119.51,242.8 L 118.24,246.56 L 116.97,250.32 L 115.72,254.07 L 114.47,257.79 L 113.19,261.52 L 111.95,265.33 L 110.79,269.21 L 109.66,273.12 L 108.51,276.97 L 107.3,280.74 L 106.05,284.44 L 104.73,288.18 L 103.46,291.96 L 102.27,295.66 L 101.04,299.34 L 101.64,299.54 L 102.89,295.87 L 104.11,292.17 L 105.39,288.41 L 106.71,284.67 L 107.96,280.96 L 109.17,277.17 L 110.32,273.31 L 111.45,269.41 L 112.61,265.53 L 113.84,261.74 L 115.12,258.01 L 116.37,254.29 L 117.62,250.54 L 118.9,246.78 L 120.16,243.02 L 121.38,239.26 L 122.58,235.48 Z" fill="#1a1a1a" fill-opacity="0.55" stroke="#1a1a1a" stroke-width="0.4" stroke-opacity="0.55" stroke-linejoin="round" />
  <path d="M 113.91,230.78 L 112.71,234.54 L 111.52,238.29 L 110.33,242.05 L 109.14,245.78 L 107.94,249.5 L 106.73,253.22 L 105.52,256.92 L 104.3,260.65 L 103.05,264.47 L 101.79,268.33 L 100.55,272.1 L 99.29,275.84 L 98.03,279.63 L 96.81,283.41 L 95.65,287.16 L 94.46,290.92 L 93.23,294.68 L 91.99,298.42 L 92.59,298.62 L 93.85,294.89 L 95.11,291.13 L 96.32,287.37 L 97.48,283.62 L 98.7,279.85 L 99.96,276.07 L 101.21,272.33 L 102.46,268.55 L 103.71,264.68 L 104.96,260.86 L 106.18,257.14 L 107.39,253.43 L 108.6,249.72 L 109.8,245.99 L 110.99,242.25 L 112.16,238.49 L 113.32,234.73 L 114.51,230.96 Z" fill="#1a1a1a" fill-opacity="0.55" stroke="#1a1a1a" stroke-width="0.4" stroke-opacity="0.55" stroke-linejoin="round" />
  <path d="M 106.18,224.96 L 104.92,228.78 L 103.64,232.59 L 102.39,236.4 L 101.18,240.22 L 100,244.07 L 98.82,247.93 L 97.63,251.76 L 96.42,255.55 L 95.2,259.35 L 93.99,263.17 L 92.81,266.96 L 91.63,270.66 L 90.44,274.37 L 89.21,278.18 L 87.98,281.98 L 86.76,285.74 L 85.51,289.51 L 84.23,293.23 L 84.82,293.44 L 86.12,289.71 L 87.39,285.95 L 88.64,282.2 L 89.87,278.39 L 91.09,274.58 L 92.29,270.86 L 93.46,267.17 L 94.64,263.38 L 95.85,259.56 L 97.07,255.76 L 98.27,251.96 L 99.47,248.13 L 100.65,244.27 L 101.84,240.43 L 103.05,236.61 L 104.28,232.8 L 105.53,228.98 L 106.78,225.15 Z" fill="#1a1a1a" fill-opacity="0.55" stroke="#1a1a1a" stroke-width="0.4" stroke-opacity="0.55" stroke-linejoin="round" />
  <path d="M 98.13,220.82 L 96.94,224.6 L 95.77,228.37 L 94.61,232.09 L 93.44,235.8 L 92.21,239.5 L 90.95,243.22 L 89.67,246.97 L 88.39,250.77 L 87.15,254.57 L 85.99,258.33 L 84.84,262.05 L 83.63,265.78 L 82.4,269.52 L 81.23,273.24 L 80.05,276.95 L 78.86,280.69 L 77.72,284.44 L 76.55,288.25 L 75.29,292.07 L 75.89,292.27 L 77.16,288.44 L 78.37,284.64 L 79.53,280.9 L 80.73,277.17 L 81.9,273.45 L 83.08,269.73 L 84.3,266 L 85.52,262.26 L 86.67,258.54 L 87.83,254.78 L 89.06,251 L 90.34,247.2 L 91.63,243.45 L 92.89,239.73 L 94.12,236.02 L 95.29,232.31 L 96.42,228.57 L 97.56,224.8 L 98.73,221.01 Z" fill="#1a1a1a" fill-opacity="0.55" stroke="#1a1a1a" stroke-width="0.4" stroke-opacity="0.55" stroke-linejoin="round" />
  <path d="M 89.56,218.58 L 88.32,222.39 L 87.06,226.18 L 85.81,229.95 L 84.55,233.72 L 83.29,237.5 L 82.01,241.28 L 80.73,245.05 L 79.46,248.83 L 78.25,252.62 L 77.06,256.43 L 75.83,260.24 L 74.57,264.05 L 73.33,267.87 L 72.11,271.69 L 70.89,275.51 L 69.68,279.3 L 68.49,283.07 L 67.29,286.89 L 66.06,290.79 L 64.83,294.65 L 65.44,294.84 L 66.67,290.99 L 67.93,287.1 L 69.15,283.28 L 70.35,279.51 L 71.57,275.73 L 72.8,271.91 L 74.02,268.09 L 75.25,264.27 L 76.52,260.46 L 77.75,256.65 L 78.93,252.84 L 80.15,249.05 L 81.4,245.28 L 82.68,241.5 L 83.95,237.72 L 85.22,233.94 L 86.47,230.17 L 87.7,226.39 L 88.93,222.59 L 90.16,218.77 Z" fill="#1a1a1a" fill-opacity="0.55" stroke="#1a1a1a" stroke-width="0.4" stroke-opacity="0.55" stroke-linejoin="round" />
  <path d="M 81.46,214.77 L 80.24,218.49 L 79,222.21 L 77.78,225.93 L 76.57,229.67 L 75.35,233.39 L 74.13,237.11 L 72.95,240.83 L 71.79,244.57 L 70.6,248.32 L 69.35,252.07 L 68.07,255.81 L 66.8,259.5 L 65.56,263.22 L 64.36,267.02 L 63.2,270.86 L 62.04,274.63 L 60.82,278.33 L 59.5,282.02 L 58.18,285.74 L 56.95,289.44 L 55.8,293.07 L 56.4,293.26 L 57.56,289.64 L 58.82,285.96 L 60.15,282.26 L 61.49,278.56 L 62.71,274.84 L 63.88,271.07 L 65.04,267.24 L 66.24,263.44 L 67.48,259.74 L 68.76,256.04 L 70.04,252.3 L 71.28,248.54 L 72.47,244.79 L 73.63,241.05 L 74.81,237.33 L 76.03,233.61 L 77.25,229.89 L 78.46,226.15 L 79.65,222.42 L 80.86,218.7 L 82.07,214.97 Z" fill="#1a1a1a" fill-opacity="0.55" stroke="#1a1a1a" stroke-width="0.4" stroke-opacity="0.55" stroke-linejoin="round" />
  <path d="M 74.4,207.14 L 73.15,210.82 L 71.89,214.51 L 70.63,218.21 L 69.4,221.93 L 68.2,225.66 L 67.04,229.39 L 65.9,233.09 L 64.74,236.78 L 63.53,240.47 L 62.3,244.18 L 61.11,247.88 L 59.94,251.54 L 58.73,255.22 L 57.5,258.93 L 56.29,262.63 L 55.1,266.28 L 53.94,269.91 L 52.77,273.57 L 51.55,277.22 L 50.31,280.83 L 49.08,284.45 L 47.87,288.11 L 48.47,288.3 L 49.68,284.65 L 50.93,281.05 L 52.21,277.44 L 53.44,273.79 L 54.61,270.12 L 55.78,266.5 L 56.96,262.85 L 58.18,259.15 L 59.4,255.44 L 60.61,251.76 L 61.78,248.09 L 62.97,244.4 L 64.2,240.69 L 65.41,237 L 66.57,233.3 L 67.72,229.6 L 68.88,225.88 L 70.08,222.15 L 71.3,218.43 L 72.52,214.72 L 73.77,211.03 L 75.01,207.35 Z" fill="#1a1a1a" fill-opacity="0.55" stroke="#1a1a1a" stroke-width="0.4" stroke-opacity="0.55" stroke-linejoin="round" />
  <path d="M 65.59,204.64 L 64.35,208.4 L 63.12,212.14 L 61.9,215.88 L 60.68,219.64 L 59.46,223.39 L 58.25,227.15 L 57.05,230.9 L 55.87,234.65 L 54.68,238.38 L 53.46,242.1 L 52.21,245.82 L 50.93,249.56 L 49.72,253.35 L 48.55,257.14 L 47.34,260.86 L 46.08,264.55 L 44.83,268.23 L 43.59,271.9 L 42.35,275.65 L 41.2,279.4 L 40.08,283.1 L 38.85,286.9 L 39.45,287.1 L 40.69,283.29 L 41.83,279.59 L 43.01,275.86 L 44.25,272.12 L 45.49,268.46 L 46.73,264.77 L 47.99,261.07 L 49.2,257.34 L 50.37,253.56 L 51.58,249.78 L 52.87,246.05 L 54.13,242.32 L 55.35,238.59 L 56.54,234.86 L 57.72,231.12 L 58.91,227.36 L 60.12,223.61 L 61.34,219.85 L 62.55,216.1 L 63.75,212.34 L 64.96,208.59 L 66.19,204.84 Z" fill="#1a1a1a" fill-opacity="0.55" stroke="#1a1a1a" stroke-width="0.4" stroke-opacity="0.55" stroke-linejoin="round" />
  <path d="M 43.06,245.56 L 41.85,249.13 L 40.62,252.73 L 39.44,256.37 L 38.3,260.02 L 37.12,263.71 L 35.91,267.42 L 34.69,271.11 L 33.46,274.79 L 32.23,278.49 L 30.96,282.2 L 29.75,285.9 L 30.34,286.1 L 31.59,282.42 L 32.88,278.71 L 34.11,275.01 L 35.34,271.33 L 36.57,267.63 L 37.78,263.92 L 38.96,260.23 L 40.09,256.58 L 41.26,252.95 L 42.47,249.34 L 43.65,245.76 Z" fill="#1a1a1a" fill-opacity="0.55" stroke="#1a1a1a" stroke-width="0.4" stroke-opacity="0.55" stroke-linejoin="round" />
  <polyline points="226.03,163.72 232,164.23 237.9,164.72 243.7,165.2 249.47,165.69 255.21,166.24 260.93,166.85 266.6,167.45 272.29,168.01 278,168.49 283.76,168.91 289.54,169.27 295.33,169.64 301.11,170.07 306.89,170.54 312.66,171.04 318.39,171.55 324.1,172.06 329.84,172.56 335.61,173.01 341.39,173.42" fill="none" stroke="#1a1a1a" stroke-width="1.146" stroke-opacity="0.32" stroke-dasharray="4,3" stroke-linecap="round" stroke-linejoin="round" />
  <polyline points="226.03,163.72 223.91,168.59 221.64,173.65 219.34,178.79 217.11,184.04 214.83,189.3 212.38,194.42 210,199.47 207.84,204.42 205.61,209.29 203.57,214.31 201.56,219.44" fill="none" stroke="#1a1a1a" stroke-width="1.192" stroke-opacity="0.32" stroke-dasharray="4,3" stroke-linecap="round" stroke-linejoin="round" />
  <polyline points="226.03,163.72 226.11,157.73 226.18,151.78 226.24,145.84 226.3,139.9 226.36,133.97 226.39,128.03 226.4,122.08 226.39,116.12 226.35,110.18 226.28,104.24 226.21,98.31 226.18,92.38 226.22,86.45 226.29,80.51 226.35,74.54 226.42,68.57 226.48,62.59 226.55,56.61 226.66,50.67" fill="none" stroke="#1a1a1a" stroke-width="1.164" stroke-opacity="0.32" stroke-dasharray="4,3" stroke-linecap="round" stroke-linejoin="round" />
  <path d="M 227.21,50.68 L 227.21,50.49 L 226.11,50.47 L 226.11,50.66 Z" fill="#1a1a1a" stroke="#1a1a1a" stroke-width="0.4" stroke-linejoin="round" />
  <polyline points="341.39,173.42 341.38,179.32 341.44,185.23 341.42,191.31 341.42,197.31 341.39,203.24 341.23,209.22 341.04,215.2 340.95,221.13 340.76,227.1 340.7,233.29" fill="none" stroke="#1a1a1a" stroke-width="1.217" stroke-opacity="0.32" stroke-dasharray="4,3" stroke-linecap="round" stroke-linejoin="round" />
  <path d="M 340.11,233.29 L 340.11,233.71 L 341.3,233.72 L 341.3,233.29 Z" fill="#1a1a1a" stroke="#1a1a1a" stroke-width="0.4" stroke-linejoin="round" />
  <polyline points="341.39,173.42 342.02,167.53 342.63,161.69 343.21,155.89 343.79,150.1 344.38,144.3 345.04,138.44 345.75,132.55 346.45,126.67 347.09,120.83 347.72,115 348.36,109.17 349.01,103.33 349.65,97.53 350.28,91.76 350.93,85.99 351.55,80.18 352.16,74.39 352.8,68.6 353.47,62.79 354.15,56.97" fill="none" stroke="#1a1a1a" stroke-width="1.187" stroke-opacity="0.32" stroke-dasharray="4,3" stroke-linecap="round" stroke-linejoin="round" />
  <path d="M 354.71,57.04 L 354.73,56.84 L 353.61,56.71 L 353.59,56.91 Z" fill="#1a1a1a" stroke="#1a1a1a" stroke-width="0.4" stroke-linejoin="round" />
  <path d="M 340.77,233.13 L 334.94,232.43 L 329.1,231.66 L 323.24,230.89 L 317.35,230.2 L 311.47,229.54 L 305.6,228.91 L 299.7,228.3 L 293.78,227.73 L 287.84,227.18 L 281.88,226.65 L 275.91,226.12 L 269.94,225.58 L 263.98,225.02 L 258.02,224.46 L 252.07,223.9 L 246.14,223.39 L 240.25,222.9 L 234.39,222.34 L 234.27,223.54 L 240.13,224.16 L 246.01,224.75 L 251.94,225.31 L 257.88,225.87 L 263.84,226.45 L 269.81,227.02 L 275.78,227.56 L 281.75,228.09 L 287.71,228.62 L 293.64,229.17 L 299.56,229.75 L 305.44,230.35 L 311.31,230.97 L 317.19,231.62 L 323.07,232.3 L 328.94,232.98 L 334.79,233.65 L 340.64,234.3 Z" fill="#1a1a1a" stroke="#1a1a1a" stroke-width="0.4" stroke-linejoin="round" />
  <polyline points="234.33,222.94 228.91,222.38 223.45,221.79 217.95,221.19 212.45,220.58 206.99,220 201.56,219.44" fill="none" stroke="#1a1a1a" stroke-width="1.261" stroke-opacity="0.32" stroke-dasharray="4,3" stroke-linecap="round" stroke-linejoin="round" />
  <path d="M 341.31,233.78 L 342.01,228.03 L 342.74,222.28 L 343.47,216.55 L 344.2,210.79 L 344.9,205.03 L 345.61,199.26 L 346.26,193.52 L 346.85,187.8 L 347.43,182.1 L 348.06,176.41 L 348.79,170.69 L 349.57,164.96 L 350.35,159.21 L 351.03,153.46 L 351.65,147.75 L 352.25,142.08 L 352.87,136.43 L 353.5,130.75 L 354.1,125.01 L 354.68,119.26 L 355.23,113.49 L 355.78,107.74 L 356.36,101.98 L 356.99,96.2 L 355.74,96.06 L 355.07,101.84 L 354.4,107.59 L 353.76,113.34 L 353.16,119.1 L 352.57,124.85 L 351.97,130.58 L 351.36,136.26 L 350.77,141.93 L 350.18,147.59 L 349.56,153.29 L 348.86,159.02 L 348.08,164.75 L 347.29,170.5 L 346.56,176.23 L 345.93,181.95 L 345.35,187.65 L 344.76,193.36 L 344.12,199.09 L 343.41,204.84 L 342.72,210.61 L 342.06,216.38 L 341.41,222.13 L 340.76,227.88 L 340.09,233.64 Z" fill="#1a1a1a" stroke="#1a1a1a" stroke-width="0.4" stroke-linejoin="round" />
  <polyline points="201.56,219.44 201.43,213.63 201.34,207.87 201.25,202.17 201.15,196.49 201.06,190.83 201,185.2 200.98,179.6 200.96,173.97 200.92,168.26 200.86,162.49 200.79,156.69 200.72,150.89 200.68,145.1" fill="none" stroke="#1a1a1a" stroke-width="1.28" stroke-opacity="0.32" stroke-dasharray="4,3" stroke-linecap="round" stroke-linejoin="round" />
  <path d="M 201.29,145.1 L 201.33,139.3 L 201.38,133.51 L 201.36,127.72 L 201.28,121.93 L 201.15,116.14 L 201,110.35 L 200.84,104.56 L 200.69,98.76 L 200.53,92.94 L 200.37,87.1 L 199.13,87.11 L 199.14,92.96 L 199.2,98.79 L 199.34,104.6 L 199.5,110.39 L 199.66,116.17 L 199.79,121.96 L 199.88,127.73 L 199.92,133.51 L 199.98,139.3 L 200.07,145.1 Z" fill="#1a1a1a" stroke="#1a1a1a" stroke-width="0.4" stroke-linejoin="round" />
  <path d="M 226.19,50.14 L 223.05,54.34 L 219.89,58.87 L 216.52,63.71 L 212.98,68.28 L 209.38,72.77 L 205.99,77.33 L 202.5,82.03 L 199.27,86.76 L 200.24,87.45 L 203.61,82.84 L 207.14,78.18 L 210.51,73.64 L 214.1,69.16 L 217.65,64.54 L 221.03,59.66 L 224.13,55.1 L 227.13,50.83 Z" fill="#1a1a1a" stroke="#1a1a1a" stroke-width="0.4" stroke-linejoin="round" />
  <path d="M 226.62,51.04 L 232.34,51.44 L 238.07,51.85 L 243.82,52.22 L 249.61,52.52 L 255.45,52.75 L 261.3,52.93 L 267.15,53.03 L 273.05,53.12 L 278.97,53.25 L 284.88,53.49 L 290.74,53.83 L 296.5,54.23 L 302.21,54.63 L 307.91,55 L 313.68,55.36 L 319.5,55.71 L 325.3,56.03 L 331.05,56.32 L 336.78,56.61 L 342.54,56.89 L 348.34,57.14 L 354.15,57.35 L 354.19,56.2 L 348.39,55.95 L 342.61,55.62 L 336.85,55.26 L 331.12,54.93 L 325.37,54.65 L 319.58,54.36 L 313.76,54.02 L 308,53.65 L 302.3,53.28 L 296.6,52.87 L 290.83,52.46 L 284.95,52.12 L 279.01,51.88 L 273.07,51.75 L 267.18,51.66 L 261.33,51.56 L 255.49,51.39 L 249.67,51.16 L 243.89,50.91 L 238.14,50.63 L 232.42,50.3 L 226.7,49.93 Z" fill="#1a1a1a" stroke="#1a1a1a" stroke-width="0.4" stroke-linejoin="round" />
  <path d="M 199.72,87.73 L 205.54,88.03 L 211.39,88.35 L 217.29,88.68 L 223.19,89.02 L 229.05,89.35 L 234.87,89.69 L 240.64,90.02 L 246.4,90.34 L 252.18,90.64 L 257.96,90.95 L 263.74,91.27 L 269.52,91.61 L 275.29,91.97 L 281.08,92.36 L 286.89,92.75 L 292.71,93.15 L 298.53,93.55 L 304.34,93.91 L 310.13,94.24 L 315.9,94.57 L 321.69,94.89 L 327.5,95.21 L 333.31,95.52 L 339.11,95.81 L 344.88,96.11 L 350.61,96.43 L 356.33,96.77 L 356.41,95.49 L 350.69,95.11 L 344.97,94.72 L 339.2,94.33 L 333.4,93.96 L 327.58,93.63 L 321.77,93.32 L 315.98,93 L 310.22,92.68 L 304.44,92.34 L 298.63,92 L 292.81,91.63 L 286.99,91.25 L 281.18,90.85 L 275.39,90.45 L 269.61,90.07 L 263.83,89.73 L 258.04,89.42 L 252.26,89.11 L 246.48,88.8 L 240.73,88.48 L 234.95,88.15 L 229.14,87.82 L 223.27,87.52 L 217.36,87.25 L 211.46,87.01 L 205.6,86.75 L 199.79,86.48 Z" fill="#1a1a1a" stroke="#1a1a1a" stroke-width="0.4" stroke-linejoin="round" />
  <path d="M 356.96,96.07 L 356.55,90.73 L 356.27,85.22 L 356.11,79.43 L 355.67,73.56 L 355.63,67.79 L 355.42,62.29 L 354.77,56.72 L 353.57,56.83 L 353.99,62.39 L 354.17,67.82 L 354.23,73.63 L 354.68,79.51 L 354.85,85.28 L 355.18,90.83 L 355.77,96.19 Z" fill="#1a1a1a" stroke="#1a1a1a" stroke-width="0.4" stroke-linejoin="round" />
  <path d="M 64.57,200.21 L 62.21,205.61 L 59.58,210.85 L 56.83,215.92 L 54.19,220.94 L 51.69,226.04 L 49.26,231.34 L 46.78,236.67 L 44.15,241.85 L 41.53,246.97 L 39.03,252.13 L 36.61,257.23 L 34.15,262.39 L 31.7,267.66 L 29.22,272.98 L 26.58,278.3 L 23.93,283.55 L 21.34,288.72 L 22.67,289.4 L 25.32,284.27 L 28.11,279.08 L 30.85,273.77 L 33.34,268.42 L 35.79,263.16 L 38.26,258.01 L 40.67,252.92 L 43.16,247.78 L 45.77,242.67 L 48.42,237.47 L 50.92,232.1 L 53.34,226.82 L 55.83,221.77 L 58.47,216.79 L 61.14,211.64 L 63.66,206.27 L 65.96,200.81 Z" fill="#1a1a1a" stroke="#1a1a1a" stroke-width="0.4" stroke-linejoin="round" />
  <path d="M 64.87,201.18 L 70.1,204.23 L 75.28,207.27 L 80.41,210.31 L 85.53,213.35 L 90.65,216.4 L 95.75,219.44 L 100.85,222.47 L 105.98,225.47 L 111.14,228.46 L 116.31,231.44 L 121.51,234.43 L 126.7,237.43 L 131.89,240.46 L 137.06,243.51 L 142.22,246.53 L 147.34,249.52 L 152.45,252.5 L 157.57,255.49 L 162.75,258.51 L 167.98,261.55 L 173.23,264.59 L 178.46,267.61 L 183.66,270.62 L 188.84,273.62 L 194.04,276.63 L 199.27,279.66 L 204.51,282.7 L 209.76,285.74 L 214.99,288.75 L 220.19,291.75 L 225.35,294.71 L 230.49,297.65 L 235.63,300.58 L 240.78,303.53 L 245.95,306.47 L 251.14,309.43 L 256.33,312.39 L 261.53,315.34 L 266.73,318.28 L 271.96,321.22 L 277.19,324.16 L 277.95,322.82 L 272.72,319.86 L 267.52,316.9 L 262.35,313.91 L 257.18,310.91 L 252.01,307.91 L 246.83,304.94 L 241.66,301.99 L 236.51,299.04 L 231.38,296.1 L 226.24,293.15 L 221.07,290.2 L 215.88,287.21 L 210.64,284.2 L 205.4,281.18 L 200.16,278.13 L 194.96,275.06 L 189.79,272 L 184.62,268.97 L 179.42,265.95 L 174.19,262.94 L 168.92,259.92 L 163.67,256.91 L 158.48,253.93 L 153.35,250.95 L 148.26,247.96 L 143.15,244.95 L 138.01,241.91 L 132.83,238.86 L 127.64,235.82 L 122.44,232.81 L 117.25,229.82 L 112.07,226.84 L 106.92,223.86 L 101.8,220.86 L 96.69,217.85 L 91.56,214.85 L 86.42,211.85 L 81.27,208.86 L 76.09,205.87 L 70.89,202.87 L 65.66,199.83 Z" fill="#1a1a1a" stroke="#1a1a1a" stroke-width="0.4" stroke-linejoin="round" />
  <path d="M 65.81,201.03 L 69.85,196.82 L 73.91,192.64 L 77.98,188.44 L 82.02,184.19 L 86.02,179.91 L 90.02,175.62 L 94.1,171.35 L 98.2,167.06 L 102.29,162.74 L 106.36,158.41 L 110.43,154.06 L 114.48,149.69 L 118.48,145.32 L 122.46,140.96 L 126.49,136.61 L 130.61,132.22 L 134.74,127.81 L 138.81,123.41 L 142.81,119.03 L 146.82,114.7 L 150.86,110.39 L 154.9,106.1 L 158.86,101.8 L 162.79,97.47 L 166.76,93.11 L 170.79,88.71 L 174.85,84.29 L 173.77,83.29 L 169.68,87.68 L 165.58,92.02 L 161.52,96.29 L 157.52,100.56 L 153.54,104.83 L 149.52,109.13 L 145.49,113.46 L 141.49,117.83 L 137.52,122.22 L 133.47,126.62 L 129.33,131.01 L 125.18,135.38 L 121.13,139.74 L 117.15,144.1 L 113.15,148.47 L 109.11,152.82 L 105.03,157.17 L 100.97,161.5 L 96.89,165.81 L 92.78,170.1 L 88.7,174.38 L 84.69,178.67 L 80.7,182.96 L 76.72,187.25 L 72.74,191.52 L 68.74,195.76 L 64.72,199.99 Z" fill="#1a1a1a" stroke="#1a1a1a" stroke-width="0.4" stroke-linejoin="round" />
  <path d="M 21.91,289.75 L 27.8,290.61 L 33.7,291.43 L 39.65,292.22 L 45.66,292.95 L 51.68,293.66 L 57.69,294.37 L 63.66,295.08 L 69.61,295.79 L 75.54,296.5 L 81.5,297.23 L 87.49,297.98 L 93.5,298.75 L 99.5,299.6 L 105.49,300.49 L 111.46,301.4 L 117.43,302.31 L 123.37,303.21 L 129.3,304.11 L 135.22,305.02 L 141.14,305.92 L 147.06,306.8 L 152.99,307.67 L 158.91,308.53 L 164.84,309.34 L 170.78,310.1 L 176.69,310.84 L 182.59,311.58 L 188.49,312.35 L 194.4,313.13 L 200.34,313.93 L 206.29,314.71 L 212.22,315.49 L 218.13,316.26 L 224.02,317.06 L 229.91,317.89 L 235.83,318.76 L 241.77,319.61 L 247.71,320.42 L 253.66,321.2 L 259.61,321.96 L 265.56,322.7 L 271.52,323.43 L 277.48,324.16 L 277.65,322.81 L 271.69,322.06 L 265.74,321.3 L 259.8,320.52 L 253.86,319.72 L 247.92,318.88 L 241.99,318.03 L 236.06,317.16 L 230.14,316.31 L 224.24,315.5 L 218.34,314.7 L 212.43,313.91 L 206.5,313.14 L 200.55,312.36 L 194.61,311.57 L 188.69,310.79 L 182.79,310.03 L 176.89,309.28 L 170.98,308.51 L 165.07,307.7 L 159.15,306.85 L 153.23,305.99 L 147.31,305.12 L 141.38,304.26 L 135.46,303.39 L 129.54,302.52 L 123.61,301.63 L 117.67,300.72 L 111.71,299.79 L 105.74,298.86 L 99.74,297.96 L 93.72,297.12 L 87.7,296.33 L 81.71,295.58 L 75.74,294.85 L 69.8,294.14 L 63.86,293.44 L 57.88,292.75 L 51.86,292.08 L 45.84,291.42 L 39.83,290.74 L 33.89,290.01 L 27.99,289.23 L 22.11,288.37 Z" fill="#1a1a1a" stroke="#1a1a1a" stroke-width="0.4" stroke-linejoin="round" />
  <path d="M 22.55,289.47 L 22.74,289.21 L 21.66,288.4 L 21.46,288.65 Z" fill="#1a1a1a" stroke="#1a1a1a" stroke-width="0.4" stroke-linejoin="round" />
  <polyline points="22.2,288.8 25.74,284.08 29.29,279.36 32.85,274.63 36.44,269.89 40.03,265.13 43.59,260.34 47.11,255.54 50.57,250.72 53.99,245.88 57.42,241.03 60.86,236.19 64.33,231.36 67.84,226.57 71.39,221.81 74.98,217.08 78.59,212.34 82.18,207.58 85.75,202.8 89.28,198.01 92.81,193.22 96.33,188.44 99.87,183.71 103.42,179 106.99,174.29 110.57,169.57 114.14,164.84 117.71,160.09 121.28,155.36 124.85,150.62 128.43,145.89 132.01,141.14 135.58,136.38 139.14,131.61 142.67,126.84 146.15,122.08 149.6,117.34 153.01,112.62 156.42,107.91 159.87,103.19 163.38,98.48 166.93,93.76 170.48,89.01 174,84.22" fill="none" stroke="#1a1a1a" stroke-width="1.441" stroke-opacity="0.32" stroke-dasharray="4,3" stroke-linecap="round" stroke-linejoin="round" />
  <path d="M 174.54,84.62 L 174.86,84.18 L 173.77,83.39 L 173.45,83.82 Z" fill="#1a1a1a" stroke="#1a1a1a" stroke-width="0.4" stroke-linejoin="round" />
  <path d="M 278.2,323.2 L 275.8,317.82 L 273.43,312.41 L 271.09,306.99 L 268.78,301.53 L 266.49,296.04 L 264.22,290.51 L 261.95,284.98 L 259.66,279.45 L 257.36,273.94 L 255.03,268.45 L 252.68,262.98 L 250.3,257.55 L 247.91,252.13 L 245.53,246.74 L 243.16,241.35 L 240.79,235.95 L 238.44,230.54 L 236.09,225.11 L 233.76,219.64 L 231.42,214.17 L 229.03,208.71 L 226.63,203.25 L 224.2,197.78 L 221.77,192.28 L 219.37,186.78 L 217.03,181.29 L 214.76,175.83 L 212.52,170.42 L 210.27,165.04 L 208,159.66 L 205.69,154.27 L 203.35,148.85 L 200.98,143.42 L 198.6,137.99 L 196.23,132.56 L 193.86,127.12 L 191.48,121.69 L 189.1,116.29 L 186.72,110.91 L 184.35,105.53 L 181.99,100.13 L 179.63,94.66 L 177.29,89.12 L 174.94,83.53 L 173.68,84.05 L 176.02,89.65 L 178.34,95.21 L 180.66,100.7 L 182.98,106.13 L 185.3,111.53 L 187.64,116.93 L 190.01,122.34 L 192.39,127.76 L 194.78,133.19 L 197.16,138.62 L 199.54,144.05 L 201.9,149.48 L 204.24,154.89 L 206.55,160.28 L 208.82,165.65 L 211.07,171.02 L 213.32,176.43 L 215.57,181.89 L 217.88,187.42 L 220.25,192.95 L 222.65,198.46 L 225.07,203.94 L 227.49,209.39 L 229.89,214.83 L 232.26,220.29 L 234.63,225.74 L 236.98,231.17 L 239.32,236.59 L 241.67,242 L 244.03,247.4 L 246.41,252.8 L 248.79,258.21 L 251.16,263.64 L 253.5,269.1 L 255.83,274.58 L 258.13,280.09 L 260.42,285.61 L 262.73,291.13 L 265.04,296.64 L 267.37,302.13 L 269.73,307.57 L 272.12,312.99 L 274.53,318.38 L 276.94,323.77 Z" fill="#1a1a1a" stroke="#1a1a1a" stroke-width="0.4" stroke-linejoin="round" />
</g></g>
<text x="14" y="26" font-family="sans-serif" font-size="14" fill="#999"></text>
<line x1="441" y1="8" x2="441" y2="372" stroke="#ddd" stroke-width="1" />
<text x="215" y="20" text-anchor="middle" font-family="sans-serif" font-size="14" fill="#999">creases (hidden-line)</text>
<text x="667" y="20" text-anchor="middle" font-family="sans-serif" font-size="14" fill="#999">faceted shading</text>
</svg>