<svg xmlns="http://www.w3.org/2000/svg" viewBox="0 0 882 380" width="882" height="380">
<defs><clipPath id="clip-0-0" clipPathUnits="userSpaceOnUse"><rect x="0" y="0" width="430" height="380" /></clipPath><clipPath id="clip-0-1" clipPathUnits="userSpaceOnUse"><rect x="452" y="0" width="430" height="380" /></clipPath></defs>
<g clip-path="url(#clip-0-0)"><g transform="translate(0,0)">  <rect width="430" height="380" fill="#faf9f5" />
  <path d="M 341,219.91 L 336.22,219.62 L 331.45,219.29 L 326.69,218.94 L 321.94,218.59 L 317.17,218.24 L 311.44,217.91 L 305.69,217.59 L 299.91,217.27 L 294.11,216.95 L 288.31,216.63 L 282.5,216.33 L 276.71,216.03 L 270.95,215.75 L 265.21,215.48 L 259.46,215.2 L 253.66,214.92 L 247.85,214.68 L 242.02,214.5 L 236.22,214.34 L 230.45,214.16 L 230.4,215.34 L 236.17,215.57 L 241.97,215.85 L 247.79,216.13 L 253.6,216.4 L 259.39,216.67 L 265.14,216.94 L 270.88,217.22 L 276.64,217.48 L 282.43,217.76 L 288.23,218.06 L 294.03,218.37 L 299.83,218.7 L 305.61,219.03 L 311.36,219.37 L 317.08,219.71 L 321.84,220.03 L 326.61,220.3 L 331.37,220.56 L 336.15,220.81 L 340.94,221.07 Z" fill="#1a1a1a" stroke="#1a1a1a" stroke-width="0.4" stroke-linejoin="round" />
  <polyline points="230.43,214.75 225.14,214.57 219.88,214.35 214.62,214.09 209.38,213.8 204.14,213.5 204.61,208.04 205.08,202.56 205.56,197.02 206.07,191.45 206.6,185.88 207.17,180.33 207.77,174.79 208.36,169.26 208.92,163.72" fill="none" stroke="#1a1a1a" stroke-width="1.245" stroke-opacity="0.32" stroke-dasharray="4,3" stroke-linecap="round" stroke-linejoin="round" />
  <path d="M 209.5,163.78 L 210.02,158.09 L 210.51,152.42 L 211.02,146.78 L 211.54,141.19 L 212.08,135.6 L 212.61,129.96 L 213.14,124.26 L 213.53,118.4 L 213.95,112.58 L 214.35,106.76 L 214.7,100.94 L 215.04,95.09 L 215.37,89.24 L 215.7,83.37 L 216.02,77.5 L 216.29,71.66 L 216.31,66.36 L 221.67,66.64 L 227.49,66.73 L 233.29,66.84 L 239.09,66.97 L 244.92,67.14 L 250.77,67.32 L 256.61,67.48 L 262.42,67.64 L 268.21,67.79 L 273.99,67.92 L 279.71,68.09 L 285.46,68.25 L 291.21,68.43 L 296.97,68.63 L 302.75,68.85 L 308.56,69.06 L 314.41,69.28 L 320.26,69.51 L 326.07,69.75 L 331.86,69.96 L 337.65,70.15 L 343.47,70.33 L 349.3,70.53 L 354.61,70.51 L 353.8,75.59 L 353.2,81.2 L 352.7,86.81 L 352.27,92.41 L 351.85,98.02 L 351.41,103.66 L 350.88,109.35 L 350.27,115.09 L 349.61,120.85 L 348.91,126.61 L 348.22,132.37 L 347.52,138.14 L 346.85,144.08 L 346.2,149.98 L 345.6,155.84 L 345.08,161.67 L 344.66,167.5 L 344.27,173.34 L 343.85,179.21 L 343.38,185.11 L 342.9,191.03 L 342.41,196.96 L 341.9,202.88 L 341.37,208.78 L 340.86,214.64 L 340.4,220.44 L 341.54,220.54 L 342.02,214.73 L 342.53,208.88 L 343.08,202.98 L 343.62,197.06 L 344.15,191.14 L 344.68,185.22 L 345.19,179.32 L 345.64,173.44 L 346.05,167.6 L 346.49,161.78 L 347.02,155.98 L 347.61,150.13 L 348.24,144.23 L 348.88,138.3 L 349.57,132.53 L 350.25,126.77 L 350.95,121.01 L 351.63,115.25 L 352.26,109.49 L 352.82,103.78 L 353.28,98.13 L 353.68,92.51 L 354.1,86.93 L 354.61,81.34 L 355.22,75.74 L 355.69,69.56 L 349.35,69.08 L 343.52,68.88 L 337.7,68.7 L 331.91,68.52 L 326.13,68.32 L 320.31,68.09 L 314.46,67.85 L 308.62,67.63 L 302.81,67.41 L 297.02,67.2 L 291.25,67.01 L 285.5,66.84 L 279.76,66.69 L 274.03,66.52 L 268.25,66.4 L 262.46,66.26 L 256.65,66.11 L 250.81,65.95 L 244.96,65.76 L 239.13,65.57 L 233.32,65.42 L 227.52,65.3 L 221.7,65.2 L 215.32,65.29 L 214.82,71.6 L 214.54,77.43 L 214.23,83.29 L 213.91,89.15 L 213.58,95.01 L 213.27,100.86 L 212.95,106.67 L 212.57,112.48 L 212.17,118.31 L 211.81,124.16 L 211.31,129.84 L 210.79,135.48 L 210.29,141.08 L 209.8,146.67 L 209.33,152.31 L 208.86,157.99 L 208.35,163.67 Z" fill="#1a1a1a" stroke="#1a1a1a" stroke-width="0.4" stroke-linejoin="round" />
  <polyline points="226,164.02 231.83,164.49 237.6,164.97 243.34,165.52 249.03,166.07 254.72,166.57 260.43,167.01 266.16,167.43 271.93,167.85 277.72,168.3 283.54,168.77 289.33,169.24 295.1,169.7 300.91,170.17 306.77,170.68 312.66,171.2 318.55,171.7 324.43,172.17 330.24,172.59 335.96,172.98 341.65,173.37" fill="none" stroke="#1a1a1a" stroke-width="1.146" stroke-opacity="0.32" stroke-dasharray="4,3" stroke-linecap="round" stroke-linejoin="round" />
  <polyline points="226,164.02 224.48,168.06 222.9,171.99 221.23,175.92" fill="none" stroke="#1a1a1a" stroke-width="1.149" stroke-opacity="0.32" stroke-dasharray="4,3" stroke-linecap="round" stroke-linejoin="round" />
  <path d="M 220.74,175.7 L 218.94,179.58 L 217.21,183.37 L 218.18,183.84 L 220.09,180.11 L 221.73,176.13 Z" fill="#1a1a1a" stroke="#1a1a1a" stroke-width="0.4" stroke-linejoin="round" />
  <polyline points="217.69,183.6 215.2,188.57 212.66,193.69 210.26,198.83 208,204.02 205.8,209.29 203.68,214.62 201.58,219.89" fill="none" stroke="#1a1a1a" stroke-width="1.217" stroke-opacity="0.32" stroke-dasharray="4,3" stroke-linecap="round" stroke-linejoin="round" />
  <polyline points="226,164.02 226.09,158.46 226.12,152.84 226.13,147.23 226.13,141.61 226.14,135.96 226.13,130.24 226.12,124.53 226.13,118.86 226.17,113.25 226.21,107.63 226.24,102.01 226.26,96.41 226.25,90.84 226.24,85.27 226.3,79.69" fill="none" stroke="#1a1a1a" stroke-width="1.157" stroke-opacity="0.32" stroke-dasharray="4,3" stroke-linecap="round" stroke-linejoin="round" />
  <path d="M 226.85,79.7 L 227.05,73.81 L 227.18,67.9 L 227.32,61.99 L 227.47,56.11 L 227.53,50.22 L 226.4,50.18 L 226.08,56.07 L 225.96,61.96 L 225.86,67.87 L 225.76,73.78 L 225.75,79.68 Z" fill="#1a1a1a" stroke="#1a1a1a" stroke-width="0.4" stroke-linejoin="round" />
  <polyline points="341.65,173.37 341.55,177.35 341.47,181.38 341.41,185.35" fill="none" stroke="#1a1a1a" stroke-width="1.17" stroke-opacity="0.32" stroke-dasharray="4,3" stroke-linecap="round" stroke-linejoin="round" />
  <path d="M 340.84,185.35 L 340.79,190.61 L 340.78,195.96 L 340.73,201.3 L 340.63,206.65 L 340.48,211.97 L 340.33,217.34 L 340.24,222.67 L 340.18,227.88 L 340.12,233.08 L 341.28,233.11 L 341.51,227.91 L 341.65,222.69 L 341.76,217.37 L 341.92,212.01 L 342.06,206.68 L 342.13,201.32 L 342.15,195.96 L 342.06,190.6 L 341.97,185.35 Z" fill="#1a1a1a" stroke="#1a1a1a" stroke-width="0.4" stroke-linejoin="round" />
  <polyline points="341.65,173.37 342.31,167.74 342.94,162.02 343.56,156.27 344.18,150.52 344.81,144.77 345.41,139.04 346,133.32 346.57,127.61 347.17,121.87 347.81,116.12 348.41,110.37 348.93,104.63 349.39,98.94 349.9,93.28 350.53,87.59" fill="none" stroke="#1a1a1a" stroke-width="1.18" stroke-opacity="0.32" stroke-dasharray="4,3" stroke-linecap="round" stroke-linejoin="round" />
  <path d="M 351.08,87.65 L 351.78,82.51 L 352.41,77.33 L 353.04,72.15 L 353.68,66.97 L 354.33,61.78 L 354.84,56.56 L 353.7,56.42 L 352.93,61.61 L 352.29,66.8 L 351.68,71.99 L 351.08,77.17 L 350.48,82.35 L 349.97,87.52 Z" fill="#1a1a1a" stroke="#1a1a1a" stroke-width="0.4" stroke-linejoin="round" />
  <path d="M 340.75,232.51 L 334.89,231.95 L 329.04,231.38 L 323.18,230.8 L 317.33,230.21 L 311.46,229.62 L 305.55,229.08 L 299.62,228.55 L 293.67,228.02 L 287.72,227.46 L 281.75,226.87 L 275.77,226.28 L 269.79,225.7 L 263.84,225.15 L 257.9,224.6 L 251.96,224.03 L 246.04,223.51 L 240.11,223 L 234.16,222.48 L 234.05,223.68 L 239.99,224.26 L 245.91,224.9 L 251.82,225.52 L 257.76,226.09 L 263.7,226.64 L 269.65,227.18 L 275.63,227.74 L 281.61,228.32 L 287.58,228.9 L 293.54,229.47 L 299.49,230 L 305.42,230.53 L 311.31,231.1 L 317.19,231.69 L 323.05,232.24 L 328.92,232.72 L 334.78,233.17 L 340.65,233.68 Z" fill="#1a1a1a" stroke="#1a1a1a" stroke-width="0.4" stroke-linejoin="round" />
  <polyline points="234.11,223.08 228.65,222.59 223.22,222.11 217.82,221.6 212.42,221.06 207,220.48 201.58,219.89" fill="none" stroke="#1a1a1a" stroke-width="1.261" stroke-opacity="0.32" stroke-dasharray="4,3" stroke-linecap="round" stroke-linejoin="round" />
  <path d="M 341.31,233.15 L 341.89,227.44 L 342.56,221.76 L 343.27,216.07 L 343.99,210.4 L 344.65,204.73 L 345.29,199.06 L 345.98,193.37 L 346.71,187.66 L 347.42,181.94 L 348.09,176.21 L 348.71,170.5 L 349.31,164.81 L 349.9,159.12 L 350.52,153.43 L 351.2,147.73 L 351.89,142.04 L 352.59,136.33 L 353.27,130.63 L 353.95,124.92 L 354.65,119.22 L 355.32,113.52 L 355.97,107.81 L 356.61,102.08 L 357.26,96.3 L 356.04,96.16 L 355.36,101.93 L 354.64,107.65 L 353.9,113.35 L 353.16,119.04 L 352.45,124.73 L 351.75,130.44 L 351.06,136.15 L 350.35,141.85 L 349.65,147.54 L 348.98,153.25 L 348.36,158.96 L 347.77,164.65 L 347.19,170.34 L 346.59,176.04 L 345.93,181.76 L 345.2,187.47 L 344.48,193.18 L 343.78,198.88 L 343.12,204.55 L 342.45,210.22 L 341.83,215.9 L 341.22,221.61 L 340.64,227.31 L 340.09,233.03 Z" fill="#1a1a1a" stroke="#1a1a1a" stroke-width="0.4" stroke-linejoin="round" />
  <polyline points="201.58,219.89 201.58,214.16 201.51,208.4 201.44,202.57 201.37,196.68 201.29,190.81 201.19,185.01 201.08,179.3 200.96,173.63 200.88,167.94 200.84,162.14 200.8,156.28 200.76,150.4 200.71,144.57" fill="none" stroke="#1a1a1a" stroke-width="1.28" stroke-opacity="0.32" stroke-dasharray="4,3" stroke-linecap="round" stroke-linejoin="round" />
  <path d="M 201.32,144.56 L 201.31,138.77 L 201.27,132.99 L 201.18,127.22 L 201.1,121.45 L 201,115.69 L 200.88,109.92 L 200.76,104.17 L 200.64,98.42 L 200.46,92.7 L 200.27,87.01 L 199.03,87.04 L 199.07,92.73 L 199.14,98.46 L 199.26,104.2 L 199.36,109.95 L 199.46,115.71 L 199.56,121.48 L 199.67,127.25 L 199.8,133.02 L 199.96,138.79 L 200.11,144.58 Z" fill="#1a1a1a" stroke="#1a1a1a" stroke-width="0.4" stroke-linejoin="round" />
  <path d="M 226.49,49.86 L 223.01,54.44 L 219.55,59.13 L 216.24,63.92 L 212.98,68.46 L 209.79,72.9 L 206.52,77.45 L 202.94,82.03 L 199.19,86.64 L 200.1,87.41 L 204.02,82.91 L 207.67,78.32 L 210.99,73.76 L 214.18,69.31 L 217.42,64.75 L 220.7,59.94 L 224.09,55.23 L 227.43,50.54 Z" fill="#1a1a1a" stroke="#1a1a1a" stroke-width="0.4" stroke-linejoin="round" />
  <path d="M 226.94,50.76 L 232.69,51.01 L 238.45,51.33 L 244.22,51.68 L 249.97,52.03 L 255.7,52.37 L 261.45,52.7 L 267.23,53.07 L 273.04,53.44 L 278.87,53.78 L 284.73,54.07 L 290.61,54.3 L 296.46,54.52 L 302.26,54.74 L 308.05,55.02 L 313.86,55.29 L 319.67,55.56 L 325.48,55.82 L 331.26,56.1 L 337.02,56.35 L 342.77,56.58 L 348.51,56.81 L 354.25,57.05 L 354.3,55.94 L 348.56,55.65 L 342.83,55.34 L 337.08,55.02 L 331.32,54.71 L 325.55,54.43 L 319.74,54.15 L 313.92,53.88 L 308.12,53.61 L 302.33,53.33 L 296.51,53.11 L 290.66,52.91 L 284.79,52.7 L 278.94,52.41 L 273.12,52.06 L 267.32,51.69 L 261.54,51.32 L 255.79,50.96 L 250.05,50.62 L 244.29,50.34 L 238.51,50.09 L 232.74,49.87 L 226.99,49.65 Z" fill="#1a1a1a" stroke="#1a1a1a" stroke-width="0.4" stroke-linejoin="round" />
  <path d="M 199.62,87.65 L 205.53,87.97 L 211.45,88.29 L 217.35,88.62 L 223.22,88.95 L 229.04,89.25 L 234.82,89.56 L 240.58,89.92 L 246.33,90.3 L 252.08,90.73 L 257.83,91.19 L 263.58,91.65 L 269.33,92.08 L 275.1,92.47 L 280.87,92.83 L 286.66,93.19 L 292.48,93.53 L 298.31,93.87 L 304.15,94.22 L 309.98,94.57 L 315.78,94.89 L 321.59,95.17 L 327.43,95.42 L 333.3,95.68 L 339.17,95.94 L 345,96.22 L 350.82,96.53 L 356.61,96.86 L 356.69,95.6 L 350.89,95.25 L 345.08,94.89 L 339.24,94.54 L 333.37,94.22 L 327.5,93.94 L 321.66,93.67 L 315.86,93.37 L 310.07,93.03 L 304.25,92.67 L 298.41,92.3 L 292.57,91.95 L 286.76,91.6 L 280.97,91.25 L 275.2,90.89 L 269.44,90.5 L 263.69,90.09 L 257.95,89.65 L 252.19,89.2 L 246.44,88.77 L 240.68,88.37 L 234.91,88.01 L 229.12,87.68 L 223.29,87.39 L 217.42,87.16 L 211.51,86.94 L 205.59,86.7 L 199.68,86.4 Z" fill="#1a1a1a" stroke="#1a1a1a" stroke-width="0.4" stroke-linejoin="round" />
  <path d="M 357.24,96.19 L 357.01,90.46 L 356.71,84.85 L 356.5,79.21 L 356.13,73.47 L 355.7,67.91 L 355.35,62.21 L 354.88,56.46 L 353.67,56.53 L 353.89,62.29 L 354.2,68.01 L 354.63,73.58 L 355.03,79.29 L 355.27,84.92 L 355.63,90.54 L 356.06,96.26 Z" fill="#1a1a1a" stroke="#1a1a1a" stroke-width="0.4" stroke-linejoin="round" />
  <path d="M 35.99,260.51 L 41.85,261.72 L 47.71,262.92 L 53.59,264.11 L 59.46,265.26 L 65.34,266.4 L 71.22,267.55 L 77.12,268.71 L 83.02,269.88 L 88.94,271.07 L 94.87,272.25 L 100.8,273.42 L 106.73,274.59 L 112.66,275.73 L 118.56,276.87 L 124.45,278.02 L 130.34,279.18 L 136.23,280.35 L 142.1,281.53 L 147.97,282.71 L 153.84,283.92 L 159.7,285.13 L 165.56,286.34 L 171.42,287.53 L 177.28,288.72 L 183.14,289.89 L 188.99,291.07 L 194.83,292.27 L 200.67,293.46 L 206.51,294.64 L 212.37,295.81 L 218.23,296.97 L 224.1,298.15 L 229.96,299.33 L 236.71,300.18 L 234.18,294 L 231.55,288.78 L 228.91,283.56 L 226.25,278.33 L 223.59,273.11 L 220.95,267.88 L 218.31,262.64 L 215.67,257.41 L 213.01,252.19 L 210.34,246.99 L 207.69,241.79 L 205.04,236.6 L 202.39,231.4 L 199.74,226.2 L 197.08,220.99 L 194.42,215.77 L 191.75,210.56 L 189.07,205.37 L 186.39,200.19 L 183.72,195.01 L 181.05,189.83 L 178.39,184.65 L 175.73,179.45 L 173.08,174.24 L 170.43,169.04 L 167.77,163.84 L 165.13,158.65 L 162.49,153.46 L 159.85,148.27 L 157.22,143.07 L 154.59,137.85 L 151.95,132.63 L 149.31,127.39 L 146.67,122.17 L 143.24,116.45 L 138.88,121.64 L 135.34,126.48 L 131.81,131.32 L 128.27,136.14 L 124.73,140.9 L 121.17,145.6 L 117.59,150.27 L 113.99,154.94 L 110.38,159.64 L 106.77,164.37 L 103.16,169.14 L 99.58,173.93 L 96.01,178.72 L 92.44,183.5 L 88.87,188.27 L 85.29,193.04 L 81.72,197.79 L 78.15,202.51 L 74.6,207.22 L 71.05,211.92 L 67.49,216.63 L 63.94,221.37 L 60.39,226.13 L 56.85,230.9 L 53.31,235.66 L 49.76,240.42 L 46.2,245.16 L 42.64,249.89 L 39.08,254.62 L 35.54,259.34 L 36.74,260.24 L 40.28,255.51 L 43.84,250.79 L 47.41,246.07 L 50.97,241.33 L 54.54,236.58 L 58.09,231.83 L 61.64,227.07 L 65.21,222.32 L 68.78,217.61 L 72.36,212.91 L 75.93,208.23 L 79.51,203.53 L 83.08,198.81 L 86.65,194.06 L 90.23,189.3 L 93.82,184.53 L 97.4,179.76 L 100.99,174.99 L 104.6,170.22 L 108.21,165.47 L 111.81,160.74 L 115.41,156.03 L 118.98,151.34 L 122.53,146.64 L 126.07,141.9 L 129.6,137.12 L 133.16,132.33 L 136.75,127.53 L 140.34,122.72 L 143.12,118.29 L 145,123.02 L 147.65,128.24 L 150.31,133.46 L 152.97,138.67 L 155.63,143.88 L 158.27,149.07 L 160.92,154.26 L 163.55,159.45 L 166.19,164.64 L 168.84,169.85 L 171.52,175.04 L 174.21,180.23 L 176.88,185.42 L 179.54,190.61 L 182.19,195.8 L 184.84,200.99 L 187.48,206.19 L 190.13,211.39 L 192.79,216.6 L 195.47,221.81 L 198.15,227.01 L 200.81,232.21 L 203.46,237.4 L 206.1,242.6 L 208.75,247.8 L 211.38,253.02 L 214.01,258.25 L 216.66,263.48 L 219.31,268.7 L 221.96,273.93 L 224.6,279.17 L 227.23,284.4 L 229.89,289.62 L 232.54,294.83 L 235.29,299.05 L 230.31,297.57 L 224.45,296.41 L 218.58,295.24 L 212.72,294.05 L 206.87,292.86 L 201.04,291.67 L 195.2,290.48 L 189.35,289.3 L 183.5,288.13 L 177.64,286.94 L 171.78,285.76 L 165.92,284.57 L 160.06,283.38 L 154.19,282.19 L 148.32,281.01 L 142.44,279.83 L 136.56,278.66 L 130.68,277.49 L 124.79,276.33 L 118.89,275.16 L 112.99,274 L 107.07,272.84 L 101.14,271.69 L 95.2,270.55 L 89.27,269.4 L 83.34,268.25 L 77.43,267.11 L 71.53,265.98 L 65.64,264.85 L 59.76,263.73 L 53.88,262.61 L 48.01,261.46 L 42.14,260.28 L 36.29,259.07 Z" fill="#1a1a1a" stroke="#1a1a1a" stroke-width="0.4" stroke-linejoin="round" />
  <path d="M 64.42,200.39 L 61.7,205.59 L 58.99,210.62 L 56.51,215.66 L 54.22,220.87 L 51.73,226.14 L 49.26,231.43 L 46.73,236.54 L 44.07,241.76 L 41.4,246.95 L 38.84,251.99 L 36.31,257.12 L 33.79,262.38 L 31.34,267.67 L 28.93,272.9 L 26.42,278.08 L 23.95,283.29 L 21.49,288.62 L 22.84,289.26 L 25.36,283.96 L 27.96,278.84 L 30.58,273.7 L 33.05,268.46 L 35.52,263.19 L 38.03,257.96 L 40.55,252.84 L 43.1,247.82 L 45.76,242.62 L 48.41,237.38 L 50.96,232.25 L 53.45,226.95 L 55.95,221.65 L 58.21,216.44 L 60.55,211.4 L 63.09,206.31 L 65.75,201.08 Z" fill="#1a1a1a" stroke="#1a1a1a" stroke-width="0.4" stroke-linejoin="round" />
  <path d="M 64.69,201.4 L 69.91,204.45 L 75.12,207.48 L 80.32,210.51 L 85.53,213.53 L 90.73,216.53 L 95.94,219.53 L 101.15,222.53 L 106.35,225.53 L 111.53,228.53 L 116.71,231.54 L 121.87,234.54 L 127.04,237.55 L 132.22,240.55 L 137.42,243.53 L 142.62,246.52 L 147.79,249.5 L 152.94,252.5 L 158.11,255.51 L 163.29,258.53 L 168.49,261.55 L 173.7,264.57 L 178.91,267.57 L 184.09,270.55 L 189.25,273.53 L 194.41,276.52 L 199.56,279.53 L 204.7,282.54 L 209.85,285.56 L 215.01,288.56 L 220.19,291.55 L 225.39,294.55 L 230.57,297.57 L 235.73,300.59 L 240.87,303.59 L 246.01,306.58 L 251.16,309.56 L 256.34,312.53 L 261.52,315.5 L 266.71,318.48 L 271.89,321.49 L 277.07,324.51 L 277.87,323.14 L 272.69,320.11 L 267.53,317.07 L 262.39,314.02 L 257.25,310.97 L 252.1,307.95 L 246.96,304.94 L 241.83,301.95 L 236.68,298.95 L 231.51,295.96 L 226.32,292.95 L 221.14,289.93 L 215.97,286.91 L 210.82,283.9 L 205.66,280.89 L 200.51,277.89 L 195.36,274.89 L 190.2,271.89 L 185.04,268.9 L 179.85,265.92 L 174.64,262.94 L 169.41,259.95 L 164.21,256.95 L 159.02,253.94 L 153.85,250.94 L 148.69,247.94 L 143.53,244.94 L 138.35,241.92 L 133.18,238.89 L 128.02,235.86 L 122.86,232.85 L 117.7,229.83 L 112.52,226.83 L 107.32,223.84 L 102.11,220.85 L 96.89,217.87 L 91.66,214.91 L 86.42,211.97 L 81.17,209.02 L 75.92,206.08 L 70.69,203.1 L 65.47,200.07 Z" fill="#1a1a1a" stroke="#1a1a1a" stroke-width="0.4" stroke-linejoin="round" />
  <path d="M 65.63,201.24 L 69.64,196.91 L 73.67,192.61 L 77.74,188.35 L 81.83,184.12 L 85.93,179.89 L 90,175.61 L 94.04,171.28 L 98.09,166.93 L 102.19,162.59 L 106.3,158.28 L 110.35,153.96 L 114.37,149.62 L 118.43,145.29 L 122.53,140.97 L 126.61,136.6 L 130.67,132.13 L 134.7,127.63 L 138.7,123.2 L 142.65,118.78 L 146.57,114.4 L 150.52,110.05 L 154.59,105.73 L 158.72,101.38 L 162.87,96.96 L 167.03,92.59 L 171.18,88.25 L 175.31,83.91 L 174.21,82.86 L 170.07,87.18 L 165.86,91.45 L 161.62,95.76 L 157.4,100.12 L 153.25,104.47 L 149.19,108.83 L 145.25,113.21 L 141.33,117.6 L 137.38,122.02 L 133.4,126.46 L 129.37,130.96 L 125.31,135.39 L 121.21,139.73 L 117.08,144.01 L 112.99,148.33 L 108.96,152.66 L 104.91,156.97 L 100.8,161.28 L 96.7,165.64 L 92.66,170 L 88.64,174.32 L 84.56,178.57 L 80.48,182.84 L 76.46,187.15 L 72.48,191.5 L 68.52,195.87 L 64.53,200.23 Z" fill="#1a1a1a" stroke="#1a1a1a" stroke-width="0.4" stroke-linejoin="round" />
  <path d="M 22.07,289.62 L 27.94,290.43 L 33.83,291.25 L 39.75,292.06 L 45.68,292.86 L 51.61,293.67 L 57.55,294.46 L 63.51,295.25 L 69.49,296 L 75.48,296.73 L 81.47,297.45 L 87.47,298.19 L 93.45,298.98 L 99.43,299.81 L 105.38,300.67 L 111.31,301.55 L 117.23,302.45 L 123.13,303.34 L 129.03,304.21 L 134.92,305.02 L 140.82,305.77 L 146.73,306.49 L 152.64,307.21 L 158.57,307.97 L 164.5,308.78 L 170.44,309.63 L 176.38,310.51 L 182.31,311.42 L 188.25,312.32 L 194.21,313.2 L 200.19,314.03 L 206.15,314.83 L 212.1,315.63 L 218.02,316.44 L 223.93,317.26 L 229.83,318.13 L 235.75,319.03 L 241.7,319.9 L 247.67,320.72 L 253.64,321.51 L 259.58,322.27 L 265.51,323.01 L 271.43,323.76 L 277.38,324.52 L 277.56,323.14 L 271.61,322.35 L 265.69,321.57 L 259.78,320.78 L 253.85,319.96 L 247.9,319.11 L 241.95,318.21 L 236.01,317.32 L 230.08,316.44 L 224.16,315.59 L 218.25,314.77 L 212.32,313.99 L 206.37,313.2 L 200.42,312.38 L 194.45,311.52 L 188.5,310.64 L 182.56,309.74 L 176.63,308.85 L 170.68,307.97 L 164.73,307.11 L 158.79,306.29 L 152.85,305.54 L 146.93,304.84 L 141.02,304.15 L 135.13,303.41 L 129.25,302.61 L 123.37,301.75 L 117.47,300.86 L 111.56,299.95 L 105.62,299.03 L 99.67,298.13 L 93.69,297.27 L 87.69,296.46 L 81.68,295.71 L 75.69,294.99 L 69.7,294.27 L 63.73,293.54 L 57.77,292.8 L 51.82,292.04 L 45.88,291.3 L 39.95,290.57 L 34.02,289.83 L 28.13,289.06 L 22.26,288.26 Z" fill="#1a1a1a" stroke="#1a1a1a" stroke-width="0.4" stroke-linejoin="round" />
  <path d="M 22.7,289.33 L 26.22,284.63 L 29.79,279.94 L 33.32,275.28 L 36.83,270.66 L 40.33,266.07 L 43.83,261.47 L 47.34,256.83 L 50.87,252.16 L 54.38,247.47 L 57.87,242.77 L 61.33,238.08 L 64.77,233.36 L 68.15,228.6 L 71.54,223.84 L 70.45,223.04 L 66.96,227.73 L 63.43,232.37 L 59.96,237.06 L 56.49,241.76 L 53.01,246.45 L 49.51,251.14 L 46,255.81 L 42.49,260.45 L 38.98,265.05 L 35.48,269.64 L 31.98,274.27 L 28.51,278.99 L 25.07,283.78 L 21.62,288.54 Z" fill="#1a1a1a" stroke="#1a1a1a" stroke-width="0.4" stroke-linejoin="round" />
  <polyline points="71,223.44 74.54,218.55 78.09,213.66 81.65,208.76 85.22,203.89 88.8,199.08 92.38,194.3 95.94,189.53" fill="none" stroke="#1a1a1a" stroke-width="1.442" stroke-opacity="0.32" stroke-dasharray="4,3" stroke-linecap="round" stroke-linejoin="round" />
  <path d="M 96.48,189.93 L 100.05,185.15 L 103.63,180.36 L 107.22,175.56 L 110.79,170.74 L 114.35,165.91 L 117.92,161.09 L 121.51,156.29 L 125.09,151.5 L 128.66,146.7 L 132.22,141.9 L 135.76,137.07 L 139.31,132.23 L 142.85,127.38 L 146.42,122.52 L 150.04,117.67 L 153.71,112.81 L 157.4,107.97 L 161.05,103.12 L 164.65,98.28 L 168.21,93.43 L 171.75,88.6 L 175.3,83.79 L 174.21,82.98 L 170.63,87.77 L 167.03,92.56 L 163.41,97.35 L 159.79,102.18 L 156.15,107.02 L 152.46,111.87 L 148.78,116.72 L 145.13,121.56 L 141.52,126.39 L 137.94,131.23 L 134.39,136.07 L 130.84,140.89 L 127.29,145.69 L 123.73,150.49 L 120.16,155.29 L 116.58,160.09 L 112.99,164.9 L 109.42,169.74 L 105.91,174.6 L 102.43,179.48 L 98.94,184.33 L 95.41,189.14 Z" fill="#1a1a1a" stroke="#1a1a1a" stroke-width="0.4" stroke-linejoin="round" />
  <path d="M 278.09,323.55 L 275.71,318.09 L 273.37,312.62 L 271.07,307.13 L 268.8,301.64 L 266.54,296.14 L 264.28,290.65 L 262,285.15 L 259.7,279.66 L 257.35,274.16 L 254.99,268.67 L 252.64,263.19 L 250.3,257.7 L 247.95,252.21 L 245.59,246.7 L 243.25,241.2 L 240.91,235.71 L 238.56,230.24 L 236.2,224.79 L 233.83,219.34 L 231.44,213.89 L 229.07,208.45 L 226.74,203.04 L 224.43,197.64 L 222.13,192.24 L 219.81,186.83 L 217.48,181.42 L 215.14,175.99 L 212.79,170.55 L 210.45,165.11 L 208.1,159.67 L 205.77,154.21 L 203.45,148.74 L 201.13,143.26 L 198.81,137.77 L 196.49,132.28 L 194.16,126.79 L 191.83,121.29 L 189.45,115.8 L 187.05,110.32 L 184.67,104.86 L 182.34,99.41 L 180.03,93.99 L 177.71,88.56 L 175.39,83.11 L 174.12,83.65 L 176.42,89.11 L 178.68,94.55 L 180.95,100 L 183.25,105.47 L 185.57,110.96 L 187.9,116.47 L 190.23,121.97 L 192.58,127.46 L 194.92,132.94 L 197.26,138.43 L 199.6,143.91 L 201.93,149.38 L 204.26,154.85 L 206.57,160.32 L 208.89,165.78 L 211.23,171.23 L 213.59,176.66 L 215.94,182.09 L 218.27,187.5 L 220.58,192.9 L 222.88,198.3 L 225.2,203.7 L 227.56,209.12 L 229.95,214.54 L 232.35,219.99 L 234.72,225.43 L 237.09,230.88 L 239.43,236.34 L 241.76,241.84 L 244.07,247.35 L 246.38,252.87 L 248.7,258.38 L 251.04,263.87 L 253.39,269.36 L 255.75,274.85 L 258.1,280.33 L 260.43,285.81 L 262.74,291.29 L 265.03,296.77 L 267.35,302.24 L 269.69,307.72 L 272.06,313.18 L 274.45,318.64 L 276.84,324.1 Z" fill="#1a1a1a" stroke="#1a1a1a" stroke-width="0.4" stroke-linejoin="round" />
</g></g>
<g clip-path="url(#clip-0-1)"><g transform="translate(452,0)">  <rect width="430" height="380" fill="#faf9f5" />
  <path d="M 343.55,70 L 347.18,71.19 L 350.82,72.37 L 354.46,73.53 L 354.66,72.93 L 351.03,71.71 L 347.39,70.53 L 343.74,69.4 Z" fill="#1a1a1a" fill-opacity="0.55" stroke="#1a1a1a" stroke-width="0.4" stroke-opacity="0.55" stroke-linejoin="round" />
  <path d="M 314.43,68.86 L 318.01,70.05 L 321.59,71.25 L 325.17,72.42 L 328.76,73.57 L 332.37,74.71 L 335.97,75.85 L 339.56,77.01 L 343.13,78.18 L 346.68,79.35 L 350.23,80.51 L 353.77,81.65 L 353.97,81.05 L 350.43,79.89 L 346.89,78.71 L 343.34,77.53 L 339.77,76.35 L 336.18,75.2 L 332.58,74.05 L 328.97,72.91 L 325.39,71.76 L 321.81,70.59 L 318.22,69.42 L 314.63,68.26 Z" fill="#1a1a1a" fill-opacity="0.55" stroke="#1a1a1a" stroke-width="0.4" stroke-opacity="0.55" stroke-linejoin="round" />
  <path d="M 285.45,68.05 L 289.17,69.31 L 292.9,70.54 L 296.62,71.75 L 300.37,72.95 L 304.15,74.17 L 307.95,75.39 L 311.73,76.62 L 315.48,77.84 L 319.2,79.05 L 322.91,80.25 L 326.61,81.47 L 330.33,82.68 L 334.06,83.9 L 337.81,85.11 L 341.57,86.31 L 345.35,87.49 L 349.12,88.67 L 352.9,89.86 L 353.09,89.25 L 349.32,88.04 L 345.56,86.82 L 341.79,85.62 L 338.03,84.42 L 334.28,83.22 L 330.54,82.02 L 326.83,80.81 L 323.12,79.61 L 319.41,78.41 L 315.69,77.19 L 311.94,75.97 L 308.16,74.74 L 304.37,73.51 L 300.59,72.29 L 296.84,71.08 L 293.1,69.89 L 289.38,68.69 L 285.65,67.45 Z" fill="#1a1a1a" fill-opacity="0.55" stroke="#1a1a1a" stroke-width="0.4" stroke-opacity="0.55" stroke-linejoin="round" />
  <path d="M 256.87,67.1 L 260.54,68.28 L 264.21,69.48 L 267.92,70.69 L 271.64,71.9 L 275.36,73.1 L 279.08,74.3 L 282.79,75.5 L 286.47,76.69 L 290.14,77.88 L 293.81,79.07 L 297.48,80.26 L 301.14,81.46 L 304.79,82.66 L 308.43,83.87 L 312.07,85.08 L 315.71,86.28 L 319.35,87.48 L 323,88.65 L 326.66,89.8 L 330.32,90.94 L 334,92.07 L 337.67,93.22 L 341.33,94.35 L 344.98,95.48 L 348.65,96.63 L 352.31,97.79 L 352.5,97.19 L 348.84,96.02 L 345.18,94.87 L 341.53,93.72 L 337.87,92.56 L 334.2,91.41 L 330.53,90.27 L 326.87,89.12 L 323.21,87.97 L 319.57,86.8 L 315.93,85.61 L 312.29,84.41 L 308.65,83.2 L 305.01,81.99 L 301.36,80.79 L 297.7,79.59 L 294.03,78.4 L 290.36,77.21 L 286.69,76.02 L 283.01,74.82 L 279.3,73.63 L 275.58,72.42 L 271.86,71.22 L 268.13,70.03 L 264.42,68.85 L 260.74,67.67 L 257.07,66.49 Z" fill="#1a1a1a" fill-opacity="0.55" stroke="#1a1a1a" stroke-width="0.4" stroke-opacity="0.55" stroke-linejoin="round" />
  <path d="M 228.97,66.25 L 232.67,67.48 L 236.35,68.69 L 240.04,69.89 L 243.74,71.09 L 247.43,72.31 L 251.12,73.53 L 254.81,74.77 L 258.5,76.01 L 262.19,77.26 L 265.88,78.5 L 269.57,79.71 L 273.28,80.91 L 277,82.08 L 280.73,83.25 L 280.92,82.64 L 277.2,81.45 L 273.49,80.25 L 269.79,79.04 L 266.1,77.82 L 262.42,76.59 L 258.73,75.34 L 255.03,74.1 L 251.34,72.87 L 247.65,71.65 L 243.95,70.44 L 240.25,69.24 L 236.56,68.05 L 232.87,66.86 L 229.17,65.66 Z" fill="#1a1a1a" fill-opacity="0.55" stroke="#1a1a1a" stroke-width="0.4" stroke-opacity="0.55" stroke-linejoin="round" />
  <path d="M 336.58,101.3 L 340.29,102.55 L 344.01,103.77 L 347.72,104.98 L 351.45,106.16 L 351.64,105.56 L 347.94,104.32 L 344.22,103.12 L 340.5,101.9 L 336.78,100.7 Z" fill="#1a1a1a" fill-opacity="0.55" stroke="#1a1a1a" stroke-width="0.4" stroke-opacity="0.55" stroke-linejoin="round" />
  <path d="M 215.45,70.52 L 219.15,71.75 L 222.85,72.98 L 226.56,74.19 L 230.3,75.38 L 234.06,76.55 L 237.83,77.71 L 241.61,78.88 L 245.39,80.05 L 249.18,81.22 L 252.96,82.4 L 256.74,83.59 L 260.52,84.81 L 264.28,86.03 L 268.03,87.26 L 268.23,86.66 L 264.49,85.4 L 260.73,84.14 L 256.96,82.92 L 253.17,81.72 L 249.39,80.54 L 245.6,79.37 L 241.82,78.2 L 238.04,77.04 L 234.27,75.88 L 230.51,74.71 L 226.77,73.53 L 223.06,72.33 L 219.36,71.13 L 215.65,69.93 Z" fill="#1a1a1a" fill-opacity="0.55" stroke="#1a1a1a" stroke-width="0.4" stroke-opacity="0.55" stroke-linejoin="round" />
  <path d="M 331.9,108.1 L 335.63,109.38 L 339.36,110.63 L 343.09,111.87 L 346.81,113.1 L 350.55,114.3 L 350.75,113.7 L 347.03,112.45 L 343.3,111.21 L 339.58,109.97 L 335.85,108.72 L 332.1,107.5 Z" fill="#1a1a1a" fill-opacity="0.55" stroke="#1a1a1a" stroke-width="0.4" stroke-opacity="0.55" stroke-linejoin="round" />
  <path d="M 214.97,78.43 L 218.71,79.68 L 222.43,80.96 L 226.16,82.23 L 229.89,83.49 L 233.63,84.76 L 237.38,86.04 L 241.14,87.3 L 244.9,88.55 L 248.66,89.77 L 252.41,90.96 L 256.15,92.14 L 259.9,93.31 L 260.09,92.71 L 256.35,91.51 L 252.62,90.3 L 248.87,89.11 L 245.12,87.89 L 241.36,86.65 L 237.6,85.39 L 233.85,84.11 L 230.11,82.84 L 226.39,81.57 L 222.66,80.3 L 218.92,79.06 L 215.17,77.83 Z" fill="#1a1a1a" fill-opacity="0.55" stroke="#1a1a1a" stroke-width="0.4" stroke-opacity="0.55" stroke-linejoin="round" />
  <path d="M 327.24,115.17 L 331,116.41 L 334.77,117.6 L 338.53,118.79 L 342.28,119.96 L 346.04,121.13 L 349.81,122.27 L 349.99,121.67 L 346.25,120.47 L 342.49,119.3 L 338.74,118.11 L 334.98,116.93 L 331.22,115.73 L 327.44,114.56 Z" fill="#1a1a1a" fill-opacity="0.55" stroke="#1a1a1a" stroke-width="0.4" stroke-opacity="0.55" stroke-linejoin="round" />
  <path d="M 214.26,86.9 L 218,88.07 L 221.75,89.26 L 225.51,90.44 L 229.26,91.62 L 233,92.81 L 236.72,94 L 240.43,95.21 L 244.14,96.44 L 247.87,97.69 L 251.6,98.94 L 255.35,100.16 L 259.1,101.37 L 259.3,100.78 L 255.55,99.53 L 251.82,98.28 L 248.09,97.03 L 244.37,95.78 L 240.65,94.55 L 236.93,93.33 L 233.21,92.13 L 229.48,90.94 L 225.73,89.75 L 221.97,88.57 L 218.2,87.42 L 214.45,86.29 Z" fill="#1a1a1a" fill-opacity="0.55" stroke="#1a1a1a" stroke-width="0.4" stroke-opacity="0.55" stroke-linejoin="round" />
  <path d="M 322.88,122.18 L 326.57,123.46 L 330.27,124.7 L 333.98,125.94 L 337.69,127.17 L 341.42,128.4 L 345.14,129.62 L 348.86,130.81 L 349.06,130.21 L 345.35,128.97 L 341.64,127.74 L 337.91,126.51 L 334.2,125.27 L 330.49,124.03 L 326.79,122.8 L 323.08,121.58 Z" fill="#1a1a1a" fill-opacity="0.55" stroke="#1a1a1a" stroke-width="0.4" stroke-opacity="0.55" stroke-linejoin="round" />
  <path d="M 214.14,95.07 L 217.84,96.28 L 221.55,97.5 L 225.27,98.69 L 228.98,99.89 L 232.69,101.08 L 236.39,102.29 L 240.09,103.5 L 243.8,104.72 L 247.52,105.95 L 251.24,107.18 L 254.97,108.42 L 258.72,109.64 L 262.47,110.86 L 262.66,110.26 L 258.93,109.01 L 255.19,107.75 L 251.46,106.51 L 247.74,105.27 L 244.02,104.05 L 240.31,102.83 L 236.61,101.62 L 232.9,100.41 L 229.2,99.21 L 225.49,98.01 L 221.77,96.82 L 218.05,95.64 L 214.33,94.46 Z" fill="#1a1a1a" fill-opacity="0.55" stroke="#1a1a1a" stroke-width="0.4" stroke-opacity="0.55" stroke-linejoin="round" />
  <path d="M 318.26,128.83 L 321.97,130.09 L 325.7,131.32 L 329.43,132.54 L 333.18,133.77 L 336.93,135 L 340.68,136.23 L 344.43,137.46 L 348.18,138.67 L 348.38,138.06 L 344.64,136.8 L 340.9,135.56 L 337.15,134.33 L 333.4,133.1 L 329.65,131.88 L 325.91,130.66 L 322.18,129.44 L 318.46,128.23 Z" fill="#1a1a1a" fill-opacity="0.55" stroke="#1a1a1a" stroke-width="0.4" stroke-opacity="0.55" stroke-linejoin="round" />
  <path d="M 213.53,103.3 L 217.24,104.53 L 220.95,105.77 L 224.66,106.98 L 228.37,108.19 L 232.09,109.4 L 235.83,110.61 L 239.57,111.81 L 243.31,113.03 L 247.05,114.25 L 250.79,115.47 L 254.52,116.69 L 258.24,117.91 L 261.96,119.11 L 265.69,120.3 L 265.88,119.7 L 262.17,118.48 L 258.45,117.26 L 254.73,116.04 L 251,114.82 L 247.27,113.6 L 243.52,112.39 L 239.77,111.18 L 236.03,109.97 L 232.3,108.76 L 228.58,107.55 L 224.87,106.34 L 221.16,105.13 L 217.45,103.92 L 213.73,102.71 Z" fill="#1a1a1a" fill-opacity="0.55" stroke="#1a1a1a" stroke-width="0.4" stroke-opacity="0.55" stroke-linejoin="round" />
  <path d="M 310.28,134.58 L 314.03,135.81 L 317.78,137.02 L 321.52,138.23 L 325.25,139.43 L 328.97,140.64 L 332.69,141.85 L 336.4,143.07 L 340.12,144.31 L 343.85,145.54 L 347.59,146.76 L 347.79,146.16 L 344.06,144.88 L 340.34,143.62 L 336.62,142.39 L 332.91,141.17 L 329.19,139.96 L 325.47,138.77 L 321.73,137.58 L 317.99,136.38 L 314.23,135.19 L 310.48,133.99 Z" fill="#1a1a1a" fill-opacity="0.55" stroke="#1a1a1a" stroke-width="0.4" stroke-opacity="0.55" stroke-linejoin="round" />
  <path d="M 213.21,111.7 L 216.91,112.92 L 220.6,114.14 L 224.29,115.36 L 227.98,116.58 L 231.68,117.8 L 235.37,119.01 L 239.06,120.21 L 242.76,121.4 L 246.46,122.61 L 250.19,123.81 L 253.93,125.01 L 257.68,126.2 L 261.44,127.39 L 265.2,128.57 L 268.95,129.76 L 272.69,130.95 L 272.88,130.35 L 269.15,129.14 L 265.4,127.94 L 261.65,126.74 L 257.89,125.55 L 254.14,124.36 L 250.4,123.16 L 246.67,121.96 L 242.97,120.76 L 239.27,119.55 L 235.58,118.35 L 231.89,117.14 L 228.2,115.92 L 224.51,114.7 L 220.81,113.49 L 217.11,112.3 L 213.41,111.1 Z" fill="#1a1a1a" fill-opacity="0.55" stroke="#1a1a1a" stroke-width="0.4" stroke-opacity="0.55" stroke-linejoin="round" />
  <path d="M 294.94,138.13 L 298.69,139.34 L 302.42,140.55 L 306.13,141.74 L 309.83,142.93 L 313.51,144.13 L 317.19,145.33 L 320.86,146.54 L 324.54,147.75 L 328.21,148.96 L 331.9,150.17 L 335.59,151.37 L 339.28,152.57 L 342.98,153.75 L 346.67,154.95 L 346.86,154.35 L 343.18,153.14 L 339.49,151.92 L 335.8,150.72 L 332.11,149.52 L 328.43,148.31 L 324.75,147.1 L 321.08,145.89 L 317.41,144.67 L 313.73,143.47 L 310.04,142.26 L 306.35,141.07 L 302.63,139.87 L 298.89,138.7 L 295.14,137.52 Z" fill="#1a1a1a" fill-opacity="0.55" stroke="#1a1a1a" stroke-width="0.4" stroke-opacity="0.55" stroke-linejoin="round" />
  <path d="M 212.45,119.84 L 216.18,121.01 L 219.91,122.19 L 223.64,123.37 L 227.37,124.56 L 231.09,125.75 L 234.81,126.95 L 238.52,128.16 L 242.22,129.37 L 245.93,130.58 L 249.63,131.8 L 253.33,133.01 L 257.02,134.23 L 260.72,135.45 L 264.42,136.67 L 268.14,137.88 L 271.87,139.09 L 275.61,140.29 L 279.35,141.48 L 283.1,142.66 L 286.84,143.85 L 290.56,145.04 L 294.28,146.23 L 297.98,147.42 L 301.68,148.62 L 305.38,149.83 L 309.06,151.06 L 312.74,152.28 L 316.42,153.51 L 320.11,154.74 L 323.79,155.97 L 327.49,157.18 L 331.18,158.38 L 334.88,159.58 L 338.57,160.78 L 342.26,161.97 L 345.94,163.18 L 346.14,162.57 L 342.46,161.37 L 338.77,160.16 L 335.08,158.95 L 331.39,157.74 L 327.7,156.53 L 324.01,155.31 L 320.32,154.09 L 316.64,152.86 L 312.96,151.63 L 309.28,150.4 L 305.59,149.17 L 301.9,147.96 L 298.2,146.75 L 294.49,145.56 L 290.78,144.36 L 287.05,143.17 L 283.31,141.99 L 279.57,140.8 L 275.82,139.61 L 272.09,138.41 L 268.36,137.21 L 264.64,135.99 L 260.94,134.78 L 257.24,133.56 L 253.55,132.34 L 249.86,131.12 L 246.15,129.9 L 242.45,128.68 L 238.74,127.47 L 235.03,126.27 L 231.31,125.08 L 227.58,123.91 L 223.84,122.74 L 220.1,121.58 L 216.36,120.41 L 212.64,119.24 Z" fill="#1a1a1a" fill-opacity="0.55" stroke="#1a1a1a" stroke-width="0.4" stroke-opacity="0.55" stroke-linejoin="round" />
  <path d="M 212.09,128.01 L 215.78,129.23 L 219.47,130.45 L 223.16,131.68 L 226.84,132.9 L 230.53,134.13 L 234.21,135.34 L 237.9,136.56 L 241.59,137.77 L 245.27,138.97 L 248.96,140.17 L 252.64,141.36 L 256.32,142.55 L 260,143.74 L 263.69,144.93 L 267.39,146.12 L 271.11,147.33 L 274.83,148.53 L 278.56,149.74 L 282.28,150.94 L 285.99,152.15 L 289.68,153.35 L 293.37,154.56 L 297.06,155.76 L 300.75,156.97 L 304.45,158.16 L 308.15,159.35 L 311.85,160.54 L 315.54,161.71 L 319.25,162.89 L 322.96,164.07 L 326.67,165.25 L 330.39,166.43 L 334.11,167.61 L 337.82,168.79 L 341.51,169.98 L 345.19,171.18 L 345.39,170.57 L 341.71,169.36 L 338.02,168.16 L 334.31,166.96 L 330.6,165.77 L 326.89,164.58 L 323.17,163.39 L 319.46,162.21 L 315.76,161.03 L 312.06,159.86 L 308.37,158.68 L 304.66,157.49 L 300.97,156.29 L 297.28,155.09 L 293.59,153.89 L 289.9,152.68 L 286.21,151.47 L 282.5,150.26 L 278.78,149.06 L 275.05,147.85 L 271.32,146.65 L 267.61,145.46 L 263.9,144.27 L 260.22,143.08 L 256.53,141.89 L 252.85,140.7 L 249.17,139.51 L 245.49,138.31 L 241.8,137.11 L 238.11,135.91 L 234.43,134.7 L 230.74,133.49 L 227.05,132.28 L 223.36,131.06 L 219.67,129.85 L 215.98,128.63 L 212.29,127.42 Z" fill="#1a1a1a" fill-opacity="0.55" stroke="#1a1a1a" stroke-width="0.4" stroke-opacity="0.55" stroke-linejoin="round" />
  <path d="M 211.27,136.32 L 214.95,137.47 L 218.64,138.63 L 222.33,139.78 L 226.01,140.95 L 229.69,142.12 L 233.36,143.3 L 237.03,144.48 L 240.7,145.68 L 244.38,146.89 L 248.08,148.11 L 251.79,149.34 L 255.51,150.56 L 259.24,151.78 L 262.96,153 L 266.68,154.21 L 270.39,155.43 L 274.1,156.65 L 277.81,157.88 L 281.54,159.11 L 285.27,160.34 L 289.01,161.56 L 292.76,162.77 L 296.5,163.97 L 300.23,165.16 L 303.95,166.34 L 307.65,167.54 L 311.34,168.74 L 315.02,169.96 L 318.7,171.18 L 322.37,172.41 L 326.04,173.63 L 329.72,174.83 L 333.41,176.02 L 337.13,177.19 L 340.85,178.36 L 344.59,179.55 L 344.79,178.94 L 341.05,177.76 L 337.32,176.57 L 333.62,175.38 L 329.93,174.19 L 326.25,172.98 L 322.58,171.75 L 318.91,170.53 L 315.24,169.31 L 311.55,168.1 L 307.86,166.9 L 304.16,165.7 L 300.44,164.51 L 296.71,163.32 L 292.97,162.12 L 289.23,160.9 L 285.49,159.68 L 281.76,158.44 L 278.04,157.2 L 274.33,155.97 L 270.61,154.74 L 266.9,153.53 L 263.18,152.32 L 259.46,151.11 L 255.73,149.89 L 252.01,148.67 L 248.3,147.45 L 244.6,146.23 L 240.92,145.02 L 237.24,143.83 L 233.57,142.64 L 229.89,141.47 L 226.21,140.31 L 222.52,139.16 L 218.83,138.02 L 215.14,136.87 L 211.45,135.73 Z" fill="#1a1a1a" fill-opacity="0.55" stroke="#1a1a1a" stroke-width="0.4" stroke-opacity="0.55" stroke-linejoin="round" />
  <path d="M 210.37,144.48 L 214.1,145.67 L 217.83,146.86 L 221.56,148.05 L 225.29,149.23 L 229.02,150.41 L 232.73,151.58 L 236.45,152.76 L 240.15,153.95 L 243.86,155.14 L 247.57,156.34 L 251.28,157.55 L 255,158.77 L 258.73,159.99 L 262.45,161.22 L 266.17,162.44 L 269.88,163.65 L 273.58,164.86 L 277.28,166.06 L 280.98,167.27 L 284.67,168.49 L 288.36,169.71 L 292.05,170.94 L 295.73,172.18 L 299.42,173.42 L 303.11,174.67 L 306.82,175.91 L 310.53,177.14 L 314.25,178.36 L 317.96,179.56 L 321.66,180.75 L 325.35,181.93 L 329.03,183.11 L 332.73,184.28 L 336.45,185.45 L 340.18,186.63 L 343.92,187.83 L 344.12,187.22 L 340.38,186.03 L 336.65,184.83 L 332.93,183.64 L 329.24,182.46 L 325.56,181.27 L 321.87,180.09 L 318.17,178.9 L 314.46,177.7 L 310.75,176.48 L 307.04,175.25 L 303.34,174.01 L 299.64,172.76 L 295.96,171.51 L 292.27,170.27 L 288.58,169.03 L 284.89,167.81 L 281.2,166.59 L 277.5,165.39 L 273.8,164.18 L 270.1,162.97 L 266.39,161.76 L 262.67,160.54 L 258.95,159.32 L 255.22,158.1 L 251.49,156.89 L 247.78,155.68 L 244.07,154.48 L 240.37,153.29 L 236.66,152.1 L 232.94,150.92 L 229.22,149.75 L 225.49,148.59 L 221.75,147.43 L 218.02,146.26 L 214.29,145.08 L 210.56,143.88 Z" fill="#1a1a1a" fill-opacity="0.55" stroke="#1a1a1a" stroke-width="0.4" stroke-opacity="0.55" stroke-linejoin="round" />
  <path d="M 209.75,152.8 L 213.47,153.96 L 217.19,155.11 L 220.92,156.26 L 224.65,157.42 L 228.39,158.59 L 232.12,159.78 L 235.84,160.98 L 239.56,162.19 L 243.27,163.4 L 246.98,164.61 L 250.68,165.83 L 254.37,167.05 L 258.04,168.27 L 261.71,169.5 L 265.38,170.73 L 269.05,171.96 L 272.73,173.19 L 276.4,174.41 L 280.07,175.64 L 283.72,176.87 L 287.37,178.09 L 291.02,179.3 L 294.67,180.5 L 298.33,181.7 L 302.02,182.89 L 305.72,184.07 L 309.44,185.26 L 313.17,186.44 L 316.89,187.62 L 320.61,188.8 L 324.32,189.98 L 328.04,191.16 L 331.76,192.34 L 335.49,193.53 L 339.22,194.73 L 342.96,195.94 L 343.15,195.34 L 339.42,194.13 L 335.69,192.91 L 331.96,191.71 L 328.25,190.5 L 324.53,189.31 L 320.82,188.12 L 317.1,186.94 L 313.38,185.75 L 309.66,184.57 L 305.94,183.39 L 302.23,182.21 L 298.55,181.03 L 294.89,179.83 L 291.24,178.63 L 287.59,177.42 L 283.94,176.2 L 280.29,174.98 L 276.62,173.75 L 272.95,172.52 L 269.28,171.29 L 265.61,170.05 L 261.94,168.82 L 258.27,167.59 L 254.59,166.37 L 250.9,165.16 L 247.2,163.95 L 243.49,162.74 L 239.78,161.53 L 236.06,160.32 L 232.33,159.12 L 228.59,157.94 L 224.85,156.78 L 221.11,155.63 L 217.38,154.5 L 213.66,153.36 L 209.94,152.2 Z" fill="#1a1a1a" fill-opacity="0.55" stroke="#1a1a1a" stroke-width="0.4" stroke-opacity="0.55" stroke-linejoin="round" />
  <path d="M 208.84,160.79 L 212.57,161.99 L 216.3,163.2 L 220.04,164.41 L 223.79,165.62 L 227.55,166.83 L 231.31,168.04 L 235.07,169.26 L 238.82,170.46 L 242.55,171.68 L 246.27,172.91 L 249.96,174.15 L 253.62,175.38 L 257.27,176.61 L 260.92,177.84 L 264.58,179.04 L 268.25,180.24 L 271.94,181.43 L 275.63,182.63 L 279.34,183.84 L 283.04,185.06 L 286.75,186.27 L 290.45,187.47 L 294.16,188.66 L 297.87,189.83 L 301.58,191 L 305.29,192.18 L 308.99,193.36 L 312.68,194.55 L 316.37,195.76 L 320.07,196.98 L 323.77,198.19 L 327.48,199.39 L 331.19,200.58 L 334.9,201.76 L 338.63,202.94 L 342.36,204.13 L 342.55,203.53 L 338.82,202.34 L 335.1,201.15 L 331.39,199.96 L 327.68,198.75 L 323.98,197.54 L 320.28,196.33 L 316.58,195.11 L 312.89,193.91 L 309.19,192.72 L 305.49,191.53 L 301.79,190.35 L 298.08,189.18 L 294.37,188 L 290.67,186.8 L 286.96,185.6 L 283.26,184.39 L 279.56,183.17 L 275.85,181.96 L 272.15,180.76 L 268.47,179.56 L 264.8,178.37 L 261.14,177.16 L 257.5,175.94 L 253.85,174.72 L 250.18,173.48 L 246.49,172.25 L 242.77,171.02 L 239.03,169.81 L 235.28,168.6 L 231.52,167.39 L 227.76,166.18 L 224,164.98 L 220.25,163.78 L 216.5,162.58 L 212.76,161.39 L 209.04,160.19 Z" fill="#1a1a1a" fill-opacity="0.55" stroke="#1a1a1a" stroke-width="0.4" stroke-opacity="0.55" stroke-linejoin="round" />
  <path d="M 212.07,170.11 L 215.77,171.31 L 219.49,172.5 L 223.2,173.7 L 226.92,174.9 L 230.64,176.1 L 234.36,177.3 L 238.09,178.5 L 241.82,179.7 L 245.55,180.9 L 249.27,182.1 L 252.98,183.31 L 256.67,184.51 L 260.36,185.72 L 264.04,186.92 L 267.72,188.12 L 271.4,189.33 L 275.08,190.54 L 278.75,191.76 L 282.43,192.97 L 286.1,194.19 L 289.77,195.41 L 293.44,196.62 L 297.13,197.82 L 300.82,199.02 L 304.52,200.22 L 308.22,201.41 L 311.91,202.62 L 315.61,203.82 L 319.31,205.03 L 323.02,206.23 L 326.73,207.43 L 330.45,208.63 L 334.17,209.83 L 337.88,211.03 L 341.59,212.24 L 341.78,211.64 L 338.08,210.44 L 334.37,209.22 L 330.66,208.01 L 326.94,206.79 L 323.23,205.57 L 319.53,204.36 L 315.83,203.15 L 312.13,201.94 L 308.44,200.74 L 304.75,199.53 L 301.04,198.33 L 297.35,197.13 L 293.67,195.94 L 289.99,194.74 L 286.32,193.53 L 282.64,192.32 L 278.97,191.1 L 275.29,189.89 L 271.61,188.68 L 267.93,187.47 L 264.26,186.26 L 260.58,185.06 L 256.89,183.84 L 253.2,182.63 L 249.49,181.43 L 245.77,180.22 L 242.04,179.02 L 238.31,177.82 L 234.58,176.62 L 230.85,175.44 L 227.13,174.25 L 223.4,173.07 L 219.68,171.89 L 215.96,170.71 L 212.26,169.52 Z" fill="#1a1a1a" fill-opacity="0.55" stroke="#1a1a1a" stroke-width="0.4" stroke-opacity="0.55" stroke-linejoin="round" />
  <path d="M 218.83,180.62 L 222.52,181.87 L 226.19,183.11 L 229.86,184.36 L 233.52,185.61 L 237.17,186.84 L 240.82,188.05 L 244.48,189.26 L 248.17,190.47 L 251.86,191.68 L 255.57,192.88 L 259.28,194.09 L 263,195.29 L 266.73,196.49 L 270.46,197.67 L 274.19,198.85 L 277.92,200.02 L 281.64,201.19 L 285.36,202.37 L 289.08,203.55 L 292.78,204.73 L 296.48,205.93 L 300.17,207.13 L 303.86,208.35 L 307.54,209.58 L 311.23,210.82 L 314.93,212.06 L 318.64,213.3 L 322.37,214.55 L 326.09,215.78 L 329.82,217.01 L 333.52,218.23 L 337.22,219.45 L 340.91,220.66 L 341.11,220.06 L 337.42,218.84 L 333.73,217.61 L 330.03,216.37 L 326.31,215.14 L 322.58,213.9 L 318.86,212.66 L 315.15,211.41 L 311.45,210.17 L 307.76,208.93 L 304.08,207.69 L 300.39,206.47 L 296.7,205.26 L 293.01,204.05 L 289.3,202.85 L 285.58,201.67 L 281.86,200.5 L 278.14,199.32 L 274.41,198.15 L 270.68,196.98 L 266.95,195.8 L 263.22,194.61 L 259.5,193.41 L 255.78,192.21 L 252.08,191 L 248.39,189.8 L 244.71,188.59 L 241.04,187.38 L 237.39,186.17 L 233.73,184.95 L 230.07,183.73 L 226.4,182.5 L 222.72,181.26 L 219.03,180.02 Z" fill="#1a1a1a" fill-opacity="0.55" stroke="#1a1a1a" stroke-width="0.4" stroke-opacity="0.55" stroke-linejoin="round" />
  <path d="M 221.72,190.02 L 225.4,191.22 L 229.07,192.43 L 232.74,193.64 L 236.41,194.86 L 240.09,196.08 L 243.78,197.31 L 247.48,198.56 L 251.19,199.8 L 254.91,201.04 L 258.62,202.27 L 262.33,203.49 L 266.04,204.7 L 269.75,205.9 L 273.46,207.11 L 277.17,208.32 L 280.88,209.53 L 284.58,210.73 L 288.27,211.94 L 291.95,213.14 L 295.63,214.34 L 299.31,215.52 L 303,216.7 L 306.71,217.88 L 310.42,219.06 L 310.61,218.46 L 306.9,217.27 L 303.21,216.06 L 299.52,214.86 L 295.85,213.66 L 292.17,212.46 L 288.5,211.26 L 284.8,210.05 L 281.1,208.85 L 277.38,207.65 L 273.67,206.45 L 269.96,205.25 L 266.25,204.05 L 262.54,202.84 L 258.83,201.62 L 255.12,200.4 L 251.41,199.16 L 247.7,197.91 L 243.99,196.66 L 240.3,195.42 L 236.63,194.2 L 232.95,193 L 229.28,191.8 L 225.6,190.61 L 221.92,189.42 Z" fill="#1a1a1a" fill-opacity="0.55" stroke="#1a1a1a" stroke-width="0.4" stroke-opacity="0.55" stroke-linejoin="round" />
  <path d="M 224.61,199.52 L 228.31,200.75 L 232,201.99 L 235.69,203.2 L 239.38,204.4 L 243.08,205.58 L 246.79,206.74 L 250.51,207.9 L 254.22,209.06 L 257.92,210.21 L 261.64,211.38 L 265.35,212.56 L 269.07,213.77 L 272.79,214.98 L 276.5,216.19 L 280.19,217.42 L 280.39,216.82 L 276.71,215.58 L 273.01,214.33 L 269.29,213.1 L 265.57,211.89 L 261.85,210.71 L 258.13,209.54 L 254.42,208.38 L 250.71,207.23 L 247,206.08 L 243.29,204.92 L 239.59,203.74 L 235.9,202.55 L 232.21,201.35 L 228.51,200.15 L 224.8,198.93 Z" fill="#1a1a1a" fill-opacity="0.55" stroke="#1a1a1a" stroke-width="0.4" stroke-opacity="0.55" stroke-linejoin="round" />
  <path d="M 230.88,210.09 L 234.56,211.32 L 238.24,212.52 L 241.93,213.72 L 245.6,214.93 L 249.27,216.09 L 249.47,215.49 L 245.82,214.26 L 242.14,213.06 L 238.46,211.86 L 234.77,210.66 L 231.08,209.49 Z" fill="#1a1a1a" fill-opacity="0.55" stroke="#1a1a1a" stroke-width="0.4" stroke-opacity="0.55" stroke-linejoin="round" />
  <path d="M 139.99,121.68 L 143,122.7 L 146.04,123.65 L 146.23,123.04 L 143.22,122.03 L 140.19,121.08 Z" fill="#1a1a1a" fill-opacity="0.55" stroke="#1a1a1a" stroke-width="0.4" stroke-opacity="0.55" stroke-linejoin="round" />
  <path d="M 134.77,128.11 L 137.98,129.19 L 141.21,130.24 L 144.45,131.31 L 147.68,132.38 L 150.93,133.43 L 151.13,132.84 L 147.9,131.72 L 144.67,130.64 L 141.43,129.57 L 138.2,128.51 L 134.96,127.5 Z" fill="#1a1a1a" fill-opacity="0.55" stroke="#1a1a1a" stroke-width="0.4" stroke-opacity="0.55" stroke-linejoin="round" />
  <path d="M 129.74,134.84 L 133.49,136.1 L 137.26,137.34 L 141.03,138.57 L 144.8,139.79 L 148.58,141 L 152.36,142.21 L 156.16,143.42 L 156.35,142.82 L 152.58,141.55 L 148.79,140.34 L 145.01,139.14 L 141.24,137.92 L 137.47,136.7 L 133.7,135.46 L 129.94,134.25 Z" fill="#1a1a1a" fill-opacity="0.55" stroke="#1a1a1a" stroke-width="0.4" stroke-opacity="0.55" stroke-linejoin="round" />
  <path d="M 124.73,141.87 L 128.39,143.1 L 132.05,144.31 L 135.71,145.51 L 139.37,146.71 L 143.02,147.92 L 146.67,149.13 L 150.3,150.34 L 153.94,151.54 L 157.58,152.72 L 161.23,153.89 L 161.43,153.29 L 157.79,152.09 L 154.15,150.89 L 150.52,149.69 L 146.88,148.48 L 143.23,147.27 L 139.58,146.06 L 135.92,144.86 L 132.26,143.66 L 128.6,142.47 L 124.93,141.28 Z" fill="#1a1a1a" fill-opacity="0.55" stroke="#1a1a1a" stroke-width="0.4" stroke-opacity="0.55" stroke-linejoin="round" />
  <path d="M 119.9,148.62 L 123.52,149.8 L 127.13,150.99 L 130.73,152.18 L 134.33,153.37 L 137.92,154.56 L 141.51,155.76 L 145.1,156.95 L 148.69,158.13 L 152.29,159.3 L 155.89,160.46 L 159.48,161.62 L 163.07,162.75 L 166.67,163.87 L 166.86,163.27 L 163.27,162.12 L 159.69,160.96 L 156.1,159.8 L 152.5,158.64 L 148.91,157.48 L 145.31,156.3 L 141.73,155.11 L 138.14,153.92 L 134.55,152.72 L 130.95,151.52 L 127.35,150.34 L 123.72,149.18 L 120.09,148.02 Z" fill="#1a1a1a" fill-opacity="0.55" stroke="#1a1a1a" stroke-width="0.4" stroke-opacity="0.55" stroke-linejoin="round" />
  <path d="M 114.67,155.29 L 118.44,156.53 L 122.19,157.78 L 125.95,159.04 L 129.71,160.29 L 133.48,161.56 L 137.27,162.84 L 141.08,164.11 L 144.9,165.39 L 148.73,166.67 L 152.56,167.93 L 156.39,169.18 L 160.23,170.41 L 164.06,171.62 L 167.89,172.81 L 171.71,174 L 171.9,173.4 L 168.08,172.19 L 164.27,170.97 L 160.44,169.74 L 156.61,168.5 L 152.78,167.25 L 148.95,165.99 L 145.12,164.71 L 141.3,163.44 L 137.5,162.16 L 133.71,160.89 L 129.94,159.62 L 126.17,158.36 L 122.41,157.12 L 118.64,155.91 L 114.87,154.68 Z" fill="#1a1a1a" fill-opacity="0.55" stroke="#1a1a1a" stroke-width="0.4" stroke-opacity="0.55" stroke-linejoin="round" />
  <path d="M 109.61,162.11 L 113.32,163.32 L 117.03,164.55 L 120.73,165.77 L 124.43,166.99 L 128.13,168.2 L 131.83,169.42 L 135.53,170.63 L 139.24,171.85 L 142.94,173.06 L 146.66,174.28 L 150.39,175.5 L 154.12,176.72 L 157.87,177.94 L 161.61,179.15 L 165.36,180.36 L 169.11,181.56 L 172.87,182.75 L 176.63,183.94 L 176.82,183.34 L 173.06,182.14 L 169.32,180.92 L 165.57,179.7 L 161.83,178.49 L 158.08,177.28 L 154.34,176.06 L 150.6,174.84 L 146.88,173.62 L 143.16,172.4 L 139.45,171.19 L 135.75,169.98 L 132.05,168.76 L 128.35,167.54 L 124.65,166.32 L 120.95,165.11 L 117.24,163.91 L 113.52,162.71 L 109.8,161.51 Z" fill="#1a1a1a" fill-opacity="0.55" stroke="#1a1a1a" stroke-width="0.4" stroke-opacity="0.55" stroke-linejoin="round" />
  <path d="M 141.36,180.63 L 145.07,181.86 L 148.79,183.11 L 152.49,184.35 L 156.19,185.59 L 159.86,186.83 L 163.53,188.07 L 167.19,189.29 L 170.86,190.5 L 174.54,191.71 L 178.23,192.91 L 181.93,194.1 L 182.13,193.49 L 178.44,192.27 L 174.76,191.04 L 171.08,189.83 L 167.41,188.62 L 163.75,187.4 L 160.09,186.17 L 156.41,184.92 L 152.72,183.68 L 149.01,182.44 L 145.28,181.23 L 141.55,180.03 Z" fill="#1a1a1a" fill-opacity="0.55" stroke="#1a1a1a" stroke-width="0.4" stroke-opacity="0.55" stroke-linejoin="round" />
  <path d="M 154.18,193.45 L 157.82,194.7 L 161.47,195.93 L 165.12,197.15 L 168.76,198.35 L 172.41,199.54 L 176.06,200.73 L 179.71,201.9 L 183.38,203.06 L 187.06,204.2 L 187.25,203.6 L 183.58,202.41 L 179.92,201.23 L 176.27,200.05 L 172.63,198.87 L 168.99,197.67 L 165.34,196.46 L 161.7,195.25 L 158.04,194.03 L 154.38,192.84 Z" fill="#1a1a1a" fill-opacity="0.55" stroke="#1a1a1a" stroke-width="0.4" stroke-opacity="0.55" stroke-linejoin="round" />
  <path d="M 158.39,203.19 L 162.11,204.42 L 165.82,205.65 L 169.52,206.87 L 173.23,208.09 L 176.94,209.32 L 180.66,210.56 L 184.4,211.81 L 188.16,213.04 L 191.92,214.26 L 192.12,213.65 L 188.37,212.38 L 184.63,211.13 L 180.89,209.89 L 177.16,208.65 L 173.45,207.42 L 169.74,206.2 L 166.03,204.99 L 162.32,203.78 L 158.59,202.59 Z" fill="#1a1a1a" fill-opacity="0.55" stroke="#1a1a1a" stroke-width="0.4" stroke-opacity="0.55" stroke-linejoin="round" />
  <path d="M 159.91,212.18 L 163.64,213.39 L 167.39,214.59 L 171.15,215.79 L 174.91,217 L 178.67,218.21 L 182.43,219.42 L 186.19,220.63 L 189.94,221.84 L 193.66,223.04 L 197.37,224.23 L 197.57,223.63 L 193.87,222.4 L 190.15,221.17 L 186.41,219.96 L 182.65,218.75 L 178.89,217.54 L 175.12,216.33 L 171.36,215.12 L 167.6,213.93 L 163.84,212.75 L 160.1,211.58 Z" fill="#1a1a1a" fill-opacity="0.55" stroke="#1a1a1a" stroke-width="0.4" stroke-opacity="0.55" stroke-linejoin="round" />
  <path d="M 161.76,221.12 L 165.45,222.36 L 169.15,223.6 L 172.87,224.82 L 176.59,226.05 L 180.31,227.26 L 184.03,228.48 L 187.73,229.69 L 191.42,230.89 L 195.1,232.11 L 198.77,233.29 L 202.45,234.47 L 202.64,233.86 L 198.98,232.66 L 195.32,231.44 L 191.65,230.22 L 187.95,229.01 L 184.25,227.8 L 180.53,226.59 L 176.81,225.38 L 173.09,224.17 L 169.37,222.95 L 165.66,221.74 L 161.96,220.53 Z" fill="#1a1a1a" fill-opacity="0.55" stroke="#1a1a1a" stroke-width="0.4" stroke-opacity="0.55" stroke-linejoin="round" />
  <path d="M 158.45,228.41 L 162.24,229.64 L 166.02,230.88 L 169.82,232.12 L 173.61,233.36 L 177.39,234.61 L 181.17,235.86 L 184.94,237.12 L 188.71,238.36 L 192.49,239.6 L 196.28,240.82 L 200.08,242.02 L 203.88,243.19 L 207.68,244.38 L 207.87,243.78 L 204.08,242.57 L 200.28,241.36 L 196.49,240.16 L 192.7,238.94 L 188.93,237.71 L 185.16,236.47 L 181.39,235.21 L 177.61,233.96 L 173.83,232.7 L 170.03,231.45 L 166.24,230.21 L 162.44,229 L 158.65,227.8 Z" fill="#1a1a1a" fill-opacity="0.55" stroke="#1a1a1a" stroke-width="0.4" stroke-opacity="0.55" stroke-linejoin="round" />
  <path d="M 152.76,235.25 L 156.51,236.49 L 160.25,237.75 L 163.99,239 L 167.73,240.24 L 171.47,241.47 L 175.21,242.7 L 178.96,243.9 L 182.7,245.09 L 186.46,246.27 L 190.21,247.44 L 193.96,248.62 L 197.7,249.8 L 201.44,250.98 L 205.18,252.16 L 208.91,253.33 L 212.65,254.51 L 212.84,253.91 L 209.11,252.71 L 205.39,251.5 L 201.65,250.3 L 197.92,249.12 L 194.17,247.94 L 190.42,246.77 L 186.67,245.6 L 182.92,244.42 L 179.18,243.22 L 175.44,242.02 L 171.7,240.79 L 167.96,239.56 L 164.22,238.32 L 160.47,237.09 L 156.71,235.87 L 152.95,234.64 Z" fill="#1a1a1a" fill-opacity="0.55" stroke="#1a1a1a" stroke-width="0.4" stroke-opacity="0.55" stroke-linejoin="round" />
  <path d="M 147.13,241.61 L 150.85,242.83 L 154.57,244.07 L 158.28,245.29 L 161.99,246.49 L 165.7,247.69 L 169.39,248.88 L 173.09,250.08 L 176.8,251.29 L 180.51,252.5 L 184.24,253.72 L 187.98,254.94 L 191.72,256.17 L 195.48,257.4 L 199.24,258.63 L 203,259.85 L 206.75,261.06 L 210.49,262.23 L 214.22,263.38 L 217.95,264.53 L 218.14,263.93 L 214.42,262.76 L 210.7,261.58 L 206.96,260.39 L 203.21,259.18 L 199.46,257.96 L 195.7,256.73 L 191.94,255.5 L 188.19,254.27 L 184.45,253.05 L 180.73,251.84 L 177.01,250.63 L 173.31,249.42 L 169.61,248.21 L 165.91,247.02 L 162.21,245.81 L 158.5,244.61 L 154.78,243.41 L 151.05,242.21 L 147.33,241 Z" fill="#1a1a1a" fill-opacity="0.55" stroke="#1a1a1a" stroke-width="0.4" stroke-opacity="0.55" stroke-linejoin="round" />
  <path d="M 63.9,222.72 L 67.67,223.99 L 71.46,225.22 L 75.26,226.41 L 75.46,225.8 L 71.69,224.53 L 67.9,223.3 L 64.09,222.12 Z" fill="#1a1a1a" fill-opacity="0.55" stroke="#1a1a1a" stroke-width="0.4" stroke-opacity="0.55" stroke-linejoin="round" />
  <path d="M 136.06,246.21 L 139.87,247.41 L 143.68,248.62 L 147.48,249.84 L 151.29,251.05 L 155.09,252.24 L 158.87,253.45 L 162.64,254.67 L 166.38,255.92 L 170.11,257.19 L 173.83,258.47 L 177.54,259.76 L 181.27,261.04 L 185.01,262.32 L 188.78,263.61 L 192.55,264.89 L 196.32,266.18 L 200.08,267.47 L 203.84,268.75 L 207.61,270.01 L 211.37,271.24 L 215.15,272.45 L 218.93,273.65 L 222.72,274.85 L 222.92,274.25 L 219.13,273.03 L 215.36,271.81 L 211.59,270.57 L 207.83,269.32 L 204.08,268.06 L 200.32,266.78 L 196.55,265.5 L 192.78,264.21 L 189,262.93 L 185.24,261.66 L 181.5,260.39 L 177.77,259.11 L 174.05,257.83 L 170.33,256.55 L 166.6,255.28 L 162.85,254.03 L 159.08,252.8 L 155.3,251.58 L 151.5,250.38 L 147.69,249.18 L 143.88,247.99 L 140.06,246.8 L 136.25,245.6 Z" fill="#1a1a1a" fill-opacity="0.55" stroke="#1a1a1a" stroke-width="0.4" stroke-opacity="0.55" stroke-linejoin="round" />
  <path d="M 58.91,229.88 L 62.67,231.1 L 66.43,232.32 L 70.19,233.55 L 73.96,234.77 L 77.72,235.99 L 81.49,237.21 L 85.26,238.42 L 89.02,239.64 L 92.79,240.85 L 96.55,242.05 L 100.31,243.26 L 104.07,244.46 L 107.83,245.66 L 111.59,246.86 L 115.35,248.06 L 119.1,249.25 L 122.85,250.45 L 126.6,251.64 L 130.35,252.85 L 134.09,254.05 L 137.84,255.26 L 141.57,256.46 L 145.31,257.67 L 149.05,258.88 L 152.78,260.1 L 156.52,261.32 L 160.26,262.54 L 164,263.76 L 167.75,264.99 L 171.5,266.23 L 175.26,267.48 L 179.01,268.72 L 182.76,269.98 L 186.51,271.24 L 190.26,272.5 L 194.01,273.76 L 197.77,274.99 L 201.53,276.22 L 205.3,277.43 L 209.07,278.64 L 212.84,279.85 L 216.62,281.07 L 220.41,282.3 L 224.21,283.53 L 228.02,284.74 L 228.21,284.14 L 224.4,282.93 L 220.6,281.7 L 216.82,280.46 L 213.04,279.22 L 209.27,278 L 205.51,276.78 L 201.75,275.56 L 197.99,274.33 L 194.23,273.09 L 190.49,271.83 L 186.74,270.56 L 182.99,269.31 L 179.23,268.06 L 175.48,266.81 L 171.73,265.56 L 167.98,264.32 L 164.23,263.08 L 160.49,261.84 L 156.75,260.62 L 153.01,259.4 L 149.27,258.19 L 145.53,256.98 L 141.8,255.78 L 138.05,254.58 L 134.31,253.37 L 130.57,252.17 L 126.82,250.97 L 123.07,249.77 L 119.32,248.57 L 115.56,247.38 L 111.81,246.18 L 108.05,244.99 L 104.28,243.8 L 100.52,242.6 L 96.76,241.4 L 93,240.19 L 89.24,238.98 L 85.47,237.77 L 81.7,236.55 L 77.93,235.34 L 74.16,234.13 L 70.4,232.91 L 66.63,231.7 L 62.87,230.49 L 59.1,229.27 Z" fill="#1a1a1a" fill-opacity="0.55" stroke="#1a1a1a" stroke-width="0.4" stroke-opacity="0.55" stroke-linejoin="round" />
  <path d="M 53.74,236.5 L 57.46,237.73 L 61.18,238.95 L 64.91,240.16 L 68.64,241.38 L 72.38,242.6 L 76.13,243.81 L 79.88,245.03 L 83.63,246.24 L 87.39,247.45 L 91.16,248.66 L 94.92,249.88 L 98.69,251.1 L 102.45,252.32 L 106.21,253.55 L 109.97,254.77 L 113.73,255.99 L 117.48,257.21 L 121.23,258.42 L 124.97,259.64 L 128.7,260.85 L 132.43,262.06 L 136.15,263.27 L 139.88,264.48 L 143.6,265.69 L 147.32,266.89 L 151.04,268.1 L 154.76,269.31 L 158.48,270.51 L 162.19,271.72 L 165.9,272.93 L 169.61,274.13 L 173.32,275.35 L 177.03,276.57 L 180.74,277.8 L 184.46,279.03 L 188.19,280.26 L 191.92,281.49 L 195.66,282.72 L 199.41,283.94 L 203.16,285.17 L 206.92,286.39 L 210.68,287.61 L 214.44,288.82 L 218.21,290.04 L 221.98,291.26 L 225.74,292.49 L 229.49,293.72 L 233.22,294.94 L 233.41,294.34 L 229.68,293.12 L 225.94,291.89 L 222.18,290.65 L 218.41,289.42 L 214.65,288.19 L 210.89,286.97 L 207.13,285.75 L 203.37,284.52 L 199.62,283.3 L 195.88,282.07 L 192.14,280.83 L 188.41,279.6 L 184.68,278.36 L 180.96,277.13 L 177.25,275.9 L 173.54,274.68 L 169.83,273.47 L 166.12,272.27 L 162.41,271.06 L 158.69,269.86 L 154.97,268.65 L 151.25,267.45 L 147.53,266.24 L 143.81,265.03 L 140.09,263.82 L 136.37,262.61 L 132.64,261.4 L 128.92,260.19 L 125.18,258.97 L 121.44,257.76 L 117.7,256.54 L 113.95,255.32 L 110.19,254.1 L 106.43,252.87 L 102.67,251.65 L 98.91,250.43 L 95.14,249.2 L 91.38,247.98 L 87.61,246.77 L 83.85,245.56 L 80.1,244.35 L 76.34,243.14 L 72.59,241.94 L 68.85,240.74 L 65.12,239.53 L 61.39,238.33 L 57.66,237.11 L 53.94,235.9 Z" fill="#1a1a1a" fill-opacity="0.55" stroke="#1a1a1a" stroke-width="0.4" stroke-opacity="0.55" stroke-linejoin="round" />
  <path d="M 48.72,243.44 L 52.49,244.65 L 56.26,245.86 L 60.02,247.07 L 63.79,248.29 L 67.56,249.49 L 71.33,250.69 L 75.09,251.89 L 78.85,253.08 L 82.6,254.28 L 86.35,255.49 L 90.1,256.7 L 93.84,257.92 L 97.58,259.14 L 101.32,260.37 L 105.06,261.61 L 108.8,262.85 L 112.54,264.08 L 116.27,265.32 L 120.01,266.55 L 123.74,267.79 L 127.48,269.02 L 131.22,270.26 L 134.97,271.48 L 138.73,272.71 L 142.49,273.92 L 146.26,275.14 L 150.02,276.34 L 153.79,277.55 L 157.55,278.75 L 161.3,279.95 L 165.06,281.15 L 168.8,282.34 L 172.55,283.53 L 176.29,284.73 L 180.04,285.92 L 183.79,287.12 L 187.56,288.31 L 191.33,289.51 L 195.11,290.71 L 198.89,291.92 L 202.67,293.14 L 202.87,292.54 L 199.08,291.31 L 195.3,290.09 L 191.53,288.88 L 187.76,287.66 L 184.01,286.46 L 180.26,285.25 L 176.51,284.05 L 172.77,282.85 L 169.02,281.65 L 165.28,280.46 L 161.53,279.26 L 157.77,278.07 L 154.01,276.87 L 150.24,275.67 L 146.47,274.46 L 142.71,273.25 L 138.95,272.04 L 135.19,270.82 L 131.44,269.59 L 127.7,268.36 L 123.96,267.12 L 120.22,265.89 L 116.49,264.65 L 112.76,263.42 L 109.02,262.19 L 105.28,260.95 L 101.54,259.72 L 97.79,258.49 L 94.05,257.27 L 90.31,256.05 L 86.56,254.84 L 82.81,253.63 L 79.06,252.43 L 75.3,251.24 L 71.54,250.04 L 67.77,248.85 L 63.99,247.66 L 60.22,246.46 L 56.45,245.26 L 52.68,244.05 L 48.91,242.85 Z" fill="#1a1a1a" fill-opacity="0.55" stroke="#1a1a1a" stroke-width="0.4" stroke-opacity="0.55" stroke-linejoin="round" />
  <path d="M 43.61,250.13 L 47.28,251.32 L 50.95,252.52 L 54.61,253.72 L 58.27,254.91 L 61.93,256.09 L 65.59,257.27 L 69.25,258.44 L 72.92,259.62 L 76.59,260.79 L 80.26,261.95 L 83.93,263.12 L 87.61,264.29 L 91.29,265.47 L 94.98,266.65 L 98.66,267.85 L 102.34,269.05 L 106.03,270.25 L 109.71,271.47 L 113.39,272.68 L 117.07,273.89 L 120.76,275.1 L 124.44,276.3 L 128.13,277.49 L 131.82,278.69 L 135.51,279.89 L 135.71,279.3 L 132.02,278.09 L 128.34,276.87 L 124.65,275.66 L 120.98,274.43 L 117.3,273.22 L 113.62,272 L 109.94,270.78 L 106.25,269.57 L 102.57,268.37 L 98.88,267.17 L 95.19,265.98 L 91.51,264.8 L 87.82,263.63 L 84.14,262.46 L 80.47,261.3 L 76.79,260.13 L 73.13,258.96 L 69.46,257.79 L 65.8,256.61 L 62.14,255.43 L 58.48,254.25 L 54.82,253.07 L 51.15,251.89 L 47.48,250.71 L 43.8,249.53 Z" fill="#1a1a1a" fill-opacity="0.55" stroke="#1a1a1a" stroke-width="0.4" stroke-opacity="0.55" stroke-linejoin="round" />
  <path d="M 38.69,257.01 L 42.41,258.25 L 46.14,259.47 L 49.88,260.67 L 53.61,261.88 L 57.35,263.09 L 61.08,264.3 L 64.81,265.51 L 68.55,266.69 L 68.75,266.09 L 65.03,264.84 L 61.3,263.62 L 57.57,262.41 L 53.84,261.2 L 50.1,259.98 L 46.37,258.77 L 42.63,257.58 L 38.88,256.4 Z" fill="#1a1a1a" fill-opacity="0.55" stroke="#1a1a1a" stroke-width="0.4" stroke-opacity="0.55" stroke-linejoin="round" />
  <path d="M 340.97,220.01 L 336.19,219.7 L 331.39,219.33 L 326.58,218.94 L 321.75,218.56 L 316.92,218.21 L 311.16,217.88 L 305.43,217.56 L 299.71,217.24 L 293.99,216.91 L 288.24,216.59 L 282.47,216.3 L 276.71,216.05 L 270.98,215.81 L 265.26,215.56 L 259.55,215.31 L 253.79,215.04 L 248.01,214.77 L 242.24,214.54 L 236.51,214.32 L 230.77,214.05 L 230.71,215.24 L 236.45,215.56 L 242.18,215.88 L 247.94,216.16 L 253.73,216.43 L 259.48,216.71 L 265.2,216.98 L 270.92,217.23 L 276.65,217.47 L 282.4,217.72 L 288.16,218.01 L 293.91,218.33 L 299.63,218.66 L 305.35,218.99 L 311.09,219.3 L 316.83,219.62 L 321.65,219.96 L 326.48,220.29 L 331.31,220.59 L 336.11,220.89 L 340.9,221.17 Z" fill="#1a1a1a" stroke="#1a1a1a" stroke-width="0.4" stroke-linejoin="round" />
  <polyline points="230.74,214.65 225.42,214.36 220.05,214.05 214.67,213.74 209.34,213.41 204.08,213.11 204.54,207.64 205.03,202.18 205.55,196.71 206.12,191.24 206.72,185.77 207.32,180.31 207.91,174.84 208.5,169.35 209.05,163.81" fill="none" stroke="#1a1a1a" stroke-width="1.245" stroke-opacity="0.32" stroke-dasharray="4,3" stroke-linecap="round" stroke-linejoin="round" />
  <path d="M 209.63,163.86 L 210.14,158.14 L 210.62,152.42 L 211.12,146.73 L 211.67,141.06 L 212.28,135.38 L 212.87,129.68 L 213.38,123.96 L 213.69,118.08 L 214,112.22 L 214.32,106.4 L 214.63,100.58 L 214.91,94.77 L 215.19,88.95 L 215.49,83.14 L 215.82,77.33 L 216.2,71.53 L 216.37,66.16 L 221.78,66.5 L 227.64,66.67 L 233.48,66.85 L 239.3,67.05 L 245.13,67.25 L 250.95,67.43 L 256.78,67.58 L 262.6,67.69 L 268.41,67.76 L 274.19,67.82 L 279.9,67.99 L 285.61,68.2 L 291.33,68.44 L 297.07,68.66 L 302.8,68.85 L 308.54,69.03 L 314.28,69.25 L 320.03,69.51 L 325.76,69.8 L 331.51,70.07 L 337.29,70.28 L 343.1,70.45 L 348.92,70.6 L 354.23,70.52 L 353.48,75.58 L 352.96,81.23 L 352.47,86.87 L 352.02,92.5 L 351.57,98.14 L 351.1,103.79 L 350.59,109.51 L 350.09,115.29 L 349.56,121.05 L 348.97,126.76 L 348.31,132.43 L 347.62,138.09 L 346.97,143.91 L 346.35,149.74 L 345.79,155.57 L 345.27,161.41 L 344.79,167.28 L 344.31,173.19 L 343.83,179.12 L 343.34,185.05 L 342.86,191 L 342.38,196.96 L 341.9,202.89 L 341.4,208.79 L 340.87,214.67 L 340.34,220.54 L 341.52,220.65 L 342.05,214.78 L 342.59,208.9 L 343.12,203 L 343.63,197.06 L 344.14,191.11 L 344.65,185.16 L 345.16,179.23 L 345.67,173.3 L 346.17,167.4 L 346.67,161.53 L 347.2,155.71 L 347.79,149.89 L 348.42,144.07 L 349.09,138.26 L 349.78,132.61 L 350.43,126.92 L 351,121.19 L 351.52,115.41 L 352.02,109.64 L 352.52,103.92 L 353,98.26 L 353.46,92.62 L 353.93,86.99 L 354.42,81.36 L 354.95,75.73 L 355.32,69.53 L 348.96,69.13 L 343.13,69 L 337.34,68.86 L 331.57,68.67 L 325.83,68.43 L 320.09,68.15 L 314.34,67.89 L 308.59,67.66 L 302.85,67.46 L 297.12,67.25 L 291.39,67.01 L 285.67,66.76 L 279.95,66.54 L 274.22,66.36 L 268.43,66.29 L 262.62,66.22 L 256.81,66.11 L 250.99,65.96 L 245.18,65.78 L 239.35,65.59 L 233.53,65.4 L 227.69,65.22 L 221.82,65.05 L 215.4,65.1 L 214.79,71.43 L 214.43,77.25 L 214.08,83.06 L 213.77,88.88 L 213.49,94.7 L 213.21,100.51 L 212.92,106.32 L 212.62,112.15 L 212.33,118.01 L 212.05,123.87 L 211.57,129.56 L 211.02,135.25 L 210.45,140.94 L 209.92,146.63 L 209.44,152.32 L 208.98,158.04 L 208.47,163.76 Z" fill="#1a1a1a" stroke="#1a1a1a" stroke-width="0.4" stroke-linejoin="round" />
  <polyline points="226.03,163.72 232,164.23 237.9,164.72 243.7,165.2 249.47,165.69 255.21,166.24 260.93,166.85 266.6,167.45 272.29,168.01 278,168.49 283.76,168.91 289.54,169.27 295.33,169.64 301.11,170.07 306.89,170.54 312.66,171.04 318.39,171.55 324.1,172.06 329.84,172.56 335.61,173.01 341.39,173.42" fill="none" stroke="#1a1a1a" stroke-width="1.146" stroke-opacity="0.32" stroke-dasharray="4,3" stroke-linecap="round" stroke-linejoin="round" />
  <polyline points="226.03,163.72 224.41,167.45 222.66,171.36 220.85,175.33" fill="none" stroke="#1a1a1a" stroke-width="1.149" stroke-opacity="0.32" stroke-dasharray="4,3" stroke-linecap="round" stroke-linejoin="round" />
  <path d="M 220.35,175.11 L 218.53,179.09 L 216.89,183.22 L 217.89,183.64 L 219.71,179.59 L 221.35,175.54 Z" fill="#1a1a1a" stroke="#1a1a1a" stroke-width="0.4" stroke-linejoin="round" />
  <polyline points="217.39,183.43 215.04,188.73 212.52,193.93 210.18,199.06 207.96,204.1 205.7,209.07 203.63,214.22 201.56,219.44" fill="none" stroke="#1a1a1a" stroke-width="1.217" stroke-opacity="0.32" stroke-dasharray="4,3" stroke-linecap="round" stroke-linejoin="round" />
  <polyline points="226.03,163.72 226.11,158.08 226.17,152.49 226.23,146.9 226.29,141.33 226.34,135.75 226.37,130.17 226.39,124.58 226.39,118.98 226.36,113.38 226.29,107.8 226.22,102.23 226.17,96.65 226.18,91.08 226.24,85.5 226.3,79.9" fill="none" stroke="#1a1a1a" stroke-width="1.157" stroke-opacity="0.32" stroke-dasharray="4,3" stroke-linecap="round" stroke-linejoin="round" />
  <path d="M 226.85,79.9 L 227.01,74.02 L 227.08,68.13 L 227.15,62.24 L 227.23,56.35 L 227.22,50.49 L 226.11,50.47 L 225.89,56.33 L 225.82,62.22 L 225.77,68.11 L 225.71,74.01 L 225.75,79.89 Z" fill="#1a1a1a" stroke="#1a1a1a" stroke-width="0.4" stroke-linejoin="round" />
  <polyline points="341.39,173.42 341.37,177.41 341.43,181.34 341.45,185.39" fill="none" stroke="#1a1a1a" stroke-width="1.17" stroke-opacity="0.32" stroke-dasharray="4,3" stroke-linecap="round" stroke-linejoin="round" />
  <path d="M 340.88,185.39 L 340.8,190.83 L 340.76,196.18 L 340.72,201.46 L 340.6,206.79 L 340.41,212.16 L 340.31,217.48 L 340.19,222.77 L 340.08,228.15 L 340.13,233.71 L 341.28,233.72 L 341.41,228.17 L 341.59,222.8 L 341.71,217.51 L 341.8,212.2 L 341.98,206.83 L 342.09,201.48 L 342.12,196.18 L 342.08,190.83 L 342.02,185.39 Z" fill="#1a1a1a" stroke="#1a1a1a" stroke-width="0.4" stroke-linejoin="round" />
  <polyline points="341.39,173.42 342.01,167.63 342.6,161.88 343.18,156.18 343.75,150.49 344.33,144.78 344.98,139.02 345.68,133.23 346.36,127.44 347,121.7 347.62,115.97 348.24,110.24 348.88,104.49 349.51,98.79 350.13,93.13 350.77,87.44" fill="none" stroke="#1a1a1a" stroke-width="1.18" stroke-opacity="0.32" stroke-dasharray="4,3" stroke-linecap="round" stroke-linejoin="round" />
  <path d="M 351.32,87.5 L 351.98,82.39 L 352.52,77.29 L 353.08,72.2 L 353.66,67.1 L 354.25,61.98 L 354.73,56.84 L 353.6,56.71 L 352.9,61.82 L 352.31,66.94 L 351.74,72.05 L 351.2,77.15 L 350.66,82.25 L 350.21,87.38 Z" fill="#1a1a1a" stroke="#1a1a1a" stroke-width="0.4" stroke-linejoin="round" />
  <path d="M 340.77,233.13 L 334.94,232.43 L 329.1,231.66 L 323.24,230.89 L 317.35,230.2 L 311.47,229.54 L 305.6,228.91 L 299.7,228.3 L 293.78,227.73 L 287.84,227.18 L 281.88,226.65 L 275.91,226.12 L 269.94,225.58 L 263.98,225.02 L 258.02,224.46 L 252.07,223.9 L 246.14,223.39 L 240.25,222.9 L 234.39,222.34 L 234.27,223.54 L 240.13,224.16 L 246.01,224.75 L 251.94,225.31 L 257.88,225.87 L 263.84,226.45 L 269.81,227.02 L 275.78,227.56 L 281.75,228.09 L 287.71,228.62 L 293.64,229.17 L 299.56,229.75 L 305.44,230.35 L 311.31,230.97 L 317.19,231.62 L 323.07,232.3 L 328.94,232.98 L 334.79,233.65 L 340.64,234.3 Z" fill="#1a1a1a" stroke="#1a1a1a" stroke-width="0.4" stroke-linejoin="round" />
  <polyline points="234.33,222.94 228.91,222.38 223.45,221.79 217.95,221.19 212.45,220.58 206.99,220 201.56,219.44" fill="none" stroke="#1a1a1a" stroke-width="1.261" stroke-opacity="0.32" stroke-dasharray="4,3" stroke-linecap="round" stroke-linejoin="round" />
  <path d="M 341.31,233.78 L 342.01,228.03 L 342.74,222.28 L 343.47,216.55 L 344.2,210.79 L 344.9,205.03 L 345.61,199.26 L 346.26,193.52 L 346.85,187.8 L 347.43,182.1 L 348.06,176.41 L 348.79,170.69 L 349.57,164.96 L 350.35,159.21 L 351.03,153.46 L 351.65,147.75 L 352.25,142.08 L 352.87,136.43 L 353.5,130.75 L 354.1,125.01 L 354.68,119.26 L 355.23,113.49 L 355.78,107.74 L 356.36,101.98 L 356.99,96.2 L 355.74,96.06 L 355.07,101.84 L 354.4,107.59 L 353.76,113.34 L 353.16,119.1 L 352.57,124.85 L 351.97,130.58 L 351.36,136.26 L 350.77,141.93 L 350.18,147.59 L 349.56,153.29 L 348.86,159.02 L 348.08,164.75 L 347.29,170.5 L 346.56,176.23 L 345.93,181.95 L 345.35,187.65 L 344.76,193.36 L 344.12,199.09 L 343.41,204.84 L 342.72,210.61 L 342.06,216.38 L 341.41,222.13 L 340.76,227.88 L 340.09,233.64 Z" fill="#1a1a1a" stroke="#1a1a1a" stroke-width="0.4" stroke-linejoin="round" />
  <polyline points="201.56,219.44 201.43,213.63 201.34,207.87 201.25,202.17 201.15,196.49 201.06,190.83 201,185.2 200.98,179.6 200.96,173.97 200.92,168.26 200.86,162.49 200.79,156.69 200.72,150.89 200.68,145.1" fill="none" stroke="#1a1a1a" stroke-width="1.28" stroke-opacity="0.32" stroke-dasharray="4,3" stroke-linecap="round" stroke-linejoin="round" />
  <path d="M 201.29,145.1 L 201.33,139.3 L 201.38,133.51 L 201.36,127.72 L 201.28,121.93 L 201.15,116.14 L 201,110.35 L 200.84,104.56 L 200.69,98.76 L 200.53,92.94 L 200.37,87.1 L 199.13,87.11 L 199.14,92.96 L 199.2,98.79 L 199.34,104.6 L 199.5,110.39 L 199.66,116.17 L 199.79,121.96 L 199.88,127.73 L 199.92,133.51 L 199.98,139.3 L 200.07,145.1 Z" fill="#1a1a1a" stroke="#1a1a1a" stroke-width="0.4" stroke-linejoin="round" />
  <path d="M 226.19,50.14 L 223.05,54.34 L 219.89,58.87 L 216.52,63.71 L 212.98,68.28 L 209.38,72.77 L 205.99,77.33 L 202.5,82.03 L 199.27,86.76 L 200.24,87.45 L 203.61,82.84 L 207.14,78.18 L 210.51,73.64 L 214.1,69.16 L 217.65,64.54 L 221.03,59.66 L 224.13,55.1 L 227.13,50.83 Z" fill="#1a1a1a" stroke="#1a1a1a" stroke-width="0.4" stroke-linejoin="round" />
  <path d="M 226.62,51.04 L 232.34,51.44 L 238.07,51.85 L 243.82,52.22 L 249.61,52.52 L 255.45,52.75 L 261.3,52.93 L 267.15,53.03 L 273.05,53.12 L 278.97,53.25 L 284.88,53.49 L 290.74,53.83 L 296.5,54.23 L 302.21,54.63 L 307.91,55 L 313.68,55.36 L 319.5,55.71 L 325.3,56.03 L 331.05,56.32 L 336.78,56.61 L 342.54,56.89 L 348.34,57.14 L 354.15,57.35 L 354.19,56.2 L 348.39,55.95 L 342.61,55.62 L 336.85,55.26 L 331.12,54.93 L 325.37,54.65 L 319.58,54.36 L 313.76,54.02 L 308,53.65 L 302.3,53.28 L 296.6,52.87 L 290.83,52.46 L 284.95,52.12 L 279.01,51.88 L 273.07,51.75 L 267.18,51.66 L 261.33,51.56 L 255.49,51.39 L 249.67,51.16 L 243.89,50.91 L 238.14,50.63 L 232.42,50.3 L 226.7,49.93 Z" fill="#1a1a1a" stroke="#1a1a1a" stroke-width="0.4" stroke-linejoin="round" />
  <path d="M 199.72,87.73 L 205.54,88.03 L 211.39,88.35 L 217.29,88.68 L 223.19,89.02 L 229.05,89.35 L 234.87,89.69 L 240.64,90.02 L 246.4,90.34 L 252.18,90.64 L 257.96,90.95 L 263.74,91.27 L 269.52,91.61 L 275.29,91.97 L 281.08,92.36 L 286.89,92.75 L 292.71,93.15 L 298.53,93.55 L 304.34,93.91 L 310.13,94.24 L 315.9,94.57 L 321.69,94.89 L 327.5,95.21 L 333.31,95.52 L 339.11,95.81 L 344.88,96.11 L 350.61,96.43 L 356.33,96.77 L 356.41,95.49 L 350.69,95.11 L 344.97,94.72 L 339.2,94.33 L 333.4,93.96 L 327.58,93.63 L 321.77,93.32 L 315.98,93 L 310.22,92.68 L 304.44,92.34 L 298.63,92 L 292.81,91.63 L 286.99,91.25 L 281.18,90.85 L 275.39,90.45 L 269.61,90.07 L 263.83,89.73 L 258.04,89.42 L 252.26,89.11 L 246.48,88.8 L 240.73,88.48 L 234.95,88.15 L 229.14,87.82 L 223.27,87.52 L 217.36,87.25 L 211.46,87.01 L 205.6,86.75 L 199.79,86.48 Z" fill="#1a1a1a" stroke="#1a1a1a" stroke-width="0.4" stroke-linejoin="round" />
  <path d="M 356.96,96.07 L 356.55,90.73 L 356.27,85.22 L 356.11,79.43 L 355.67,73.56 L 355.63,67.79 L 355.42,62.29 L 354.77,56.72 L 353.57,56.83 L 353.99,62.39 L 354.17,67.82 L 354.23,73.63 L 354.68,79.51 L 354.85,85.28 L 355.18,90.83 L 355.77,96.19 Z" fill="#1a1a1a" stroke="#1a1a1a" stroke-width="0.4" stroke-linejoin="round" />
  <path d="M 36.13,260.58 L 42.04,261.72 L 47.97,262.88 L 53.89,264.05 L 59.8,265.23 L 65.69,266.42 L 71.56,267.63 L 77.43,268.83 L 83.3,270.02 L 89.16,271.21 L 95.02,272.42 L 100.88,273.63 L 106.74,274.85 L 112.6,276.07 L 118.46,277.28 L 124.33,278.48 L 130.18,279.67 L 136.03,280.86 L 141.87,282.05 L 147.69,283.24 L 153.51,284.41 L 159.33,285.56 L 165.17,286.69 L 171.02,287.81 L 176.88,288.91 L 182.76,290 L 188.65,291.11 L 194.53,292.24 L 200.42,293.42 L 206.29,294.62 L 212.17,295.84 L 218.07,297.07 L 223.98,298.29 L 229.9,299.48 L 236.63,300.36 L 234.03,294.23 L 231.34,288.98 L 228.65,283.71 L 225.97,278.45 L 223.28,273.19 L 220.61,267.94 L 217.94,262.69 L 215.27,257.46 L 212.59,252.23 L 209.92,247.01 L 207.26,241.78 L 204.61,236.55 L 201.98,231.33 L 199.36,226.11 L 196.73,220.9 L 194.11,215.71 L 191.48,210.51 L 188.87,205.31 L 186.27,200.12 L 183.68,194.93 L 181.11,189.74 L 178.52,184.56 L 175.92,179.39 L 173.3,174.23 L 170.68,169.08 L 168.06,163.94 L 165.43,158.82 L 162.79,153.7 L 160.14,148.56 L 157.47,143.39 L 154.77,138.19 L 152.06,132.95 L 149.35,127.68 L 146.64,122.39 L 143.24,116.64 L 138.91,121.78 L 135.32,126.56 L 131.73,131.32 L 128.15,136.08 L 124.59,140.82 L 121.05,145.56 L 117.52,150.3 L 114,155.02 L 110.47,159.72 L 106.91,164.4 L 103.32,169.04 L 99.71,173.68 L 96.11,178.34 L 92.51,183.04 L 88.91,187.76 L 85.33,192.49 L 81.77,197.22 L 78.25,201.96 L 74.77,206.7 L 71.3,211.44 L 67.81,216.19 L 64.29,220.97 L 60.75,225.8 L 57.19,230.65 L 53.61,235.51 L 50.03,240.35 L 46.44,245.14 L 42.85,249.9 L 39.27,254.65 L 35.69,259.41 L 36.85,260.29 L 40.44,255.54 L 44.04,250.8 L 47.65,246.05 L 51.26,241.27 L 54.86,236.44 L 58.45,231.59 L 62.03,226.74 L 65.58,221.92 L 69.1,217.14 L 72.61,212.41 L 76.13,207.71 L 79.66,203.01 L 83.21,198.3 L 86.77,193.58 L 90.36,188.86 L 93.95,184.14 L 97.54,179.44 L 101.11,174.75 L 104.67,170.08 L 108.23,165.41 L 111.8,160.73 L 115.37,156.05 L 118.92,151.34 L 122.45,146.61 L 125.98,141.86 L 129.53,137.11 L 133.1,132.35 L 136.67,127.58 L 140.26,122.79 L 143.1,118.33 L 145.1,123.18 L 147.8,128.47 L 150.52,133.74 L 153.25,138.98 L 155.97,144.18 L 158.68,149.32 L 161.35,154.44 L 163.97,159.56 L 166.55,164.71 L 169.12,169.87 L 171.7,175.04 L 174.29,180.21 L 176.88,185.38 L 179.49,190.55 L 182.11,195.72 L 184.73,200.89 L 187.35,206.08 L 189.96,211.27 L 192.59,216.47 L 195.2,221.67 L 197.81,226.88 L 200.43,232.11 L 203.06,237.34 L 205.71,242.57 L 208.38,247.8 L 211.06,253.02 L 213.73,258.25 L 216.39,263.48 L 219.06,268.73 L 221.73,273.98 L 224.41,279.25 L 227.1,284.51 L 229.8,289.77 L 232.51,295.01 L 235.3,299.31 L 230.23,297.82 L 224.33,296.62 L 218.41,295.4 L 212.51,294.18 L 206.63,292.96 L 200.75,291.77 L 194.86,290.6 L 188.97,289.45 L 183.09,288.3 L 177.22,287.16 L 171.36,286.02 L 165.52,284.9 L 159.68,283.77 L 153.86,282.65 L 148.03,281.51 L 142.21,280.36 L 136.37,279.19 L 130.53,277.99 L 124.67,276.78 L 118.81,275.58 L 112.95,274.38 L 107.08,273.18 L 101.22,271.98 L 95.36,270.78 L 89.49,269.61 L 83.62,268.44 L 77.75,267.27 L 71.87,266.09 L 65.99,264.91 L 60.1,263.73 L 54.18,262.56 L 48.25,261.41 L 42.32,260.26 L 36.41,259.12 Z" fill="#1a1a1a" stroke="#1a1a1a" stroke-width="0.4" stroke-linejoin="round" />
  <path d="M 64.57,200.21 L 62.21,205.61 L 59.58,210.85 L 56.83,215.92 L 54.19,220.94 L 51.69,226.04 L 49.26,231.34 L 46.78,236.67 L 44.15,241.85 L 41.53,246.97 L 39.03,252.13 L 36.61,257.23 L 34.15,262.39 L 31.7,267.66 L 29.22,272.98 L 26.58,278.3 L 23.93,283.55 L 21.34,288.72 L 22.67,289.4 L 25.32,284.27 L 28.11,279.08 L 30.85,273.77 L 33.34,268.42 L 35.79,263.16 L 38.26,258.01 L 40.67,252.92 L 43.16,247.78 L 45.77,242.67 L 48.42,237.47 L 50.92,232.1 L 53.34,226.82 L 55.83,221.77 L 58.47,216.79 L 61.14,211.64 L 63.66,206.27 L 65.96,200.81 Z" fill="#1a1a1a" stroke="#1a1a1a" stroke-width="0.4" stroke-linejoin="round" />
  <path d="M 64.87,201.18 L 70.1,204.23 L 75.28,207.27 L 80.41,210.31 L 85.53,213.35 L 90.65,216.4 L 95.75,219.44 L 100.85,222.47 L 105.98,225.47 L 111.14,228.46 L 116.31,231.44 L 121.51,234.43 L 126.7,237.43 L 131.89,240.46 L 137.06,243.51 L 142.22,246.53 L 147.34,249.52 L 152.45,252.5 L 157.57,255.49 L 162.75,258.51 L 167.98,261.55 L 173.23,264.59 L 178.46,267.61 L 183.66,270.62 L 188.84,273.62 L 194.04,276.63 L 199.27,279.66 L 204.51,282.7 L 209.76,285.74 L 214.99,288.75 L 220.19,291.75 L 225.35,294.71 L 230.49,297.65 L 235.63,300.58 L 240.78,303.53 L 245.95,306.47 L 251.14,309.43 L 256.33,312.39 L 261.53,315.34 L 266.73,318.28 L 271.96,321.22 L 277.19,324.16 L 277.95,322.82 L 272.72,319.86 L 267.52,316.9 L 262.35,313.91 L 257.18,310.91 L 252.01,307.91 L 246.83,304.94 L 241.66,301.99 L 236.51,299.04 L 231.38,296.1 L 226.24,293.15 L 221.07,290.2 L 215.88,287.21 L 210.64,284.2 L 205.4,281.18 L 200.16,278.13 L 194.96,275.06 L 189.79,272 L 184.62,268.97 L 179.42,265.95 L 174.19,262.94 L 168.92,259.92 L 163.67,256.91 L 158.48,253.93 L 153.35,250.95 L 148.26,247.96 L 143.15,244.95 L 138.01,241.91 L 132.83,238.86 L 127.64,235.82 L 122.44,232.81 L 117.25,229.82 L 112.07,226.84 L 106.92,223.86 L 101.8,220.86 L 96.69,217.85 L 91.56,214.85 L 86.42,211.85 L 81.27,208.86 L 76.09,205.87 L 70.89,202.87 L 65.66,199.83 Z" fill="#1a1a1a" stroke="#1a1a1a" stroke-width="0.4" stroke-linejoin="round" />
  <path d="M 65.81,201.03 L 69.85,196.82 L 73.91,192.64 L 77.98,188.44 L 82.02,184.19 L 86.02,179.91 L 90.02,175.62 L 94.1,171.35 L 98.2,167.06 L 102.29,162.74 L 106.36,158.41 L 110.43,154.06 L 114.48,149.69 L 118.48,145.32 L 122.46,140.96 L 126.49,136.61 L 130.61,132.22 L 134.74,127.81 L 138.81,123.41 L 142.81,119.03 L 146.82,114.7 L 150.86,110.39 L 154.9,106.1 L 158.86,101.8 L 162.79,97.47 L 166.76,93.11 L 170.79,88.71 L 174.85,84.29 L 173.77,83.29 L 169.68,87.68 L 165.58,92.02 L 161.52,96.29 L 157.52,100.56 L 153.54,104.83 L 149.52,109.13 L 145.49,113.46 L 141.49,117.83 L 137.52,122.22 L 133.47,126.62 L 129.33,131.01 L 125.18,135.38 L 121.13,139.74 L 117.15,144.1 L 113.15,148.47 L 109.11,152.82 L 105.03,157.17 L 100.97,161.5 L 96.89,165.81 L 92.78,170.1 L 88.7,174.38 L 84.69,178.67 L 80.7,182.96 L 76.72,187.25 L 72.74,191.52 L 68.74,195.76 L 64.72,199.99 Z" fill="#1a1a1a" stroke="#1a1a1a" stroke-width="0.4" stroke-linejoin="round" />
  <path d="M 21.91,289.75 L 27.8,290.61 L 33.7,291.43 L 39.65,292.22 L 45.66,292.95 L 51.68,293.66 L 57.69,294.37 L 63.66,295.08 L 69.61,295.79 L 75.54,296.5 L 81.5,297.23 L 87.49,297.98 L 93.5,298.75 L 99.5,299.6 L 105.49,300.49 L 111.46,301.4 L 117.43,302.31 L 123.37,303.21 L 129.3,304.11 L 135.22,305.02 L 141.14,305.92 L 147.06,306.8 L 152.99,307.67 L 158.91,308.53 L 164.84,309.34 L 170.78,310.1 L 176.69,310.84 L 182.59,311.58 L 188.49,312.35 L 194.4,313.13 L 200.34,313.93 L 206.29,314.71 L 212.22,315.49 L 218.13,316.26 L 224.02,317.06 L 229.91,317.89 L 235.83,318.76 L 241.77,319.61 L 247.71,320.42 L 253.66,321.2 L 259.61,321.96 L 265.56,322.7 L 271.52,323.43 L 277.48,324.16 L 277.65,322.81 L 271.69,322.06 L 265.74,321.3 L 259.8,320.52 L 253.86,319.72 L 247.92,318.88 L 241.99,318.03 L 236.06,317.16 L 230.14,316.31 L 224.24,315.5 L 218.34,314.7 L 212.43,313.91 L 206.5,313.14 L 200.55,312.36 L 194.61,311.57 L 188.69,310.79 L 182.79,310.03 L 176.89,309.28 L 170.98,308.51 L 165.07,307.7 L 159.15,306.85 L 153.23,305.99 L 147.31,305.12 L 141.38,304.26 L 135.46,303.39 L 129.54,302.52 L 123.61,301.63 L 117.67,300.72 L 111.71,299.79 L 105.74,298.86 L 99.74,297.96 L 93.72,297.12 L 87.7,296.33 L 81.71,295.58 L 75.74,294.85 L 69.8,294.14 L 63.86,293.44 L 57.88,292.75 L 51.86,292.08 L 45.84,291.42 L 39.83,290.74 L 33.89,290.01 L 27.99,289.23 L 22.11,288.37 Z" fill="#1a1a1a" stroke="#1a1a1a" stroke-width="0.4" stroke-linejoin="round" />
  <path d="M 22.55,289.47 L 26.06,284.85 L 29.61,280.26 L 33.13,275.63 L 36.64,270.98 L 40.17,266.3 L 43.68,261.59 L 47.15,256.87 L 50.56,252.13 L 53.93,247.39 L 57.3,242.62 L 60.67,237.86 L 64.05,233.11 L 67.42,228.35 L 70.86,223.63 L 69.77,222.83 L 66.26,227.5 L 62.77,232.18 L 59.35,236.92 L 55.97,241.68 L 52.61,246.45 L 49.24,251.19 L 45.83,255.92 L 42.37,260.63 L 38.87,265.32 L 35.34,269.99 L 31.81,274.64 L 28.33,279.3 L 24.91,283.99 L 21.46,288.65 Z" fill="#1a1a1a" stroke="#1a1a1a" stroke-width="0.4" stroke-linejoin="round" />
  <polyline points="70.32,223.23 73.94,218.43 77.6,213.65 81.24,208.83 84.86,204 88.45,199.15 92.02,194.29 95.58,189.45" fill="none" stroke="#1a1a1a" stroke-width="1.442" stroke-opacity="0.32" stroke-dasharray="4,3" stroke-linecap="round" stroke-linejoin="round" />
  <path d="M 96.13,189.85 L 99.72,185.05 L 103.36,180.31 L 107.02,175.57 L 110.65,170.8 L 114.27,166 L 117.89,161.19 L 121.51,156.39 L 125.13,151.59 L 128.75,146.79 L 132.39,141.98 L 136.01,137.15 L 139.62,132.31 L 143.2,127.48 L 146.73,122.65 L 150.22,117.84 L 153.67,113.04 L 157.13,108.26 L 160.62,103.49 L 164.17,98.72 L 167.75,93.91 L 171.31,89.06 L 174.86,84.19 L 173.76,83.39 L 170.18,88.23 L 166.55,93.01 L 162.92,97.78 L 159.36,102.56 L 155.87,107.35 L 152.41,112.12 L 148.93,116.91 L 145.44,121.71 L 141.9,126.53 L 138.33,131.36 L 134.72,136.19 L 131.09,141.01 L 127.46,145.82 L 123.84,150.62 L 120.21,155.42 L 116.6,160.22 L 112.98,165.03 L 109.35,169.81 L 105.74,174.6 L 102.17,179.41 L 98.61,184.22 L 95.04,189.05 Z" fill="#1a1a1a" stroke="#1a1a1a" stroke-width="0.4" stroke-linejoin="round" />
  <path d="M 278.2,323.2 L 275.8,317.82 L 273.43,312.41 L 271.09,306.99 L 268.78,301.53 L 266.49,296.04 L 264.22,290.51 L 261.95,284.98 L 259.66,279.45 L 257.36,273.94 L 255.03,268.45 L 252.68,262.98 L 250.3,257.55 L 247.91,252.13 L 245.53,246.74 L 243.16,241.35 L 240.79,235.95 L 238.44,230.54 L 236.09,225.11 L 233.76,219.64 L 231.42,214.17 L 229.03,208.71 L 226.63,203.25 L 224.2,197.78 L 221.77,192.28 L 219.37,186.78 L 217.03,181.29 L 214.76,175.83 L 212.52,170.42 L 210.27,165.04 L 208,159.66 L 205.69,154.27 L 203.35,148.85 L 200.98,143.42 L 198.6,137.99 L 196.23,132.56 L 193.86,127.12 L 191.48,121.69 L 189.1,116.29 L 186.72,110.91 L 184.35,105.53 L 181.99,100.13 L 179.63,94.66 L 177.29,89.12 L 174.94,83.53 L 173.68,84.05 L 176.02,89.65 L 178.34,95.21 L 180.66,100.7 L 182.98,106.13 L 185.3,111.53 L 187.64,116.93 L 190.01,122.34 L 192.39,127.76 L 194.78,133.19 L 197.16,138.62 L 199.54,144.05 L 201.9,149.48 L 204.24,154.89 L 206.55,160.28 L 208.82,165.65 L 211.07,171.02 L 213.32,176.43 L 215.57,181.89 L 217.88,187.42 L 220.25,192.95 L 222.65,198.46 L 225.07,203.94 L 227.49,209.39 L 229.89,214.83 L 232.26,220.29 L 234.63,225.74 L 236.98,231.17 L 239.32,236.59 L 241.67,242 L 244.03,247.4 L 246.41,252.8 L 248.79,258.21 L 251.16,263.64 L 253.5,269.1 L 255.83,274.58 L 258.13,280.09 L 260.42,285.61 L 262.73,291.13 L 265.04,296.64 L 267.37,302.13 L 269.73,307.57 L 272.12,312.99 L 274.53,318.38 L 276.94,323.77 Z" fill="#1a1a1a" stroke="#1a1a1a" stroke-width="0.4" stroke-linejoin="round" />
</g></g>
<text x="14" y="26" font-family="sans-serif" font-size="14" fill="#999"></text>
<line x1="441" y1="8" x2="441" y2="372" stroke="#ddd" stroke-width="1" />
<text x="215" y="20" text-anchor="middle" font-family="sans-serif" font-size="14" fill="#999">creases (hidden-line)</text>
<text x="667" y="20" text-anchor="middle" font-family="sans-serif" font-size="14" fill="#999">faceted shading</text>
</svg>