<svg xmlns="http://www.w3.org/2000/svg" viewBox="0 0 882 380" width="882" height="380">
<defs><clipPath id="clip-0-0" clipPathUnits="userSpaceOnUse"><rect x="0" y="0" width="430" height="380" /></clipPath><clipPath id="clip-0-1" clipPathUnits="userSpaceOnUse"><rect x="452" y="0" width="430" height="380" /></clipPath></defs>
<g clip-path="url(#clip-0-0)"><g transform="translate(0,0)">  <rect width="430" height="380" fill="#faf9f5" />
  <polyline points="225.95,163.72 223.68,168.79 221.28,173.82 218.92,178.92 216.71,184.09 214.7,189.16 212.74,194.18 210.75,199.22 208.63,204.31 206.23,209.49 203.81,214.58 201.46,219.59" fill="none" stroke="#1a1a1a" stroke-width="1.192" stroke-opacity="0.32" stroke-dasharray="4,3" stroke-linecap="round" stroke-linejoin="round" />
  <polyline points="225.95,163.72 231.83,164.16 237.65,164.62 243.42,165.11 249.17,165.63 254.89,166.18 260.57,166.74 266.22,167.27 271.89,167.78 277.62,168.28 283.39,168.77 289.19,169.26 294.98,169.72 300.78,170.13 306.6,170.5 312.43,170.87 318.22,171.26 323.98,171.7 329.76,172.2 335.54,172.7 341.32,173.16" fill="none" stroke="#1a1a1a" stroke-width="1.146" stroke-opacity="0.32" stroke-dasharray="4,3" stroke-linecap="round" stroke-linejoin="round" />
  <polyline points="225.95,163.72 226.07,157.84 226.17,151.91 226.28,145.92 226.4,139.93 226.52,133.99 226.64,128.12 226.72,122.27 226.77,116.36 226.8,110.35 226.83,104.3 226.86,98.28 226.83,92.32 226.76,86.37 226.72,80.41 226.75,74.48 226.81,68.61 226.84,62.76 226.8,56.84 226.73,50.83" fill="none" stroke="#1a1a1a" stroke-width="1.164" stroke-opacity="0.32" stroke-dasharray="4,3" stroke-linecap="round" stroke-linejoin="round" />
  <path d="M 227.29,50.82 L 227.29,50.63 L 226.17,50.64 L 226.17,50.83 Z" fill="#1a1a1a" stroke="#1a1a1a" stroke-width="0.4" stroke-linejoin="round" />
  <polyline points="201.46,219.59 206.91,220.13 212.36,220.66 217.84,221.21 223.31,221.79 228.74,222.39 234.14,222.99" fill="none" stroke="#1a1a1a" stroke-width="1.261" stroke-opacity="0.32" stroke-dasharray="4,3" stroke-linecap="round" stroke-linejoin="round" />
  <path d="M 234.08,223.59 L 239.94,224.24 L 245.84,224.86 L 251.79,225.4 L 257.75,225.91 L 263.69,226.43 L 269.6,226.97 L 275.49,227.5 L 281.38,228.02 L 287.29,228.54 L 293.21,229.09 L 299.11,229.69 L 305.01,230.3 L 310.94,230.91 L 316.89,231.54 L 322.86,232.22 L 328.84,232.89 L 334.81,233.56 L 340.75,234.21 L 340.88,233.04 L 334.95,232.34 L 329,231.57 L 323.02,230.83 L 317.04,230.16 L 311.08,229.55 L 305.15,228.95 L 299.25,228.35 L 293.33,227.76 L 287.41,227.2 L 281.5,226.65 L 275.61,226.1 L 269.73,225.56 L 263.82,225.02 L 257.87,224.51 L 251.91,224 L 245.96,223.5 L 240.07,222.99 L 234.2,222.4 Z" fill="#1a1a1a" stroke="#1a1a1a" stroke-width="0.4" stroke-linejoin="round" />
  <polyline points="201.46,219.59 201.37,213.86 201.34,208.13 201.34,202.44 201.35,196.77 201.37,191.12 201.39,185.45 201.39,179.79 201.35,174.11 201.29,168.37 201.22,162.53 201.15,156.6 201.08,150.64 201.02,144.71" fill="none" stroke="#1a1a1a" stroke-width="1.28" stroke-opacity="0.32" stroke-dasharray="4,3" stroke-linecap="round" stroke-linejoin="round" />
  <path d="M 201.65,144.7 L 201.67,138.79 L 201.64,132.88 L 201.54,127.01 L 201.42,121.2 L 201.25,115.46 L 201.04,109.76 L 200.82,104.09 L 200.61,98.41 L 200.39,92.71 L 200.22,86.98 L 199.02,87 L 199.07,92.74 L 199.18,98.45 L 199.36,104.14 L 199.57,109.82 L 199.79,115.51 L 199.96,121.24 L 200.08,127.03 L 200.15,132.9 L 200.26,138.8 L 200.4,144.72 Z" fill="#1a1a1a" stroke="#1a1a1a" stroke-width="0.4" stroke-linejoin="round" />
  <path d="M 341.42,233.63 L 341.42,233.21 L 340.21,233.2 L 340.21,233.62 Z" fill="#1a1a1a" stroke="#1a1a1a" stroke-width="0.4" stroke-linejoin="round" />
  <polyline points="340.82,233.21 340.73,227.07 340.63,221.02 340.77,215.17 341,209.17 341.21,203.02 341.27,196.97 341.28,190.93 341.18,185.02 341.18,179.19 341.32,173.16" fill="none" stroke="#1a1a1a" stroke-width="1.217" stroke-opacity="0.32" stroke-dasharray="4,3" stroke-linecap="round" stroke-linejoin="round" />
  <path d="M 341.44,233.69 L 342.08,228.1 L 342.75,222.42 L 343.42,216.65 L 344.07,210.84 L 344.71,205.01 L 345.35,199.19 L 345.97,193.38 L 346.59,187.58 L 347.21,181.8 L 347.85,176.08 L 348.5,170.38 L 349.15,164.68 L 349.79,158.99 L 350.44,153.31 L 351.13,147.64 L 351.83,141.94 L 352.53,136.22 L 353.23,130.49 L 353.91,124.75 L 354.57,119 L 355.21,113.24 L 355.87,107.48 L 356.56,101.71 L 357.28,95.93 L 356.06,95.78 L 355.31,101.55 L 354.52,107.31 L 353.76,113.07 L 353.08,118.83 L 352.44,124.59 L 351.78,130.32 L 351.08,136.04 L 350.38,141.76 L 349.68,147.46 L 349.02,153.14 L 348.38,158.83 L 347.75,164.52 L 347.11,170.22 L 346.47,175.92 L 345.82,181.65 L 345.16,187.42 L 344.51,193.22 L 343.88,199.03 L 343.25,204.85 L 342.62,210.68 L 342.01,216.5 L 341.41,222.27 L 340.8,227.95 L 340.19,233.56 Z" fill="#1a1a1a" stroke="#1a1a1a" stroke-width="0.4" stroke-linejoin="round" />
  <polyline points="341.32,173.16 341.93,167.26 342.58,161.45 343.24,155.7 343.91,149.97 344.57,144.27 345.19,138.56 345.8,132.82 346.42,127.01 347.06,121.17 347.72,115.31 348.38,109.44 349.04,103.59 349.76,97.75 350.49,91.93 351.14,86.1 351.74,80.22 352.32,74.28 352.89,68.33 353.46,62.42 354.05,56.62" fill="none" stroke="#1a1a1a" stroke-width="1.187" stroke-opacity="0.32" stroke-dasharray="4,3" stroke-linecap="round" stroke-linejoin="round" />
  <path d="M 354.63,56.68 L 354.65,56.48 L 353.5,56.36 L 353.48,56.56 Z" fill="#1a1a1a" stroke="#1a1a1a" stroke-width="0.4" stroke-linejoin="round" />
  <path d="M 226.25,50.29 L 222.75,55.02 L 219.51,59.5 L 216.18,63.77 L 212.97,68.16 L 209.43,73.04 L 205.96,77.68 L 202.51,82.13 L 199.16,86.63 L 200.08,87.34 L 203.57,82.96 L 207.08,78.54 L 210.56,73.86 L 214.09,68.98 L 217.29,64.62 L 220.65,60.36 L 223.88,55.84 L 227.21,50.98 Z" fill="#1a1a1a" stroke="#1a1a1a" stroke-width="0.4" stroke-linejoin="round" />
  <path d="M 226.71,51.2 L 232.49,51.46 L 238.33,51.72 L 244.16,51.96 L 249.94,52.19 L 255.68,52.43 L 261.43,52.67 L 267.23,52.87 L 273.04,53.05 L 278.86,53.27 L 284.69,53.56 L 290.51,53.9 L 296.32,54.28 L 302.08,54.64 L 307.82,54.96 L 313.56,55.25 L 319.29,55.53 L 325.05,55.83 L 330.83,56.12 L 336.61,56.38 L 342.41,56.58 L 348.24,56.77 L 354.05,56.98 L 354.1,55.86 L 348.28,55.6 L 342.46,55.33 L 336.67,55.07 L 330.89,54.8 L 325.12,54.5 L 319.36,54.2 L 313.62,53.93 L 307.89,53.66 L 302.16,53.35 L 296.4,53 L 290.59,52.64 L 284.75,52.3 L 278.92,51.99 L 273.09,51.74 L 267.27,51.53 L 261.48,51.33 L 255.73,51.1 L 249.99,50.86 L 244.21,50.66 L 238.38,50.47 L 232.54,50.28 L 226.75,50.06 Z" fill="#1a1a1a" stroke="#1a1a1a" stroke-width="0.4" stroke-linejoin="round" />
  <path d="M 199.58,87.62 L 205.43,87.99 L 211.29,88.36 L 217.13,88.75 L 222.95,89.13 L 228.74,89.5 L 234.5,89.85 L 240.23,90.18 L 245.97,90.51 L 251.73,90.85 L 257.55,91.2 L 263.41,91.57 L 269.3,91.95 L 275.2,92.29 L 281.09,92.62 L 286.98,92.94 L 292.84,93.24 L 298.68,93.54 L 304.49,93.85 L 310.29,94.16 L 316.05,94.48 L 321.8,94.8 L 327.57,95.12 L 333.37,95.44 L 339.2,95.72 L 345.04,95.96 L 350.85,96.19 L 356.64,96.48 L 356.7,95.23 L 350.91,94.92 L 345.1,94.62 L 339.27,94.31 L 333.45,93.97 L 327.66,93.6 L 321.89,93.25 L 316.13,92.94 L 310.36,92.65 L 304.57,92.37 L 298.76,92.06 L 292.92,91.75 L 287.05,91.46 L 281.17,91.16 L 275.28,90.85 L 269.39,90.51 L 263.5,90.15 L 257.64,89.79 L 251.82,89.41 L 246.06,89.05 L 240.32,88.69 L 234.59,88.34 L 228.83,88 L 223.04,87.66 L 217.22,87.32 L 211.37,87 L 205.51,86.68 L 199.65,86.35 Z" fill="#1a1a1a" stroke="#1a1a1a" stroke-width="0.4" stroke-linejoin="round" />
  <path d="M 357.27,95.79 L 356.84,90.48 L 356.45,84.88 L 356.41,79.23 L 356.11,73.62 L 355.64,67.68 L 355.14,62.02 L 354.67,56.38 L 353.48,56.46 L 353.73,62.13 L 354.22,67.8 L 354.69,73.71 L 354.97,79.27 L 354.99,84.94 L 355.41,90.61 L 356.06,95.92 Z" fill="#1a1a1a" stroke="#1a1a1a" stroke-width="0.4" stroke-linejoin="round" />
  <path d="M 64.35,200.35 L 61.71,205.65 L 59.06,210.99 L 56.51,216.28 L 54.1,221.5 L 51.67,226.53 L 49.17,231.51 L 46.62,236.71 L 44.1,241.93 L 41.54,247.01 L 39.05,252.02 L 36.66,257.15 L 34.22,262.37 L 31.6,267.63 L 28.92,272.85 L 26.33,277.99 L 23.82,283.09 L 21.33,288.22 L 22.7,288.9 L 25.26,283.81 L 27.88,278.79 L 30.57,273.7 L 33.29,268.49 L 35.93,263.2 L 38.39,257.96 L 40.77,252.85 L 43.24,247.86 L 45.79,242.76 L 48.28,237.52 L 50.82,232.33 L 53.32,227.34 L 55.75,222.28 L 58.16,217.05 L 60.62,211.73 L 63.13,206.34 L 65.7,201.01 Z" fill="#1a1a1a" stroke="#1a1a1a" stroke-width="0.4" stroke-linejoin="round" />
  <path d="M 64.64,201.35 L 69.75,204.28 L 74.85,207.25 L 79.96,210.27 L 85.1,213.31 L 90.27,216.32 L 95.45,219.3 L 100.63,222.28 L 105.81,225.28 L 110.99,228.3 L 116.19,231.35 L 121.4,234.43 L 126.6,237.55 L 131.8,240.68 L 136.99,243.78 L 142.19,246.85 L 147.41,249.88 L 152.63,252.86 L 157.85,255.81 L 163.05,258.75 L 168.25,261.69 L 173.44,264.65 L 178.66,267.62 L 183.87,270.59 L 189.09,273.57 L 194.28,276.56 L 199.45,279.55 L 204.62,282.54 L 209.78,285.54 L 214.95,288.55 L 220.11,291.57 L 225.27,294.57 L 230.41,297.57 L 235.55,300.56 L 240.69,303.54 L 245.85,306.52 L 251.03,309.5 L 256.26,312.48 L 261.52,315.47 L 266.76,318.47 L 271.94,321.49 L 277.09,324.54 L 277.88,323.23 L 272.74,320.15 L 267.57,317.09 L 262.35,314.03 L 257.12,310.98 L 251.91,307.97 L 246.72,304.99 L 241.57,302.03 L 236.42,299.06 L 231.29,296.07 L 226.15,293.06 L 221.01,290.04 L 215.86,287 L 210.69,283.98 L 205.53,280.97 L 200.36,277.99 L 195.17,275.01 L 189.96,272.05 L 184.74,269.08 L 179.52,266.1 L 174.33,263.11 L 169.15,260.11 L 163.98,257.12 L 158.79,254.15 L 153.59,251.18 L 148.36,248.22 L 143.15,245.22 L 137.97,242.15 L 132.79,239.02 L 127.61,235.88 L 122.4,232.75 L 117.19,229.66 L 111.98,226.61 L 106.77,223.6 L 101.57,220.63 L 96.37,217.69 L 91.17,214.75 L 85.97,211.8 L 80.8,208.83 L 75.65,205.86 L 70.53,202.92 L 65.41,200.01 Z" fill="#1a1a1a" stroke="#1a1a1a" stroke-width="0.4" stroke-linejoin="round" />
  <path d="M 65.57,201.2 L 69.65,196.93 L 73.64,192.65 L 77.63,188.36 L 81.71,184.1 L 85.83,179.86 L 89.99,175.59 L 94.18,171.31 L 98.32,167.03 L 102.44,162.76 L 106.52,158.43 L 110.56,154 L 114.56,149.46 L 118.54,144.93 L 122.53,140.5 L 126.54,136.18 L 130.57,131.91 L 134.62,127.63 L 138.67,123.28 L 142.75,118.86 L 146.85,114.48 L 150.91,110.16 L 154.93,105.89 L 158.92,101.61 L 162.92,97.29 L 166.95,92.87 L 171,88.4 L 175.07,83.95 L 173.98,82.94 L 169.88,87.38 L 165.8,91.81 L 161.73,96.18 L 157.71,100.48 L 153.69,104.72 L 149.65,108.97 L 145.56,113.26 L 141.43,117.62 L 137.31,122.01 L 133.25,126.35 L 129.23,130.65 L 125.21,134.93 L 121.18,139.26 L 117.14,143.68 L 113.13,148.21 L 109.14,152.73 L 105.12,157.14 L 101.06,161.45 L 96.97,165.73 L 92.85,170.02 L 88.68,174.31 L 84.52,178.58 L 80.41,182.86 L 76.37,187.19 L 72.45,191.56 L 68.53,195.88 L 64.48,200.16 Z" fill="#1a1a1a" stroke="#1a1a1a" stroke-width="0.4" stroke-linejoin="round" />
  <path d="M 21.93,289.25 L 27.83,290.02 L 33.76,290.84 L 39.71,291.67 L 45.71,292.53 L 51.76,293.38 L 57.81,294.23 L 63.83,295.07 L 69.82,295.91 L 75.76,296.73 L 81.67,297.55 L 87.54,298.36 L 93.4,299.16 L 99.27,299.93 L 105.18,300.69 L 111.14,301.47 L 117.14,302.27 L 123.12,303.11 L 129.08,303.96 L 135,304.82 L 140.9,305.68 L 146.8,306.55 L 152.7,307.41 L 158.62,308.28 L 164.54,309.14 L 170.46,310 L 176.39,310.85 L 182.34,311.7 L 188.31,312.54 L 194.28,313.38 L 200.25,314.18 L 206.21,314.95 L 212.17,315.7 L 218.14,316.45 L 224.11,317.24 L 230.08,318.08 L 236.04,318.95 L 241.99,319.78 L 247.89,320.56 L 253.77,321.32 L 259.65,322.07 L 265.53,322.84 L 271.44,323.68 L 277.39,324.55 L 277.58,323.21 L 271.64,322.33 L 265.73,321.46 L 259.84,320.62 L 253.97,319.81 L 248.1,319.01 L 242.21,318.18 L 236.27,317.34 L 230.3,316.5 L 224.32,315.7 L 218.34,314.92 L 212.37,314.17 L 206.41,313.41 L 200.46,312.62 L 194.5,311.8 L 188.53,310.95 L 182.57,310.1 L 176.62,309.26 L 170.68,308.42 L 164.76,307.6 L 158.84,306.75 L 152.93,305.88 L 147.03,304.99 L 141.14,304.08 L 135.25,303.18 L 129.33,302.28 L 123.36,301.41 L 117.37,300.59 L 111.36,299.8 L 105.4,299.02 L 99.5,298.24 L 93.63,297.44 L 87.78,296.63 L 81.91,295.82 L 76,295.01 L 70.05,294.2 L 64.06,293.4 L 58.03,292.6 L 51.97,291.8 L 45.92,291.01 L 39.91,290.21 L 33.95,289.42 L 28.02,288.65 L 22.11,287.88 Z" fill="#1a1a1a" stroke="#1a1a1a" stroke-width="0.4" stroke-linejoin="round" />
  <path d="M 22.56,288.96 L 22.75,288.7 L 21.66,287.9 L 21.47,288.17 Z" fill="#1a1a1a" stroke="#1a1a1a" stroke-width="0.4" stroke-linejoin="round" />
  <polyline points="22.21,288.3 25.73,283.53 29.26,278.77 32.81,274.04 36.38,269.32 39.94,264.6 43.5,259.88 47.04,255.15 50.56,250.42 54.05,245.67 57.52,240.89 60.99,236.1 64.46,231.3 67.94,226.53 71.44,221.78 74.97,217.06 78.53,212.35 82.1,207.64 85.65,202.93 89.18,198.23 92.7,193.51 96.22,188.8 99.74,184.09 103.25,179.38 106.76,174.62 110.28,169.82 113.81,164.98 117.36,160.11 120.93,155.26 124.51,150.44 128.09,145.66 131.67,140.92 135.24,136.19 138.82,131.46 142.39,126.72 145.95,121.97 149.51,117.22 153.06,112.47 156.59,107.72 160.11,102.97 163.64,98.21 167.17,93.44 170.69,88.66 174.21,83.88" fill="none" stroke="#1a1a1a" stroke-width="1.441" stroke-opacity="0.32" stroke-dasharray="4,3" stroke-linecap="round" stroke-linejoin="round" />
  <path d="M 174.75,84.27 L 175.07,83.84 L 173.99,83.05 L 173.67,83.48 Z" fill="#1a1a1a" stroke="#1a1a1a" stroke-width="0.4" stroke-linejoin="round" />
  <path d="M 278.12,323.62 L 275.84,318.1 L 273.58,312.59 L 271.32,307.09 L 269.02,301.59 L 266.68,296.09 L 264.31,290.62 L 261.92,285.15 L 259.53,279.68 L 257.14,274.22 L 254.78,268.77 L 252.47,263.31 L 250.19,257.85 L 247.93,252.38 L 245.65,246.9 L 243.36,241.43 L 241.05,235.95 L 238.72,230.5 L 236.34,225.08 L 233.92,219.68 L 231.49,214.3 L 229.06,208.93 L 226.63,203.58 L 224.23,198.23 L 221.86,192.86 L 219.51,187.46 L 217.17,182.02 L 214.84,176.55 L 212.51,171.02 L 210.18,165.47 L 207.85,159.93 L 205.51,154.4 L 203.17,148.9 L 200.85,143.41 L 198.54,137.91 L 196.23,132.39 L 193.93,126.85 L 191.59,121.32 L 189.23,115.83 L 186.86,110.38 L 184.48,104.96 L 182.12,99.53 L 179.77,94.09 L 177.45,88.64 L 175.15,83.18 L 173.9,83.71 L 176.2,89.17 L 178.49,94.63 L 180.8,100.1 L 183.1,105.55 L 185.43,111 L 187.76,116.46 L 190.09,121.96 L 192.44,127.48 L 194.79,133 L 197.12,138.51 L 199.43,144.01 L 201.76,149.5 L 204.08,155.01 L 206.4,160.54 L 208.71,166.09 L 211.03,171.64 L 213.36,177.17 L 215.7,182.65 L 218.06,188.09 L 220.44,193.49 L 222.83,198.86 L 225.22,204.21 L 227.61,209.58 L 230.01,214.96 L 232.4,220.36 L 234.78,225.76 L 237.15,231.18 L 239.5,236.62 L 241.82,242.07 L 244.09,247.55 L 246.34,253.03 L 248.59,258.51 L 250.87,263.98 L 253.19,269.45 L 255.55,274.91 L 257.96,280.37 L 260.39,285.82 L 262.81,291.28 L 265.22,296.73 L 267.61,302.19 L 269.97,307.66 L 272.27,313.14 L 274.56,318.63 L 276.85,324.15 Z" fill="#1a1a1a" stroke="#1a1a1a" stroke-width="0.4" stroke-linejoin="round" />
</g></g>
<g clip-path="url(#clip-0-1)"><g transform="translate(452,0)">  <rect width="430" height="380" fill="#faf9f5" />
  <path d="M 322.57,55.3 L 326.17,56.47 L 329.75,57.63 L 333.31,58.77 L 336.86,59.91 L 340.4,61.04 L 343.94,62.17 L 347.47,63.32 L 351.03,64.49 L 354.6,65.65 L 354.8,65.05 L 351.24,63.86 L 347.69,62.67 L 344.15,61.52 L 340.61,60.39 L 337.07,59.26 L 333.52,58.13 L 329.96,56.98 L 326.37,55.83 L 322.76,54.71 Z" fill="#1a1a1a" fill-opacity="0.55" stroke="#1a1a1a" stroke-width="0.4" stroke-opacity="0.55" stroke-linejoin="round" />
  <path d="M 288.25,53.71 L 292.01,54.91 L 295.76,56.12 L 299.49,57.31 L 303.19,58.52 L 306.89,59.74 L 310.59,60.96 L 314.31,62.17 L 318.02,63.36 L 321.72,64.53 L 325.42,65.71 L 329.13,66.91 L 332.85,68.15 L 336.59,69.42 L 340.33,70.68 L 344.06,71.92 L 347.79,73.13 L 351.53,74.32 L 351.72,73.71 L 348,72.5 L 344.28,71.27 L 340.55,70.01 L 336.82,68.74 L 333.08,67.47 L 329.36,66.22 L 325.64,65.02 L 321.94,63.84 L 318.24,62.67 L 314.53,61.49 L 310.82,60.28 L 307.11,59.06 L 303.41,57.84 L 299.71,56.63 L 295.97,55.45 L 292.2,54.29 L 288.45,53.11 Z" fill="#1a1a1a" fill-opacity="0.55" stroke="#1a1a1a" stroke-width="0.4" stroke-opacity="0.55" stroke-linejoin="round" />
  <path d="M 254.29,52.14 L 258.07,53.29 L 261.82,54.47 L 265.53,55.66 L 269.24,56.88 L 272.98,58.1 L 276.74,59.31 L 280.5,60.53 L 284.25,61.77 L 287.99,63.03 L 291.74,64.3 L 295.51,65.55 L 299.29,66.78 L 303.06,68.01 L 306.82,69.26 L 310.57,70.5 L 314.31,71.72 L 318.04,72.92 L 321.77,74.1 L 325.51,75.29 L 329.26,76.47 L 333.02,77.67 L 336.78,78.88 L 340.54,80.07 L 344.29,81.27 L 348.05,82.5 L 351.83,83.76 L 352.03,83.16 L 348.26,81.89 L 344.5,80.64 L 340.75,79.41 L 337,78.2 L 333.24,76.99 L 329.47,75.8 L 325.72,74.61 L 321.98,73.43 L 318.25,72.25 L 314.52,71.05 L 310.79,69.83 L 307.04,68.59 L 303.28,67.34 L 299.51,66.11 L 295.73,64.88 L 291.96,63.63 L 288.21,62.37 L 284.47,61.11 L 280.72,59.86 L 276.96,58.64 L 273.2,57.42 L 269.46,56.21 L 265.74,55.01 L 262.02,53.83 L 258.26,52.67 L 254.47,51.53 Z" fill="#1a1a1a" fill-opacity="0.55" stroke="#1a1a1a" stroke-width="0.4" stroke-opacity="0.55" stroke-linejoin="round" />
  <path d="M 225.55,52.15 L 229.2,53.37 L 232.91,54.62 L 236.65,55.89 L 240.4,57.16 L 244.16,58.41 L 247.95,59.64 L 251.74,60.87 L 255.51,62.1 L 259.25,63.32 L 262.95,64.52 L 266.64,65.71 L 270.32,66.91 L 274.01,68.12 L 277.74,69.36 L 281.51,70.61 L 285.29,71.85 L 289.07,73.05 L 292.82,74.25 L 296.56,75.43 L 300.3,76.63 L 304.03,77.83 L 307.75,79.05 L 311.45,80.28 L 315.13,81.5 L 318.81,82.72 L 322.51,83.93 L 326.23,85.11 L 329.97,86.27 L 333.71,87.43 L 337.45,88.58 L 341.19,89.75 L 344.93,90.95 L 348.68,92.15 L 352.44,93.36 L 352.63,92.76 L 348.88,91.55 L 345.13,90.33 L 341.39,89.12 L 337.66,87.93 L 333.92,86.75 L 330.19,85.59 L 326.45,84.42 L 322.73,83.24 L 319.04,82.03 L 315.36,80.82 L 311.68,79.6 L 307.97,78.38 L 304.25,77.16 L 300.52,75.95 L 296.77,74.76 L 293.03,73.57 L 289.28,72.37 L 285.51,71.16 L 281.73,69.92 L 277.97,68.67 L 274.24,67.43 L 270.54,66.22 L 266.86,65.02 L 263.18,63.83 L 259.47,62.63 L 255.74,61.41 L 251.96,60.19 L 248.17,58.96 L 244.38,57.74 L 240.62,56.5 L 236.87,55.25 L 233.12,54 L 229.4,52.76 L 225.76,51.54 Z" fill="#1a1a1a" fill-opacity="0.55" stroke="#1a1a1a" stroke-width="0.4" stroke-opacity="0.55" stroke-linejoin="round" />
  <path d="M 220.05,59.89 L 223.82,61.13 L 227.59,62.34 L 231.34,63.53 L 235.08,64.71 L 238.83,65.9 L 242.58,67.12 L 246.33,68.37 L 250.08,69.65 L 253.85,70.94 L 257.64,72.21 L 261.44,73.45 L 265.24,74.69 L 269.05,75.91 L 272.85,77.14 L 276.63,78.37 L 280.4,79.58 L 284.15,80.8 L 287.89,82 L 291.64,83.2 L 295.39,84.4 L 299.15,85.61 L 302.91,86.81 L 306.66,88.02 L 310.42,89.23 L 314.19,90.45 L 317.96,91.67 L 321.74,92.88 L 325.51,94.08 L 329.27,95.29 L 333.01,96.52 L 336.75,97.74 L 340.48,98.96 L 344.22,100.17 L 347.96,101.38 L 351.72,102.6 L 351.92,102 L 348.16,100.78 L 344.41,99.56 L 340.68,98.34 L 336.95,97.11 L 333.22,95.88 L 329.48,94.64 L 325.72,93.43 L 321.95,92.22 L 318.18,91.01 L 314.4,89.79 L 310.63,88.57 L 306.87,87.36 L 303.12,86.15 L 299.36,84.95 L 295.6,83.75 L 291.85,82.54 L 288.1,81.34 L 284.36,80.14 L 280.61,78.92 L 276.85,77.7 L 273.06,76.48 L 269.26,75.25 L 265.46,74.03 L 261.65,72.8 L 257.86,71.56 L 254.07,70.29 L 250.3,69 L 246.55,67.72 L 242.8,66.46 L 239.04,65.25 L 235.29,64.07 L 231.53,62.9 L 227.78,61.72 L 224.02,60.53 L 220.25,59.29 Z" fill="#1a1a1a" fill-opacity="0.55" stroke="#1a1a1a" stroke-width="0.4" stroke-opacity="0.55" stroke-linejoin="round" />
  <path d="M 214.41,67.64 L 218.21,68.92 L 222.02,70.2 L 225.83,71.47 L 229.63,72.7 L 233.41,73.91 L 237.17,75.13 L 240.92,76.36 L 244.67,77.61 L 248.42,78.87 L 252.18,80.11 L 255.93,81.35 L 259.7,82.58 L 263.47,83.79 L 267.25,85.01 L 271.05,86.22 L 274.88,87.43 L 278.72,88.65 L 282.56,89.87 L 286.41,91.11 L 290.23,92.34 L 294.03,93.58 L 297.81,94.83 L 301.59,96.06 L 305.37,97.3 L 309.15,98.53 L 312.94,99.77 L 316.72,101.02 L 320.5,102.27 L 324.28,103.51 L 328.03,104.76 L 331.78,105.99 L 335.52,107.22 L 339.27,108.44 L 343.02,109.66 L 346.81,110.88 L 350.61,112.1 L 354.43,113.33 L 354.62,112.73 L 350.81,111.5 L 347.01,110.27 L 343.23,109.04 L 339.47,107.81 L 335.73,106.58 L 332,105.34 L 328.25,104.1 L 324.5,102.85 L 320.73,101.6 L 316.95,100.34 L 313.16,99.09 L 309.38,97.85 L 305.6,96.62 L 301.82,95.38 L 298.04,94.15 L 294.25,92.91 L 290.45,91.68 L 286.62,90.45 L 282.77,89.22 L 278.92,88 L 275.09,86.77 L 271.26,85.56 L 267.46,84.34 L 263.68,83.12 L 259.92,81.9 L 256.16,80.67 L 252.4,79.44 L 248.65,78.19 L 244.9,76.93 L 241.15,75.68 L 237.39,74.45 L 233.62,73.24 L 229.84,72.05 L 226.04,70.83 L 222.23,69.59 L 218.41,68.32 L 214.61,67.04 Z" fill="#1a1a1a" fill-opacity="0.55" stroke="#1a1a1a" stroke-width="0.4" stroke-opacity="0.55" stroke-linejoin="round" />
  <path d="M 208.81,75.2 L 212.45,76.43 L 216.11,77.65 L 219.81,78.87 L 223.53,80.1 L 227.27,81.32 L 231.02,82.53 L 234.76,83.73 L 238.49,84.91 L 242.2,86.1 L 245.92,87.28 L 249.63,88.47 L 253.35,89.66 L 257.08,90.85 L 260.8,92.07 L 264.53,93.27 L 268.25,94.47 L 271.97,95.67 L 275.69,96.87 L 279.41,98.07 L 283.12,99.28 L 286.84,100.48 L 290.56,101.68 L 294.3,102.88 L 298.03,104.09 L 301.76,105.3 L 305.48,106.52 L 309.18,107.73 L 312.87,108.95 L 316.54,110.17 L 320.22,111.39 L 323.89,112.62 L 327.56,113.84 L 331.24,115.06 L 334.92,116.29 L 338.6,117.51 L 342.29,118.73 L 345.99,119.95 L 349.69,121.17 L 349.89,120.56 L 346.19,119.34 L 342.5,118.11 L 338.81,116.87 L 335.14,115.63 L 331.46,114.4 L 327.79,113.17 L 324.11,111.94 L 320.44,110.72 L 316.77,109.49 L 313.09,108.27 L 309.4,107.05 L 305.7,105.84 L 301.98,104.63 L 298.25,103.42 L 294.51,102.22 L 290.77,101.02 L 287.05,99.83 L 283.33,98.63 L 279.62,97.43 L 275.9,96.23 L 272.18,95.03 L 268.46,93.82 L 264.74,92.62 L 261.02,91.41 L 257.3,90.19 L 253.57,89 L 249.85,87.8 L 246.13,86.61 L 242.42,85.43 L 238.7,84.25 L 234.97,83.06 L 231.23,81.87 L 227.48,80.67 L 223.74,79.46 L 220.01,78.25 L 216.31,77.05 L 212.65,75.84 L 209.01,74.61 Z" fill="#1a1a1a" fill-opacity="0.55" stroke="#1a1a1a" stroke-width="0.4" stroke-opacity="0.55" stroke-linejoin="round" />
  <path d="M 203.36,82.64 L 207.1,83.85 L 210.83,85.05 L 214.56,86.26 L 218.28,87.47 L 221.99,88.7 L 225.7,89.92 L 229.4,91.15 L 233.1,92.37 L 236.79,93.59 L 240.48,94.8 L 244.18,96.02 L 247.88,97.25 L 251.61,98.47 L 255.34,99.69 L 259.07,100.91 L 262.8,102.13 L 266.52,103.33 L 270.24,104.54 L 273.95,105.75 L 277.66,106.98 L 281.38,108.21 L 285.09,109.45 L 288.81,110.69 L 292.53,111.91 L 296.25,113.13 L 299.98,114.34 L 303.71,115.55 L 307.45,116.74 L 311.18,117.94 L 314.92,119.13 L 318.67,120.33 L 322.41,121.53 L 326.16,122.74 L 329.91,123.96 L 333.67,125.18 L 337.41,126.41 L 341.15,127.64 L 344.9,128.87 L 348.64,130.11 L 348.83,129.51 L 345.09,128.28 L 341.35,127.04 L 337.62,125.79 L 333.87,124.55 L 330.12,123.32 L 326.37,122.09 L 322.62,120.88 L 318.88,119.67 L 315.13,118.47 L 311.39,117.28 L 307.66,116.08 L 303.92,114.89 L 300.19,113.69 L 296.47,112.48 L 292.75,111.26 L 289.03,110.03 L 285.31,108.79 L 281.6,107.55 L 277.88,106.31 L 274.17,105.09 L 270.46,103.87 L 266.74,102.66 L 263.02,101.45 L 259.29,100.23 L 255.56,99.01 L 251.83,97.79 L 248.1,96.57 L 244.4,95.35 L 240.7,94.14 L 237.01,92.92 L 233.32,91.7 L 229.62,90.48 L 225.92,89.26 L 222.2,88.04 L 218.49,86.83 L 214.76,85.63 L 211.03,84.44 L 207.29,83.24 L 203.56,82.04 Z" fill="#1a1a1a" fill-opacity="0.55" stroke="#1a1a1a" stroke-width="0.4" stroke-opacity="0.55" stroke-linejoin="round" />
  <path d="M 199.76,91.04 L 203.56,92.29 L 207.37,93.55 L 211.17,94.81 L 214.97,96.08 L 218.77,97.35 L 222.57,98.62 L 226.38,99.89 L 230.2,101.16 L 234.02,102.41 L 237.85,103.65 L 241.67,104.86 L 245.48,106.08 L 249.27,107.29 L 253.04,108.5 L 256.8,109.71 L 260.55,110.92 L 264.3,112.13 L 268.06,113.33 L 271.83,114.54 L 275.61,115.75 L 279.38,116.96 L 283.15,118.18 L 286.93,119.39 L 290.71,120.6 L 294.49,121.81 L 298.27,123.02 L 302.05,124.25 L 305.83,125.49 L 309.6,126.73 L 313.38,127.97 L 317.16,129.2 L 320.95,130.42 L 324.75,131.63 L 328.55,132.85 L 332.36,134.07 L 336.16,135.29 L 339.95,136.52 L 343.73,137.75 L 347.5,138.99 L 347.69,138.39 L 343.92,137.15 L 340.15,135.91 L 336.36,134.67 L 332.56,133.43 L 328.76,132.2 L 324.96,130.98 L 321.17,129.76 L 317.38,128.53 L 313.6,127.31 L 309.82,126.07 L 306.05,124.82 L 302.27,123.58 L 298.49,122.35 L 294.71,121.14 L 290.92,119.93 L 287.14,118.72 L 283.37,117.51 L 279.6,116.3 L 275.82,115.08 L 272.05,113.87 L 268.28,112.66 L 264.52,111.45 L 260.76,110.25 L 257.01,109.04 L 253.26,107.83 L 249.49,106.62 L 245.7,105.4 L 241.89,104.19 L 238.07,102.97 L 234.25,101.73 L 230.42,100.48 L 226.6,99.22 L 222.79,97.95 L 218.99,96.69 L 215.19,95.43 L 211.38,94.18 L 207.57,92.94 L 203.76,91.69 L 199.95,90.44 Z" fill="#1a1a1a" fill-opacity="0.55" stroke="#1a1a1a" stroke-width="0.4" stroke-opacity="0.55" stroke-linejoin="round" />
  <path d="M 199.98,100.52 L 203.74,101.77 L 207.49,103.04 L 211.25,104.3 L 215.01,105.57 L 218.77,106.84 L 222.54,108.1 L 226.3,109.36 L 230.07,110.62 L 233.84,111.86 L 237.61,113.09 L 241.38,114.32 L 245.15,115.53 L 248.91,116.73 L 252.66,117.93 L 256.4,119.13 L 260.13,120.32 L 263.87,121.51 L 267.6,122.7 L 271.34,123.9 L 275.08,125.12 L 278.82,126.35 L 282.57,127.58 L 286.32,128.82 L 290.07,130.07 L 293.83,131.31 L 297.58,132.55 L 301.34,133.79 L 305.1,135.02 L 308.86,136.25 L 312.63,137.48 L 316.4,138.71 L 320.18,139.93 L 323.95,141.15 L 327.72,142.37 L 331.5,143.57 L 335.28,144.78 L 339.06,145.98 L 342.87,147.18 L 346.67,148.39 L 350.48,149.61 L 350.67,149.01 L 346.87,147.79 L 343.06,146.57 L 339.26,145.35 L 335.48,144.14 L 331.7,142.93 L 327.93,141.71 L 324.16,140.5 L 320.39,139.28 L 316.61,138.06 L 312.84,136.84 L 309.07,135.6 L 305.31,134.36 L 301.56,133.12 L 297.8,131.88 L 294.05,130.64 L 290.3,129.39 L 286.55,128.14 L 282.8,126.89 L 279.05,125.66 L 275.3,124.43 L 271.56,123.22 L 267.82,122.02 L 264.08,120.83 L 260.35,119.64 L 256.62,118.45 L 252.88,117.26 L 249.13,116.06 L 245.36,114.86 L 241.6,113.65 L 237.83,112.43 L 234.06,111.2 L 230.29,109.96 L 226.52,108.71 L 222.76,107.45 L 218.99,106.19 L 215.22,104.93 L 211.46,103.68 L 207.7,102.42 L 203.94,101.17 L 200.18,99.92 Z" fill="#1a1a1a" fill-opacity="0.55" stroke="#1a1a1a" stroke-width="0.4" stroke-opacity="0.55" stroke-linejoin="round" />
  <path d="M 200.17,110.2 L 203.93,111.43 L 207.68,112.66 L 211.43,113.9 L 215.17,115.13 L 218.92,116.36 L 222.65,117.6 L 226.38,118.85 L 230.1,120.09 L 233.8,121.34 L 237.49,122.57 L 241.18,123.8 L 244.87,125 L 248.58,126.19 L 252.3,127.39 L 256.04,128.59 L 259.78,129.81 L 263.5,131.03 L 267.22,132.26 L 270.93,133.48 L 274.63,134.69 L 278.33,135.9 L 282.04,137.1 L 285.74,138.3 L 289.44,139.48 L 293.15,140.67 L 296.85,141.85 L 300.56,143.05 L 304.27,144.24 L 308,145.44 L 311.74,146.63 L 315.49,147.81 L 319.24,148.99 L 322.99,150.17 L 326.74,151.35 L 330.48,152.53 L 334.22,153.71 L 337.96,154.91 L 341.72,156.11 L 345.5,157.32 L 345.69,156.72 L 341.92,155.5 L 338.16,154.29 L 334.42,153.08 L 330.69,151.88 L 326.95,150.68 L 323.21,149.49 L 319.46,148.3 L 315.7,147.12 L 311.96,145.94 L 308.21,144.75 L 304.49,143.56 L 300.77,142.37 L 297.07,141.18 L 293.37,139.99 L 289.66,138.8 L 285.96,137.61 L 282.26,136.41 L 278.56,135.21 L 274.86,134 L 271.16,132.79 L 267.45,131.57 L 263.73,130.34 L 260,129.12 L 256.26,127.91 L 252.52,126.71 L 248.79,125.52 L 245.09,124.33 L 241.4,123.12 L 237.71,121.9 L 234.02,120.67 L 230.32,119.43 L 226.6,118.18 L 222.87,116.94 L 219.13,115.71 L 215.38,114.49 L 211.63,113.27 L 207.88,112.05 L 204.13,110.83 L 200.37,109.6 Z" fill="#1a1a1a" fill-opacity="0.55" stroke="#1a1a1a" stroke-width="0.4" stroke-opacity="0.55" stroke-linejoin="round" />
  <path d="M 200.56,119.75 L 204.3,120.97 L 208.05,122.19 L 211.81,123.39 L 215.59,124.58 L 219.38,125.78 L 223.18,126.99 L 226.97,128.19 L 230.76,129.41 L 234.55,130.63 L 238.33,131.87 L 242.12,133.11 L 245.91,134.36 L 249.71,135.62 L 253.51,136.88 L 257.31,138.12 L 261.1,139.37 L 264.88,140.61 L 268.66,141.85 L 272.43,143.1 L 276.21,144.33 L 280,145.56 L 283.8,146.79 L 287.61,148.02 L 291.43,149.25 L 295.25,150.5 L 299.06,151.74 L 302.87,152.98 L 306.65,154.22 L 310.41,155.45 L 314.16,156.69 L 317.91,157.93 L 321.66,159.17 L 325.42,160.4 L 329.2,161.63 L 332.99,162.87 L 336.79,164.11 L 340.6,165.35 L 344.4,166.6 L 344.6,165.99 L 340.8,164.74 L 337,163.48 L 333.2,162.23 L 329.42,160.98 L 325.64,159.73 L 321.88,158.49 L 318.13,157.24 L 314.39,156 L 310.64,154.76 L 306.87,153.53 L 303.09,152.29 L 299.29,151.05 L 295.47,149.81 L 291.65,148.57 L 287.83,147.34 L 284.02,146.12 L 280.22,144.89 L 276.43,143.66 L 272.65,142.43 L 268.88,141.19 L 265.1,139.95 L 261.32,138.7 L 257.53,137.45 L 253.73,136.21 L 249.93,134.95 L 246.13,133.7 L 242.33,132.45 L 238.55,131.21 L 234.76,129.98 L 230.97,128.76 L 227.18,127.54 L 223.39,126.34 L 219.59,125.14 L 215.79,123.95 L 212.01,122.76 L 208.25,121.57 L 204.5,120.37 L 200.75,119.15 Z" fill="#1a1a1a" fill-opacity="0.55" stroke="#1a1a1a" stroke-width="0.4" stroke-opacity="0.55" stroke-linejoin="round" />
  <path d="M 200.25,129.12 L 204.03,130.33 L 207.82,131.55 L 211.62,132.78 L 215.42,134.02 L 219.22,135.27 L 223.02,136.53 L 226.81,137.78 L 230.61,139.02 L 234.41,140.26 L 238.2,141.49 L 241.99,142.7 L 245.77,143.91 L 249.54,145.13 L 253.31,146.35 L 257.07,147.57 L 260.83,148.8 L 264.59,150.04 L 268.35,151.27 L 272.09,152.49 L 275.82,153.7 L 279.54,154.89 L 283.25,156.08 L 286.96,157.28 L 290.67,158.48 L 294.38,159.69 L 298.11,160.92 L 301.86,162.15 L 305.62,163.39 L 309.4,164.62 L 313.18,165.83 L 316.97,167.04 L 320.76,168.24 L 324.55,169.44 L 328.34,170.64 L 332.13,171.86 L 335.93,173.11 L 339.72,174.37 L 343.52,175.64 L 347.31,176.91 L 347.51,176.31 L 343.72,175.04 L 339.92,173.76 L 336.13,172.49 L 332.34,171.23 L 328.55,170 L 324.76,168.79 L 320.97,167.59 L 317.18,166.39 L 313.4,165.18 L 309.61,163.95 L 305.84,162.72 L 302.08,161.48 L 298.34,160.24 L 294.61,159.01 L 290.89,157.8 L 287.18,156.6 L 283.47,155.41 L 279.76,154.22 L 276.04,153.03 L 272.31,151.82 L 268.56,150.6 L 264.81,149.37 L 261.05,148.14 L 257.29,146.9 L 253.53,145.67 L 249.76,144.45 L 245.99,143.24 L 242.2,142.03 L 238.42,140.82 L 234.62,139.59 L 230.83,138.35 L 227.04,137.1 L 223.24,135.86 L 219.44,134.61 L 215.63,133.38 L 211.82,132.16 L 208.02,130.94 L 204.22,129.73 L 200.44,128.53 Z" fill="#1a1a1a" fill-opacity="0.55" stroke="#1a1a1a" stroke-width="0.4" stroke-opacity="0.55" stroke-linejoin="round" />
  <path d="M 200.61,138.56 L 204.34,139.81 L 208.06,141.05 L 211.77,142.28 L 215.47,143.51 L 219.16,144.75 L 222.87,145.99 L 226.59,147.24 L 230.33,148.49 L 234.07,149.73 L 237.81,150.96 L 241.55,152.17 L 245.28,153.35 L 249,154.53 L 252.73,155.72 L 256.46,156.92 L 260.2,158.13 L 263.96,159.35 L 267.72,160.56 L 271.49,161.77 L 275.26,162.98 L 279.02,164.18 L 282.79,165.38 L 286.56,166.57 L 290.33,167.77 L 294.1,168.96 L 297.86,170.16 L 301.6,171.37 L 305.33,172.6 L 309.05,173.85 L 312.76,175.1 L 316.47,176.35 L 320.2,177.6 L 323.93,178.83 L 327.68,180.05 L 331.42,181.28 L 335.16,182.5 L 338.88,183.71 L 342.6,184.92 L 346.31,186.11 L 346.5,185.51 L 342.8,184.31 L 339.09,183.09 L 335.36,181.86 L 331.63,180.63 L 327.9,179.39 L 324.16,178.15 L 320.42,176.92 L 316.7,175.67 L 312.99,174.42 L 309.28,173.17 L 305.56,171.93 L 301.82,170.7 L 298.07,169.48 L 294.31,168.28 L 290.55,167.09 L 286.78,165.89 L 283.01,164.7 L 279.24,163.5 L 275.47,162.3 L 271.71,161.09 L 267.94,159.88 L 264.18,158.67 L 260.43,157.45 L 256.68,156.24 L 252.95,155.04 L 249.22,153.85 L 245.5,152.67 L 241.77,151.49 L 238.03,150.28 L 234.29,149.06 L 230.55,147.82 L 226.82,146.57 L 223.09,145.32 L 219.38,144.09 L 215.68,142.87 L 211.97,141.66 L 208.26,140.44 L 204.54,139.21 L 200.81,137.97 Z" fill="#1a1a1a" fill-opacity="0.55" stroke="#1a1a1a" stroke-width="0.4" stroke-opacity="0.55" stroke-linejoin="round" />
  <path d="M 204.47,149.37 L 208.25,150.61 L 212.05,151.85 L 215.86,153.11 L 219.68,154.39 L 223.49,155.68 L 227.31,156.98 L 231.12,158.27 L 234.92,159.56 L 238.72,160.82 L 242.52,162.06 L 246.31,163.3 L 250.1,164.53 L 253.87,165.77 L 257.63,167.01 L 261.38,168.25 L 265.13,169.49 L 268.88,170.71 L 272.65,171.93 L 276.43,173.14 L 280.23,174.35 L 284.03,175.57 L 287.83,176.78 L 291.63,178 L 295.44,179.22 L 299.24,180.44 L 303.04,181.66 L 306.85,182.88 L 310.66,184.12 L 314.49,185.36 L 318.32,186.61 L 322.15,187.87 L 325.98,189.13 L 329.82,190.37 L 333.64,191.6 L 337.47,192.83 L 341.28,194.05 L 345.1,195.28 L 345.29,194.67 L 341.48,193.44 L 337.67,192.21 L 333.85,190.97 L 330.03,189.72 L 326.2,188.47 L 322.37,187.21 L 318.53,185.95 L 314.7,184.7 L 310.88,183.45 L 307.06,182.22 L 303.25,181 L 299.45,179.78 L 295.65,178.57 L 291.84,177.35 L 288.04,176.13 L 284.24,174.92 L 280.44,173.7 L 276.64,172.48 L 272.86,171.27 L 269.1,170.05 L 265.34,168.83 L 261.6,167.59 L 257.85,166.35 L 254.09,165.11 L 250.31,163.87 L 246.53,162.63 L 242.74,161.4 L 238.94,160.15 L 235.15,158.89 L 231.34,157.61 L 227.53,156.31 L 223.71,155.02 L 219.89,153.74 L 216.07,152.48 L 212.25,151.24 L 208.45,150 L 204.67,148.77 Z" fill="#1a1a1a" fill-opacity="0.55" stroke="#1a1a1a" stroke-width="0.4" stroke-opacity="0.55" stroke-linejoin="round" />
  <path d="M 208.28,160.01 L 212.03,161.22 L 215.79,162.44 L 219.56,163.67 L 223.33,164.92 L 227.1,166.17 L 230.88,167.43 L 234.67,168.68 L 238.45,169.91 L 242.22,171.13 L 245.98,172.35 L 249.73,173.56 L 253.47,174.76 L 257.22,175.97 L 260.97,177.18 L 264.72,178.41 L 268.49,179.65 L 272.26,180.89 L 276.04,182.13 L 279.83,183.37 L 283.62,184.59 L 287.41,185.82 L 291.2,187.05 L 295,188.29 L 298.79,189.54 L 302.57,190.79 L 306.35,192.04 L 310.11,193.27 L 313.87,194.5 L 317.61,195.72 L 321.36,196.93 L 325.11,198.14 L 328.88,199.33 L 332.66,200.52 L 336.44,201.71 L 340.21,202.91 L 343.99,204.12 L 344.18,203.52 L 340.41,202.3 L 336.63,201.09 L 332.86,199.89 L 329.08,198.68 L 325.32,197.47 L 321.57,196.26 L 317.83,195.05 L 314.08,193.84 L 310.33,192.62 L 306.56,191.38 L 302.78,190.14 L 299,188.89 L 295.21,187.64 L 291.42,186.39 L 287.63,185.16 L 283.84,183.92 L 280.05,182.68 L 276.27,181.44 L 272.49,180.2 L 268.71,178.96 L 264.95,177.73 L 261.19,176.5 L 257.44,175.29 L 253.69,174.08 L 249.95,172.87 L 246.2,171.66 L 242.44,170.45 L 238.67,169.23 L 234.89,168 L 231.11,166.76 L 227.32,165.52 L 223.54,164.27 L 219.76,163.04 L 215.99,161.82 L 212.22,160.62 L 208.47,159.41 Z" fill="#1a1a1a" fill-opacity="0.55" stroke="#1a1a1a" stroke-width="0.4" stroke-opacity="0.55" stroke-linejoin="round" />
  <path d="M 212.26,170.99 L 215.99,172.22 L 219.72,173.44 L 223.43,174.65 L 227.14,175.84 L 230.84,177.04 L 234.53,178.23 L 238.24,179.43 L 241.95,180.64 L 245.67,181.87 L 249.39,183.09 L 253.13,184.31 L 256.86,185.52 L 260.59,186.73 L 264.32,187.93 L 268.04,189.12 L 271.75,190.29 L 275.48,191.47 L 279.22,192.64 L 282.98,193.82 L 286.75,195 L 290.53,196.2 L 294.31,197.43 L 298.08,198.68 L 301.85,199.93 L 305.6,201.18 L 309.35,202.43 L 313.09,203.67 L 316.83,204.9 L 320.56,206.13 L 324.29,207.35 L 328.03,208.55 L 331.76,209.75 L 335.5,210.93 L 339.24,212.13 L 342.98,213.33 L 343.17,212.74 L 339.43,211.53 L 335.69,210.33 L 331.96,209.13 L 328.23,207.92 L 324.5,206.71 L 320.78,205.48 L 317.05,204.25 L 313.31,203.02 L 309.57,201.78 L 305.82,200.53 L 302.06,199.28 L 298.3,198.03 L 294.52,196.78 L 290.74,195.55 L 286.96,194.34 L 283.18,193.15 L 279.43,191.97 L 275.69,190.8 L 271.97,189.62 L 268.25,188.43 L 264.54,187.24 L 260.81,186.04 L 257.09,184.83 L 253.35,183.62 L 249.62,182.4 L 245.89,181.18 L 242.17,179.95 L 238.46,178.73 L 234.76,177.54 L 231.05,176.36 L 227.35,175.18 L 223.64,174.01 L 219.92,172.82 L 216.19,171.62 L 212.46,170.39 Z" fill="#1a1a1a" fill-opacity="0.55" stroke="#1a1a1a" stroke-width="0.4" stroke-opacity="0.55" stroke-linejoin="round" />
  <path d="M 219.48,182.74 L 223.21,183.94 L 226.93,185.13 L 230.64,186.32 L 234.33,187.51 L 238.01,188.71 L 241.69,189.91 L 245.38,191.12 L 249.08,192.34 L 252.8,193.57 L 256.51,194.81 L 260.22,196.05 L 263.94,197.28 L 267.64,198.52 L 271.35,199.75 L 275.05,201 L 278.77,202.24 L 282.5,203.48 L 286.25,204.71 L 290,205.94 L 293.75,207.15 L 297.48,208.34 L 301.2,209.51 L 304.91,210.68 L 308.6,211.86 L 312.29,213.04 L 315.98,214.24 L 319.68,215.45 L 323.38,216.65 L 327.1,217.85 L 330.82,219.04 L 334.53,220.23 L 338.25,221.42 L 341.96,222.63 L 342.16,222.02 L 338.45,220.82 L 334.73,219.61 L 331.02,218.4 L 327.31,217.19 L 323.6,215.98 L 319.9,214.77 L 316.2,213.56 L 312.51,212.36 L 308.82,211.17 L 305.12,210 L 301.42,208.82 L 297.7,207.65 L 293.97,206.47 L 290.22,205.25 L 286.47,204.03 L 282.73,202.8 L 279,201.56 L 275.28,200.32 L 271.57,199.09 L 267.87,197.85 L 264.16,196.62 L 260.45,195.38 L 256.73,194.14 L 253.02,192.91 L 249.3,191.68 L 245.6,190.46 L 241.91,189.25 L 238.22,188.05 L 234.54,186.86 L 230.84,185.69 L 227.13,184.52 L 223.4,183.34 L 219.67,182.14 Z" fill="#1a1a1a" fill-opacity="0.55" stroke="#1a1a1a" stroke-width="0.4" stroke-opacity="0.55" stroke-linejoin="round" />
  <path d="M 223.89,193.6 L 227.67,194.83 L 231.45,196.07 L 235.22,197.3 L 238.99,198.53 L 242.76,199.76 L 246.53,200.97 L 250.28,202.19 L 254.02,203.41 L 257.78,204.63 L 261.55,205.87 L 265.34,207.1 L 269.14,208.34 L 272.95,209.57 L 276.76,210.8 L 280.59,212.03 L 284.41,213.26 L 288.24,214.49 L 292.07,215.73 L 295.89,216.97 L 299.68,218.2 L 303.45,219.44 L 307.21,220.68 L 310.95,221.94 L 314.7,223.19 L 318.45,224.44 L 322.2,225.66 L 325.95,226.87 L 329.69,228.07 L 333.41,229.26 L 337.13,230.47 L 337.33,229.87 L 333.61,228.66 L 329.89,227.45 L 326.16,226.24 L 322.41,225.01 L 318.66,223.78 L 314.92,222.54 L 311.17,221.28 L 307.42,220.03 L 303.67,218.78 L 299.89,217.55 L 296.1,216.32 L 292.28,215.08 L 288.45,213.85 L 284.62,212.61 L 280.8,211.37 L 276.98,210.13 L 273.17,208.9 L 269.36,207.67 L 265.56,206.43 L 261.77,205.2 L 258,203.96 L 254.25,202.73 L 250.5,201.51 L 246.75,200.28 L 242.98,199.07 L 239.21,197.86 L 235.43,196.65 L 231.65,195.44 L 227.87,194.22 L 224.09,193 Z" fill="#1a1a1a" fill-opacity="0.55" stroke="#1a1a1a" stroke-width="0.4" stroke-opacity="0.55" stroke-linejoin="round" />
  <path d="M 227.09,204.01 L 230.8,205.21 L 234.52,206.42 L 238.23,207.61 L 241.95,208.81 L 245.67,210.01 L 249.38,211.22 L 253.08,212.43 L 256.77,213.64 L 260.45,214.85 L 264.15,216.05 L 267.85,217.26 L 271.57,218.48 L 275.29,219.7 L 279.01,220.93 L 282.72,222.15 L 286.42,223.36 L 290.12,224.56 L 293.82,225.76 L 297.52,226.95 L 301.22,228.13 L 304.92,229.33 L 305.11,228.72 L 301.42,227.52 L 297.73,226.31 L 294.03,225.1 L 290.33,223.9 L 286.64,222.7 L 282.94,221.49 L 279.23,220.26 L 275.51,219.04 L 271.78,217.82 L 268.07,216.61 L 264.36,215.4 L 260.67,214.2 L 256.98,212.99 L 253.29,211.79 L 249.59,210.58 L 245.88,209.37 L 242.16,208.16 L 238.44,206.97 L 234.72,205.79 L 231,204.61 L 227.29,203.42 Z" fill="#1a1a1a" fill-opacity="0.55" stroke="#1a1a1a" stroke-width="0.4" stroke-opacity="0.55" stroke-linejoin="round" />
  <path d="M 233.89,215.68 L 237.48,216.87 L 241.07,218.06 L 244.68,219.24 L 248.3,220.42 L 251.92,221.6 L 255.54,222.78 L 259.16,223.96 L 262.78,225.13 L 266.41,226.3 L 266.61,225.71 L 262.99,224.5 L 259.37,223.3 L 255.76,222.12 L 252.14,220.94 L 248.52,219.76 L 244.9,218.58 L 241.29,217.4 L 237.68,216.23 L 234.08,215.08 Z" fill="#1a1a1a" fill-opacity="0.55" stroke="#1a1a1a" stroke-width="0.4" stroke-opacity="0.55" stroke-linejoin="round" />
  <path d="M 173.92,84.48 L 174.22,84.58 L 174.42,83.97 L 174.12,83.87 Z" fill="#1a1a1a" fill-opacity="0.55" stroke="#1a1a1a" stroke-width="0.4" stroke-opacity="0.55" stroke-linejoin="round" />
  <path d="M 167.14,91.69 L 170.15,92.68 L 173.15,93.63 L 176.14,94.59 L 179.14,95.51 L 179.33,94.91 L 176.35,93.93 L 173.36,92.98 L 170.36,92.02 L 167.33,91.09 Z" fill="#1a1a1a" fill-opacity="0.55" stroke="#1a1a1a" stroke-width="0.4" stroke-opacity="0.55" stroke-linejoin="round" />
  <path d="M 160.37,98.97 L 163.75,100.1 L 167.13,101.21 L 170.5,102.32 L 173.86,103.44 L 177.22,104.55 L 180.59,105.65 L 183.96,106.73 L 184.16,106.13 L 180.81,104.99 L 177.45,103.88 L 174.09,102.77 L 170.72,101.65 L 167.35,100.54 L 163.97,99.44 L 160.57,98.37 Z" fill="#1a1a1a" fill-opacity="0.55" stroke="#1a1a1a" stroke-width="0.4" stroke-opacity="0.55" stroke-linejoin="round" />
  <path d="M 153.53,105.94 L 157,107.07 L 160.48,108.2 L 163.99,109.32 L 167.53,110.45 L 171.09,111.58 L 174.66,112.71 L 178.23,113.85 L 181.79,114.99 L 185.34,116.12 L 188.88,117.25 L 189.07,116.66 L 185.54,115.5 L 182,114.35 L 178.44,113.21 L 174.87,112.07 L 171.3,110.93 L 167.74,109.8 L 164.2,108.67 L 160.69,107.54 L 157.2,106.44 L 153.72,105.34 Z" fill="#1a1a1a" fill-opacity="0.55" stroke="#1a1a1a" stroke-width="0.4" stroke-opacity="0.55" stroke-linejoin="round" />
  <path d="M 146.94,113.42 L 150.53,114.63 L 154.1,115.82 L 157.66,116.98 L 161.21,118.12 L 164.76,119.28 L 168.33,120.48 L 171.91,121.7 L 175.52,122.91 L 179.11,124.1 L 182.69,125.27 L 186.24,126.42 L 189.8,127.54 L 193.38,128.68 L 193.57,128.07 L 190,126.91 L 186.46,125.75 L 182.91,124.6 L 179.33,123.44 L 175.74,122.25 L 172.14,121.04 L 168.55,119.82 L 164.98,118.63 L 161.42,117.47 L 157.87,116.32 L 154.31,115.17 L 150.73,114.02 L 147.14,112.83 Z" fill="#1a1a1a" fill-opacity="0.55" stroke="#1a1a1a" stroke-width="0.4" stroke-opacity="0.55" stroke-linejoin="round" />
  <path d="M 140.2,120.69 L 143.83,121.86 L 147.46,123.03 L 151.09,124.2 L 154.71,125.38 L 158.33,126.59 L 161.94,127.8 L 165.54,129.01 L 169.14,130.2 L 172.76,131.36 L 176.39,132.5 L 180.03,133.63 L 183.67,134.77 L 187.32,135.92 L 190.96,137.07 L 194.6,138.23 L 198.24,139.42 L 198.44,138.82 L 194.81,137.62 L 191.17,136.42 L 187.53,135.25 L 183.88,134.1 L 180.24,132.96 L 176.6,131.83 L 172.97,130.69 L 169.36,129.53 L 165.76,128.35 L 162.16,127.14 L 158.55,125.93 L 154.93,124.73 L 151.3,123.55 L 147.66,122.39 L 144.03,121.25 L 140.39,120.09 Z" fill="#1a1a1a" fill-opacity="0.55" stroke="#1a1a1a" stroke-width="0.4" stroke-opacity="0.55" stroke-linejoin="round" />
  <path d="M 133.31,127.86 L 136.96,129.05 L 140.62,130.25 L 144.28,131.47 L 147.95,132.7 L 151.63,133.92 L 155.31,135.12 L 158.97,136.3 L 162.63,137.47 L 166.27,138.64 L 169.9,139.81 L 173.52,140.98 L 177.13,142.16 L 180.75,143.34 L 184.4,144.51 L 188.08,145.69 L 191.8,146.86 L 195.54,148.02 L 199.27,149.2 L 199.46,148.59 L 195.74,147.39 L 192.01,146.19 L 188.3,145 L 184.62,143.82 L 180.98,142.65 L 177.36,141.48 L 173.74,140.3 L 170.12,139.13 L 166.49,137.96 L 162.84,136.79 L 159.19,135.62 L 155.53,134.44 L 151.85,133.24 L 148.17,132.03 L 144.5,130.82 L 140.82,129.62 L 137.16,128.44 L 133.5,127.27 Z" fill="#1a1a1a" fill-opacity="0.55" stroke="#1a1a1a" stroke-width="0.4" stroke-opacity="0.55" stroke-linejoin="round" />
  <path d="M 126.6,135.07 L 130.28,136.26 L 133.96,137.47 L 137.63,138.67 L 141.3,139.88 L 144.98,141.1 L 148.66,142.33 L 152.34,143.56 L 156.02,144.78 L 159.71,145.98 L 163.41,147.18 L 167.11,148.36 L 170.8,149.53 L 174.49,150.7 L 178.18,151.87 L 181.85,153.04 L 185.53,154.23 L 189.21,155.41 L 192.9,156.6 L 196.58,157.78 L 200.27,158.97 L 203.95,160.18 L 207.63,161.41 L 207.83,160.81 L 204.16,159.57 L 200.48,158.33 L 196.8,157.11 L 193.11,155.92 L 189.43,154.74 L 185.74,153.56 L 182.06,152.38 L 178.39,151.21 L 174.71,150.03 L 171.02,148.86 L 167.32,147.69 L 163.62,146.51 L 159.93,145.32 L 156.24,144.11 L 152.56,142.89 L 148.88,141.66 L 145.2,140.43 L 141.52,139.21 L 137.85,138 L 134.17,136.82 L 130.48,135.64 L 126.79,134.46 Z" fill="#1a1a1a" fill-opacity="0.55" stroke="#1a1a1a" stroke-width="0.4" stroke-opacity="0.55" stroke-linejoin="round" />
  <path d="M 119.69,142.28 L 123.4,143.5 L 127.11,144.73 L 130.82,145.97 L 134.54,147.21 L 138.26,148.45 L 141.98,149.68 L 145.7,150.89 L 149.42,152.1 L 153.14,153.28 L 156.85,154.46 L 160.56,155.63 L 164.26,156.81 L 167.97,157.99 L 171.68,159.19 L 175.4,160.41 L 179.12,161.64 L 182.84,162.88 L 186.55,164.1 L 190.26,165.3 L 193.98,166.49 L 197.69,167.69 L 201.4,168.91 L 205.1,170.14 L 208.78,171.36 L 212.47,172.56 L 212.67,171.96 L 208.98,170.75 L 205.31,169.51 L 201.62,168.27 L 197.91,167.03 L 194.19,165.83 L 190.48,164.64 L 186.77,163.44 L 183.05,162.22 L 179.34,160.99 L 175.62,159.76 L 171.9,158.54 L 168.18,157.34 L 164.47,156.15 L 160.77,154.97 L 157.06,153.8 L 153.35,152.62 L 149.63,151.43 L 145.91,150.24 L 142.2,149.02 L 138.48,147.8 L 134.76,146.56 L 131.04,145.33 L 127.31,144.11 L 123.59,142.9 L 119.88,141.69 Z" fill="#1a1a1a" fill-opacity="0.55" stroke="#1a1a1a" stroke-width="0.4" stroke-opacity="0.55" stroke-linejoin="round" />
  <path d="M 112.88,149.78 L 116.6,151.01 L 120.32,152.23 L 124.04,153.45 L 127.77,154.66 L 131.51,155.87 L 135.25,157.07 L 138.99,158.27 L 142.73,159.47 L 146.45,160.67 L 150.16,161.88 L 153.86,163.09 L 157.57,164.32 L 161.3,165.55 L 165.05,166.78 L 168.81,168.01 L 172.57,169.23 L 176.31,170.45 L 180.03,171.67 L 183.71,172.89 L 187.38,174.11 L 191.03,175.33 L 194.68,176.54 L 198.35,177.74 L 202.05,178.92 L 205.78,180.08 L 209.54,181.23 L 213.32,182.38 L 217.1,183.58 L 217.29,182.98 L 213.51,181.78 L 209.73,180.61 L 205.97,179.44 L 202.25,178.27 L 198.56,177.09 L 194.9,175.88 L 191.25,174.66 L 187.6,173.45 L 183.93,172.23 L 180.25,171 L 176.53,169.78 L 172.78,168.56 L 169.03,167.33 L 165.27,166.11 L 161.52,164.88 L 157.79,163.65 L 154.08,162.43 L 150.37,161.22 L 146.66,160.02 L 142.94,158.81 L 139.21,157.61 L 135.47,156.4 L 131.73,155.2 L 127.98,153.99 L 124.25,152.8 L 120.52,151.6 L 116.8,150.39 L 113.07,149.17 Z" fill="#1a1a1a" fill-opacity="0.55" stroke="#1a1a1a" stroke-width="0.4" stroke-opacity="0.55" stroke-linejoin="round" />
  <path d="M 106.07,157.09 L 109.8,158.31 L 113.52,159.53 L 117.24,160.75 L 120.95,161.97 L 124.66,163.18 L 128.37,164.39 L 132.08,165.61 L 135.79,166.82 L 139.5,168.03 L 143.23,169.24 L 146.96,170.46 L 150.69,171.67 L 154.42,172.89 L 158.15,174.1 L 161.88,175.32 L 165.63,176.54 L 169.39,177.76 L 173.17,178.98 L 176.96,180.19 L 180.74,181.4 L 184.52,182.6 L 188.28,183.79 L 192.03,184.98 L 195.79,186.18 L 199.54,187.38 L 203.29,188.58 L 207.02,189.79 L 210.74,191 L 214.44,192.19 L 218.13,193.38 L 221.82,194.56 L 222.02,193.96 L 218.32,192.77 L 214.64,191.57 L 210.95,190.36 L 207.24,189.14 L 203.5,187.92 L 199.75,186.71 L 196,185.51 L 192.24,184.32 L 188.49,183.12 L 184.73,181.93 L 180.96,180.72 L 177.17,179.51 L 173.39,178.3 L 169.61,177.08 L 165.85,175.86 L 162.1,174.64 L 158.37,173.42 L 154.64,172.21 L 150.91,171 L 147.18,169.79 L 143.45,168.58 L 139.72,167.37 L 136,166.15 L 132.3,164.94 L 128.59,163.72 L 124.88,162.51 L 121.17,161.3 L 117.45,160.11 L 113.73,158.91 L 110,157.7 L 106.27,156.49 Z" fill="#1a1a1a" fill-opacity="0.55" stroke="#1a1a1a" stroke-width="0.4" stroke-opacity="0.55" stroke-linejoin="round" />
  <path d="M 99.33,163.98 L 103.09,165.18 L 106.84,166.38 L 110.59,167.59 L 114.33,168.79 L 118.07,170 L 121.8,171.21 L 125.52,172.41 L 129.25,173.63 L 132.97,174.85 L 136.71,176.08 L 140.44,177.31 L 144.19,178.54 L 147.94,179.77 L 151.71,181 L 155.49,182.23 L 159.27,183.46 L 163.05,184.69 L 166.82,185.94 L 170.56,187.2 L 174.28,188.48 L 177.99,189.76 L 181.71,191.05 L 185.45,192.33 L 189.21,193.58 L 192.98,194.82 L 196.75,196.03 L 200.52,197.23 L 204.29,198.43 L 208.04,199.65 L 211.78,200.88 L 215.49,202.11 L 219.19,203.32 L 222.88,204.53 L 226.56,205.73 L 226.76,205.13 L 223.08,203.92 L 219.39,202.71 L 215.7,201.48 L 211.99,200.24 L 208.26,199 L 204.5,197.78 L 200.73,196.58 L 196.96,195.37 L 193.19,194.16 L 189.43,192.93 L 185.67,191.67 L 181.94,190.4 L 178.21,189.11 L 174.5,187.83 L 170.78,186.55 L 167.03,185.29 L 163.26,184.05 L 159.48,182.82 L 155.7,181.59 L 151.92,180.36 L 148.15,179.13 L 144.4,177.89 L 140.66,176.65 L 136.92,175.41 L 133.19,174.19 L 129.46,172.97 L 125.74,171.76 L 122.01,170.55 L 118.28,169.34 L 114.54,168.14 L 110.79,166.95 L 107.04,165.76 L 103.28,164.57 L 99.52,163.38 Z" fill="#1a1a1a" fill-opacity="0.55" stroke="#1a1a1a" stroke-width="0.4" stroke-opacity="0.55" stroke-linejoin="round" />
  <path d="M 92.53,171.54 L 96.28,172.78 L 100.04,174.01 L 103.8,175.25 L 107.57,176.49 L 111.34,177.73 L 115.1,178.98 L 118.86,180.21 L 122.6,181.44 L 126.34,182.67 L 130.08,183.89 L 133.81,185.1 L 137.54,186.31 L 141.27,187.52 L 145,188.71 L 148.74,189.88 L 152.47,191.04 L 156.21,192.2 L 159.96,193.35 L 163.7,194.52 L 167.45,195.71 L 171.2,196.91 L 174.96,198.14 L 178.72,199.37 L 182.5,200.6 L 186.27,201.81 L 190.05,203.02 L 193.82,204.23 L 197.59,205.46 L 201.35,206.73 L 205.11,208 L 208.89,209.25 L 212.66,210.46 L 216.43,211.65 L 220.19,212.86 L 223.92,214.11 L 227.64,215.4 L 227.85,214.8 L 224.13,213.51 L 220.39,212.24 L 216.63,211.02 L 212.87,209.82 L 209.1,208.59 L 205.34,207.33 L 201.58,206.05 L 197.81,204.79 L 194.04,203.55 L 190.26,202.34 L 186.49,201.13 L 182.71,199.92 L 178.94,198.7 L 175.18,197.46 L 171.42,196.24 L 167.66,195.03 L 163.91,193.85 L 160.17,192.68 L 156.42,191.52 L 152.68,190.36 L 148.95,189.2 L 145.22,188.03 L 141.48,186.85 L 137.75,185.66 L 134.02,184.46 L 130.29,183.25 L 126.55,182.03 L 122.81,180.8 L 119.07,179.56 L 115.32,178.32 L 111.55,177.08 L 107.78,175.85 L 104.01,174.62 L 100.24,173.39 L 96.48,172.16 L 92.73,170.94 Z" fill="#1a1a1a" fill-opacity="0.55" stroke="#1a1a1a" stroke-width="0.4" stroke-opacity="0.55" stroke-linejoin="round" />
  <path d="M 85.86,178.8 L 89.59,180.02 L 93.33,181.24 L 97.07,182.46 L 100.81,183.68 L 104.55,184.91 L 108.29,186.13 L 112.03,187.34 L 115.78,188.55 L 119.54,189.75 L 123.3,190.95 L 127.06,192.16 L 130.83,193.38 L 134.61,194.61 L 138.4,195.85 L 142.2,197.09 L 145.99,198.34 L 149.79,199.57 L 153.56,200.79 L 157.32,201.98 L 161.07,203.16 L 164.82,204.34 L 168.57,205.52 L 172.32,206.72 L 176.07,207.94 L 179.82,209.16 L 183.57,210.38 L 187.31,211.61 L 191.03,212.83 L 194.74,214.05 L 198.47,215.28 L 202.21,216.51 L 205.99,217.75 L 209.77,218.98 L 213.53,220.22 L 217.26,221.45 L 220.96,222.68 L 224.66,223.91 L 228.39,225.13 L 232.17,226.34 L 232.36,225.75 L 228.59,224.53 L 224.86,223.31 L 221.17,222.07 L 217.47,220.82 L 213.74,219.58 L 209.98,218.34 L 206.2,217.1 L 202.43,215.86 L 198.68,214.63 L 194.96,213.4 L 191.24,212.18 L 187.52,210.95 L 183.79,209.73 L 180.04,208.51 L 176.28,207.29 L 172.53,206.08 L 168.78,204.88 L 165.03,203.69 L 161.28,202.51 L 157.53,201.33 L 153.77,200.14 L 150,198.92 L 146.21,197.69 L 142.41,196.44 L 138.61,195.2 L 134.82,193.95 L 131.04,192.72 L 127.27,191.5 L 123.51,190.29 L 119.75,189.09 L 116,187.88 L 112.25,186.68 L 108.5,185.47 L 104.76,184.26 L 101.02,183.05 L 97.28,181.83 L 93.53,180.62 L 89.79,179.41 L 86.05,178.21 Z" fill="#1a1a1a" fill-opacity="0.55" stroke="#1a1a1a" stroke-width="0.4" stroke-opacity="0.55" stroke-linejoin="round" />
  <path d="M 79.02,185.75 L 82.78,186.96 L 86.55,188.18 L 90.31,189.4 L 94.08,190.64 L 97.85,191.88 L 101.62,193.12 L 105.4,194.36 L 109.17,195.6 L 112.94,196.85 L 116.7,198.09 L 120.46,199.34 L 124.22,200.58 L 127.98,201.82 L 131.73,203.06 L 135.49,204.28 L 139.25,205.5 L 143.02,206.71 L 146.8,207.92 L 150.57,209.14 L 154.33,210.37 L 158.09,211.61 L 161.83,212.87 L 165.55,214.13 L 169.27,215.39 L 172.98,216.66 L 176.68,217.92 L 180.39,219.18 L 184.12,220.41 L 187.86,221.64 L 191.64,222.85 L 195.44,224.06 L 199.25,225.26 L 203.06,226.46 L 206.86,227.66 L 210.65,228.86 L 214.43,230.05 L 218.22,231.23 L 222,232.42 L 225.78,233.61 L 229.54,234.81 L 233.3,236.04 L 237.06,237.29 L 237.26,236.69 L 233.5,235.43 L 229.74,234.19 L 225.98,232.98 L 222.21,231.77 L 218.42,230.58 L 214.64,229.38 L 210.86,228.19 L 207.08,226.99 L 203.28,225.79 L 199.46,224.59 L 195.65,223.39 L 191.85,222.19 L 188.08,220.97 L 184.33,219.75 L 180.61,218.52 L 176.9,217.26 L 173.2,216 L 169.5,214.73 L 165.78,213.45 L 162.06,212.19 L 158.31,210.93 L 154.56,209.69 L 150.79,208.46 L 147.02,207.24 L 143.24,206.03 L 139.47,204.82 L 135.71,203.6 L 131.95,202.38 L 128.2,201.15 L 124.44,199.91 L 120.68,198.67 L 116.92,197.43 L 113.16,196.18 L 109.39,194.94 L 105.61,193.7 L 101.84,192.46 L 98.06,191.24 L 94.29,190.01 L 90.51,188.79 L 86.74,187.58 L 82.97,186.37 L 79.21,185.16 Z" fill="#1a1a1a" fill-opacity="0.55" stroke="#1a1a1a" stroke-width="0.4" stroke-opacity="0.55" stroke-linejoin="round" />
  <path d="M 72.2,193.36 L 75.97,194.57 L 79.74,195.78 L 83.5,196.98 L 87.25,198.18 L 91,199.39 L 94.74,200.6 L 98.49,201.81 L 102.23,203.03 L 105.98,204.24 L 109.73,205.45 L 113.48,206.67 L 117.24,207.88 L 121,209.1 L 124.77,210.32 L 128.55,211.54 L 132.34,212.76 L 136.12,213.97 L 139.9,215.17 L 143.69,216.37 L 147.48,217.57 L 151.26,218.76 L 155.05,219.97 L 158.83,221.19 L 162.6,222.42 L 166.36,223.65 L 170.13,224.88 L 173.89,226.11 L 177.65,227.34 L 181.41,228.56 L 185.18,229.78 L 188.94,231 L 192.7,232.24 L 196.47,233.48 L 200.24,234.72 L 204.01,235.95 L 207.78,237.18 L 211.55,238.4 L 215.31,239.62 L 219.07,240.85 L 222.84,242.09 L 226.62,243.32 L 230.4,244.54 L 234.18,245.74 L 237.96,246.94 L 241.72,248.16 L 241.91,247.56 L 238.15,246.33 L 234.38,245.12 L 230.6,243.91 L 226.83,242.69 L 223.05,241.44 L 219.29,240.2 L 215.53,238.96 L 211.76,237.75 L 207.99,236.53 L 204.22,235.31 L 200.45,234.07 L 196.68,232.83 L 192.92,231.58 L 189.16,230.35 L 185.39,229.11 L 181.63,227.89 L 177.87,226.66 L 174.11,225.44 L 170.35,224.21 L 166.59,222.97 L 162.82,221.74 L 159.05,220.51 L 155.27,219.29 L 151.48,218.08 L 147.69,216.88 L 143.9,215.69 L 140.12,214.49 L 136.34,213.29 L 132.55,212.08 L 128.77,210.86 L 124.99,209.64 L 121.22,208.43 L 117.46,207.21 L 113.7,205.99 L 109.95,204.77 L 106.2,203.56 L 102.45,202.35 L 98.71,201.14 L 94.95,199.94 L 91.2,198.75 L 87.45,197.56 L 83.7,196.37 L 79.93,195.18 L 76.16,193.98 L 72.39,192.77 Z" fill="#1a1a1a" fill-opacity="0.55" stroke="#1a1a1a" stroke-width="0.4" stroke-opacity="0.55" stroke-linejoin="round" />
  <path d="M 65.51,200.32 L 69.27,201.53 L 73.03,202.75 L 76.79,203.98 L 80.56,205.22 L 84.33,206.47 L 88.1,207.72 L 91.87,208.98 L 95.65,210.24 L 99.43,211.49 L 103.22,212.74 L 107.02,213.98 L 110.81,215.23 L 114.6,216.47 L 118.39,217.71 L 122.17,218.95 L 125.94,220.18 L 129.71,221.41 L 133.47,222.64 L 137.23,223.86 L 140.99,225.08 L 144.74,226.29 L 148.5,227.49 L 152.26,228.69 L 156.02,229.88 L 159.79,231.09 L 163.57,232.29 L 167.36,233.51 L 171.15,234.72 L 174.94,235.95 L 178.73,237.18 L 182.53,238.41 L 186.31,239.64 L 190.09,240.86 L 193.85,242.06 L 197.61,243.26 L 201.35,244.46 L 205.09,245.67 L 208.83,246.89 L 212.56,248.13 L 216.3,249.37 L 220.04,250.6 L 223.78,251.82 L 227.54,253.05 L 231.31,254.29 L 235.1,255.53 L 238.9,256.77 L 242.7,258 L 246.49,259.23 L 246.68,258.63 L 242.9,257.39 L 239.1,256.15 L 235.31,254.91 L 231.52,253.66 L 227.75,252.41 L 224,251.16 L 220.25,249.93 L 216.52,248.7 L 212.78,247.46 L 209.05,246.22 L 205.31,245 L 201.57,243.79 L 197.82,242.59 L 194.07,241.39 L 190.31,240.18 L 186.53,238.96 L 182.75,237.73 L 178.95,236.5 L 175.16,235.27 L 171.36,234.05 L 167.57,232.84 L 163.78,231.63 L 160,230.42 L 156.23,229.22 L 152.47,228.03 L 148.71,226.83 L 144.95,225.63 L 141.2,224.43 L 137.44,223.21 L 133.68,221.99 L 129.92,220.77 L 126.15,219.54 L 122.38,218.3 L 118.6,217.06 L 114.82,215.81 L 111.03,214.56 L 107.24,213.31 L 103.45,212.06 L 99.66,210.81 L 95.87,209.56 L 92.09,208.31 L 88.31,207.07 L 84.54,205.83 L 80.76,204.6 L 76.99,203.37 L 73.23,202.15 L 69.46,200.94 L 65.7,199.73 Z" fill="#1a1a1a" fill-opacity="0.55" stroke="#1a1a1a" stroke-width="0.4" stroke-opacity="0.55" stroke-linejoin="round" />
  <path d="M 61.32,208.73 L 65.12,209.95 L 68.93,211.17 L 72.74,212.39 L 76.55,213.61 L 80.35,214.83 L 84.16,216.05 L 87.97,217.27 L 91.78,218.49 L 95.6,219.71 L 99.41,220.94 L 103.23,222.18 L 107.03,223.42 L 110.84,224.67 L 114.64,225.92 L 118.43,227.18 L 122.22,228.44 L 126,229.7 L 129.78,230.96 L 133.56,232.22 L 137.34,233.46 L 141.11,234.7 L 144.88,235.93 L 148.65,237.15 L 152.43,238.37 L 156.21,239.6 L 160,240.82 L 163.79,242.04 L 167.59,243.26 L 171.39,244.47 L 175.2,245.69 L 179.02,246.92 L 182.83,248.14 L 186.65,249.37 L 190.46,250.58 L 194.27,251.78 L 198.06,252.98 L 201.85,254.18 L 205.63,255.39 L 209.42,256.62 L 213.2,257.86 L 216.99,259.11 L 220.78,260.36 L 224.58,261.63 L 228.39,262.89 L 232.21,264.15 L 236.04,265.41 L 239.88,266.69 L 243.72,267.96 L 247.54,269.23 L 251.34,270.49 L 251.54,269.89 L 247.74,268.63 L 243.92,267.35 L 240.08,266.07 L 236.25,264.78 L 232.42,263.5 L 228.61,262.23 L 224.8,260.96 L 221.01,259.69 L 217.22,258.43 L 213.43,257.18 L 209.64,255.93 L 205.85,254.7 L 202.07,253.49 L 198.28,252.29 L 194.48,251.1 L 190.68,249.89 L 186.87,248.68 L 183.05,247.46 L 179.23,246.24 L 175.41,245.02 L 171.6,243.81 L 167.8,242.6 L 164,241.38 L 160.21,240.17 L 156.42,238.95 L 152.64,237.73 L 148.86,236.5 L 145.09,235.28 L 141.32,234.05 L 137.55,232.81 L 133.78,231.56 L 130,230.31 L 126.22,229.05 L 122.44,227.79 L 118.64,226.53 L 114.85,225.28 L 111.05,224.02 L 107.24,222.78 L 103.43,221.54 L 99.62,220.3 L 95.8,219.07 L 91.99,217.85 L 88.18,216.63 L 84.36,215.41 L 80.55,214.2 L 76.74,212.99 L 72.93,211.78 L 69.12,210.57 L 65.32,209.35 L 61.51,208.14 Z" fill="#1a1a1a" fill-opacity="0.55" stroke="#1a1a1a" stroke-width="0.4" stroke-opacity="0.55" stroke-linejoin="round" />
  <path d="M 57.25,216.6 L 61.01,217.83 L 64.77,219.06 L 68.53,220.29 L 72.29,221.52 L 76.05,222.75 L 79.81,223.98 L 83.57,225.21 L 87.32,226.45 L 91.08,227.68 L 94.83,228.91 L 98.59,230.14 L 102.34,231.37 L 106.09,232.59 L 109.84,233.82 L 113.59,235.03 L 117.33,236.25 L 121.07,237.46 L 124.8,238.67 L 128.53,239.87 L 132.25,241.08 L 135.97,242.29 L 139.69,243.48 L 143.4,244.68 L 147.12,245.87 L 150.86,247.06 L 154.6,248.25 L 158.36,249.43 L 162.13,250.62 L 165.9,251.8 L 169.68,252.99 L 173.46,254.2 L 177.25,255.41 L 181.04,256.63 L 184.81,257.87 L 188.59,259.11 L 192.36,260.36 L 196.13,261.6 L 199.88,262.84 L 203.63,264.08 L 207.36,265.33 L 211.09,266.6 L 214.8,267.89 L 218.53,269.17 L 222.26,270.44 L 225.99,271.67 L 229.72,272.87 L 233.45,274.06 L 237.18,275.26 L 240.9,276.48 L 244.63,277.72 L 248.36,278.95 L 252.11,280.17 L 255.86,281.37 L 256.05,280.76 L 252.3,279.56 L 248.56,278.34 L 244.83,277.1 L 241.11,275.85 L 237.39,274.61 L 233.67,273.39 L 229.94,272.19 L 226.22,270.98 L 222.49,269.75 L 218.76,268.48 L 215.04,267.2 L 211.32,265.91 L 207.59,264.64 L 203.85,263.39 L 200.11,262.16 L 196.35,260.93 L 192.58,259.7 L 188.8,258.46 L 185.03,257.21 L 181.25,255.97 L 177.47,254.74 L 173.68,253.52 L 169.89,252.32 L 166.11,251.13 L 162.34,249.94 L 158.57,248.75 L 154.82,247.57 L 151.07,246.38 L 147.33,245.2 L 143.61,244.01 L 139.9,242.82 L 136.19,241.62 L 132.47,240.42 L 128.74,239.21 L 125.01,238 L 121.28,236.8 L 117.55,235.58 L 113.81,234.37 L 110.06,233.15 L 106.31,231.93 L 102.56,230.71 L 98.8,229.48 L 95.05,228.26 L 91.29,227.03 L 87.53,225.8 L 83.78,224.58 L 80.02,223.35 L 76.26,222.13 L 72.5,220.91 L 68.74,219.68 L 64.97,218.45 L 61.21,217.23 L 57.45,216 Z" fill="#1a1a1a" fill-opacity="0.55" stroke="#1a1a1a" stroke-width="0.4" stroke-opacity="0.55" stroke-linejoin="round" />
  <path d="M 53.44,225.11 L 57.2,226.35 L 60.97,227.59 L 64.72,228.83 L 68.48,230.07 L 72.23,231.31 L 75.97,232.54 L 79.71,233.77 L 83.45,234.99 L 87.2,236.21 L 90.95,237.42 L 94.71,238.63 L 98.48,239.84 L 102.26,241.05 L 106.05,242.26 L 109.84,243.47 L 113.63,244.69 L 117.42,245.9 L 121.22,247.11 L 125.01,248.32 L 128.8,249.53 L 132.58,250.74 L 136.37,251.95 L 140.16,253.16 L 143.94,254.37 L 147.73,255.59 L 151.51,256.81 L 155.28,258.04 L 159.05,259.28 L 162.8,260.51 L 166.55,261.75 L 170.3,262.98 L 174.04,264.22 L 177.75,265.44 L 181.46,266.67 L 185.18,267.9 L 188.91,269.13 L 192.65,270.37 L 196.41,271.59 L 200.19,272.8 L 203.98,274.01 L 207.79,275.21 L 211.6,276.41 L 215.41,277.61 L 219.19,278.83 L 222.96,280.05 L 226.73,281.29 L 230.49,282.52 L 234.25,283.75 L 238.01,284.96 L 241.78,286.17 L 245.57,287.35 L 249.35,288.52 L 253.13,289.69 L 256.9,290.87 L 260.64,292.07 L 264.39,293.31 L 264.59,292.71 L 260.84,291.47 L 257.09,290.26 L 253.33,289.07 L 249.55,287.89 L 245.77,286.71 L 241.99,285.52 L 238.22,284.31 L 234.46,283.09 L 230.7,281.87 L 226.94,280.63 L 223.18,279.4 L 219.4,278.17 L 215.62,276.95 L 211.81,275.75 L 208,274.55 L 204.19,273.34 L 200.4,272.14 L 196.62,270.92 L 192.87,269.69 L 189.13,268.46 L 185.4,267.23 L 181.69,265.99 L 177.97,264.77 L 174.26,263.54 L 170.52,262.31 L 166.77,261.08 L 163.02,259.84 L 159.27,258.61 L 155.5,257.37 L 151.72,256.14 L 147.94,254.92 L 144.16,253.7 L 140.37,252.48 L 136.59,251.27 L 132.8,250.06 L 129.01,248.85 L 125.23,247.64 L 121.44,246.42 L 117.64,245.21 L 113.85,244 L 110.06,242.79 L 106.26,241.58 L 102.47,240.37 L 98.69,239.16 L 94.92,237.96 L 91.16,236.75 L 87.41,235.54 L 83.67,234.33 L 79.93,233.11 L 76.18,231.89 L 72.44,230.67 L 68.68,229.44 L 64.93,228.21 L 61.17,226.98 L 57.41,225.74 L 53.64,224.5 Z" fill="#1a1a1a" fill-opacity="0.55" stroke="#1a1a1a" stroke-width="0.4" stroke-opacity="0.55" stroke-linejoin="round" />
  <path d="M 49.28,233.11 L 53.05,234.34 L 56.83,235.57 L 60.62,236.8 L 64.4,238.03 L 68.2,239.26 L 71.99,240.49 L 75.8,241.71 L 79.6,242.95 L 83.41,244.18 L 87.23,245.41 L 91.04,246.65 L 94.85,247.89 L 98.66,249.12 L 102.46,250.35 L 106.26,251.58 L 110.06,252.81 L 113.85,254.04 L 117.63,255.27 L 121.42,256.5 L 125.21,257.73 L 128.99,258.96 L 132.77,260.19 L 136.56,261.42 L 140.34,262.65 L 144.13,263.88 L 147.92,265.11 L 151.71,266.33 L 155.5,267.56 L 159.28,268.78 L 163.06,270 L 166.83,271.21 L 170.6,272.42 L 174.37,273.64 L 178.13,274.85 L 181.9,276.08 L 185.67,277.31 L 189.45,278.54 L 193.24,279.77 L 197.05,281.01 L 200.85,282.25 L 204.65,283.5 L 208.45,284.75 L 212.24,286.02 L 216.04,287.32 L 219.84,288.63 L 223.65,289.93 L 227.45,291.22 L 231.23,292.47 L 234.99,293.68 L 238.73,294.89 L 242.48,296.09 L 246.24,297.29 L 250.02,298.49 L 253.83,299.68 L 257.63,300.86 L 261.44,302.04 L 265.25,303.25 L 269.07,304.5 L 269.26,303.91 L 265.45,302.66 L 261.63,301.44 L 257.82,300.25 L 254.02,299.06 L 250.22,297.87 L 246.44,296.66 L 242.68,295.45 L 238.94,294.25 L 235.2,293.04 L 231.45,291.82 L 227.67,290.57 L 223.87,289.28 L 220.07,287.97 L 216.27,286.65 L 212.47,285.34 L 208.67,284.07 L 204.87,282.81 L 201.07,281.56 L 197.27,280.33 L 193.46,279.09 L 189.67,277.86 L 185.88,276.64 L 182.11,275.42 L 178.34,274.2 L 174.58,272.98 L 170.81,271.76 L 167.05,270.54 L 163.28,269.32 L 159.5,268.1 L 155.72,266.88 L 151.93,265.66 L 148.14,264.43 L 144.35,263.2 L 140.56,261.97 L 136.78,260.74 L 132.99,259.52 L 129.21,258.29 L 125.42,257.07 L 121.64,255.84 L 117.85,254.61 L 114.06,253.38 L 110.27,252.16 L 106.47,250.93 L 102.67,249.7 L 98.87,248.47 L 95.06,247.24 L 91.25,246 L 87.44,244.77 L 83.62,243.53 L 79.81,242.3 L 76,241.07 L 72.2,239.84 L 68.4,238.62 L 64.61,237.4 L 60.82,236.18 L 57.03,234.96 L 53.25,233.73 L 49.47,232.5 Z" fill="#1a1a1a" fill-opacity="0.55" stroke="#1a1a1a" stroke-width="0.4" stroke-opacity="0.55" stroke-linejoin="round" />
  <path d="M 45.36,241.38 L 49.1,242.6 L 52.83,243.81 L 56.57,245.02 L 60.3,246.23 L 64.03,247.43 L 67.76,248.63 L 71.49,249.82 L 75.21,251.01 L 78.94,252.2 L 82.68,253.39 L 86.41,254.58 L 90.15,255.78 L 93.89,256.98 L 97.63,258.2 L 101.38,259.41 L 105.12,260.63 L 108.87,261.85 L 112.63,263.07 L 116.38,264.29 L 120.13,265.52 L 123.88,266.75 L 127.63,267.99 L 131.39,269.23 L 135.14,270.48 L 138.9,271.72 L 142.65,272.97 L 146.41,274.22 L 150.17,275.47 L 153.92,276.71 L 157.68,277.95 L 161.44,279.17 L 165.19,280.39 L 168.94,281.6 L 172.68,282.8 L 176.43,284 L 180.18,285.2 L 183.92,286.4 L 187.67,287.6 L 191.42,288.79 L 195.18,289.99 L 198.94,291.18 L 202.71,292.38 L 206.46,293.58 L 210.22,294.78 L 213.96,295.99 L 217.69,297.22 L 221.41,298.45 L 225.12,299.69 L 228.83,300.94 L 232.55,302.2 L 236.28,303.45 L 240.02,304.7 L 243.78,305.95 L 247.55,307.18 L 251.36,308.4 L 255.18,309.6 L 258.97,310.79 L 262.74,311.99 L 266.5,313.19 L 270.25,314.39 L 274.01,315.61 L 274.21,315 L 270.45,313.78 L 266.7,312.57 L 262.94,311.36 L 259.17,310.16 L 255.38,308.96 L 251.57,307.75 L 247.77,306.53 L 244,305.29 L 240.24,304.04 L 236.5,302.79 L 232.77,301.53 L 229.05,300.28 L 225.34,299.04 L 221.62,297.8 L 217.9,296.57 L 214.17,295.35 L 210.42,294.14 L 206.67,292.94 L 202.91,291.74 L 199.15,290.54 L 195.39,289.33 L 191.63,288.13 L 187.88,286.93 L 184.14,285.73 L 180.39,284.53 L 176.65,283.33 L 172.9,282.13 L 169.16,280.92 L 165.41,279.7 L 161.66,278.48 L 157.9,277.26 L 154.14,276.04 L 150.38,274.8 L 146.62,273.57 L 142.87,272.32 L 139.11,271.07 L 135.36,269.82 L 131.61,268.57 L 127.86,267.32 L 124.1,266.08 L 120.35,264.85 L 116.6,263.62 L 112.84,262.4 L 109.09,261.18 L 105.34,259.96 L 101.6,258.74 L 97.85,257.52 L 94.11,256.31 L 90.36,255.1 L 86.63,253.9 L 82.89,252.71 L 79.16,251.53 L 75.43,250.34 L 71.7,249.16 L 67.96,247.98 L 64.23,246.79 L 60.5,245.6 L 56.76,244.41 L 53.03,243.21 L 49.29,242 L 45.55,240.78 Z" fill="#1a1a1a" fill-opacity="0.55" stroke="#1a1a1a" stroke-width="0.4" stroke-opacity="0.55" stroke-linejoin="round" />
  <path d="M 41.34,249.5 L 45.09,250.73 L 48.84,251.95 L 52.59,253.18 L 56.35,254.4 L 60.11,255.62 L 63.88,256.84 L 67.64,258.06 L 71.39,259.28 L 75.15,260.5 L 78.91,261.71 L 82.67,262.92 L 86.43,264.13 L 90.2,265.34 L 93.97,266.56 L 97.73,267.78 L 101.49,269.01 L 105.25,270.24 L 109,271.48 L 112.74,272.71 L 116.48,273.95 L 120.22,275.18 L 123.95,276.41 L 127.68,277.64 L 131.41,278.86 L 135.15,280.09 L 138.88,281.31 L 142.62,282.53 L 146.36,283.75 L 150.1,284.97 L 153.85,286.19 L 157.6,287.41 L 161.35,288.63 L 165.1,289.85 L 168.85,291.06 L 172.59,292.26 L 176.33,293.47 L 180.07,294.67 L 183.81,295.86 L 187.55,297.06 L 191.29,298.25 L 195.02,299.44 L 198.74,300.63 L 202.46,301.82 L 206.19,303.02 L 209.92,304.22 L 213.65,305.43 L 217.39,306.64 L 221.14,307.86 L 224.89,309.08 L 228.65,310.32 L 232.41,311.55 L 236.17,312.79 L 239.92,314.02 L 243.68,315.25 L 247.43,316.46 L 251.18,317.68 L 254.93,318.88 L 258.68,320.09 L 262.42,321.3 L 266.16,322.51 L 266.35,321.9 L 262.62,320.69 L 258.88,319.47 L 255.13,318.26 L 251.38,317.05 L 247.64,315.83 L 243.89,314.6 L 240.14,313.36 L 236.39,312.12 L 232.64,310.87 L 228.88,309.63 L 225.12,308.4 L 221.36,307.17 L 217.61,305.96 L 213.87,304.76 L 210.13,303.56 L 206.39,302.37 L 202.67,301.18 L 198.95,299.99 L 195.22,298.8 L 191.49,297.6 L 187.76,296.41 L 184.02,295.21 L 180.28,294.01 L 176.54,292.81 L 172.8,291.6 L 169.06,290.39 L 165.31,289.18 L 161.57,287.97 L 157.82,286.75 L 154.06,285.53 L 150.32,284.31 L 146.57,283.1 L 142.83,281.88 L 139.09,280.66 L 135.36,279.44 L 131.63,278.21 L 127.9,276.99 L 124.17,275.76 L 120.43,274.52 L 116.7,273.29 L 112.96,272.06 L 109.21,270.82 L 105.46,269.59 L 101.71,268.36 L 97.94,267.13 L 94.17,265.91 L 90.41,264.69 L 86.64,263.48 L 82.88,262.26 L 79.12,261.05 L 75.36,259.84 L 71.6,258.63 L 67.84,257.42 L 64.08,256.21 L 60.32,254.99 L 56.55,253.78 L 52.79,252.56 L 49.04,251.34 L 45.29,250.12 L 41.54,248.9 Z" fill="#1a1a1a" fill-opacity="0.55" stroke="#1a1a1a" stroke-width="0.4" stroke-opacity="0.55" stroke-linejoin="round" />
  <path d="M 37.5,257.66 L 41.3,258.9 L 45.11,260.15 L 48.92,261.39 L 52.73,262.62 L 56.53,263.86 L 60.33,265.08 L 64.13,266.3 L 67.93,267.51 L 71.72,268.72 L 75.52,269.92 L 79.31,271.12 L 83.09,272.33 L 86.88,273.54 L 90.66,274.76 L 94.44,275.98 L 98.22,277.2 L 101.99,278.43 L 105.76,279.67 L 109.52,280.91 L 113.28,282.15 L 117.03,283.39 L 120.79,284.63 L 124.55,285.88 L 128.31,287.12 L 132.08,288.37 L 135.85,289.61 L 139.63,290.85 L 143.42,292.1 L 147.22,293.35 L 151.02,294.59 L 154.83,295.84 L 158.64,297.08 L 162.46,298.32 L 166.29,299.55 L 170.12,300.78 L 173.95,302.01 L 177.78,303.23 L 181.6,304.44 L 185.4,305.65 L 189.2,306.86 L 192.97,308.07 L 196.74,309.29 L 200.51,310.52 L 204.27,311.76 L 208.04,313.01 L 211.83,314.27 L 215.63,315.53 L 215.83,314.92 L 212.03,313.66 L 208.25,312.4 L 204.48,311.14 L 200.71,309.89 L 196.95,308.66 L 193.18,307.43 L 189.41,306.2 L 185.62,304.99 L 181.81,303.77 L 177.99,302.55 L 174.16,301.33 L 170.33,300.11 L 166.51,298.87 L 162.68,297.64 L 158.86,296.4 L 155.05,295.15 L 151.24,293.91 L 147.44,292.67 L 143.64,291.43 L 139.85,290.19 L 136.07,288.95 L 132.29,287.71 L 128.53,286.47 L 124.76,285.22 L 121.01,283.98 L 117.25,282.73 L 113.5,281.49 L 109.74,280.25 L 105.97,279.01 L 102.21,277.78 L 98.44,276.54 L 94.66,275.31 L 90.88,274.08 L 87.09,272.87 L 83.31,271.67 L 79.51,270.47 L 75.72,269.27 L 71.93,268.07 L 68.14,266.87 L 64.34,265.66 L 60.54,264.45 L 56.73,263.23 L 52.92,262.01 L 49.12,260.78 L 45.31,259.55 L 41.5,258.31 L 37.69,257.07 Z" fill="#1a1a1a" fill-opacity="0.55" stroke="#1a1a1a" stroke-width="0.4" stroke-opacity="0.55" stroke-linejoin="round" />
  <path d="M 33.51,265.77 L 37.25,267 L 40.99,268.24 L 44.73,269.48 L 48.48,270.72 L 52.22,271.95 L 55.98,273.18 L 59.74,274.41 L 63.51,275.64 L 67.29,276.88 L 71.07,278.11 L 74.85,279.34 L 78.63,280.58 L 82.42,281.81 L 86.2,283.04 L 89.98,284.26 L 93.75,285.49 L 97.51,286.71 L 101.27,287.94 L 105.03,289.17 L 108.78,290.4 L 112.54,291.63 L 116.3,292.87 L 120.06,294.09 L 123.83,295.31 L 127.61,296.53 L 131.38,297.73 L 135.14,298.94 L 138.9,300.15 L 142.65,301.37 L 146.39,302.6 L 150.14,303.85 L 153.88,305.1 L 157.63,306.35 L 161.39,307.6 L 165.15,308.83 L 165.35,308.23 L 161.59,307 L 157.84,305.74 L 154.09,304.48 L 150.35,303.21 L 146.61,301.94 L 142.87,300.7 L 139.12,299.47 L 135.36,298.26 L 131.6,297.05 L 127.83,295.84 L 124.06,294.63 L 120.29,293.4 L 116.52,292.18 L 112.76,290.95 L 109,289.72 L 105.25,288.5 L 101.49,287.27 L 97.73,286.04 L 93.97,284.81 L 90.2,283.58 L 86.42,282.35 L 82.64,281.12 L 78.86,279.88 L 75.07,278.65 L 71.29,277.42 L 67.51,276.18 L 63.74,274.95 L 59.96,273.72 L 56.2,272.5 L 52.44,271.28 L 48.69,270.06 L 44.94,268.84 L 41.2,267.62 L 37.45,266.39 L 33.71,265.16 Z" fill="#1a1a1a" fill-opacity="0.55" stroke="#1a1a1a" stroke-width="0.4" stroke-opacity="0.55" stroke-linejoin="round" />
  <path d="M 29.36,273.95 L 33.1,275.16 L 36.84,276.38 L 40.58,277.61 L 44.31,278.84 L 48.04,280.07 L 51.76,281.3 L 55.48,282.54 L 59.18,283.77 L 62.88,284.99 L 66.57,286.2 L 70.27,287.39 L 73.96,288.58 L 77.65,289.77 L 81.34,290.96 L 85.04,292.16 L 88.75,293.37 L 92.46,294.58 L 96.19,295.8 L 99.91,297.02 L 103.64,298.24 L 107.37,299.45 L 111.11,300.67 L 114.84,301.88 L 115.03,301.28 L 111.31,300.05 L 107.58,298.82 L 103.85,297.59 L 100.12,296.37 L 96.4,295.15 L 92.68,293.93 L 88.96,292.71 L 85.26,291.5 L 81.56,290.29 L 77.87,289.09 L 74.18,287.9 L 70.49,286.71 L 66.8,285.51 L 63.1,284.3 L 59.41,283.08 L 55.7,281.85 L 51.99,280.62 L 48.27,279.38 L 44.54,278.15 L 40.79,276.94 L 37.05,275.73 L 33.3,274.54 L 29.56,273.34 Z" fill="#1a1a1a" fill-opacity="0.55" stroke="#1a1a1a" stroke-width="0.4" stroke-opacity="0.55" stroke-linejoin="round" />
  <path d="M 25.32,282.26 L 28.85,283.41 L 32.4,284.56 L 35.95,285.69 L 39.52,286.83 L 43.09,287.98 L 46.67,289.12 L 50.24,290.26 L 53.81,291.4 L 57.37,292.54 L 60.93,293.66 L 64.48,294.79 L 64.67,294.19 L 61.13,293.03 L 57.58,291.88 L 54.02,290.74 L 50.45,289.59 L 46.88,288.45 L 43.31,287.3 L 39.74,286.16 L 36.17,285.01 L 32.61,283.88 L 29.06,282.76 L 25.51,281.65 Z" fill="#1a1a1a" fill-opacity="0.55" stroke="#1a1a1a" stroke-width="0.4" stroke-opacity="0.55" stroke-linejoin="round" />
  <path d="M 268.57,319.34 L 267.72,322.39 L 268.33,322.56 L 269.18,319.51 Z" fill="#1a1a1a" fill-opacity="0.55" stroke="#1a1a1a" stroke-width="0.4" stroke-opacity="0.55" stroke-linejoin="round" />
  <path d="M 260.66,314.32 L 259.51,317.68 L 258.41,321.1 L 259.01,321.3 L 260.17,317.91 L 261.26,314.52 Z" fill="#1a1a1a" fill-opacity="0.55" stroke="#1a1a1a" stroke-width="0.4" stroke-opacity="0.55" stroke-linejoin="round" />
  <path d="M 251.7,312.82 L 250.56,316.36 L 249.47,319.92 L 250.07,320.11 L 251.23,316.57 L 252.3,313.01 Z" fill="#1a1a1a" fill-opacity="0.55" stroke="#1a1a1a" stroke-width="0.4" stroke-opacity="0.55" stroke-linejoin="round" />
  <path d="M 243.89,307.95 L 242.68,311.53 L 241.5,315.15 L 240.35,318.76 L 240.95,318.96 L 242.15,315.37 L 243.34,311.75 L 244.49,308.15 Z" fill="#1a1a1a" fill-opacity="0.55" stroke="#1a1a1a" stroke-width="0.4" stroke-opacity="0.55" stroke-linejoin="round" />
  <path d="M 236.12,303.08 L 234.86,306.57 L 233.68,310.09 L 232.51,313.65 L 231.35,317.22 L 231.95,317.41 L 233.15,313.86 L 234.32,310.31 L 235.5,306.78 L 236.7,303.28 Z" fill="#1a1a1a" fill-opacity="0.55" stroke="#1a1a1a" stroke-width="0.4" stroke-opacity="0.55" stroke-linejoin="round" />
  <path d="M 228.09,298.11 L 226.89,301.76 L 225.73,305.36 L 224.62,308.89 L 223.47,312.39 L 222.26,315.92 L 222.86,316.13 L 224.14,312.62 L 225.29,309.11 L 226.4,305.57 L 227.57,301.98 L 228.7,298.3 Z" fill="#1a1a1a" fill-opacity="0.55" stroke="#1a1a1a" stroke-width="0.4" stroke-opacity="0.55" stroke-linejoin="round" />
  <path d="M 220.45,292.94 L 219.28,296.57 L 218.08,300.22 L 216.85,303.87 L 215.67,307.52 L 214.53,311.16 L 213.36,314.81 L 213.96,315.01 L 215.19,311.38 L 216.34,307.73 L 217.51,304.09 L 218.75,300.45 L 219.96,296.79 L 221.06,293.13 Z" fill="#1a1a1a" fill-opacity="0.55" stroke="#1a1a1a" stroke-width="0.4" stroke-opacity="0.55" stroke-linejoin="round" />
  <path d="M 212.84,286.88 L 211.59,290.54 L 210.41,294.23 L 209.18,298.07 L 207.9,302.02 L 206.58,305.95 L 205.37,309.81 L 205.97,310 L 207.25,306.17 L 208.57,302.24 L 209.85,298.29 L 211.09,294.45 L 212.27,290.76 L 213.45,287.08 Z" fill="#1a1a1a" fill-opacity="0.55" stroke="#1a1a1a" stroke-width="0.4" stroke-opacity="0.55" stroke-linejoin="round" />
  <path d="M 204.93,282.06 L 203.69,285.84 L 202.47,289.61 L 201.26,293.41 L 200.06,297.21 L 198.84,300.96 L 197.54,304.7 L 196.28,308.44 L 195.1,312.24 L 195.71,312.43 L 196.94,308.66 L 198.21,304.93 L 199.51,301.19 L 200.74,297.42 L 201.93,293.62 L 203.15,289.82 L 204.35,286.05 L 205.53,282.26 Z" fill="#1a1a1a" fill-opacity="0.55" stroke="#1a1a1a" stroke-width="0.4" stroke-opacity="0.55" stroke-linejoin="round" />
  <path d="M 195.85,280.75 L 194.62,284.52 L 193.36,288.26 L 192.09,291.99 L 190.85,295.76 L 189.58,299.61 L 188.3,303.49 L 187.18,307.36 L 186.11,311.15 L 186.72,311.32 L 187.84,307.55 L 188.97,303.71 L 190.25,299.83 L 191.53,295.98 L 192.77,292.22 L 194.04,288.49 L 195.28,284.74 L 196.46,280.95 Z" fill="#1a1a1a" fill-opacity="0.55" stroke="#1a1a1a" stroke-width="0.4" stroke-opacity="0.55" stroke-linejoin="round" />
  <path d="M 188.12,275.63 L 186.92,279.4 L 185.72,283.24 L 184.54,287.08 L 183.34,290.85 L 182.09,294.6 L 180.85,298.37 L 179.6,302.12 L 178.25,305.9 L 176.94,309.69 L 177.53,309.9 L 178.88,306.12 L 180.25,302.34 L 181.5,298.58 L 182.74,294.82 L 183.99,291.06 L 185.2,287.28 L 186.38,283.44 L 187.56,279.6 L 188.72,275.82 Z" fill="#1a1a1a" fill-opacity="0.55" stroke="#1a1a1a" stroke-width="0.4" stroke-opacity="0.55" stroke-linejoin="round" />
  <path d="M 180.18,270.89 L 178.99,274.61 L 177.77,278.34 L 176.49,282.11 L 175.2,285.91 L 173.95,289.73 L 172.74,293.57 L 171.56,297.31 L 170.39,301.02 L 169.21,304.77 L 168.07,308.52 L 168.67,308.7 L 169.86,304.97 L 171.06,301.23 L 172.23,297.53 L 173.41,293.77 L 174.61,289.95 L 175.86,286.13 L 177.15,282.34 L 178.43,278.57 L 179.64,274.82 L 180.79,271.08 Z" fill="#1a1a1a" fill-opacity="0.55" stroke="#1a1a1a" stroke-width="0.4" stroke-opacity="0.55" stroke-linejoin="round" />
  <path d="M 172.37,265.62 L 171.12,269.34 L 169.89,273.09 L 168.64,276.87 L 167.4,280.69 L 166.24,284.52 L 165.08,288.31 L 163.81,292.05 L 162.52,295.83 L 161.24,299.65 L 160.01,303.48 L 160.61,303.68 L 161.89,299.87 L 163.2,296.06 L 164.49,292.28 L 165.76,288.53 L 166.92,284.73 L 168.08,280.9 L 169.32,277.1 L 170.57,273.31 L 171.77,269.55 L 172.97,265.81 Z" fill="#1a1a1a" fill-opacity="0.55" stroke="#1a1a1a" stroke-width="0.4" stroke-opacity="0.55" stroke-linejoin="round" />
  <path d="M 164.68,260.43 L 163.41,264.23 L 162.14,268.09 L 160.9,271.96 L 159.68,275.78 L 158.51,279.56 L 157.34,283.29 L 156.14,287.01 L 154.92,290.83 L 153.66,294.72 L 152.4,298.53 L 151.16,302.25 L 149.91,305.95 L 150.51,306.16 L 151.79,302.46 L 153.06,298.76 L 154.32,294.93 L 155.58,291.04 L 156.8,287.22 L 157.99,283.5 L 159.17,279.76 L 160.34,275.98 L 161.56,272.17 L 162.8,268.3 L 164.04,264.43 L 165.28,260.63 Z" fill="#1a1a1a" fill-opacity="0.55" stroke="#1a1a1a" stroke-width="0.4" stroke-opacity="0.55" stroke-linejoin="round" />
  <path d="M 156.88,255.89 L 155.64,259.72 L 154.37,263.48 L 153.12,267.21 L 151.89,270.94 L 150.64,274.67 L 149.36,278.39 L 148.1,282.1 L 146.88,285.83 L 145.7,289.65 L 144.54,293.52 L 143.31,297.34 L 142,301.11 L 140.69,304.92 L 141.29,305.12 L 142.62,301.33 L 143.98,297.57 L 145.22,293.73 L 146.39,289.86 L 147.56,286.05 L 148.77,282.32 L 150.03,278.62 L 151.31,274.9 L 152.56,271.16 L 153.79,267.44 L 155.04,263.7 L 156.27,259.92 L 157.48,256.08 Z" fill="#1a1a1a" fill-opacity="0.55" stroke="#1a1a1a" stroke-width="0.4" stroke-opacity="0.55" stroke-linejoin="round" />
  <path d="M 148.85,250.83 L 147.67,254.64 L 146.48,258.43 L 145.28,262.16 L 144.04,265.87 L 142.76,269.57 L 141.47,273.31 L 140.19,277.08 L 138.87,280.88 L 137.54,284.71 L 136.27,288.53 L 135.13,292.29 L 133.99,296.05 L 132.84,299.83 L 131.68,303.59 L 132.28,303.77 L 133.46,300.02 L 134.65,296.25 L 135.8,292.5 L 136.94,288.74 L 138.21,284.93 L 139.54,281.11 L 140.85,277.3 L 142.12,273.54 L 143.41,269.8 L 144.7,266.09 L 145.95,262.38 L 147.15,258.64 L 148.3,254.84 L 149.46,251.02 Z" fill="#1a1a1a" fill-opacity="0.55" stroke="#1a1a1a" stroke-width="0.4" stroke-opacity="0.55" stroke-linejoin="round" />
  <path d="M 141.12,245.55 L 139.8,249.33 L 138.48,253.11 L 137.19,256.9 L 135.93,260.68 L 134.68,264.46 L 133.46,268.26 L 132.28,272.07 L 131.13,275.89 L 130.01,279.71 L 128.86,283.56 L 127.68,287.39 L 126.5,291.2 L 125.34,294.91 L 124.14,298.6 L 124.74,298.8 L 125.98,295.12 L 127.19,291.41 L 128.38,287.61 L 129.56,283.77 L 130.71,279.92 L 131.83,276.1 L 132.97,272.28 L 134.15,268.48 L 135.36,264.68 L 136.61,260.9 L 137.87,257.13 L 139.15,253.34 L 140.43,249.55 L 141.72,245.76 Z" fill="#1a1a1a" fill-opacity="0.55" stroke="#1a1a1a" stroke-width="0.4" stroke-opacity="0.55" stroke-linejoin="round" />
  <path d="M 133.1,240.79 L 131.94,244.6 L 130.74,248.4 L 129.52,252.2 L 128.31,255.95 L 127.1,259.65 L 125.9,263.34 L 124.73,267.03 L 123.54,270.79 L 122.28,274.59 L 121,278.4 L 119.79,282.21 L 118.59,286.02 L 117.3,289.85 L 115.99,293.63 L 114.86,297.43 L 113.8,301.26 L 114.41,301.43 L 115.48,297.61 L 116.64,293.84 L 117.97,290.07 L 119.26,286.24 L 120.47,282.42 L 121.68,278.62 L 122.95,274.81 L 124.22,271.01 L 125.41,267.25 L 126.58,263.55 L 127.77,259.87 L 128.97,256.17 L 130.18,252.41 L 131.38,248.61 L 132.55,244.79 L 133.7,240.97 Z" fill="#1a1a1a" fill-opacity="0.55" stroke="#1a1a1a" stroke-width="0.4" stroke-opacity="0.55" stroke-linejoin="round" />
  <path d="M 124.05,239.51 L 122.89,243.28 L 121.66,247.03 L 120.37,250.77 L 119.09,254.5 L 117.87,258.2 L 116.67,261.91 L 115.44,265.67 L 114.19,269.51 L 112.97,273.37 L 111.78,277.19 L 110.58,280.98 L 109.35,284.72 L 108.18,288.51 L 107,292.37 L 105.72,296.12 L 106.32,296.32 L 107.62,292.57 L 108.84,288.71 L 110.03,284.94 L 111.27,281.2 L 112.47,277.41 L 113.67,273.59 L 114.89,269.73 L 116.13,265.9 L 117.36,262.14 L 118.56,258.43 L 119.77,254.72 L 121.04,251 L 122.31,247.25 L 123.51,243.48 L 124.65,239.7 Z" fill="#1a1a1a" fill-opacity="0.55" stroke="#1a1a1a" stroke-width="0.4" stroke-opacity="0.55" stroke-linejoin="round" />
  <path d="M 116.43,234.23 L 115.2,237.99 L 113.94,241.75 L 112.69,245.5 L 111.45,249.27 L 110.2,253.05 L 108.9,256.9 L 107.58,260.79 L 106.28,264.63 L 105.03,268.43 L 103.87,272.22 L 102.78,276.04 L 101.68,279.89 L 100.51,283.67 L 99.29,287.36 L 98.03,291.06 L 96.77,294.77 L 95.55,298.55 L 96.15,298.75 L 97.4,294.98 L 98.68,291.28 L 99.96,287.59 L 101.19,283.88 L 102.38,280.09 L 103.48,276.24 L 104.57,272.43 L 105.73,268.65 L 106.97,264.86 L 108.27,261.02 L 109.59,257.13 L 110.88,253.28 L 112.13,249.49 L 113.36,245.72 L 114.59,241.96 L 115.81,238.19 L 117.03,234.42 Z" fill="#1a1a1a" fill-opacity="0.55" stroke="#1a1a1a" stroke-width="0.4" stroke-opacity="0.55" stroke-linejoin="round" />
  <path d="M 108.44,230 L 107.18,233.71 L 105.91,237.42 L 104.65,241.15 L 103.41,244.93 L 102.17,248.73 L 100.96,252.53 L 99.77,256.29 L 98.56,260.02 L 97.3,263.74 L 96.04,267.48 L 94.79,271.23 L 93.62,275.01 L 92.47,278.8 L 91.24,282.51 L 90.01,286.2 L 88.83,289.96 L 87.63,293.72 L 86.34,297.46 L 86.93,297.66 L 88.23,293.92 L 89.46,290.16 L 90.65,286.41 L 91.88,282.72 L 93.13,279.01 L 94.28,275.21 L 95.45,271.44 L 96.69,267.7 L 97.96,263.96 L 99.21,260.23 L 100.43,256.5 L 101.62,252.74 L 102.83,248.94 L 104.07,245.15 L 105.32,241.37 L 106.56,237.64 L 107.8,233.92 L 109.04,230.2 Z" fill="#1a1a1a" fill-opacity="0.55" stroke="#1a1a1a" stroke-width="0.4" stroke-opacity="0.55" stroke-linejoin="round" />
  <path d="M 100.88,224.04 L 99.58,227.76 L 98.25,231.54 L 96.92,235.35 L 95.65,239.17 L 94.42,242.95 L 93.21,246.71 L 92.01,250.47 L 90.79,254.24 L 89.52,258.02 L 88.26,261.82 L 87.05,265.62 L 85.86,269.39 L 84.66,273.14 L 83.46,276.9 L 82.32,280.69 L 81.17,284.55 L 79.96,288.41 L 78.69,292.25 L 79.29,292.44 L 80.57,288.6 L 81.8,284.74 L 82.97,280.89 L 84.12,277.1 L 85.31,273.35 L 86.53,269.61 L 87.71,265.83 L 88.92,262.04 L 90.19,258.25 L 91.46,254.47 L 92.69,250.69 L 93.89,246.92 L 95.1,243.17 L 96.32,239.39 L 97.58,235.57 L 98.88,231.76 L 100.19,227.98 L 101.47,224.24 Z" fill="#1a1a1a" fill-opacity="0.55" stroke="#1a1a1a" stroke-width="0.4" stroke-opacity="0.55" stroke-linejoin="round" />
  <path d="M 92.65,219.64 L 91.43,223.38 L 90.2,227.11 L 88.99,230.86 L 87.75,234.62 L 86.5,238.39 L 85.24,242.17 L 84,245.97 L 82.77,249.79 L 81.55,253.6 L 80.35,257.37 L 79.11,261.11 L 77.87,264.82 L 76.7,268.49 L 75.59,272.15 L 74.53,275.84 L 73.43,279.59 L 72.2,283.4 L 70.94,287.25 L 69.66,291.1 L 68.36,294.99 L 68.96,295.19 L 70.27,291.3 L 71.56,287.45 L 72.84,283.61 L 74.08,279.79 L 75.19,276.03 L 76.26,272.35 L 77.37,268.7 L 78.54,265.04 L 79.78,261.33 L 81.02,257.59 L 82.23,253.81 L 83.45,250.01 L 84.68,246.19 L 85.92,242.39 L 87.17,238.61 L 88.42,234.84 L 89.64,231.07 L 90.83,227.31 L 92.03,223.57 L 93.24,219.84 Z" fill="#1a1a1a" fill-opacity="0.55" stroke="#1a1a1a" stroke-width="0.4" stroke-opacity="0.55" stroke-linejoin="round" />
  <path d="M 84.48,215.69 L 83.26,219.39 L 82.06,223.11 L 80.88,226.84 L 79.71,230.58 L 78.52,234.32 L 77.29,238.08 L 76.06,241.85 L 74.84,245.6 L 73.62,249.33 L 72.42,253.04 L 71.24,256.71 L 70.05,260.34 L 68.85,263.97 L 67.56,267.62 L 66.29,271.3 L 65.17,275.02 L 64.04,278.77 L 62.83,282.55 L 61.54,286.32 L 60.32,290.1 L 59.21,293.91 L 59.83,294.09 L 60.94,290.3 L 62.19,286.54 L 63.51,282.77 L 64.73,278.98 L 65.86,275.22 L 66.97,271.52 L 68.23,267.86 L 69.51,264.2 L 70.72,260.56 L 71.89,256.92 L 73.07,253.25 L 74.28,249.54 L 75.49,245.81 L 76.71,242.06 L 77.94,238.3 L 79.17,234.54 L 80.36,230.78 L 81.53,227.04 L 82.69,223.31 L 83.87,219.58 L 85.07,215.88 Z" fill="#1a1a1a" fill-opacity="0.55" stroke="#1a1a1a" stroke-width="0.4" stroke-opacity="0.55" stroke-linejoin="round" />
  <path d="M 76.95,209.47 L 75.74,213.29 L 74.55,217.12 L 73.37,220.92 L 72.2,224.69 L 71.01,228.44 L 69.81,232.17 L 68.59,235.88 L 67.32,239.57 L 66.04,243.27 L 64.79,247.02 L 63.59,250.83 L 62.42,254.64 L 61.25,258.42 L 60.03,262.2 L 58.74,266 L 57.46,269.78 L 56.2,273.5 L 54.98,277.23 L 53.81,281.07 L 52.61,284.88 L 51.38,288.68 L 50.15,292.5 L 50.75,292.69 L 52,288.88 L 53.24,285.08 L 54.46,281.27 L 55.64,277.44 L 56.86,273.72 L 58.11,270 L 59.4,266.23 L 60.7,262.42 L 61.92,258.64 L 63.1,254.85 L 64.27,251.04 L 65.46,247.24 L 66.72,243.5 L 68,239.8 L 69.26,236.1 L 70.48,232.39 L 71.68,228.66 L 72.86,224.9 L 74.02,221.12 L 75.18,217.31 L 76.35,213.48 L 77.54,209.65 Z" fill="#1a1a1a" fill-opacity="0.55" stroke="#1a1a1a" stroke-width="0.4" stroke-opacity="0.55" stroke-linejoin="round" />
  <path d="M 68.88,205.87 L 67.65,209.6 L 66.41,213.31 L 65.16,217.01 L 63.92,220.72 L 62.69,224.44 L 61.48,228.2 L 60.28,231.99 L 59.09,235.76 L 57.91,239.51 L 56.72,243.21 L 55.52,246.89 L 54.31,250.55 L 53.11,254.18 L 51.9,257.81 L 50.66,261.51 L 49.44,265.23 L 48.3,268.93 L 47.16,272.64 L 45.99,276.36 L 44.78,280.09 L 43.57,283.82 L 42.31,287.46 L 41.07,291.05 L 41.67,291.26 L 42.91,287.67 L 44.19,284.03 L 45.43,280.3 L 46.64,276.57 L 47.82,272.84 L 48.96,269.14 L 50.1,265.44 L 51.32,261.73 L 52.57,258.04 L 53.77,254.4 L 54.98,250.77 L 56.19,247.12 L 57.4,243.43 L 58.59,239.73 L 59.78,235.98 L 60.97,232.2 L 62.17,228.42 L 63.38,224.66 L 64.61,220.95 L 65.83,217.24 L 67.06,213.53 L 68.28,209.8 L 69.49,206.07 Z" fill="#1a1a1a" fill-opacity="0.55" stroke="#1a1a1a" stroke-width="0.4" stroke-opacity="0.55" stroke-linejoin="round" />
  <path d="M 53.68,223.37 L 52.49,227.08 L 51.28,230.8 L 50.06,234.5 L 48.8,238.2 L 47.54,241.92 L 46.31,245.66 L 45.11,249.4 L 43.94,253.1 L 42.76,256.77 L 41.55,260.46 L 40.3,264.18 L 39.07,267.9 L 37.85,271.58 L 36.68,275.22 L 35.59,278.82 L 34.5,282.43 L 33.26,286.13 L 33.85,286.33 L 35.11,282.63 L 36.23,279.02 L 37.32,275.43 L 38.5,271.79 L 39.72,268.11 L 40.95,264.39 L 42.19,260.68 L 43.41,256.98 L 44.59,253.31 L 45.77,249.61 L 46.96,245.88 L 48.2,242.14 L 49.46,238.42 L 50.71,234.72 L 51.92,231 L 53.1,227.27 L 54.28,223.56 Z" fill="#1a1a1a" fill-opacity="0.55" stroke="#1a1a1a" stroke-width="0.4" stroke-opacity="0.55" stroke-linejoin="round" />
  <path d="M 25.19,281.78 L 24.09,285.28 L 23.04,288.79 L 23.64,288.98 L 24.76,285.49 L 25.8,281.97 Z" fill="#1a1a1a" fill-opacity="0.55" stroke="#1a1a1a" stroke-width="0.4" stroke-opacity="0.55" stroke-linejoin="round" />
  <polyline points="225.95,163.72 223.68,168.79 221.28,173.82 218.92,178.92 216.71,184.09 214.7,189.16 212.74,194.18 210.75,199.22 208.63,204.31 206.23,209.49 203.81,214.58 201.46,219.59" fill="none" stroke="#1a1a1a" stroke-width="1.192" stroke-opacity="0.32" stroke-dasharray="4,3" stroke-linecap="round" stroke-linejoin="round" />
  <polyline points="225.95,163.72 231.83,164.16 237.65,164.62 243.42,165.11 249.17,165.63 254.89,166.18 260.57,166.74 266.22,167.27 271.89,167.78 277.62,168.28 283.39,168.77 289.19,169.26 294.98,169.72 300.78,170.13 306.6,170.5 312.43,170.87 318.22,171.26 323.98,171.7 329.76,172.2 335.54,172.7 341.32,173.16" fill="none" stroke="#1a1a1a" stroke-width="1.146" stroke-opacity="0.32" stroke-dasharray="4,3" stroke-linecap="round" stroke-linejoin="round" />
  <polyline points="225.95,163.72 226.07,157.84 226.17,151.91 226.28,145.92 226.4,139.93 226.52,133.99 226.64,128.12 226.72,122.27 226.77,116.36 226.8,110.35 226.83,104.3 226.86,98.28 226.83,92.32 226.76,86.37 226.72,80.41 226.75,74.48 226.81,68.61 226.84,62.76 226.8,56.84 226.73,50.83" fill="none" stroke="#1a1a1a" stroke-width="1.164" stroke-opacity="0.32" stroke-dasharray="4,3" stroke-linecap="round" stroke-linejoin="round" />
  <path d="M 227.29,50.82 L 227.29,50.63 L 226.17,50.64 L 226.17,50.83 Z" fill="#1a1a1a" stroke="#1a1a1a" stroke-width="0.4" stroke-linejoin="round" />
  <polyline points="201.46,219.59 206.91,220.13 212.36,220.66 217.84,221.21 223.31,221.79 228.74,222.39 234.14,222.99" fill="none" stroke="#1a1a1a" stroke-width="1.261" stroke-opacity="0.32" stroke-dasharray="4,3" stroke-linecap="round" stroke-linejoin="round" />
  <path d="M 234.08,223.59 L 239.94,224.24 L 245.84,224.86 L 251.79,225.4 L 257.75,225.91 L 263.69,226.43 L 269.6,226.97 L 275.49,227.5 L 281.38,228.02 L 287.29,228.54 L 293.21,229.09 L 299.11,229.69 L 305.01,230.3 L 310.94,230.91 L 316.89,231.54 L 322.86,232.22 L 328.84,232.89 L 334.81,233.56 L 340.75,234.21 L 340.88,233.04 L 334.95,232.34 L 329,231.57 L 323.02,230.83 L 317.04,230.16 L 311.08,229.55 L 305.15,228.95 L 299.25,228.35 L 293.33,227.76 L 287.41,227.2 L 281.5,226.65 L 275.61,226.1 L 269.73,225.56 L 263.82,225.02 L 257.87,224.51 L 251.91,224 L 245.96,223.5 L 240.07,222.99 L 234.2,222.4 Z" fill="#1a1a1a" stroke="#1a1a1a" stroke-width="0.4" stroke-linejoin="round" />
  <polyline points="201.46,219.59 201.37,213.86 201.34,208.13 201.34,202.44 201.35,196.77 201.37,191.12 201.39,185.45 201.39,179.79 201.35,174.11 201.29,168.37 201.22,162.53 201.15,156.6 201.08,150.64 201.02,144.71" fill="none" stroke="#1a1a1a" stroke-width="1.28" stroke-opacity="0.32" stroke-dasharray="4,3" stroke-linecap="round" stroke-linejoin="round" />
  <path d="M 201.65,144.7 L 201.67,138.79 L 201.64,132.88 L 201.54,127.01 L 201.42,121.2 L 201.25,115.46 L 201.04,109.76 L 200.82,104.09 L 200.61,98.41 L 200.39,92.71 L 200.22,86.98 L 199.02,87 L 199.07,92.74 L 199.18,98.45 L 199.36,104.14 L 199.57,109.82 L 199.79,115.51 L 199.96,121.24 L 200.08,127.03 L 200.15,132.9 L 200.26,138.8 L 200.4,144.72 Z" fill="#1a1a1a" stroke="#1a1a1a" stroke-width="0.4" stroke-linejoin="round" />
  <path d="M 341.42,233.63 L 341.42,233.21 L 340.21,233.2 L 340.21,233.62 Z" fill="#1a1a1a" stroke="#1a1a1a" stroke-width="0.4" stroke-linejoin="round" />
  <polyline points="340.82,233.21 340.73,227.07 340.63,221.02 340.77,215.17 341,209.17 341.21,203.02 341.27,196.97 341.28,190.93 341.18,185.02 341.18,179.19 341.32,173.16" fill="none" stroke="#1a1a1a" stroke-width="1.217" stroke-opacity="0.32" stroke-dasharray="4,3" stroke-linecap="round" stroke-linejoin="round" />
  <path d="M 341.44,233.69 L 342.08,228.1 L 342.75,222.42 L 343.42,216.65 L 344.07,210.84 L 344.71,205.01 L 345.35,199.19 L 345.97,193.38 L 346.59,187.58 L 347.21,181.8 L 347.85,176.08 L 348.5,170.38 L 349.15,164.68 L 349.79,158.99 L 350.44,153.31 L 351.13,147.64 L 351.83,141.94 L 352.53,136.22 L 353.23,130.49 L 353.91,124.75 L 354.57,119 L 355.21,113.24 L 355.87,107.48 L 356.56,101.71 L 357.28,95.93 L 356.06,95.78 L 355.31,101.55 L 354.52,107.31 L 353.76,113.07 L 353.08,118.83 L 352.44,124.59 L 351.78,130.32 L 351.08,136.04 L 350.38,141.76 L 349.68,147.46 L 349.02,153.14 L 348.38,158.83 L 347.75,164.52 L 347.11,170.22 L 346.47,175.92 L 345.82,181.65 L 345.16,187.42 L 344.51,193.22 L 343.88,199.03 L 343.25,204.85 L 342.62,210.68 L 342.01,216.5 L 341.41,222.27 L 340.8,227.95 L 340.19,233.56 Z" fill="#1a1a1a" stroke="#1a1a1a" stroke-width="0.4" stroke-linejoin="round" />
  <polyline points="341.32,173.16 341.93,167.26 342.58,161.45 343.24,155.7 343.91,149.97 344.57,144.27 345.19,138.56 345.8,132.82 346.42,127.01 347.06,121.17 347.72,115.31 348.38,109.44 349.04,103.59 349.76,97.75 350.49,91.93 351.14,86.1 351.74,80.22 352.32,74.28 352.89,68.33 353.46,62.42 354.05,56.62" fill="none" stroke="#1a1a1a" stroke-width="1.187" stroke-opacity="0.32" stroke-dasharray="4,3" stroke-linecap="round" stroke-linejoin="round" />
  <path d="M 354.63,56.68 L 354.65,56.48 L 353.5,56.36 L 353.48,56.56 Z" fill="#1a1a1a" stroke="#1a1a1a" stroke-width="0.4" stroke-linejoin="round" />
  <path d="M 226.25,50.29 L 222.75,55.02 L 219.51,59.5 L 216.18,63.77 L 212.97,68.16 L 209.43,73.04 L 205.96,77.68 L 202.51,82.13 L 199.16,86.63 L 200.08,87.34 L 203.57,82.96 L 207.08,78.54 L 210.56,73.86 L 214.09,68.98 L 217.29,64.62 L 220.65,60.36 L 223.88,55.84 L 227.21,50.98 Z" fill="#1a1a1a" stroke="#1a1a1a" stroke-width="0.4" stroke-linejoin="round" />
  <path d="M 226.71,51.2 L 232.49,51.46 L 238.33,51.72 L 244.16,51.96 L 249.94,52.19 L 255.68,52.43 L 261.43,52.67 L 267.23,52.87 L 273.04,53.05 L 278.86,53.27 L 284.69,53.56 L 290.51,53.9 L 296.32,54.28 L 302.08,54.64 L 307.82,54.96 L 313.56,55.25 L 319.29,55.53 L 325.05,55.83 L 330.83,56.12 L 336.61,56.38 L 342.41,56.58 L 348.24,56.77 L 354.05,56.98 L 354.1,55.86 L 348.28,55.6 L 342.46,55.33 L 336.67,55.07 L 330.89,54.8 L 325.12,54.5 L 319.36,54.2 L 313.62,53.93 L 307.89,53.66 L 302.16,53.35 L 296.4,53 L 290.59,52.64 L 284.75,52.3 L 278.92,51.99 L 273.09,51.74 L 267.27,51.53 L 261.48,51.33 L 255.73,51.1 L 249.99,50.86 L 244.21,50.66 L 238.38,50.47 L 232.54,50.28 L 226.75,50.06 Z" fill="#1a1a1a" stroke="#1a1a1a" stroke-width="0.4" stroke-linejoin="round" />
  <path d="M 199.58,87.62 L 205.43,87.99 L 211.29,88.36 L 217.13,88.75 L 222.95,89.13 L 228.74,89.5 L 234.5,89.85 L 240.23,90.18 L 245.97,90.51 L 251.73,90.85 L 257.55,91.2 L 263.41,91.57 L 269.3,91.95 L 275.2,92.29 L 281.09,92.62 L 286.98,92.94 L 292.84,93.24 L 298.68,93.54 L 304.49,93.85 L 310.29,94.16 L 316.05,94.48 L 321.8,94.8 L 327.57,95.12 L 333.37,95.44 L 339.2,95.72 L 345.04,95.96 L 350.85,96.19 L 356.64,96.48 L 356.7,95.23 L 350.91,94.92 L 345.1,94.62 L 339.27,94.31 L 333.45,93.97 L 327.66,93.6 L 321.89,93.25 L 316.13,92.94 L 310.36,92.65 L 304.57,92.37 L 298.76,92.06 L 292.92,91.75 L 287.05,91.46 L 281.17,91.16 L 275.28,90.85 L 269.39,90.51 L 263.5,90.15 L 257.64,89.79 L 251.82,89.41 L 246.06,89.05 L 240.32,88.69 L 234.59,88.34 L 228.83,88 L 223.04,87.66 L 217.22,87.32 L 211.37,87 L 205.51,86.68 L 199.65,86.35 Z" fill="#1a1a1a" stroke="#1a1a1a" stroke-width="0.4" stroke-linejoin="round" />
  <path d="M 357.27,95.79 L 356.84,90.48 L 356.45,84.88 L 356.41,79.23 L 356.11,73.62 L 355.64,67.68 L 355.14,62.02 L 354.67,56.38 L 353.48,56.46 L 353.73,62.13 L 354.22,67.8 L 354.69,73.71 L 354.97,79.27 L 354.99,84.94 L 355.41,90.61 L 356.06,95.92 Z" fill="#1a1a1a" stroke="#1a1a1a" stroke-width="0.4" stroke-linejoin="round" />
  <path d="M 64.35,200.35 L 61.71,205.65 L 59.06,210.99 L 56.51,216.28 L 54.1,221.5 L 51.67,226.53 L 49.17,231.51 L 46.62,236.71 L 44.1,241.93 L 41.54,247.01 L 39.05,252.02 L 36.66,257.15 L 34.22,262.37 L 31.6,267.63 L 28.92,272.85 L 26.33,277.99 L 23.82,283.09 L 21.33,288.22 L 22.7,288.9 L 25.26,283.81 L 27.88,278.79 L 30.57,273.7 L 33.29,268.49 L 35.93,263.2 L 38.39,257.96 L 40.77,252.85 L 43.24,247.86 L 45.79,242.76 L 48.28,237.52 L 50.82,232.33 L 53.32,227.34 L 55.75,222.28 L 58.16,217.05 L 60.62,211.73 L 63.13,206.34 L 65.7,201.01 Z" fill="#1a1a1a" stroke="#1a1a1a" stroke-width="0.4" stroke-linejoin="round" />
  <path d="M 64.64,201.35 L 69.75,204.28 L 74.85,207.25 L 79.96,210.27 L 85.1,213.31 L 90.27,216.32 L 95.45,219.3 L 100.63,222.28 L 105.81,225.28 L 110.99,228.3 L 116.19,231.35 L 121.4,234.43 L 126.6,237.55 L 131.8,240.68 L 136.99,243.78 L 142.19,246.85 L 147.41,249.88 L 152.63,252.86 L 157.85,255.81 L 163.05,258.75 L 168.25,261.69 L 173.44,264.65 L 178.66,267.62 L 183.87,270.59 L 189.09,273.57 L 194.28,276.56 L 199.45,279.55 L 204.62,282.54 L 209.78,285.54 L 214.95,288.55 L 220.11,291.57 L 225.27,294.57 L 230.41,297.57 L 235.55,300.56 L 240.69,303.54 L 245.85,306.52 L 251.03,309.5 L 256.26,312.48 L 261.52,315.47 L 266.76,318.47 L 271.94,321.49 L 277.09,324.54 L 277.88,323.23 L 272.74,320.15 L 267.57,317.09 L 262.35,314.03 L 257.12,310.98 L 251.91,307.97 L 246.72,304.99 L 241.57,302.03 L 236.42,299.06 L 231.29,296.07 L 226.15,293.06 L 221.01,290.04 L 215.86,287 L 210.69,283.98 L 205.53,280.97 L 200.36,277.99 L 195.17,275.01 L 189.96,272.05 L 184.74,269.08 L 179.52,266.1 L 174.33,263.11 L 169.15,260.11 L 163.98,257.12 L 158.79,254.15 L 153.59,251.18 L 148.36,248.22 L 143.15,245.22 L 137.97,242.15 L 132.79,239.02 L 127.61,235.88 L 122.4,232.75 L 117.19,229.66 L 111.98,226.61 L 106.77,223.6 L 101.57,220.63 L 96.37,217.69 L 91.17,214.75 L 85.97,211.8 L 80.8,208.83 L 75.65,205.86 L 70.53,202.92 L 65.41,200.01 Z" fill="#1a1a1a" stroke="#1a1a1a" stroke-width="0.4" stroke-linejoin="round" />
  <path d="M 65.57,201.2 L 69.65,196.93 L 73.64,192.65 L 77.63,188.36 L 81.71,184.1 L 85.83,179.86 L 89.99,175.59 L 94.18,171.31 L 98.32,167.03 L 102.44,162.76 L 106.52,158.43 L 110.56,154 L 114.56,149.46 L 118.54,144.93 L 122.53,140.5 L 126.54,136.18 L 130.57,131.91 L 134.62,127.63 L 138.67,123.28 L 142.75,118.86 L 146.85,114.48 L 150.91,110.16 L 154.93,105.89 L 158.92,101.61 L 162.92,97.29 L 166.95,92.87 L 171,88.4 L 175.07,83.95 L 173.98,82.94 L 169.88,87.38 L 165.8,91.81 L 161.73,96.18 L 157.71,100.48 L 153.69,104.72 L 149.65,108.97 L 145.56,113.26 L 141.43,117.62 L 137.31,122.01 L 133.25,126.35 L 129.23,130.65 L 125.21,134.93 L 121.18,139.26 L 117.14,143.68 L 113.13,148.21 L 109.14,152.73 L 105.12,157.14 L 101.06,161.45 L 96.97,165.73 L 92.85,170.02 L 88.68,174.31 L 84.52,178.58 L 80.41,182.86 L 76.37,187.19 L 72.45,191.56 L 68.53,195.88 L 64.48,200.16 Z" fill="#1a1a1a" stroke="#1a1a1a" stroke-width="0.4" stroke-linejoin="round" />
  <path d="M 21.93,289.25 L 27.83,290.02 L 33.76,290.84 L 39.71,291.67 L 45.71,292.53 L 51.76,293.38 L 57.81,294.23 L 63.83,295.07 L 69.82,295.91 L 75.76,296.73 L 81.67,297.55 L 87.54,298.36 L 93.4,299.16 L 99.27,299.93 L 105.18,300.69 L 111.14,301.47 L 117.14,302.27 L 123.12,303.11 L 129.08,303.96 L 135,304.82 L 140.9,305.68 L 146.8,306.55 L 152.7,307.41 L 158.62,308.28 L 164.54,309.14 L 170.46,310 L 176.39,310.85 L 182.34,311.7 L 188.31,312.54 L 194.28,313.38 L 200.25,314.18 L 206.21,314.95 L 212.17,315.7 L 218.14,316.45 L 224.11,317.24 L 230.08,318.08 L 236.04,318.95 L 241.99,319.78 L 247.89,320.56 L 253.77,321.32 L 259.65,322.07 L 265.53,322.84 L 271.44,323.68 L 277.39,324.55 L 277.58,323.21 L 271.64,322.33 L 265.73,321.46 L 259.84,320.62 L 253.97,319.81 L 248.1,319.01 L 242.21,318.18 L 236.27,317.34 L 230.3,316.5 L 224.32,315.7 L 218.34,314.92 L 212.37,314.17 L 206.41,313.41 L 200.46,312.62 L 194.5,311.8 L 188.53,310.95 L 182.57,310.1 L 176.62,309.26 L 170.68,308.42 L 164.76,307.6 L 158.84,306.75 L 152.93,305.88 L 147.03,304.99 L 141.14,304.08 L 135.25,303.18 L 129.33,302.28 L 123.36,301.41 L 117.37,300.59 L 111.36,299.8 L 105.4,299.02 L 99.5,298.24 L 93.63,297.44 L 87.78,296.63 L 81.91,295.82 L 76,295.01 L 70.05,294.2 L 64.06,293.4 L 58.03,292.6 L 51.97,291.8 L 45.92,291.01 L 39.91,290.21 L 33.95,289.42 L 28.02,288.65 L 22.11,287.88 Z" fill="#1a1a1a" stroke="#1a1a1a" stroke-width="0.4" stroke-linejoin="round" />
  <path d="M 22.56,288.96 L 22.75,288.7 L 21.66,287.9 L 21.47,288.17 Z" fill="#1a1a1a" stroke="#1a1a1a" stroke-width="0.4" stroke-linejoin="round" />
  <polyline points="22.21,288.3 25.73,283.53 29.26,278.77 32.81,274.04 36.38,269.32 39.94,264.6 43.5,259.88 47.04,255.15 50.56,250.42 54.05,245.67 57.52,240.89 60.99,236.1 64.46,231.3 67.94,226.53 71.44,221.78 74.97,217.06 78.53,212.35 82.1,207.64 85.65,202.93 89.18,198.23 92.7,193.51 96.22,188.8 99.74,184.09 103.25,179.38 106.76,174.62 110.28,169.82 113.81,164.98 117.36,160.11 120.93,155.26 124.51,150.44 128.09,145.66 131.67,140.92 135.24,136.19 138.82,131.46 142.39,126.72 145.95,121.97 149.51,117.22 153.06,112.47 156.59,107.72 160.11,102.97 163.64,98.21 167.17,93.44 170.69,88.66 174.21,83.88" fill="none" stroke="#1a1a1a" stroke-width="1.441" stroke-opacity="0.32" stroke-dasharray="4,3" stroke-linecap="round" stroke-linejoin="round" />
  <path d="M 174.75,84.27 L 175.07,83.84 L 173.99,83.05 L 173.67,83.48 Z" fill="#1a1a1a" stroke="#1a1a1a" stroke-width="0.4" stroke-linejoin="round" />
  <path d="M 278.12,323.62 L 275.84,318.1 L 273.58,312.59 L 271.32,307.09 L 269.02,301.59 L 266.68,296.09 L 264.31,290.62 L 261.92,285.15 L 259.53,279.68 L 257.14,274.22 L 254.78,268.77 L 252.47,263.31 L 250.19,257.85 L 247.93,252.38 L 245.65,246.9 L 243.36,241.43 L 241.05,235.95 L 238.72,230.5 L 236.34,225.08 L 233.92,219.68 L 231.49,214.3 L 229.06,208.93 L 226.63,203.58 L 224.23,198.23 L 221.86,192.86 L 219.51,187.46 L 217.17,182.02 L 214.84,176.55 L 212.51,171.02 L 210.18,165.47 L 207.85,159.93 L 205.51,154.4 L 203.17,148.9 L 200.85,143.41 L 198.54,137.91 L 196.23,132.39 L 193.93,126.85 L 191.59,121.32 L 189.23,115.83 L 186.86,110.38 L 184.48,104.96 L 182.12,99.53 L 179.77,94.09 L 177.45,88.64 L 175.15,83.18 L 173.9,83.71 L 176.2,89.17 L 178.49,94.63 L 180.8,100.1 L 183.1,105.55 L 185.43,111 L 187.76,116.46 L 190.09,121.96 L 192.44,127.48 L 194.79,133 L 197.12,138.51 L 199.43,144.01 L 201.76,149.5 L 204.08,155.01 L 206.4,160.54 L 208.71,166.09 L 211.03,171.64 L 213.36,177.17 L 215.7,182.65 L 218.06,188.09 L 220.44,193.49 L 222.83,198.86 L 225.22,204.21 L 227.61,209.58 L 230.01,214.96 L 232.4,220.36 L 234.78,225.76 L 237.15,231.18 L 239.5,236.62 L 241.82,242.07 L 244.09,247.55 L 246.34,253.03 L 248.59,258.51 L 250.87,263.98 L 253.19,269.45 L 255.55,274.91 L 257.96,280.37 L 260.39,285.82 L 262.81,291.28 L 265.22,296.73 L 267.61,302.19 L 269.97,307.66 L 272.27,313.14 L 274.56,318.63 L 276.85,324.15 Z" fill="#1a1a1a" stroke="#1a1a1a" stroke-width="0.4" stroke-linejoin="round" />
</g></g>
<text x="14" y="26" font-family="sans-serif" font-size="14" fill="#999"></text>
<line x1="441" y1="8" x2="441" y2="372" stroke="#ddd" stroke-width="1" />
<text x="215" y="20" text-anchor="middle" font-family="sans-serif" font-size="14" fill="#999">creases (hidden-line)</text>
<text x="667" y="20" text-anchor="middle" font-family="sans-serif" font-size="14" fill="#999">faceted shading</text>
</svg>